<svg xmlns="http://www.w3.org/2000/svg" width="90.51mm" height="18.1mm" viewBox="0 0 256.57 51.31">
  <defs>
    <style>
      .a {
        fill: #eeeebe;
      }

      .b {
        fill: #9e9e53;
      }

      .c {
        fill: #e3e3aa;
      }

      .d {
        fill: #9c9b5c;
      }
    </style>
  </defs>
  <title>Asset 5_SVG</title>
  <g>
    <rect class="a" x="4" y="4" width="248.57" height="43.31" rx="10"/>
    <path class="b" d="M242.57,0H14A14,14,0,0,0,0,14V37.31a14,14,0,0,0,14,14H242.57a14,14,0,0,0,14-14V14A14,14,0,0,0,242.57,0Zm10,37.31a10,10,0,0,1-10,10H14a10,10,0,0,1-10-10V14A10,10,0,0,1,14,4H242.57a10,10,0,0,1,10,10Z"/>
    <polygon class="c" points="22.47 30.6 29.9 35.96 27.15 27.33 34.77 21.95 25.44 21.95 22.7 13.33 19.74 21.99 10.41 21.99 17.87 27.32 14.85 35.98 22.47 30.6"/>
    <polygon class="d" points="22.51 28.54 27.37 32.05 25.57 26.41 30.55 22.89 24.46 22.89 22.66 17.25 20.72 22.91 14.62 22.91 19.5 26.4 17.53 32.06 22.51 28.54"/>
    <polygon class="a" points="22.77 27.29 25.83 29.5 24.7 25.94 27.84 23.72 23.99 23.72 22.86 20.16 21.64 23.73 17.78 23.73 20.87 25.93 19.62 29.51 22.77 27.29"/>
    <polygon class="c" points="234.13 30.6 241.55 35.96 238.81 27.33 246.42 21.95 237.1 21.95 234.36 13.33 231.39 21.99 222.06 21.99 229.53 27.32 226.51 35.98 234.13 30.6"/>
    <polygon class="d" points="234.17 28.54 239.02 32.05 237.23 26.41 242.21 22.89 236.11 22.89 234.32 17.25 232.38 22.91 226.28 22.91 231.16 26.4 229.18 32.06 234.17 28.54"/>
    <polygon class="a" points="234.42 27.29 237.49 29.5 236.35 25.94 239.5 23.72 235.65 23.72 234.51 20.16 233.29 23.73 229.44 23.73 232.52 25.93 231.27 29.51 234.42 27.29"/>
  </g>
</svg>
