<svg xmlns="http://www.w3.org/2000/svg" viewBox="0 0 30.74 67.72">
  <defs>
    <style>
      .a {
        fill: #e0d8b3;
      }
    </style>
  </defs>
  <title>Asset 18_SVG</title>
  <g transform="rotate(90deg)">
    <path class="a" d="M22.05,2.11,22.24,0a2.31,2.31,0,0,1,.14,1.22Z"/>
    <path class="a" d="M21.37,11H21c.11-2.06-1.09-3.45-.94-5.12.34,1.08.45,3.47,1.27,2.46Z"/>
    <path class="a" d="M20.37,4.76a3.28,3.28,0,0,0-.27,1.09L20,5.66Z"/>
    <path class="a" d="M26.73,13.64a10.89,10.89,0,0,1,0-8c0,2.82-.17,5.94.67,8Z"/>
    <polygon class="a" points="7.66 13.64 7.99 6.54 7.99 14.52 7.66 13.64"/>
    <polygon class="a" points="18.03 14.52 18.36 10.97 18.03 18.06 18.03 14.52"/>
    <rect class="a" x="4.32" y="11.86" width="0.33" height="5.32"/>
    <path class="a" d="M23.38,26.05c.3.36.47-.44.67-.89a13.06,13.06,0,0,0-1-5.32l1.33,1.77-.33,6.22Z"/>
    <path class="a" d="M24.39,21.61h0l.17-3.1A4.38,4.38,0,0,1,24.39,21.61Z"/>
    <path class="a" d="M24.72,15.41l-.17,3.1A4.33,4.33,0,0,1,24.72,15.41Z"/>
    <polygon class="a" points="7.33 23.39 7.66 16.29 7.33 26.94 7.33 23.39"/>
    <path class="a" d="M5,29.59l-.33-8C5,24.71,5.29,30,5,29.59Z"/>
    <path class="a" d="M30.74,31.36l-.67-1.77-.34.89V27.83C30.44,28.62,30.47,29.68,30.74,31.36Z"/>
    <polygon class="a" points="17.03 31.36 17.36 31.36 17.36 36.69 17.03 31.36"/>
    <path class="a" d="M29.45,52c.06-1.13.15-2.24.26-3.34A13.64,13.64,0,0,1,29.45,52Z"/>
    <path class="a" d="M29.4,55.31A10.73,10.73,0,0,1,29.45,52C29.4,53.12,29.37,54.2,29.4,55.31Z"/>
    <path class="a" d="M30.07,45.18V34.91A34.31,34.31,0,0,1,30.07,45.18Z"/>
    <path class="a" d="M30.07,45.55l-.05.14c0-.17,0-.34.05-.51Z"/>
    <path class="a" d="M29.4,47.33,30,45.69c-.11,1-.21,2-.31,3A5.39,5.39,0,0,0,29.4,47.33Z"/>
    <path class="a" d="M21.34,37.08c0-.69,0-1.4,0-2.17A4.9,4.9,0,0,1,21.34,37.08Z"/>
    <path class="a" d="M21,44.67c.13-1.42-.3-3.55.33-4.43-.64-1.13-.26-2.05,0-3.16C21.38,40.11,21.69,42.43,21,44.67Z"/>
    <path class="a" d="M4.65,36.69A76.78,76.78,0,0,1,4,49.11Z"/>
    <path class="a" d="M23.38,46.45c-.93-1.69.3-3.2,0-5.33A9.66,9.66,0,0,1,23.38,46.45Z"/>
    <path class="a" d="M26.73,50l.67-4.44A9.46,9.46,0,0,1,26.73,50Z"/>
    <path class="a" d="M21.37,48.22a15.6,15.6,0,0,0,.29,4.31C21.2,51.15,20.58,49.88,21.37,48.22Z"/>
    <path class="a" d="M21.66,52.53a6.55,6.55,0,0,1,.39,1.89C21.92,53.79,21.78,53.17,21.66,52.53Z"/>
    <path class="a" d="M25.39,67.72c0-5.85-1.51-13.22,0-17.73l1,3.54A5.89,5.89,0,0,0,26.06,58C24.85,59.3,25.59,64.53,25.39,67.72Z"/>
    <polygon class="a" points="18.36 65.95 19.03 50.88 18.7 66.83 18.36 65.95"/>
    <polygon class="a" points="30.41 55.31 30.74 51.76 30.74 54.42 30.41 55.31"/>
    <path class="a" d="M21.32,58.7c-.54-1.26-.15-3.46-.28-5.17A19.49,19.49,0,0,1,21.32,58.7Z"/>
    <path class="a" d="M21.3,59a2.45,2.45,0,0,0,0-.27l.05.15Z"/>
    <path class="a" d="M21.3,59c-.16,2.34-.52,4.69-.6,7C20.9,63.7,20.22,60.28,21.3,59Z"/>
    <path class="a" d="M5.44,55c2.36-1.23.41-9.91,1.55-12.4.29,2-.15,5.14,0,8C6.86,53.29,6.35,55.68,5.44,55Z"/>
    <rect class="a" x="12.18" y="46.99" width="0.26" height="4.43"/>
    <polygon class="a" points="5.44 47.88 5.44 40.79 5.96 46.1 5.44 47.88"/>
    <path class="a" d="M.26,39.89v1.68A15.67,15.67,0,0,1,.26,39.89Z"/>
    <path class="a" d="M.26,43.09v2.13L0,44.32A3.09,3.09,0,0,0,.26,43.09Z"/>
    <rect class="a" x="17.35" y="39.89" width="0.26" height="5.32"/>
    <path class="a" d="M3.36,37.72v2.17L3.11,39A2.71,2.71,0,0,0,3.36,37.72Z"/>
    <rect class="a" x="12.18" y="36.35" width="0.26" height="3.54"/>
    <path class="a" d="M3.11,28.36a2.11,2.11,0,0,0-.12.48l-.14-.48Z"/>
    <path class="a" d="M2.07,31.92l.8-2.07C2.79,31.33,2.87,33,2.07,31.92Z"/>
    <path class="a" d="M3.11,29.25l-.24.6a9.66,9.66,0,0,1,.12-1Z"/>
  </g>
</svg>
