<svg xmlns="http://www.w3.org/2000/svg" xmlns:xlink="http://www.w3.org/1999/xlink" width="383.32" height="241.95" viewBox="0 0 383.32 241.95">
  <defs>
    <style>
      .a {
        mask: url(#a);
      }

      .b, .d, .f, .h, .j, .l, .n, .p, .r, .t, .v, .x, .z {
        mix-blend-mode: multiply;
      }

      .b {
        fill: url(#c);
      }

      .c {
        mask: url(#d);
      }

      .d {
        fill: url(#f);
      }

      .e {
        mask: url(#g);
      }

      .f {
        fill: url(#i);
      }

      .g {
        mask: url(#j);
      }

      .h {
        fill: url(#l);
      }

      .i {
        mask: url(#m);
      }

      .j {
        fill: url(#o);
      }

      .k {
        mask: url(#p);
      }

      .l {
        fill: url(#r);
      }

      .m {
        mask: url(#s);
      }

      .n {
        fill: url(#u);
      }

      .o {
        mask: url(#v);
      }

      .p {
        fill: url(#x);
      }

      .q {
        mask: url(#y);
      }

      .r {
        fill: url(#aa);
      }

      .s {
        mask: url(#ab);
      }

      .t {
        fill: url(#ad);
      }

      .u {
        mask: url(#ae);
      }

      .v {
        fill: url(#ag);
      }

      .w {
        mask: url(#ah);
      }

      .x {
        fill: url(#aj);
      }

      .y {
        mask: url(#ak);
      }

      .z {
        fill: url(#am);
      }

      .aa {
        isolation: isolate;
      }

      .ab {
        fill: #ffa7a9;
      }

      .ac {
        fill: url(#an);
      }

      .ad {
        fill: #f92d2d;
      }

      .ae {
        fill: #bc5564;
      }

      .af {
        fill: url(#ao);
      }

      .ag {
        fill: url(#ap);
      }

      .ah {
        fill: url(#aq);
      }

      .ai {
        fill: url(#ar);
      }

      .aj {
        fill: url(#as);
      }

      .ak {
        fill: url(#at);
      }

      .al {
        fill: url(#au);
      }

      .am {
        fill: url(#av);
      }

      .an {
        fill: url(#aw);
      }

      .ao {
        fill: url(#ax);
      }

      .ap {
        fill: url(#ay);
      }

      .aq {
        fill: url(#az);
      }

      .ar {
        fill: url(#ba);
      }

      .as {
        fill: url(#bb);
      }

      .at {
        fill: url(#bc);
      }

      .au {
        fill: url(#bd);
      }

      .av {
        fill: url(#be);
      }

      .aw {
        fill: url(#bf);
      }

      .ax {
        fill: url(#bg);
      }

      .ay {
        fill: url(#bh);
      }

      .az {
        fill: url(#bi);
      }

      .ba {
        fill: url(#bj);
      }

      .bb {
        fill: url(#bk);
      }

      .bc {
        fill: url(#bl);
      }

      .bd {
        fill: url(#bm);
      }

      .be {
        fill: url(#bn);
      }

      .bf {
        fill: url(#bo);
      }

      .bg {
        fill: url(#bp);
      }

      .bh {
        fill: url(#bq);
      }

      .bi {
        fill: url(#br);
      }

      .bj {
        fill: url(#bs);
      }

      .bk {
        fill: url(#bt);
      }

      .bl {
        fill: url(#bu);
      }

      .bm {
        fill: url(#bv);
      }

      .bn {
        fill: url(#bw);
      }

      .bo {
        fill: url(#bx);
      }

      .bp {
        fill: url(#by);
      }

      .bq {
        fill: url(#bz);
      }

      .br {
        fill: url(#ca);
      }

      .bs {
        fill: url(#cb);
      }

      .bt {
        fill: url(#cc);
      }

      .bu {
        fill: url(#cd);
      }

      .bv {
        fill: url(#ce);
      }

      .bw {
        fill: url(#cf);
      }

      .bx {
        fill: url(#cg);
      }

      .by {
        fill: url(#ch);
      }

      .bz {
        fill: url(#ci);
      }

      .ca {
        fill: url(#cj);
      }

      .cb {
        mask: url(#ck);
      }

      .cc {
        fill: url(#cl);
      }

      .cd {
        mask: url(#cm);
      }

      .ce, .cg, .ck, .cm, .co, .cq, .cw, .cy {
        opacity: 0.8;
      }

      .ce, .cg, .ci, .ck, .cm, .co, .cq, .cs, .cw, .cy, .da {
        mix-blend-mode: lighten;
      }

      .ce {
        fill: url(#cn);
      }

      .cf {
        mask: url(#co);
      }

      .cg {
        fill: url(#cp);
      }

      .ch {
        mask: url(#cq);
      }

      .ci, .cs, .da {
        opacity: 0.7;
      }

      .ci {
        fill: url(#cr);
      }

      .cj {
        mask: url(#cs);
      }

      .ck {
        fill: url(#ct);
      }

      .cl {
        mask: url(#cu);
      }

      .cm {
        fill: url(#cv);
      }

      .cn {
        mask: url(#cw);
      }

      .co {
        fill: url(#cx);
      }

      .cp {
        mask: url(#cy);
      }

      .cq {
        fill: url(#cz);
      }

      .cr {
        mask: url(#da);
      }

      .cs {
        fill: url(#db);
      }

      .ct {
        mask: url(#dc);
      }

      .cu {
        fill: url(#dd);
      }

      .cv {
        mask: url(#de);
      }

      .cw {
        fill: url(#df);
      }

      .cx {
        mask: url(#dg);
      }

      .cy {
        fill: url(#dh);
      }

      .cz {
        mask: url(#di);
      }

      .da {
        fill: url(#dj);
      }

      .db {
        filter: url(#al);
      }

      .dc {
        filter: url(#ai);
      }

      .dd {
        filter: url(#af);
      }

      .de {
        filter: url(#ac);
      }

      .df {
        filter: url(#z);
      }

      .dg {
        filter: url(#w);
      }

      .dh {
        filter: url(#t);
      }

      .di {
        filter: url(#q);
      }

      .dj {
        filter: url(#n);
      }

      .dk {
        filter: url(#k);
      }

      .dl {
        filter: url(#h);
      }

      .dm {
        filter: url(#e);
      }

      .dn {
        filter: url(#b);
      }
    </style>
    <filter id="b" x="198.96" y="-8299.89" width="32.01" height="32766" filterUnits="userSpaceOnUse" color-interpolation-filters="sRGB">
      <feFlood flood-color="#fff" result="bg"/>
      <feBlend in="SourceGraphic" in2="bg"/>
    </filter>
    <mask id="a" x="198.96" y="-8299.89" width="32.01" height="32766" maskUnits="userSpaceOnUse">
      <g class="dn"/>
    </mask>
    <radialGradient id="c" cx="214.97" cy="24.15" r="15.7" gradientUnits="userSpaceOnUse">
      <stop offset="0.25" stop-color="#fff"/>
      <stop offset="1"/>
    </radialGradient>
    <filter id="e" x="90.63" y="-8299.89" width="38.75" height="32766" filterUnits="userSpaceOnUse" color-interpolation-filters="sRGB">
      <feFlood flood-color="#fff" result="bg"/>
      <feBlend in="SourceGraphic" in2="bg"/>
    </filter>
    <mask id="d" x="90.63" y="-8299.89" width="38.75" height="32766" maskUnits="userSpaceOnUse">
      <g class="dm"/>
    </mask>
    <radialGradient id="f" cx="110.01" cy="218.4" r="19.01" xlink:href="#c"/>
    <filter id="h" x="249.65" y="-8299.89" width="43.09" height="32766" filterUnits="userSpaceOnUse" color-interpolation-filters="sRGB">
      <feFlood flood-color="#fff" result="bg"/>
      <feBlend in="SourceGraphic" in2="bg"/>
    </filter>
    <mask id="g" x="249.65" y="-8299.89" width="43.09" height="32766" maskUnits="userSpaceOnUse">
      <g class="dl"/>
    </mask>
    <radialGradient id="i" cx="271.19" cy="220.73" r="21.14" xlink:href="#c"/>
    <filter id="k" x="169.39" y="-8299.89" width="41.66" height="32766" filterUnits="userSpaceOnUse" color-interpolation-filters="sRGB">
      <feFlood flood-color="#fff" result="bg"/>
      <feBlend in="SourceGraphic" in2="bg"/>
    </filter>
    <mask id="j" x="169.39" y="-8299.89" width="41.66" height="32766" maskUnits="userSpaceOnUse">
      <g class="dk"/>
    </mask>
    <radialGradient id="l" cx="190.22" cy="221.91" r="20.44" xlink:href="#c"/>
    <filter id="n" x="0" y="-8299.89" width="58.96" height="32766" filterUnits="userSpaceOnUse" color-interpolation-filters="sRGB">
      <feFlood flood-color="#fff" result="bg"/>
      <feBlend in="SourceGraphic" in2="bg"/>
    </filter>
    <mask id="m" x="0" y="-8299.89" width="58.96" height="32766" maskUnits="userSpaceOnUse">
      <g class="dj"/>
    </mask>
    <radialGradient id="o" cx="29.48" cy="161.9" r="28.92" gradientUnits="userSpaceOnUse">
      <stop offset="0.42" stop-color="#fff"/>
      <stop offset="1"/>
    </radialGradient>
    <filter id="q" x="11.19" y="-8299.89" width="39.12" height="32766" filterUnits="userSpaceOnUse" color-interpolation-filters="sRGB">
      <feFlood flood-color="#fff" result="bg"/>
      <feBlend in="SourceGraphic" in2="bg"/>
    </filter>
    <mask id="p" x="11.19" y="-8299.89" width="39.12" height="32766" maskUnits="userSpaceOnUse">
      <g class="di"/>
    </mask>
    <radialGradient id="r" cx="30.75" cy="202.83" r="19.19" xlink:href="#c"/>
    <filter id="t" x="110.01" y="-8299.89" width="47.97" height="32766" filterUnits="userSpaceOnUse" color-interpolation-filters="sRGB">
      <feFlood flood-color="#fff" result="bg"/>
      <feBlend in="SourceGraphic" in2="bg"/>
    </filter>
    <mask id="s" x="110.01" y="-8299.89" width="47.97" height="32766" maskUnits="userSpaceOnUse">
      <g class="dh"/>
    </mask>
    <radialGradient id="u" cx="131.77" cy="27.27" r="20.73" gradientTransform="translate(-15.58 -7.96) scale(1.14 1.18)" xlink:href="#c"/>
    <filter id="w" x="325.42" y="-8299.89" width="49.71" height="32766" filterUnits="userSpaceOnUse" color-interpolation-filters="sRGB">
      <feFlood flood-color="#fff" result="bg"/>
      <feBlend in="SourceGraphic" in2="bg"/>
    </filter>
    <mask id="v" x="325.42" y="-8299.89" width="49.71" height="32766" maskUnits="userSpaceOnUse">
      <g class="dg"/>
    </mask>
    <radialGradient id="x" cx="350.27" cy="203.9" r="24.38" gradientUnits="userSpaceOnUse">
      <stop offset="0.4" stop-color="#fff"/>
      <stop offset="1"/>
    </radialGradient>
    <filter id="z" x="21.91" y="-8299.89" width="50.37" height="32766" filterUnits="userSpaceOnUse" color-interpolation-filters="sRGB">
      <feFlood flood-color="#fff" result="bg"/>
      <feBlend in="SourceGraphic" in2="bg"/>
    </filter>
    <mask id="y" x="21.91" y="-8299.89" width="50.37" height="32766" maskUnits="userSpaceOnUse">
      <g class="df"/>
    </mask>
    <radialGradient id="aa" cx="47.09" cy="24.22" r="24.71" xlink:href="#c"/>
    <filter id="ac" x="0.19" y="-8299.89" width="58.57" height="32766" filterUnits="userSpaceOnUse" color-interpolation-filters="sRGB">
      <feFlood flood-color="#fff" result="bg"/>
      <feBlend in="SourceGraphic" in2="bg"/>
    </filter>
    <mask id="ab" x="0.19" y="-8299.89" width="58.57" height="32766" maskUnits="userSpaceOnUse">
      <g class="de"/>
    </mask>
    <radialGradient id="ad" cx="29.48" cy="79.86" r="28.73" xlink:href="#c"/>
    <filter id="af" x="271.79" y="-8299.89" width="50.58" height="32766" filterUnits="userSpaceOnUse" color-interpolation-filters="sRGB">
      <feFlood flood-color="#fff" result="bg"/>
      <feBlend in="SourceGraphic" in2="bg"/>
    </filter>
    <mask id="ae" x="271.79" y="-8299.89" width="50.58" height="32766" maskUnits="userSpaceOnUse">
      <g class="dd"/>
    </mask>
    <radialGradient id="ag" cx="296.25" cy="24.86" r="23.69" gradientTransform="translate(-13.21 -1.71) scale(1.05 1.04)" xlink:href="#c"/>
    <filter id="ai" x="326.52" y="-8299.89" width="56.8" height="32766" filterUnits="userSpaceOnUse" color-interpolation-filters="sRGB">
      <feFlood flood-color="#fff" result="bg"/>
      <feBlend in="SourceGraphic" in2="bg"/>
    </filter>
    <mask id="ah" x="326.52" y="-8299.89" width="56.8" height="32766" maskUnits="userSpaceOnUse">
      <g class="dc"/>
    </mask>
    <radialGradient id="aj" cx="354.92" cy="64.41" r="27.86" gradientUnits="userSpaceOnUse">
      <stop offset="0.38" stop-color="#fff"/>
      <stop offset="1"/>
    </radialGradient>
    <filter id="al" x="337.64" y="-8299.89" width="42.29" height="32766" filterUnits="userSpaceOnUse" color-interpolation-filters="sRGB">
      <feFlood flood-color="#fff" result="bg"/>
      <feBlend in="SourceGraphic" in2="bg"/>
    </filter>
    <mask id="ak" x="337.64" y="-8299.89" width="42.29" height="32766" maskUnits="userSpaceOnUse">
      <g class="db"/>
    </mask>
    <radialGradient id="am" cx="358.79" cy="164.78" r="20.75" xlink:href="#c"/>
    <linearGradient id="an" x1="24.06" y1="120.97" x2="359.27" y2="120.97" gradientUnits="userSpaceOnUse">
      <stop offset="0" stop-color="#e2c869"/>
      <stop offset="0.24" stop-color="#f2e2ad"/>
      <stop offset="0.79" stop-color="#f0df99"/>
      <stop offset="1" stop-color="#e0c763"/>
    </linearGradient>
    <radialGradient id="ao" cx="73.26" cy="22.29" r="6.91" gradientUnits="userSpaceOnUse">
      <stop offset="0.33" stop-color="#fff"/>
      <stop offset="0.84" stop-color="#f7ff17"/>
      <stop offset="1" stop-color="#f74848"/>
    </radialGradient>
    <radialGradient id="ap" cx="93.51" cy="22.29" r="6.91" xlink:href="#ao"/>
    <radialGradient id="aq" cx="113.75" cy="22.29" r="6.91" xlink:href="#ao"/>
    <radialGradient id="ar" cx="133.99" cy="22.29" r="6.91" xlink:href="#ao"/>
    <radialGradient id="as" cx="154.24" cy="22.29" r="6.91" xlink:href="#ao"/>
    <radialGradient id="at" cx="174.48" cy="22.29" r="6.91" xlink:href="#ao"/>
    <radialGradient id="au" cx="194.72" cy="22.29" r="6.91" xlink:href="#ao"/>
    <radialGradient id="av" cx="214.97" cy="22.29" r="6.91" xlink:href="#ao"/>
    <radialGradient id="aw" cx="235.21" cy="22.29" r="6.91" xlink:href="#ao"/>
    <radialGradient id="ax" cx="255.45" cy="22.29" r="6.91" xlink:href="#ao"/>
    <radialGradient id="ay" cx="275.69" cy="22.29" r="6.91" xlink:href="#ao"/>
    <radialGradient id="az" cx="295.94" cy="22.29" r="6.91" xlink:href="#ao"/>
    <radialGradient id="ba" cx="316.3" cy="22.3" r="6.91" xlink:href="#ao"/>
    <radialGradient id="bb" cx="337.93" cy="25.32" r="6.99" xlink:href="#ao"/>
    <radialGradient id="bc" cx="354.86" cy="40.55" r="7.01" xlink:href="#ao"/>
    <radialGradient id="bd" cx="358.97" cy="62.28" r="6.91" xlink:href="#ao"/>
    <radialGradient id="be" cx="358.97" cy="82.74" r="6.91" xlink:href="#ao"/>
    <radialGradient id="bf" cx="358.97" cy="102.98" r="6.91" xlink:href="#ao"/>
    <radialGradient id="bg" cx="358.97" cy="123.22" r="6.91" xlink:href="#ao"/>
    <radialGradient id="bh" cx="358.97" cy="143.47" r="6.91" xlink:href="#ao"/>
    <radialGradient id="bi" cx="358.97" cy="163.71" r="6.91" xlink:href="#ao"/>
    <radialGradient id="bj" cx="358.93" cy="184.44" r="6.92" xlink:href="#ao"/>
    <radialGradient id="bk" cx="352" cy="205.63" r="7.02" xlink:href="#ao"/>
    <radialGradient id="bl" cx="333.18" cy="218.36" r="6.96" xlink:href="#ao"/>
    <radialGradient id="bm" cx="311.7" cy="219.66" r="6.91" xlink:href="#ao"/>
    <radialGradient id="bn" cx="291.44" cy="219.66" r="6.91" xlink:href="#ao"/>
    <radialGradient id="bo" cx="271.19" cy="219.66" r="6.91" xlink:href="#ao"/>
    <radialGradient id="bp" cx="250.95" cy="219.66" r="6.91" xlink:href="#ao"/>
    <radialGradient id="bq" cx="230.71" cy="219.66" r="6.91" xlink:href="#ao"/>
    <radialGradient id="br" cx="210.47" cy="219.66" r="6.91" xlink:href="#ao"/>
    <radialGradient id="bs" cx="190.22" cy="219.66" r="6.91" xlink:href="#ao"/>
    <radialGradient id="bt" cx="169.98" cy="219.66" r="6.91" xlink:href="#ao"/>
    <radialGradient id="bu" cx="149.74" cy="219.66" r="6.91" xlink:href="#ao"/>
    <radialGradient id="bv" cx="129.49" cy="219.66" r="6.91" xlink:href="#ao"/>
    <radialGradient id="bw" cx="109.25" cy="219.66" r="6.91" xlink:href="#ao"/>
    <radialGradient id="bx" cx="89.01" cy="219.66" r="6.91" xlink:href="#ao"/>
    <radialGradient id="by" cx="68.7" cy="219.65" r="6.91" xlink:href="#ao"/>
    <radialGradient id="bz" cx="47.09" cy="217.33" r="6.98" xlink:href="#ao"/>
    <radialGradient id="ca" cx="29.48" cy="202.96" r="7.01" xlink:href="#ao"/>
    <radialGradient id="cb" cx="24.35" cy="181.37" r="6.91" xlink:href="#ao"/>
    <radialGradient id="cc" cx="24.36" cy="160.83" r="6.91" xlink:href="#ao"/>
    <radialGradient id="cd" cx="24.36" cy="140.59" r="6.91" xlink:href="#ao"/>
    <radialGradient id="ce" cx="24.36" cy="120.34" r="6.91" xlink:href="#ao"/>
    <radialGradient id="cf" cx="24.36" cy="100.1" r="6.91" xlink:href="#ao"/>
    <radialGradient id="cg" cx="24.36" cy="79.86" r="6.91" xlink:href="#ao"/>
    <radialGradient id="ch" cx="24.38" cy="59.25" r="6.91" xlink:href="#ao"/>
    <radialGradient id="ci" cx="30.27" cy="37.83" r="7.02" xlink:href="#ao"/>
    <radialGradient id="cj" cx="48.16" cy="24.16" r="6.98" xlink:href="#ao"/>
    <mask id="ck" x="198.96" y="8.76" width="32.01" height="30.79" maskUnits="userSpaceOnUse">
      <g class="a">
        <path class="b" d="M231,24.15c0,8.51-7.16,15.4-16,15.4s-16-6.89-16-15.4,7.17-15.39,16-15.39S231,15.65,231,24.15Z"/>
      </g>
    </mask>
    <radialGradient id="cl" cx="214.97" cy="24.15" r="15.7" gradientUnits="userSpaceOnUse">
      <stop offset="0.25" stop-color="#f7ff00"/>
      <stop offset="1" stop-color="#fff"/>
    </radialGradient>
    <mask id="cm" x="110.01" y="0.24" width="47.97" height="47.97" maskUnits="userSpaceOnUse">
      <g class="m">
        <path class="n" d="M158,24.22a24,24,0,1,1-24-24A24,24,0,0,1,158,24.22Z"/>
      </g>
    </mask>
    <radialGradient id="cn" cx="131.77" cy="27.27" r="20.73" gradientTransform="translate(-15.58 -7.96) scale(1.14 1.18)" xlink:href="#cl"/>
    <mask id="co" x="271.79" y="0" width="50.58" height="48.45" maskUnits="userSpaceOnUse">
      <g class="u">
        <path class="v" d="M322.38,24.22c0,13.38-11.33,24.23-25.3,24.23S271.79,37.6,271.79,24.22,283.11,0,297.08,0,322.38,10.85,322.38,24.22Z"/>
      </g>
    </mask>
    <radialGradient id="cp" cx="296.25" cy="24.86" r="23.69" gradientTransform="translate(-13.21 -1.71) scale(1.05 1.04)" xlink:href="#cl"/>
    <mask id="cq" x="326.52" y="37.09" width="56.8" height="54.63" maskUnits="userSpaceOnUse">
      <g class="w">
        <path class="x" d="M383.32,64.41c0,15.08-12.72,27.31-28.4,27.31s-28.4-12.23-28.4-27.31,12.71-27.32,28.4-27.32S383.32,49.32,383.32,64.41Z"/>
      </g>
    </mask>
    <radialGradient id="cr" cx="354.92" cy="64.41" r="27.86" gradientUnits="userSpaceOnUse">
      <stop offset="0.38" stop-color="#f7ff00"/>
      <stop offset="1" stop-color="#fff"/>
    </radialGradient>
    <mask id="cs" x="337.64" y="144.44" width="42.29" height="40.68" maskUnits="userSpaceOnUse">
      <g class="y">
        <ellipse class="z" cx="358.79" cy="164.78" rx="21.15" ry="20.34"/>
      </g>
    </mask>
    <radialGradient id="ct" cx="358.79" cy="164.78" r="20.75" xlink:href="#cl"/>
    <mask id="cu" x="90.63" y="199.77" width="38.75" height="37.27" maskUnits="userSpaceOnUse">
      <g class="c">
        <path class="d" d="M129.39,218.4c0,10.29-8.68,18.64-19.38,18.64s-19.38-8.35-19.38-18.64,8.68-18.63,19.38-18.63S129.39,208.11,129.39,218.4Z"/>
      </g>
    </mask>
    <radialGradient id="cv" cx="110.01" cy="218.4" r="19.01" xlink:href="#cl"/>
    <mask id="cw" x="249.65" y="200.01" width="43.09" height="41.44" maskUnits="userSpaceOnUse">
      <g class="e">
        <path class="f" d="M292.74,220.73c0,11.45-9.65,20.72-21.55,20.72s-21.54-9.27-21.54-20.72S259.3,200,271.19,200,292.74,209.29,292.74,220.73Z"/>
      </g>
    </mask>
    <radialGradient id="cx" cx="271.19" cy="220.73" r="21.14" xlink:href="#cl"/>
    <mask id="cy" x="169.39" y="201.88" width="41.66" height="40.07" maskUnits="userSpaceOnUse">
      <g class="g">
        <path class="h" d="M211.05,221.91c0,11.07-9.32,20-20.83,20s-20.83-9-20.83-20,9.33-20,20.83-20S211.05,210.85,211.05,221.91Z"/>
      </g>
    </mask>
    <radialGradient id="cz" cx="190.22" cy="221.91" r="20.44" xlink:href="#cl"/>
    <mask id="da" x="0" y="133.55" width="58.96" height="56.71" maskUnits="userSpaceOnUse">
      <g class="i">
        <path class="j" d="M59,161.9c0,15.66-13.2,28.35-29.48,28.35S0,177.56,0,161.9s13.2-28.35,29.48-28.35S59,146.24,59,161.9Z"/>
      </g>
    </mask>
    <radialGradient id="db" cx="29.48" cy="161.9" r="28.92" gradientUnits="userSpaceOnUse">
      <stop offset="0.42" stop-color="#f7ff00"/>
      <stop offset="1" stop-color="#fff"/>
    </radialGradient>
    <mask id="dc" x="11.19" y="184.02" width="39.12" height="37.63" maskUnits="userSpaceOnUse">
      <g class="k">
        <path class="l" d="M50.31,202.83c0,10.39-8.76,18.82-19.56,18.82s-19.56-8.43-19.56-18.82S19.94,184,30.75,184,50.31,192.44,50.31,202.83Z"/>
      </g>
    </mask>
    <radialGradient id="dd" cx="30.75" cy="202.83" r="19.19" xlink:href="#cl"/>
    <mask id="de" x="325.42" y="180" width="49.71" height="47.81" maskUnits="userSpaceOnUse">
      <g class="o">
        <path class="p" d="M375.12,203.9c0,13.2-11.13,23.91-24.85,23.91s-24.85-10.71-24.85-23.91S336.54,180,350.27,180,375.12,190.7,375.12,203.9Z"/>
      </g>
    </mask>
    <radialGradient id="df" cx="350.27" cy="203.9" r="24.38" gradientUnits="userSpaceOnUse">
      <stop offset="0.4" stop-color="#f7ff00"/>
      <stop offset="1" stop-color="#fff"/>
    </radialGradient>
    <mask id="dg" x="21.91" y="0" width="50.37" height="48.45" maskUnits="userSpaceOnUse">
      <g class="q">
        <path class="r" d="M72.28,24.22C72.28,37.6,61,48.45,47.09,48.45S21.91,37.6,21.91,24.22,33.18,0,47.09,0,72.28,10.84,72.28,24.22Z"/>
      </g>
    </mask>
    <radialGradient id="dh" cx="47.09" cy="24.22" r="24.71" xlink:href="#cl"/>
    <mask id="di" x="0.19" y="51.69" width="58.57" height="56.33" maskUnits="userSpaceOnUse">
      <g class="s">
        <path class="t" d="M58.77,79.86C58.77,95.41,45.65,108,29.48,108S.19,95.41.19,79.86,13.3,51.69,29.48,51.69,58.77,64.3,58.77,79.86Z"/>
      </g>
    </mask>
    <radialGradient id="dj" cx="29.48" cy="79.86" r="28.73" xlink:href="#cl"/>
  </defs>
  <title>Asset 19_SVG</title>
  <g class="aa">
    <g>
      <path class="ab" d="M55.56,230.66a42.5,42.5,0,0,1-42.5-42.5V53.79a42.49,42.49,0,0,1,42.5-42.5H327.77a42.5,42.5,0,0,1,42.5,42.5V188.16a42.5,42.5,0,0,1-42.5,42.5Z"/>
      <path class="ac" d="M55.56,22.29H327.77a31.5,31.5,0,0,1,31.5,31.5V188.16a31.5,31.5,0,0,1-31.5,31.5H55.56a31.5,31.5,0,0,1-31.5-31.5V53.79A31.5,31.5,0,0,1,55.56,22.29Z"/>
      <path class="ad" d="M55.56,229.66a41.5,41.5,0,0,1-41.5-41.5V53.79a41.5,41.5,0,0,1,41.5-41.5H327.77a41.5,41.5,0,0,1,41.5,41.5V188.16a41.5,41.5,0,0,1-41.5,41.5Zm0-20H327.77a21.51,21.51,0,0,0,21.5-21.5V53.79a21.5,21.5,0,0,0-21.5-21.5H55.56a21.49,21.49,0,0,0-21.5,21.5V188.16A21.5,21.5,0,0,0,55.56,209.66Z"/>
      <path class="ae" d="M55.56,210.66a22.5,22.5,0,0,1-22.5-22.5V53.79a22.5,22.5,0,0,1,22.5-22.5H327.77a22.5,22.5,0,0,1,22.5,22.5V188.16a22.5,22.5,0,0,1-22.5,22.5Zm0-2H327.77a20.5,20.5,0,0,0,20.5-20.5V53.79a20.5,20.5,0,0,0-20.5-20.5H55.56a20.5,20.5,0,0,0-20.5,20.5V188.16A20.5,20.5,0,0,0,55.56,208.66Z"/>
      <g>
        <path class="af" d="M80.39,22a6.73,6.73,0,0,1-1,3.75,6.8,6.8,0,0,1-2.52,2.35,7.39,7.39,0,0,1-3.32.84,8.23,8.23,0,0,1-3.4-.62,6.4,6.4,0,0,1-4-5.7A6,6,0,0,1,67,18.8a6.66,6.66,0,0,1,2.61-2.34,8.05,8.05,0,0,1,3.45-.84,8.69,8.69,0,0,1,3.49.62,6.43,6.43,0,0,1,2.74,2.12A5.93,5.93,0,0,1,80.39,22Z"/>
        <path class="ag" d="M100.64,22a6.65,6.65,0,0,1-1,3.75,6.8,6.8,0,0,1-2.52,2.35,7.38,7.38,0,0,1-3.31.84,8.27,8.27,0,0,1-3.41-.62,6.44,6.44,0,0,1-4-5.7,6.08,6.08,0,0,1,.84-3.85,6.66,6.66,0,0,1,2.61-2.34,8.05,8.05,0,0,1,3.45-.84,8.65,8.65,0,0,1,3.49.62,6.43,6.43,0,0,1,2.74,2.12A5.87,5.87,0,0,1,100.64,22Z"/>
        <path class="ah" d="M120.88,22a6.65,6.65,0,0,1-1,3.75,6.73,6.73,0,0,1-2.52,2.35A7.35,7.35,0,0,1,114,29a8.3,8.3,0,0,1-3.41-.62,6.41,6.41,0,0,1-4-5.7,6,6,0,0,1,.84-3.85,6.53,6.53,0,0,1,2.61-2.34,8,8,0,0,1,3.44-.84,8.65,8.65,0,0,1,3.49.62,6.38,6.38,0,0,1,2.74,2.12A5.87,5.87,0,0,1,120.88,22Z"/>
        <path class="ai" d="M141.12,22a6.73,6.73,0,0,1-1,3.75,6.8,6.8,0,0,1-2.52,2.35,7.42,7.42,0,0,1-3.32.84,8.23,8.23,0,0,1-3.4-.62,6.66,6.66,0,0,1-2.7-2.08,6.58,6.58,0,0,1-1.28-3.62,6,6,0,0,1,.84-3.85,6.66,6.66,0,0,1,2.61-2.34,8,8,0,0,1,3.44-.84,8.7,8.7,0,0,1,3.5.62A6.43,6.43,0,0,1,140,18.36,5.93,5.93,0,0,1,141.12,22Z"/>
        <path class="aj" d="M161.36,22a6.65,6.65,0,0,1-1,3.75,6.8,6.8,0,0,1-2.52,2.35,7.38,7.38,0,0,1-3.31.84,8.27,8.27,0,0,1-3.41-.62,6.4,6.4,0,0,1-4-5.7A6.08,6.08,0,0,1,148,18.8a6.66,6.66,0,0,1,2.61-2.34,8.05,8.05,0,0,1,3.45-.84,8.65,8.65,0,0,1,3.49.62,6.43,6.43,0,0,1,2.74,2.12A5.87,5.87,0,0,1,161.36,22Z"/>
        <path class="ak" d="M181.61,22a6.65,6.65,0,0,1-1,3.75,6.8,6.8,0,0,1-2.52,2.35,7.35,7.35,0,0,1-3.31.84,8.27,8.27,0,0,1-3.41-.62,6.41,6.41,0,0,1-4-5.7,6,6,0,0,1,.84-3.85,6.57,6.57,0,0,1,2.6-2.34,8.05,8.05,0,0,1,3.45-.84,8.65,8.65,0,0,1,3.49.62,6.38,6.38,0,0,1,2.74,2.12A5.87,5.87,0,0,1,181.61,22Z"/>
        <path class="al" d="M201.85,22a6.73,6.73,0,0,1-1,3.75,6.8,6.8,0,0,1-2.52,2.35A7.42,7.42,0,0,1,195,29a8.23,8.23,0,0,1-3.4-.62,6.4,6.4,0,0,1-4-5.7,6,6,0,0,1,.84-3.85,6.66,6.66,0,0,1,2.61-2.34,8.05,8.05,0,0,1,3.45-.84,8.69,8.69,0,0,1,3.49.62,6.43,6.43,0,0,1,2.74,2.12A5.93,5.93,0,0,1,201.85,22Z"/>
        <path class="am" d="M222.1,22a6.65,6.65,0,0,1-1,3.75,6.8,6.8,0,0,1-2.52,2.35,7.39,7.39,0,0,1-3.32.84,8.26,8.26,0,0,1-3.4-.62,6.4,6.4,0,0,1-4-5.7,6.08,6.08,0,0,1,.84-3.85,6.66,6.66,0,0,1,2.61-2.34,8.05,8.05,0,0,1,3.45-.84,8.65,8.65,0,0,1,3.49.62A6.43,6.43,0,0,1,221,18.36,5.87,5.87,0,0,1,222.1,22Z"/>
        <path class="an" d="M242.34,22a6.65,6.65,0,0,1-1,3.75,6.8,6.8,0,0,1-2.52,2.35,7.35,7.35,0,0,1-3.31.84,8.27,8.27,0,0,1-3.41-.62,6.41,6.41,0,0,1-4-5.7A6,6,0,0,1,229,18.8a6.57,6.57,0,0,1,2.6-2.34,8.05,8.05,0,0,1,3.45-.84,8.65,8.65,0,0,1,3.49.62,6.38,6.38,0,0,1,2.74,2.12A5.87,5.87,0,0,1,242.34,22Z"/>
        <path class="ao" d="M262.58,22a6.71,6.71,0,0,1-3.53,6.1,7.42,7.42,0,0,1-3.32.84,8.23,8.23,0,0,1-3.4-.62,6.66,6.66,0,0,1-2.7-2.08,6.58,6.58,0,0,1-1.28-3.62,6,6,0,0,1,.84-3.85,6.66,6.66,0,0,1,2.61-2.34,8,8,0,0,1,3.44-.84,8.7,8.7,0,0,1,3.5.62,6.43,6.43,0,0,1,2.74,2.12A5.93,5.93,0,0,1,262.58,22Z"/>
        <path class="ap" d="M282.82,22a6.73,6.73,0,0,1-1,3.75,6.8,6.8,0,0,1-2.52,2.35A7.39,7.39,0,0,1,276,29a8.26,8.26,0,0,1-3.4-.62,6.4,6.4,0,0,1-4-5.7,6,6,0,0,1,.84-3.85A6.66,6.66,0,0,1,272,16.46a8.05,8.05,0,0,1,3.45-.84,8.65,8.65,0,0,1,3.49.62,6.43,6.43,0,0,1,2.74,2.12A5.87,5.87,0,0,1,282.82,22Z"/>
        <path class="aq" d="M303.07,22a6.65,6.65,0,0,1-1,3.75,6.8,6.8,0,0,1-2.52,2.35,7.38,7.38,0,0,1-3.31.84,8.27,8.27,0,0,1-3.41-.62,6.44,6.44,0,0,1-4-5.7,6.08,6.08,0,0,1,.84-3.85,6.66,6.66,0,0,1,2.61-2.34,8.05,8.05,0,0,1,3.45-.84,8.65,8.65,0,0,1,3.49.62A6.38,6.38,0,0,1,302,18.36,5.87,5.87,0,0,1,303.07,22Z"/>
        <path class="ar" d="M323.43,22.21a6.66,6.66,0,0,1-3.69,6,7.28,7.28,0,0,1-3.33.76,8.21,8.21,0,0,1-3.39-.71,6.39,6.39,0,0,1-3.83-5.8,6,6,0,0,1,.93-3.82,6.67,6.67,0,0,1,2.67-2.28,8.09,8.09,0,0,1,3.46-.75,8.63,8.63,0,0,1,3.48.71,6.48,6.48,0,0,1,2.69,2.19A5.88,5.88,0,0,1,323.43,22.21Z"/>
        <path class="as" d="M344.51,27.9A6.7,6.7,0,0,1,342.09,31a6.81,6.81,0,0,1-3.24,1.16,7.36,7.36,0,0,1-3.37-.54,8.24,8.24,0,0,1-2.89-1.91,6.43,6.43,0,0,1-1.4-6.81,6,6,0,0,1,2.29-3.21,6.75,6.75,0,0,1,3.32-1.12,8.18,8.18,0,0,1,3.5.59,8.92,8.92,0,0,1,3,1.95,6.47,6.47,0,0,1,1.67,3A5.87,5.87,0,0,1,344.51,27.9Z"/>
        <path class="at" d="M358.49,46.73a6.66,6.66,0,0,1-3.78.92,6.79,6.79,0,0,1-3.27-1.07,7.51,7.51,0,0,1-2.33-2.51,8.23,8.23,0,0,1-1.1-3.28,6.39,6.39,0,0,1,3.08-6.23,6.07,6.07,0,0,1,3.78-1.12,6.65,6.65,0,0,1,3.3,1.16,8,8,0,0,1,2.4,2.62,8.71,8.71,0,0,1,1.14,3.36,6.38,6.38,0,0,1-.54,3.42A5.88,5.88,0,0,1,358.49,46.73Z"/>
        <path class="au" d="M359.55,69.4a6.59,6.59,0,0,1-3.8-.85,6.82,6.82,0,0,1-2.45-2.41,7.4,7.4,0,0,1-1-3.28,8.16,8.16,0,0,1,.46-3.42,6.4,6.4,0,0,1,5.53-4.23,6,6,0,0,1,3.87.67,6.7,6.7,0,0,1,2.46,2.5,8,8,0,0,1,1,3.41,8.79,8.79,0,0,1-.46,3.52,6.51,6.51,0,0,1-2,2.83A5.88,5.88,0,0,1,359.55,69.4Z"/>
        <path class="av" d="M359.23,89.87a6.65,6.65,0,0,1-3.75-1,6.85,6.85,0,0,1-2.34-2.52A7.13,7.13,0,0,1,352.3,83a8.27,8.27,0,0,1,.61-3.41,6.44,6.44,0,0,1,5.71-4,6.07,6.07,0,0,1,3.84.84,6.66,6.66,0,0,1,2.34,2.61,8.05,8.05,0,0,1,.84,3.45A8.49,8.49,0,0,1,365,86a6.36,6.36,0,0,1-2.12,2.74A5.87,5.87,0,0,1,359.23,89.87Z"/>
        <path class="aw" d="M359.23,110.11a6.66,6.66,0,0,1-6.09-3.54,7.1,7.1,0,0,1-.84-3.31,8.3,8.3,0,0,1,.61-3.41A6.72,6.72,0,0,1,355,97.16a6.58,6.58,0,0,1,3.63-1.28,5.94,5.94,0,0,1,3.84.84,6.66,6.66,0,0,1,2.34,2.61,8,8,0,0,1,.84,3.44,8.49,8.49,0,0,1-.62,3.49A6.3,6.3,0,0,1,362.9,109,5.87,5.87,0,0,1,359.23,110.11Z"/>
        <path class="ax" d="M359.23,130.35a6.65,6.65,0,0,1-3.75-1,6.85,6.85,0,0,1-2.34-2.52,7.14,7.14,0,0,1-.84-3.32,8.22,8.22,0,0,1,.61-3.4,6.75,6.75,0,0,1,2.08-2.7,6.66,6.66,0,0,1,3.63-1.28,5.94,5.94,0,0,1,3.84.84,6.66,6.66,0,0,1,2.34,2.61,8.05,8.05,0,0,1,.84,3.45,8.52,8.52,0,0,1-.62,3.49,6.36,6.36,0,0,1-2.12,2.74A5.93,5.93,0,0,1,359.23,130.35Z"/>
        <path class="ay" d="M359.23,150.6a6.65,6.65,0,0,1-3.75-1,6.85,6.85,0,0,1-2.34-2.52,7.13,7.13,0,0,1-.84-3.31,8.27,8.27,0,0,1,.61-3.41,6.44,6.44,0,0,1,5.71-4,6.07,6.07,0,0,1,3.84.84,6.66,6.66,0,0,1,2.34,2.61,8.05,8.05,0,0,1,.84,3.45,8.49,8.49,0,0,1-.62,3.49,6.36,6.36,0,0,1-2.12,2.74A5.87,5.87,0,0,1,359.23,150.6Z"/>
        <path class="az" d="M359.23,170.84a6.66,6.66,0,0,1-6.09-3.54,7.1,7.1,0,0,1-.84-3.31,8.22,8.22,0,0,1,.61-3.4,6.68,6.68,0,0,1,2.08-2.7,6.58,6.58,0,0,1,3.63-1.28,5.94,5.94,0,0,1,3.84.84,6.59,6.59,0,0,1,2.34,2.61,8,8,0,0,1,.84,3.44A8.49,8.49,0,0,1,365,167a6.3,6.3,0,0,1-2.12,2.74A5.87,5.87,0,0,1,359.23,170.84Z"/>
        <path class="ba" d="M358.49,191.53a6.7,6.7,0,0,1-3.64-1.39,6.82,6.82,0,0,1-2.08-2.73,7.4,7.4,0,0,1-.51-3.39,8.29,8.29,0,0,1,.95-3.32,6.69,6.69,0,0,1,2.34-2.48,6.59,6.59,0,0,1,3.73-.91,6,6,0,0,1,3.75,1.21,6.7,6.7,0,0,1,2.07,2.83,8.12,8.12,0,0,1,.49,3.51,8.56,8.56,0,0,1-1,3.42,6.37,6.37,0,0,1-2.38,2.51A5.86,5.86,0,0,1,358.49,191.53Z"/>
        <path class="bb" d="M348,211.46a6.61,6.61,0,0,1-2.42-3,6.9,6.9,0,0,1-.4-3.42,7.46,7.46,0,0,1,1.29-3.17,8.23,8.23,0,0,1,2.52-2.37,6.39,6.39,0,0,1,6.95.18,6,6,0,0,1,2.6,3,6.64,6.64,0,0,1,.34,3.49,8.07,8.07,0,0,1-1.37,3.28,8.64,8.64,0,0,1-2.57,2.44,6.39,6.39,0,0,1-3.33.95A5.84,5.84,0,0,1,348,211.46Z"/>
        <path class="bc" d="M326.36,220.61a6.73,6.73,0,0,1-.09-3.89,6.91,6.91,0,0,1,1.76-3A7.38,7.38,0,0,1,331,212a8.3,8.3,0,0,1,3.44-.37,6.63,6.63,0,0,1,3.17,1.24,6.53,6.53,0,0,1,2.26,3.11,6,6,0,0,1,.28,3.93,6.62,6.62,0,0,1-1.84,3,8.06,8.06,0,0,1-3.07,1.78,8.57,8.57,0,0,1-3.53.39,6.28,6.28,0,0,1-3.22-1.26A5.9,5.9,0,0,1,326.36,220.61Z"/>
        <path class="bd" d="M304.57,219.94a6.7,6.7,0,0,1,1-3.76,6.94,6.94,0,0,1,2.51-2.35,7.53,7.53,0,0,1,3.32-.85,8.25,8.25,0,0,1,3.4.61,6.43,6.43,0,0,1,4,5.69,6,6,0,0,1-.83,3.85,6.66,6.66,0,0,1-2.6,2.35,8.06,8.06,0,0,1-3.45.85,8.65,8.65,0,0,1-3.49-.61,6.44,6.44,0,0,1-2.75-2.11A5.87,5.87,0,0,1,304.57,219.94Z"/>
        <path class="be" d="M284.31,219.92a6.77,6.77,0,0,1,1-3.76,6.85,6.85,0,0,1,2.52-2.34,7.42,7.42,0,0,1,3.32-.84,8.23,8.23,0,0,1,3.4.62,6.4,6.4,0,0,1,4,5.7,6,6,0,0,1-.84,3.85,6.66,6.66,0,0,1-2.61,2.34,8,8,0,0,1-3.44.84,8.7,8.7,0,0,1-3.5-.62,6.43,6.43,0,0,1-2.74-2.12A6,6,0,0,1,284.31,219.92Z"/>
        <path class="bf" d="M264.07,219.92a6.68,6.68,0,0,1,1-3.76,6.85,6.85,0,0,1,2.52-2.34,7.39,7.39,0,0,1,3.32-.84,8.26,8.26,0,0,1,3.4.62,6.57,6.57,0,0,1,2.7,2.08,6.66,6.66,0,0,1,1.28,3.62,6,6,0,0,1-.84,3.85,6.66,6.66,0,0,1-2.61,2.34,8.05,8.05,0,0,1-3.45.84,8.65,8.65,0,0,1-3.49-.62,6.43,6.43,0,0,1-2.74-2.12A5.89,5.89,0,0,1,264.07,219.92Z"/>
        <path class="bg" d="M243.82,219.92a6.69,6.69,0,0,1,1-3.76,6.85,6.85,0,0,1,2.52-2.34,7.38,7.38,0,0,1,3.31-.84,8.27,8.27,0,0,1,3.41.62,6.48,6.48,0,0,1,2.69,2.08,6.58,6.58,0,0,1,1.29,3.62,6.1,6.1,0,0,1-.84,3.85,6.66,6.66,0,0,1-2.61,2.34,8.05,8.05,0,0,1-3.45.84,8.65,8.65,0,0,1-3.49-.62,6.38,6.38,0,0,1-2.74-2.12A5.89,5.89,0,0,1,243.82,219.92Z"/>
        <path class="bh" d="M223.58,219.92a6.68,6.68,0,0,1,3.53-6.1,7.42,7.42,0,0,1,3.32-.84,8.23,8.23,0,0,1,3.4.62,6.4,6.4,0,0,1,4,5.7,6,6,0,0,1-.84,3.85,6.66,6.66,0,0,1-2.61,2.34,8,8,0,0,1-3.44.84,8.65,8.65,0,0,1-3.49-.62,6.4,6.4,0,0,1-2.75-2.12A6,6,0,0,1,223.58,219.92Z"/>
        <path class="bi" d="M203.34,219.92a6.77,6.77,0,0,1,1-3.76,6.85,6.85,0,0,1,2.52-2.34,7.39,7.39,0,0,1,3.32-.84,8.23,8.23,0,0,1,3.4.62,6.57,6.57,0,0,1,2.7,2.08,6.66,6.66,0,0,1,1.28,3.62,6,6,0,0,1-.84,3.85,6.66,6.66,0,0,1-2.61,2.34,8.05,8.05,0,0,1-3.45.84,8.69,8.69,0,0,1-3.49-.62,6.43,6.43,0,0,1-2.74-2.12A6,6,0,0,1,203.34,219.92Z"/>
        <path class="bj" d="M183.09,219.92a6.69,6.69,0,0,1,1-3.76,6.85,6.85,0,0,1,2.52-2.34,7.35,7.35,0,0,1,3.31-.84,8.27,8.27,0,0,1,3.41.62,6.41,6.41,0,0,1,4,5.7,6,6,0,0,1-.84,3.85,6.57,6.57,0,0,1-2.6,2.34,8.05,8.05,0,0,1-3.45.84,8.65,8.65,0,0,1-3.49-.62,6.38,6.38,0,0,1-2.74-2.12A5.89,5.89,0,0,1,183.09,219.92Z"/>
        <path class="bk" d="M162.85,219.92a6.67,6.67,0,0,1,3.54-6.1,7.35,7.35,0,0,1,3.31-.84,8.23,8.23,0,0,1,3.4.62,6.4,6.4,0,0,1,4,5.7,6,6,0,0,1-.84,3.85,6.66,6.66,0,0,1-2.61,2.34,8,8,0,0,1-3.44.84,8.7,8.7,0,0,1-3.5-.62,6.43,6.43,0,0,1-2.74-2.12A6,6,0,0,1,162.85,219.92Z"/>
        <path class="bl" d="M142.61,219.92a6.77,6.77,0,0,1,1-3.76,6.85,6.85,0,0,1,2.52-2.34,7.39,7.39,0,0,1,3.32-.84,8.23,8.23,0,0,1,3.4.62,6.57,6.57,0,0,1,2.7,2.08,6.66,6.66,0,0,1,1.28,3.62,6,6,0,0,1-.84,3.85,6.66,6.66,0,0,1-2.61,2.34,8.05,8.05,0,0,1-3.45.84,8.69,8.69,0,0,1-3.49-.62,6.43,6.43,0,0,1-2.74-2.12A6,6,0,0,1,142.61,219.92Z"/>
        <path class="bm" d="M122.36,219.92a6.69,6.69,0,0,1,1-3.76,6.85,6.85,0,0,1,2.52-2.34,7.38,7.38,0,0,1,3.31-.84,8.27,8.27,0,0,1,3.41.62,6.48,6.48,0,0,1,2.69,2.08,6.58,6.58,0,0,1,1.29,3.62,6.1,6.1,0,0,1-.84,3.85,6.66,6.66,0,0,1-2.61,2.34,8.05,8.05,0,0,1-3.45.84,8.65,8.65,0,0,1-3.49-.62,6.43,6.43,0,0,1-2.74-2.12A5.89,5.89,0,0,1,122.36,219.92Z"/>
        <path class="bn" d="M102.12,219.92a6.67,6.67,0,0,1,3.54-6.1A7.35,7.35,0,0,1,109,213a8.23,8.23,0,0,1,3.4.62,6.51,6.51,0,0,1,2.7,2.08,6.58,6.58,0,0,1,1.28,3.62,6,6,0,0,1-.84,3.85,6.59,6.59,0,0,1-2.61,2.34,8,8,0,0,1-3.44.84,8.65,8.65,0,0,1-3.49-.62,6.38,6.38,0,0,1-2.74-2.12A5.89,5.89,0,0,1,102.12,219.92Z"/>
        <path class="bo" d="M81.88,219.92a6.77,6.77,0,0,1,1-3.76,6.85,6.85,0,0,1,2.52-2.34,7.39,7.39,0,0,1,3.32-.84,8.23,8.23,0,0,1,3.4.62,6.57,6.57,0,0,1,2.7,2.08,6.66,6.66,0,0,1,1.28,3.62,6,6,0,0,1-.84,3.85,6.66,6.66,0,0,1-2.61,2.34,8,8,0,0,1-3.44.84,8.7,8.7,0,0,1-3.5-.62A6.43,6.43,0,0,1,83,223.59,6,6,0,0,1,81.88,219.92Z"/>
        <path class="bp" d="M61.57,219.82a6.62,6.62,0,0,1,1.07-3.74,6.85,6.85,0,0,1,2.55-2.31,7.26,7.26,0,0,1,3.32-.79,8.09,8.09,0,0,1,3.4.66,6.42,6.42,0,0,1,3.9,5.75,6,6,0,0,1-.89,3.84,6.66,6.66,0,0,1-2.64,2.31,8.09,8.09,0,0,1-3.46.79,8.6,8.6,0,0,1-3.48-.67,6.3,6.3,0,0,1-2.71-2.15A5.88,5.88,0,0,1,61.57,219.82Z"/>
        <path class="bq" d="M40.39,215.07a6.71,6.71,0,0,1,2.28-3.16,6.84,6.84,0,0,1,3.18-1.31,7.53,7.53,0,0,1,3.4.38,8.27,8.27,0,0,1,3,1.78A6.71,6.71,0,0,1,54,215.65a6.59,6.59,0,0,1-.08,3.85,6,6,0,0,1-2.14,3.3,6.63,6.63,0,0,1-3.26,1.28,8,8,0,0,1-3.52-.43,8.59,8.59,0,0,1-3-1.81,6.33,6.33,0,0,1-1.82-3A5.93,5.93,0,0,1,40.39,215.07Z"/>
        <path class="br" d="M25.52,197a6.61,6.61,0,0,1,3.73-1.13,6.82,6.82,0,0,1,3.32.89A7.44,7.44,0,0,1,35,199.13a8.36,8.36,0,0,1,1.28,3.21,6.69,6.69,0,0,1-.34,3.39,6.6,6.6,0,0,1-2.39,3,6,6,0,0,1-3.71,1.32,6.67,6.67,0,0,1-3.37-1A8,8,0,0,1,24,206.61a8.44,8.44,0,0,1-1.33-3.29,6.36,6.36,0,0,1,.35-3.44A5.78,5.78,0,0,1,25.52,197Z"/>
        <path class="bs" d="M23.65,174.26a6.71,6.71,0,0,1,3.81.78,6.87,6.87,0,0,1,2.5,2.37,7.33,7.33,0,0,1,1,3.26,8.19,8.19,0,0,1-.41,3.43,6.4,6.4,0,0,1-5.45,4.32,6,6,0,0,1-3.89-.6,6.54,6.54,0,0,1-2.49-2.46A8,8,0,0,1,17.7,182a8.62,8.62,0,0,1,.41-3.52,6.36,6.36,0,0,1,1.95-2.87A5.9,5.9,0,0,1,23.65,174.26Z"/>
        <path class="bt" d="M24.09,153.7a6.69,6.69,0,0,1,3.76,1,6.78,6.78,0,0,1,2.34,2.52,7.35,7.35,0,0,1,.84,3.31,8.27,8.27,0,0,1-.62,3.41,6.41,6.41,0,0,1-5.7,4,6,6,0,0,1-3.85-.84,6.53,6.53,0,0,1-2.34-2.61,8,8,0,0,1-.84-3.44,8.65,8.65,0,0,1,.62-3.49,6.38,6.38,0,0,1,2.12-2.74A5.89,5.89,0,0,1,24.09,153.7Z"/>
        <path class="bu" d="M24.09,133.46a6.77,6.77,0,0,1,3.76,1A6.85,6.85,0,0,1,30.19,137a7.42,7.42,0,0,1,.84,3.32,8.23,8.23,0,0,1-.62,3.4,6.4,6.4,0,0,1-5.7,4,6,6,0,0,1-3.85-.84,6.66,6.66,0,0,1-2.34-2.61,8,8,0,0,1-.84-3.44,8.7,8.7,0,0,1,.62-3.5,6.43,6.43,0,0,1,2.12-2.74A6,6,0,0,1,24.09,133.46Z"/>
        <path class="bv" d="M24.09,113.22a6.68,6.68,0,0,1,3.76,1,6.85,6.85,0,0,1,2.34,2.52,7.38,7.38,0,0,1,.84,3.31,8.27,8.27,0,0,1-.62,3.41,6.57,6.57,0,0,1-2.08,2.7,6.66,6.66,0,0,1-3.62,1.28,6.12,6.12,0,0,1-3.85-.84A6.66,6.66,0,0,1,18.52,124a8.05,8.05,0,0,1-.84-3.45,8.65,8.65,0,0,1,.62-3.49,6.43,6.43,0,0,1,2.12-2.74A5.89,5.89,0,0,1,24.09,113.22Z"/>
        <path class="bw" d="M24.09,93a6.69,6.69,0,0,1,3.76,1,6.85,6.85,0,0,1,2.34,2.52A7.35,7.35,0,0,1,31,99.82a8.3,8.3,0,0,1-.62,3.41,6.41,6.41,0,0,1-5.7,4,6,6,0,0,1-3.85-.84,6.57,6.57,0,0,1-2.34-2.6,8.09,8.09,0,0,1-.84-3.45,8.65,8.65,0,0,1,.62-3.49,6.38,6.38,0,0,1,2.12-2.74A5.89,5.89,0,0,1,24.09,93Z"/>
        <path class="bx" d="M24.09,72.73a6.77,6.77,0,0,1,3.76,1,6.85,6.85,0,0,1,2.34,2.52A7.42,7.42,0,0,1,31,79.58a8.23,8.23,0,0,1-.62,3.4,6.57,6.57,0,0,1-2.08,2.7A6.66,6.66,0,0,1,24.71,87a6,6,0,0,1-3.85-.84,6.66,6.66,0,0,1-2.34-2.61,8.05,8.05,0,0,1-.84-3.45,8.69,8.69,0,0,1,.62-3.49,6.43,6.43,0,0,1,2.12-2.74A6,6,0,0,1,24.09,72.73Z"/>
        <path class="by" d="M24.65,52.14a6.64,6.64,0,0,1,3.67,1.3,6.75,6.75,0,0,1,2.15,2.69,7.39,7.39,0,0,1,.59,3.36,8.2,8.2,0,0,1-.88,3.35,6.4,6.4,0,0,1-6,3.54,5.94,5.94,0,0,1-3.77-1.13,6.63,6.63,0,0,1-2.14-2.77A8.12,8.12,0,0,1,17.71,59a8.62,8.62,0,0,1,.88-3.43A6.37,6.37,0,0,1,20.91,53,5.92,5.92,0,0,1,24.65,52.14Z"/>
        <path class="bz" d="M34,31.81a6.69,6.69,0,0,1,3.12,6.32A7.31,7.31,0,0,1,36,41.36a8.16,8.16,0,0,1-2.4,2.49,6.52,6.52,0,0,1-3.22,1.09A6.61,6.61,0,0,1,26.66,44a6,6,0,0,1-2.73-2.83,6.54,6.54,0,0,1-.51-3.47,8,8,0,0,1,1.21-3.34,8.57,8.57,0,0,1,2.45-2.56,6.47,6.47,0,0,1,3.28-1.11A5.92,5.92,0,0,1,34,31.81Z"/>
        <path class="ca" d="M54.73,21.26a6.66,6.66,0,0,1,.46,3.87,6.74,6.74,0,0,1-1.45,3.11,7.35,7.35,0,0,1-2.76,2,8.23,8.23,0,0,1-3.38.7,6.39,6.39,0,0,1-5.83-3.79,6,6,0,0,1-.67-3.88,6.67,6.67,0,0,1,1.54-3.15,7.94,7.94,0,0,1,2.88-2.07A8.7,8.7,0,0,1,49,17.34a6.31,6.31,0,0,1,3.33.94A5.93,5.93,0,0,1,54.73,21.26Z"/>
      </g>
      <g class="cb">
        <path class="cc" d="M231,24.15c0,8.51-7.16,15.4-16,15.4s-16-6.89-16-15.4,7.17-15.39,16-15.39S231,15.65,231,24.15Z"/>
      </g>
      <g class="cd">
        <path class="ce" d="M158,24.22a24,24,0,1,1-24-24A24,24,0,0,1,158,24.22Z"/>
      </g>
      <g class="cf">
        <path class="cg" d="M322.38,24.22c0,13.38-11.33,24.23-25.3,24.23S271.79,37.6,271.79,24.22,283.11,0,297.08,0,322.38,10.85,322.38,24.22Z"/>
      </g>
      <g class="ch">
        <path class="ci" d="M383.32,64.41c0,15.08-12.72,27.31-28.4,27.31s-28.4-12.23-28.4-27.31,12.71-27.32,28.4-27.32S383.32,49.32,383.32,64.41Z"/>
      </g>
      <g class="cj">
        <ellipse class="ck" cx="358.79" cy="164.78" rx="21.15" ry="20.34"/>
      </g>
      <g class="cl">
        <path class="cm" d="M129.39,218.4c0,10.29-8.68,18.64-19.38,18.64s-19.38-8.35-19.38-18.64,8.68-18.63,19.38-18.63S129.39,208.11,129.39,218.4Z"/>
      </g>
      <g class="cn">
        <path class="co" d="M292.74,220.73c0,11.45-9.65,20.72-21.55,20.72s-21.54-9.27-21.54-20.72S259.3,200,271.19,200,292.74,209.29,292.74,220.73Z"/>
      </g>
      <g class="cp">
        <path class="cq" d="M211.05,221.91c0,11.07-9.32,20-20.83,20s-20.83-9-20.83-20,9.33-20,20.83-20S211.05,210.85,211.05,221.91Z"/>
      </g>
      <g class="cr">
        <path class="cs" d="M59,161.9c0,15.66-13.2,28.35-29.48,28.35S0,177.56,0,161.9s13.2-28.35,29.48-28.35S59,146.24,59,161.9Z"/>
      </g>
      <g class="ct">
        <path class="cu" d="M50.31,202.83c0,10.39-8.76,18.82-19.56,18.82s-19.56-8.43-19.56-18.82S19.94,184,30.75,184,50.31,192.44,50.31,202.83Z"/>
      </g>
      <g class="cv">
        <path class="cw" d="M375.12,203.9c0,13.2-11.13,23.91-24.85,23.91s-24.85-10.71-24.85-23.91S336.54,180,350.27,180,375.12,190.7,375.12,203.9Z"/>
      </g>
      <g class="cx">
        <path class="cy" d="M72.28,24.22C72.28,37.6,61,48.45,47.09,48.45S21.91,37.6,21.91,24.22,33.18,0,47.09,0,72.28,10.84,72.28,24.22Z"/>
      </g>
      <g class="cz">
        <path class="da" d="M58.77,79.86C58.77,95.41,45.65,108,29.48,108S.19,95.41.19,79.86,13.3,51.69,29.48,51.69,58.77,64.3,58.77,79.86Z"/>
      </g>
    </g>
  </g>
</svg>
