<svg xmlns="http://www.w3.org/2000/svg" xmlns:xlink="http://www.w3.org/1999/xlink" width="40" height="40" viewBox="0 0 40 40">
    <defs>
        <circle id="prefix__a" cx="20" cy="20" r="20"/>
    </defs>
    <g fill="none" fill-rule="evenodd">
        <mask id="prefix__b" fill="#fff">
            <use xlink:href="#prefix__a"/>
        </mask>
        <circle cx="20" cy="20" r="19.444" stroke="#979797" stroke-opacity=".4" stroke-width="1.111"/>
        <g mask="url(#prefix__b)">
            <g>
                <path fill="#D5D4CE" d="M18.415 18.642h-7.812l.148-2.08s1.814-.28 3.869-.28c.955 0 3.82.529 3.82.529l-.025 1.831" transform="translate(5.556 6.667)"/>
                <path fill="#C29D75" d="M18.055 14.941c-.093-1.75-2.459-3.366-4.267-3.37-2.051-.005-2.808 2.348-2.811 3.21-.006 1.465-.046 4.765-.046 4.765-1.002.508-1.277 3.96 4.185 3.97 3.76.008 3.755-2.896 2.735-4.058 0 0 .306-2.582.204-4.517" transform="translate(5.556 6.667)"/>
                <path fill="#B99368" d="M10.03 8.828c0 .758-.23-1.373-.51-1.373-.282 0-.51.615-.51 1.373 0 .404.635 1.053.635 1.755 0 .57.288 1.146.541 1.169 5.951.54-.157-3.328-.157-2.924M20.047 7.455c-.282 0-2.834 1.86-2.834 2.618 0 .759 1.887 1.704 2.167 1.679.253-.023.541-.598.541-1.169 0-.702.636-1.351.636-1.755 0-.758-.229-1.373-.51-1.373" transform="translate(5.556 6.667)"/>
                <path fill="#C29D75" d="M19.937 5.782c0 1.48-.866 5.487-.866 6.55 0 .399-.048.785-.136 1.154-.553 1.903-2.225 3.285-4.2 3.285-2.428 0-4.396-2.086-4.396-4.66 0-1.064-.867-5.07-.867-6.55 0-.378.044-.746.13-1.1.61-2.106 2.65-3.653 5.074-3.653 2.906 0 5.261 2.227 5.261 4.974" transform="translate(5.556 6.667)"/>
                <path fill="#E0E1DF" d="M10.336 19.042L13.926 33.402 15.005 33.402 18.277 20.42 10.336 19.042" transform="translate(5.556 6.667)"/>
                <path fill="#EB8C30" d="M12.67 33.986l3.633-.418v-8.223c0-.098-.01-.195-.027-.29-.065-.345-.246-1.193-.53-1.71-.153-.278-.715-1.046-.715-1.046s.176-.664.291-.902c.217-.446.98-1.728.98-1.728l-3.343-.055s.621 1.354.8 1.817c.08.204.279.828.279.828s-.797 1.173-1.005 1.59c-.363.733-.363 2.138-.363 2.138v8" transform="translate(5.556 6.667)"/>
                <path fill="#D17E2F" d="M14.514 22.374h-.003c-.117 0-.498-.065-.498-.065l.025-.049v.001h.001c.024.002.354.05.47.05h.003c.135 0 .528-.04.528-.04l-.009.043s-.382.06-.517.06" transform="translate(5.556 6.667)"/>
                <path fill="#C6C5C0" d="M14.152 22.26l-.025-.07c-.07-.198-.194-.536-.254-.676-.104-.242-.251-.56-.42-.904.159.32.313.64.39.821.089.204.31.828.31.828v.001m-.81-1.876l-.014-.027c-.091-.18-.303-.578-.332-.634l.018.009c.07.139.194.384.327.652" transform="translate(5.556 6.667)"/>
                <path fill="#D17E2F" d="M14.038 22.26s-.2-.625-.278-.829c-.07-.181-.21-.5-.352-.821-.032-.075-.066-.15-.1-.226-.12-.268-.232-.513-.295-.652.375.22.637.65.857 1.295.094.276.33 1.097.169 1.233h-.001" transform="translate(5.556 6.667)"/>
                <path fill="#B97130" d="M14.149 22.385l-.012-.036.012.036m-.014-.01l-.007-.018.002-.005s.01.003.028.005c-.007.007-.016.011-.023.018" transform="translate(5.556 6.667)"/>
                <path fill="#C6C5C0" d="M15.077 22.133c.06-.213.167-.574.245-.736.137-.28.489-.89.732-1.305l-.025.055s-.507.866-.724 1.313c-.078.16-.172.476-.228.673" transform="translate(5.556 6.667)"/>
                <path fill="#D17E2F" d="M15.04 22.269c-.136-.306.034-.833.134-1.123.233-.67.573-1.215 1.042-1.416l-.162.362c-.243.415-.595 1.025-.732 1.305-.078.162-.185.523-.245.736-.016.058-.03.106-.037.136M14.671 24.821h-.009c-.13-.03-.774-.821-.327-1.247.565-.538.025-1.2.084-1.2h.003c.13.036.556.686.423 1.287-.129.586-.055 1.16-.174 1.16" transform="translate(5.556 6.667)"/>
                <path fill="#FCFDFD" d="M10.786 16.611c-.036-.161-.165.122-.169.148-.142.958 1.009 5.801 1.507 6.408.184.224.484-2.575 2.178-3.365.734-.342-3.18-1.696-3.516-3.191" transform="translate(5.556 6.667)"/>
                <path fill="#FCFDFD" d="M18.44 16.81c-1.924 2.75-5.265 2.685-3.672 3.084 1.582.396 1.603 3.054 2.004 3.65.23.343.88-1.977 1.306-3.716.349-1.425.452-3.146.362-3.017" transform="translate(5.556 6.667)"/>
                <path fill="#000" d="M15.358 42.195c-.21.008-.423.013-.634.015l-.247.002c-.315 0-.628-.007-.939-.02-.163-.006-.326-.015-.489-.025-2.674-.17-5.22-.813-7.551-1.846.007-.755-.027-1.537-.104-2.395-.053-.592-.126-1.22-.219-1.898-.6-4.392-2.285-11.148-3.064-14.162l-.01-.04c-.097-.375 4.437-1.886 6.397-2.734.242-.105.445-.2.595-.282.444-.24 1.662-2.007 1.483-1.538-.123.323-.114.961-.017 1.81.025.218.061.45.098.695.11.68.255 1.454.433 2.285v.002c.027.12.056.242.08.364.416 1.882.965 4.014 1.5 5.974l.07.258.006.01c.517 1.883 1.014 3.588 1.356 4.731l.106.363h-.002l.013.044.166.555.002.009.151.5s.004.037.017.108c0 .046.016.105.027.178l.002.002c.015.1.032.223.056.37.012.126.037.267.049.423.012.033.012.066.024.1.171 1.292.446 3.528.645 6.142" transform="translate(5.556 6.667)"/>
                <path fill="#191A19" d="M14.722 42.21l-.246.002c-.314 0-.627-.007-.938-.02-.164-.006-.327-.015-.49-.025.158-2.569.44-4.974.911-6.86.034-.134-.208-.636-.625-1.397-.189-.344-.413-.741-.664-1.18-1.632-2.862-4.387-7.54-5.71-11.29-.072-.206.941-.868 1.29-.982.245-.08-.817-.293-.762-.363.127-.164.521-.572.836-.807.189-.14.348-.219.405-.146.758.97 2.527 6.1 3.941 10.436.526 1.612 1.002 3.114 1.359 4.252l.077.246.19.61v.002l.014.042.171.553.114.37.084.272v.061l.002.128c.006.679.028 3.109.041 6.096" transform="translate(5.556 6.667)"/>
                <path fill="#000" d="M25.559 27.429c-.528 2.786-.786 5.635-1.29 7.562-.243.922-.437 1.834-.576 2.729-.137.887-.221 1.758-.243 2.603-2.49 1.102-5.222 1.76-8.095 1.872-.21.008-.42.013-.633.015l-.246.002c-.314 0-.63-.007-.94-.02.094-2.203.224-3.789.249-4.089.012-.004.004-.008.004-.012h.001l.004-.039.047-.184c.094-.378.327-1.31.64-2.585l.05-.206v-.001c.008-.031.011-.063.024-.095.024-.086.043-.174.064-.262v-.003c.077-.312.155-.64.241-.982.024-.11.049-.22.086-.332.39-1.62.848-3.515 1.299-5.431v-.002l.055-.254c.38-1.62.76-3.248 1.077-4.731.208-.91.386-1.764.54-2.53.001 0 .003-.002.003-.004l.019-.089.122-.614c.044-.227.086-.443.122-.648.025-.16.061-.312.086-.456.073-.448.134-.824.159-1.113.024-.257.035-.444.018-.55-.004-.026-.006-.047-.006-.062 0-.041.008-.044.028-.018.014.019.033.052.056.097.156.302.505 1.114.815 1.282.166.09.372.205.609.336 1.712.95 5.05 2.794 6.636 2.794.033 0 .057.023.072.066.16.451-.564 3.141-1.097 5.954" transform="translate(5.556 6.667)"/>
                <path fill="#191A19" d="M22.402 22.056c.13-.175-1.368-1.11-1.716-1.224-.246-.08 1.187-.348 1.133-.418-.203-.263-1.083-.979-1.234-.784-1.356 1.735-6.807 18.502-6.807 18.502s4.609-10.7 8.624-16.076" transform="translate(5.556 6.667)"/>
                <path fill="#000" d="M5.465 36.98l-.242 3.217c-1.5-.689-2.91-1.54-4.205-2.532h-.001C.67 37.387.33 37.1 0 36.804c.335-5.842.891-11.527 1.812-14.497 0 0 .141-.256.298-.44.098-.116.202-.204.282-.185.24.053 3.072 15.298 3.072 15.298M28.888 36.893c-1.513 1.296-3.205 2.393-5.034 3.247l-.223-3.36s2.688-15.188 3-15.3c.008-.003.016-.004.025-.005.206-.012.555.63.555.63.931 3.005 1.431 8.823 1.677 14.788" transform="translate(5.556 6.667)"/>
                <path fill="#0A0B09" d="M23.713 29.051c.016.396-.14.298-.629.317l-4.021-.07c-.489.02-.45.019-.465-.378l.004-.208c-.015-.396.336-.366.796-.344l3.802.047c.488-.02.513 0 .53.396l-.017.24" transform="translate(5.556 6.667)"/>
                <path fill="#191A19" d="M11.007 19.857c-.318 1.497 2.114 9.263 2.114 9.263l1.266 4.097.158-.458c-1.784-5.606-3.403-13.539-3.538-12.902" transform="translate(5.556 6.667)"/>
                <path fill="#0A0B09" d="M14.62 34.013v1.208S8.42 25.087 7.33 21.339c-.12-.414 1.389-1.035 1.389-1.035l-.943-.392s2.84-3.242 2.846-3.139c.328 4.862 3.998 17.24 3.998 17.24" transform="translate(5.556 6.667)"/>
                <path fill="#191A19" d="M18.243 19.079c.318 1.497-2.115 9.263-2.115 9.263l-1.873 6.486-.21-.563c1.812-5.562 4.062-15.823 4.198-15.186" transform="translate(5.556 6.667)"/>
                <path fill="#0A0B09" d="M14.43 34.153s-.322 1.445-.423 2.519c-.066.688-.237 1.36-.196 1.267 1.347-3.118 5.159-11.323 8.192-15.771.244-.357-1.973-1.483-1.973-1.483l1.396-.335s-2.992-3.54-2.999-3.436c-.328 4.861-3.998 17.239-3.998 17.239" transform="translate(5.556 6.667)"/>
                <path fill="#C7C6C1" d="M18.065 15.178v-.026c.39-.48.69-1.045.87-1.666l.022-.096.037-.123c-.17.718-.492 1.37-.929 1.911" transform="translate(5.556 6.667)"/>
                <path fill="#997B5D" d="M14.825 16.773h-.077-.068c-.902 0-1.738-.3-2.428-.815.707.513 1.561.813 2.482.813 1.331 0 2.525-.627 3.33-1.619l.001.026c-.788.978-1.947 1.595-3.24 1.595" transform="translate(5.556 6.667)"/>
                <path fill="#997B5D" d="M14.734 16.771c-.92 0-1.775-.3-2.482-.813-.845-.63-1.47-1.581-1.732-2.691.542 1.902 2.169 3.285 4.102 3.285l.126-.002.135.002c1.892 0 3.498-1.323 4.074-3.162l-.022.096c-.18.62-.48 1.186-.87 1.666-.806.992-2 1.62-3.33 1.62" transform="translate(5.556 6.667)"/>
                <path fill="#0E1417" d="M20.452 4.495c0-1.328-3.182-3.694-5.102-4.29-2.455-.763-4.398.799-4.398 2.127l.002.047c-1.08.019-2.063.774-2.037 3.39.01.923.632 2.086.887 2.768.114.304.091.572.108.821.022.321.063.585.063.585.12.026.165.04.21.01.031-.018-.15-2.024-.15-4.264 0-1.12 1.092-1.695 2.238-1.774.083-.006.293-.017.499 0 .228.01.955.036 1.296.05 1.102.047 1.213-.1 1.98-.078.816.024 1.348.09 2.033.404 1.063.486 1.38.835 1.38 1.955 0 2.24-.18 4.245-.15 4.264.046.029.092.016.211-.01 0 0 .041-.264.063-.585.017-.25-.006-.517.108-.821.255-.682.516-2.067.614-2.986.043-.399.077-.61.111-.976.034-.246.034-.368.034-.637" transform="translate(5.556 6.667)"/>
            </g>
        </g>
    </g>
</svg>
