<svg xmlns="http://www.w3.org/2000/svg" width="16" height="16" viewBox="0 0 16 16">
    <path fill="#F54C4D" d="M8.007 1c2.832.003 5.384 1.712 6.464 4.33 1.08 2.618.476 5.63-1.53 7.628-2.007 2-5.02 2.593-7.634 1.503C2.693 13.371.993 10.814 1 7.981 1.01 4.122 4.145.997 8.007 1zm-.535 5.32H6.223c-.09 0-.18.013-.268.038-.107.022-.189.109-.205.217-.03.117.03.239.14.288.135.063.28.102.427.115.39.018.546.189.487.59-.109.748-.256 1.492-.382 2.24-.085.503-.157 1.009-.24 1.513-.11.679.523 1.316 1.026 1.4.297.041.598.06.898.057.645 0 1.26-.267 1.701-.736.08-.074.14-.167.175-.27.017-.09-.004-.184-.058-.258-.066-.041-.147-.05-.22-.024-.115.038-.217.116-.33.165-.13.061-.267.108-.408.14-.114.028-.234.005-.329-.064-.094-.068-.155-.175-.164-.291-.023-.13-.028-.264-.012-.395.047-.325.114-.647.173-.969.16-.878.322-1.757.486-2.636.045-.24.12-.477.07-.73-.008-.113-.06-.218-.147-.291-.085-.074-.197-.11-.31-.1h-1.26zm.762-3.114c-.516-.022-.995.27-1.21.74-.217.469-.127 1.022.226 1.4.353.376.9.502 1.382.318.483-.185.806-.643.817-1.16.02-.692-.523-1.27-1.215-1.295v-.003z"/>
</svg>
