<svg xmlns="http://www.w3.org/2000/svg" width="14" height="14" viewBox="0 0 14 14">
    <path fill="#D5D5D5" fill-rule="evenodd" d="M5.223.038c.408 3.904-1.934 5.532-2.598 5.91.005.041.008.084.008.127v5.57l1.092.588h5.741c.011 0 .025 0 .036.003 1.322.177 1.374-1.354 1.374-1.545-.008-.097.047-.194.143-.234.828-.35.477-1.445.444-1.54-.044-.11.008-.236.118-.29 1.075-.51.398-1.429.31-1.545-.071-.075-.082-.19-.025-.282C13.814 3.874 7.73 4.597 7.34 4.646c-.03.005-.063.008-.096 0-.129-.025-.21-.146-.186-.272C7.966-.132 5.873-.083 5.218.032l.005.006z"/>
</svg>
