<svg xmlns="http://www.w3.org/2000/svg" width="158" height="23" viewBox="0 0 158 23">
    <g fill="none" fill-rule="evenodd">
        <path fill="#F30000" fill-rule="nonzero" d="M9.022 22.963c-5.254 0-8.002-3.192-8.002-8.135 0-4.921 3.236-8.047 8.379-8.047 5.453 0 8.002 3.458 8.002 8.091 0 4.921-2.993 8.091-8.38 8.091zm.066-2.416c3.724 0 5.232-2.483 5.232-5.697 0-3.236-1.64-5.652-5.077-5.652-3.59 0-5.164 2.416-5.164 5.608 0 3.125 1.53 5.741 5.01 5.741zm14.94 2.15L18.577 7.025h3.214l4.3 13.389 4.965-13.389h3.082l-6.14 15.672h-3.968zm11.949 0V7.025h9.709V9.42H38.99v4.278h6.207v2.261H38.99v4.345h7.204v2.394H35.977zm26.622.288c-2.616-.2-4.145-1.64-5.697-3.546l-1.973-2.527c-.31.044-.732.066-1.086.066h-1.53v5.72h-3.037V7.024h5.72c3.325 0 5.674 1.552 5.674 4.921 0 1.774-.842 3.37-2.682 4.256l1.795 2.173c.931 1.086 1.862 1.84 3.503 2.283l-.687 2.327zm-10.286-8.224h1.663c2.305 0 3.569-.864 3.569-2.704 0-1.906-.887-2.638-3.037-2.638h-2.195v5.342z"/>
        <path fill="#184DBD" fill-rule="nonzero" d="M65.392 22.697V7.025h5.032c3.723 0 5.541 1.485 5.541 4.168 0 1.463-.864 2.593-1.862 3.036v.045c1.264.31 2.993 1.53 2.993 3.724 0 2.77-1.618 4.7-6.008 4.7h-5.696zm3.037-2.394H70.8c2.084 0 3.259-.532 3.259-2.217 0-1.684-1.197-2.305-3.547-2.305h-2.084v4.522zm0-6.672h1.861c1.774 0 2.66-.62 2.66-2.128 0-1.618-1.064-2.15-3.059-2.15h-1.463v4.278zm11.681 9.066V7.025h9.71V9.42h-6.695v4.278h6.207v2.261h-6.207v4.345h7.204v2.394H80.11zm16.559 0V9.441h-5.076V7.025h13.189v2.416h-5.076v13.256h-3.037zm13.632 0V9.441h-5.076V7.025h13.19v2.416h-5.077v13.256h-3.037zm10.374 0V7.025h3.015v15.672h-3.015zm7.094 0V7.025h3.59l6.917 11.837h.044l-.089-1.84V7.025h3.037v15.672h-3.724l-6.76-11.593h-.09l.09 1.906v9.687h-3.015zm25.026.244c-5.187 0-8.468-2.749-8.468-7.98 0-5.387 3.015-8.157 8.49-8.157 2.283 0 3.502.42 4.633.908l-.82 2.261c-1.286-.376-2.128-.642-3.835-.642-2.97 0-5.364 1.53-5.364 5.408 0 3.924 2.57 5.63 5.696 5.63.665 0 1.175-.066 1.596-.132V14.96h3.015v7.115c-1.596.599-3.059.865-4.943.865z"/>
        <path fill="#F30000" d="M17.2 5.411l-2.222 5.916c-1.628-1.293-3.627-2.138-5.725-2.074-2.184-.056-4.364.837-6.038 2.207L1.077 5.5c-.042.005-.085.008-.127.008-.54-.02-.963-.459-.95-.985.013-.527.458-.945.998-.94.54.007.974.436.975.963 0 .105-.02.21-.055.309l3.448 1.69.186.064c.05.018.104.027.158.026.152.001.295-.07.383-.193.064-.11.121-.224.172-.34l2.196-4.36c-.263-.176-.421-.466-.423-.778C8.057.426 8.508 0 9.06 0s1.004.426 1.023.964c-.002.302-.15.585-.401.762l2.742 4.443c.056.104.119.205.188.301.09.106.222.167.362.166.034 0 .068-.004.1-.01.065.004.13-.014.182-.052l3.25-1.73c-.051-.115-.077-.239-.077-.364-.015-.407.224-.782.605-.948.38-.166.827-.09 1.127.192.3.283.395.715.24 1.093-.157.377-.532.624-.95.624-.084 0-.168-.01-.25-.03z"/>
    </g>
</svg>
