<svg xmlns="http://www.w3.org/2000/svg" width="16" height="16" viewBox="0 0 16 16">
    <path fill="#ACACAC" fill-rule="evenodd" d="M12.593 1.01l.118.105 2.175 2.181c.56.57.594 1.462.105 2.064l-.105.116-.856.858c.316.766.492 1.603.492 2.481 0 3.594-2.917 6.518-6.503 6.518-3.586 0-6.503-2.924-6.503-6.518 0-.747.13-1.463.362-2.132l.106-.284-.865-.867c-.565-.567-.6-1.469-.106-2.085l.106-.12 2.199-2.204C3.893.556 4.793.52 5.4 1.016l.118.107 1.289 1.292c.393-.075.798-.118 1.212-.118.313 0 .62.024.92.068l.3.05 1.297-1.3c.559-.56 1.448-.596 2.057-.105zM8.02 3.926c-2.69 0-4.877 2.193-4.877 4.889s2.187 4.889 4.877 4.889 4.878-2.193 4.878-4.889-2.188-4.889-4.878-4.889zm-.036 1.63c.45 0 .813.365.813.815v2.107l1.387 1.39c.318.32.318.834 0 1.153-.158.159-.366.238-.574.238-.209 0-.417-.08-.575-.238L7.408 9.39c-.153-.152-.238-.36-.238-.576V6.371c0-.45.363-.815.813-.815z"/>
</svg>
