<svg width="53" height="23" viewBox="0 0 53 23" fill="none" xmlns="http://www.w3.org/2000/svg">
<path d="M10.5838 0.602051C9.71536 0.643651 8.64304 1.19627 8.03048 1.97314C7.46888 2.6429 6.98864 3.73061 7.11032 4.75189C8.09104 4.83717 9.07136 4.24047 9.68392 3.48439C10.2871 2.70751 10.6857 1.66597 10.5838 0.602051ZM18.92 2.68002V18.28H21.39V13.08H24.77C27.8723 13.08 30.1 10.922 30.1 7.88002C30.1 4.83802 27.913 2.68002 24.8513 2.68002H18.92ZM21.39 4.76002H24.25C26.3789 4.76002 27.63 5.90922 27.63 7.88002C27.63 9.85082 26.3893 11 24.25 11H21.39V4.76002ZM10.47 5.28002C9.04001 5.28002 8.01769 6.06002 7.35001 6.06002C6.67193 6.06002 5.66001 5.29017 4.49001 5.29017C3.06001 5.29017 1.6595 6.18779 0.921105 7.49611C-0.596255 10.1117 0.527205 13.9838 1.9936 16.1127C2.71224 17.1672 3.58001 18.28 4.75001 18.28C5.82225 18.2395 6.18521 17.63 7.48001 17.63C8.78417 17.63 9.17001 18.28 10.34 18.28C11.51 18.28 12.2183 17.2079 12.9359 16.1533C13.7555 14.9573 14.0902 13.7914 14.11 13.73C14.0902 13.7103 11.8457 12.8484 11.8249 10.2525C11.8051 8.08308 13.5942 7.04862 13.6753 6.9883C12.6634 5.48862 10.99 5.28002 10.6 5.28002H10.47ZM35.7672 6.84002C33.1786 6.84002 31.2656 8.29129 31.1949 10.287H33.3886C33.5696 9.33857 34.4668 8.71689 35.6961 8.71689C37.1864 8.71689 38.028 9.39943 38.028 10.6547L38.03 11.52L34.9811 11.6805C32.1513 11.8479 30.62 12.985 30.62 14.961C30.62 16.9567 32.201 18.282 34.4672 18.282C35.9981 18.282 37.4187 17.5212 38.0625 16.3158H38.1133V18.1622H40.368V10.4963C40.369 8.27171 38.5575 6.84002 35.7672 6.84002ZM41.28 6.84002L45.4481 18.2272L45.2247 18.9199C44.8482 20.094 44.2386 20.5449 43.1508 20.5449C42.9646 20.5449 42.6122 20.526 42.45 20.5063V22.3831C42.6143 22.4195 43.1862 22.44 43.3641 22.44C45.7633 22.44 46.8926 21.5373 47.8795 18.798L52.2 6.84002H49.6995L46.8009 16.0802H46.7502L43.8516 6.84002H41.28ZM38.03 13.08L38.0219 13.9819C38.0219 15.4244 36.7728 16.4519 35.1213 16.4519C33.8223 16.4519 32.9966 15.8401 32.9966 14.902C32.9966 13.9338 33.7927 13.3706 35.3142 13.2811L38.03 13.08Z" fill="black"/>
</svg>
