<svg width="58" height="23" viewBox="0 0 58 23" fill="none" xmlns="http://www.w3.org/2000/svg">
<g clip-path="url(#clip0)">
<path d="M27.5772 11.0516V17.4028H25.4969V1.71816H31.0143C31.6729 1.70483 32.3277 1.81796 32.9409 2.05101C33.5541 2.28407 34.1136 2.63243 34.5871 3.076C35.0653 3.49264 35.446 4.0036 35.7034 4.57455C35.9608 5.14549 36.089 5.76319 36.0795 6.38613C36.0932 7.0124 35.9669 7.63414 35.7093 8.20872C35.4517 8.7833 35.0689 9.29715 34.5871 9.71504C33.6223 10.6061 32.4314 11.0512 31.0143 11.0504H27.5772V11.0516ZM27.5772 3.64917V9.12434H31.066C31.4485 9.13533 31.8291 9.06887 32.1835 8.92923C32.538 8.78959 32.8584 8.57984 33.1244 8.31339C33.3889 8.06427 33.5992 7.7663 33.7428 7.4371C33.8865 7.1079 33.9604 6.75415 33.9604 6.39677C33.9604 6.03939 33.8865 5.68564 33.7428 5.35644C33.5992 5.02724 33.3889 4.72927 33.1244 4.48015C32.8618 4.20809 32.5424 3.9932 32.1876 3.84972C31.8327 3.70624 31.4504 3.63746 31.066 3.64792H27.5772V3.64917Z" fill="#5F6368"/>
<path d="M40.8733 6.32104C42.411 6.32104 43.6247 6.71901 44.5146 7.51495C45.4044 8.31088 45.8489 9.40216 45.8481 10.7888V17.4028H43.8582V15.9135H43.7677C42.9063 17.14 41.7606 17.7532 40.3306 17.7532C39.11 17.7532 38.0888 17.4028 37.267 16.702C36.8726 16.3803 36.5573 15.9775 36.344 15.5228C36.1308 15.0682 36.0249 14.5732 36.0343 14.0739C36.0343 12.9634 36.4676 12.0803 37.3341 11.4245C38.2007 10.7688 39.3576 10.44 40.8048 10.4384C42.0401 10.4384 43.0575 10.6574 43.8569 11.0954V10.6349C43.8592 10.2945 43.7833 9.95786 43.6347 9.64941C43.4861 9.34095 43.2685 9.0684 42.9976 8.85151C42.4475 8.3708 41.7305 8.1085 40.9896 8.1169C39.8275 8.1169 38.908 8.59163 38.2309 9.54107L36.3986 8.42351C37.4065 7.02187 38.8981 6.32104 40.8733 6.32104ZM38.1818 14.1177C38.1804 14.3741 38.2423 14.6272 38.3623 14.8557C38.4823 15.0843 38.657 15.2818 38.8718 15.4317C39.3319 15.7823 39.903 15.968 40.4883 15.9573C41.3661 15.9559 42.2076 15.6175 42.8283 15.0162C43.5175 14.388 43.862 13.6509 43.862 12.8049C43.2134 12.3043 42.3089 12.054 41.1485 12.054C40.3035 12.054 39.5988 12.2513 39.0346 12.646C38.4648 13.0464 38.1818 13.5333 38.1818 14.1177Z" fill="#5F6368"/>
<path d="M57.2705 6.67148L50.324 22.1334H48.1765L50.7543 16.7233L46.1866 6.67148H48.4478L51.7492 14.3805H51.7945L55.0054 6.67148H57.2705Z" fill="#5F6368"/>
<path d="M19.1706 9.68249C19.1713 9.06846 19.1177 8.4555 19.0103 7.85034H10.2367V11.3207H15.2618C15.159 11.8749 14.9414 12.4033 14.622 12.8739C14.3027 13.3445 13.8883 13.7476 13.4038 14.0589V16.3115H16.4028C18.1588 14.7434 19.1706 12.4245 19.1706 9.68249Z" fill="#4285F4"/>
<path d="M10.2367 18.4878C12.7474 18.4878 14.8613 17.6894 16.4028 16.3127L13.4038 14.0601C12.569 14.6082 11.494 14.9211 10.2367 14.9211C7.8101 14.9211 5.75043 13.3368 5.01391 11.2018H1.92441V13.5232C2.69874 15.0156 3.8861 16.2701 5.35392 17.1468C6.82174 18.0234 8.51226 18.4877 10.2367 18.4878Z" fill="#34A853"/>
<path d="M5.01389 11.2017C4.62452 10.0829 4.62452 8.87141 5.01389 7.75266V5.43118H1.92439C1.27299 6.6866 0.933746 8.07215 0.933746 9.47718C0.933746 10.8822 1.27299 12.2678 1.92439 13.5232L5.01389 11.2017Z" fill="#FBBC04"/>
<path d="M10.2367 4.03337C11.5635 4.01238 12.8455 4.49788 13.8056 5.38495L16.461 2.81319C14.7772 1.28149 12.5466 0.440557 10.2367 0.466686C8.51226 0.466762 6.82174 0.931049 5.35392 1.80771C3.8861 2.68438 2.69874 3.93891 1.92441 5.43126L5.01391 7.75273C5.75043 5.61773 7.8101 4.03337 10.2367 4.03337Z" fill="#EA4335"/>
</g>
<defs>
<clipPath id="clip0">
<rect width="56.3333" height="21.6667" fill="white" transform="translate(0.933334 0.466675)"/>
</clipPath>
</defs>
</svg>
