<svg width="58" height="56" viewBox="0 0 58 56" fill="none" xmlns="http://www.w3.org/2000/svg">
<path d="M57.8013 0H0V55.5929H57.8013V0Z" fill="white"/>
<path d="M55.9095 26.4485C55.9671 26.5046 55.8519 26.649 55.5804 26.8897C55.3007 27.1304 54.988 27.4031 54.626 27.6919C54.2639 27.9807 53.9266 28.2855 53.5892 28.5824C53.2519 28.8792 53.0133 29.0797 52.8487 29.184C52.2399 29.7215 51.6228 30.2349 50.9892 30.7162C50.3557 31.1976 49.7386 31.6869 49.1297 32.1682C47.698 33.2432 46.2582 34.3583 44.8265 35.5215C43.3948 36.6847 41.9549 37.8479 40.5233 39.0351C40.1366 39.356 39.7087 39.7652 39.2397 40.2465C38.7707 40.7278 38.3676 41.1048 38.0384 41.3776C37.4872 41.9151 36.8536 42.3723 36.1378 42.7494C35.422 43.1264 34.7061 43.0141 33.9821 42.4285C33.7023 42.2119 33.5131 41.9552 33.4061 41.6664C33.2992 41.3776 33.184 41.0647 33.077 40.7358C32.97 39.9256 32.9947 39.1073 33.1593 38.273C33.3238 37.4387 33.546 36.5884 33.8175 35.73C34.089 34.8717 34.4264 34.0454 34.8131 33.2673C35.1998 32.4891 35.5865 31.7431 35.9732 31.0451C36.7467 29.537 37.7834 27.9005 39.0752 26.1196C40.3752 24.3467 41.5435 22.8145 42.5967 21.5229C40.6632 22.7102 38.7872 23.9937 36.9688 25.3976C35.1504 26.8015 33.3238 28.2454 31.5055 29.7536C31.2257 29.9702 30.5839 30.5317 29.5637 31.4462C28.5434 32.3608 27.4409 33.2753 26.256 34.1898C25.0712 35.1043 23.9275 35.8985 22.8168 36.5724C21.7142 37.2462 20.9655 37.4468 20.5788 37.174C20.2496 36.9574 20.2085 36.4761 20.4553 35.722C20.7022 34.9679 21.1053 34.0534 21.6566 32.9785C22.2079 31.9035 22.8579 30.7563 23.5984 29.545C24.3389 28.3337 25.0877 27.1625 25.8364 26.0313C26.5769 24.9002 27.2598 23.8894 27.8605 23.007C28.4611 22.1246 28.9137 21.4908 29.1852 21.1138C25.1535 23.9135 21.3522 27.0501 17.7648 30.5157C14.1774 33.9812 10.7546 37.7677 7.50457 41.8509C7.28241 42.1156 7.07671 42.4044 6.88747 42.7012C6.69823 42.9981 6.43493 43.2227 6.09759 43.3831C5.43935 43.6478 4.79757 43.6077 4.19693 43.2628C3.58807 42.9098 3.25895 42.3884 3.20135 41.6905C3.20135 39.8614 3.6868 38.0564 4.64947 36.2836C5.62037 34.5107 6.64886 32.7859 7.7514 31.1173C8.19571 30.4194 8.87863 29.5049 9.81662 28.3738C10.7546 27.2427 11.816 26.0073 13.0008 24.6596C14.1857 23.3119 15.4445 21.9321 16.7692 20.5041C18.0939 19.0762 19.3775 17.7365 20.6199 16.469C21.8623 15.2015 22.9895 14.0624 24.0098 13.0356C25.0301 12.0087 25.8446 11.2627 26.4535 10.7733C26.6757 10.6129 26.7579 10.6931 26.7003 11.014C26.6427 11.3349 26.5193 11.744 26.3301 12.2253C26.1408 12.7067 25.9269 13.18 25.713 13.6372C25.4991 14.0945 25.351 14.3512 25.3016 14.3993C24.5282 15.7952 23.6478 17.199 22.6522 18.5949C21.6566 19.9907 20.6199 21.4026 19.5503 22.8305C18.4724 24.2585 17.4275 25.6703 16.4072 27.0662C15.3869 28.462 14.4654 29.89 13.6344 31.342C15.7325 29.6734 17.7566 27.9807 19.7148 26.256C21.6731 24.5312 23.549 22.9188 25.3427 21.4106C27.1364 19.9025 28.8643 18.5467 30.5181 17.3354C32.1719 16.1241 33.7435 15.1694 35.2409 14.4715C35.9568 14.1506 36.7549 14.1747 37.6435 14.5517C38.2524 14.9288 38.6391 15.4422 38.8036 16.084C38.9682 16.7257 38.8612 17.3514 38.4745 17.9371C37.0429 19.8784 35.5042 21.7074 33.8833 23.4242C32.2542 25.1489 30.6991 26.9459 29.2099 28.8311C32.0814 27.1063 34.7966 25.189 37.3638 23.0632C39.9309 20.9373 42.5062 18.7954 45.1062 16.6455C45.8797 16.0037 46.7107 15.3299 47.5911 14.6239C48.4715 13.926 49.4424 13.4126 50.4873 13.0917C50.874 12.9874 51.2607 12.9313 51.6474 12.9313C52.0342 12.9313 52.4209 13.0356 52.8076 13.2522C53.4165 13.573 53.8114 14.0704 54.0089 14.7443C54.1981 15.4181 54.0747 16.0519 53.6386 16.6375C53.2519 17.2311 52.8241 17.7766 52.3551 18.29C51.8861 18.8034 51.4335 19.3249 50.9892 19.8624C50.4379 20.5603 49.8702 21.2341 49.2943 21.8839C48.7183 22.5257 48.1177 23.1755 47.517 23.8172C46.3569 25.1088 45.2379 26.4405 44.16 27.8122C43.0822 29.184 42.0784 30.5718 41.1404 31.9677C39.8733 33.7406 38.853 35.6017 38.0796 37.535C39.1821 36.7328 40.3094 35.9386 41.4695 35.1525C42.6296 34.3743 43.7898 33.5801 44.9417 32.7699C45.1638 32.6095 45.8385 32.1682 46.974 31.4382C48.1094 30.7162 49.3189 29.9461 50.619 29.1359C51.919 28.3257 53.1038 27.6277 54.1734 27.0341C55.2431 26.4405 55.7943 26.288 55.9095 26.4485Z" fill="#2E2E2E"/>
</svg>
