<svg width="16" height="24" viewBox="0 0 16 24" fill="none" xmlns="http://www.w3.org/2000/svg">
<path d="M9.20026 22.0732C9.20032 21.8185 9.31148 21.5743 9.50929 21.3943C12.3158 18.7432 13.8625 15.1925 13.8146 11.5108C13.8625 7.82913 12.3158 4.27841 9.50929 1.62729C9.31716 1.44619 9.21085 1.20364 9.21326 0.951873C9.21566 0.700108 9.32658 0.459273 9.52214 0.281241C9.71769 0.103209 9.98223 0.00222408 10.2588 3.62987e-05C10.5353 -0.00215148 10.8017 0.094633 11.0007 0.269544C14.2021 3.28117 15.971 7.32 15.9241 11.5108C15.971 15.7016 14.2021 19.7404 11.0007 22.7521C10.8532 22.8863 10.6652 22.9777 10.4607 23.0148C10.2561 23.0518 10.0441 23.0328 9.85138 22.9601C9.65869 22.8875 9.49398 22.7644 9.37808 22.6066C9.26218 22.4487 9.2003 22.2631 9.20026 22.0732Z" fill="black"/>
<path d="M5.96438 19.7102C5.964 19.584 5.99112 19.4591 6.04417 19.3425C6.09722 19.226 6.17514 19.1202 6.27341 19.0313C8.39176 17.0024 9.573 14.3101 9.573 11.5109C9.573 8.71165 8.39176 6.01939 6.27341 3.99049C6.17267 3.90191 6.09232 3.79595 6.03705 3.6788C5.98177 3.56165 5.95267 3.43565 5.95146 3.30816C5.95024 3.18066 5.97693 3.05422 6.02996 2.93621C6.08299 2.81821 6.16131 2.711 6.26034 2.62084C6.35937 2.53068 6.47713 2.45938 6.60675 2.4111C6.73637 2.36282 6.87526 2.33853 7.0153 2.33964C7.15535 2.34074 7.29375 2.36723 7.42243 2.41756C7.55111 2.46788 7.6675 2.54103 7.76479 2.63274C10.2659 5.0278 11.6606 8.20618 11.6606 11.5109C11.6606 14.8156 10.2659 17.994 7.76479 20.389C7.61728 20.5233 7.42937 20.6147 7.2248 20.6517C7.02024 20.6888 6.8082 20.6697 6.61551 20.5971C6.42281 20.5244 6.2581 20.4014 6.1422 20.2435C6.0263 20.0856 5.96442 19.9 5.96438 19.7102Z" fill="black"/>
<path d="M3.18521 16.3523C3.18527 16.0976 3.29643 15.8534 3.49424 15.6734C4.67445 14.5562 5.32358 13.0607 5.30097 11.5108C5.32358 9.96096 4.67445 8.46541 3.49424 7.34827C3.39625 7.25912 3.3185 7.15327 3.26544 7.03676C3.21238 6.92025 3.18505 6.79537 3.185 6.66925C3.1849 6.41453 3.29595 6.17021 3.49372 5.99004C3.69148 5.80986 3.95977 5.70859 4.23955 5.7085C4.51934 5.70841 4.7877 5.80951 4.98561 5.98956C6.5604 7.46787 7.43196 9.45156 7.41145 11.5108C7.43196 13.5701 6.5604 15.5538 4.98561 17.0321C4.83804 17.1664 4.65003 17.2578 4.44537 17.2948C4.24071 17.3318 4.02859 17.3127 3.83585 17.24C3.64311 17.1672 3.47841 17.044 3.3626 16.886C3.24678 16.728 3.18505 16.5422 3.18521 16.3523Z" fill="black"/>
<path d="M0.000162125 14.7273C0.000207186 14.5587 0.0839686 14.3971 0.233024 14.2779C1.12234 13.5384 1.61147 12.5485 1.59443 11.5226C1.61147 10.4966 1.12234 9.50668 0.233024 8.76719C0.159183 8.70818 0.100599 8.63811 0.0606165 8.56099C0.0206344 8.48387 3.69549e-05 8.40121 0 8.31772C-7.4625e-05 8.14912 0.0836043 7.98739 0.232627 7.86812C0.381649 7.74886 0.583808 7.68182 0.794632 7.68176C1.00546 7.6817 1.20767 7.74863 1.3568 7.86781C2.54345 8.84636 3.20019 10.1594 3.18473 11.5226C3.20019 12.8857 2.54345 14.1988 1.3568 15.1773C1.24561 15.2662 1.10394 15.3267 0.949719 15.3512C0.795501 15.3757 0.635664 15.3631 0.49043 15.3149C0.345197 15.2667 0.221094 15.1852 0.133824 15.0806C0.0465536 14.976 3.83854e-05 14.853 0.000162125 14.7273Z" fill="black"/>
</svg>
