<svg width="54" height="54" viewBox="0 0 54 54" version="1.1" xmlns="http://www.w3.org/2000/svg" xmlns:xlink="http://www.w3.org/1999/xlink">
<title>Group</title>
<desc>Created using Figma</desc>
<g id="Canvas" transform="translate(7220 -2511)">
<g id="Group">
<g id="Vector">
<use xlink:href="#path0_fill" transform="translate(-7218 2513)" fill="#FFFFFF"/>
<use xlink:href="#path1_stroke" transform="translate(-7218 2513)"/>
</g>
<g id="Vector">
<use xlink:href="#path2_stroke" transform="translate(-7198.01 2518.67)"/>
</g>
<g id="Vector">
<use xlink:href="#path3_stroke" transform="translate(-7191.46 2518.67)"/>
</g>
<g id="Vector">
<use xlink:href="#path4_fill" transform="translate(-7208.06 2538)" fill="#FFFFFF"/>
<use xlink:href="#path5_stroke" transform="translate(-7208.06 2538)"/>
</g>
<g id="Vector">
<use xlink:href="#path6_stroke" transform="translate(-7208.06 2553)"/>
</g>
</g>
</g>
<defs>
<path id="path0_fill" d="M 50 0L 0 0L 0 50L 50 50L 50 0Z"/>
<path id="path1_stroke" d="M 0 0L 0 -2L -2 -2L -2 0L 0 0ZM 50 0L 52 0L 52 -2L 50 -2L 50 0ZM 50 50L 50 52L 52 52L 52 50L 50 50ZM 0 50L -2 50L -2 52L 0 52L 0 50ZM 0 2L 50 2L 50 -2L 0 -2L 0 2ZM 48 0L 48 50L 52 50L 52 0L 48 0ZM 50 48L 0 48L 0 52L 50 52L 50 48ZM 2 50L 2 0L -2 0L -2 50L 2 50Z"/>
<path id="path2_stroke" d="M 1.45679 13.1111C 2.871 14.5253 2.87171 14.5246 2.87242 14.5239C 2.87268 14.5236 2.87341 14.5229 2.87392 14.5224C 2.87449 14.5218 2.87603 14.5203 2.87715 14.5191C 2.87848 14.5178 2.88189 14.5144 2.88454 14.5117C 2.888 14.5082 2.89605 14.4999 2.90293 14.4928C 2.91293 14.4825 2.9338 14.4607 2.95334 14.4398C 2.98479 14.4061 3.04392 14.3412 3.10261 14.2737C 3.20425 14.1561 3.37823 13.9421 3.54519 13.7102C 3.84636 13.2858 4.29812 12.5128 4.58332 11.695C 5.19753 9.85234 5.11973 7.39007 2.871 5.14134L 0.0425757 7.96977C 1.07162 8.99882 0.993829 9.81433 0.788589 10.43C 0.664069 10.8414 0.501245 11.0926 0.29026 11.3853C 0.201147 11.5119 0.144654 11.5795 0.0798514 11.654C 0.0553174 11.6826 0.0472233 11.6912 0.0322574 11.7072C 0.028593 11.7112 0.0270493 11.7127 0.0292557 11.7104C 0.0284825 11.7112 0.0340909 11.7054 0.0337601 11.7058C 0.0326651 11.7069 0.0381529 11.7013 0.0376147 11.7019C 0.0368829 11.7026 0.0403193 11.6992 0.0399552 11.6995C 0.040368 11.6991 0.0410242 11.6985 0.0412303 11.6982C 0.0418967 11.6976 0.0425759 11.6969 1.45679 13.1111ZM 2.871 5.14134C 1.84195 4.11229 1.91975 3.29678 2.12499 2.68107C 2.24951 2.26974 2.41233 2.01848 2.62332 1.72584C 2.71243 1.59924 2.76892 1.53157 2.83373 1.4571C 2.85826 1.42854 2.86636 1.41987 2.88132 1.40393C 2.88499 1.39996 2.88653 1.39846 2.88432 1.40073C 2.8851 1.39994 2.87949 1.40567 2.87982 1.40533C 2.88091 1.40422 2.87543 1.40978 2.87596 1.40923C 2.8767 1.4085 2.87326 1.41195 2.87362 1.41159C 2.87321 1.412 2.87255 1.41266 2.87235 1.41287C 2.87168 1.41353 2.871 1.41421 1.45679 -1.05964e-07C 0.0425757 -1.41421 0.0418715 -1.41351 0.0411552 -1.41279C 0.0408992 -1.41254 0.0401682 -1.4118 0.039656 -1.41129C 0.039093 -1.41072 0.0375506 -1.40917 0.0364234 -1.40804C 0.0350943 -1.4067 0.0316914 -1.40326 0.0290335 -1.40056C 0.0255767 -1.39704 0.0175249 -1.38881 0.0106499 -1.38172C 0.000652692 -1.37138 -0.0202218 -1.34954 -0.0397643 -1.3287C -0.0712122 -1.29503 -0.130338 -1.23008 -0.189029 -1.16262C -0.290676 -1.04503 -0.464652 -0.831013 -0.631615 -0.599108C -0.932783 -0.174732 -1.38454 0.598314 -1.66974 1.41616C -2.28395 3.25877 -2.20615 5.72104 0.0425757 7.96977L 2.871 5.14134Z"/>
<path id="path3_stroke" d="M 1.45679 13.1111C 2.871 14.5253 2.87171 14.5246 2.87242 14.5239C 2.87268 14.5236 2.87341 14.5229 2.87392 14.5224C 2.87449 14.5218 2.87603 14.5203 2.87716 14.5191C 2.87849 14.5178 2.88189 14.5144 2.88455 14.5117C 2.888 14.5082 2.89606 14.4999 2.90293 14.4928C 2.91293 14.4825 2.9338 14.4607 2.95334 14.4398C 2.98479 14.4061 3.04392 14.3412 3.10261 14.2737C 3.20426 14.1561 3.37823 13.9421 3.5452 13.7102C 3.84636 13.2858 4.29812 12.5128 4.58332 11.695C 5.19753 9.85234 5.11973 7.39007 2.871 5.14134L 0.0425774 7.96977C 1.07163 8.99882 0.99383 9.81433 0.788591 10.43C 0.664071 10.8414 0.501246 11.0926 0.290262 11.3853C 0.201148 11.5119 0.144656 11.5795 0.0798531 11.654C 0.0553192 11.6826 0.0472251 11.6912 0.0322591 11.7072C 0.0285947 11.7112 0.027051 11.7127 0.0292574 11.7104C 0.0284842 11.7112 0.0340926 11.7054 0.0337618 11.7058C 0.0326668 11.7069 0.0381547 11.7013 0.0376164 11.7019C 0.0368847 11.7026 0.040321 11.6992 0.0399569 11.6995C 0.0403697 11.6991 0.041026 11.6985 0.041232 11.6982C 0.0418984 11.6976 0.0425777 11.6969 1.45679 13.1111ZM 2.871 5.14134C 1.84196 4.11229 1.91975 3.29678 2.12499 2.68107C 2.24951 2.26974 2.41234 2.01848 2.62332 1.72584C 2.71243 1.59924 2.76893 1.53157 2.83373 1.4571C 2.85826 1.42854 2.86636 1.41987 2.88132 1.40393C 2.88499 1.39996 2.88653 1.39846 2.88432 1.40073C 2.8851 1.39994 2.87949 1.40567 2.87982 1.40533C 2.88092 1.40422 2.87543 1.40978 2.87597 1.40923C 2.8767 1.4085 2.87326 1.41195 2.87363 1.41159C 2.87321 1.412 2.87256 1.41266 2.87235 1.41287C 2.87168 1.41353 2.871 1.41421 1.45679 -1.05964e-07C 0.0425774 -1.41421 0.0418732 -1.41351 0.0411569 -1.41279C 0.040901 -1.41254 0.04017 -1.4118 0.0396577 -1.41129C 0.0390947 -1.41072 0.0375523 -1.40917 0.0364252 -1.40804C 0.035096 -1.4067 0.0316931 -1.40326 0.0290352 -1.40056C 0.0255784 -1.39704 0.0175267 -1.38881 0.0106516 -1.38172C 0.000654414 -1.37138 -0.0202201 -1.34954 -0.0397626 -1.3287C -0.0712105 -1.29503 -0.130336 -1.23008 -0.189027 -1.16262C -0.290674 -1.04503 -0.46465 -0.831013 -0.631613 -0.599108C -0.932782 -0.174732 -1.38454 0.598314 -1.66974 1.41616C -2.28395 3.25877 -2.20615 5.72104 0.0425774 7.96977L 2.871 5.14134Z"/>
<path id="path4_fill" d="M 30 0C 30 8.27778 23.2778 15 15 15C 6.72222 15 -2.11928e-07 8.27778 -2.11928e-07 0L 30 0Z"/>
<path id="path5_stroke" d="M 30 0L 32 0L 32 -2L 30 -2L 30 0ZM -2.11928e-07 0L -2.11928e-07 -2L -2 -2L -2 0L -2.11928e-07 0ZM 28 0C 28 7.17321 22.1732 13 15 13L 15 17C 24.3823 17 32 9.38235 32 0L 28 0ZM 15 13C 7.82679 13 2 7.17321 2 0L -2 0C -2 9.38235 5.61765 17 15 17L 15 13ZM -2.11928e-07 2L 30 2L 30 -2L -2.11928e-07 -2L -2.11928e-07 2Z"/>
<path id="path6_stroke" d="M -2.11928e-07 2L 30 2L 30 -2L -2.11928e-07 -2L -2.11928e-07 2Z"/>
</defs>
</svg>
