<?xml version="1.0" encoding="utf-8"?>
<!-- Generator: Adobe Illustrator 22.0.1, SVG Export Plug-In . SVG Version: 6.00 Build 0)  -->
<svg width="123px" height="111px" version="1.1" id="Layer_1" xmlns="http://www.w3.org/2000/svg" xmlns:xlink="http://www.w3.org/1999/xlink" x="0px" y="0px"
	 viewBox="0 0 123 111" enable-background="new 0 0 123 111" xml:space="preserve">
<style type="text/css">
	.st0{fill:#FFFFFF;}
	.st1{display:none;fill:#FFFFFF;}
</style>
<g>
	<path class="st0" d="M61.3,63c17.4,0,31.5-14.1,31.5-31.5S78.7,0,61.3,0S29.9,14.1,29.9,31.5S43.9,63,61.3,63z M35.8,31.5
		C35.8,17.4,47.2,6,61.3,6s25.5,11.4,25.5,25.5c0,9.4-5.1,17.6-12.6,22c1.6-5.5,2.2-11.2,2-17.8c1.7,0.5,2.5,0.8,4.2,1.2
		c-1.9-4.8-4-9.2-6.7-13.6c-2.4,4.6-5.6,8.8-8.8,12.2l5.3-0.3c-4.5,8.1-11,12-19,13.2c-1.9-9.1-0.5-24.1,9.8-31.1l1,5
		c2-3.3,6-7.5,9-10.5c-4.7-1.9-10.1-2.4-15.3-1.5c0.9,0.7,1.9,1.7,2.8,2.4c-11.7,4.9-18.1,13-22.3,22.4
		C35.9,34.1,35.8,32.8,35.8,31.5z"/>
</g>
<g>
	<path class="st0" d="M21.5,73.3l4.1,30.2h0l4.5-30.2h7.3l4.5,30.2h0l4.1-30.2H53l-5.8,36.1h-9.6l-3.7-25.1h0l-3.8,25.1h-9.7
		l-5.8-36.1H21.5z"/>
	<path class="st0" d="M79.2,90.1v19.3h-5.3v-4c-0.4,0.8-0.8,1.5-1.2,2.1c-0.5,0.6-1,1.1-1.6,1.6c-0.6,0.4-1.3,0.7-2.1,0.9
		c-0.8,0.2-1.7,0.3-2.8,0.3c-1.4,0-2.7-0.3-3.9-0.8s-2.3-1.3-3.3-2.3c-0.9-1-1.7-2.4-2.2-4c-0.6-1.6-0.8-3.6-0.8-5.9V85.5
		c0-8.5,4-12.8,11.9-12.8c2.1,0,3.9,0.3,5.3,1c1.4,0.6,2.6,1.5,3.5,2.5s1.5,2.3,2,3.6c0.4,1.4,0.6,2.8,0.6,4.3v1h-6.8
		c0-2.5-0.4-4.2-1.1-5.3c-0.7-1.1-1.9-1.6-3.5-1.6c-1.8,0-3,0.5-3.8,1.6c-0.8,1.1-1.1,2.8-1.1,5.2v11.5c0,2.8,0.4,4.9,1.1,6.3
		c0.7,1.3,2,2,3.8,2c1.5,0,2.6-0.5,3.4-1.6c0.8-1.1,1.2-2.9,1.2-5.3v-2.4h-4.6v-5.3H79.2z"/>
	<path class="st0" d="M98.9,85.1v-0.8c0-2.3-0.3-3.9-1-4.8c-0.6-0.9-1.7-1.4-3.1-1.4c-1.5,0-2.5,0.5-3.2,1.4c-0.6,0.9-1,2.5-1,4.8
		v14.3c0,2.4,0.3,4,1,4.9c0.6,0.9,1.7,1.4,3.1,1.4c1.4,0,2.4-0.5,3.1-1.4c0.7-0.9,1-2.5,1-4.9v-2h6.8v1.6c0,1.6-0.2,3.2-0.5,4.6
		c-0.3,1.5-0.9,2.8-1.8,3.9c-0.8,1.1-2,2-3.3,2.6c-1.4,0.7-3.2,1-5.3,1c-2.3,0-4.1-0.3-5.6-1c-1.4-0.6-2.6-1.5-3.4-2.6
		c-0.8-1.1-1.4-2.4-1.7-3.9c-0.3-1.4-0.5-3-0.5-4.6V85.1c0-4.3,0.9-7.4,2.8-9.4c1.9-2,4.7-3,8.4-3c3.5,0,6.2,0.9,8,2.8
		s2.8,4.5,2.8,7.8v1.8H98.9z"/>
</g>
</svg>
