<?xml version="1.0" encoding="utf-8"?>
<!-- Generator: Adobe Illustrator 22.1.0, SVG Export Plug-In . SVG Version: 6.00 Build 0)  -->
<svg version="1.1" id="Layer_1" xmlns="http://www.w3.org/2000/svg" xmlns:xlink="http://www.w3.org/1999/xlink" x="0px" y="0px"
	 width="195px" height="86.5px" viewBox="0 0 195 86.5" enable-background="new 0 0 195 86.5" xml:space="preserve">
<g>
	<g>
		<path fill="#FFFFFF" d="M20.2,46.1c0.5-0.3,0.9-0.6,1.3-0.9c-0.1-0.1-0.1-0.1-0.2-0.1c-1.6,0-3.2,0-4.7-0.1
			c-1.2,0-2.5-0.2-3.7-0.2c-0.6,0-1.3,0.1-1.8,0.6c-0.7,0.7-1,1.6-0.7,2.6c0.5-1.3,1.5-1.7,2.7-1.9c1.2-0.2,1.7,0.1,2.2,1.1
			c-0.3-0.1-0.5-0.2-0.9-0.4c0.1,0.9,0.1,1.6,0.2,2.5c0.6-0.4,1-0.8,1.5-1.2c0,0,0.1,0.1,0.1,0.1c-0.3,0.3-0.5,0.6-0.8,0.9
			c-0.6,0.5-0.7,1.2-0.1,1.8c0.1,0.1,0.2,0.3,0.4,0.4c0.5,0.6,0.3,1.4-0.5,1.6C14.3,53,13.5,53,12.7,53c-1.4,0-2.8-0.3-3.9-1.2
			c-0.8-0.6-1.6-0.9-2.5-1.1c-0.4-0.1-0.7-0.2-1.1-0.3c-0.1,0-0.2-0.1-0.3-0.1c0,0,0-0.1,0-0.1c0.7,0,1.4,0.1,2.1,0.1
			c-0.3-0.5-0.6-1-0.8-1.5c-1.2-2.8-1-5.6-0.1-8.4c0.7-2.1,2.2-3.4,4.5-3.7c1.6-0.2,3.3,0,4.9,0.2c1.6,0.2,2.7,1.1,3.5,2.4
			c0.3,0.5,0.5,1,0.7,1.5c0,0.1,0.1,0.1,0.2,0.3c0-0.2,0-0.3,0-0.4c-0.2-1.2-0.5-2.3-0.7-3.5c-0.1-0.4,0-0.5,0.4-0.4
			c0.5,0.1,0.9,0.3,1.4,0.4c2.7,1,5.5,1.5,8.4,1.6c2,0,4.1,0.1,6.1,0.1c0.6,0,1.1,0,1.7,0c1.8-0.2,3.5-0.6,5.2-1.4
			c1.2-0.6,2.4-1,3.6-1.6c1.3-0.6,2.4-1.4,3.7-2c2.6-1.1,5.4-1.9,8.3-1.8c1.1,0,2.1,0.2,3.1,0.7c0.7,0.4,1.4,0.9,1.3,1.9
			c0,0.5,0.2,0.9,0.6,1.1c0.7,0.4,1.4,0.7,2.3,0.6c0.7-0.1,1.3-0.5,1.6-1.2c0.2-0.7,0-1.5-0.5-1.9c-0.9-0.8-2-1.3-3.1-1.6
			c-2.9-0.7-5.8-1-8.8-0.7c-2,0.2-3.9,0.7-5.7,1.5c-2,0.9-3.9,1.9-6,2.6c-0.2,0.1-0.4,0.1-0.7,0.2c0.1-0.2,0.1-0.4,0.2-0.4
			c0.1-0.2,0.3-0.4,0.4-0.6c0.5-0.8,0.4-1.7-0.2-2.2c-0.8-0.6-2.2-0.6-2.8,0c-0.1,0.1-0.1,0.2-0.2,0.2c-0.3,0.5-0.2,1.1,0.3,1.5
			c0.3,0.2,0.2,0.4,0,0.6c-0.7,0.6-1.5,1.1-2.4,1.4c-2.4,0.6-4.9,0.7-7.3,0.5c2.6,0.8,5.2,0.8,7.9,0.8c-0.2,0.1-0.3,0.2-0.5,0.2
			c-1.5,0.2-3.1,0.5-4.6,0.6c-2.2,0.3-4.3,0.3-6.5-0.1c-1-0.2-1.9-0.5-2.8-0.8c-1.5-0.5-3-1-4.5-1.4c-1.3-0.4-2.6-0.9-4-1.2
			c-2.2-0.5-4.5-0.5-6.8,0c-3.9,0.9-6.7,3.1-7.7,7.1c-0.3,1-0.4,2-0.4,3.1c0.3,0.1,0.5,0.1,0.9,0.2c-0.5,0.2-0.8,0.4-1.2,0.5
			c0.9,0.3,1.8,0.5,2.8,0.8c-0.9,0.2-1.7,0.3-2.4,0.5c0.5,1,0.9,2,1.4,3c0.2,0.5,0.5,0.9,0.8,1.3c0.3,0.5,0.7,0.8,1.4,0.7
			c0.5-0.1,1,0,1.4,0c0.2,0,0.3,0,0.5,0c0,0,0,0.1,0,0.1C5.2,51.8,4.6,52,4,52.2c0,0-0.1,0.1-0.1,0.1c0.1,0,0.1,0,0.2,0
			c1.9,1.3,4,2.1,6.3,2.1c2.3,0.1,4.6,0.1,6.9,0c0.8,0,1.7-0.2,2.5-0.4c0.7-0.2,0.9-0.6,0.7-1.3c-0.1-0.5-0.4-1-0.5-1.5
			c-0.3-0.7-0.6-1.4-0.8-2.1C18.6,47.7,18.8,47,20.2,46.1z"/>
		<path fill="#FFFFFF" d="M56.8,52.2c0-1.9,0-3.7,0-5.6c-0.7,0.2-1.4,0.4-2,0.7c0-0.1-0.1-0.1-0.1-0.2c0.7-0.7,1.4-1.3,2.2-2.1
			c-0.5-0.1-0.8-0.1-1.2-0.2c0.3-0.3,0.6-0.6,0.9-0.8c0.1-0.1,0.2-0.3,0.2-0.4c0-0.9,0.1-1.7,0.1-2.6c0-0.5-0.1-1-0.1-1.4
			c-0.4,0-0.7,0-1.1,0.1c0.2-0.2,0.3-0.4,0.5-0.5c0.7-0.5,0.8-1.2,0.6-2c0-0.1,0-0.1,0-0.2c-0.2-0.6-0.4-1.2,0.1-1.8
			c0,0,0-0.1,0-0.2c0-0.3-0.1-0.5-0.5-0.5c-0.7,0-1.4-0.1-2.1-0.1c-1.8,0-3.1,1-3.6,2.5c0.3-0.2,0.5-0.4,0.9-0.6
			c0.8-0.4,1.4,0,1.5,0.9c0,0.7,0,1.3,0,2c0,0.6,0.2,1.2,0.5,1.7c0.4,0.5,0.7,1,1.1,1.6c0,0,0,0,0,0c-0.4-0.3-0.8-0.6-1.3-0.9
			c0,0.4,0,0.8,0,1.2c-0.2-0.1-0.3-0.2-0.4-0.3c-1.1-0.6-2.3-0.9-3.6-0.8c-1.9,0.2-3.7,0.9-5.3,1.8c-0.3,0.2-0.5,0.4-0.8,0.6
			c-0.7,0.6-0.7,0.9-0.1,1.5c0.3,0.4,0.7,0.8,0.8,1.4c-0.5-0.3-1-0.5-1.4-0.8c-0.3,0.7-0.3,1.5-0.2,2.2c0.2,2.1,1.1,3.7,3,4.8
			c1.2,0.7,2.5,0.8,3.9,0.8c1.7-0.1,3.2-0.7,4.7-1.5c0.1-0.1,0.2-0.1,0.4-0.2c-0.2,0.7-0.4,1.3-0.6,1.9c0.1,0,0.2,0,0.2,0
			c0.8-0.2,1.7-0.4,2.5-0.5c0.6-0.1,1.2-0.3,1.8-0.3c0.8,0,1.2,0.4,1.1,1.3c0,0.1,0,0.3,0,0.5c0.3-0.6,0.4-1.2,0.2-1.7
			C58.6,52.6,57.8,52.4,56.8,52.2z M53.1,50.7c0,0.4-0.2,0.7-0.6,1c-1.3,1-2.6,0.9-4.1,0.5c-2.4-0.7-3.2-2.7-3-4.9
			c0.1-1.1,0.6-2.1,1.4-3c1.1-1.3,3.3-1.6,4.8-0.7c0.9,0.6,1.3,1.4,1.4,2.4c0.1,0.8,0.1,1.7,0.2,2.6c0,0-0.1,0-0.1,0
			C53.1,49.3,53.1,50,53.1,50.7z"/>
		<path fill="#FFFFFF" d="M38.5,47.5c0-0.1-0.1-0.1-0.1-0.2c0.4-0.3,0.7-0.6,1.1-0.8c0,0,0-0.1-0.1-0.1c-0.7,0-1.3,0-2,0
			c0,0,0-0.1,0-0.1c0.6-0.3,1.2-0.7,2-1c-0.6-0.6-1.1-1.3-1.7-1.8c-3-2.6-8.1-2.3-10.8-0.5c-0.6,0.4-1.1,0.9-1.5,1.5
			c-0.7,1.1-0.9,2.4-0.9,3.7c0,2.7,1.6,4.7,4.1,5.7c1.7,0.6,3.4,0.7,5.1,0.5c3.4-0.4,5.9-2.5,6-6.2c0-0.4-0.1-0.5-0.4-0.5
			C38.9,47.5,38.7,47.5,38.5,47.5z M36.4,48.2c0,0.6,0,1.2-0.1,1.8c-0.2,1.8-1.3,2.8-3,3c-1.3,0.1-2.5-0.1-3.7-0.7
			c-0.9-0.5-1.8-0.9-2.6-1.4c0.6,0.1,1.2,0.1,1.8,0.2c-0.1-0.2-0.1-0.3-0.2-0.4c-0.7-1.5-1.1-3.1-0.9-4.9c0.2-1.5,1.1-2.5,2.7-2.8
			c1.5-0.2,3,0,4.1,1.1c0.8,0.8,1.2,1.7,1.5,2.8c0.1,0.4,0.3,0.6,0.6,0.8c0.4,0.2,0.8,0.5,1.3,0.8C37.3,48.2,36.9,48.2,36.4,48.2z"
			/>
		<path fill="#FFFFFF" d="M69.7,49.2c0.6-0.2,1.1-0.4,1.6-0.6c-1.2-1.7-2.9-2.1-4.9-1.6c0,0,0-0.1,0-0.1c0.3-0.1,0.6-0.3,1-0.5
			c-0.8-0.2-1.6-0.3-2.3-0.6c-0.5-0.2-1-0.4-1.5-0.7c-0.7-0.5-0.6-1.5,0.2-2c0.3-0.1,0.6-0.2,0.9-0.3c1.3-0.2,2.6-0.1,3.8,0.2
			c0.4,0.1,0.8,0.3,1.1,0.5c0.2,0.2,0.3,0.5,0.3,0.8c0,0.2-0.3,0.4-0.6,0.5c-0.2,0.1-0.5,0.1-0.9,0.2c0.2,0.1,0.3,0.2,0.4,0.2
			c0.8,0.3,2-0.1,2.4-0.8c0.4-0.7,0.3-1.8-0.4-2.3c-0.4-0.3-0.9-0.6-1.4-0.7c-1.7-0.4-3.4-0.3-5.1-0.1c-0.8,0.1-1.6,0.4-2.3,0.9
			c-1.3,0.9-1.8,2.2-1.6,3.9c0.5-0.3,0.9-0.6,1.3-0.9c-0.2,0.5-0.4,1-0.7,1.4c-0.2,0.3-0.2,0.5,0.1,0.8c1.2,1.2,2.6,2,4.3,1.9
			c0.5,0,1.1-0.1,1.6-0.2c0,0,0.1,0.1,0.1,0.1c-0.2,0.1-0.3,0.2-0.5,0.3c0,0,0.1,0.1,0.1,0.1c0.4-0.1,0.8-0.2,1.1-0.3
			c0,0,0.1,0.1,0.1,0.1c-0.2,0.1-0.4,0.2-0.6,0.4c0.3,0.1,0.4,0.2,0.6,0.3c0.5,0.3,0.9,0.6,0.9,1.3c0,0.6-0.4,0.9-0.9,1.1
			c-1.8,0.8-3.5,0.6-5.1-0.4c-1-0.6-1.1-1.4-0.4-2.3c-0.9,0-1.7,0.8-1.9,2c-0.2,0.7,0.2,1.3,1,1.7c0.3,0.1,0.6,0.3,0.9,0.3
			c0.7,0.1,1.5,0.3,2.2,0.3c1.7,0.1,3.4,0.1,5-0.6c1.6-0.6,2.3-1.8,2.1-3.6c0-0.3-0.1-0.4-0.4-0.4C70.9,49.6,70.3,49.4,69.7,49.2z"
			/>
		<path fill="#FFFFFF" d="M193.9,40.9c-1,0-2.1,0-3.1,0c-0.9,0-1.8,0.1-2.7,0.5c0.2,0.4,0.4,0.6,0.8,0.6c0.3,0,0.6,0.1,0.9,0.2
			c0.5,0.1,0.6,0.4,0.6,0.9c0,0.2-0.1,0.5-0.2,0.7c-0.6,1.7-1.6,3.2-1.9,5c-0.2-0.2-0.4-0.4-0.6-0.7c-0.4,0.9-0.7,1.8-1,2.7
			c-0.1-0.1-0.2-0.3-0.2-0.4c-0.7-1.4-1.5-2.7-2.2-4.1c-0.1-0.2-0.4-0.4-0.6-0.5c-0.3-0.2-0.6-0.3-1-0.4c0.5-0.1,0.9-0.2,1.3-0.3
			c-0.4-0.6-0.7-1.1-1.1-1.7c0.6-0.4,1.2-0.8,1.8-1.2c-0.2-0.1-0.3-0.1-0.3-0.1c-2-0.2-3.9-0.3-5.9-0.1c-0.3,0-0.4,0-0.6-0.3
			c-0.3-0.3-0.6-0.6-1-0.7c-1.3-0.4-2.9-0.2-3.8,1.3c-0.2,0.3-0.4,0.6-0.6,0.9c-0.1,0.1-0.2,0.3-0.3,0.4c-0.1-0.3-0.1-0.5-0.1-0.8
			c0-0.8-0.3-1.4-1-1.9c-0.2-0.1-0.3-0.2-0.5,0c-0.9,0.8-1.9,1.5-2.8,2.3c-0.3,0.3-0.6,0.7-0.9,1.1c0,0,0.1,0.1,0.1,0.1
			c0.7-0.4,1.3-0.8,2.1-1.3c0,0.1,0.1,0.1,0.2,0.2c0.1,0.5,0.4,0.9,0.3,1.4c-0.1,2.4-0.3,4.8-0.5,7.1c0,0.4-0.2,0.6-0.5,0.7
			c-0.4,0.1-0.8,0.3-1.3,0.5c-0.5,0.2-0.5,0.2-0.4,0.8c2.8,0,5.6,0,8.4,0c0.2-0.5,0.1-0.7-0.4-0.8c-0.5-0.2-1-0.2-1.6-0.4
			c-0.8-0.2-0.9-0.3-1-1.1c-0.1-1.5-0.1-2.9-0.2-4.4c-0.1-1.5,0.7-2.7,1.8-3.7c0.6-0.5,1.4-0.7,2.2-0.6c0.4,0,0.7,0.1,0.8,0.5
			c0.1,0.4,0.1,0.7-0.2,1c-0.2,0.2-0.3,0.4-0.5,0.6c1.3,0,2-0.8,2.1-2.4c0.4,0.4,0.8,0.7,1,1.1c0.8,1.3,1.5,2.6,2.3,3.8
			c0.6,1,1.1,1.9,2,2.7c-0.2,0.1-0.4,0.1-0.6,0.2c0.6,1,1.1,1.9,1.6,2.9c0.1,0.1,0.1,0.4,0.1,0.5c-0.5,1.6-1.1,3.2-1.7,4.8
			c-0.2,0.7-0.6,1-1.3,0.8c-1.1-0.2-2.1-0.4-3.1-0.8c-0.7-0.2-1.1-0.9-1-1.5c0.1-0.8,0.4-1.6,1.3-1.8c0.3-0.1,0.5-0.2,0.9-0.3
			c-0.3-0.1-0.5-0.3-0.7-0.3c-1.6-0.2-2.8,0.7-3,2.3c-0.1,0.4-0.2,0.8-0.2,1.2c-0.5-0.1-0.9-0.2-1.4-0.2c-3.9-0.8-7.9-1.5-11.9-1.7
			c-2.7-0.2-5.3,0.1-8,0.4c-2.5,0.3-4.9,0.7-7.4,1.1c-2.2,0.4-4.4,0.7-6.6,1.2c-1.4,0.3-2.8,0.6-4.3,0.4c-0.7-0.1-1.5-0.2-2-0.8
			c-0.3-0.3-0.3-0.9-0.1-1.3c0.2-0.4,0.5-0.4,0.9-0.4c0.3,0,0.5,0.1,0.9,0.2c-0.4-0.5-0.9-0.6-1.4-0.5c-0.6,0.1-1.1,0.4-1.2,1
			c-0.3,1.4-0.3,1.9,0.8,2.7c0.1,0,0.1,0.1,0.2,0.2c-0.6,0.2-1.2,0.4-1.8,0.5c-1.2,0.3-2.5,0.5-3.7,0.7c-2,0.4-4,0.7-6,0.5
			c-0.8,0-1.7-0.2-2.4-0.5c-1.7-0.7-2.1-2.6-1.2-4.2c0.1-0.1,0.1-0.4,0.1-0.5c-0.1-0.4-0.9-0.9-1.4-0.9c-0.8,0.1-1.7,0.9-1.6,1.7
			c0.1,1.3,0.3,2.5,1.3,3.4c0.8,0.7,1.8,1.4,2.7,2c0.5,0.3,1,0.5,1.5,0.7c1.8,0.6,3.6,0.6,5.5,0.2c2.4-0.6,4.7-1.2,7-1.8
			c3.7-0.9,7.5-1.7,11.3-2.3c3-0.5,6-1,9-1.1c3.9-0.1,7.8-0.1,11.7,0c2.5,0.1,5,0.3,7.4,0.6c2.2,0.3,4.3,0.9,6.4,1.7
			c0.6,0.2,1.2,0.2,1.8,0.1c1-0.2,1.7-0.7,2.5-1.3c0.7-0.5,1.2-1.1,1.5-1.8c0.3-0.6,0.4-1.2,0.2-1.8c0-0.1,0-0.3,0.1-0.4
			c0.2-0.3,0.4-0.6,0.7-0.8c0.3-0.2,0.4-0.5,0.4-0.8c0-0.4,0.1-0.7,0.2-1.1c0.2,0.1,0.2,0.2,0.3,0.2c0.1,0,0.1,0.1,0.1,0.1
			c0.7-2.3,1.9-4.4,3-6.5c1.1-2.1,2.2-4.2,4-6C194.6,41.2,194.2,40.9,193.9,40.9z"/>
		<path fill="#FFFFFF" d="M120.1,46.1c-0.9,0.2-1.7,0.3-2.4,0.5c0.5,1,0.8,1.9,1.3,2.7c0.4,0.7,0.8,1.3,1.3,1.9
			c0.1,0.2,0.4,0.2,0.6,0.3c0.8,0,1.5,0,2.3,0c0,0,0,0,0,0c-0.6,0.2-1.2,0.4-1.8,0.5c0,0.1,0.1,0.1,0.1,0.1c1.5,1,3.2,1.8,5,2
			c1.4,0.2,2.9,0.2,4.3,0.2c1.6,0,3.1,0,4.7-0.1c0.6,0,1.3-0.2,1.9-0.4c0.5-0.2,0.7-0.5,0.5-1c-0.2-0.7-0.4-1.3-0.7-1.9
			c-0.3-0.8-0.7-1.6-1-2.5c-0.2-0.7-0.1-1.4,0.5-1.9c0.4-0.3,0.7-0.5,1.1-0.8c0.4-0.2,0.7-0.5,1.1-0.7c0,0,0-0.1-0.1-0.1
			c-0.1,0-0.2,0-0.2,0c-1.1,0-2.3,0-3.4,0c-1.7-0.1-3.3-0.2-5-0.3c-2-0.1-3.1,1.9-2.6,3.2c0.3-0.4,0.5-0.8,0.9-1.2
			c0.9-0.8,1.9-1,3.1-0.8c0.6,0.1,0.9,0.4,1,1c-0.2-0.1-0.5-0.2-0.8-0.3c0.1,0.9,0.1,1.6,0.2,2.5c0.6-0.5,1.1-0.8,1.6-1.2
			c0,0,0.1,0.1,0.1,0.1c-0.3,0.3-0.6,0.7-1,1c-0.4,0.3-0.4,0.7-0.5,1.1c0,0.2,0.2,0.4,0.4,0.5c0.2,0.3,0.4,0.5,0.6,0.8
			c0.1,0.1,0.1,0.2,0,0.4c-0.2,0.5-0.5,0.9-1.1,0.9c-0.7,0-1.4,0.1-2.1,0.1c-3.6-0.2-5.7-2-6.7-5.2c-0.8-2.5-0.6-5.1,0.3-7.5
			c0.7-2.1,2.2-3.3,4.4-3.6c1.6-0.2,3.2,0,4.9,0.2c1.7,0.2,2.8,1.1,3.6,2.6c0.3,0.5,0.5,1,0.7,1.5c0.1,0.1,0.1,0.2,0.2,0.3
			c0.1,0,0.1,0,0.2,0c-0.4-1.6-0.7-3.3-1.1-4.9c-0.1-0.3-0.2-0.4-0.5-0.6c-3.7-1.7-7.5-2-11.3-0.9c-3.1,0.9-5.4,2.9-6.4,6
			c-0.4,1.2-0.6,2.5-0.6,3.8c0.3,0.1,0.5,0.1,0.9,0.2c-0.5,0.2-0.8,0.4-1.2,0.5C118.3,45.6,119.2,45.8,120.1,46.1z"/>
		<path fill="#FFFFFF" d="M150.4,48c0.1,2.7,1.4,4.5,3.8,5.5c1.9,0.8,3.9,0.9,6,0.5c3.3-0.5,5.3-2.9,5.4-6.1c0-0.4-0.1-0.5-0.5-0.5
			c-0.2,0-0.4,0-0.7,0c0,0,0-0.1-0.1-0.1c0.3-0.3,0.7-0.6,1-0.9c0-0.1,0-0.1-0.1-0.2c-0.7,0-1.3,0-2,0c0,0,0-0.1,0-0.1
			c0.6-0.3,1.2-0.6,1.8-1c-0.4-0.8-1-1.5-1.7-2c-3-2.4-7.9-2.1-10.6-0.3c-0.5,0.3-0.9,0.9-1.3,1.3c-0.2,0.2-0.2,0.4,0,0.5
			c0.2,0.2,0.4,0.4,0.6,0.8c-0.6,0-1,0.1-1.5,0.1c0.3,0.5,0.6,1,0.9,1.5c-0.3,0.2-0.6,0.4-0.9,0.5C150.4,47.6,150.4,47.7,150.4,48z
			 M154.6,50.5c-0.7-1.5-1.1-3.1-0.9-4.8c0.2-1.5,1-2.5,2.5-2.8c1.6-0.3,3.2-0.1,4.4,1.1c0.7,0.7,1.2,1.7,1.4,2.7
			c0.1,0.4,0.3,0.6,0.6,0.8c0.4,0.2,0.8,0.5,1.3,0.7c-0.6,0-1-0.1-1.5-0.1c0,0.1,0,0.2,0,0.3c0,0.6,0,1.1-0.1,1.7
			c-0.3,1.7-1.3,2.6-3,2.8c-1.3,0.1-2.6-0.1-3.8-0.7c-0.9-0.4-1.7-0.9-2.6-1.4c0.6,0.1,1.2,0.1,1.8,0.2
			C154.7,50.7,154.6,50.6,154.6,50.5z"/>
		<path fill="#FFFFFF" d="M142.5,52.8c-0.6,0.1-1.2,0.3-1.9,0.5c0.3,0.2,0.3,0.7,0.8,0.7c1.5,0,2.9,0,4.4,0c1.2,0,2.3-0.2,3.5-0.3
			c0-0.1,0-0.1,0-0.2c-0.5-0.4-1.1-0.5-1.7-0.7c-0.4-0.1-0.6-0.3-0.7-0.6c-0.1-0.6-0.2-1.2-0.2-1.9c0-1.2-0.2-2.4-0.6-3.5
			c0-0.1-0.1-0.2-0.1-0.4c0.2,0.1,0.4,0.2,0.6,0.4c0.1-0.6,0.1-1.1,0.2-1.6c0-0.4,0-0.8-0.3-1c-0.2-0.2-0.2-0.4-0.1-0.6
			c0.4-0.7,0.4-1.4,0.4-2.2c-0.1-2.2-0.1-4.5-0.1-6.7c0-0.1,0-0.2,0-0.5c-0.3,0.4-0.6,0.8-0.9,1.2c0-0.4,0-0.8,0-1.3
			c-1.7,1.3-3.7,2-4.9,3.8c0.4-0.2,0.8-0.5,1.2-0.7c0.3-0.2,0.8,0,0.9,0.3c0.1,0.2,0.2,0.4,0.2,0.6c0.3,1.1,0.5,2.2,0.8,3.2
			c-0.2-0.2-0.4-0.4-0.7-0.6c0,0.2,0,0.3,0,0.3c0,2.8,0.1,5.7,0,8.5c0,0.8-0.1,1.6-0.2,2.4C143.1,52.4,143,52.7,142.5,52.8z"/>
	</g>
	<g>
		<path fill="#FFFFFF" d="M112.5,10.9L113.8,0L111,1.4L98.1,14.8L80.8,32.1l-0.2,3.5l-2.3,2.1l-0.6,15.4L77.5,54l-1.7,20.7l-1.1,7.2
			l1,4.7l9.3-9.5l0.8-1.8l7.7-5.8l0-1l8.6-7l2.8-2.4l2.5-4.8l1.7-1.5l0.8-12.7l-0.9-2l2.4-10.8l-0.9-2l2.8-11.5L112.5,10.9z
			 M80.9,40.8l0.8-2.1l2.5-4.9l0.9-2.3l7.5-3.4l5.9-5.7l-0.5,12.9l2.9,3.1l4.9-1.4l1.8-0.2l-1.8,0.7l-5.1,2.2l-3.8-5.4l0.6-8.8
			l-4.8,3.5c0,0-7.1,2.6-7.5,2.3L82,41.3l-0.8,1.2l1.2,2.9l-0.1,5.7l-0.7-2.5l-0.5-1.6l0-1.3l-0.5-1.4l-0.5-2.7L80.9,40.8z
			 M105.1,46.3c-0.1,0-0.2,0-0.3,0l-0.2,0c-0.2,0-0.5,0-0.7-0.1l-0.6-0.1l0.8-0.3c0.2-0.1,0.4-0.1,0.5-0.2c0.5-0.2,0.8-0.5,0.8-0.9
			c0-0.4-0.4-0.6-0.9-0.9c-1.2-0.6-2.4-0.5-3.7,0.2c-1.2,0.6-2.2,1.5-3,2.5c-0.2,0.3-0.4,0.5-0.6,0.8l-0.1,0.1
			c-0.3,0.3-0.6,0.7-0.8,1c-0.3,0.4-0.3,0.4,0,0.9l0.2,0.3c0.3,0.4,0.7,0.8,1.1,1.2c0.1,0.1,0.3,0.1,0.4,0.1h0.1c0.1,0,0.1,0,0.2,0
			c0,0,0,0,0.1,0c0.3,0,0.6,0.1,0.7,0.1c0.1,0,0.1,0,0.2,0.1l0.3,0.1l-0.4,0.4c-0.1,0.1-0.2,0.2-0.4,0.3c-0.4,0.2-0.8,0.4-1.2,0.6
			c-0.6,0.3-1.2,0.6-1.8,1c-0.3,0.2-0.5,0.4-0.8,0.6L94.9,54c-0.1,0.1-0.2,0.1-0.2,0.2l-0.9,0.7l0.2-0.6c0.1-0.2,0.1-0.4,0.2-0.5
			c0.1-0.4,0.3-0.7,0.3-1c0-0.3-0.1-0.6-0.3-0.9l0,0c0-0.1-0.1-0.1-0.1-0.2c-1,1-2,1.7-3.1,1.9c-1.3,0.3-2.7,0.3-4.1,0
			c-0.9-0.2-1.6-0.7-2.1-1.3c-0.3-0.5-0.6-1.1-0.6-1.6c-0.2-1.7,0.4-3.3,1.6-4.6c0.5-0.5,1.2-0.9,1.8-1.3c0.4-0.2,0.6-0.4,0.9-0.5
			c0.1-0.1,0.2-0.1,0.3-0.2l-0.2-0.3c-0.2-0.3-0.4-0.5-0.6-0.7c-0.7-0.8-0.9-1.8-1-2.6c0-0.1,0-0.2-0.1-0.3
			c-0.1-0.4-0.1-0.8-0.1-1.2c0.1-0.7,0.3-1.8,1.2-2.5c1.2-0.9,2.5-1.4,3.9-1.4c0.1,0,0.2,0,0.3,0c1.9,0.1,3.3,1,3.9,2.6
			c0.1,0.3,0.1,1,0.1,1.2c-0.1,0.7-0.7,2.9-2.4,4.4c-0.3,0.3-0.7,0.5-1,0.7l-0.1,0.1c-0.1,0.1-0.2,0.1-0.2,0.2
			c0.1,0.5,0.4,0.9,0.7,1.2c0.1,0.2,0.3,0.3,0.4,0.5c0.4,0.4,0.8,0.9,1.2,1.4c0.1,0.1,0.2,0.2,0.3,0.3c0,0,0.1,0,0.3-0.2
			c0.5-0.5,0.9-1,1.2-1.5l0.3-0.4c0.8-1.1,2-2.4,3.5-3c1.5-0.6,3.5-1.1,5.5,0.1c0.1,0,1,0.6,1.2,1.7c0,0.2,0,0.3,0,0.4
			c0,0.2,0,0.3-0.1,0.5c-0.1,0.1-0.1,0.3-0.2,0.4C106.3,46,105.8,46.3,105.1,46.3z M78.5,79l-0.6-5l2.3-12.5l0.3-6.6l1-2.8l-0.5,2.7
			l0.5,6.4l2.4,2.8l-2.4-1.9l-2.8,11.4l-0.2,4.2L78.5,79z M84.6,72.2l-0.6,3l-1.3-1.5L79.4,75c0.3-0.1,3.5-1.9,3.5-1.9l0.7,0.2
			l0.3-1.5l1.5-2l7.7-5.4l-7.4,6L84.6,72.2z M102.2,54.2l-0.8,1.3l-1.4-0.5l-6,8.2l-0.2,2.2l-0.1-3.2l-1.4-2.5l2.1,1.6l5.2-7
			l2.4-0.6l2.8-3.3L102.2,54.2z M107,12.9l-1,1.4l-6.8,7.3l13.9-20.2L107,12.9z"/>
		<path fill="#FFFFFF" d="M89.1,45.5c-0.2,0.1-0.5,0.3-0.7,0.4c-0.8,0.5-1.2,1.2-1.2,2c0,0.8,0.1,1.9,0.9,2.8
			c0.4,0.5,0.9,0.6,1.4,0.4c0.2-0.1,0.4-0.1,0.6,0c0.1,0,0.2,0.1,0.3,0.1c0.5,0,0.9-0.3,1.2-0.7c0.2-0.3,0.4-0.5,0.7-0.9v0l0.1-0.1
			c0.1-0.1,0.1-0.2,0.2-0.3l-2.8-4.1L89.1,45.5z"/>
		<path fill="#FFFFFF" d="M90.6,41.9c0.1,0.1,0.4,0.5,0.8,0.6c0,0,0.1-0.1,0.3-0.2c0.1-0.1,0.2-0.1,0.3-0.1l0,0
			c0.9-0.4,1.6-1.1,1.9-2.1c0.4-1.1,0.3-2-0.4-2.6c-0.6-0.6-1.4-0.7-2.4-0.7l-0.3,0h0c-0.1,0-0.1,0-0.2,0c-0.6,0-1.1,0.2-1.3,0.6
			c-0.2,0.3-0.3,0.6-0.3,1.1c0.1,0.7,0.3,1.3,0.6,2C89.8,40.9,90.2,41.4,90.6,41.9z"/>
	</g>
</g>
</svg>
