<?xml version="1.0" encoding="utf-8"?>
<!-- Generator: Adobe Illustrator 20.0.0, SVG Export Plug-In . SVG Version: 6.00 Build 0)  -->
<svg version="1.1" id="Layer_1" xmlns="http://www.w3.org/2000/svg" xmlns:xlink="http://www.w3.org/1999/xlink" x="0px" y="0px"
	 width="550px" height="313px" viewBox="0 0 550 313" enable-background="new 0 0 550 313" xml:space="preserve">
<g id="WG_x5F_WG_x5F_Shop_x5F_Vitrina_x5F_MainVersion_x5F_Simplified_x5F_IndexColor_4_">
	<path id="WG_x5F_WG_x5F_Shop_x5F_Vitrina_x5F_MainVersion_x5F_Simplified_x5F_IndexColor_5_" fill="#FFFFFF" d="M352.8,204v-12.6
		h-10.6V204H334v-32.8h8.2v12.7h10.6v-12.7h8.2V204H352.8z M374.3,171h11.6c4.3,0,7.7,3.2,7.7,7.5c0,3.7,0,14.6,0,18.1
		c0,4.3-3.4,7.7-7.7,7.7h-11.6c-4.3,0-7.7-3.4-7.7-7.7c0-3.5,0-14.4,0-18.1C366.6,174.2,370,171,374.3,171z M374.8,194.2
		c0,1.4,1.1,2.5,2.4,2.5c0.1,0,1.8,0,5.8,0c1.4,0,2.3-1,2.3-2.5c0-3.1,0-10.1,0-13.1c0-1.4-0.9-2.6-2.3-2.6h-5.8
		c-1.4,0-2.5,1.2-2.5,2.6C374.8,184,374.8,191,374.8,194.2z M306,188.3c1.6,1.4,3.9,2.4,6,2.6l7.8,0.7c2.3,0.2,2.3,2,2.3,2.2v0.2
		c0,1.5-0.9,2.3-2,2.3h-15.9v7.6h16.7c5,0,9-4,9-9v-1.7c0-2.7-1.3-4.9-2.9-6.4c-1.6-1.4-3.6-2.4-5.7-2.6l-8.6-0.8v0
		c-1-0.1-1.8-0.9-1.8-2.5c0-1.5,0.9-2.3,2-2.3h15.9v-7.4H312c-5,0-9,4-9,9v1.7C303,184.6,304.4,186.8,306,188.3z M229.1,89
		l62.2,17.6l-11.8,40.9l-18.3-3.4l-3.7,79.9h-98.7l-3.7-79.9l-18.3,3.4L125,106.6L187.3,89c0,0,6.2,10.6,20.9,10.6
		C223.1,99.6,229.1,89,229.1,89z M208.2,107.7c-10.7,0-19.8-3.9-24-9.4L135,112.2l7.5,26.1l20.2-3.8l2.5,52.6
		c5.3-19.2,14.2-35,31.2-44.9c-2.6-1.3-7.2-3-10.2-3.8c12.6-4.1,23.1-5.4,34.5-6.5c-2.6,5.4-8.1,21.5-9.6,28.1
		c-2.7-6.4-5.7-9.9-5.7-9.9c-11.5,20.2-10.8,40.9-3.9,59.6c14.8-8.6,27.7-22.1,27.3-42.9c0,0-3.8,1.4-9.3,4.3
		c3-10.6,5.3-18.9,7-26.6c5.5,4.6,15,14.2,19.7,20.4c-2.5-0.1-6.3,0-8.9,0.2c3.5,4.9,9.1,16.5,13.5,28.9l2.7-59.4l20.2,3.8l7.5-26.1
		l-49.1-13.9C228,103.8,218.9,107.7,208.2,107.7z M402.1,119.3H425v-12.8h-23.7c-14.7,0-23.1,9.7-23.1,24v9.9
		c0,13.4,9.3,22.9,21.9,22.9h10.8c6.8,0,10.7-1.9,14-4.3l0.1-0.1v-30.5h-21.9v12.8h8.2v8.4c-1.1,0.5-2.3,0.6-3.7,0.6h-5.9
		c-7.6,0-9.5-5.2-9.5-11.1v-10.9C392.1,123.2,395.4,119.3,402.1,119.3z M395.6,214.2l-1,4h2L395.6,214.2z M332.2,163l7.4-27.7
		L347,163h14.5l15.2-56.4h-15.4l-7,26l-7-26h-15.4l-7,26l-7-26h-15.4l15.2,56.4H332.2z M334.1,219.5l0-1.4c0-0.1-0.1-0.3-0.2-0.4
		c-0.1-0.1-0.2-0.2-0.4-0.2h-2.2v2.6h2.2c0.1,0,0.3-0.1,0.4-0.2C334.1,219.8,334.1,219.7,334.1,219.5z M425,178.7c0,3.7,0,6.5,0,10
		c0,4.3-3.4,7.7-7.7,7.7h-10v2.3v5.3h-8.2v-32.8h8.2v0h10C421.6,171.2,425,174.4,425,178.7z M416.8,181.3c0-1.4-0.9-2.6-2.3-2.6
		h-7.2v9.8v0.3c0.8,0,4.6,0,7.2,0c1.4,0,2.3-1,2.3-2.5C416.8,183.2,416.8,184.2,416.8,181.3z M334,216c0.1-0.1,0.2-0.3,0.2-0.5l0-1
		c0-0.2-0.1-0.3-0.2-0.5c-0.1-0.1-0.3-0.2-0.4-0.2h-2.1v2.3l2.2,0C333.8,216.2,333.9,216.1,334,216z M363.9,216.5
		c0.1-0.1,0.2-0.3,0.2-0.4l0-1.5c0-0.2-0.1-0.3-0.2-0.5c-0.1-0.1-0.3-0.2-0.4-0.2h-2.1v2.8l2.1,0
		C363.7,216.7,363.8,216.6,363.9,216.5z M304,209.6h121v14.4H304V209.6z M392.1,221.5h1.7l0.5-1.9h2.7l0.5,1.9c0.6,0,1.1,0,1.7,0
		l-2.5-9c-0.7,0-1.3,0-2,0L392.1,221.5z M381,221.5h1.5v-3.8h3v3.8h1.5v-9h-1.5v3.8h-3v-3.8H381V221.5z M369.8,221.5h1.4l3.1-5.7
		l0.1,0v5.7h1.5v-9h-1.3l-3.1,5.7l0,0v-5.7h-1.5V221.5z M359.8,221.5l1.6,0v-3.4l2.4,0c0.3,0,0.8-0.1,1.2-0.4
		c0.4-0.3,0.7-0.7,0.7-1.4l0-1.9c0-0.7-0.3-1.1-0.7-1.4c-0.4-0.3-0.8-0.4-1.2-0.4l-3.9,0V221.5z M349.5,213.9h2.3v7.6
		c0.5,0,1,0,1.6,0v-7.6h2.3c0-0.5,0-0.9,0-1.4h-6.1C349.5,212.9,349.5,213.4,349.5,213.9z M339.6,221.5h1.4l3.1-5.7l0.1,0v5.7h1.5
		v-9h-1.3l-3.1,5.7l0,0v-5.7h-1.5V221.5z M329.8,221.5l3.9,0c1,0,1.9-0.8,1.9-1.8v-1.4c0-0.8-0.4-1.2-0.7-1.4
		c0.3-0.2,0.7-0.6,0.7-1.4l0-1.1c0-0.7-0.3-1.1-0.7-1.4c-0.4-0.3-0.8-0.4-1.2-0.4l-3.9,0V221.5z"/>
</g>
</svg>
