<?xml version="1.0" encoding="utf-8"?>
<!-- Generator: Adobe Illustrator 18.0.0, SVG Export Plug-In . SVG Version: 6.00 Build 0)  -->
<!DOCTYPE svg PUBLIC "-//W3C//DTD SVG 1.1//EN" "http://www.w3.org/Graphics/SVG/1.1/DTD/svg11.dtd">
<svg width="141px" height="115px" version="1.1" id="Layer_1" xmlns="http://www.w3.org/2000/svg" xmlns:xlink="http://www.w3.org/1999/xlink" x="0px" y="0px"
	 viewBox="0 0 141 115" enable-background="new 0 0 141 115" xml:space="preserve">
<g>
	<path fill="#FFFFFF" d="M92.7,51l-1.5-41H78.5l-0.2-2.9c0-0.1,0-2.8-2-4.9C74.8,0.8,72.7,0,69.9,0c-2.7,0-4.9,0.8-6.4,2.3
		c-2.1,2.1-2,4.8-2,4.9l0.2,2.9l-13.2,0L47,51h22.9H92.7z M77.4,14.4c0.5,0,0.9-0.4,0.9-0.9v-1.3c0.7,0.3,1.5,1.2,1.5,2.1
		c0,1.2-1.3,2-2.5,2c-1.2,0-2.2-1-2.2-2.2c0-0.9,0.5-1.6,1.2-1.9v1.3C76.5,13.9,76.9,14.4,77.4,14.4z M64.9,3.5
		c1.1-1.1,2.8-1.7,5-1.7c2.2,0,3.9,0.6,5,1.7c1.5,1.5,1.5,3.5,1.5,3.6l0.2,2.9H63.6l-0.2-2.9C63.4,7.1,63.4,5,64.9,3.5z M61.5,12.1
		v1.3c0,0.5,0.4,0.9,0.9,0.9c0.5,0,0.9-0.4,0.9-0.9v-1.3c0.7,0.4,1.2,1.1,1.2,1.9c0,1.2-1,2.2-2.2,2.2c-1.2,0-2.5-0.8-2.5-2
		C59.9,13.3,60.8,12.4,61.5,12.1z M57.1,32.6c0-7,5.7-12.7,12.8-12.7c7.1,0,12.8,5.7,12.8,12.7c0,7-5.7,12.7-12.8,12.7
		C62.8,45.2,57.1,39.6,57.1,32.6z"/>
	<path fill="#FFFFFF" d="M73.5,34.1l-2.2,0.1c1.3-1.4,2.6-3.1,3.6-4.9c1.1,1.8,1.9,3.5,2.7,5.5c-0.7-0.2-1-0.3-1.7-0.5
		c0.1,2.6-0.2,4.9-0.8,7.2c3.1-1.8,5.1-5.1,5.1-8.9c0-5.7-4.6-10.3-10.4-10.3c-5.7,0-10.4,4.6-10.4,10.3c0,0.5,0,1,0.1,1.6
		c1.7-3.8,4.3-7.1,9.1-9c-0.4-0.3-0.8-0.7-1.1-1c2.1-0.4,4.4-0.2,6.3,0.6c-1.2,1.2-2.8,2.9-3.7,4.2l-0.4-2c-4.2,2.8-4.8,8.9-4,12.5
		C69.1,38.9,71.7,37.3,73.5,34.1z"/>
	<path fill="#FFFFFF" d="M15.9,56.6c-0.7-0.8-1.5-1.4-2.4-1.8c-0.9-0.4-2-0.7-3.2-0.7H0v28.9h5.5V71.2h4.8c1.2,0,2.2-0.2,3.2-0.7
		c0.9-0.5,1.8-1.1,2.4-1.9c0.7-0.8,1.2-1.7,1.5-2.8c0.4-1.1,0.5-2.2,0.5-3.4c0-1.1-0.2-2.2-0.5-3.3C17.1,58.2,16.6,57.3,15.9,56.6z
		 M11.4,65.8c-0.7,0.7-1.7,1.1-3.1,1.1H5.5v-8.6h2.8c1.4,0,2.4,0.4,3.1,1.1c0.7,0.7,1,1.8,1,3.1C12.4,64,12,65,11.4,65.8z"/>
	<path fill="#FFFFFF" d="M40,82c-0.3,0-0.6-0.1-0.7-0.4c-0.2-0.3-0.3-0.6-0.4-1c-0.1-0.4-0.1-1-0.2-1.5c0-0.6,0-1.2,0-1.9v-3.7
		c0-0.5-0.1-1-0.2-1.6c-0.1-0.5-0.3-1.1-0.6-1.5c-0.3-0.5-0.7-0.9-1.2-1.3c-0.5-0.4-1.2-0.6-2-0.8c1.3-0.2,2.3-0.8,3.1-1.9
		c0.8-1.1,1.2-2.7,1.2-4.9c0-1-0.2-2-0.5-2.9c-0.3-0.9-0.8-1.7-1.4-2.4c-0.6-0.7-1.4-1.2-2.3-1.6c-0.9-0.4-1.9-0.6-3-0.6H20.4v28.9
		h5.5V70.7h4c0.6,0,1.2,0.1,1.6,0.3c0.4,0.2,0.7,0.5,1,0.9c0.3,0.4,0.4,0.8,0.5,1.3c0.1,0.5,0.2,1,0.2,1.6v3.3
		c0,0.9,0.1,1.8,0.3,2.7c0.2,0.9,0.5,1.5,1.1,2H40V82z M33.1,64.4c-0.2,0.5-0.5,1-0.9,1.3c-0.4,0.3-0.8,0.5-1.2,0.7
		c-0.5,0.1-0.9,0.2-1.4,0.2h-3.7v-8.2h3.6c1.2,0,2.2,0.3,2.9,0.8c0.7,0.5,1.1,1.6,1.1,3.2C33.4,63.2,33.3,63.9,33.1,64.4z"/>
	<polygon fill="#FFFFFF" points="56.9,78.5 46.9,78.5 46.9,69.6 56,69.6 56,65.2 46.9,65.2 46.9,58.5 56.9,58.5 56.9,54.1
		41.4,54.1 41.4,82.9 56.9,82.9 	"/>
	<polygon fill="#FFFFFF" points="79,56.8 79,82.9 84.2,82.9 84.2,54.1 75.4,54.1 71.6,72.8 67.7,54.1 58.9,54.1 58.9,82.9
		64.1,82.9 64.1,56.8 64.1,56.8 69.6,82.9 73.5,82.9 79,56.8 	"/>
	<rect x="86.8" y="54.1" fill="#FFFFFF" width="5.5" height="28.9"/>
	<path fill="#FFFFFF" d="M104,83.4c3.2,0,5.5-0.7,7-2.2c1.4-1.5,2.2-3.5,2.2-6.1V54.1h-5.5v20.3c0,1.6-0.3,2.8-0.8,3.6
		c-0.5,0.7-1.5,1.1-2.8,1.1c-1.3,0-2.2-0.4-2.8-1.1c-0.6-0.8-0.9-1.9-0.9-3.5V54.1h-5.5v21.1c0,2.7,0.7,4.7,2.2,6.1
		C98.5,82.7,100.8,83.4,104,83.4z"/>
	<polygon fill="#FFFFFF" points="132.2,54.1 128.4,72.8 124.5,54.1 115.8,54.1 115.8,82.9 120.9,82.9 120.9,56.8 120.9,56.8
		126.4,82.9 130.3,82.9 135.8,56.8 135.9,56.8 135.9,82.9 141,82.9 141,54.1 	"/>
	<path fill="#FFFFFF" d="M51.3,102c-0.4-0.6-0.9-1.2-1.6-1.7c-0.6-0.5-1.3-1-2-1.5l-5.6-3.7c-0.6-0.4-1-0.8-1.4-1.3
		c-0.3-0.5-0.5-1.1-0.5-2c0-0.8,0.3-1.4,0.9-1.8c0.6-0.4,1.3-0.6,2-0.6c1.1,0,1.9,0.4,2.5,1.1c0.6,0.8,0.9,2,0.9,3.8v0.3h5.2v-0.9
		c0-2.9-0.7-5.1-2.2-6.6c-1.5-1.5-3.6-2.2-6.3-2.2c-1.3,0-2.4,0.2-3.4,0.5c-1,0.3-1.9,0.8-2.7,1.5c-0.8,0.6-1.3,1.4-1.8,2.3
		c-0.4,0.9-0.6,2-0.6,3.2c0,3.1,1.4,5.6,4.3,7.4l4.9,3.2c1,0.7,1.8,1.3,2.3,2c0.5,0.6,0.7,1.4,0.7,2.4c0,0.9-0.3,1.7-0.8,2.3
		c-0.6,0.6-1.4,0.9-2.4,0.9c-0.5,0-1-0.1-1.5-0.2c-0.5-0.1-0.9-0.4-1.3-0.8c-0.4-0.4-0.7-0.9-0.9-1.6c-0.2-0.7-0.3-1.5-0.3-2.5v-1.1
		h-5.2v1.1c0,3,0.8,5.3,2.3,7s3.9,2.5,6.9,2.5c2.9,0,5.1-0.7,6.6-2.1c1.5-1.4,2.3-3.4,2.3-6c0-1.1-0.1-2-0.3-2.8
		C52.1,103.3,51.8,102.6,51.3,102z"/>
	<polygon fill="#FFFFFF" points="67.3,96.6 60.1,96.6 60.1,85.5 54.6,85.5 54.6,114.3 60.1,114.3 60.1,101 67.3,101 67.3,114.3
		72.8,114.3 72.8,85.5 67.3,85.5 	"/>
	<path fill="#FFFFFF" d="M91.4,87.1c-0.8-0.8-1.8-1.3-2.9-1.7c-1.1-0.3-2.4-0.5-3.8-0.5c-1.4,0-2.6,0.2-3.8,0.5
		c-1.2,0.3-2.2,0.9-3,1.7C77,88,76.4,89,75.9,90.2c-0.5,1.3-0.7,2.8-0.7,4.6v10.5c0,1.8,0.2,3.3,0.7,4.6c0.5,1.2,1.1,2.2,1.9,3
		c0.8,0.8,1.8,1.3,3,1.6c1.2,0.3,2.4,0.5,3.8,0.5c1.4,0,2.7-0.2,3.8-0.5c1.1-0.3,2.1-0.9,2.9-1.6c0.8-0.8,1.4-1.8,1.9-3
		c0.4-1.2,0.7-2.8,0.7-4.6V94.8c0-1.8-0.2-3.4-0.7-4.6C92.8,88.9,92.2,87.9,91.4,87.1z M88.3,106c0,1.5-0.3,2.7-0.9,3.5
		c-0.6,0.8-1.5,1.2-2.7,1.2c-1.3,0-2.3-0.4-2.9-1.2c-0.6-0.8-0.9-1.9-0.9-3.5V94.2c0-1.5,0.3-2.7,0.9-3.6c0.6-0.8,1.6-1.3,2.9-1.3
		c1.2,0,2.1,0.4,2.7,1.3c0.6,0.9,0.9,2.1,0.9,3.6V106z"/>
	<path fill="#FFFFFF" d="M112.2,87.9c-0.7-0.8-1.5-1.4-2.4-1.8c-0.9-0.4-2-0.7-3.2-0.7H96.3v28.9h5.5v-11.7h4.8
		c1.2,0,2.2-0.2,3.2-0.7c0.9-0.5,1.8-1.1,2.4-1.9c0.7-0.8,1.2-1.7,1.5-2.8c0.4-1.1,0.5-2.2,0.5-3.4c0-1.1-0.2-2.2-0.5-3.3
		C113.4,89.6,112.9,88.7,112.2,87.9z M107.7,97.2c-0.7,0.7-1.7,1.1-3.1,1.1h-2.8v-8.6h2.8c1.4,0,2.4,0.4,3.1,1.1
		c0.7,0.7,1,1.8,1,3.1C108.7,95.4,108.3,96.4,107.7,97.2z"/>
</g>
</svg>
