<?xml version="1.0" encoding="utf-8"?>
<!-- Generator: Adobe Illustrator 22.1.0, SVG Export Plug-In . SVG Version: 6.00 Build 0)  -->
<svg version="1.1" id="PS_x5F_Logo" xmlns="http://www.w3.org/2000/svg" xmlns:xlink="http://www.w3.org/1999/xlink" x="0px"
	 y="0px" width="117px" height="119px" viewBox="0 0 117 119" style="enable-background:new 0 0 117 119;" xml:space="preserve">
<style type="text/css">
	.st0{fill:#FFFFFF;}
</style>
<path id="group" class="st0" d="M9.9,69.4c1.6,0,2.9,0.1,3.9,0.4c1,0.3,1.9,0.7,2.6,1.4c0.7,0.7,1.2,1.6,1.6,2.7
	c0.3,1.1,0.5,2.5,0.5,4.2c0,1.5-0.2,2.9-0.5,4c-0.4,1.1-0.9,2-1.5,2.7c-0.5,0.5-0.9,0.8-1.2,1.1c-0.4,0.3-0.8,0.4-1.4,0.6
	c-0.5,0.1-1.1,0.2-1.7,0.2c-0.6,0-1.2,0-1.9,0H9.9H6.5v11.5h-6V69.4H9.9z M8.4,82c0.8,0,1.5-0.1,2-0.2c0.6-0.1,1-0.3,1.3-0.6
	c0.3-0.3,0.6-0.7,0.7-1.3c0.2-0.5,0.2-1.2,0.2-2.1c0-1.6-0.3-2.6-0.9-3.2c-0.6-0.5-1.6-0.8-2.9-0.8H6.4V82C6.4,82,8.4,82,8.4,82z
	 M20.6,69.4h6v23.7h8.7v5.1H20.6V69.4z M44.7,69.4h7.6l7.9,28.8h-6l-1.7-6.4h-8.4l-1.7,6.4h-5.8L44.7,69.4z M48.4,74.9l-3.2,12.5
	h6.2L48.4,74.9z M64.1,87.3l-7.5-17.9h6.6l4.1,12l4.6-12h6.2l-8.1,17.9v10.8h-6.1C64.1,98.2,64.1,87.3,64.1,87.3z M80.2,69.4h15.4
	v4.4H86v6.9h8.9v4.4H86v8.4h10v4.6H80.2V69.4z M98.1,69.4h8.5c1.6,0,3,0.1,4.2,0.3c1.1,0.2,2.1,0.6,2.8,1.1c0.7,0.5,1.2,1.3,1.6,2.3
	c0.3,1,0.5,2.2,0.5,3.7c0,2.1-0.3,3.7-0.9,4.9c-0.6,1.1-1.7,1.9-3.3,2.3c1,0.2,1.8,0.5,2.3,0.8c0.6,0.3,1,0.8,1.3,1.3
	c0.3,0.5,0.5,1.2,0.6,2c0.1,0.8,0.1,1.7,0.1,2.8c0,0.2,0,0.5,0,0.7c0,0.2,0,0.5,0,0.7c0,1.1,0.1,2.2,0.2,3.2c0.1,1,0.3,1.9,0.6,2.8
	h-6.2c-0.3-0.9-0.4-2-0.4-3.3c0-1.3,0-2.9-0.1-4.6c-0.1-1.4-0.3-2.4-0.8-3c-0.5-0.6-1.3-0.9-2.5-0.9h-2.5v11.9h-6L98.1,69.4
	L98.1,69.4z M105.5,81.8c1.5,0,2.6-0.3,3.3-0.9c0.7-0.6,1-1.7,1-3.2c0-0.8-0.1-1.4-0.2-1.9c-0.1-0.5-0.4-0.9-0.7-1.2
	c-0.3-0.3-0.7-0.5-1.3-0.6c-0.5-0.1-1.2-0.2-2-0.2h-1.6v7.9L105.5,81.8C105.5,81.8,105.5,81.8,105.5,81.8z M21.8,114.9v0.3
	c0,0.5,0.1,0.8,0.2,1.1c0.2,0.2,0.4,0.3,0.8,0.3c0.3,0,0.5-0.1,0.7-0.3c0.2-0.2,0.3-0.4,0.3-0.8c0-0.2,0-0.3-0.1-0.5
	c-0.1-0.1-0.2-0.3-0.3-0.4c-0.1-0.1-0.3-0.2-0.4-0.4c-0.2-0.1-0.4-0.2-0.6-0.4c-0.4-0.3-0.7-0.5-1-0.7c-0.3-0.2-0.5-0.4-0.6-0.5
	c-0.3-0.3-0.5-0.6-0.7-0.9c-0.1-0.3-0.2-0.6-0.2-1.1c0-0.4,0.1-0.8,0.2-1.1c0.1-0.3,0.3-0.6,0.6-0.8c0.3-0.2,0.6-0.4,0.9-0.5
	c0.4-0.1,0.8-0.2,1.2-0.2c1.9,0,2.8,0.9,2.8,2.6v0.3h-1.9v-0.1c0-0.9-0.3-1.4-0.9-1.4c-0.3,0-0.5,0.1-0.7,0.3
	c-0.2,0.2-0.3,0.4-0.3,0.7c0,0.2,0.1,0.4,0.2,0.6c0.1,0.2,0.3,0.3,0.5,0.5c0.2,0.2,0.4,0.3,0.7,0.5c0.3,0.2,0.6,0.4,0.9,0.6
	c0.3,0.2,0.5,0.4,0.7,0.5c0.2,0.2,0.4,0.4,0.5,0.6c0.1,0.2,0.2,0.4,0.3,0.6c0.1,0.2,0.1,0.5,0.1,0.8c0,1.9-1,2.8-3.1,2.8
	c-1,0-1.7-0.2-2.2-0.7s-0.7-1.2-0.7-2.1c0-0.1,0-0.1,0-0.2c0-0.1,0-0.1,0-0.2L21.8,114.9C21.8,114.9,21.8,114.9,21.8,114.9z
	 M31.7,108.2h1.9v5.8c0,0.4,0,0.8,0,1.1c0,0.3,0.1,0.6,0.2,0.8c0.1,0.2,0.2,0.4,0.4,0.5c0.2,0.1,0.4,0.2,0.7,0.2
	c0.3,0,0.5-0.1,0.6-0.2c0.2-0.1,0.3-0.3,0.4-0.5c0.1-0.2,0.1-0.5,0.2-0.8c0-0.3,0-0.7,0-1.1v-5.8H38v6c0,0.6-0.1,1.2-0.2,1.7
	c-0.1,0.5-0.3,0.9-0.5,1.2c-0.2,0.3-0.6,0.5-1,0.7c-0.4,0.1-0.9,0.2-1.5,0.2c-1.1,0-1.9-0.3-2.4-0.9c-0.5-0.6-0.8-1.4-0.8-2.6
	L31.7,108.2L31.7,108.2z M47.3,108.2c0.5,0,1,0,1.3,0.1c0.3,0.1,0.6,0.2,0.8,0.5c0.2,0.2,0.4,0.5,0.5,0.9c0.1,0.4,0.2,0.8,0.2,1.4
	c0,0.5-0.1,1-0.2,1.3s-0.3,0.7-0.5,0.9c-0.1,0.2-0.3,0.3-0.4,0.4c-0.1,0.1-0.3,0.1-0.4,0.2c-0.2,0-0.4,0.1-0.6,0.1
	c-0.2,0-0.4,0-0.6,0h-0.1h-1.1v3.9h-1.9v-9.6H47.3z M46.8,112.4c0.3,0,0.5,0,0.7-0.1c0.2,0,0.3-0.1,0.4-0.2c0.1-0.1,0.2-0.2,0.2-0.4
	c0.1-0.2,0.1-0.4,0.1-0.7c0-0.5-0.1-0.9-0.3-1.1c-0.2-0.2-0.5-0.3-1-0.3h-0.8v2.7L46.8,112.4L46.8,112.4z M59,108.2
	c0.5,0,1,0,1.3,0.1c0.3,0.1,0.6,0.2,0.8,0.5c0.2,0.2,0.4,0.5,0.5,0.9c0.1,0.4,0.2,0.8,0.2,1.4c0,0.5-0.1,1-0.2,1.3
	c-0.1,0.4-0.3,0.7-0.5,0.9c-0.1,0.2-0.3,0.3-0.4,0.4c-0.1,0.1-0.3,0.1-0.4,0.2c-0.2,0-0.4,0.1-0.6,0.1c-0.2,0-0.4,0-0.6,0H59h-1.1
	v3.9h-1.9v-9.6H59z M58.5,112.4c0.3,0,0.5,0,0.7-0.1c0.2,0,0.3-0.1,0.4-0.2c0.1-0.1,0.2-0.2,0.2-0.4c0.1-0.2,0.1-0.4,0.1-0.7
	c0-0.5-0.1-0.9-0.3-1.1c-0.2-0.2-0.5-0.3-1-0.3h-0.8v2.7L58.5,112.4L58.5,112.4z M70.6,118c-0.5,0-0.9-0.1-1.2-0.2
	c-0.4-0.1-0.6-0.3-0.9-0.5c-0.2-0.2-0.4-0.4-0.5-0.7s-0.2-0.6-0.3-1c-0.1-0.4-0.1-0.8-0.2-1.2c0-0.5,0-1,0-1.5c0-0.9,0-1.6,0.1-2.2
	c0.1-0.6,0.3-1.1,0.5-1.5c0.2-0.4,0.5-0.6,1-0.8c0.4-0.2,0.9-0.3,1.5-0.3c0.5,0,0.9,0.1,1.2,0.2c0.4,0.1,0.7,0.3,0.9,0.5
	c0.2,0.2,0.4,0.4,0.5,0.7c0.1,0.3,0.2,0.6,0.3,0.9c0.1,0.3,0.1,0.7,0.2,1.1c0,0.4,0,0.9,0,1.3c0,0.5,0,0.9,0,1.3
	c0,0.4,0,0.8-0.1,1.1c0,0.3-0.1,0.6-0.2,0.9c-0.1,0.3-0.2,0.5-0.3,0.8c-0.2,0.3-0.6,0.6-1,0.8C71.7,117.9,71.2,118,70.6,118z
	 M69.4,113c0,0.6,0,1.1,0,1.5c0,0.4,0.1,0.8,0.2,1.1c0.1,0.3,0.2,0.5,0.4,0.6c0.2,0.1,0.4,0.2,0.6,0.2c0.3,0,0.5-0.1,0.7-0.2
	c0.2-0.1,0.3-0.4,0.4-0.7s0.1-0.7,0.2-1.1c0-0.4,0-1,0-1.6c0-0.6,0-1.1,0-1.5c0-0.4-0.1-0.8-0.2-1c-0.1-0.3-0.2-0.5-0.4-0.6
	c-0.2-0.1-0.4-0.2-0.6-0.2c-0.3,0-0.5,0.1-0.6,0.2c-0.2,0.1-0.3,0.3-0.4,0.6c-0.1,0.3-0.1,0.6-0.2,1.1
	C69.4,111.9,69.4,112.4,69.4,113z M79.8,108.2h2.8c0.5,0,1,0,1.4,0.1c0.4,0.1,0.7,0.2,0.9,0.4c0.2,0.2,0.4,0.4,0.5,0.8
	c0.1,0.3,0.2,0.7,0.2,1.2c0,0.7-0.1,1.2-0.3,1.6c-0.2,0.4-0.6,0.6-1.1,0.8c0.3,0.1,0.6,0.2,0.8,0.3c0.2,0.1,0.3,0.3,0.4,0.4
	c0.1,0.2,0.2,0.4,0.2,0.7c0,0.3,0,0.6,0,0.9c0,0.1,0,0.2,0,0.2c0,0.1,0,0.2,0,0.2c0,0.4,0,0.7,0.1,1.1c0,0.3,0.1,0.6,0.2,0.9h-2
	c-0.1-0.3-0.1-0.7-0.1-1.1c0-0.4,0-1,0-1.5c0-0.5-0.1-0.8-0.3-1c-0.2-0.2-0.4-0.3-0.8-0.3h-0.8v4h-2V108.2z M82.2,112.4
	c0.5,0,0.9-0.1,1.1-0.3c0.2-0.2,0.3-0.6,0.3-1.1c0-0.3,0-0.5-0.1-0.6c0-0.2-0.1-0.3-0.2-0.4c-0.1-0.1-0.2-0.2-0.4-0.2
	c-0.2,0-0.4-0.1-0.6-0.1h-0.5v2.7C81.7,112.4,82.2,112.4,82.2,112.4z M93,109.8h-2.1v-1.6h6.3v1.6H95v8h-2L93,109.8L93,109.8z
	 M66,13.8c-0.4,0.4-4.9,4.9-4.9,4.9l1.2,1.2c1.4,1.4,1.5,3.5,0.2,5.6c0.7,0.7,2.5,0.2,3.4-0.7c1.5-1.5,5.5-5.5,5.5-5.5
	c2.8-2.8,8,0.9,11-2.1c2.5-2.5,3.3-6.5,2.5-9.8c-0.2-1-0.5-0.5-0.5-0.5L79.8,12l-3.6,0l-3-3V5.4l5.2-4.6c0,0,0.5-0.3-0.5-0.5
	c-3.3-0.8-7.2-0.1-9.8,2.5C65.1,5.8,68.9,11,66,13.8z M50.5,40.2c0,0,4.1-4.1,5.5-5.5c0.9-0.9,1.5-2.7,0.7-3.4
	c-2,1.3-4.1,1.3-5.6-0.2L50,29.9c0,0-4.5,4.5-4.9,4.9c-2.8,2.8-8.1-1-11.1,2.1c-2.5,2.5-3.3,6.5-2.5,9.8c0.2,1,0.5,0.5,0.5,0.5
	l4.6-5.2h3.6l3,3l0,3.6l-5.2,4.6c0,0-0.5,0.3,0.5,0.5c3.3,0.8,7.2,0.1,9.8-2.5C51.4,48.2,47.6,43,50.5,40.2z M85.8,49.2L64.4,27.8
	c-1.3,0.8-2.7,0.3-3.8-0.8c-0.3-0.3-0.6-0.7-0.7-1.1c0.8-0.9,2.1-2.9,0.7-4.3l-1.2-1.2c0,0-1.7,1.3-3.3-0.3c-1.6-1.6,0-3.6,0-3.6
	l-1.8-1.8c-3.8-2.1-7-4.6-9-6.6c-5.3-5.3-7.5-8.1-7.5-8.1s-2.4,0-4.5,2.1c-2.1,2.1-2.1,4.5-2.1,4.5s2.8,2.2,8.1,7.5
	c2,2,4.5,5.2,6.6,9l1.8,1.8c0,0,2-1.6,3.6,0c1.6,1.6,0.3,3.3,0.3,3.3l1.2,1.2c1.4,1.4,3.4,0.1,4.3-0.7c0.4,0.2,0.8,0.4,1.1,0.7
	c1.1,1.1,1.6,2.5,0.8,3.8l21.3,21.3l2.7-2.7L85.8,49.2z"/>
</svg>
