<?xml version="1.0" encoding="utf-8"?>
<!-- Generator: Adobe Illustrator 18.1.0, SVG Export Plug-In . SVG Version: 6.00 Build 0)  -->
<svg version="1.1" id="Layer_1" xmlns="http://www.w3.org/2000/svg" xmlns:xlink="http://www.w3.org/1999/xlink" x="0px" y="0px"
	 width="106px" height="110px" viewBox="-893 474 106 110" enable-background="new -893 474 106 110" xml:space="preserve">
<path id="WoWS_x5F_Blitz_x5F_Logo_x5F_Simplified_x5F_WhiteR_2_" fill-rule="evenodd" clip-rule="evenodd" fill="#FFFFFF" d="
	M-820.3,512.4c0-0.2-0.1-0.3-0.3-0.3h-0.8c-0.1,0-0.3,0.1-0.3,0.3v7.9c0,0.1,0.1,0.3,0.3,0.3h0.8c0.1,0,0.3-0.1,0.3-0.3V512.4z
	 M-817.5,512.5v7.7c0,1.6-1.7,2.4-2.4,2.4h-2c-0.7,0-2.4-0.8-2.4-2.4v-7.7c0-1.6,1.7-2.4,2.4-2.4h2
	C-819.2,510.1-817.5,510.9-817.5,512.5z M-816.5,522.7v-12.6h5.9v2.3h-3.2v2.8h2.5v2.3h-2.5v5.1H-816.5z M-872.4,524.8h-3.4
	l-1.1,10.4l-1.1-10.4h-3.7l1.8,16.9h5l0.9-8l0.9,8h5l1.8-16.9h-3.7l-1.1,10.4L-872.4,524.8z M-861.2,528l-0.7,6.7h1.4L-861.2,528z
	 M-856.1,541.7h-3.6l-0.4-4.1h-2.1l-0.4,4.1h-3.7l1.8-16.9h6.6L-856.1,541.7z M-798.3,528.1c0-1.8-1.5-3.3-3.3-3.3h-2.6
	c-1.8,0-3.3,1.5-3.3,3.3v2.3c0,0.7,0.4,1.4,1,1.8l4.2,2.9c0.2,0.1,0.3,0.4,0.3,0.6v2.9c0,0.2-0.2,0.4-0.4,0.4h-1.1
	c-0.2,0-0.4-0.2-0.4-0.4V536l-3.7,0.7v1.6c0,1.8,1.5,3.3,3.3,3.3h2.6c1.8,0,3.3-1.5,3.3-3.3v-3.4c0-0.7-0.4-1.4-1-1.8l-4.2-2.9
	c-0.2-0.1-0.3-0.4-0.3-0.6V528c0-0.2,0.2-0.4,0.4-0.4h1.1c0.2,0,0.4,0.2,0.4,0.4v1.5l3.7-0.7V528.1z M-849.7,528
	c0-0.2-0.2-0.4-0.4-0.4h-1.5v4.4h1.5c0.2,0,0.4-0.2,0.4-0.4V528z M-845.8,541.7h-3.7l-1.2-7h-0.8v7h-3.7v-16.9h5.9
	c1,0,3.3,1.1,3.3,3.3v3.3c0,1-0.5,1.8-1.2,2.4L-845.8,541.7z M-812.3,532.9V528c0-0.2-0.2-0.4-0.4-0.4h-1.5v5.6h1.5
	C-812.5,533.2-812.3,533.1-812.3,532.9z M-808.6,532.7c0,2.2-2.3,3.3-3.3,3.3h-2.2v5.7h-3.7v-16.9h5.9c1,0,3.3,1.1,3.3,3.3V532.7z
	 M-838.9,524.8h-2.6c-1.8,0-3.3,1.5-3.3,3.3v2.3c0,0.7,0.4,1.4,1,1.8l4.2,2.9c0.2,0.1,0.3,0.4,0.3,0.6v2.9c0,0.2-0.2,0.4-0.4,0.4
	h-1.1c-0.2,0-0.4-0.2-0.4-0.4V536l-3.7,0.7v1.6c0,1.8,1.5,3.3,3.3,3.3h2.6c1.8,0,3.3-1.5,3.3-3.3v-3.4c0-0.7-0.4-1.4-1-1.8l-4.2-2.9
	c-0.2-0.1-0.3-0.4-0.3-0.6V528c0-0.2,0.2-0.4,0.4-0.4h1.1c0.2,0,0.4,0.2,0.4,0.4v1.5l3.7-0.7v-0.6
	C-835.6,526.3-837,524.8-838.9,524.8z M-828.9,532h-1.8v-7.1h-3.7v16.9h3.7v-7h1.8v7h3.7v-16.9h-3.7V532z M-819.7,541.7v-16.9h-3.7
	v16.9H-819.7z M-840,584l-5.1-1.1v-39h10.3c0,11.1,0,30,0,39L-840,584z M-787,573v-8.7l-11.4,2.4l9.7-14h1.7v-8.7h-20.4v8.7h8.5
	l-10.7,16.4l0,8.7L-787,573z M-815.9,579v-26.4h6.3v-8.7h-23.1v8.7h6.5v28.5L-815.9,579z M-877.4,557.7l-3.4-0.2v-6.1h3.5
	c0.5,0,1.3,0.7,1.3,1.8c0,0,0,2.6,0,2.7C-875.9,557-876.8,557.7-877.4,557.7z M-877.3,568.6l-3.5-0.8l0-6.7l3.4,0.4
	c0.8,0.1,1.5,0.9,1.5,2.2l0,3.2C-875.9,568.3-876.8,568.7-877.3,568.6z M-866.9,573.5V564c0-3.2-2.3-4.6-2.3-4.6s2.3-1.1,2.3-4.4
	v-5.5c0-2.9-1.5-5.6-4.7-5.6H-893v8.7h3.2v12.3l-3.2-0.7l0,8.7l21.8,4.5C-868.9,578-866.9,576.4-866.9,573.5z M-847.3,572.8
	l-6.9-1.4l0-27.5h-10.3l0,35l17.1,3.6V572.8z M-852.7,510.1h-2c-0.7,0-2.4,0.8-2.4,2.4v7.7c0,1.6,1.7,2.5,2.4,2.5h2
	c0.7,0,2.5-0.9,2.5-2.5v-7.7C-850.2,510.9-852,510.1-852.7,510.1z M-853,520.3c0,0.1-0.1,0.3-0.3,0.3h-0.8c-0.2,0-0.3-0.1-0.3-0.3
	v-7.9c0-0.2,0.1-0.3,0.3-0.3h0.8c0.1,0,0.3,0.1,0.3,0.3V520.3z M-860.5,510.1h2.7l-1.3,12.6h-3.7l-0.6-6l-0.6,6h-3.7l-1.3-12.6h2.8
	l0.8,7.8l0.8-7.8h2.5l0.8,7.8L-860.5,510.1z M-838.7,520.3h2.8v2.4h-5.4v-7.4l1.3,0.8l1.3-0.8V520.3z M-830,510.3l-5.1,2.9v9.5h4.4
	c0.7,0,2.4-0.9,2.4-2.5v-7.7C-828.2,511.3-829.2,510.6-830,510.3z M-831,520.3c0,0.1-0.1,0.3-0.2,0.3h-1.1v-8.5h1.1
	c0.1,0,0.2,0.1,0.2,0.3V520.3z M-843.3,516.8l1,5.9h-2.7l-0.9-5.2h-0.6v5.2h-2.7v-12l2.7,1.6v3.1h1.1c0.1,0,0.3-0.1,0.3-0.3v-2
	l2.7,1.6v0.3C-842.4,515.7-842.8,516.3-843.3,516.8z M-840,510.2l-11.6-6.7v-12.9l5.4,3.1v6.5l3.3,1.9v-11.6h-1.2l-4.7-2.7v-2.9h5.9
	v-1.8l-2.8-2.4v-3.1h11.5v3.1l-2.8,2.4v1.8h5.9v2.9l-4.7,2.7h-1.2v11.6l3.3-1.9v-6.5l5.4-3.1v12.9L-840,510.2z M-840,512.3l13.4-7.7
	v-25.4l-5.9-3.4h-15l-5.9,3.4v25.4L-840,512.3z M-840,514.4l-15.2-8.7v-27.5l7.2-4.2h16l7.2,4.2v27.5L-840,514.4z"/>
</svg>
