<svg width="506" height="291" viewBox="0 0 506 291" fill="none" xmlns="http://www.w3.org/2000/svg">
<line x1="9.5" y1="20" x2="9.49999" y2="280" stroke="url(#paint0_linear)"/>
<line x1="15.5" y1="1.63709e-08" x2="15.5" y2="260" stroke="url(#paint1_linear)"/>
<line x1="21.5" y1="1.63709e-08" x2="21.5" y2="260" stroke="url(#paint2_linear)"/>
<line x1="26.5" y1="1.63709e-08" x2="26.5" y2="260" stroke="url(#paint3_linear)"/>
<line x1="32.5" y1="1.63709e-08" x2="32.5" y2="260" stroke="url(#paint4_linear)"/>
<line x1="38.5" y1="1.63709e-08" x2="38.5" y2="260" stroke="url(#paint5_linear)"/>
<line x1="43.5" y1="1.63709e-08" x2="43.5" y2="260" stroke="url(#paint6_linear)"/>
<line x1="49.5" y1="1.63709e-08" x2="49.5" y2="260" stroke="url(#paint7_linear)"/>
<line x1="55.5" y1="1.63709e-08" x2="55.5" y2="260" stroke="url(#paint8_linear)"/>
<line x1="60.5" y1="1.63709e-08" x2="60.5" y2="260" stroke="url(#paint9_linear)"/>
<line x1="66.5" y1="1.63709e-08" x2="66.5" y2="260" stroke="url(#paint10_linear)"/>
<line x1="72.5" y1="1.63709e-08" x2="72.5" y2="260" stroke="url(#paint11_linear)"/>
<line x1="78.5" y1="1.63709e-08" x2="78.5" y2="260" stroke="url(#paint12_linear)"/>
<line x1="83.5" y1="1.63709e-08" x2="83.5" y2="260" stroke="url(#paint13_linear)"/>
<line x1="89.5" y1="1.63709e-08" x2="89.5" y2="260" stroke="url(#paint14_linear)"/>
<line x1="95.5" y1="1.63709e-08" x2="95.5" y2="260" stroke="url(#paint15_linear)"/>
<line x1="100.5" y1="1.63709e-08" x2="100.5" y2="260" stroke="url(#paint16_linear)"/>
<line x1="106.5" y1="1.63709e-08" x2="106.5" y2="260" stroke="url(#paint17_linear)"/>
<line x1="112.5" y1="1.63709e-08" x2="112.5" y2="260" stroke="url(#paint18_linear)"/>
<line x1="117.5" y1="1.63709e-08" x2="117.5" y2="260" stroke="url(#paint19_linear)"/>
<line x1="123.5" y1="1.63709e-08" x2="123.5" y2="260" stroke="url(#paint20_linear)"/>
<line x1="129.5" y1="1.63709e-08" x2="129.5" y2="260" stroke="url(#paint21_linear)"/>
<line x1="134.5" y1="1.63709e-08" x2="134.5" y2="260" stroke="url(#paint22_linear)"/>
<line x1="140.5" y1="1.63709e-08" x2="140.5" y2="260" stroke="url(#paint23_linear)"/>
<line x1="146.5" y1="1.63709e-08" x2="146.5" y2="260" stroke="url(#paint24_linear)"/>
<line x1="152.5" y1="1.63709e-08" x2="152.5" y2="260" stroke="url(#paint25_linear)"/>
<line x1="157.5" y1="1.63709e-08" x2="157.5" y2="260" stroke="url(#paint26_linear)"/>
<line x1="163.5" y1="1.63709e-08" x2="163.5" y2="260" stroke="url(#paint27_linear)"/>
<line x1="169.5" y1="1.63709e-08" x2="169.5" y2="260" stroke="url(#paint28_linear)"/>
<line x1="174.5" y1="1.63709e-08" x2="174.5" y2="260" stroke="url(#paint29_linear)"/>
<line x1="180.5" y1="1.63709e-08" x2="180.5" y2="260" stroke="url(#paint30_linear)"/>
<line x1="186.5" y1="1.63709e-08" x2="186.5" y2="260" stroke="url(#paint31_linear)"/>
<line x1="191.5" y1="1.63709e-08" x2="191.5" y2="260" stroke="url(#paint32_linear)"/>
<line x1="197.5" y1="1.63709e-08" x2="197.5" y2="260" stroke="url(#paint33_linear)"/>
<line x1="203.5" y1="1.63709e-08" x2="203.5" y2="260" stroke="url(#paint34_linear)"/>
<line x1="208.5" y1="1.63709e-08" x2="208.5" y2="260" stroke="url(#paint35_linear)"/>
<line x1="214.5" y1="1.63709e-08" x2="214.5" y2="260" stroke="url(#paint36_linear)"/>
<line x1="220.5" y1="1.63709e-08" x2="220.5" y2="260" stroke="url(#paint37_linear)"/>
<line x1="226.5" y1="1.63709e-08" x2="226.5" y2="260" stroke="url(#paint38_linear)"/>
<line x1="231.5" y1="1.63709e-08" x2="231.5" y2="260" stroke="url(#paint39_linear)"/>
<line x1="237.5" y1="1.63709e-08" x2="237.5" y2="260" stroke="url(#paint40_linear)"/>
<line x1="243.5" y1="1.63709e-08" x2="243.5" y2="260" stroke="url(#paint41_linear)"/>
<line x1="248.5" y1="1.63709e-08" x2="248.5" y2="260" stroke="url(#paint42_linear)"/>
<line x1="254.5" y1="1.63709e-08" x2="254.5" y2="260" stroke="url(#paint43_linear)"/>
<line x1="260.5" y1="1.63709e-08" x2="260.5" y2="260" stroke="url(#paint44_linear)"/>
<line x1="265.5" y1="1.63709e-08" x2="265.5" y2="260" stroke="url(#paint45_linear)"/>
<line x1="271.5" y1="1.63709e-08" x2="271.5" y2="260" stroke="url(#paint46_linear)"/>
<line x1="277.5" y1="1.63709e-08" x2="277.5" y2="260" stroke="url(#paint47_linear)"/>
<line x1="282.5" y1="1.63709e-08" x2="282.5" y2="260" stroke="url(#paint48_linear)"/>
<line x1="288.5" y1="1.63709e-08" x2="288.5" y2="260" stroke="url(#paint49_linear)"/>
<line x1="294.5" y1="1.63709e-08" x2="294.5" y2="260" stroke="url(#paint50_linear)"/>
<line x1="300.5" y1="1.63709e-08" x2="300.5" y2="260" stroke="url(#paint51_linear)"/>
<line x1="305.5" y1="1.63709e-08" x2="305.5" y2="260" stroke="url(#paint52_linear)"/>
<line x1="311.5" y1="1.63709e-08" x2="311.5" y2="260" stroke="url(#paint53_linear)"/>
<line x1="317.5" y1="1.63709e-08" x2="317.5" y2="260" stroke="url(#paint54_linear)"/>
<line x1="322.5" y1="1.63709e-08" x2="322.5" y2="260" stroke="url(#paint55_linear)"/>
<line x1="328.5" y1="1.63709e-08" x2="328.5" y2="260" stroke="url(#paint56_linear)"/>
<line x1="334.5" y1="1.63709e-08" x2="334.5" y2="260" stroke="url(#paint57_linear)"/>
<line x1="339.5" y1="1.63709e-08" x2="339.5" y2="260" stroke="url(#paint58_linear)"/>
<line x1="345.5" y1="1.63709e-08" x2="345.5" y2="260" stroke="url(#paint59_linear)"/>
<line x1="351.5" y1="1.63709e-08" x2="351.5" y2="260" stroke="url(#paint60_linear)"/>
<line x1="356.5" y1="1.63709e-08" x2="356.5" y2="260" stroke="url(#paint61_linear)"/>
<line x1="362.5" y1="1.63709e-08" x2="362.5" y2="260" stroke="url(#paint62_linear)"/>
<line x1="368.5" y1="1.63709e-08" x2="368.5" y2="260" stroke="url(#paint63_linear)"/>
<line x1="374.5" y1="1.63709e-08" x2="374.5" y2="260" stroke="url(#paint64_linear)"/>
<line x1="379.5" y1="1.63709e-08" x2="379.5" y2="260" stroke="url(#paint65_linear)"/>
<line x1="385.5" y1="1.63709e-08" x2="385.5" y2="260" stroke="url(#paint66_linear)"/>
<line x1="391.5" y1="1.63709e-08" x2="391.5" y2="260" stroke="url(#paint67_linear)"/>
<line x1="396.5" y1="1.63709e-08" x2="396.5" y2="260" stroke="url(#paint68_linear)"/>
<line x1="402.5" y1="1.63709e-08" x2="402.5" y2="260" stroke="url(#paint69_linear)"/>
<line x1="408.5" y1="1.63709e-08" x2="408.5" y2="260" stroke="url(#paint70_linear)"/>
<line x1="413.5" y1="1.63709e-08" x2="413.5" y2="260" stroke="url(#paint71_linear)"/>
<line x1="419.5" y1="1.63709e-08" x2="419.5" y2="260" stroke="url(#paint72_linear)"/>
<line x1="425.5" y1="1.63709e-08" x2="425.5" y2="260" stroke="url(#paint73_linear)"/>
<line x1="430.5" y1="1.63709e-08" x2="430.5" y2="260" stroke="url(#paint74_linear)"/>
<line x1="436.5" y1="1.63709e-08" x2="436.5" y2="260" stroke="url(#paint75_linear)"/>
<line x1="442.5" y1="1.63709e-08" x2="442.5" y2="260" stroke="url(#paint76_linear)"/>
<line x1="448.5" y1="1.63709e-08" x2="448.5" y2="260" stroke="url(#paint77_linear)"/>
<line x1="453.5" y1="1.63709e-08" x2="453.5" y2="260" stroke="url(#paint78_linear)"/>
<line x1="459.5" y1="1.63709e-08" x2="459.5" y2="260" stroke="url(#paint79_linear)"/>
<line x1="465.5" y1="1.63709e-08" x2="465.5" y2="260" stroke="url(#paint80_linear)"/>
<line x1="470.5" y1="1.63709e-08" x2="470.5" y2="260" stroke="url(#paint81_linear)"/>
<line x1="476.5" y1="1.63709e-08" x2="476.5" y2="260" stroke="url(#paint82_linear)"/>
<line x1="491.546" y1="2.03199e-08" x2="491.546" y2="260.053" stroke="url(#paint83_linear)"/>
<line x1="496.132" y1="2.03199e-08" x2="496.132" y2="260.053" stroke="url(#paint84_linear)"/>
<line x1="500.717" y1="2.03199e-08" x2="500.717" y2="260.053" stroke="url(#paint85_linear)"/>
<line x1="505.303" y1="2.03199e-08" x2="505.303" y2="260.053" stroke="url(#paint86_linear)"/>
<path d="M0.54 281.579H5.94V280.811H1.62L4.152 278.351C5.28 277.259 5.94 276.443 5.94 275.519C5.94 274.139 4.884 273.095 3.24 273.095C1.596 273.095 0.54 274.139 0.54 275.519H1.404C1.404 274.583 2.112 273.887 3.24 273.887C4.368 273.887 5.076 274.583 5.076 275.519C5.076 276.251 4.548 276.827 3.516 277.859L0.54 280.811V281.579ZM10.2577 281.663C11.9257 281.663 13.0177 280.571 13.0177 277.763V276.995C13.0177 274.163 11.9377 273.095 10.2577 273.095C8.58966 273.095 7.49766 274.187 7.49766 276.995V277.763C7.49766 280.595 8.57766 281.663 10.2577 281.663ZM10.2577 280.871C9.10566 280.871 8.36166 280.127 8.36166 277.763V276.995C8.36166 274.619 9.09366 273.887 10.2577 273.887C11.4097 273.887 12.1537 274.631 12.1537 276.995V277.763C12.1537 280.139 11.4217 280.871 10.2577 280.871ZM14.2819 275.351L16.0819 274.127V281.579H16.9219V273.179H16.0819L14.2819 274.415V275.351ZM21.5972 281.663C23.1932 281.663 24.3572 280.499 24.3572 277.403V276.635C24.3572 274.175 23.2772 273.095 21.5972 273.095C20.0732 273.095 18.9572 274.211 18.9572 275.795V276.083C18.9572 277.667 20.0732 278.783 21.5372 278.783C22.3892 278.783 23.0972 278.423 23.5292 277.811C23.4692 280.139 22.7132 280.859 21.5972 280.859C20.7692 280.859 20.3372 280.427 20.0972 279.839H19.2092C19.4492 280.847 20.2652 281.663 21.5972 281.663ZM21.5972 277.991C20.5532 277.991 19.8212 277.259 19.8212 276.083V275.795C19.8212 274.619 20.5532 273.887 21.5972 273.887C22.7612 273.887 23.4932 274.619 23.4932 275.915V276.287C23.4572 277.295 22.7252 277.991 21.5972 277.991Z" fill="#979797"/>
<path d="M124.042 281.663C126.022 281.663 126.982 280.715 126.982 279.359C126.982 276.227 122.086 277.463 122.086 275.279C122.086 274.499 122.698 273.887 124.042 273.887C125.302 273.887 125.83 274.439 125.974 275.519H126.862C126.742 273.983 125.854 273.095 124.042 273.095C122.182 273.095 121.222 274.043 121.222 275.279C121.222 278.291 126.118 277.055 126.118 279.359C126.118 280.211 125.458 280.871 124.042 280.871C122.746 280.871 122.11 280.283 121.99 278.999H121.102C121.222 280.751 122.182 281.663 124.042 281.663ZM130.946 281.663C132.422 281.663 133.226 280.859 133.466 279.827H132.65C132.41 280.451 131.942 280.919 130.946 280.919C129.878 280.919 129.182 280.223 129.182 278.843V278.807H133.526V278.315C133.526 276.515 132.506 275.495 130.946 275.495C129.386 275.495 128.366 276.515 128.366 278.315V278.843C128.366 280.655 129.374 281.663 130.946 281.663ZM130.946 276.239C131.954 276.239 132.638 276.863 132.698 278.111H129.182C129.254 276.911 129.914 276.239 130.946 276.239ZM137.895 281.663C139.263 281.663 140.247 280.679 140.247 278.843V278.315C140.247 276.467 139.275 275.495 137.895 275.495C137.007 275.495 136.323 275.855 135.915 276.587L135.819 275.579H135.207V283.979H135.999V280.703C136.407 281.351 137.067 281.663 137.895 281.663ZM137.715 280.919C136.707 280.919 135.999 280.175 135.999 278.843V278.219C136.035 276.935 136.755 276.239 137.715 276.239C138.735 276.239 139.431 276.935 139.431 278.315V278.843C139.431 280.235 138.747 280.919 137.715 280.919ZM142.167 281.663C142.551 281.663 142.827 281.375 142.827 281.003C142.827 280.643 142.551 280.343 142.167 280.343C141.783 280.343 141.507 280.643 141.507 281.003C141.507 281.375 141.783 281.663 142.167 281.663Z" fill="#979797"/>
<path d="M227.826 281.663C229.83 281.663 231.306 280.187 231.306 277.763V276.995C231.306 274.547 229.842 273.095 227.826 273.095C225.822 273.095 224.346 274.571 224.346 276.995V277.763C224.346 280.211 225.81 281.663 227.826 281.663ZM227.826 280.871C226.35 280.871 225.21 279.731 225.21 277.763V276.995C225.21 275.003 226.326 273.887 227.826 273.887C229.302 273.887 230.442 275.027 230.442 276.995V277.763C230.442 279.755 229.326 280.871 227.826 280.871ZM235.326 281.663C236.658 281.663 237.426 280.895 237.666 279.839H236.826C236.586 280.511 236.178 280.919 235.326 280.919C234.318 280.919 233.562 280.163 233.562 278.843V278.315C233.562 276.983 234.306 276.239 235.326 276.239C236.178 276.239 236.586 276.647 236.826 277.199H237.666C237.426 276.263 236.658 275.495 235.326 275.495C233.802 275.495 232.746 276.551 232.746 278.315V278.843C232.746 280.619 233.79 281.663 235.326 281.663ZM238.445 276.299H239.525V279.995C239.525 281.027 240.077 281.579 241.109 281.579H242.045V280.859H241.205C240.617 280.859 240.317 280.559 240.317 279.899V276.299H241.925V275.579H240.317V273.899H239.525V275.579H238.445V276.299ZM244.332 281.663C244.716 281.663 244.992 281.375 244.992 281.003C244.992 280.643 244.716 280.343 244.332 280.343C243.948 280.343 243.672 280.643 243.672 281.003C243.672 281.375 243.948 281.663 244.332 281.663Z" fill="#979797"/>
<path d="M333.014 281.579H334.19V273.179H333.35V280.655L332.678 279.419L329.006 273.179H327.83V281.579H328.67V274.103L329.342 275.339L333.014 281.579ZM338.57 281.663C340.154 281.663 341.21 280.607 341.21 278.843V278.315C341.21 276.539 340.166 275.495 338.57 275.495C336.986 275.495 335.93 276.551 335.93 278.315V278.843C335.93 280.619 336.974 281.663 338.57 281.663ZM338.57 280.919C337.502 280.919 336.746 280.163 336.746 278.843V278.315C336.746 276.983 337.49 276.239 338.57 276.239C339.638 276.239 340.394 276.995 340.394 278.315V278.843C340.394 280.175 339.65 280.919 338.57 280.919ZM344.273 281.579H345.233L347.453 275.579H346.613L344.765 280.679L342.821 275.579H341.933L344.273 281.579ZM348.536 281.663C348.92 281.663 349.196 281.375 349.196 281.003C349.196 280.643 348.92 280.343 348.536 280.343C348.152 280.343 347.876 280.643 347.876 281.003C347.876 281.375 348.152 281.663 348.536 281.663Z" fill="#979797"/>
<path d="M442.954 281.579H445.474C447.862 281.579 449.254 280.187 449.254 277.763V276.995C449.254 274.559 447.874 273.179 445.474 273.179H442.954V281.579ZM445.474 273.947C447.334 273.947 448.39 275.003 448.39 276.995V277.763C448.39 279.779 447.358 280.811 445.474 280.811H443.794V273.947H445.474ZM453.27 281.663C454.746 281.663 455.55 280.859 455.79 279.827H454.974C454.734 280.451 454.266 280.919 453.27 280.919C452.202 280.919 451.506 280.223 451.506 278.843V278.807H455.85V278.315C455.85 276.515 454.83 275.495 453.27 275.495C451.71 275.495 450.69 276.515 450.69 278.315V278.843C450.69 280.655 451.698 281.663 453.27 281.663ZM453.27 276.239C454.278 276.239 454.962 276.863 455.022 278.111H451.506C451.578 276.911 452.238 276.239 453.27 276.239ZM459.75 281.663C461.082 281.663 461.85 280.895 462.09 279.839H461.25C461.01 280.511 460.602 280.919 459.75 280.919C458.742 280.919 457.986 280.163 457.986 278.843V278.315C457.986 276.983 458.73 276.239 459.75 276.239C460.602 276.239 461.01 276.647 461.25 277.199H462.09C461.85 276.263 461.082 275.495 459.75 275.495C458.226 275.495 457.17 276.551 457.17 278.315V278.843C457.17 280.619 458.214 281.663 459.75 281.663ZM463.834 281.663C464.218 281.663 464.494 281.375 464.494 281.003C464.494 280.643 464.218 280.343 463.834 280.343C463.45 280.343 463.174 280.643 463.174 281.003C463.174 281.375 463.45 281.663 463.834 281.663Z" fill="#979797"/>
<path opacity="0.731261" fill-rule="evenodd" clip-rule="evenodd" d="M502.694 260.053H6.61475L23.0277 223.836L40.1587 218.47L57.2896 237.92L74.4205 174.205L91.5514 187.619L108.682 195.667L125.813 128.599L142.944 109.82L160.075 103.783L177.206 91.711L194.337 164.816L211.468 88.3576L228.599 109.82L245.73 71.5905L262.861 58.1769L279.992 44.7632L297.122 58.1769L314.253 44.7632H331.384L348.515 58.1769L365.646 44.7632L382.777 58.1769L399.908 71.5905L417.039 58.1769L434.17 71.5905L451.301 85.0042L468.432 71.5905L485.563 58.1769L502.694 71.5905" fill="url(#paint87_linear)" fill-opacity="0.5"/>
<path d="M6.61475 260.053L23.0277 223.28L40.1587 217.931L57.2896 237.32L74.4205 173.803L91.5514 187.175L108.682 195.198L125.813 128.338L142.944 109.617L160.075 103.6L177.206 91.5652L194.337 164.443L211.468 88.2222L228.599 109.617L245.73 71.5072L262.861 58.1352L279.992 44.7632L297.123 58.1352L314.253 44.7632H331.384L348.515 58.1352L365.646 44.7632L382.777 58.1352L399.908 71.5072L417.039 58.1352L434.17 71.5072L451.301 84.8792L468.432 71.5072L485.563 58.1352L502.694 71.5072" stroke="#0491E0"/>
<path d="M283 46.5C283 48.2547 281.182 50 278.5 50C275.818 50 274 48.2547 274 46.5C274 44.7453 275.818 43 278.5 43C281.182 43 283 44.7453 283 46.5Z" fill="white" stroke="#0C95E2" stroke-width="2"/>
<line x1="278.5" y1="51" x2="278.5" y2="269" stroke="url(#paint88_linear)"/>
<rect x="234" y="11" width="72" height="26" rx="12" fill="url(#paint89_linear)"/>
<path d="M244.972 23.0228L246.724 21.8348V28.9868H247.852V20.5868H246.724L244.972 21.7988V23.0228ZM252.587 29.0828C254.327 29.0828 255.467 27.9548 255.467 25.1348V24.4388C255.467 21.5948 254.351 20.4908 252.587 20.4908C250.847 20.4908 249.707 21.6188 249.707 24.4388V25.1348C249.707 27.9788 250.823 29.0828 252.587 29.0828ZM252.587 28.0028C251.555 28.0028 250.883 27.3308 250.883 25.1348V24.4388C250.883 22.2188 251.531 21.5708 252.587 21.5708C253.619 21.5708 254.291 22.2428 254.291 24.4388V25.1348C254.291 27.3548 253.643 28.0028 252.587 28.0028ZM256.671 30.7868H257.523L258.471 27.7268H257.247L256.671 30.7868ZM259.491 23.0228L261.243 21.8348V28.9868H262.371V20.5868H261.243L259.491 21.7988V23.0228ZM267.107 29.0828C268.847 29.0828 269.987 27.9548 269.987 25.1348V24.4388C269.987 21.5948 268.871 20.4908 267.107 20.4908C265.367 20.4908 264.227 21.6188 264.227 24.4388V25.1348C264.227 27.9788 265.343 29.0828 267.107 29.0828ZM267.107 28.0028C266.075 28.0028 265.403 27.3308 265.403 25.1348V24.4388C265.403 22.2188 266.051 21.5708 267.107 21.5708C268.139 21.5708 268.811 22.2428 268.811 24.4388V25.1348C268.811 27.3548 268.163 28.0028 267.107 28.0028ZM274.431 29.0828C276.171 29.0828 277.311 27.9548 277.311 25.1348V24.4388C277.311 21.5948 276.195 20.4908 274.431 20.4908C272.691 20.4908 271.551 21.6188 271.551 24.4388V25.1348C271.551 27.9788 272.667 29.0828 274.431 29.0828ZM274.431 28.0028C273.399 28.0028 272.727 27.3308 272.727 25.1348V24.4388C272.727 22.2188 273.375 21.5708 274.431 21.5708C275.463 21.5708 276.135 22.2428 276.135 24.4388V25.1348C276.135 27.3548 275.487 28.0028 274.431 28.0028ZM279.595 29.0828C280.087 29.0828 280.435 28.7108 280.435 28.2428C280.435 27.7748 280.087 27.4028 279.595 27.4028C279.103 27.4028 278.755 27.7748 278.755 28.2428C278.755 28.7108 279.103 29.0828 279.595 29.0828ZM284.755 29.0828C286.495 29.0828 287.635 27.9548 287.635 25.1348V24.4388C287.635 21.5948 286.519 20.4908 284.755 20.4908C283.015 20.4908 281.875 21.6188 281.875 24.4388V25.1348C281.875 27.9788 282.991 29.0828 284.755 29.0828ZM284.755 28.0028C283.723 28.0028 283.051 27.3308 283.051 25.1348V24.4388C283.051 22.2188 283.699 21.5708 284.755 21.5708C285.787 21.5708 286.459 22.2428 286.459 24.4388V25.1348C286.459 27.3548 285.811 28.0028 284.755 28.0028ZM292.079 29.0828C293.819 29.0828 294.959 27.9548 294.959 25.1348V24.4388C294.959 21.5948 293.843 20.4908 292.079 20.4908C290.339 20.4908 289.199 21.6188 289.199 24.4388V25.1348C289.199 27.9788 290.315 29.0828 292.079 29.0828ZM292.079 28.0028C291.047 28.0028 290.375 27.3308 290.375 25.1348V24.4388C290.375 22.2188 291.023 21.5708 292.079 21.5708C293.111 21.5708 293.783 22.2428 293.783 24.4388V25.1348C293.783 27.3548 293.135 28.0028 292.079 28.0028Z" fill="white"/>
<defs>
<linearGradient id="paint0_linear" x1="8.99999" y1="150" x2="7.99999" y2="150" gradientUnits="userSpaceOnUse">
<stop stop-color="#F7F7F7"/>
<stop offset="1" stop-color="#F1F1F1" stop-opacity="0"/>
</linearGradient>
<linearGradient id="paint1_linear" x1="15" y1="130" x2="14" y2="130" gradientUnits="userSpaceOnUse">
<stop stop-color="#F7F7F7"/>
<stop offset="1" stop-color="#F1F1F1" stop-opacity="0"/>
</linearGradient>
<linearGradient id="paint2_linear" x1="21" y1="130" x2="20" y2="130" gradientUnits="userSpaceOnUse">
<stop stop-color="#F7F7F7"/>
<stop offset="1" stop-color="#F1F1F1" stop-opacity="0"/>
</linearGradient>
<linearGradient id="paint3_linear" x1="26" y1="130" x2="25" y2="130" gradientUnits="userSpaceOnUse">
<stop stop-color="#F7F7F7"/>
<stop offset="1" stop-color="#F1F1F1" stop-opacity="0"/>
</linearGradient>
<linearGradient id="paint4_linear" x1="32" y1="130" x2="31" y2="130" gradientUnits="userSpaceOnUse">
<stop stop-color="#F7F7F7"/>
<stop offset="1" stop-color="#F1F1F1" stop-opacity="0"/>
</linearGradient>
<linearGradient id="paint5_linear" x1="38" y1="130" x2="37" y2="130" gradientUnits="userSpaceOnUse">
<stop stop-color="#F7F7F7"/>
<stop offset="1" stop-color="#F1F1F1" stop-opacity="0"/>
</linearGradient>
<linearGradient id="paint6_linear" x1="43" y1="130" x2="42" y2="130" gradientUnits="userSpaceOnUse">
<stop stop-color="#F7F7F7"/>
<stop offset="1" stop-color="#F1F1F1" stop-opacity="0"/>
</linearGradient>
<linearGradient id="paint7_linear" x1="49" y1="130" x2="48" y2="130" gradientUnits="userSpaceOnUse">
<stop stop-color="#F7F7F7"/>
<stop offset="1" stop-color="#F1F1F1" stop-opacity="0"/>
</linearGradient>
<linearGradient id="paint8_linear" x1="55" y1="130" x2="54" y2="130" gradientUnits="userSpaceOnUse">
<stop stop-color="#F7F7F7"/>
<stop offset="1" stop-color="#F1F1F1" stop-opacity="0"/>
</linearGradient>
<linearGradient id="paint9_linear" x1="60" y1="130" x2="59" y2="130" gradientUnits="userSpaceOnUse">
<stop stop-color="#F7F7F7"/>
<stop offset="1" stop-color="#F1F1F1" stop-opacity="0"/>
</linearGradient>
<linearGradient id="paint10_linear" x1="66" y1="130" x2="65" y2="130" gradientUnits="userSpaceOnUse">
<stop stop-color="#F7F7F7"/>
<stop offset="1" stop-color="#F1F1F1" stop-opacity="0"/>
</linearGradient>
<linearGradient id="paint11_linear" x1="72" y1="130" x2="71" y2="130" gradientUnits="userSpaceOnUse">
<stop stop-color="#F7F7F7"/>
<stop offset="1" stop-color="#F1F1F1" stop-opacity="0"/>
</linearGradient>
<linearGradient id="paint12_linear" x1="78" y1="130" x2="77" y2="130" gradientUnits="userSpaceOnUse">
<stop stop-color="#F7F7F7"/>
<stop offset="1" stop-color="#F1F1F1" stop-opacity="0"/>
</linearGradient>
<linearGradient id="paint13_linear" x1="83" y1="130" x2="82" y2="130" gradientUnits="userSpaceOnUse">
<stop stop-color="#F7F7F7"/>
<stop offset="1" stop-color="#F1F1F1" stop-opacity="0"/>
</linearGradient>
<linearGradient id="paint14_linear" x1="89" y1="130" x2="88" y2="130" gradientUnits="userSpaceOnUse">
<stop stop-color="#F7F7F7"/>
<stop offset="1" stop-color="#F1F1F1" stop-opacity="0"/>
</linearGradient>
<linearGradient id="paint15_linear" x1="95" y1="130" x2="94" y2="130" gradientUnits="userSpaceOnUse">
<stop stop-color="#F7F7F7"/>
<stop offset="1" stop-color="#F1F1F1" stop-opacity="0"/>
</linearGradient>
<linearGradient id="paint16_linear" x1="100" y1="130" x2="99" y2="130" gradientUnits="userSpaceOnUse">
<stop stop-color="#F7F7F7"/>
<stop offset="1" stop-color="#F1F1F1" stop-opacity="0"/>
</linearGradient>
<linearGradient id="paint17_linear" x1="106" y1="130" x2="105" y2="130" gradientUnits="userSpaceOnUse">
<stop stop-color="#F7F7F7"/>
<stop offset="1" stop-color="#F1F1F1" stop-opacity="0"/>
</linearGradient>
<linearGradient id="paint18_linear" x1="112" y1="130" x2="111" y2="130" gradientUnits="userSpaceOnUse">
<stop stop-color="#F7F7F7"/>
<stop offset="1" stop-color="#F1F1F1" stop-opacity="0"/>
</linearGradient>
<linearGradient id="paint19_linear" x1="117" y1="130" x2="116" y2="130" gradientUnits="userSpaceOnUse">
<stop stop-color="#F7F7F7"/>
<stop offset="1" stop-color="#F1F1F1" stop-opacity="0"/>
</linearGradient>
<linearGradient id="paint20_linear" x1="123" y1="130" x2="122" y2="130" gradientUnits="userSpaceOnUse">
<stop stop-color="#F7F7F7"/>
<stop offset="1" stop-color="#F1F1F1" stop-opacity="0"/>
</linearGradient>
<linearGradient id="paint21_linear" x1="129" y1="130" x2="128" y2="130" gradientUnits="userSpaceOnUse">
<stop stop-color="#F7F7F7"/>
<stop offset="1" stop-color="#F1F1F1" stop-opacity="0"/>
</linearGradient>
<linearGradient id="paint22_linear" x1="134" y1="130" x2="133" y2="130" gradientUnits="userSpaceOnUse">
<stop stop-color="#F7F7F7"/>
<stop offset="1" stop-color="#F1F1F1" stop-opacity="0"/>
</linearGradient>
<linearGradient id="paint23_linear" x1="140" y1="130" x2="139" y2="130" gradientUnits="userSpaceOnUse">
<stop stop-color="#F7F7F7"/>
<stop offset="1" stop-color="#F1F1F1" stop-opacity="0"/>
</linearGradient>
<linearGradient id="paint24_linear" x1="146" y1="130" x2="145" y2="130" gradientUnits="userSpaceOnUse">
<stop stop-color="#F7F7F7"/>
<stop offset="1" stop-color="#F1F1F1" stop-opacity="0"/>
</linearGradient>
<linearGradient id="paint25_linear" x1="152" y1="130" x2="151" y2="130" gradientUnits="userSpaceOnUse">
<stop stop-color="#F7F7F7"/>
<stop offset="1" stop-color="#F1F1F1" stop-opacity="0"/>
</linearGradient>
<linearGradient id="paint26_linear" x1="157" y1="130" x2="156" y2="130" gradientUnits="userSpaceOnUse">
<stop stop-color="#F7F7F7"/>
<stop offset="1" stop-color="#F1F1F1" stop-opacity="0"/>
</linearGradient>
<linearGradient id="paint27_linear" x1="163" y1="130" x2="162" y2="130" gradientUnits="userSpaceOnUse">
<stop stop-color="#F7F7F7"/>
<stop offset="1" stop-color="#F1F1F1" stop-opacity="0"/>
</linearGradient>
<linearGradient id="paint28_linear" x1="169" y1="130" x2="168" y2="130" gradientUnits="userSpaceOnUse">
<stop stop-color="#F7F7F7"/>
<stop offset="1" stop-color="#F1F1F1" stop-opacity="0"/>
</linearGradient>
<linearGradient id="paint29_linear" x1="174" y1="130" x2="173" y2="130" gradientUnits="userSpaceOnUse">
<stop stop-color="#F7F7F7"/>
<stop offset="1" stop-color="#F1F1F1" stop-opacity="0"/>
</linearGradient>
<linearGradient id="paint30_linear" x1="180" y1="130" x2="179" y2="130" gradientUnits="userSpaceOnUse">
<stop stop-color="#F7F7F7"/>
<stop offset="1" stop-color="#F1F1F1" stop-opacity="0"/>
</linearGradient>
<linearGradient id="paint31_linear" x1="186" y1="130" x2="185" y2="130" gradientUnits="userSpaceOnUse">
<stop stop-color="#F7F7F7"/>
<stop offset="1" stop-color="#F1F1F1" stop-opacity="0"/>
</linearGradient>
<linearGradient id="paint32_linear" x1="191" y1="130" x2="190" y2="130" gradientUnits="userSpaceOnUse">
<stop stop-color="#F7F7F7"/>
<stop offset="1" stop-color="#F1F1F1" stop-opacity="0"/>
</linearGradient>
<linearGradient id="paint33_linear" x1="197" y1="130" x2="196" y2="130" gradientUnits="userSpaceOnUse">
<stop stop-color="#F7F7F7"/>
<stop offset="1" stop-color="#F1F1F1" stop-opacity="0"/>
</linearGradient>
<linearGradient id="paint34_linear" x1="203" y1="130" x2="202" y2="130" gradientUnits="userSpaceOnUse">
<stop stop-color="#F7F7F7"/>
<stop offset="1" stop-color="#F1F1F1" stop-opacity="0"/>
</linearGradient>
<linearGradient id="paint35_linear" x1="208" y1="130" x2="207" y2="130" gradientUnits="userSpaceOnUse">
<stop stop-color="#F7F7F7"/>
<stop offset="1" stop-color="#F1F1F1" stop-opacity="0"/>
</linearGradient>
<linearGradient id="paint36_linear" x1="214" y1="130" x2="213" y2="130" gradientUnits="userSpaceOnUse">
<stop stop-color="#F7F7F7"/>
<stop offset="1" stop-color="#F1F1F1" stop-opacity="0"/>
</linearGradient>
<linearGradient id="paint37_linear" x1="220" y1="130" x2="219" y2="130" gradientUnits="userSpaceOnUse">
<stop stop-color="#F7F7F7"/>
<stop offset="1" stop-color="#F1F1F1" stop-opacity="0"/>
</linearGradient>
<linearGradient id="paint38_linear" x1="226" y1="130" x2="225" y2="130" gradientUnits="userSpaceOnUse">
<stop stop-color="#F7F7F7"/>
<stop offset="1" stop-color="#F1F1F1" stop-opacity="0"/>
</linearGradient>
<linearGradient id="paint39_linear" x1="231" y1="130" x2="230" y2="130" gradientUnits="userSpaceOnUse">
<stop stop-color="#F7F7F7"/>
<stop offset="1" stop-color="#F1F1F1" stop-opacity="0"/>
</linearGradient>
<linearGradient id="paint40_linear" x1="237" y1="130" x2="236" y2="130" gradientUnits="userSpaceOnUse">
<stop stop-color="#F7F7F7"/>
<stop offset="1" stop-color="#F1F1F1" stop-opacity="0"/>
</linearGradient>
<linearGradient id="paint41_linear" x1="243" y1="130" x2="242" y2="130" gradientUnits="userSpaceOnUse">
<stop stop-color="#F7F7F7"/>
<stop offset="1" stop-color="#F1F1F1" stop-opacity="0"/>
</linearGradient>
<linearGradient id="paint42_linear" x1="248" y1="130" x2="247" y2="130" gradientUnits="userSpaceOnUse">
<stop stop-color="#F7F7F7"/>
<stop offset="1" stop-color="#F1F1F1" stop-opacity="0"/>
</linearGradient>
<linearGradient id="paint43_linear" x1="254" y1="130" x2="253" y2="130" gradientUnits="userSpaceOnUse">
<stop stop-color="#F7F7F7"/>
<stop offset="1" stop-color="#F1F1F1" stop-opacity="0"/>
</linearGradient>
<linearGradient id="paint44_linear" x1="260" y1="130" x2="259" y2="130" gradientUnits="userSpaceOnUse">
<stop stop-color="#F7F7F7"/>
<stop offset="1" stop-color="#F1F1F1" stop-opacity="0"/>
</linearGradient>
<linearGradient id="paint45_linear" x1="265" y1="130" x2="264" y2="130" gradientUnits="userSpaceOnUse">
<stop stop-color="#F7F7F7"/>
<stop offset="1" stop-color="#F1F1F1" stop-opacity="0"/>
</linearGradient>
<linearGradient id="paint46_linear" x1="271" y1="130" x2="270" y2="130" gradientUnits="userSpaceOnUse">
<stop stop-color="#F7F7F7"/>
<stop offset="1" stop-color="#F1F1F1" stop-opacity="0"/>
</linearGradient>
<linearGradient id="paint47_linear" x1="277" y1="130" x2="276" y2="130" gradientUnits="userSpaceOnUse">
<stop stop-color="#F7F7F7"/>
<stop offset="1" stop-color="#F1F1F1" stop-opacity="0"/>
</linearGradient>
<linearGradient id="paint48_linear" x1="282" y1="130" x2="281" y2="130" gradientUnits="userSpaceOnUse">
<stop stop-color="#F7F7F7"/>
<stop offset="1" stop-color="#F1F1F1" stop-opacity="0"/>
</linearGradient>
<linearGradient id="paint49_linear" x1="288" y1="130" x2="287" y2="130" gradientUnits="userSpaceOnUse">
<stop stop-color="#F7F7F7"/>
<stop offset="1" stop-color="#F1F1F1" stop-opacity="0"/>
</linearGradient>
<linearGradient id="paint50_linear" x1="294" y1="130" x2="293" y2="130" gradientUnits="userSpaceOnUse">
<stop stop-color="#F7F7F7"/>
<stop offset="1" stop-color="#F1F1F1" stop-opacity="0"/>
</linearGradient>
<linearGradient id="paint51_linear" x1="300" y1="130" x2="299" y2="130" gradientUnits="userSpaceOnUse">
<stop stop-color="#F7F7F7"/>
<stop offset="1" stop-color="#F1F1F1" stop-opacity="0"/>
</linearGradient>
<linearGradient id="paint52_linear" x1="305" y1="130" x2="304" y2="130" gradientUnits="userSpaceOnUse">
<stop stop-color="#F7F7F7"/>
<stop offset="1" stop-color="#F1F1F1" stop-opacity="0"/>
</linearGradient>
<linearGradient id="paint53_linear" x1="311" y1="130" x2="310" y2="130" gradientUnits="userSpaceOnUse">
<stop stop-color="#F7F7F7"/>
<stop offset="1" stop-color="#F1F1F1" stop-opacity="0"/>
</linearGradient>
<linearGradient id="paint54_linear" x1="317" y1="130" x2="316" y2="130" gradientUnits="userSpaceOnUse">
<stop stop-color="#F7F7F7"/>
<stop offset="1" stop-color="#F1F1F1" stop-opacity="0"/>
</linearGradient>
<linearGradient id="paint55_linear" x1="322" y1="130" x2="321" y2="130" gradientUnits="userSpaceOnUse">
<stop stop-color="#F7F7F7"/>
<stop offset="1" stop-color="#F1F1F1" stop-opacity="0"/>
</linearGradient>
<linearGradient id="paint56_linear" x1="328" y1="130" x2="327" y2="130" gradientUnits="userSpaceOnUse">
<stop stop-color="#F7F7F7"/>
<stop offset="1" stop-color="#F1F1F1" stop-opacity="0"/>
</linearGradient>
<linearGradient id="paint57_linear" x1="334" y1="130" x2="333" y2="130" gradientUnits="userSpaceOnUse">
<stop stop-color="#F7F7F7"/>
<stop offset="1" stop-color="#F1F1F1" stop-opacity="0"/>
</linearGradient>
<linearGradient id="paint58_linear" x1="339" y1="130" x2="338" y2="130" gradientUnits="userSpaceOnUse">
<stop stop-color="#F7F7F7"/>
<stop offset="1" stop-color="#F1F1F1" stop-opacity="0"/>
</linearGradient>
<linearGradient id="paint59_linear" x1="345" y1="130" x2="344" y2="130" gradientUnits="userSpaceOnUse">
<stop stop-color="#F7F7F7"/>
<stop offset="1" stop-color="#F1F1F1" stop-opacity="0"/>
</linearGradient>
<linearGradient id="paint60_linear" x1="351" y1="130" x2="350" y2="130" gradientUnits="userSpaceOnUse">
<stop stop-color="#F7F7F7"/>
<stop offset="1" stop-color="#F1F1F1" stop-opacity="0"/>
</linearGradient>
<linearGradient id="paint61_linear" x1="356" y1="130" x2="355" y2="130" gradientUnits="userSpaceOnUse">
<stop stop-color="#F7F7F7"/>
<stop offset="1" stop-color="#F1F1F1" stop-opacity="0"/>
</linearGradient>
<linearGradient id="paint62_linear" x1="362" y1="130" x2="361" y2="130" gradientUnits="userSpaceOnUse">
<stop stop-color="#F7F7F7"/>
<stop offset="1" stop-color="#F1F1F1" stop-opacity="0"/>
</linearGradient>
<linearGradient id="paint63_linear" x1="368" y1="130" x2="367" y2="130" gradientUnits="userSpaceOnUse">
<stop stop-color="#F7F7F7"/>
<stop offset="1" stop-color="#F1F1F1" stop-opacity="0"/>
</linearGradient>
<linearGradient id="paint64_linear" x1="374" y1="130" x2="373" y2="130" gradientUnits="userSpaceOnUse">
<stop stop-color="#F7F7F7"/>
<stop offset="1" stop-color="#F1F1F1" stop-opacity="0"/>
</linearGradient>
<linearGradient id="paint65_linear" x1="379" y1="130" x2="378" y2="130" gradientUnits="userSpaceOnUse">
<stop stop-color="#F7F7F7"/>
<stop offset="1" stop-color="#F1F1F1" stop-opacity="0"/>
</linearGradient>
<linearGradient id="paint66_linear" x1="385" y1="130" x2="384" y2="130" gradientUnits="userSpaceOnUse">
<stop stop-color="#F7F7F7"/>
<stop offset="1" stop-color="#F1F1F1" stop-opacity="0"/>
</linearGradient>
<linearGradient id="paint67_linear" x1="391" y1="130" x2="390" y2="130" gradientUnits="userSpaceOnUse">
<stop stop-color="#F7F7F7"/>
<stop offset="1" stop-color="#F1F1F1" stop-opacity="0"/>
</linearGradient>
<linearGradient id="paint68_linear" x1="396" y1="130" x2="395" y2="130" gradientUnits="userSpaceOnUse">
<stop stop-color="#F7F7F7"/>
<stop offset="1" stop-color="#F1F1F1" stop-opacity="0"/>
</linearGradient>
<linearGradient id="paint69_linear" x1="402" y1="130" x2="401" y2="130" gradientUnits="userSpaceOnUse">
<stop stop-color="#F7F7F7"/>
<stop offset="1" stop-color="#F1F1F1" stop-opacity="0"/>
</linearGradient>
<linearGradient id="paint70_linear" x1="408" y1="130" x2="407" y2="130" gradientUnits="userSpaceOnUse">
<stop stop-color="#F7F7F7"/>
<stop offset="1" stop-color="#F1F1F1" stop-opacity="0"/>
</linearGradient>
<linearGradient id="paint71_linear" x1="413" y1="130" x2="412" y2="130" gradientUnits="userSpaceOnUse">
<stop stop-color="#F7F7F7"/>
<stop offset="1" stop-color="#F1F1F1" stop-opacity="0"/>
</linearGradient>
<linearGradient id="paint72_linear" x1="419" y1="130" x2="418" y2="130" gradientUnits="userSpaceOnUse">
<stop stop-color="#F7F7F7"/>
<stop offset="1" stop-color="#F1F1F1" stop-opacity="0"/>
</linearGradient>
<linearGradient id="paint73_linear" x1="425" y1="130" x2="424" y2="130" gradientUnits="userSpaceOnUse">
<stop stop-color="#F7F7F7"/>
<stop offset="1" stop-color="#F1F1F1" stop-opacity="0"/>
</linearGradient>
<linearGradient id="paint74_linear" x1="430" y1="130" x2="429" y2="130" gradientUnits="userSpaceOnUse">
<stop stop-color="#F7F7F7"/>
<stop offset="1" stop-color="#F1F1F1" stop-opacity="0"/>
</linearGradient>
<linearGradient id="paint75_linear" x1="436" y1="130" x2="435" y2="130" gradientUnits="userSpaceOnUse">
<stop stop-color="#F7F7F7"/>
<stop offset="1" stop-color="#F1F1F1" stop-opacity="0"/>
</linearGradient>
<linearGradient id="paint76_linear" x1="442" y1="130" x2="441" y2="130" gradientUnits="userSpaceOnUse">
<stop stop-color="#F7F7F7"/>
<stop offset="1" stop-color="#F1F1F1" stop-opacity="0"/>
</linearGradient>
<linearGradient id="paint77_linear" x1="448" y1="130" x2="447" y2="130" gradientUnits="userSpaceOnUse">
<stop stop-color="#F7F7F7"/>
<stop offset="1" stop-color="#F1F1F1" stop-opacity="0"/>
</linearGradient>
<linearGradient id="paint78_linear" x1="453" y1="130" x2="452" y2="130" gradientUnits="userSpaceOnUse">
<stop stop-color="#F7F7F7"/>
<stop offset="1" stop-color="#F1F1F1" stop-opacity="0"/>
</linearGradient>
<linearGradient id="paint79_linear" x1="459" y1="130" x2="458" y2="130" gradientUnits="userSpaceOnUse">
<stop stop-color="#F7F7F7"/>
<stop offset="1" stop-color="#F1F1F1" stop-opacity="0"/>
</linearGradient>
<linearGradient id="paint80_linear" x1="465" y1="130" x2="464" y2="130" gradientUnits="userSpaceOnUse">
<stop stop-color="#F7F7F7"/>
<stop offset="1" stop-color="#F1F1F1" stop-opacity="0"/>
</linearGradient>
<linearGradient id="paint81_linear" x1="470" y1="130" x2="469" y2="130" gradientUnits="userSpaceOnUse">
<stop stop-color="#F7F7F7"/>
<stop offset="1" stop-color="#F1F1F1" stop-opacity="0"/>
</linearGradient>
<linearGradient id="paint82_linear" x1="476" y1="130" x2="475" y2="130" gradientUnits="userSpaceOnUse">
<stop stop-color="#F7F7F7"/>
<stop offset="1" stop-color="#F1F1F1" stop-opacity="0"/>
</linearGradient>
<linearGradient id="paint83_linear" x1="491.046" y1="130.026" x2="490.046" y2="130.026" gradientUnits="userSpaceOnUse">
<stop stop-color="#F7F7F7"/>
<stop offset="1" stop-color="#F1F1F1" stop-opacity="0"/>
</linearGradient>
<linearGradient id="paint84_linear" x1="495.632" y1="130.026" x2="494.632" y2="130.026" gradientUnits="userSpaceOnUse">
<stop stop-color="#F7F7F7"/>
<stop offset="1" stop-color="#F1F1F1" stop-opacity="0"/>
</linearGradient>
<linearGradient id="paint85_linear" x1="500.217" y1="130.026" x2="499.217" y2="130.026" gradientUnits="userSpaceOnUse">
<stop stop-color="#F7F7F7"/>
<stop offset="1" stop-color="#F1F1F1" stop-opacity="0"/>
</linearGradient>
<linearGradient id="paint86_linear" x1="504.803" y1="130.026" x2="503.803" y2="130.026" gradientUnits="userSpaceOnUse">
<stop stop-color="#F7F7F7"/>
<stop offset="1" stop-color="#F1F1F1" stop-opacity="0"/>
</linearGradient>
<linearGradient id="paint87_linear" x1="-134.835" y1="-36.9064" x2="-134.835" y2="252.958" gradientUnits="userSpaceOnUse">
<stop offset="0.338542" stop-color="#0D95E2"/>
<stop offset="1" stop-color="white"/>
</linearGradient>
<linearGradient id="paint88_linear" x1="321" y1="18.9413" x2="255.307" y2="266.962" gradientUnits="userSpaceOnUse">
<stop stop-color="#A6DCFA"/>
<stop offset="1" stop-color="#6A7B84" stop-opacity="0"/>
<stop offset="1" stop-color="white" stop-opacity="0"/>
</linearGradient>
<linearGradient id="paint89_linear" x1="239.514" y1="11" x2="303.365" y2="14.438" gradientUnits="userSpaceOnUse">
<stop stop-color="#84D3FF"/>
<stop offset="1" stop-color="#0491E0"/>
</linearGradient>
</defs>
</svg>
