<svg width="32" height="32" viewBox="0 0 32 32" fill="none" xmlns="http://www.w3.org/2000/svg">
<circle cx="16" cy="16" r="16" fill="url(#paint0_linear)"/>
<path d="M20.6668 11.3333H11.3335C10.8031 11.3333 10.2944 11.544 9.91928 11.9191C9.54421 12.2942 9.3335 12.8029 9.3335 13.3333V18.6666C9.3335 19.1971 9.54421 19.7058 9.91928 20.0809C10.2944 20.4559 10.8031 20.6666 11.3335 20.6666H20.6668C21.1973 20.6666 21.706 20.4559 22.081 20.0809C22.4561 19.7058 22.6668 19.1971 22.6668 18.6666V13.3333C22.6668 12.8029 22.4561 12.2942 22.081 11.9191C21.706 11.544 21.1973 11.3333 20.6668 11.3333ZM10.6668 13.3333C10.6668 13.1565 10.7371 12.9869 10.8621 12.8619C10.9871 12.7369 11.1567 12.6666 11.3335 12.6666H20.6668C20.8436 12.6666 21.0132 12.7369 21.1382 12.8619C21.2633 12.9869 21.3335 13.1565 21.3335 13.3333V14H10.6668V13.3333ZM21.3335 18.6666C21.3335 18.8435 21.2633 19.013 21.1382 19.1381C21.0132 19.2631 20.8436 19.3333 20.6668 19.3333H11.3335C11.1567 19.3333 10.9871 19.2631 10.8621 19.1381C10.7371 19.013 10.6668 18.8435 10.6668 18.6666V15.3333H21.3335V18.6666Z" fill="white"/>
<path d="M12.6667 18H15.3333C15.5101 18 15.6797 17.9298 15.8047 17.8048C15.9298 17.6797 16 17.5102 16 17.3334C16 17.1565 15.9298 16.987 15.8047 16.8619C15.6797 16.7369 15.5101 16.6667 15.3333 16.6667H12.6667C12.4899 16.6667 12.3203 16.7369 12.1953 16.8619C12.0702 16.987 12 17.1565 12 17.3334C12 17.5102 12.0702 17.6797 12.1953 17.8048C12.3203 17.9298 12.4899 18 12.6667 18Z" fill="white"/>
<path d="M18.0002 18H19.3335C19.5103 18 19.6799 17.9298 19.8049 17.8048C19.9299 17.6797 20.0002 17.5102 20.0002 17.3334C20.0002 17.1565 19.9299 16.987 19.8049 16.8619C19.6799 16.7369 19.5103 16.6667 19.3335 16.6667H18.0002C17.8234 16.6667 17.6538 16.7369 17.5288 16.8619C17.4037 16.987 17.3335 17.1565 17.3335 17.3334C17.3335 17.5102 17.4037 17.6797 17.5288 17.8048C17.6538 17.9298 17.8234 18 18.0002 18Z" fill="white"/>
<defs>
<linearGradient id="paint0_linear" x1="2.45087" y1="-8.25963e-06" x2="30.9005" y2="0.553161" gradientUnits="userSpaceOnUse">
<stop stop-color="#84D3FF"/>
<stop offset="1" stop-color="#0491E0"/>
</linearGradient>
</defs>
</svg>
