<svg width="68" height="68" viewBox="0 0 68 68" fill="none" xmlns="http://www.w3.org/2000/svg">
<path d="M53.391 58.438H14.467C13.551 58.438 12.75 57.632 12.75 56.712V29.112C12.75 28.192 13.551 27.388 14.467 27.388H23.053C23.969 27.388 24.771 28.192 24.771 29.112C24.771 30.032 23.969 30.838 23.053 30.838H16.184V54.988H51.674V30.838H43.66C42.744 30.838 41.943 30.032 41.943 29.112C41.943 28.192 42.744 27.388 43.66 27.388H53.391C54.307 27.388 55.108 28.192 55.108 29.112V56.712C55.108 57.632 54.307 58.437 53.391 58.437V58.438Z" fill="url(#paint0_linear)"/>
<path d="M33.9298 45.212C33.0128 45.212 32.2118 44.407 32.2118 43.487V16.117L27.8618 21.522C27.2888 22.212 26.1438 22.328 25.4578 21.752C24.7708 21.177 24.6558 20.028 25.2278 19.337L32.7838 10.023C33.1278 9.793 33.5858 9.678 33.9288 9.563C34.3868 9.677 34.8448 9.908 35.3028 10.253L42.7438 19.453C43.0878 19.798 43.2018 20.258 43.0878 20.718C43.0878 21.178 42.8578 21.638 42.5148 21.868C42.1718 22.213 41.7138 22.328 41.2558 22.213C40.7978 22.213 40.3398 21.983 40.1108 21.637L35.6458 16.117V43.487C35.6458 44.407 34.8458 45.212 33.9288 45.212H33.9298Z" fill="url(#paint1_linear)"/>
<defs>
<linearGradient id="paint0_linear" x1="12.75" y1="52.057" x2="51.38" y2="47.452" gradientUnits="userSpaceOnUse">
<stop stop-color="#2FC6F6"/>
<stop offset="1" stop-color="#2785FE"/>
</linearGradient>
<linearGradient id="paint1_linear" x1="24.8618" y1="37.887" x2="41.7258" y2="37.132" gradientUnits="userSpaceOnUse">
<stop stop-color="#2FC6F6"/>
<stop offset="1" stop-color="#2785FE"/>
</linearGradient>
</defs>
</svg>
