<svg width="68" height="68" viewBox="0 0 68 68" fill="none" xmlns="http://www.w3.org/2000/svg">
<path fill-rule="evenodd" clip-rule="evenodd" d="M50 19.2896H48V18.1067C47.9982 17.1614 47.7817 16.2294 47.3674 15.3838C46.953 14.5382 46.3522 13.802 45.612 13.2329C44.8719 12.6638 44.0124 12.2774 43.1012 12.1039C42.1899 11.9304 41.2517 11.9746 40.36 12.233L17.46 18.9021C17.1223 19.0097 16.8186 19.2067 16.58 19.4731C15.2755 19.7971 14.1152 20.558 13.2849 21.634C12.4546 22.7099 12.0021 24.0388 12 25.408V49.8816C12 51.5043 12.6321 53.0605 13.7574 54.208C14.8826 55.3554 16.4087 56 18 56H50C51.5913 56 53.1174 55.3554 54.2426 54.208C55.3679 53.0605 56 51.5043 56 49.8816V25.408C56 23.7853 55.3679 22.229 54.2426 21.0816C53.1174 19.9342 51.5913 19.2896 50 19.2896ZM41.46 16.1488C41.7634 16.0618 42.0827 16.0491 42.3918 16.1119C42.7009 16.1746 42.9911 16.3109 43.2387 16.5097C43.4863 16.7086 43.6843 16.9642 43.8166 17.2559C43.9489 17.5476 44.0118 17.8671 44 18.1882V19.3711H30.72L41.46 16.1488ZM52 39.6842H46C45.4696 39.6842 44.9609 39.4694 44.5858 39.0869C44.2107 38.7044 44 38.1857 44 37.6448C44 37.1039 44.2107 36.5851 44.5858 36.2027C44.9609 35.8202 45.4696 35.6053 46 35.6053H52V39.6842ZM52 31.5264H46.3C44.8598 31.4888 43.452 31.9656 42.3199 32.8743C41.1878 33.7829 40.4026 35.0663 40.1 36.5027C39.9351 37.3876 39.9639 38.2987 40.1842 39.1709C40.4045 40.0432 40.811 40.8551 41.3746 41.5487C41.9382 42.2422 42.645 42.8003 43.4446 43.1831C44.2441 43.5659 45.1167 43.764 46 43.7632H52V49.8816C52 50.4225 51.7893 50.9412 51.4142 51.3237C51.0391 51.7062 50.5304 51.9211 50 51.9211H18C17.4696 51.9211 16.9609 51.7062 16.5858 51.3237C16.2107 50.9412 16 50.4225 16 49.8816V25.408C16 24.8671 16.2107 24.3483 16.5858 23.9658C16.9609 23.5834 17.4696 23.3685 18 23.3685H50C50.5304 23.3685 51.0391 23.5834 51.4142 23.9658C51.7893 24.3483 52 24.8671 52 25.408V31.5264Z" fill="url(#paint0_linear)"/>
<defs>
<linearGradient id="paint0_linear" x1="12" y1="46.9593" x2="52.3894" y2="43.4293" gradientUnits="userSpaceOnUse">
<stop stop-color="#2FC6F6"/>
<stop offset="1" stop-color="#2785FE"/>
</linearGradient>
</defs>
</svg>
