<svg width="187" height="40" viewBox="0 0 187 40" version="1.1" xmlns="http://www.w3.org/2000/svg" xmlns:xlink="http://www.w3.org/1999/xlink">
<title>Group</title>
<desc>Created using Figma</desc>
<g id="Canvas" transform="translate(9404 595)">
<g id="Group">
<g id="Group">
<g id="Vector">
<use xlink:href="#path0_fill" transform="translate(-9404 -583.203)"/>
</g>
<g id="Vector">
<use xlink:href="#path1_fill" transform="translate(-9381.8 -583.756)"/>
</g>
<g id="Vector">
<use xlink:href="#path2_fill" transform="translate(-9352.83 -595)"/>
</g>
<g id="Vector">
<use xlink:href="#path3_fill" transform="translate(-9325.55 -583.387)"/>
</g>
<g id="Vector">
<use xlink:href="#path4_fill" transform="translate(-9296.2 -583.203)"/>
</g>
<g id="Vector">
<use xlink:href="#path5_fill" transform="translate(-9268.36 -583.203)"/>
</g>
<g id="Vector">
<use xlink:href="#path6_fill" transform="translate(-9241.08 -583.756)"/>
</g>
</g>
</g>
</g>
<defs>
<path id="path0_fill" d="M 0 5.52995L 6.58451 5.52995L 6.58451 22.1198L 12.9809 22.1198L 12.9809 5.52995L 19.7535 5.52995L 19.7535 1.75793e-07L 0 1.75793e-07L 0 5.52995Z"/>
<path id="path1_fill" d="M 18.0604 2.94931C 16.1791 0.921659 13.7334 -1.75792e-07 11.0996 -1.75792e-07C 7.90141 -1.75792e-07 5.26761 1.10599 3.19819 3.31797C 1.12877 5.52995 3.58827e-07 8.29493 3.58827e-07 11.6129C 3.58827e-07 14.9309 0.940644 17.6959 3.19819 20.0922C 5.26761 22.3041 7.90141 23.4101 11.0996 23.4101C 13.7334 23.4101 16.1791 22.4885 18.0604 20.6452L 18.0604 22.8571L 24.0805 22.8571L 24.0805 0.737327L 18.0604 0.737327L 18.0604 2.94931ZM 16.3672 15.6682C 15.2384 16.7742 13.9215 17.3272 12.2284 17.3272C 10.5352 17.3272 9.21831 16.7742 8.08954 15.6682C 6.96076 14.5622 6.39638 13.0876 6.39638 11.4286C 6.39638 9.76959 6.96076 8.47926 8.08954 7.37327C 9.21831 6.26728 10.5352 5.71429 12.2284 5.71429C 13.9215 5.71429 15.2384 6.26728 16.3672 7.37327C 17.496 8.47926 18.0604 9.95392 18.0604 11.4286C 18.0604 13.2719 17.496 14.5622 16.3672 15.6682Z"/>
<path id="path2_fill" d="M 13.9215 12.1659C 10.5352 12.1659 7.71328 13.2719 6.02012 15.6682C 7.14889 11.0599 11.0996 9.40092 14.674 8.47926L 18.8129 7.37327C 20.506 7.00461 21.8229 6.45161 22.9517 6.08295L 22.9517 0C 21.6348 0.552995 19.9416 1.10599 18.0604 1.65899C 15.9909 2.21198 14.2978 2.58065 12.7928 2.94931C 11.2877 3.31797 9.7827 3.87097 8.08954 4.79263C 4.70322 6.45161 2.6338 8.29493 1.12877 12.1659C 0.376256 14.1935 1.43531e-06 16.4055 1.43531e-06 18.9862C 1.43531e-06 26.3594 3.76258 34.47 13.169 34.47C 16.7435 34.47 19.5654 33.3641 21.8229 31.1521C 24.0805 28.9401 25.2093 26.1751 25.2093 23.0415C 25.2093 19.7235 24.0805 16.9585 21.8229 14.9309C 19.5654 13.0876 16.9316 12.1659 13.9215 12.1659ZM 17.3078 27.2811C 16.1791 28.3871 14.8622 28.9401 13.3571 28.9401C 11.8521 28.9401 10.3471 28.3871 9.40644 27.2811C 8.27767 26.1751 7.71328 24.8848 7.71328 23.2258C 7.71328 21.5668 8.27767 20.2765 9.40644 19.3548C 10.5352 18.2488 11.8521 17.6959 13.3571 17.6959C 14.8622 17.6959 16.1791 18.2488 17.3078 19.3548C 18.4366 20.4608 19.001 21.7512 19.001 23.2258C 19.001 24.7005 18.4366 26.1751 17.3078 27.2811Z"/>
<path id="path3_fill" d="M 7.14889 1.65899C 6.77264 4.60829 6.5845 6.82028 6.39638 8.1106C 6.20825 9.40092 6.02012 10.8756 5.64386 12.3502C 5.26761 13.8249 4.89135 14.9309 4.32696 15.8525C 3.57445 17.1429 2.25754 17.6959 0.752512 17.6959C 0.564383 17.6959 0.18813 17.6959 1.43531e-06 17.6959L 1.69316 22.4885C 2.25754 22.4885 2.82193 22.4885 3.01006 22.4885C 6.02012 22.4885 8.08954 21.3825 9.59457 18.9862C 10.3471 17.8802 10.9115 16.4055 11.2877 15.1152C 11.664 14.3779 11.8521 12.7189 12.0402 12.1659C 12.0402 11.7972 12.2284 11.2442 12.2284 10.5069L 12.4165 9.03226L 12.6046 7.37327L 12.7928 5.71428L 16.9316 5.71428L 16.9316 22.1198L 23.328 22.1198L 23.328 3.51585e-07L 7.14889 3.51585e-07L 7.14889 1.65899Z"/>
<path id="path4_fill" d="M 6.20825 12.5346L 6.20825 1.75793e-07L -1.43531e-06 1.75793e-07L -1.43531e-06 22.1198L 4.13883 22.1198L 15.6147 9.95392L 15.6147 22.1198L 21.8229 22.1198L 21.8229 1.75793e-07L 17.6841 1.75793e-07L 6.20825 12.5346Z"/>
<path id="path5_fill" d="M 20.8823 1.75792e-07L 14.4859 1.75792e-07L 14.4859 16.2212L 6.39638 16.2212L 6.39638 1.75792e-07L -2.87062e-06 1.75792e-07L -2.87062e-06 22.1198L 16.3672 22.1198L 22.3873 28.2028L 27.0905 23.5945L 20.8823 17.6959L 20.8823 1.75792e-07Z"/>
<path id="path6_fill" d="M 18.0604 0.552996L 18.0604 2.94931C 16.1791 0.921659 13.7334 -1.75792e-07 11.0996 -1.75792e-07C 7.90141 -1.75792e-07 5.26761 1.10599 3.19819 3.31797C 1.12878 5.52995 -2.87062e-06 8.29493 -2.87062e-06 11.6129C -2.87062e-06 14.9309 0.940649 17.6959 3.19819 20.0922C 5.26761 22.3041 7.90141 23.4101 11.0996 23.4101C 13.7334 23.4101 16.1791 22.4885 18.0604 20.6452L 18.0604 22.8571L 24.0805 22.8571L 24.0805 0.737327L 18.0604 0.737327L 18.0604 0.552996ZM 16.3672 15.6682C 15.2384 16.7742 13.9215 17.3272 12.2284 17.3272C 10.5352 17.3272 9.21831 16.7742 8.08954 15.6682C 6.96077 14.5622 6.39638 13.2719 6.39638 11.6129C 6.39638 9.95392 6.96077 8.66359 8.08954 7.5576C 9.21831 6.45161 10.5352 5.89862 12.2284 5.89862C 13.9215 5.89862 15.2384 6.45161 16.3672 7.5576C 17.496 8.66359 18.0604 10.1382 18.0604 11.6129C 18.0604 13.2719 17.496 14.5622 16.3672 15.6682Z"/>
</defs>
</svg>
