<svg width="54" height="54" viewBox="0 0 54 54" version="1.1" xmlns="http://www.w3.org/2000/svg" xmlns:xlink="http://www.w3.org/1999/xlink">
<title>Vector</title>
<desc>Created using Figma</desc>
<g id="Canvas" transform="translate(9869 952)">
<g id="Vector">
<use xlink:href="#path0_stroke" transform="translate(-9867 -950)"/>
</g>
</g>
<defs>
<path id="path0_stroke" d="M 16.7 16.7L 18.7 16.7L 18.7 14.7L 16.7 14.7L 16.7 16.7ZM 0 16.7L -2 16.7L -2 18.7L 0 18.7L 0 16.7ZM 0 0L 0 -2L -2 -2L -2 0L 0 0ZM 50 0L 52 0L 52 -2L 50 -2L 50 0ZM 50 16.7L 50 18.7L 52 18.7L 52 16.7L 50 16.7ZM 33.3 16.7L 33.3 14.7L 31.3 14.7L 31.3 16.7L 33.3 16.7ZM 33.3 50L 33.3 52L 35.3 52L 35.3 50L 33.3 50ZM 16.7 50L 14.7 50L 14.7 52L 16.7 52L 16.7 50ZM 16.7 18.7L 33.4 18.7L 33.4 14.7L 16.7 14.7L 16.7 18.7ZM 33.4 14.7L 16.7 14.7L 16.7 18.7L 33.4 18.7L 33.4 14.7ZM 16.7 35.3L 33.4 35.3L 33.4 31.3L 16.7 31.3L 16.7 35.3ZM 33.4 31.3L 16.7 31.3L 16.7 35.3L 33.4 35.3L 33.4 31.3ZM 18.7 16.7L 18.7 0L 14.7 0L 14.7 16.7L 18.7 16.7ZM 14.7 0L 14.7 16.7L 18.7 16.7L 18.7 0L 14.7 0ZM 16.7 14.7L 0 14.7L 0 18.7L 16.7 18.7L 16.7 14.7ZM 2 16.7L 2 0L -2 0L -2 16.7L 2 16.7ZM 0 2L 50 2L 50 -2L 0 -2L 0 2ZM 48 0L 48 16.7L 52 16.7L 52 0L 48 0ZM 50 14.7L 33.3 14.7L 33.3 18.7L 50 18.7L 50 14.7ZM 31.3 16.7L 31.3 50L 35.3 50L 35.3 16.7L 31.3 16.7ZM 33.3 48L 16.7 48L 16.7 52L 33.3 52L 33.3 48ZM 18.7 50L 18.7 16.7L 14.7 16.7L 14.7 50L 18.7 50Z"/>
</defs>
</svg>
