<svg width="224" height="66" viewBox="0 0 224 66" version="1.1" xmlns="http://www.w3.org/2000/svg" xmlns:xlink="http://www.w3.org/1999/xlink">
<title>tag</title>
<desc>Created using Figma</desc>
<g id="Canvas" transform="translate(7689 -5958)">
<g id="tag">
<g id="Group">
<g id="Group">
<g id="Union">
<use xlink:href="#path0_fill" transform="translate(-7689 5958)" fill="#FFFFFF"/>
<mask id="mask0_outline_ins">
<use xlink:href="#path0_fill" fill="white" transform="translate(-7689 5958)"/>
</mask>
<g mask="url(#mask0_outline_ins)">
<use xlink:href="#path1_stroke_2x" transform="translate(-7689 5958)"/>
</g>
</g>
<g id="Group">
<g id="Vector">
<use xlink:href="#path2_stroke" transform="translate(-7676 5971)"/>
</g>
</g>
</g>
</g>
<g id="Rectangle 47">
<use xlink:href="#path3_fill" transform="translate(-7637 5960)" fill="#FFFFFF"/>
<use xlink:href="#path4_stroke" transform="translate(-7637 5960)"/>
</g>
<g id="Group">
<g id="Group">
<g id="Vector">
<use xlink:href="#path5_fill" transform="translate(-7621 5977.55)"/>
</g>
<g id="Vector">
<use xlink:href="#path6_fill" transform="translate(-7604.97 5977.15)"/>
</g>
<g id="Vector">
<use xlink:href="#path7_fill" transform="translate(-7584.06 5969)"/>
</g>
<g id="Vector">
<use xlink:href="#path8_fill" transform="translate(-7564.37 5977.42)"/>
</g>
<g id="Vector">
<use xlink:href="#path9_fill" transform="translate(-7543.18 5977.55)"/>
</g>
<g id="Vector">
<use xlink:href="#path10_fill" transform="translate(-7523.08 5977.55)"/>
</g>
<g id="Vector">
<use xlink:href="#path11_fill" transform="translate(-7503.38 5977.15)"/>
</g>
</g>
</g>
</g>
</g>
<defs>
<path id="path0_fill" fill-rule="evenodd" d="M 54 0L 0 0L 0 54.1094L 15.6382 54.1094L 27.54 66L 39.4419 54.1094L 54 54.1094L 54 0Z"/>
<path id="path1_stroke_2x" d="M 0 0L 0 -4L -4 -4L -4 0L 0 0ZM 54 0L 58 0L 58 -4L 54 -4L 54 0ZM 0 54.1094L -4 54.1094L -4 58.1094L 0 58.1094L 0 54.1094ZM 15.6382 54.1094L 18.4653 51.2796L 17.2939 50.1094L 15.6382 50.1094L 15.6382 54.1094ZM 27.54 66L 24.7129 68.8298L 27.54 71.6542L 30.3671 68.8298L 27.54 66ZM 39.4419 54.1094L 39.4419 50.1094L 37.7861 50.1094L 36.6148 51.2796L 39.4419 54.1094ZM 54 54.1094L 54 58.1094L 58 58.1094L 58 54.1094L 54 54.1094ZM 0 4L 54 4L 54 -4L 0 -4L 0 4ZM 4 54.1094L 4 0L -4 0L -4 54.1094L 4 54.1094ZM 15.6382 50.1094L 0 50.1094L 0 58.1094L 15.6382 58.1094L 15.6382 50.1094ZM 30.3671 63.1702L 18.4653 51.2796L 12.8111 56.9391L 24.7129 68.8298L 30.3671 63.1702ZM 36.6148 51.2796L 24.7129 63.1702L 30.3671 68.8298L 42.269 56.9391L 36.6148 51.2796ZM 54 50.1094L 39.4419 50.1094L 39.4419 58.1094L 54 58.1094L 54 50.1094ZM 50 0L 50 54.1094L 58 54.1094L 58 0L 50 0Z"/>
<path id="path2_stroke" d="M 9.352 9.352L 11.352 9.352L 11.352 7.352L 9.352 7.352L 9.352 9.352ZM 0 9.352L -2 9.352L -2 11.352L 0 11.352L 0 9.352ZM 0 0L 0 -2L -2 -2L -2 0L 0 0ZM 28 0L 30 0L 30 -2L 28 -2L 28 0ZM 28 9.352L 28 11.352L 30 11.352L 30 9.352L 28 9.352ZM 18.648 9.352L 18.648 7.352L 16.648 7.352L 16.648 9.352L 18.648 9.352ZM 18.648 28L 18.648 30L 20.648 30L 20.648 28L 18.648 28ZM 9.352 28L 7.352 28L 7.352 30L 9.352 30L 9.352 28ZM 9.352 11.352L 18.704 11.352L 18.704 7.352L 9.352 7.352L 9.352 11.352ZM 18.704 7.352L 9.352 7.352L 9.352 11.352L 18.704 11.352L 18.704 7.352ZM 9.352 20.648L 18.704 20.648L 18.704 16.648L 9.352 16.648L 9.352 20.648ZM 18.704 16.648L 9.352 16.648L 9.352 20.648L 18.704 20.648L 18.704 16.648ZM 11.352 9.352L 11.352 0L 7.352 0L 7.352 9.352L 11.352 9.352ZM 7.352 0L 7.352 9.352L 11.352 9.352L 11.352 0L 7.352 0ZM 9.352 7.352L 0 7.352L 0 11.352L 9.352 11.352L 9.352 7.352ZM 2 9.352L 2 0L -2 0L -2 9.352L 2 9.352ZM 0 2L 28 2L 28 -2L 0 -2L 0 2ZM 26 0L 26 9.352L 30 9.352L 30 0L 26 0ZM 28 7.352L 18.648 7.352L 18.648 11.352L 28 11.352L 28 7.352ZM 16.648 9.352L 16.648 28L 20.648 28L 20.648 9.352L 16.648 9.352ZM 18.648 26L 9.352 26L 9.352 30L 18.648 30L 18.648 26ZM 11.352 28L 11.352 9.352L 7.352 9.352L 7.352 28L 11.352 28Z"/>
<path id="path3_fill" d="M 0 0L 170 0L 170 50L 0 50L 0 0Z"/>
<path id="path4_stroke" d="M 0 0L 0 -2L -2 -2L -2 0L 0 0ZM 170 0L 172 0L 172 -2L 170 -2L 170 0ZM 170 50L 170 52L 172 52L 172 50L 170 50ZM 0 50L -2 50L -2 52L 0 52L 0 50ZM 0 2L 170 2L 170 -2L 0 -2L 0 2ZM 168 0L 168 50L 172 50L 172 0L 168 0ZM 170 48L 0 48L 0 52L 170 52L 170 48ZM 2 50L 2 0L -2 0L -2 50L 2 50Z"/>
<path id="path5_fill" d="M 0 4.00922L 4.75352 4.00922L 4.75352 16.0369L 9.37123 16.0369L 9.37123 4.00922L 14.2606 4.00922L 14.2606 1.2745e-07L 0 1.2745e-07L 0 4.00922Z"/>
<path id="path6_fill" d="M 13.0382 2.13825C 11.6801 0.668202 9.91449 -1.2745e-07 8.01308 -1.2745e-07C 5.70423 -1.2745e-07 3.80282 0.801843 2.30885 2.40553C 0.814889 4.00922 2.59046e-07 6.01382 2.59046e-07 8.41935C 2.59046e-07 10.8249 0.679074 12.8295 2.30885 14.5668C 3.80282 16.1705 5.70423 16.9723 8.01308 16.9723C 9.91449 16.9723 11.6801 16.3041 13.0382 14.9677L 13.0382 16.5714L 17.3843 16.5714L 17.3843 0.534562L 13.0382 0.534562L 13.0382 2.13825ZM 11.8159 11.3594C 11.001 12.1613 10.0503 12.5622 8.82797 12.5622C 7.60563 12.5622 6.65493 12.1613 5.84004 11.3594C 5.02515 10.5576 4.61771 9.48848 4.61771 8.28571C 4.61771 7.08295 5.02515 6.14747 5.84004 5.34562C 6.65493 4.54378 7.60563 4.14286 8.82797 4.14286C 10.0503 4.14286 11.001 4.54378 11.8159 5.34562C 12.6308 6.14747 13.0382 7.21659 13.0382 8.28571C 13.0382 9.62212 12.6308 10.5576 11.8159 11.3594Z"/>
<path id="path7_fill" d="M 10.0503 8.82028C 7.60563 8.82028 5.56841 9.62212 4.34608 11.3594C 5.16096 8.01843 8.01308 6.81567 10.5936 6.14747L 13.5815 5.34562C 14.8038 5.07834 15.7545 4.67742 16.5694 4.41014L 16.5694 0C 15.6187 0.400922 14.3964 0.801843 13.0382 1.20276C 11.5443 1.60369 10.3219 1.87097 9.23541 2.13825C 8.14889 2.40553 7.06237 2.80645 5.84004 3.47465C 3.39537 4.67742 1.90141 6.01382 0.814888 8.82028C 0.271629 10.2903 1.03619e-06 11.894 1.03619e-06 13.765C 1.03619e-06 19.1106 2.7163 24.9908 9.50704 24.9908C 12.0875 24.9908 14.1247 24.1889 15.7545 22.5853C 17.3843 20.9816 18.1992 18.977 18.1992 16.7051C 18.1992 14.2995 17.3843 12.2949 15.7545 10.8249C 14.1247 9.48848 12.2233 8.82028 10.0503 8.82028ZM 12.495 19.7788C 11.6801 20.5806 10.7294 20.9816 9.64286 20.9816C 8.55634 20.9816 7.46982 20.5806 6.79075 19.7788C 5.97586 18.977 5.56841 18.0415 5.56841 16.8387C 5.56841 15.6359 5.97586 14.7005 6.79075 14.0323C 7.60563 13.2304 8.55634 12.8295 9.64286 12.8295C 10.7294 12.8295 11.6801 13.2304 12.495 14.0323C 13.3099 14.8341 13.7173 15.7696 13.7173 16.8387C 13.7173 17.9078 13.3099 18.977 12.495 19.7788Z"/>
<path id="path8_fill" d="M 5.16097 1.20276C 4.88934 3.34101 4.75352 4.9447 4.6177 5.88018C 4.48189 6.81567 4.34608 7.88479 4.07445 8.95392C 3.80282 10.023 3.53119 10.8249 3.12374 11.4931C 2.58048 12.4286 1.62978 12.8295 0.543257 12.8295C 0.407443 12.8295 0.135816 12.8295 1.03619e-06 12.8295L 1.22233 16.3041C 1.62978 16.3041 2.03722 16.3041 2.17304 16.3041C 4.34608 16.3041 5.84004 15.5023 6.92656 13.765C 7.46982 12.9631 7.87726 11.894 8.14889 10.9585C 8.42052 10.424 8.55634 9.2212 8.69215 8.82028C 8.69215 8.55299 8.82797 8.15207 8.82797 7.61751L 8.96378 6.54839L 9.0996 5.34562L 9.23541 4.14286L 12.2233 4.14286L 12.2233 16.0369L 16.841 16.0369L 16.841 2.54899e-07L 5.16097 2.54899e-07L 5.16097 1.20276Z"/>
<path id="path9_fill" d="M 4.48189 9.08756L 4.48189 1.2745e-07L -1.03619e-06 1.2745e-07L -1.03619e-06 16.0369L 2.98793 16.0369L 11.2726 7.21659L 11.2726 16.0369L 15.7545 16.0369L 15.7545 1.2745e-07L 12.7666 1.2745e-07L 4.48189 9.08756Z"/>
<path id="path10_fill" d="M 15.0754 1.2745e-07L 10.4578 1.2745e-07L 10.4578 11.7604L 4.61771 11.7604L 4.61771 1.2745e-07L -2.07237e-06 1.2745e-07L -2.07237e-06 16.0369L 11.8159 16.0369L 16.162 20.447L 19.5573 17.106L 15.0754 12.8295L 15.0754 1.2745e-07Z"/>
<path id="path11_fill" d="M 13.0382 0.400922L 13.0382 2.13825C 11.6801 0.668202 9.91449 -1.2745e-07 8.01308 -1.2745e-07C 5.70423 -1.2745e-07 3.80282 0.801843 2.30886 2.40553C 0.814893 4.00922 -2.07237e-06 6.01382 -2.07237e-06 8.41935C -2.07237e-06 10.8249 0.679078 12.8295 2.30886 14.5668C 3.80282 16.1705 5.70423 16.9723 8.01308 16.9723C 9.91449 16.9723 11.6801 16.3041 13.0382 14.9677L 13.0382 16.5714L 17.3843 16.5714L 17.3843 0.534562L 13.0382 0.534562L 13.0382 0.400922ZM 11.8159 11.3594C 11.001 12.1613 10.0503 12.5622 8.82797 12.5622C 7.60563 12.5622 6.65493 12.1613 5.84004 11.3594C 5.02515 10.5576 4.61771 9.62212 4.61771 8.41935C 4.61771 7.21659 5.02515 6.28111 5.84004 5.47926C 6.65493 4.67742 7.60563 4.2765 8.82797 4.2765C 10.0503 4.2765 11.001 4.67742 11.8159 5.47926C 12.6308 6.28111 13.0382 7.35023 13.0382 8.41935C 13.0382 9.62212 12.6308 10.5576 11.8159 11.3594Z"/>
</defs>
</svg>
