<svg width="44" height="44" viewBox="0 0 44 44" version="1.1" xmlns="http://www.w3.org/2000/svg" xmlns:xlink="http://www.w3.org/1999/xlink">
<title>Group</title>
<desc>Created using Figma</desc>
<g id="Canvas" transform="translate(7689 -6690)">
<g id="Group">
<g id="Group">
<g id="Vector">
<use xlink:href="#path0_stroke" transform="translate(-7687 6692)" fill="#FFFFFF"/>
</g>
</g>
<g id="Vector">
<use xlink:href="#path1_fill" transform="translate(-7678.12 6705.36)" fill="#FFFFFF"/>
<use xlink:href="#path2_stroke" transform="translate(-7678.12 6705.36)" fill="#FFFFFF"/>
</g>
</g>
</g>
<defs>
<path id="path0_stroke" d="M 7.44 32.88L 8.94 32.88C 8.94 32.4034 8.7135 31.9551 8.3298 31.6724L 7.44 32.88ZM 7.44 40L 5.94 40C 5.94 40.5309 6.22068 41.0223 6.67802 41.292C 7.13535 41.5618 7.7012 41.5696 8.16584 41.3127L 7.44 40ZM 14.24 36.24L 14.6186 34.7886C 14.2463 34.6914 13.8509 34.7411 13.5142 34.9273L 14.24 36.24ZM 20 -1.5C 8.24318 -1.5 -1.5 7.38421 -1.5 18.48L 1.5 18.48C 1.5 9.25579 9.67682 1.5 20 1.5L 20 -1.5ZM -1.5 18.48C -1.5 24.8335 1.63724 30.4675 6.5502 34.0876L 8.3298 31.6724C 4.12276 28.5725 1.5 23.8065 1.5 18.48L -1.5 18.48ZM 5.94 32.88L 5.94 40L 8.94 40L 8.94 32.88L 5.94 32.88ZM 8.16584 41.3127L 14.9658 37.5527L 13.5142 34.9273L 6.71416 38.6873L 8.16584 41.3127ZM 13.8614 37.6914C 15.7671 38.187 17.8763 38.5349 20 38.54L 20 35.54C 18.1237 35.5451 16.3929 35.253 14.6186 34.7886L 13.8614 37.6914ZM 20 38.54C 31.7568 38.54 41.5 29.6558 41.5 18.56L 38.5 18.56C 38.5 27.7842 30.3232 35.54 20 35.54L 20 38.54ZM 41.5 18.56C 41.5 7.47229 31.7655 -1.5 20 -1.5L 20 1.5C 30.3145 1.5 38.5 9.32772 38.5 18.56L 41.5 18.56Z"/>
<path id="path1_fill" d="M 12.8 9.92L 8.48 5.28L 3.05176e-07 9.92L 9.28 6.10352e-07L 13.76 4.64L 22.16 6.10352e-07L 12.8 9.92Z"/>
<path id="path2_stroke" d="M 12.8 9.92L 12.0681 10.6014C 12.2565 10.8038 12.5202 10.9191 12.7967 10.92C 13.0731 10.9209 13.3376 10.8074 13.5273 10.6063L 12.8 9.92ZM 8.48 5.28L 9.21189 4.59858C 8.90024 4.26384 8.40121 4.1832 7.99999 4.40274L 8.48 5.28ZM 3.05176e-07 9.92L -0.730271 9.23685C -1.06581 9.59552 -1.0912 10.1448 -0.79018 10.5329C -0.489163 10.921 0.0491395 11.033 0.480012 10.7973L 3.05176e-07 9.92ZM 9.28 6.10352e-07L 9.9994 -0.694594C 9.80905 -0.891739 9.54614 -1.00213 9.27211 -0.999968C 8.99808 -0.997806 8.73694 -0.88328 8.54973 -0.683156L 9.28 6.10352e-07ZM 13.76 4.64L 13.0406 5.3346C 13.3546 5.65983 13.8478 5.73393 14.2435 5.51534L 13.76 4.64ZM 22.16 6.10352e-07L 22.8873 0.686279C 23.2255 0.327902 23.2522 -0.223379 22.9503 -0.612763C 22.6483 -1.00215 22.1078 -1.11357 21.6765 -0.875334L 22.16 6.10352e-07ZM 13.5319 9.23858L 9.21189 4.59858L 7.74811 5.96142L 12.0681 10.6014L 13.5319 9.23858ZM 7.99999 4.40274L -0.480011 9.04274L 0.480012 10.7973L 8.96001 6.15726L 7.99999 4.40274ZM 0.730272 10.6032L 10.0103 0.683158L 8.54973 -0.683156L -0.730271 9.23685L 0.730272 10.6032ZM 8.5606 0.694595L 13.0406 5.3346L 14.4794 3.94541L 9.9994 -0.694594L 8.5606 0.694595ZM 14.2435 5.51534L 22.6435 0.875335L 21.6765 -0.875334L 13.2765 3.76467L 14.2435 5.51534ZM 21.4327 -0.686278L 12.0727 9.23372L 13.5273 10.6063L 22.8873 0.686279L 21.4327 -0.686278Z"/>
</defs>
</svg>
