<svg width="44" height="44" viewBox="0 0 44 44" version="1.1" xmlns="http://www.w3.org/2000/svg" xmlns:xlink="http://www.w3.org/1999/xlink">
<title>Group</title>
<desc>Created using Figma</desc>
<g id="Canvas" transform="translate(7629 -6690)">
<g id="Group">
<g id="Vector">
<use xlink:href="#path0_stroke" transform="translate(-7627 6692)" fill="#FFFFFF"/>
</g>
<g id="Vector">
<use xlink:href="#path1_stroke" transform="translate(-7619.89 6701.71)" fill="#FFFFFF"/>
</g>
<g id="Vector">
<use xlink:href="#path2_fill" transform="translate(-7614.28 6706.54)" fill="#FFFFFF"/>
</g>
</g>
</g>
<defs>
<path id="path0_stroke" d="M 38.5 20C 38.5 30.2173 30.2173 38.5 20 38.5L 20 41.5C 31.8741 41.5 41.5 31.8741 41.5 20L 38.5 20ZM 20 38.5C 9.78273 38.5 1.5 30.2173 1.5 20L -1.5 20C -1.5 31.8741 8.12588 41.5 20 41.5L 20 38.5ZM 1.5 20C 1.5 9.78273 9.78273 1.5 20 1.5L 20 -1.5C 8.12588 -1.5 -1.5 8.12588 -1.5 20L 1.5 20ZM 20 1.5C 30.2173 1.5 38.5 9.78273 38.5 20L 41.5 20C 41.5 8.12588 31.8741 -1.5 20 -1.5L 20 1.5Z"/>
<path id="path1_stroke" d="M 10.4647 13.9742C 10.4647 13.1458 9.79316 12.4742 8.96473 12.4742C 8.13631 12.4742 7.46473 13.1458 7.46473 13.9742L 10.4647 13.9742ZM 8.96473 14.1342L 7.46473 14.1342C 7.46473 14.6007 7.68173 15.0406 8.05184 15.3244L 8.96473 14.1342ZM 17.2047 20.4542L 16.2918 21.6444C 16.3966 21.7248 16.5115 21.791 16.6336 21.8412L 17.2047 20.4542ZM 19.0447 19.8142L 20.4374 20.3713C 20.4706 20.2885 20.4963 20.2029 20.5142 20.1155L 19.0447 19.8142ZM 22.9647 0.694215L 24.4342 0.99548C 24.4545 0.896347 24.4647 0.795411 24.4647 0.694215L 22.9647 0.694215ZM 21.2847 0.214215L 20.6938 -1.16456L 20.6815 -1.15915L 21.2847 0.214215ZM 0.884736 9.17422L 1.35908 10.5972C 1.40277 10.5827 1.44577 10.5661 1.48794 10.5476L 0.884736 9.17422ZM 0.00473722 10.1342L -1.48368 10.3203C -1.48259 10.329 -1.48143 10.3377 -1.48019 10.3463L 0.00473722 10.1342ZM 0.884736 11.0142L 0.327649 12.4069C 0.354928 12.4178 0.382522 12.4279 0.410394 12.4372L 0.884736 11.0142ZM 5.4504 14.1172C 6.23631 14.3792 7.08579 13.9545 7.34776 13.1686C 7.60973 12.3826 7.18499 11.5332 6.39908 11.2712L 5.4504 14.1172ZM 7.46473 13.9742L 7.46473 14.1342L 10.4647 14.1342L 10.4647 13.9742L 7.46473 13.9742ZM 8.05184 15.3244L 16.2918 21.6444L 18.1176 19.264L 9.87762 12.944L 8.05184 15.3244ZM 16.6336 21.8412C 17.8202 22.3298 18.8546 22.0843 19.5668 21.5195C 19.8468 21.2834 20.1088 20.9601 20.2127 20.8002C 20.275 20.7008 20.3377 20.5862 20.3644 20.5329C 20.382 20.4971 20.4015 20.4551 20.4096 20.437C 20.4155 20.4237 20.4228 20.4069 20.4256 20.4002C 20.4279 20.3947 20.4309 20.3874 20.432 20.3847C 20.433 20.3823 20.4344 20.3789 20.4349 20.3778C 20.4353 20.3766 20.436 20.375 20.4362 20.3745C 20.4364 20.3739 20.4367 20.3731 20.4368 20.3729C 20.4371 20.3721 20.4374 20.3713 19.0447 19.8142C 17.652 19.2571 17.6523 19.2564 17.6526 19.2556C 17.6527 19.2553 17.653 19.2546 17.6532 19.2541C 17.653 19.2546 17.6548 19.2501 17.6544 19.2511C 17.6541 19.252 17.6575 19.2436 17.6568 19.2454C 17.6561 19.247 17.6624 19.2319 17.6611 19.2351C 17.6601 19.2372 17.6705 19.2133 17.6684 19.2181C 17.668 19.2188 17.6803 19.1925 17.6785 19.1965C 17.6833 19.1864 17.6882 19.1814 17.6842 19.1857C 17.6557 19.2333 17.6926 19.1629 17.7026 19.169C 17.7316 19.146 17.7866 19.1151 17.8539 19.1055C 17.9057 19.0866 17.9126 19.14 17.7759 19.0672L 16.6336 21.8412ZM 20.5142 20.1155L 24.4342 0.99548L 21.4953 0.39295L 17.5753 19.513L 20.5142 20.1155ZM 24.4647 0.694215C 24.4647 0.00284624 24.1916 -0.712822 23.5134 -1.1488C 22.9521 -1.50962 22.3502 -1.51571 22.0179 -1.49197C 21.6785 -1.46207 21.3009 -1.37291 21.1037 -1.31246C 20.9944 -1.27826 20.8857 -1.23974 20.8271 -1.21769C 20.7928 -1.2047 20.7583 -1.19107 20.7408 -1.184C 20.7297 -1.1795 20.7177 -1.17455 20.7122 -1.17224C 20.7083 -1.17061 20.7036 -1.16866 20.7017 -1.16784C 20.7002 -1.1672 20.6982 -1.16636 20.6974 -1.16603C 20.6968 -1.16576 20.6959 -1.16537 20.6956 -1.16523C 20.6953 -1.16511 20.6948 -1.16492 20.6947 -1.16486C 20.6943 -1.16468 20.6939 -1.1645 21.2847 0.214215C 21.8756 1.59293 21.8752 1.5931 21.8748 1.59327C 21.8747 1.59333 21.8743 1.59349 21.8741 1.5936C 21.8743 1.5935 21.8722 1.59439 21.8726 1.5942C 21.873 1.59405 21.8695 1.59554 21.8702 1.59523C 21.8705 1.5951 21.8662 1.59691 21.8669 1.59661C 21.8661 1.59695 21.8652 1.59733 21.8664 1.59684C 21.8735 1.59395 21.8751 1.59329 21.8867 1.58893C 21.92 1.5763 21.9426 1.56794 21.9908 1.55339C 22.093 1.52176 22.1812 1.50401 22.2316 1.5004C 22.2536 1.49883 22.2351 1.50267 22.1866 1.49459C 22.1379 1.48647 22.0244 1.46045 21.8911 1.37473C 21.7454 1.28108 21.6202 1.14378 21.5417 0.981182C 21.4686 0.829799 21.4647 0.716644 21.4647 0.694215L 24.4647 0.694215ZM 20.6815 -1.15915L 0.28153 7.80085L 1.48794 10.5476L 21.8879 1.58758L 20.6815 -1.15915ZM 0.884736 9.17422C 0.410395 7.75119 0.409956 7.75134 0.409514 7.75148C 0.409361 7.75154 0.408914 7.75169 0.408608 7.75179C 0.408287 7.75189 0.407366 7.7522 0.406722 7.75242C 0.406017 7.75266 0.404069 7.75331 0.402654 7.75379C 0.400996 7.75435 0.396685 7.75583 0.393352 7.75697C 0.389065 7.75845 0.37881 7.76203 0.370218 7.76509C 0.357914 7.76948 0.331114 7.77931 0.306861 7.78855C 0.26858 7.80328 0.191512 7.83463 0.119639 7.86669C -0.00221261 7.9221 -0.241419 8.04762 -0.44186 8.18286C -0.779865 8.41799 -1.63318 9.12425 -1.48368 10.3203L 1.49315 9.94816C 1.52529 10.2053 1.44096 10.4177 1.36256 10.5372C 1.29926 10.6336 1.24708 10.6624 1.27133 10.6456C 1.30089 10.6208 1.29668 10.6263 1.35233 10.6017C 1.36921 10.5938 1.36652 10.5951 1.38042 10.5899C 1.38226 10.5891 1.37945 10.5902 1.37773 10.5908C 1.37931 10.5903 1.36996 10.5936 1.37062 10.5933C 1.37214 10.5928 1.36469 10.5954 1.36543 10.5951C 1.36638 10.5948 1.36193 10.5963 1.3624 10.5961C 1.36293 10.596 1.36051 10.5968 1.36078 10.5967C 1.3605 10.5968 1.36007 10.5969 1.35994 10.597C 1.35951 10.5971 1.35908 10.5972 0.884736 9.17422ZM -1.48019 10.3463C -1.34962 11.2603 -0.689305 11.7961 -0.397122 12.0048C -0.224326 12.1255 -0.0246396 12.2397 0.07891 12.2927C 0.140297 12.3236 0.205772 12.3543 0.238293 12.3689C 0.259057 12.3781 0.282101 12.3881 0.292619 12.3925C 0.300038 12.3956 0.308959 12.3993 0.312661 12.4009C 0.315569 12.402 0.319355 12.4036 0.320802 12.4042C 0.322047 12.4047 0.323768 12.4054 0.324389 12.4056C 0.324958 12.4059 0.325776 12.4062 0.32606 12.4063C 0.326331 12.4064 0.326729 12.4066 0.326864 12.4066C 0.327258 12.4068 0.327649 12.4069 0.884736 11.0142C 1.44182 9.6215 1.44221 9.62165 1.44259 9.62181C 1.44271 9.62186 1.44309 9.62201 1.44334 9.62211C 1.4431 9.62201 1.44526 9.62288 1.44479 9.62269C 1.44437 9.62252 1.44837 9.62414 1.44751 9.62379C 1.44683 9.62352 1.45361 9.62628 1.45222 9.62571C 1.45155 9.62543 1.46038 9.62911 1.45884 9.62846C 1.46008 9.62898 1.46338 9.63047 1.46212 9.62986C 1.45057 9.62475 1.45292 9.62604 1.43806 9.61824C 1.38911 9.59372 1.3838 9.59293 1.3466 9.56362C 1.31442 9.54064 1.32361 9.54104 1.35123 9.57587C 1.38053 9.61281 1.46218 9.72969 1.48966 9.92208L -1.48019 10.3463ZM 0.410394 12.4372L 5.4504 14.1172L 6.39908 11.2712L 1.35908 9.59119L 0.410394 12.4372Z"/>
<path id="path2_fill" d="M 3.36 9.13778C 3.36 9.13778 12.48 0.897778 12.88 0.577778C 13.28 0.257778 13.12 0.177778 13.12 0.177778C 13.12 -0.222222 12.48 0.177778 12.48 0.177778L 1.2207e-06 6.97778C 1.2207e-06 6.97778 0.880001 14.4178 1.2 15.2978C 1.52 16.2578 2.72 14.8178 2.72 14.8178L 6.32 11.6178L 3.36 9.13778Z"/>
</defs>
</svg>
