<svg width="44" height="44" viewBox="0 0 44 44" version="1.1" xmlns="http://www.w3.org/2000/svg" xmlns:xlink="http://www.w3.org/1999/xlink">
<title>Group</title>
<desc>Created using Figma</desc>
<g id="Canvas" transform="translate(7569 -6690)">
<g id="Group">
<g id="Vector">
<use xlink:href="#path0_stroke" transform="translate(-7567 6692)" fill="#FFFFFF"/>
</g>
<g id="Group">
<g id="Vector">
<use xlink:href="#path1_fill" transform="translate(-7555.45 6697.64)" fill="#FFFFFF"/>
</g>
</g>
</g>
</g>
<defs>
<path id="path0_stroke" d="M 38.5 20C 38.5 30.2173 30.2173 38.5 20 38.5L 20 41.5C 31.8741 41.5 41.5 31.8741 41.5 20L 38.5 20ZM 20 38.5C 9.78273 38.5 1.5 30.2173 1.5 20L -1.5 20C -1.5 31.8741 8.12587 41.5 20 41.5L 20 38.5ZM 1.5 20C 1.5 9.78273 9.78273 1.5 20 1.5L 20 -1.5C 8.12587 -1.5 -1.5 8.12588 -1.5 20L 1.5 20ZM 20 1.5C 30.2173 1.5 38.5 9.78273 38.5 20L 41.5 20C 41.5 8.12588 31.8741 -1.5 20 -1.5L 20 1.5Z"/>
<path id="path1_fill" d="M 13.4985 3.04C 13.651 3.04 13.7273 3.116 13.7273 3.268C 13.7273 4.408 13.7273 5.548 13.7273 6.612C 13.7273 6.84 13.651 6.84 13.4985 6.84C 13.1934 6.84 12.8884 6.84 12.5833 6.84C 12.2783 6.84 11.897 6.84 11.5919 6.84C 10.753 6.84 10.2192 7.296 10.2192 8.132C 10.1429 8.816 10.2192 9.5 10.2192 10.108C 10.2192 10.336 10.2955 10.336 10.448 10.336L 10.5242 10.336C 10.6005 10.336 10.6768 10.336 10.753 10.336C 11.2106 10.336 11.6682 10.336 12.202 10.336C 12.6596 10.336 13.0409 10.336 13.4985 10.336C 13.7273 10.336 13.8798 10.412 13.8035 10.716C 13.651 11.856 13.5748 12.92 13.4985 14.06C 13.4985 14.288 13.346 14.364 13.1172 14.364C 12.7359 14.364 12.3546 14.364 11.9732 14.364C 11.5919 14.364 11.2106 14.364 10.8293 14.364C 10.753 14.364 10.6768 14.364 10.6005 14.364C 10.3717 14.364 10.3717 14.44 10.3717 14.82C 10.3717 18.316 10.3717 21.812 10.3717 25.308C 10.3717 25.688 10.2955 25.764 9.91414 25.764C 9.22777 25.764 8.61768 25.764 7.93132 25.764C 7.24495 25.764 6.63485 25.764 5.94848 25.764C 5.64343 25.764 5.56717 25.612 5.56717 25.308C 5.56717 23.56 5.56717 21.812 5.56717 20.064C 5.56717 18.316 5.56717 16.492 5.56717 14.744C 5.56717 14.44 5.49091 14.364 5.26212 14.364C 5.26212 14.364 5.26212 14.364 5.18586 14.364C 4.95707 14.364 4.80454 14.364 4.57575 14.364C 4.34696 14.364 4.11818 14.364 3.88939 14.364C 3.73687 14.364 3.66061 14.364 3.50808 14.364C 3.27929 14.364 3.20303 14.288 3.20303 14.06C 3.20303 12.92 3.20303 11.856 3.20303 10.716C 3.20303 10.488 3.27929 10.412 3.43181 10.412C 3.58434 10.412 3.6606 10.412 3.81313 10.412C 4.04191 10.412 4.34696 10.412 4.57575 10.412C 4.80454 10.412 4.95707 10.412 5.18586 10.412L 5.26212 10.412C 5.56717 10.412 5.56717 10.26 5.56717 10.032C 5.56717 9.196 5.56717 8.36 5.56717 7.524C 5.56717 6.46 5.87222 5.548 6.48232 4.712C 7.24495 3.648 8.38889 3.192 9.68536 3.116C 10.448 3.116 11.1343 3.116 11.897 3.116C 12.202 3.116 12.5071 3.116 12.7359 3.116C 12.8884 3.04 13.1934 3.04 13.4985 3.04ZM 13.4985 -1.44959e-07C 13.4985 -1.44959e-07 13.4222 -1.44959e-07 13.4985 -1.44959e-07C 13.1934 -1.44959e-07 12.8884 -1.44959e-07 12.5833 -1.44959e-07L 12.1258 -1.44959e-07L 11.6682 -1.44959e-07C 10.8293 -1.44959e-07 10.0667 1.41561e-07 9.3803 0.0760001C 7.09242 0.152 5.18586 1.14 3.88939 2.964C 2.89798 4.256 2.4404 5.776 2.36414 7.524L 2.36414 7.6C 1.8303 7.752 1.29647 8.056 0.915156 8.436C 0.45758 8.892 -4.6547e-06 9.652 -4.6547e-06 10.792C -4.6547e-06 12.008 -4.6547e-06 13.072 -4.6547e-06 14.06C -4.6547e-06 15.276 0.610106 16.112 0.915156 16.492C 1.14394 16.72 1.60152 17.1 2.36414 17.328C 2.36414 17.784 2.36414 18.316 2.36414 18.772L 2.36414 20.14L 2.36414 21.508C 2.36414 22.8 2.36414 24.092 2.36414 25.46C 2.36414 26.448 2.66919 27.36 3.35556 27.968C 3.81313 28.424 4.57576 28.956 5.87223 28.956L 5.94848 28.956C 6.55858 28.956 7.24495 28.956 7.85505 28.956C 8.46515 28.956 9.15151 28.956 9.76161 28.956L 9.83788 28.956C 11.0581 28.956 11.897 28.424 12.3546 27.968C 12.8121 27.512 13.346 26.752 13.346 25.46C 13.346 22.8 13.346 20.216 13.346 17.556C 15.0237 17.48 16.3202 16.188 16.4727 14.516C 16.549 13.224 16.7015 12.236 16.7778 11.248C 16.9303 10.108 16.549 9.348 16.1677 8.892C 16.4727 8.436 16.854 7.752 16.854 6.84C 16.854 5.7 16.854 4.636 16.854 3.496C 16.854 2.28 16.2439 1.52 15.9389 1.14C 15.1763 0.304 14.4136 -1.44959e-07 13.4985 -1.44959e-07Z"/>
</defs>
</svg>
