<svg width="53" height="53" viewBox="0 0 53 53" version="1.1" xmlns="http://www.w3.org/2000/svg" xmlns:xlink="http://www.w3.org/1999/xlink">
<title>Group</title>
<desc>Created using Figma</desc>
<g id="Canvas" transform="translate(7220 -1468)">
<g id="Group">
<g id="Rectangle 31">
<use xlink:href="#path0_fill" transform="translate(-7220 1468)" fill="#FFFFFF"/>
<mask id="mask0_outline_ins">
<use xlink:href="#path0_fill" fill="white" transform="translate(-7220 1468)"/>
</mask>
<g mask="url(#mask0_outline_ins)">
<use xlink:href="#path1_stroke_2x" transform="translate(-7220 1468)"/>
</g>
</g>
<g id="Vector">
<use xlink:href="#path2_fill" transform="translate(-7202.43 1478)" fill="#FFFFFF"/>
<use xlink:href="#path3_stroke" transform="translate(-7202.43 1478)"/>
</g>
<g id="Vector">
<use xlink:href="#path4_stroke" transform="translate(-7190.07 1494.52)"/>
</g>
<g id="Vector">
<use xlink:href="#path5_stroke" transform="translate(-7193.36 1496.24)"/>
</g>
<g id="Vector">
<use xlink:href="#path6_fill" transform="translate(-7217 1509)" fill="#FFFFFF"/>
<use xlink:href="#path7_stroke" transform="translate(-7217 1509)"/>
</g>
</g>
</g>
<defs>
<path id="path0_fill" d="M 0 0L 53 0L 53 53L 0 53L 0 0Z"/>
<path id="path1_stroke_2x" d="M 0 0L 0 -4L -4 -4L -4 0L 0 0ZM 53 0L 57 0L 57 -4L 53 -4L 53 0ZM 53 53L 53 57L 57 57L 57 53L 53 53ZM 0 53L -4 53L -4 57L 0 57L 0 53ZM 0 4L 53 4L 53 -4L 0 -4L 0 4ZM 49 0L 49 53L 57 53L 57 0L 49 0ZM 53 49L 0 49L 0 57L 53 57L 53 49ZM 4 53L 4 0L -4 0L -4 53L 4 53Z"/>
<path id="path2_fill" d="M 19.1701 5.50725C 18.9876 5.50725 18.8658 5.50725 18.6833 5.50725C 17.5878 2.26409 14.545 0 10.9544 0C 6.39004 0 2.73859 3.6715 2.73859 8.26087C 2.73859 9.23994 2.73859 10.0966 2.73859 11.0145C 1.21715 11.0145 -4.64306e-07 12.2383 -4.64306e-07 13.7681C -4.64306e-07 15.2979 1.21715 16.5217 2.73859 16.5217C 4.07745 16.5217 17.7704 16.5217 19.1701 16.5217C 22.213 16.5217 24.6473 14.0741 24.6473 11.0145C 24.6473 7.95491 22.213 5.50725 19.1701 5.50725Z"/>
<path id="path3_stroke" d="M 18.6833 5.50725L 16.7884 6.14726L 17.2478 7.50725L 18.6833 7.50725L 18.6833 5.50725ZM 2.73859 11.0145L 2.73859 13.0145L 4.73859 13.0145L 4.73859 11.0145L 2.73859 11.0145ZM 19.1701 3.50725C 18.9876 3.50725 18.8658 3.50725 18.6833 3.50725L 18.6833 7.50725C 18.8658 7.50725 18.9876 7.50725 19.1701 7.50725L 19.1701 3.50725ZM 20.5781 4.86723C 19.2107 0.818894 15.4109 -2 10.9544 -2L 10.9544 2C 13.679 2 15.965 3.70929 16.7884 6.14726L 20.5781 4.86723ZM 10.9544 -2C 5.27516 -2 0.738588 2.57727 0.738588 8.26087L 4.73859 8.26087C 4.73859 4.76573 7.50492 2 10.9544 2L 10.9544 -2ZM 0.738588 8.26087C 0.738588 9.23994 0.738588 10.0966 0.738588 11.0145L 4.73859 11.0145C 4.73859 10.0966 4.73859 9.23994 4.73859 8.26087L 0.738588 8.26087ZM 2.73859 9.01449C 0.102271 9.01449 -2 11.1441 -2 13.7681L 2 13.7681C 2 13.3326 2.33203 13.0145 2.73859 13.0145L 2.73859 9.01449ZM -2 13.7681C -2 16.3921 0.102271 18.5217 2.73859 18.5217L 2.73859 14.5217C 2.33203 14.5217 2 14.2037 2 13.7681L -2 13.7681ZM 2.73859 18.5217C 4.07745 18.5217 17.7704 18.5217 19.1701 18.5217L 19.1701 14.5217C 17.7704 14.5217 4.07745 14.5217 2.73859 14.5217L 2.73859 18.5217ZM 19.1701 18.5217C 23.3279 18.5217 26.6473 15.1683 26.6473 11.0145L 22.6473 11.0145C 22.6473 12.9798 21.0981 14.5217 19.1701 14.5217L 19.1701 18.5217ZM 26.6473 11.0145C 26.6473 6.86068 23.3279 3.50725 19.1701 3.50725L 19.1701 7.50725C 21.0981 7.50725 22.6473 9.04914 22.6473 11.0145L 26.6473 11.0145Z"/>
<path id="path4_stroke" d="M 1.3922 8.04458L 8.20825 1.43589L 5.42384 -1.43589L -1.39221 5.17281L 1.3922 8.04458Z"/>
<path id="path5_stroke" d="M 1.79081 -0.890514L 0.900292 -2.68132L -2.68132 -0.900292L -1.79081 0.890513L 1.79081 -0.890514ZM 4.62517 9.30113L 6.62517 9.30113L 6.62517 8.8313L 6.41598 8.41061L 4.62517 9.30113ZM 2.62517 19.7649L 2.62517 21.7649L 6.62517 21.7649L 6.62517 19.7649L 2.62517 19.7649ZM -1.79081 0.890513L 2.83437 10.1916L 6.41598 8.41061L 1.79081 -0.890514L -1.79081 0.890513ZM 2.62517 9.30113L 2.62517 19.7649L 6.62517 19.7649L 6.62517 9.30113L 2.62517 9.30113Z"/>
<path id="path6_fill" d="M 0 8C 4.6473 8 7.50207 2.89691 11.6183 1.33197C 26.0249 -3.9072 40.0332 8 48 8"/>
<path id="path7_stroke" d="M 11.6183 1.33197L 10.9347 -0.547603L 10.9211 -0.54264L 10.9075 -0.537479L 11.6183 1.33197ZM 0 10C 3.08375 10 5.44254 8.29095 7.27024 6.80445C 9.28317 5.16731 10.6639 3.83448 12.329 3.20141L 10.9075 -0.537479C 8.45643 0.394405 6.35168 2.39559 4.74635 3.70123C 2.9558 5.15751 1.56355 6 0 6L 0 10ZM 12.3018 3.21154C 18.8175 0.842014 25.3512 2.29932 31.5323 4.57785C 34.6173 5.71378 37.5489 7.03163 40.2551 8.08525C 42.9107 9.11847 45.5944 10 48 10L 48 6C 46.4222 6 44.3673 5.39313 41.7055 4.35747C 39.0943 3.34222 36.1296 2.01071 32.9158 0.824736C 26.4994 -1.54053 18.8257 -3.41725 10.9347 -0.547603L 12.3018 3.21154Z"/>
</defs>
</svg>
