<svg width="58" height="58" viewBox="0 0 58 58" fill="none" xmlns="http://www.w3.org/2000/svg">
<path id="Shape" fill-rule="evenodd" clip-rule="evenodd" d="M46.0951 41.5533L57.0472 52.4731C57.657 53.0779 58 53.9012 58 54.7601C58 55.619 57.657 56.4423 57.0472 57.0472C56.4423 57.657 55.619 58 54.7601 58C53.9012 58 53.0779 57.657 52.4731 57.0472L41.5533 46.0951C37.0515 49.6287 31.4924 51.5461 25.7695 51.539C11.5374 51.539 0 40.0016 0 25.7695C0 11.5374 11.5374 0 25.7695 0C40.0016 0 51.539 11.5374 51.539 25.7695C51.5461 31.4924 49.6287 37.0515 46.0951 41.5533ZM25.7695 6.44237C15.0954 6.44237 6.44237 15.0954 6.44237 25.7695C6.44237 36.4435 15.0954 45.0966 25.7695 45.0966C36.4435 45.0966 45.0966 36.4435 45.0966 25.7695C45.0966 15.0954 36.4435 6.44237 25.7695 6.44237Z" fill="#E30611"/>
</svg>
