<svg width="50" height="50" viewBox="0 0 50 50" version="1.1" xmlns="http://www.w3.org/2000/svg" xmlns:xlink="http://www.w3.org/1999/xlink">
<title>right_arrow</title>
<desc>Created using Figma</desc>
<g id="Canvas" transform="translate(7043 -4776)">
<g id="right_arrow">
<g id="Rectangle 11">
<use xlink:href="#path0_fill" transform="matrix(-1 -1.22465e-16 1.22465e-16 -1 -6993 4826)" fill="#FFFFFF"/>
</g>
<g id="Vector 2">
<use xlink:href="#path1_stroke" transform="matrix(1 2.44929e-16 -2.44929e-16 1 -7023 4789)"/>
</g>
</g>
</g>
<defs>
<path id="path0_fill" d="M 0 0L 50 0L 50 50L 0 50L 0 0Z"/>
<path id="path1_stroke" d="M 12 12L 13.4142 13.4142L 14.8284 12L 13.4142 10.5858L 12 12ZM -1.41421 1.41421L 10.5858 13.4142L 13.4142 10.5858L 1.41421 -1.41421L -1.41421 1.41421ZM 10.5858 10.5858L -1.41421 22.5858L 1.41421 25.4142L 13.4142 13.4142L 10.5858 10.5858Z"/>
</defs>
</svg>
