<svg width="54" height="54" viewBox="0 0 54 54" version="1.1" xmlns="http://www.w3.org/2000/svg" xmlns:xlink="http://www.w3.org/1999/xlink">
<title>Group</title>
<desc>Created using Figma</desc>
<g id="Canvas" transform="translate(8238 -691)">
<g id="Group">
<g id="Vector">
<use xlink:href="#path0_stroke" transform="translate(-8236 693)" fill="#A0925E"/>
</g>
<g id="Vector">
<use xlink:href="#path1_stroke" transform="translate(-8218.33 701)" fill="#A0925E"/>
</g>
<g id="Vector">
<use xlink:href="#path2_stroke" transform="translate(-8207.08 716)" fill="#A0925E"/>
</g>
<g id="Vector">
<use xlink:href="#path3_stroke" transform="translate(-8210.08 717.5)" fill="#A0925E"/>
</g>
<g id="Vector">
<use xlink:href="#path4_stroke" transform="translate(-8230.75 728.753)" fill="#A0925E"/>
</g>
</g>
</g>
<defs>
<path id="path0_stroke" d="M 0 0L 0 -1.5L -1.5 -1.5L -1.5 0L 0 0ZM 50 0L 51.5 0L 51.5 -1.5L 50 -1.5L 50 0ZM 50 50L 50 51.5L 51.5 51.5L 51.5 50L 50 50ZM 0 50L -1.5 50L -1.5 51.5L 0 51.5L 0 50ZM 0 1.5L 50 1.5L 50 -1.5L 0 -1.5L 0 1.5ZM 48.5 0L 48.5 50L 51.5 50L 51.5 0L 48.5 0ZM 50 48.5L 0 48.5L 0 51.5L 50 51.5L 50 48.5ZM 1.5 50L 1.5 0L -1.5 0L -1.5 50L 1.5 50Z"/>
<path id="path1_stroke" d="M 17.0833 5L 15.6644 5.48649L 16.0119 6.5L 17.0833 6.5L 17.0833 5ZM 2.5 10L 2.5 11.5L 4 11.5L 4 10L 2.5 10ZM 17.5 3.5C 17.3333 3.5 17.25 3.5 17.0833 3.5L 17.0833 6.5C 17.25 6.5 17.3333 6.5 17.5 6.5L 17.5 3.5ZM 18.5023 4.51351C 17.2944 0.990562 13.8909 -1.5 10 -1.5L 10 1.5C 12.6091 1.5 14.8723 3.17611 15.6644 5.48649L 18.5023 4.51351ZM 10 -1.5C 5.00491 -1.5 1 2.50491 1 7.5L 4 7.5C 4 4.16176 6.66176 1.5 10 1.5L 10 -1.5ZM 1 7.5C 1 8.41667 1 9.16667 1 10L 4 10C 4 9.16667 4 8.41667 4 7.5L 1 7.5ZM 2.5 8.5C 0.254907 8.5 -1.5 10.2549 -1.5 12.5L 1.5 12.5C 1.5 11.9118 1.91176 11.5 2.5 11.5L 2.5 8.5ZM -1.5 12.5C -1.5 14.7451 0.254907 16.5 2.5 16.5L 2.5 13.5C 1.91176 13.5 1.5 13.0882 1.5 12.5L -1.5 12.5ZM 2.5 16.5C 3.66667 16.5 16.25 16.5 17.5 16.5L 17.5 13.5C 16.25 13.5 3.66667 13.5 2.5 13.5L 2.5 16.5ZM 17.5 16.5C 21.0784 16.5 24 13.5784 24 10L 21 10C 21 11.9216 19.4216 13.5 17.5 13.5L 17.5 16.5ZM 24 10C 24 6.42157 21.0784 3.5 17.5 3.5L 17.5 6.5C 19.4216 6.5 21 8.07843 21 10L 24 10Z"/>
<path id="path2_stroke" d="M 1.0388 7.08208L 7.2888 1.08208L 5.2112 -1.08208L -1.0388 4.91792L 1.0388 7.08208Z"/>
<path id="path3_stroke" d="M 1.34164 -0.670821L 0.670819 -2.01246L -2.01246 -0.67082L -1.34164 0.67082L 1.34164 -0.670821ZM 4.25 8.5L 5.75 8.5L 5.75 8.1459L 5.59164 7.82918L 4.25 8.5ZM 2.75 18L 2.75 19.5L 5.75 19.5L 5.75 18L 2.75 18ZM -1.34164 0.67082L 2.90836 9.17082L 5.59164 7.82918L 1.34164 -0.670821L -1.34164 0.67082ZM 2.75 8.5L 2.75 18L 5.75 18L 5.75 8.5L 2.75 8.5Z"/>
<path id="path4_stroke" d="M 9.75 1.07984L 9.24923 -0.334106L 9.2455 -0.332773L 9.75 1.07984ZM 1.58946e-07 7.99651C 2.51539 7.99651 4.43515 6.64419 5.96334 5.43217C 7.62131 4.11723 8.80742 3.00927 10.2545 2.49245L 9.2455 -0.332773C 7.19258 0.400411 5.46203 2.00078 4.09916 3.08168C 2.60652 4.26549 1.40128 4.99651 1.58946e-07 4.99651L 1.58946e-07 7.99651ZM 10.2508 2.49378C 15.7469 0.547225 21.2678 1.75196 26.4531 3.60678C 29.0413 4.53169 31.4981 5.60241 33.7597 6.45598C 35.9849 7.29532 38.1988 7.99651 40.1667 7.99651L 40.1667 4.99651C 38.8012 4.99651 37.0463 4.48936 34.8184 3.64902C 32.6269 2.82289 30.1462 1.74258 27.4635 0.782063C 22.1072 -1.13395 15.7531 -2.63755 9.24923 -0.334101L 10.2508 2.49378Z"/>
</defs>
</svg>
