<svg width="54" height="54" viewBox="0 0 54 54" version="1.1" xmlns="http://www.w3.org/2000/svg" xmlns:xlink="http://www.w3.org/1999/xlink">
<title>Group</title>
<desc>Created using Figma</desc>
<g id="Canvas" transform="translate(7648 -781)">
<g id="Group">
<g id="Vector">
<use xlink:href="#path0_stroke" transform="translate(-7646 783)" fill="#BDDC94"/>
</g>
<g id="Vector">
<use xlink:href="#path1_stroke" transform="translate(-7614.5 797.167)" fill="#BDDC94"/>
</g>
<g id="Vector">
<use xlink:href="#path2_fill" transform="matrix(0.7071 -0.7071 0.7071 0.7071 -7633.96 816.58)" fill="#BDDC94"/>
</g>
<g id="Vector">
<use xlink:href="#path3_stroke" transform="translate(-7634 798.585)" fill="#BDDC94"/>
</g>
</g>
</g>
<defs>
<path id="path0_stroke" d="M 0 0L 0 -1.5L -1.5 -1.5L -1.5 0L 0 0ZM 50 0L 51.5 0L 51.5 -1.5L 50 -1.5L 50 0ZM 50 50L 50 51.5L 51.5 51.5L 51.5 50L 50 50ZM 0 50L -1.5 50L -1.5 51.5L 0 51.5L 0 50ZM 0 1.5L 50 1.5L 50 -1.5L 0 -1.5L 0 1.5ZM 48.5 0L 48.5 50L 51.5 50L 51.5 0L 48.5 0ZM 50 48.5L 0 48.5L 0 51.5L 50 51.5L 50 48.5ZM 1.5 50L 1.5 0L -1.5 0L -1.5 50L 1.5 50Z"/>
<path id="path1_stroke" d="M -1.06066 2.43934C -1.64645 3.02513 -1.64645 3.97487 -1.06066 4.56066C -0.474874 5.14645 0.474874 5.14645 1.06066 4.56066L -1.06066 2.43934ZM 4.56066 1.06066C 5.14645 0.474874 5.14645 -0.474874 4.56066 -1.06066C 3.97487 -1.64645 3.02513 -1.64645 2.43934 -1.06066L 4.56066 1.06066ZM 1.06066 4.56066L 4.56066 1.06066L 2.43934 -1.06066L -1.06066 2.43934L 1.06066 4.56066Z"/>
<path id="path2_fill" d="M 2.5 5C 3.88071 5 5 3.88071 5 2.5C 5 1.11929 3.88071 0 2.5 0C 1.11929 0 0 1.11929 0 2.5C 0 3.88071 1.11929 5 2.5 5Z"/>
<path id="path3_stroke" d="M 19.5 12.7483L 20.5523 13.8173L 20.5607 13.809L 19.5 12.7483ZM 8.91667 2.16496L 7.41667 2.16496L 7.41667 5.04474L 9.77644 3.3941L 8.91667 2.16496ZM -1.06066 4.89229L 16.606 22.559L 18.7273 20.4376L 1.06066 2.77097L -1.06066 4.89229ZM 18.7273 20.4376C 17.691 19.4013 17.8019 18.0652 18.6061 16.4943C 18.9966 15.7213 19.4644 15.0855 19.8845 14.5704C 20.0861 14.3222 20.2498 14.1388 20.3792 13.9988C 20.44 13.9331 20.4825 13.8886 20.5165 13.8536C 20.5316 13.8381 20.5404 13.8292 20.5484 13.8212C 20.5515 13.8181 20.5524 13.8171 20.554 13.8156C 20.5544 13.8152 20.5543 13.8153 20.5541 13.8155C 20.5542 13.8153 20.5533 13.8162 20.5534 13.8161C 20.5533 13.8163 20.553 13.8166 20.5529 13.8167C 20.5526 13.817 20.5523 13.8173 19.5 12.7483C 18.4477 11.6793 18.4474 11.6797 18.447 11.6801C 18.4468 11.6802 18.4464 11.6806 18.4461 11.6809C 18.4457 11.6813 18.4448 11.6822 18.444 11.683C 18.4429 11.6841 18.4405 11.6865 18.4383 11.6887C 18.4348 11.6922 18.4281 11.6988 18.4212 11.7058C 18.4092 11.7178 18.3885 11.7388 18.3654 11.7626C 18.323 11.8062 18.2544 11.878 18.1761 11.9626C 18.0276 12.1234 17.8019 12.3775 17.5582 12.6762C 17.0877 13.2549 16.4409 14.1503 15.9356 15.1273C 14.9481 17.0564 14.1423 20.0953 16.606 22.559L 18.7273 20.4376ZM 20.5607 13.809C 24.0631 10.3065 24.0631 4.60676 20.5607 1.1043L 18.4393 3.22562C 20.7702 5.5565 20.7702 9.35676 18.4393 11.6876L 20.5607 13.809ZM 20.5607 1.1043C 18.8631 -0.593252 16.8681 -1.50941 14.6395 -1.49993C 12.4591 -1.49065 10.2472 -0.59627 8.05689 0.93582L 9.77644 3.3941C 11.6697 2.06978 13.2911 1.50583 14.6523 1.50004C 15.9653 1.49446 17.2202 2.00651 18.4393 3.22562L 20.5607 1.1043ZM 10.4167 2.16496C 10.4167 1.93409 10.358 1.4815 9.97292 1.09943C 9.5886 0.718099 9.13681 0.662835 8.90796 0.664014C 8.52861 0.665969 8.25322 0.817703 8.24217 0.823228C 8.15885 0.868004 8.04571 0.940284 8.0098 0.966223C 7.97106 0.995381 7.91891 1.03742 7.89005 1.06164C 7.84126 1.10277 7.77737 1.1582 7.70491 1.22022C 7.55635 1.34744 7.36128 1.51233 7.10663 1.70995C 6.57967 2.12023 5.92866 2.58247 5.14073 2.96446C 3.54655 3.74757 2.1536 3.86391 1.06066 2.77097L -1.06066 4.89229C 1.42973 7.38268 4.49512 6.62402 6.46344 5.65713C 7.45676 5.16412 8.36304 4.53261 8.94806 4.07831C 9.2494 3.84364 9.49899 3.63353 9.65609 3.49902C 9.73646 3.43019 9.79066 3.38308 9.82174 3.35698C 9.83282 3.3476 9.77438 3.39302 9.79272 3.37894C 9.80309 3.37138 9.71785 3.43081 9.73518 3.41913C 9.71389 3.43321 9.65894 3.46896 9.58341 3.50671C 9.57493 3.51095 9.30148 3.66203 8.92342 3.66397C 8.69522 3.66515 8.24393 3.61004 7.85993 3.22904C 7.47518 2.84729 7.41667 2.39518 7.41667 2.16496L 10.4167 2.16496Z"/>
</defs>
</svg>
