<svg width="54" height="54" viewBox="0 0 54 54" version="1.1" xmlns="http://www.w3.org/2000/svg" xmlns:xlink="http://www.w3.org/1999/xlink">
<title>Group</title>
<desc>Created using Figma</desc>
<g id="Canvas" transform="translate(7355 -691)">
<g id="Group">
<g id="Vector">
<use xlink:href="#path0_stroke" transform="translate(-7353 693)" fill="#5AB7B2"/>
</g>
<g id="Vector">
<use xlink:href="#path1_stroke" transform="translate(-7342.67 716.083)" fill="#5AB7B2"/>
</g>
<g id="Vector">
<use xlink:href="#path2_stroke" transform="translate(-7338.42 705.5)" fill="#5AB7B2"/>
</g>
</g>
</g>
<defs>
<path id="path0_stroke" d="M 0 0L 0 -1.5L -1.5 -1.5L -1.5 0L 0 0ZM 50 0L 51.5 0L 51.5 -1.5L 50 -1.5L 50 0ZM 50 50L 50 51.5L 51.5 51.5L 51.5 50L 50 50ZM 0 50L -1.5 50L -1.5 51.5L 0 51.5L 0 50ZM 0 1.5L 50 1.5L 50 -1.5L 0 -1.5L 0 1.5ZM 48.5 0L 48.5 50L 51.5 50L 51.5 0L 48.5 0ZM 50 48.5L 0 48.5L 0 51.5L 50 51.5L 50 48.5ZM 1.5 50L 1.5 0L -1.5 0L -1.5 50L 1.5 50Z"/>
<path id="path1_stroke" d="M 21.1667 8.5L 21.1667 10L 22.6667 10L 22.6667 8.5L 21.1667 8.5ZM 8.5 8.5L 7 8.5L 7 10L 8.5 10L 8.5 8.5ZM -3.17891e-07 16.9167L -1.5 16.9167L -1.5 18.4167L -3.17891e-07 18.4167L -3.17891e-07 16.9167ZM 29.6667 16.9167L 29.6667 18.4167L 31.1667 18.4167L 31.1667 16.9167L 29.6667 16.9167ZM 31.1667 4.25C 31.1667 1.08824 28.5784 -1.5 25.4167 -1.5L 25.4167 1.5C 26.9216 1.5 28.1667 2.74509 28.1667 4.25L 31.1667 4.25ZM 25.4167 -1.5C 22.2549 -1.5 19.6667 1.08824 19.6667 4.25L 22.6667 4.25C 22.6667 2.74509 23.9118 1.5 25.4167 1.5L 25.4167 -1.5ZM 19.6667 4.25L 19.6667 8.5L 22.6667 8.5L 22.6667 4.25L 19.6667 4.25ZM 21.1667 7L 8.5 7L 8.5 10L 21.1667 10L 21.1667 7ZM 10 8.5L 10 4.25L 7 4.25L 7 8.5L 10 8.5ZM 10 4.25C 10 1.08824 7.41176 -1.5 4.25 -1.5L 4.25 1.5C 5.75491 1.5 7 2.74509 7 4.25L 10 4.25ZM 4.25 -1.5C 1.08824 -1.5 -1.5 1.08824 -1.5 4.25L 1.5 4.25C 1.5 2.74509 2.74509 1.5 4.25 1.5L 4.25 -1.5ZM -1.5 4.25L -1.5 16.9167L 1.5 16.9167L 1.5 4.25L -1.5 4.25ZM -3.17891e-07 18.4167L 29.6667 18.4167L 29.6667 15.4167L -3.17891e-07 15.4167L -3.17891e-07 18.4167ZM 31.1667 16.9167L 31.1667 4.25L 28.1667 4.25L 28.1667 16.9167L 31.1667 16.9167Z"/>
<path id="path2_stroke" d="M 22.6667 10.5833C 22.6667 3.92157 17.2451 -1.5 10.5833 -1.5L 10.5833 1.5C 15.5882 1.5 19.6667 5.57843 19.6667 10.5833L 22.6667 10.5833ZM 10.5833 -1.5C 3.92157 -1.5 -1.5 3.92157 -1.5 10.5833L 1.5 10.5833C 1.5 5.57843 5.57843 1.5 10.5833 1.5L 10.5833 -1.5Z"/>
</defs>
</svg>
