<svg width="54" height="54" viewBox="0 0 54 54" version="1.1" xmlns="http://www.w3.org/2000/svg" xmlns:xlink="http://www.w3.org/1999/xlink">
<title>Group</title>
<desc>Created using Figma</desc>
<g id="Canvas" transform="translate(7355 -781)">
<g id="Group">
<g id="Vector">
<use xlink:href="#path0_stroke" transform="translate(-7353 783)" fill="#084975"/>
</g>
<g id="Vector">
<use xlink:href="#path1_stroke" transform="translate(-7343 798)" fill="#084975"/>
</g>
<g id="Vector">
<use xlink:href="#path2_stroke" transform="translate(-7318 812)" fill="#084975"/>
</g>
<g id="Vector">
<use xlink:href="#path3_stroke" transform="translate(-7333 805)" fill="#084975"/>
</g>
<g id="Vector">
<use xlink:href="#path3_stroke" transform="translate(-7323 805)" fill="#084975"/>
</g>
<g id="Vector">
<use xlink:href="#path2_stroke" transform="translate(-7328 812)" fill="#084975"/>
</g>
<g id="Vector">
<use xlink:href="#path2_stroke" transform="translate(-7338 812)" fill="#084975"/>
</g>
<g id="Vector">
<use xlink:href="#path2_stroke" transform="translate(-7323 817)" fill="#084975"/>
</g>
<g id="Vector">
<use xlink:href="#path2_stroke" transform="translate(-7333 817)" fill="#084975"/>
</g>
<g id="Vector">
<use xlink:href="#path2_stroke" transform="translate(-7318 822)" fill="#084975"/>
</g>
<g id="Vector">
<use xlink:href="#path2_stroke" transform="translate(-7328 822)" fill="#084975"/>
</g>
<g id="Vector">
<use xlink:href="#path2_stroke" transform="translate(-7338 822)" fill="#084975"/>
</g>
<g id="Vector">
<use xlink:href="#path4_stroke" transform="translate(-7328 790.333)" fill="#084975"/>
</g>
</g>
</g>
<defs>
<path id="path0_stroke" d="M 0 0L 0 -1.5L -1.5 -1.5L -1.5 0L 0 0ZM 50 0L 51.5 0L 51.5 -1.5L 50 -1.5L 50 0ZM 50 50L 50 51.5L 51.5 51.5L 51.5 50L 50 50ZM 0 50L -1.5 50L -1.5 51.5L 0 51.5L 0 50ZM 0 1.5L 50 1.5L 50 -1.5L 0 -1.5L 0 1.5ZM 48.5 0L 48.5 50L 51.5 50L 51.5 0L 48.5 0ZM 50 48.5L 0 48.5L 0 51.5L 50 51.5L 50 48.5ZM 1.5 50L 1.5 0L -1.5 0L -1.5 50L 1.5 50Z"/>
<path id="path1_stroke" d="M 0 7.33333L -1.5 7.33333L -1.5 8.83333L 0 8.83333L 0 7.33333ZM 0 5L -1.06066 3.93934L -1.5 4.37868L -1.5 5L 0 5ZM 30 5L 31.5 5L 31.5 4.37868L 31.0607 3.93934L 30 5ZM 30 7.33333L 30 8.83333L 31.5 8.83333L 31.5 7.33333L 30 7.33333ZM 1.5 7.33333L 1.5 5L -1.5 5L -1.5 7.33333L 1.5 7.33333ZM 0 5C 1.06066 6.06066 1.06016 6.06116 1.05968 6.06164C 1.05955 6.06177 1.05908 6.06224 1.05881 6.06251C 1.05901 6.06231 1.05702 6.06429 1.05741 6.0639C 1.0575 6.06381 1.05575 6.06554 1.05594 6.06536C 1.05492 6.06636 1.05633 6.06495 1.05834 6.06302C 1.06519 6.05637 1.07096 6.05082 1.08451 6.03815C 1.11742 6.00726 1.15699 5.97089 1.22213 5.91402C 1.36471 5.78912 1.55544 5.62968 1.8375 5.41875C 2.42886 4.97451 3.25289 4.42237 4.42082 3.84164C 6.82403 2.63582 10.2403 1.48063 15 1.5L 15 -1.5C 9.75973 -1.48063 5.67597 -0.135819 3.07918 1.15836C 1.74711 1.82764 0.696141 2.52549 0.0375 3.01875C -0.305444 3.27657 -0.583462 3.50776 -0.753382 3.65629C -0.844489 3.73614 -0.922109 3.80719 -0.967318 3.84954C -0.992838 3.8735 -1.01637 3.89602 -1.02904 3.9083C -1.0368 3.91582 -1.04475 3.9236 -1.04861 3.9274C -1.05124 3.92999 -1.05427 3.93298 -1.05558 3.93428C -1.05658 3.93527 -1.05785 3.93654 -1.05835 3.93704C -1.05878 3.93746 -1.05935 3.93804 -1.05957 3.93825C -1.06012 3.9388 -1.06066 3.93934 0 5ZM 15 1.5C 19.7597 1.48063 23.176 2.63582 25.5792 3.84164C 26.7471 4.42237 27.5711 4.97451 28.1625 5.41875C 28.4446 5.62968 28.6353 5.78912 28.7779 5.91402C 28.843 5.97089 28.8826 6.00726 28.9155 6.03815C 28.929 6.05082 28.9348 6.05637 28.9417 6.06302C 28.9437 6.06495 28.9451 6.06636 28.9441 6.06536C 28.9443 6.06554 28.9425 6.06381 28.9426 6.0639C 28.943 6.06429 28.941 6.06231 28.9412 6.06251C 28.9409 6.06224 28.9405 6.06177 28.9403 6.06164C 28.9398 6.06116 28.9393 6.06066 30 5C 31.0607 3.93934 31.0601 3.9388 31.0596 3.93825C 31.0594 3.93804 31.0588 3.93746 31.0584 3.93704C 31.0579 3.93654 31.0566 3.93527 31.0556 3.93428C 31.0543 3.93298 31.0512 3.92999 31.0486 3.9274C 31.0448 3.9236 31.0368 3.91582 31.029 3.9083C 31.0164 3.89602 30.9928 3.8735 30.9673 3.84954C 30.9221 3.80719 30.8445 3.73614 30.7534 3.65629C 30.5835 3.50776 30.3054 3.27657 29.9625 3.01875C 29.3039 2.52549 28.2529 1.82764 26.9208 1.15836C 24.324 -0.135819 20.2403 -1.48063 15 -1.5L 15 1.5ZM 28.5 5L 28.5 7.33333L 31.5 7.33333L 31.5 5L 28.5 5ZM 30 5.83333L 0 5.83333L 0 8.83333L 30 8.83333L 30 5.83333Z"/>
<path id="path2_stroke" d="M 1.5 5L 1.5 0L -1.5 0L -1.5 5L 1.5 5Z"/>
<path id="path3_stroke" d="M 1.5 7L 1.5 0L -1.5 0L -1.5 7L 1.5 7Z"/>
<path id="path4_stroke" d="M 15 -1.5L 5 -1.5L 5 1.5L 15 1.5L 15 -1.5ZM 5 -1.5C 1.42157 -1.5 -1.5 1.42157 -1.5 5L 1.5 5C 1.5 3.07843 3.07843 1.5 5 1.5L 5 -1.5ZM -1.5 5L -1.5 7.66667L 1.5 7.66667L 1.5 5L -1.5 5Z"/>
</defs>
</svg>
