<svg width="42" height="42" viewBox="0 0 42 42" version="1.1" xmlns="http://www.w3.org/2000/svg" xmlns:xlink="http://www.w3.org/1999/xlink">
<title>Group</title>
<desc>Created using Figma</desc>
<g id="Canvas" transform="translate(8726 -1843)">
<g id="Group">
<g id="Group">
<g id="Vector">
<use xlink:href="#path0_fill" transform="translate(-8724 1845)" fill="#FFFFFF"/>
<use xlink:href="#path1_stroke" transform="translate(-8724 1845)" fill="#ED2224"/>
</g>
<g id="Vector">
<mask id="mask0_outline_out">
<rect id="mask0_outline_inv" fill="white" x="-4" y="-4" width="27" height="27" transform="translate(-8714.92 1854.07)"/>
<use xlink:href="#path2_fill" fill="black" transform="translate(-8714.92 1854.07)"/>
</mask>
<g mask="url(#mask0_outline_out)">
<use xlink:href="#path3_stroke_2x" transform="translate(-8714.92 1854.07)" fill="#ED2224"/>
</g>
</g>
</g>
</g>
</g>
<defs>
<path id="path0_fill" d="M 38.1155 0L 0 0L 0 38.1107L 38.1155 38.1107L 38.1155 0Z"/>
<path id="path1_stroke" d="M 0 0L 0 -1.5L -1.5 -1.5L -1.5 0L 0 0ZM 38.1155 0L 39.6155 0L 39.6155 -1.5L 38.1155 -1.5L 38.1155 0ZM 38.1155 38.1107L 38.1155 39.6107L 39.6155 39.6107L 39.6155 38.1107L 38.1155 38.1107ZM 0 38.1107L -1.5 38.1107L -1.5 39.6107L 0 39.6107L 0 38.1107ZM 0 1.5L 38.1155 1.5L 38.1155 -1.5L 0 -1.5L 0 1.5ZM 36.6155 0L 36.6155 38.1107L 39.6155 38.1107L 39.6155 0L 36.6155 0ZM 38.1155 36.6107L 0 36.6107L 0 39.6107L 38.1155 39.6107L 38.1155 36.6107ZM 1.5 38.1107L 1.5 0L -1.5 0L -1.5 38.1107L 1.5 38.1107Z"/>
<path id="path2_fill" d="M 6.7449 13.9581C 8.66889 15.4009 15.4029 8.66782 13.9599 6.74407C 13.7194 6.5036 12.7574 5.54172 12.7574 5.54172C 12.0359 4.82032 12.0359 3.85844 12.7574 3.13704L 15.1624 0.732349C 16.3648 -0.469995 16.8458 0.0109425 17.5673 0.732349L 18.7698 1.93469C 20.2128 3.3775 20.2128 5.78219 19.4913 7.46547C 18.2888 10.3511 10.5929 18.2866 7.4664 19.4889C 5.78291 20.2103 3.37792 20.2103 1.93493 18.7675L 0.73244 17.5652C 0.0109439 16.8438 -0.470053 16.3628 0.73244 15.1605L 3.13743 12.7558C 3.85892 12.0344 4.82092 12.0344 5.54241 12.7558C 5.54241 12.7558 6.50441 13.7177 6.7449 13.9581Z"/>
<path id="path3_stroke_2x" d="M 6.7449 13.9581L 4.62372 16.0796L 4.77448 16.2303L 4.94505 16.3582L 6.7449 13.9581ZM 13.9599 6.74407L 16.3598 4.94392L 16.2318 4.77337L 16.0811 4.62262L 13.9599 6.74407ZM 12.7574 3.13704L 10.6362 1.01558L 10.6362 1.01558L 12.7574 3.13704ZM 15.1624 0.732349L 17.2835 2.8538L 17.2835 2.8538L 15.1624 0.732349ZM 17.5673 0.732349L 15.4462 2.8538L 15.4462 2.8538L 17.5673 0.732349ZM 18.7698 1.93469L 20.891 -0.18676L 20.891 -0.186761L 18.7698 1.93469ZM 19.4913 7.46547L 16.7339 6.28359L 16.728 6.29752L 16.7222 6.31151L 19.4913 7.46547ZM 7.4664 19.4889L 6.38958 16.6888L 6.33677 16.7091L 6.28477 16.7314L 7.4664 19.4889ZM 1.93493 18.7675L -0.186257 20.889L -0.186257 20.889L 1.93493 18.7675ZM 0.73244 17.5652L 2.85363 15.4437L 2.85363 15.4437L 0.73244 17.5652ZM 0.73244 15.1605L 2.85363 17.2819L 2.85363 17.2819L 0.73244 15.1605ZM 3.13743 12.7558L 1.01624 10.6343L 1.01624 10.6343L 3.13743 12.7558ZM 5.54241 12.7558L 3.42122 14.8772L 5.54241 12.7558ZM 4.94505 16.3582C 6.02561 17.1686 7.22828 17.2287 8.07145 17.1138C 8.75477 17.0031 9.65925 16.6836 10.2736 16.3704C 11.3923 15.7728 12.7332 14.7302 13.7362 13.735C 14.7315 12.7322 15.7742 11.3914 16.3719 10.2728C 16.6852 9.65845 17.0048 8.75394 17.1156 8.0706C 17.2305 7.22731 17.1703 6.02451 16.3598 4.94392L 11.56 8.54421C 11.1102 7.94456 11.1552 7.37299 11.1705 7.2605C 11.1594 7.21304 11.1969 7.23382 11.0518 7.49869C 10.7326 8.1385 10.2421 8.75154 9.49381 9.49211C 8.75315 10.2403 8.13999 10.7307 7.50006 11.0499C 7.23512 11.1951 7.21398 11.1576 7.26155 11.1688C 7.37384 11.1535 7.94519 11.1084 8.54476 11.558L 4.94505 16.3582ZM 16.0811 4.62262C 15.9608 4.50238 15.6602 4.2018 15.3896 3.93127C 15.2543 3.796 15.1266 3.66825 15.0326 3.57432C 14.9857 3.52736 14.9471 3.48884 14.9204 3.46207C 14.907 3.44869 14.8965 3.43824 14.8894 3.43113C 14.8859 3.42758 14.8832 3.42487 14.8813 3.42304C 14.8804 3.42212 14.8797 3.42143 14.8793 3.42097C 14.879 3.42074 14.8788 3.42056 14.8787 3.42045C 14.8787 3.42039 14.8786 3.42034 14.8786 3.42032C 14.8786 3.4203 14.8786 3.42029 14.8786 3.42028C 14.8786 3.42028 14.8786 3.42027 12.7574 5.54172C 10.6362 7.66318 10.6362 7.66318 10.6362 7.66319C 10.6362 7.66319 10.6362 7.6632 10.6362 7.66322C 10.6363 7.66325 10.6363 7.66329 10.6364 7.66335C 10.6365 7.66347 10.6366 7.66364 10.6369 7.66387C 10.6373 7.66434 10.638 7.66503 10.6389 7.66594C 10.6408 7.66777 10.6435 7.67048 10.647 7.67404C 10.6541 7.68114 10.6646 7.69159 10.678 7.70498C 10.7048 7.73175 10.7433 7.77026 10.7903 7.81723C 10.8842 7.91116 11.012 8.03891 11.1472 8.17417C 11.4178 8.4447 11.7184 8.74529 11.8387 8.86552L 16.0811 4.62262ZM 14.8786 3.42027C 14.9999 3.5416 15.2162 3.85733 15.2162 4.33938C 15.2162 4.82143 14.9999 5.13716 14.8786 5.25849L 10.6362 1.01558C 9.79334 1.85832 9.21625 3.01569 9.21625 4.33938C 9.21625 5.66307 9.79334 6.82044 10.6362 7.66318L 14.8786 3.42027ZM 14.8786 5.25849L 17.2835 2.8538L 13.0412 -1.3891L 10.6362 1.01558L 14.8786 5.25849ZM 17.2835 2.8538C 17.4673 2.67009 17.4616 2.71896 17.2855 2.80701C 17.0542 2.92264 16.6086 3.06287 16.0521 2.97013C 15.554 2.88713 15.261 2.66292 15.2221 2.63289C 15.2043 2.62682 15.2658 2.67345 15.4462 2.8538L 19.6885 -1.3891C 19.5082 -1.56945 19.2033 -1.86561 18.8905 -2.11504C 18.5314 -2.38057 17.704 -2.79497 17.0384 -2.94825C 15.145 -3.26377 13.7684 -2.11627 13.0412 -1.3891L 17.2835 2.8538ZM 15.4462 2.8538L 16.6486 4.05614L 20.891 -0.186761L 19.6885 -1.3891L 15.4462 2.8538ZM 16.6486 4.05614C 16.7625 4.16998 16.9121 4.4139 16.9546 4.88155C 16.9981 5.36 16.9054 5.88352 16.7339 6.28359L 22.2487 8.64736C 23.2504 6.31041 23.5162 2.4381 20.891 -0.18676L 16.6486 4.05614ZM 16.7222 6.31151C 16.5981 6.60928 16.1309 7.36312 15.2067 8.51271C 14.3215 9.61573 13.2514 10.8016 12.0664 11.9999C 10.8821 13.1995 9.71043 14.2835 8.6041 15.1799C 7.45146 16.1158 6.69644 16.5708 6.38958 16.6888L 8.54322 22.289C 9.7996 21.8058 11.179 20.818 12.3863 19.8377C 13.6398 18.8178 15.0535 17.5122 16.3344 16.217C 17.6144 14.9204 18.8892 13.5062 19.8829 12.2722C 20.8376 11.0847 21.7834 9.76448 22.2605 8.61944L 16.7222 6.31151ZM 6.28477 16.7314C 5.88453 16.9029 5.36077 16.9956 4.88205 16.9521C 4.41411 16.9096 4.17001 16.7599 4.05612 16.6461L -0.186257 20.889C 2.43875 23.5136 6.31107 23.2478 8.64804 22.2464L 6.28477 16.7314ZM 4.05612 16.6461L 2.85363 15.4437L -1.38875 19.6866L -0.186257 20.889L 4.05612 16.6461ZM 2.85363 15.4437C 2.67325 15.2634 2.62664 15.2019 2.6327 15.2197C 2.66273 15.2585 2.88707 15.5517 2.97012 16.0499C 3.06291 16.6066 2.92259 17.0524 2.80689 17.2838C 2.7188 17.4599 2.66988 17.4657 2.85363 17.2819L -1.38875 13.039C -2.11589 13.7661 -3.26389 15.1427 -2.94823 17.0364C -2.79489 17.7021 -2.38037 18.5296 -2.11479 18.8887C -1.86532 19.2015 -1.56912 19.5063 -1.38875 19.6866L 2.85363 15.4437ZM 2.85363 17.2819L 5.25861 14.8772L 1.01624 10.6343L -1.38875 13.039L 2.85363 17.2819ZM 5.25861 14.8772C 5.13726 14.9986 4.82166 15.2147 4.33992 15.2147C 3.85817 15.2147 3.54257 14.9986 3.42122 14.8772L 7.6636 10.6343C 6.82075 9.79159 5.66341 9.21473 4.33992 9.21473C 3.01643 9.21473 1.85908 9.79159 1.01624 10.6343L 5.25861 14.8772ZM 5.54241 12.7558C 3.42122 14.8772 3.42123 14.8772 3.42123 14.8772C 3.42124 14.8773 3.42125 14.8773 3.42127 14.8773C 3.4213 14.8773 3.42134 14.8774 3.4214 14.8774C 3.42151 14.8775 3.42169 14.8777 3.42192 14.8779C 3.42238 14.8784 3.42308 14.8791 3.42399 14.88C 3.42582 14.8818 3.42853 14.8845 3.43208 14.8881C 3.43919 14.8952 3.44964 14.9057 3.46303 14.919C 3.4898 14.9458 3.52832 14.9843 3.57529 15.0313C 3.66924 15.1252 3.797 15.253 3.93228 15.3882C 4.20284 15.6588 4.50347 15.9593 4.62372 16.0796L 8.86609 11.8367C 8.74584 11.7164 8.44522 11.4159 8.17466 11.1453C 8.03938 11.0101 7.91161 10.8823 7.81767 10.7884C 7.7707 10.7414 7.73218 10.7029 7.70541 10.6761C 7.69202 10.6627 7.68157 10.6523 7.67446 10.6452C 7.67091 10.6416 7.66819 10.6389 7.66637 10.6371C 7.66545 10.6362 7.66476 10.6355 7.6643 10.635C 7.66407 10.6348 7.66389 10.6346 7.66378 10.6345C 7.66372 10.6345 7.66367 10.6344 7.66364 10.6344C 7.66363 10.6344 7.66362 10.6344 7.66361 10.6343C 7.6636 10.6343 7.6636 10.6343 5.54241 12.7558Z"/>
</defs>
</svg>
