<svg width="54" height="54" viewBox="0 0 54 54" version="1.1" xmlns="http://www.w3.org/2000/svg" xmlns:xlink="http://www.w3.org/1999/xlink">
<title>Group</title>
<desc>Created using Figma</desc>
<g id="Canvas" transform="translate(8238 -782)">
<g id="Group">
<g id="Vector">
<use xlink:href="#path0_stroke" transform="translate(-8236 784)" fill="#F78D28"/>
</g>
<g id="Vector">
<use xlink:href="#path1_stroke" transform="translate(-8216.03 792.083)" fill="#F78D28"/>
</g>
<g id="Vector">
<use xlink:href="#path2_stroke" transform="translate(-8209.44 792.083)" fill="#F78D28"/>
</g>
<g id="Vector">
<use xlink:href="#path3_fill" transform="translate(-8226.08 811.5)" fill="#FFFFFF"/>
<use xlink:href="#path4_stroke" transform="translate(-8226.08 811.5)" fill="#F78D28"/>
</g>
<g id="Vector">
<use xlink:href="#path5_stroke" transform="translate(-8226.08 826.5)" fill="#F78D28"/>
</g>
</g>
</g>
<defs>
<path id="path0_stroke" d="M 0 0L 0 -1.5L -1.5 -1.5L -1.5 0L 0 0ZM 50 0L 51.5 0L 51.5 -1.5L 50 -1.5L 50 0ZM 50 50L 50 51.5L 51.5 51.5L 51.5 50L 50 50ZM 0 50L -1.5 50L -1.5 51.5L 0 51.5L 0 50ZM 0 1.5L 50 1.5L 50 -1.5L 0 -1.5L 0 1.5ZM 48.5 0L 48.5 50L 51.5 50L 51.5 0L 48.5 0ZM 50 48.5L 0 48.5L 0 51.5L 50 51.5L 50 48.5ZM 1.5 50L 1.5 0L -1.5 0L -1.5 50L 1.5 50Z"/>
<path id="path1_stroke" d="M 1.44445 13.1667C 2.50511 14.2273 2.50564 14.2268 2.50619 14.2262C 2.50639 14.226 2.50696 14.2255 2.50736 14.2251C 2.50781 14.2246 2.50901 14.2234 2.50992 14.2225C 2.51102 14.2214 2.51374 14.2186 2.51594 14.2164C 2.51893 14.2134 2.52558 14.2066 2.53151 14.2004C 2.54052 14.1911 2.55845 14.1724 2.57598 14.1536C 2.60524 14.1223 2.65791 14.0644 2.71211 14.0019C 2.80857 13.8902 2.96724 13.6948 3.12358 13.4765C 3.41144 13.07 3.82434 12.3631 4.08742 11.5957C 4.64506 9.90852 4.58569 7.65643 2.51845 5.53618L 0.370445 7.63048C 1.5532 8.84357 1.49383 9.88315 1.23897 10.6543C 1.0958 11.1161 0.899328 11.43 0.679371 11.737C 0.58181 11.8755 0.511956 11.96 0.443382 12.0391C 0.415064 12.072 0.401081 12.0872 0.384321 12.1051C 0.37884 12.111 0.378923 12.1109 0.375829 12.114C 0.375708 12.1142 0.377526 12.1123 0.377638 12.1122C 0.376987 12.1129 0.380472 12.1093 0.380155 12.1097C 0.379645 12.1102 0.382082 12.1077 0.381829 12.108C 0.382131 12.1077 0.382621 12.1072 0.382771 12.107C 0.383272 12.1065 0.383785 12.106 1.44445 13.1667ZM 2.51845 5.53618C 1.33569 4.3231 1.39506 3.28352 1.64992 2.51239C 1.79309 2.0506 1.98956 1.73662 2.20952 1.42964C 2.30708 1.29115 2.37693 1.20662 2.44551 1.1276C 2.47383 1.09467 2.48781 1.07949 2.50457 1.0616C 2.51005 1.05569 2.50997 1.05581 2.51306 1.05262C 2.51318 1.05249 2.51136 1.05436 2.51125 1.05447C 2.5119 1.05381 2.50842 1.05734 2.50874 1.05702C 2.50925 1.0565 2.50681 1.05895 2.50706 1.0587C 2.50676 1.059 2.50627 1.05949 2.50612 1.05965C 2.50562 1.06015 2.50511 1.06066 1.44445 -1.58946e-07C 0.383785 -1.06066 0.383247 -1.06012 0.382697 -1.05957C 0.382497 -1.05937 0.381933 -1.05881 0.381532 -1.0584C 0.381082 -1.05795 0.379876 -1.05674 0.378974 -1.05583C 0.377872 -1.05472 0.375151 -1.05197 0.372951 -1.04973C 0.369963 -1.04669 0.36331 -1.03989 0.357381 -1.03377C 0.348374 -1.02446 0.330439 -1.00569 0.31291 -0.986971C 0.283649 -0.955625 0.230982 -0.897729 0.176781 -0.835279C 0.0803156 -0.723547 -0.0783459 -0.528125 -0.234692 -0.309851C -0.522547 0.0967106 -0.935449 0.80357 -1.19853 1.57095C -1.75617 3.25815 -1.6968 5.51024 0.370445 7.63048L 2.51845 5.53618Z"/>
<path id="path2_stroke" d="M 1.44444 13.1667C 2.5051 14.2273 2.50564 14.2268 2.50619 14.2262C 2.50639 14.226 2.50696 14.2255 2.50736 14.2251C 2.50781 14.2246 2.50901 14.2234 2.50991 14.2225C 2.51102 14.2214 2.51374 14.2186 2.51594 14.2164C 2.51892 14.2134 2.52558 14.2066 2.53151 14.2004C 2.54051 14.1911 2.55845 14.1724 2.57598 14.1536C 2.60524 14.1223 2.65791 14.0644 2.71211 14.0019C 2.80857 13.8902 2.96723 13.6948 3.12358 13.4765C 3.41143 13.07 3.82434 12.3631 4.08742 11.5957C 4.64505 9.90852 4.58568 7.65643 2.51844 5.53618L 0.370443 7.63048C 1.5532 8.84357 1.49383 9.88315 1.23897 10.6543C 1.0958 11.1161 0.899327 11.43 0.679369 11.737C 0.581809 11.8755 0.511954 11.96 0.44338 12.0391C 0.415062 12.072 0.401079 12.0872 0.384319 12.1051C 0.378838 12.111 0.378921 12.1109 0.375828 12.114C 0.375706 12.1142 0.377524 12.1123 0.377636 12.1122C 0.376986 12.1129 0.38047 12.1093 0.380153 12.1097C 0.379643 12.1102 0.38208 12.1077 0.381827 12.108C 0.382129 12.1077 0.382619 12.1072 0.38277 12.107C 0.38327 12.1065 0.383783 12.106 1.44444 13.1667ZM 2.51844 5.53618C 1.33568 4.3231 1.39505 3.28352 1.64992 2.51239C 1.79309 2.0506 1.98956 1.73662 2.20952 1.42964C 2.30708 1.29115 2.37693 1.20662 2.44551 1.1276C 2.47382 1.09467 2.48781 1.07949 2.50457 1.0616C 2.51005 1.05569 2.50997 1.05581 2.51306 1.05262C 2.51318 1.05249 2.51136 1.05436 2.51125 1.05447C 2.5119 1.05381 2.50842 1.05734 2.50873 1.05702C 2.50924 1.0565 2.50681 1.05895 2.50706 1.0587C 2.50676 1.059 2.50627 1.05949 2.50612 1.05965C 2.50562 1.06015 2.5051 1.06066 1.44444 -1.58946e-07C 0.383783 -1.06066 0.383245 -1.06012 0.382695 -1.05957C 0.382495 -1.05937 0.381931 -1.05881 0.38153 -1.0584C 0.38108 -1.05795 0.379874 -1.05674 0.378972 -1.05583C 0.377871 -1.05472 0.375149 -1.05197 0.372949 -1.04973C 0.369961 -1.04669 0.363308 -1.03989 0.357379 -1.03377C 0.348373 -1.02446 0.330437 -1.00569 0.312908 -0.986971C 0.283647 -0.955625 0.23098 -0.897729 0.176779 -0.835279C 0.0803137 -0.723547 -0.0783478 -0.528125 -0.234693 -0.309851C -0.522548 0.0967106 -0.935451 0.80357 -1.19853 1.57095C -1.75617 3.25815 -1.6968 5.51024 0.370443 7.63048L 2.51844 5.53618Z"/>
<path id="path3_fill" d="M 30 0C 30 8.25 23.25 15 15 15C 6.75 15 -3.17891e-07 8.25 -3.17891e-07 0L 30 0Z"/>
<path id="path4_stroke" d="M 30 0L 31.5 0L 31.5 -1.5L 30 -1.5L 30 0ZM -3.17891e-07 0L -3.17891e-07 -1.5L -1.5 -1.5L -1.5 0L -3.17891e-07 0ZM 28.5 0C 28.5 7.42157 22.4216 13.5 15 13.5L 15 16.5C 24.0784 16.5 31.5 9.07843 31.5 0L 28.5 0ZM 15 13.5C 7.57843 13.5 1.5 7.42157 1.5 0L -1.5 0C -1.5 9.07843 5.92157 16.5 15 16.5L 15 13.5ZM -3.17891e-07 1.5L 30 1.5L 30 -1.5L -3.17891e-07 -1.5L -3.17891e-07 1.5Z"/>
<path id="path5_stroke" d="M -3.17891e-07 1.5L 30 1.5L 30 -1.5L -3.17891e-07 -1.5L -3.17891e-07 1.5Z"/>
</defs>
</svg>
