<svg width="54" height="54" viewBox="0 0 54 54" version="1.1" xmlns="http://www.w3.org/2000/svg" xmlns:xlink="http://www.w3.org/1999/xlink">
<title>Group</title>
<desc>Created using Figma</desc>
<g id="Canvas" transform="translate(8238 -962)">
<g id="Group">
<g id="Vector">
<use xlink:href="#path0_stroke" transform="translate(-8236 964)" fill="#F78D28"/>
</g>
<g id="Group">
<g id="Vector">
<use xlink:href="#path1_fill" transform="translate(-8228.6 985.833)" fill="#FFFFFF"/>
<use xlink:href="#path2_stroke" transform="translate(-8228.6 985.833)" fill="#F78D28"/>
</g>
<g id="Vector">
<use xlink:href="#path3_fill" transform="translate(-8205.92 985.833)" fill="#FFFFFF"/>
<use xlink:href="#path4_stroke" transform="translate(-8205.92 985.833)" fill="#F78D28"/>
</g>
</g>
<g id="Vector">
<use xlink:href="#path5_fill" transform="translate(-8218.5 980.167)" fill="#FFFFFF"/>
<use xlink:href="#path6_stroke" transform="translate(-8218.5 980.167)" fill="#F78D28"/>
</g>
<g id="Vector">
<use xlink:href="#path7_fill" transform="translate(-8227.92 978.583)" fill="#FFFFFF"/>
<use xlink:href="#path8_stroke" transform="translate(-8227.92 978.583)" fill="#F78D28"/>
</g>
<g id="Vector">
<use xlink:href="#path9_fill" transform="translate(-8207.58 978.583)" fill="#FFFFFF"/>
<use xlink:href="#path10_stroke" transform="translate(-8207.58 978.583)" fill="#F78D28"/>
</g>
<g id="Vector">
<use xlink:href="#path11_fill" transform="translate(-8224.92 977.333)" fill="#FFFFFF"/>
<use xlink:href="#path12_stroke" transform="translate(-8224.92 977.333)" fill="#F78D28"/>
</g>
<g id="Vector">
<use xlink:href="#path13_fill" transform="translate(-8204.5 977.333)" fill="#FFFFFF"/>
<use xlink:href="#path14_stroke" transform="translate(-8204.5 977.333)" fill="#F78D28"/>
</g>
<g id="Vector">
<use xlink:href="#path15_stroke" transform="translate(-8202 984.167)" fill="#F78D28"/>
</g>
<g id="Vector">
<use xlink:href="#path16_stroke" transform="translate(-8222.42 984.167)" fill="#F78D28"/>
</g>
</g>
</g>
<defs>
<path id="path0_stroke" d="M 0 0L 0 -1.5L -1.5 -1.5L -1.5 0L 0 0ZM 50 0L 51.5 0L 51.5 -1.5L 50 -1.5L 50 0ZM 50 50L 50 51.5L 51.5 51.5L 51.5 50L 50 50ZM 0 50L -1.5 50L -1.5 51.5L 0 51.5L 0 50ZM 0 1.5L 50 1.5L 50 -1.5L 0 -1.5L 0 1.5ZM 48.5 0L 48.5 50L 51.5 50L 51.5 0L 48.5 0ZM 50 48.5L 0 48.5L 0 51.5L 50 51.5L 50 48.5ZM 1.5 50L 1.5 0L -1.5 0L -1.5 50L 1.5 50Z"/>
<path id="path1_fill" d="M 2.4378 14.6667L 2.02113 14.5C 0.687799 14 -0.145535 12.6667 0.0211318 11.25L 2.35447 6.35783e-07L 12.5211 6.35783e-07L 6.4378 13C 5.77113 14.5 4.02113 15.25 2.4378 14.6667Z"/>
<path id="path2_stroke" d="M 2.4378 14.6667L 1.88071 16.0594L 1.89987 16.067L 1.91924 16.0742L 2.4378 14.6667ZM 2.02113 14.5L 2.57822 13.1073L 2.56308 13.1012L 2.54782 13.0955L 2.02113 14.5ZM 0.0211318 11.25L -1.44761 10.9454L -1.46093 11.0096L -1.46859 11.0747L 0.0211318 11.25ZM 2.35447 6.35783e-07L 2.35447 -1.5L 1.13365 -1.5L 0.885724 -0.304627L 2.35447 6.35783e-07ZM 12.5211 6.35783e-07L 13.8797 0.635759L 14.8792 -1.5L 12.5211 -1.5L 12.5211 6.35783e-07ZM 6.4378 13L 5.07919 12.3642L 5.07301 12.3775L 5.06708 12.3908L 6.4378 13ZM 2.99489 13.274L 2.57822 13.1073L 1.46404 15.8927L 1.88071 16.0594L 2.99489 13.274ZM 2.54782 13.0955C 1.84583 12.8323 1.42667 12.1409 1.51086 11.4253L -1.46859 11.0747C -1.71774 13.1925 -0.470236 15.1677 1.49445 15.9045L 2.54782 13.0955ZM 1.48987 11.5546L 3.82321 0.304629L 0.885724 -0.304627L -1.44761 10.9454L 1.48987 11.5546ZM 2.35447 1.5L 12.5211 1.5L 12.5211 -1.5L 2.35447 -1.5L 2.35447 1.5ZM 11.1625 -0.635758L 5.07919 12.3642L 7.79641 13.6358L 13.8797 0.635759L 11.1625 -0.635758ZM 5.06708 12.3908C 4.72359 13.1637 3.80289 13.571 2.95636 13.2592L 1.91924 16.0742C 4.23937 16.929 6.81868 15.8363 7.80852 13.6092L 5.06708 12.3908Z"/>
<path id="path3_fill" d="M 10.0833 14.6667L 10.5 14.5C 11.8333 14 12.6667 12.6667 12.5 11.25L 10.1667 6.35783e-07L -1.27157e-06 6.35783e-07L 6.08333 13C 6.75 14.5 8.5 15.25 10.0833 14.6667Z"/>
<path id="path4_stroke" d="M 10.0833 14.6667L 10.6019 16.0742L 10.6213 16.067L 10.6404 16.0594L 10.0833 14.6667ZM 10.5 14.5L 9.97332 13.0955L 9.95805 13.1012L 9.94291 13.1073L 10.5 14.5ZM 12.5 11.25L 13.9897 11.0747L 13.9821 11.0096L 13.9687 10.9454L 12.5 11.25ZM 10.1667 6.35783e-07L 11.6354 -0.304627L 11.3875 -1.5L 10.1667 -1.5L 10.1667 6.35783e-07ZM -1.27157e-06 6.35783e-07L -1.27157e-06 -1.5L -2.35803 -1.5L -1.35861 0.635759L -1.27157e-06 6.35783e-07ZM 6.08333 13L 7.45405 12.3908L 7.44813 12.3775L 7.44194 12.3642L 6.08333 13ZM 10.6404 16.0594L 11.0571 15.8927L 9.94291 13.1073L 9.52625 13.274L 10.6404 16.0594ZM 11.0267 15.9045C 12.9914 15.1677 14.2389 13.1925 13.9897 11.0747L 11.0103 11.4253C 11.0945 12.1409 10.6753 12.8323 9.97332 13.0955L 11.0267 15.9045ZM 13.9687 10.9454L 11.6354 -0.304627L 8.69792 0.304628L 11.0313 11.5546L 13.9687 10.9454ZM 10.1667 -1.5L -1.27157e-06 -1.5L -1.27157e-06 1.5L 10.1667 1.5L 10.1667 -1.5ZM -1.35861 0.635759L 4.72473 13.6358L 7.44194 12.3642L 1.35861 -0.635758L -1.35861 0.635759ZM 4.71262 13.6092C 5.70245 15.8363 8.28176 16.929 10.6019 16.0742L 9.56478 13.2592C 8.71824 13.571 7.79755 13.1637 7.45405 12.3908L 4.71262 13.6092Z"/>
<path id="path5_fill" d="M 14.9167 0L 0 0L 0 8.83333L 14.9167 8.83333L 14.9167 0Z"/>
<path id="path6_stroke" d="M 0 0L 0 -1.5L -1.5 -1.5L -1.5 0L 0 0ZM 14.9167 0L 16.4167 0L 16.4167 -1.5L 14.9167 -1.5L 14.9167 0ZM 14.9167 8.83333L 14.9167 10.3333L 16.4167 10.3333L 16.4167 8.83333L 14.9167 8.83333ZM 0 8.83333L -1.5 8.83333L -1.5 10.3333L 0 10.3333L 0 8.83333ZM 0 1.5L 14.9167 1.5L 14.9167 -1.5L 0 -1.5L 0 1.5ZM 13.4167 0L 13.4167 8.83333L 16.4167 8.83333L 16.4167 0L 13.4167 0ZM 14.9167 7.33333L 0 7.33333L 0 10.3333L 14.9167 10.3333L 14.9167 7.33333ZM 1.5 8.83333L 1.5 0L -1.5 0L -1.5 8.83333L 1.5 8.83333Z"/>
<path id="path7_fill" d="M 6.75 13.5C 10.4779 13.5 13.5 10.4779 13.5 6.75C 13.5 3.02208 10.4779 0 6.75 0C 3.02208 0 0 3.02208 0 6.75C 0 10.4779 3.02208 13.5 6.75 13.5Z"/>
<path id="path8_stroke" d="M 12 6.75C 12 9.6495 9.64949 12 6.75 12L 6.75 15C 11.3063 15 15 11.3063 15 6.75L 12 6.75ZM 6.75 12C 3.8505 12 1.5 9.6495 1.5 6.75L -1.5 6.75C -1.5 11.3063 2.19365 15 6.75 15L 6.75 12ZM 1.5 6.75C 1.5 3.85051 3.8505 1.5 6.75 1.5L 6.75 -1.5C 2.19365 -1.5 -1.5 2.19365 -1.5 6.75L 1.5 6.75ZM 6.75 1.5C 9.64949 1.5 12 3.85051 12 6.75L 15 6.75C 15 2.19365 11.3063 -1.5 6.75 -1.5L 6.75 1.5Z"/>
<path id="path9_fill" d="M 6.75 13.5C 10.4779 13.5 13.5 10.4779 13.5 6.75C 13.5 3.02208 10.4779 0 6.75 0C 3.02208 0 0 3.02208 0 6.75C 0 10.4779 3.02208 13.5 6.75 13.5Z"/>
<path id="path10_stroke" d="M 12 6.75C 12 9.6495 9.6495 12 6.75 12L 6.75 15C 11.3063 15 15 11.3063 15 6.75L 12 6.75ZM 6.75 12C 3.85051 12 1.5 9.6495 1.5 6.75L -1.5 6.75C -1.5 11.3063 2.19365 15 6.75 15L 6.75 12ZM 1.5 6.75C 1.5 3.85051 3.85051 1.5 6.75 1.5L 6.75 -1.5C 2.19365 -1.5 -1.5 2.19365 -1.5 6.75L 1.5 6.75ZM 6.75 1.5C 9.6495 1.5 12 3.8505 12 6.75L 15 6.75C 15 2.19365 11.3063 -1.5 6.75 -1.5L 6.75 1.5Z"/>
<path id="path11_fill" d="M 1.58946e-07 1.16667C 1.08333 0.416666 2.33333 0 3.75 0C 5.08333 0 6.33333 0.416666 7.41667 1.08333"/>
<path id="path12_stroke" d="M 0.853815 2.39995C 1.75415 1.75831 2.57361 1.48063 3.75 1.5L 3.75 -1.5C 2.09306 -1.48063 0.412513 -0.924974 -0.853815 -0.066622L 0.853815 2.39995ZM 3.75 1.5C 4.84306 1.48063 5.6989 1.77589 6.63052 2.36082L 8.20281 -0.194155C 6.96776 -0.942561 5.32361 -1.48063 3.75 -1.5L 3.75 1.5Z"/>
<path id="path13_fill" d="M -6.35783e-07 1.16667C 1.08333 0.416666 2.33333 0 3.75 0C 5.08333 0 6.33333 0.416666 7.41667 1.08333"/>
<path id="path14_stroke" d="M 0.853814 2.39995C 1.75415 1.75831 2.57361 1.48063 3.75 1.5L 3.75 -1.5C 2.09306 -1.48063 0.412512 -0.924975 -0.853816 -0.066622L 0.853814 2.39995ZM 3.75 1.5C 4.84306 1.48063 5.6989 1.77589 6.63052 2.36082L 8.20281 -0.194155C 6.96776 -0.942561 5.32361 -1.48063 3.75 -1.5L 3.75 1.5Z"/>
<path id="path15_stroke" d="M 1.27267 -1.06066L -1.06066 1.27267L 1.06066 3.39399L 3.39399 1.06066L 1.27267 -1.06066Z"/>
<path id="path16_stroke" d="M 1.27267 -1.06066L -1.06066 1.27267L 1.06066 3.39399L 3.39399 1.06066L 1.27267 -1.06066Z"/>
</defs>
</svg>
