<svg width="54" height="54" viewBox="0 0 54 54" version="1.1" xmlns="http://www.w3.org/2000/svg" xmlns:xlink="http://www.w3.org/1999/xlink">
<title>Group</title>
<desc>Created using Figma</desc>
<g id="Canvas" transform="translate(7944 -691)">
<g id="Group">
<g id="Vector">
<use xlink:href="#path0_stroke" transform="translate(-7942 693)" fill="#FFC530"/>
</g>
<g id="Vector">
<use xlink:href="#path1_stroke" transform="translate(-7922 703)" fill="#FFC530"/>
</g>
<g id="Vector">
<use xlink:href="#path2_stroke" transform="translate(-7917 728)" fill="#FFC530"/>
</g>
<g id="Vector">
<use xlink:href="#path3_stroke" transform="translate(-7922 733)" fill="#FFC530"/>
</g>
<g id="Vector">
<use xlink:href="#path4_stroke" transform="translate(-7927 713)" fill="#FFC530"/>
</g>
</g>
</g>
<defs>
<path id="path0_stroke" d="M 0 0L 0 -1.5L -1.5 -1.5L -1.5 0L 0 0ZM 50 0L 51.5 0L 51.5 -1.5L 50 -1.5L 50 0ZM 50 50L 50 51.5L 51.5 51.5L 51.5 50L 50 50ZM 0 50L -1.5 50L -1.5 51.5L 0 51.5L 0 50ZM 0 1.5L 50 1.5L 50 -1.5L 0 -1.5L 0 1.5ZM 48.5 0L 48.5 50L 51.5 50L 51.5 0L 48.5 0ZM 50 48.5L 0 48.5L 0 51.5L 50 51.5L 50 48.5ZM 1.5 50L 1.5 0L -1.5 0L -1.5 50L 1.5 50Z"/>
<path id="path1_stroke" d="M 1.5 5C 1.5 3.07843 3.07843 1.5 5 1.5L 5 -1.5C 1.42157 -1.5 -1.5 1.42157 -1.5 5L 1.5 5ZM 5 1.5C 6.92157 1.5 8.5 3.07843 8.5 5L 11.5 5C 11.5 1.42157 8.57843 -1.5 5 -1.5L 5 1.5ZM 8.5 5L 8.5 15L 11.5 15L 11.5 5L 8.5 5ZM 8.5 15C 8.5 16.9216 6.92157 18.5 5 18.5L 5 21.5C 8.57843 21.5 11.5 18.5784 11.5 15L 8.5 15ZM 5 18.5C 3.07843 18.5 1.5 16.9216 1.5 15L -1.5 15C -1.5 18.5784 1.42157 21.5 5 21.5L 5 18.5ZM 1.5 15L 1.5 5L -1.5 5L -1.5 15L 1.5 15Z"/>
<path id="path2_stroke" d="M -1.5 0L -1.5 5L 1.5 5L 1.5 0L -1.5 0Z"/>
<path id="path3_stroke" d="M 0 1.5L 10 1.5L 10 -1.5L 0 -1.5L 0 1.5Z"/>
<path id="path4_stroke" d="M 18.5 0L 18.5 5L 21.5 5L 21.5 0L 18.5 0ZM 18.5 5C 18.5 9.67157 14.6716 13.5 10 13.5L 10 16.5C 16.3284 16.5 21.5 11.3284 21.5 5L 18.5 5ZM 10 13.5C 5.32843 13.5 1.5 9.67157 1.5 5L -1.5 5C -1.5 11.3284 3.67157 16.5 10 16.5L 10 13.5ZM 1.5 5L 1.5 0L -1.5 0L -1.5 5L 1.5 5Z"/>
</defs>
</svg>
