<svg width="54" height="54" viewBox="0 0 54 54" version="1.1" xmlns="http://www.w3.org/2000/svg" xmlns:xlink="http://www.w3.org/1999/xlink">
<title>Group</title>
<desc>Created using Figma</desc>
<g id="Canvas" transform="translate(7944 -871)">
<g id="Group">
<g id="Vector">
<use xlink:href="#path0_stroke" transform="translate(-7942 873)" fill="#5AB7B2"/>
</g>
<g id="Vector">
<use xlink:href="#path1_stroke" transform="translate(-7917.92 895.75)" fill="#5AB7B2"/>
</g>
<g id="Vector">
<use xlink:href="#path2_fill" transform="translate(-7927.83 893.083)" fill="#FFFFFF"/>
<use xlink:href="#path3_stroke" transform="translate(-7927.83 893.083)" fill="#5AB7B2"/>
</g>
<g id="Vector">
<use xlink:href="#path4_stroke" transform="translate(-7932.83 915.167)" fill="#5AB7B2"/>
</g>
<g id="Vector">
<use xlink:href="#path5_stroke" transform="translate(-7918.9 880.167)" fill="#5AB7B2"/>
</g>
<g id="Vector">
<use xlink:href="#path6_stroke" transform="translate(-7926.07 880.167)" fill="#5AB7B2"/>
</g>
<g id="Vector">
<use xlink:href="#path7_stroke" transform="translate(-7911.69 880.167)" fill="#5AB7B2"/>
</g>
</g>
</g>
<defs>
<path id="path0_stroke" d="M 0 0L 0 -1.5L -1.5 -1.5L -1.5 0L 0 0ZM 50 0L 51.5 0L 51.5 -1.5L 50 -1.5L 50 0ZM 50 50L 50 51.5L 51.5 51.5L 51.5 50L 50 50ZM 0 50L -1.5 50L -1.5 51.5L 0 51.5L 0 50ZM 0 1.5L 50 1.5L 50 -1.5L 0 -1.5L 0 1.5ZM 48.5 0L 48.5 50L 51.5 50L 51.5 0L 48.5 0ZM 50 48.5L 0 48.5L 0 51.5L 50 51.5L 50 48.5ZM 1.5 50L 1.5 0L -1.5 0L -1.5 50L 1.5 50Z"/>
<path id="path1_stroke" d="M 11.5833 3.75C 11.5833 2.49509 12.5784 1.5 13.8333 1.5L 13.8333 -1.5C 10.9216 -1.5 8.58333 0.838239 8.58333 3.75L 11.5833 3.75ZM 13.8333 1.5C 15.0882 1.5 16.0833 2.49509 16.0833 3.75L 19.0833 3.75C 19.0833 0.838239 16.7451 -1.5 13.8333 -1.5L 13.8333 1.5ZM 16.0833 3.75C 16.0833 5.99083 15.5134 8.31227 13.4336 10.1171C 11.3033 11.9657 7.33321 13.5 -3.17891e-07 13.5L -3.17891e-07 16.5C 7.66679 16.5 12.4884 14.9093 15.3998 12.3829C 18.3616 9.81272 19.0833 6.50917 19.0833 3.75L 16.0833 3.75Z"/>
<path id="path2_fill" d="M 20 6C 20 11.5 20 20 10 20C 0 20 0 11.5833 0 6L 0 3.17891e-07L 20 3.17891e-07L 20 6Z"/>
<path id="path3_stroke" d="M 0 3.17891e-07L 0 -1.5L -1.5 -1.5L -1.5 3.17891e-07L 0 3.17891e-07ZM 20 3.17891e-07L 21.5 3.17891e-07L 21.5 -1.5L 20 -1.5L 20 3.17891e-07ZM 18.5 6C 18.5 8.8226 18.4766 11.9844 17.3793 14.4533C 16.8337 15.7054 16.175 16.5964 14.9837 17.3155C 13.8689 18.0154 12.2869 18.5 10 18.5L 10 21.5C 12.7131 21.5 14.8811 20.9221 16.5788 19.8563C 18.2 18.8099 19.4163 17.2321 20.1207 15.6717C 21.5234 12.5156 21.5 8.6774 21.5 6L 18.5 6ZM 10 18.5C 7.71041 18.5 6.12712 18.0195 5.01205 17.3246C 3.82141 16.6114 3.16456 15.7286 2.61988 14.4827C 1.52382 12.0257 1.5 8.8663 1.5 6L -1.5 6C -1.5 8.71703 -1.52382 12.5577 -0.119876 15.7048C 0.585444 17.261 1.80359 18.8314 3.42545 19.8707C 5.12288 20.9285 7.28959 21.5 10 21.5L 10 18.5ZM 1.5 6L 1.5 3.17891e-07L -1.5 3.17891e-07L -1.5 6L 1.5 6ZM 0 1.5L 20 1.5L 20 -1.5L 0 -1.5L 0 1.5ZM 18.5 3.17891e-07L 18.5 6L 21.5 6L 21.5 3.17891e-07L 18.5 3.17891e-07Z"/>
<path id="path4_stroke" d="M 0 1.5L 30 1.5L 30 -1.5L 0 -1.5L 0 1.5Z"/>
<path id="path5_stroke" d="M 0.0454804 -1.01652C -1.07476 0.199056 -1.67432 1.44503 -1.45654 2.76721C -1.263 3.9423 -0.43955 4.79819 -0.02784 5.25465C 0.525471 5.86811 0.672683 6.08612 0.707794 6.26518C 0.710857 6.2808 0.809142 6.61747 0.0237576 7.50757L 2.27327 9.49243C 3.36289 8.25753 3.90909 7.00044 3.65174 5.68794C 3.42643 4.53888 2.60489 3.69439 2.19987 3.24535C 1.65325 2.63931 1.52878 2.4327 1.50357 2.27966C 1.5026 2.27372 1.41345 1.92594 2.25155 1.01652L 0.0454804 -1.01652Z"/>
<path id="path6_stroke" d="M 0.04548 -1.01652C -1.07476 0.199056 -1.67432 1.44503 -1.45654 2.76721C -1.263 3.9423 -0.439551 4.79819 -0.0278404 5.25465C 0.52547 5.86811 0.672682 6.08612 0.707793 6.26518C 0.710856 6.2808 0.809141 6.61747 0.0237572 7.50757L 2.27327 9.49243C 3.36289 8.25753 3.90909 7.00044 3.65173 5.68794C 3.42643 4.53888 2.60489 3.69439 2.19987 3.24535C 1.65325 2.63931 1.52878 2.4327 1.50357 2.27966C 1.50259 2.27372 1.41345 1.92594 2.25155 1.01652L 0.04548 -1.01652Z"/>
<path id="path7_stroke" d="M -0.204489 -1.06066C -1.25288 -0.0122645 -1.70814 1.1557 -1.41243 2.41048C -1.18104 3.39231 -0.475104 4.25921 -0.141377 4.7216C 0.297039 5.32904 0.470858 5.66546 0.499705 5.96704C 0.519404 6.173 0.494408 6.64284 -0.268586 7.50757L 1.98093 9.49243C 3.09293 8.23216 3.6096 6.97284 3.48607 5.68139C 3.37169 4.48558 2.71739 3.55637 2.29122 2.9659C 1.76036 2.23038 1.56526 1.96707 1.50758 1.72233C 1.4664 1.59646 1.45598 1.70589 1.5141 1.60268C 1.56541 1.4265 1.6239 1.34247 1.91683 1.06066L -0.204489 -1.06066Z"/>
</defs>
</svg>
