<svg width="54" height="54" viewBox="0 0 54 54" version="1.1" xmlns="http://www.w3.org/2000/svg" xmlns:xlink="http://www.w3.org/1999/xlink">
<title>Group</title>
<desc>Created using Figma</desc>
<g id="Canvas" transform="translate(7944 -961)">
<g id="Group">
<g id="Group">
<g id="Vector">
<use xlink:href="#path0_stroke" transform="translate(-7930.25 972.986)" fill="#8D3C67"/>
</g>
<g id="Vector">
<use xlink:href="#path1_stroke" transform="translate(-7925 985.083)" fill="#8D3C67"/>
</g>
</g>
<g id="Vector">
<use xlink:href="#path2_stroke" transform="translate(-7942 963)" fill="#8D3C67"/>
</g>
</g>
</g>
<defs>
<path id="path0_stroke" d="M 15.9167 28.0135L 17.0389 29.0088L 17.0446 29.0024L 17.0502 28.9959L 15.9167 28.0135ZM 10.5833 1.51354L 9.90828 0.173988L 9.89972 0.178369L 10.5833 1.51354ZM 25 17.4302C 25 19.2729 23.7888 20.588 21.5884 22.072C 20.5122 22.7989 19.2988 23.4997 18.1183 24.2739C 16.9363 25.0506 15.7079 25.9774 14.7831 27.0311L 17.0502 28.9959C 17.7505 28.1747 18.6574 27.5078 19.7645 26.7818C 20.8731 26.0534 22.1024 25.3428 23.2658 24.5592C 25.5445 23.0224 28 20.9209 28 17.4302L 25 17.4302ZM 14.7944 27.0183C 13.4652 28.5172 10.3227 28.9879 7.1588 27.4107C 4.16194 25.9167 1.5 22.6767 1.5 17.4302L -1.5 17.4302C -1.5 23.8504 1.83806 28.1104 5.82037 30.0956C 9.63562 31.9975 14.4515 31.9265 17.0389 29.0088L 14.7944 27.0183ZM 1.5 17.4302C 1.5 14.5172 1.50796 12.4795 1.67982 10.9353C 1.8441 9.44116 2.14282 8.60794 2.59999 7.9771C 3.07562 7.32081 3.83811 6.72103 5.26918 5.91802C 6.70472 5.11151 8.64273 4.19212 11.2669 2.84871L 9.89972 0.178369C 7.3156 1.50163 5.32653 2.44682 3.80113 3.30176C 2.27126 4.16021 1.03896 5.01877 0.170838 6.21665C -0.715733 7.43998 -1.10972 8.85676 -1.30221 10.6074C -1.48713 12.308 -1.5 14.5099 -1.5 17.4302L 1.5 17.4302ZM 11.2584 2.85306C 13.7023 1.62148 15.6952 1.32444 17.289 1.58956C 18.9849 1.8406 20.19 2.62799 21.3581 4.05715C 23.69 6.85542 25 11.7518 25 17.4302L 28 17.4302C 28 11.442 26.6434 5.71332 23.6627 2.1366C 22.1746 0.378252 20.062 -0.959354 17.7813 -1.36978C 15.3986 -1.76611 12.756 -1.26106 9.9083 0.174015L 11.2584 2.85306Z"/>
<path id="path1_stroke" d="M 9.16667 5.33333C 9.16667 7.45043 7.45043 9.16667 5.33333 9.16667L 5.33333 12.1667C 9.10728 12.1667 12.1667 9.10728 12.1667 5.33333L 9.16667 5.33333ZM 5.33333 9.16667C 3.21624 9.16667 1.5 7.45043 1.5 5.33333L -1.5 5.33333C -1.5 9.10728 1.55939 12.1667 5.33333 12.1667L 5.33333 9.16667ZM 1.5 5.33333C 1.5 3.21624 3.21624 1.5 5.33333 1.5L 5.33333 -1.5C 1.55939 -1.5 -1.5 1.55939 -1.5 5.33333L 1.5 5.33333ZM 5.33333 1.5C 7.45042 1.5 9.16667 3.21624 9.16667 5.33333L 12.1667 5.33333C 12.1667 1.55939 9.10728 -1.5 5.33333 -1.5L 5.33333 1.5Z"/>
<path id="path2_stroke" d="M 0 0L 0 -1.5L -1.5 -1.5L -1.5 0L 0 0ZM 50 0L 51.5 0L 51.5 -1.5L 50 -1.5L 50 0ZM 50 50L 50 51.5L 51.5 51.5L 51.5 50L 50 50ZM 0 50L -1.5 50L -1.5 51.5L 0 51.5L 0 50ZM 0 1.5L 50 1.5L 50 -1.5L 0 -1.5L 0 1.5ZM 48.5 0L 48.5 50L 51.5 50L 51.5 0L 48.5 0ZM 50 48.5L 0 48.5L 0 51.5L 50 51.5L 50 48.5ZM 1.5 50L 1.5 0L -1.5 0L -1.5 50L 1.5 50Z"/>
</defs>
</svg>
