<svg width="54" height="54" viewBox="0 0 54 54" version="1.1" xmlns="http://www.w3.org/2000/svg" xmlns:xlink="http://www.w3.org/1999/xlink">
<title>Group</title>
<desc>Created using Figma</desc>
<g id="Canvas" transform="translate(7648 -691)">
<g id="Group">
<g id="Vector">
<use xlink:href="#path0_stroke" transform="translate(-7646 693)" fill="#F16278"/>
</g>
<g id="Vector">
<use xlink:href="#path1_stroke" transform="translate(-7636 713)" fill="#F16278"/>
</g>
<g id="Vector">
<use xlink:href="#path2_stroke" transform="translate(-7626 698)" fill="#F16278"/>
</g>
<g id="Vector">
<use xlink:href="#path3_stroke" transform="translate(-7646 728)" fill="#F16278"/>
</g>
<g id="Vector">
<use xlink:href="#path4_stroke" transform="translate(-7626 728)" fill="#F16278"/>
</g>
<g id="Vector">
<use xlink:href="#path5_stroke" transform="translate(-7645 713.667)" fill="#F16278"/>
</g>
<g id="Vector">
<use xlink:href="#path6_stroke" transform="translate(-7619.58 713.5)" fill="#F16278"/>
</g>
<g id="Vector">
<use xlink:href="#path7_stroke" transform="translate(-7616 726.25)" fill="#F16278"/>
</g>
</g>
</g>
<defs>
<path id="path0_stroke" d="M 0 0L 0 -1.5L -1.5 -1.5L -1.5 0L 0 0ZM 50 0L 51.5 0L 51.5 -1.5L 50 -1.5L 50 0ZM 50 50L 50 51.5L 51.5 51.5L 51.5 50L 50 50ZM 0 50L -1.5 50L -1.5 51.5L 0 51.5L 0 50ZM 0 1.5L 50 1.5L 50 -1.5L 0 -1.5L 0 1.5ZM 48.5 0L 48.5 50L 51.5 50L 51.5 0L 48.5 0ZM 50 48.5L 0 48.5L 0 51.5L 50 51.5L 50 48.5ZM 1.5 50L 1.5 0L -1.5 0L -1.5 50L 1.5 50Z"/>
<path id="path1_stroke" d="M 10 15L 10 16.5L 11.0811 16.5L 11.423 15.4743L 10 15ZM 0 15L -1.42302 14.5257L -2.08114 16.5L 0 16.5L 0 15ZM 5 0L 5 -1.5L 3.91886 -1.5L 3.57698 -0.474342L 5 0ZM 15 0L 16.423 0.474342L 17.0811 -1.5L 15 -1.5L 15 0ZM 10 13.5L 0 13.5L 0 16.5L 10 16.5L 10 13.5ZM 1.42302 15.4743L 6.42303 0.474342L 3.57698 -0.474342L -1.42302 14.5257L 1.42302 15.4743ZM 5 1.5L 15 1.5L 15 -1.5L 5 -1.5L 5 1.5ZM 13.577 -0.474342L 8.57697 14.5257L 11.423 15.4743L 16.423 0.474342L 13.577 -0.474342Z"/>
<path id="path2_stroke" d="M 8.5 5C 8.5 6.933 6.933 8.5 5 8.5L 5 11.5C 8.58985 11.5 11.5 8.58985 11.5 5L 8.5 5ZM 5 8.5C 3.067 8.5 1.5 6.933 1.5 5L -1.5 5C -1.5 8.58985 1.41015 11.5 5 11.5L 5 8.5ZM 1.5 5C 1.5 3.067 3.067 1.5 5 1.5L 5 -1.5C 1.41015 -1.5 -1.5 1.41015 -1.5 5L 1.5 5ZM 5 1.5C 6.933 1.5 8.5 3.067 8.5 5L 11.5 5C 11.5 1.41015 8.58985 -1.5 5 -1.5L 5 1.5Z"/>
<path id="path3_stroke" d="M 5 5L 5 6.5L 5.62132 6.5L 6.06066 6.06066L 5 5ZM 8.93934 -1.06066L 3.93934 3.93934L 6.06066 6.06066L 11.0607 1.06066L 8.93934 -1.06066ZM 5 3.5L 0 3.5L 0 6.5L 5 6.5L 5 3.5Z"/>
<path id="path4_stroke" d="M -1.42302 0.474342L 3.57698 15.4743L 6.42303 14.5257L 1.42302 -0.474342L -1.42302 0.474342Z"/>
<path id="path5_stroke" d="M 13.1958 1.22729L 14.423 0.364869L 12.6982 -2.08971L 11.4709 -1.22729L 13.1958 1.22729ZM -0.862418 7.43938L -2.08971 8.3018L -0.364869 10.7564L 0.862418 9.89395L -0.862418 7.43938ZM 11.4709 -1.22729L -0.862418 7.43938L 0.862418 9.89395L 13.1958 1.22729L 11.4709 -1.22729Z"/>
<path id="path6_stroke" d="M 1.33522 -0.683506L 0.651716 -2.01873L -2.01873 -0.651715L -1.33522 0.683507L 1.33522 -0.683506ZM 3.58333 7L 2.24811 7.68351L 2.66608 8.5L 3.58333 8.5L 3.58333 7ZM 12 8.5L 13.5 8.5L 13.5 5.5L 12 5.5L 12 8.5ZM -1.33522 0.683507L 2.24811 7.68351L 4.91856 6.31649L 1.33522 -0.683506L -1.33522 0.683507ZM 3.58333 8.5L 12 8.5L 12 5.5L 3.58333 5.5L 3.58333 8.5Z"/>
<path id="path7_stroke" d="M 0 1.27157e-06L 0 -1.5L -1.5 -1.5L -1.5 1.27157e-06L 0 1.27157e-06ZM 10 1.27157e-06L 11.5 1.27157e-06L 11.5 -1.5L 10 -1.5L 10 1.27157e-06ZM 10 10L 10 11.5L 11.5 11.5L 11.5 10L 10 10ZM 0 10L -1.5 10L -1.5 11.5L 0 11.5L 0 10ZM 0 1.5L 10 1.5L 10 -1.5L 0 -1.5L 0 1.5ZM 8.5 1.27157e-06L 8.5 10L 11.5 10L 11.5 1.27157e-06L 8.5 1.27157e-06ZM 10 8.5L 0 8.5L 0 11.5L 10 11.5L 10 8.5ZM 1.5 10L 1.5 1.27157e-06L -1.5 1.27157e-06L -1.5 10L 1.5 10Z"/>
</defs>
</svg>
