<?xml version="1.0" encoding="utf-8"?>
<!-- Generator: Adobe Illustrator 24.1.1, SVG Export Plug-In . SVG Version: 6.00 Build 0)  -->
<svg version="1.1" id="Layer_1" xmlns="http://www.w3.org/2000/svg" xmlns:xlink="http://www.w3.org/1999/xlink" x="0px" y="0px"
	 width="202.22" height="120.09" viewBox="0 0 404.44 240.19" style="enable-background:new 0 0 404.44 240.19;" xml:space="preserve">
<style type="text/css">
	.st0{fill:#FFFFFF;}
</style>
<g>
	<g>
		<g>
			<g>
				<g>
					<g>
						<g id="WoTC_x5F_Mercenaries_x5F_Logo_x5F_SecondVersion_x5F_WhiteR_17_">
							<g>
								<path id="WoTC_x5F_Mercenaries_x5F_Logo_x5F_SecondVersion_x5F_WhiteR_18_" class="st0" d="M78.39,57.86h-6.65v15.58
									l5.11,5.11l4.7-4.7l-3.17-3.17V57.86z M85.07,91.95l17-17V53.58l-8.96-8.96H77.03l-8.96,8.96v21.37L85.07,91.95z
									 M69.9,54.34l7.89-7.89h14.55l7.89,7.89v19.85L85.07,89.36L69.9,74.19V54.34z M91.74,57.86h6.65v15.58l-5.11,5.11l-4.7-4.7
									l3.17-3.17V57.86z M81.66,83.35V55.1h-9.92l6.81-6.81h13.03l6.81,6.81h-9.92l0,28.25l-3.41,3.41L81.66,83.35z"/>
							</g>
						</g>
					</g>
				</g>
				<g>
					<g>
						<g id="WoTC_x5F_Mercenaries_x5F_Logo_x5F_MainVersion_x5F_White2R_9_">
							<g>
								<path class="st0" d="M175.02,62.7c0-1.01,0-2.57,0-3.07c0-1.92-0.03-3.31-0.54-4.62c-0.47-1.35-1.15-2.43-2.03-3.24
									c-0.88-0.84-1.93-1.42-3.14-1.79c-1.22-0.34-2.84-0.54-4.29-0.54c0,0,0,0-8.24,0c0,0,0,0,0,36.15c0,0,0,0,7.05,0
									c0,0,0,0,0-13.54c0,0,0,0,1.65,0c0,0,0,0,3.24,13.54c0,0,0,0,7.29,0c0,0,0,0-4.18-15.36
									C173.26,69.12,175.02,67.06,175.02,62.7z M168.16,61.56c0,1.32-0.07,2.06-0.71,2.73c-1.01,1.05-2.33,1.01-2.83,1.01
									c0,0,0,0-0.78,0c0,0,0,0,0-9.11c0,0,0,0,0.98,0c1.05,0,1.89,0.3,2.57,0.95c0.64,0.61,0.78,1.32,0.78,2.67
									C168.16,60.31,168.16,60.82,168.16,61.56z M336.38,76.51c0,7.02-5.1,9.31-9.42,9.31c-3.54,0-9.62-2.33-9.62-10.22
									c0,0,0,0,0-1.05c0,0,0,0,6.75,0c0,0,0,0,0,1.05c0,1.62,0.71,3.41,2.57,3.51c1.82,0.07,2.66-1.35,2.66-2.83
									c0-5.77-11.81-8.03-11.81-17.85c0-7.02,5.6-9.32,9.55-9.32c3.51,0,8.98,2.3,9.01,10.23c0,0,0,0-6.75,0
									c0.03-1.65-0.51-3.51-2.39-3.51c-1.66,0-2.36,1.35-2.36,2.83C324.56,64.43,336.38,66.69,336.38,76.51z M310.45,66.01
									c0,0,0,0,8.13,19.51c0,0,0,0-7.32,0c0,0,0,0-5.87-14.11c0,0,0,0-0.2,0c0,0,0,0,0,14.11c0,0,0,0-7.05,0c0,0,0,0,0-36.11
									c0,0,0,0,7.05,0c0,0,0,0,0,11.95c0,0,0,0,0.23,0c0,0,0,0,5.84-11.95c0,0,0,0,7.32,0L310.45,66.01z M145.38,49.1
									c-2.87,0-5.1,0.81-6.61,2.43c-1.55,1.62-2.3,3.95-2.3,6.99c0,0,0,0,0,17.89c0,3.04,0.74,5.36,2.3,6.99
									c1.52,1.62,3.74,2.43,6.61,2.43c2.9,0,5.1-0.81,6.65-2.43c1.52-1.62,2.3-3.95,2.3-6.99c0,0,0,0,0-17.89
									c0-3.04-0.78-5.37-2.3-6.99C150.48,49.91,148.29,49.1,145.38,49.1z M147.27,76.81c0,0.84-0.17,1.42-0.51,1.76
									c-0.34,0.37-0.81,0.54-1.38,0.54s-1.01-0.17-1.35-0.54c-0.34-0.34-0.51-0.91-0.51-1.76c0,0,0,0,0-18.7
									c0-0.84,0.17-1.42,0.51-1.79c0.34-0.34,0.78-0.51,1.35-0.51s1.05,0.17,1.38,0.51c0.34,0.37,0.51,0.95,0.51,1.79V76.81z
									 M254.33,56.13c0,0,0,0-5.84,0c0,0,0,0,0,29.4c0,0,0,0-7.06,0c0,0,0,0,0-29.4c0,0,0,0-5.84,0c0,0,0,0,0-6.72
									c0,0,0,0,18.73,0V56.13z M128.51,49.41c0,0,0,0,7.15,0c0,0,0,0-4.76,36.11c0,0,0,0-7.19,0c0,0,0,0-2.06-14.61
									c0,0,0,0-0.13,0c0,0,0,0-2.06,14.61c0,0,0,0-7.19,0c0,0,0,0-4.73-36.11c0,0,0,0,7.15,0c0,0,0,0,1.82,16.4c0,0,0,0,0.1,0
									c0,0,0,0,1.86-16.4c0,0,0,0,6.21,0c0,0,0,0,1.86,16.4c0,0,0,0,0.13,0L128.51,49.41z M225,84.14
									c1.08-1.14,1.62-2.77,1.62-4.89c0,0,0,0,0-11.24c0-2.13-0.54-3.75-1.62-4.89c-1.05-1.11-2.6-1.69-4.63-1.69
									c-2.03,0-3.58,0.57-4.66,1.69c-1.04,1.15-1.59,2.77-1.59,4.89c0,0,0,0,0,11.24c0,2.13,0.54,3.75,1.59,4.89
									c1.08,1.11,2.63,1.69,4.66,1.69C222.4,85.82,223.95,85.25,225,84.14z M221.69,79.55c0,0.57-0.13,0.98-0.37,1.22
									c-0.23,0.23-0.54,0.37-0.94,0.37c-0.4,0-0.71-0.13-0.94-0.37c-0.24-0.24-0.37-0.64-0.37-1.22c0,0,0,0,0-11.81
									c0-0.61,0.13-1.01,0.37-1.25c0.23-0.24,0.54-0.37,0.94-0.37c0.4,0,0.71,0.13,0.94,0.37c0.24,0.23,0.37,0.64,0.37,1.25V79.55
									z M258.28,49.41c0,0,0,0-7.02,36.11c0,0,0,0,7.32,0c0,0,0,0,1.05-6.75c0,0,0,0,5.74,0c0,0,0,0,1.04,6.75c0,0,0,0,7.32,0
									c0,0,0,0-7.02-36.11H258.28z M260.67,72.05c0,0,0,0,1.76-11.2c0,0,0,0,0.13,0c0,0,0,0,1.75,11.2H260.67z M202.73,49.41
									c0,0,0,0-8.91,0c0,0,0,0,0,36.11c0,0,0,0,8.91,0c2.9,0,5.09-0.81,6.65-2.43c1.52-1.62,2.29-3.95,2.29-6.99c0,0,0,0,0-17.28
									c0-3.04-0.78-5.37-2.29-6.99C207.82,50.22,205.63,49.41,202.73,49.41z M204.62,76.51c0,0.84-0.17,1.42-0.51,1.75
									c-0.34,0.34-0.81,0.51-1.38,0.51c0,0,0,0-1.86,0c0,0,0,0,0-22.64c0,0,0,0,1.86,0c0.57,0,1.04,0.17,1.38,0.51
									c0.34,0.37,0.51,0.94,0.51,1.79V76.51z M184.53,78.77c0,0,0,0,7.29,0c0,0,0,0,0,6.75c0,0,0,0-14.34,0c0,0,0,0,0-36.11
									c0,0,0,0,7.05,0V78.77z M229.08,61.73h10.53c0,0,0,0,0,4.73c0,0,0,0-5.6,0c0,0,0,0,0,5.6c0,0,0,0,4.96,0c0,0,0,0,0,4.69
									c0,0,0,0-4.96,0c0,0,0,0,0,8.78c0,0,0,0-4.93,0C229.08,85.52,229.08,85.52,229.08,61.73z M288.35,49.41c0,0,0,0,7.05,0
									c0,0,0,0,0,36.11c0,0,0,0-6.75,0c0,0,0,0-6.24-16.91c0,0,0,0-0.17,0c0,0,0,0,0,16.91c0,0,0,0-7.05,0c0,0,0,0,0-36.11
									c0,0,0,0,6.78,0c0,0,0,0,6.21,16.84c0,0,0,0,0.17,0V49.41z"/>
							</g>
						</g>
					</g>
				</g>
			</g>
		</g>
		<g>
			<polygon class="st0" points="88.58,118.17 88.58,118.15 88.58,118.15 88.58,118.14 90.31,100.13 90.31,100.07 90.92,93.71 
				90.92,93.71 84.35,162.36 84.35,162.36 			"/>
			<polygon class="st0" points="70.15,194.63 70.15,194.63 63.93,144.17 			"/>
			<polygon class="st0" points="126.36,93.83 116.62,194.63 116.62,194.63 126.36,93.83 			"/>
			<polygon class="st0" points="149.59,178.32 151,194.63 151,194.63 149.59,178.32 			"/>
			<polygon class="st0" points="202.28,177.5 202.28,177.5 202.28,93.83 202.28,93.83 202.28,105.69 			"/>
			<polygon class="st0" points="182.1,103.47 182.1,95.13 182.1,93.83 182.1,93.83 182.1,194.63 182.1,194.63 182.1,103.52 			"/>
			<path class="st0" d="M258.61,195.57c1.1,0,2.15-0.05,3.18-0.14C260.76,195.52,259.7,195.57,258.61,195.57
				C258.61,195.57,258.61,195.57,258.61,195.57z"/>
			<path class="st0" d="M258.61,92.89C258.61,92.89,258.61,92.89,258.61,92.89c3.05,0,5.83,0.31,8.33,0.93
				C264.43,93.2,261.66,92.89,258.61,92.89z"/>
			<path class="st0" d="M240.07,188.12c-2.11-2.48-3.7-5.47-4.75-8.96C236.37,182.65,237.95,185.64,240.07,188.12
				c2.11,2.48,4.71,4.35,7.8,5.59C244.78,192.47,242.18,190.6,240.07,188.12z"/>
			<path class="st0" d="M247.87,94.55c-3.09,1.11-5.69,2.76-7.8,4.97c-2.11,2.21-3.7,4.95-4.75,8.23c1.06-3.28,2.64-6.02,4.75-8.23
				C242.18,97.31,244.78,95.66,247.87,94.55z"/>
			<path class="st0" d="M283.13,173.14c-0.05,0.42-0.11,0.82-0.17,1.22C283.02,173.96,283.08,173.56,283.13,173.14z"/>
			<path class="st0" d="M270.33,193.26c-0.82,0.37-1.67,0.7-2.56,0.99c1.62-0.51,3.11-1.18,4.49-2c-0.3,0.18-0.59,0.36-0.9,0.53
				C271.03,192.96,270.68,193.1,270.33,193.26z"/>
			<path class="st0" d="M283.39,170.26c-0.02,0.34-0.05,0.66-0.08,0.99C283.34,170.92,283.37,170.6,283.39,170.26z"/>
			<path class="st0" d="M282.13,178.32c-0.13,0.47-0.25,0.93-0.4,1.38C281.88,179.25,282.01,178.79,282.13,178.32z"/>
			<path class="st0" d="M281.44,180.55c-0.68,1.92-1.53,3.68-2.55,5.27C279.91,184.23,280.75,182.47,281.44,180.55z"/>
			<path class="st0" d="M282.71,175.83c-0.09,0.45-0.18,0.88-0.28,1.32C282.53,176.72,282.62,176.28,282.71,175.83z"/>
			<path class="st0" d="M278.85,185.87c-0.24,0.36-0.49,0.71-0.74,1.05C278.36,186.58,278.61,186.24,278.85,185.87z"/>
			<path class="st0" d="M275.65,189.73c-0.19,0.18-0.4,0.35-0.6,0.52C275.25,190.08,275.46,189.91,275.65,189.73z"/>
			<path class="st0" d="M264.84,195c-0.82,0.16-1.68,0.27-2.56,0.37C263.16,195.28,264.01,195.16,264.84,195z"/>
			<path class="st0" d="M267.71,194.27c-0.83,0.26-1.7,0.48-2.6,0.67C266.01,194.76,266.88,194.53,267.71,194.27z"/>
			<path class="st0" d="M274.03,191.07c-0.26,0.2-0.53,0.39-0.8,0.57C273.5,191.47,273.77,191.27,274.03,191.07z"/>
			<path class="st0" d="M344.19,148.4c0.11,0.29,0.2,0.6,0.29,0.9C344.38,149,344.3,148.69,344.19,148.4z"/>
			<path class="st0" d="M344.77,150.34c0.1,0.43,0.2,0.87,0.27,1.33C344.96,151.21,344.87,150.77,344.77,150.34z"/>
			<path class="st0" d="M346.38,113.44c-0.23-2.57-0.59-4.87-1.06-6.88c-0.47-2.01-1.16-3.8-2.07-5.37c0.91,1.56,1.6,3.35,2.07,5.37
				C345.79,108.58,346.14,110.87,346.38,113.44z"/>
			<path class="st0" d="M323.85,149.81c-1.1-0.78-3.09-1.17-5.99-1.17l0,0C320.76,148.63,322.75,149.02,323.85,149.81
				c1.09,0.78,1.64,2.58,1.64,5.4v39.43h0V155.2C325.49,152.39,324.94,150.59,323.85,149.81z"/>
			<path class="st0" d="M338.65,142.63c-0.59-0.23-1.22-0.43-1.89-0.57c0.8-0.27,1.55-0.6,2.25-0.97c-0.7,0.37-1.44,0.7-2.25,0.97
				C337.44,142.2,338.06,142.4,338.65,142.63z"/>
			<path class="st0" d="M346.6,125.85c-0.02,0.27-0.04,0.53-0.07,0.79C346.56,126.38,346.58,126.12,346.6,125.85z"/>
			<path class="st0" d="M346.7,124c-0.01,0.19-0.02,0.37-0.03,0.55C346.68,124.36,346.69,124.19,346.7,124z"/>
			<rect x="297.45" y="93.83" class="st0" width="0" height="100.8"/>
			<path class="st0" d="M345.28,133.34c-0.11,0.35-0.23,0.7-0.36,1.02C345.05,134.04,345.16,133.69,345.28,133.34z"/>
			<path class="st0" d="M345.14,152.39c0.08,0.56,0.15,1.13,0.19,1.73c0.02,0.23,0.02,0.48,0.03,0.71c0.03,0.55,0.07,1.07,0.07,1.66
				c0,0,0,0,0,0.01l0,0.46l-0.11,18.07l0.11-18.54C345.44,155,345.32,153.66,345.14,152.39z"/>
			<path class="st0" d="M345.64,132.09c-0.09,0.34-0.18,0.68-0.28,1C345.46,132.76,345.55,132.43,345.64,132.09z"/>
			<path class="st0" d="M346.45,127.59c-0.03,0.3-0.07,0.6-0.11,0.89C346.37,128.18,346.41,127.89,346.45,127.59z"/>
			<path class="st0" d="M345.96,130.7c-0.07,0.33-0.14,0.66-0.22,0.98C345.82,131.36,345.9,131.04,345.96,130.7z"/>
			<path class="st0" d="M346.23,129.2c-0.05,0.32-0.1,0.64-0.16,0.95C346.13,129.84,346.18,129.53,346.23,129.2z"/>
			<path class="st0" d="M345.23,156.95c0.02-0.17,0.11-0.32,0.21-0.46c0-0.58-0.04-1.11-0.07-1.66c-0.45-0.11-0.92,0.17-1.35,0.5
				c-0.19-0.31-0.36-0.6-0.54-0.9c-0.01-0.01-0.02-0.01-0.03-0.02c-0.19,0.23-0.39,0.46-0.77,0.91c0-0.62,0-0.97,0-1.47
				c0.33,0.24,0.55,0.4,0.77,0.56c0,0,0.01-0.01,0.01-0.01c0,0,0,0,0,0.01c0,0,0,0.01,0.01,0.01c0,0.01,0.01,0.01,0.01,0.01v0l0,0
				c0.41-0.22,1.02-0.72,1.19-0.6c0.22,0.15,0.44,0.23,0.66,0.28c-0.04-0.6-0.12-1.17-0.19-1.73c-0.03-0.24-0.07-0.49-0.11-0.72
				c-0.08-0.46-0.17-0.9-0.27-1.33c-0.09-0.36-0.18-0.7-0.29-1.03c-0.09-0.31-0.18-0.61-0.29-0.9c-0.24-0.63-0.5-1.22-0.8-1.76
				c-1.07-1.89-2.65-3.21-4.74-4.01c-0.6-0.23-1.22-0.43-1.89-0.57c0.8-0.27,1.55-0.6,2.25-0.97c2.5-1.31,4.34-3.21,5.5-5.72
				c0.09-0.2,0.17-0.41,0.26-0.62c-0.02,0.01-0.05,0.02-0.07,0.04c-0.04-0.07-0.08-0.13-0.13-0.2c0.12-0.07,0.24-0.14,0.36-0.21
				c0,0,0-0.01,0.01-0.01c0.13-0.33,0.24-0.67,0.36-1.02c0.03-0.09,0.06-0.17,0.08-0.26c0.1-0.32,0.19-0.66,0.28-1
				c0.04-0.13,0.07-0.27,0.1-0.41c0.08-0.32,0.15-0.64,0.22-0.98c0.04-0.18,0.07-0.37,0.11-0.55c0.06-0.31,0.11-0.62,0.16-0.95
				c0.04-0.24,0.07-0.48,0.1-0.73c0.04-0.29,0.08-0.59,0.11-0.89c0.03-0.31,0.06-0.63,0.09-0.94c0.02-0.26,0.05-0.52,0.07-0.79
				c0.03-0.42,0.05-0.86,0.07-1.3c0.01-0.19,0.02-0.36,0.03-0.55c0.02-0.65,0.03-1.32,0.03-2c0-3.13-0.12-5.98-0.35-8.55
				c-0.24-2.57-0.59-4.87-1.06-6.88c-0.47-2.01-1.16-3.8-2.07-5.37c-0.91-1.56-2.04-2.9-3.39-4.02c-2.7-2.23-6.51-3.34-11.44-3.34
				h-30.98v100.8h20.42v-35.7c-0.04,0-0.07-0.01-0.11-0.01c-0.72-0.04-0.82-0.66-0.69-1.25c0.14-0.65,0.34-1.28,0.56-2.09
				c0.08-0.01,0.16-0.03,0.24-0.04v-6.92c0,0,0,0,0,0l0,0c2.89,0,4.89,0.39,5.99,1.17c1.09,0.78,1.64,2.58,1.64,5.4v39.43h19.71
				l0.12-19.6l0.11-18.07C345.37,156.95,345.31,156.95,345.23,156.95z M345.01,122.91c0,0.01,0,0.02-0.01,0.02l-0.02-0.02
				c0,0,0.02,0.02,0.02,0.02c-0.02,0-0.04,0-0.05,0.01c-0.29,0.28-0.6,0.57-1.16,1.11c0.09-1.18,0.7-1.04,1.16-1.11
				c0.01-0.01,0.02-0.02,0.03-0.03C344.99,122.91,345,122.91,345.01,122.91c0.05-0.2,0.09-0.4,0.14-0.6
				c0.15,0.21,0.29,0.42,0.44,0.63C345.39,122.94,345.2,122.92,345.01,122.91z M346.5,117.97c-0.41,0.26-0.82,0.53-1.24,0.79
				c-0.06-0.08-0.13-0.17-0.19-0.25c0.39-0.29,0.79-0.59,1.18-0.88C346.34,117.74,346.42,117.85,346.5,117.97z M343.1,113.01
				C343.1,113.01,343.1,113.01,343.1,113.01c0.83-0.42,0.78-1.09,0.59-1.84c-0.2-0.79,0.14-1.3,1-1.43
				c0.95-0.14,1.15,0.42,1.27,1.38c-0.6-0.19-1.02-0.31-1.62-0.5c0,0.65,0,1.26,0,1.92c0.5-0.09,0.93-0.16,1.74-0.31
				c-0.47,0.8-0.92,1.27-1.01,1.8c-0.08,0.5,0.22,1.06,0.36,1.6c-1.69,0.52-1.92,0.47-2.84-0.69c0.55-0.24,1.07-0.48,1.79-0.8
				C343.87,113.7,343.49,113.36,343.1,113.01c-0.01,0.01-0.01,0.02-0.02,0.03v0c-0.01-0.01-0.02-0.01-0.03-0.02
				c-0.28,0.04-0.55,0.09-0.83,0.13c0.29-0.54,0.3-0.55,0.83-0.13C343.06,113.02,343.08,113.01,343.1,113.01z M342.38,109.76
				c0.25,0.32,0.48,0.52,0.53,0.75c0.03,0.11-0.34,0.45-0.41,0.42c-0.24-0.11-0.48-0.3-0.61-0.52
				C341.85,110.33,342.14,110.08,342.38,109.76z M341.27,120.05c0.04,0,0.09,0,0.13,0c0,0.7,0,1.4,0,2.1c-0.04,0-0.09,0-0.13,0
				C341.27,121.45,341.27,120.75,341.27,120.05z M339.27,126.13c-0.06,0.01-0.13-0.12-0.19-0.18c0.14-0.08,0.28-0.17,0.43-0.22
				c0.03-0.01,0.12,0.13,0.22,0.25C339.57,126.04,339.42,126.11,339.27,126.13z M339.7,115.87c-0.3-0.15-0.59-0.29-1.02-0.5
				C339.45,114.72,339.65,115.22,339.7,115.87z M342.95,157.94c0.15,0.18,0.31,0.37,0.46,0.55c-0.06,0.06-0.12,0.12-0.18,0.18
				c-0.18-0.15-0.37-0.3-0.55-0.45C342.77,158.14,342.86,158.04,342.95,157.94z M332.52,153.51c0.14,0.53,0.23,0.91,0.39,1.5
				c-0.81,0.14-1.39,0.24-2.05,0.35C330.54,153.88,331.67,153.95,332.52,153.51z M301.04,159.13c-0.21,0.15-0.41,0.29-0.61,0.44
				c-0.06-0.08-0.12-0.16-0.18-0.24c0.21-0.14,0.41-0.29,0.62-0.43C300.92,158.97,300.98,159.05,301.04,159.13z M300.6,154.72
				c-0.03,0.13-0.06,0.26-0.09,0.4c-0.25-0.07-0.51-0.13-0.76-0.2c0.04-0.1,0.08-0.28,0.11-0.28
				C300.11,154.65,300.36,154.69,300.6,154.72z M299.84,132.9c-0.05,0.26-0.12,0.52-0.19,0.77c-0.15-0.04-0.29-0.07-0.44-0.11
				c0.12-0.26,0.23-0.52,0.36-0.77C299.58,132.79,299.84,132.88,299.84,132.9z M298.69,109.76c0.02,0.37,0.04,0.57,0.05,0.77
				c-0.13-0.1-0.27-0.19-0.37-0.32C298.35,110.18,298.49,110.03,298.69,109.76z M298.15,111.84c0.21,0.02,0.43,0.04,0.64,0.05
				c-0.08,0.54-0.17,1.08-0.25,1.63c-0.16-0.01-0.32-0.03-0.48-0.04C298.09,112.93,298.12,112.39,298.15,111.84z M299.28,115.48
				c0,2.32,0,4.22,0,6.12c-0.11,0-0.23,0-0.34,0c-0.33-1.4-0.67-2.8-1.05-4.41C298.22,116.8,298.65,116.26,299.28,115.48z
				 M298.49,189.92c-0.24,0-0.49,0.01-0.73-0.01c-0.02,0-0.02-0.21-0.03-0.33c0.25,0,0.5,0,0.75,0
				C298.49,189.69,298.49,189.8,298.49,189.92z M302.03,178.04c-1.04,0.17-2.05,0.33-3.3,0.53c0.44-0.65,0.73-1.09,1.03-1.54
				c0.5,0.02,0.96,0.04,1.72,0.08c-0.3-0.8-0.52-1.39-0.78-2.08c0.39-0.14,0.78-0.29,1.33-0.49
				C302.03,175.75,302.03,176.81,302.03,178.04z M305.08,137.98c0.06-0.17,0.12-0.35,0.18-0.52c0.51,0.19,1.02,0.38,1.85,0.69
				C306.12,138.42,305.49,138.7,305.08,137.98z M305.64,113.14c-0.03,0.29-0.08,0.74-0.12,1.16c-0.85,0.35-1.55-0.18-2.74-2.13
				c0.73-0.08,1.48-0.4,1.96-0.17c0.82,0.38,0.3-0.83,0.72-0.47c0.26,0.22,0.31,0.76,0.76,0.3c0.86-0.87,1.38-0.39,2.08,0.59
				C307.3,112.69,306.55,112.9,305.64,113.14z M311.81,155.83c-0.14-0.08-0.21-0.28-0.31-0.42c0.14-0.08,0.34-0.26,0.42-0.22
				c0.18,0.09,0.3,0.29,0.58,0.59C312.11,155.82,311.91,155.9,311.81,155.83z M314.2,155.97c-0.21-0.06-0.38-0.22-0.57-0.34
				c0.12-0.11,0.23-0.32,0.35-0.32c0.2,0.01,0.39,0.14,0.72,0.28C314.44,155.79,314.29,156,314.2,155.97z M317.66,142.48
				c-0.09-0.01-0.17-0.01-0.26-0.02c0.02-0.26,0.04-0.52,0.06-0.78c0.1,0.01,0.2,0.02,0.3,0.02
				C317.72,141.97,317.69,142.23,317.66,142.48z M322.21,143.69c-0.21-1.69-0.42-3.39-0.63-5.1c0.24,0.02,0.45,0.01,0.46,0.03
				c0.23,1.69,0.44,3.39,0.65,5.08C322.52,143.7,322.37,143.69,322.21,143.69z M322.86,147.46c-0.05,0-0.09,0-0.14,0
				c0-0.38,0-0.76,0-1.14c0.05,0,0.09,0,0.14,0C322.86,146.71,322.86,147.09,322.86,147.46z M325.96,128.86
				c-0.7,1.53-1.76,2.29-3.17,2.29h0h-4.81h0V113.4c-1.07-0.18-2.13-0.03-3.22,0.24c-0.08-0.52-0.14-0.92-0.21-1.32
				c-0.13-0.01-0.33-0.06-0.35-0.02c-0.49,0.84-1.15,1.28-2.09,0.89c-0.49,0.46-0.85,0.97-1.35,1.18c-0.33,0.14-0.86-0.17-1.32-0.29
				c0.86-2.3,2.92-2.11,4.58-2.5c1.32-0.31,2.73-0.26,4.1-0.35c0.44-0.03,0.97-0.12,1.3,0.07c1.65,0.96,3.25,0.46,4.88-0.01
				c0.36-0.1,0.74-0.13,1.2-0.2c0.08,0.74-0.06,1.49-0.06,2.23c0,0,0,0,0,0.01c0.19,0.17,0.36,0.39,0.52,0.65
				c0.03,0.05,0.06,0.1,0.09,0.15c0.15,0.27,0.28,0.58,0.39,0.93c0,0.01,0,0.01,0.01,0.01c0.31-0.02,0.68-0.04,1.22-0.07
				c-0.4,0.24-0.77,0.35-1.14,0.4c0.05,0.19,0.1,0.38,0.14,0.59c0.23,1.33,0.35,3.33,0.35,5.98
				C327.02,125.05,326.67,127.33,325.96,128.86z M327.61,166.79c0.15-0.04,0.3-0.07,0.45-0.11c0.19,0.77,0.39,1.54,0.63,2.48
				C327.45,168.11,327.45,168.11,327.61,166.79z M328.48,173.27c-0.11,0.01-0.23,0.03-0.35,0.04c0-0.25,0-0.5,0-0.75
				c0.07-0.01,0.14-0.01,0.21-0.02C328.39,172.78,328.43,173.03,328.48,173.27z M328.02,184.35c0-0.58,0-1.17,0-1.9
				C328.98,183.14,328.46,183.78,328.02,184.35z M327.85,180.07c0.13-1,0.35-1.86,0.33-2.72c-0.02-0.9-0.27-1.8-0.26-2.74
				c0.94,1.4,1.08,2.99,1.18,4.57C329.15,179.99,328.65,180.25,327.85,180.07z M328.28,114.72c0.78,0,1.26,0,1.8,0
				C329.44,116.03,329.44,116.03,328.28,114.72z M333.08,179.15c-0.7,0-1.4,0-2.2,0c1.51-1.85,1.51-1.85,2.48-1.88
				C333.28,177.86,333.19,178.43,333.08,179.15z M331.39,158.07c-0.01,0.01-0.01,0.01-0.02,0.02l-0.02-0.02c0,0,0.02,0.02,0.02,0.02
				c-0.01,0-0.03-0.01-0.04-0.01c-0.47,0.34-1.41,0.32-0.64,1.63c-0.22-0.1-0.43-0.21-0.65-0.31c-0.04-0.34-0.22-0.74-0.1-1.02
				c0.28-0.66,0.88-0.37,1.39-0.3c0.01-0.01,0.02-0.01,0.03-0.02C331.36,158.06,331.38,158.06,331.39,158.07
				c0.42-0.48,0.84-0.95,1.33-1.51c0.21,0.53,0.43,1.07,0.71,1.77C332.63,158.22,332.01,158.14,331.39,158.07z M333.74,115.37
				c-0.32-0.04-0.64-0.08-0.96-0.12c0.03-0.16,0.05-0.33,0.08-0.49c0.31,0.04,0.62,0.06,0.92,0.13
				C333.8,114.9,333.75,115.21,333.74,115.37z M338.21,178.01c-0.55,0.69-1.05,1.32-1.72,2.16c-0.63-0.84-0.99-1.31-1.33-1.77
				c1.63-1.62,2.34-1.69,4.68-0.39C339.13,178.01,338.61,178.01,338.21,178.01z M336.21,157.96c0.23-0.12,0.47-0.24,0.71-0.34
				c0.01,0,0.1,0.16,0.15,0.25c-0.24,0.12-0.48,0.25-0.72,0.37C336.3,158.15,336.25,158.06,336.21,157.96z M340.76,158.34
				c-0.55,0.12-1.07,0.23-1.73,0.38c-0.12-0.55-0.25-1.08-0.34-1.49c0.73-0.21,1.34-0.39,2.07-0.6
				C340.76,157.08,340.76,157.68,340.76,158.34z M339.8,154.91c-0.52,0.28-0.94,0.72-1.47,1.13c-0.36-0.45-0.61-0.77-1.01-1.27
				c-0.19,1.11-1.84,0.27-1.77,1.67c-1.02-0.12-1.73-0.51-1.61-1.47c0.11-0.93,0.91-1.24,1.82-1.24c1.7,0,3.39,0,5.18,0
				C341.38,155.11,340.29,154.64,339.8,154.91z M342.55,178.07c-0.44-0.16-0.87-0.31-1.31-0.47c0.04-0.11,0.08-0.23,0.12-0.34
				c0.44,0.14,0.89,0.28,1.33,0.42C342.64,177.81,342.6,177.94,342.55,178.07z M342.74,164.48c0.29-0.08,0.51-0.2,0.7-0.17
				c0.28,0.04,0.54,0.19,1.12,0.41C343.6,165.48,343.17,165.3,342.74,164.48z"/>
			<path class="st0" d="M107.6,112.37c0-1.35,0-2.44,0-3.52c0.23,0.53,0.44,1.05,0.5,1.6l2.06-16.74H90.92l-0.61,6.36
				c0.01,0.01,0.01,0.02,0.02,0.03c-0.01,0.01-0.02,0.02-0.03,0.02l-1.72,18.01c0,0,0.01,0,0.01,0l-0.01,0.01v0
				c0.01-0.01,0.01-0.01,0.01-0.01c0.01,0.02,0.02,0.05,0.03,0.07c0.23,0.23,0.45,0.45,0.68,0.68c-0.11,0.08-0.23,0.16-0.34,0.25
				c-0.11-0.31-0.22-0.62-0.33-0.93c-0.01-0.01-0.03-0.03-0.04-0.04l-4.23,44.19l0,0l0,0l-2.24-20.78
				c-0.21,0.11-0.41,0.19-0.55,0.14c-0.7-0.26-0.45-0.87-0.27-1.4c0.09-0.28,0.08-0.59,0.11-0.92c0.18,0.24,0.37,0.46,0.55,0.67
				l-3.77-35c-0.55-0.01-1.09-0.02-0.91-1.27c0.27,0.16,0.55,0.32,0.82,0.48l-1.1-10.25c-0.37-0.07-0.75-0.2-1.14-0.32h-0.42
				c-0.17,0.18-0.37,0.39-0.57,0.59c-0.26-0.13-0.45-0.34-0.59-0.59h-5.66c0.29,0.09,0.55,0.17,0.8,0.24
				c-0.05,0.23-0.04,0.5-0.14,0.54c-0.94,0.4-1.9,0.77-3.05,1.22c0.35-0.71,0.67-1.37,0.98-2.01h-1.48
				c-0.02,0.27-0.04,0.56-0.05,0.89c-0.28,0.01-0.58,0.06-0.86,0.03c-0.3-0.03-0.6-0.14-1.06-0.25c0.11-0.22,0.17-0.44,0.21-0.66
				H59.9c0.04,0.1,0.08,0.21,0.12,0.31c-0.37,0.14-0.73,0.29-1.1,0.43c-0.06-0.17-0.13-0.34-0.19-0.51c0.25-0.08,0.5-0.16,0.76-0.23
				h-1.78l6.22,50.46l6.22,50.46h20.63c0.18-0.44,0.68-0.75,1.2-1.15c0.21,0.42,0.4,0.8,0.58,1.15h5.17l10.22-82.93
				C107.86,111.92,107.76,112.14,107.6,112.37z M107.94,103.51c0.16,0.01,0.32,0.03,0.48,0.04c-0.07,1.26-0.14,2.52-0.22,3.78
				C107.37,106.04,108.05,104.78,107.94,103.51z M71.13,101.73c0.12,0.03,0.24,0.06,0.37,0.08c-0.08,0.33-0.17,0.67-0.25,1
				c-0.12-0.03-0.23-0.05-0.35-0.08C70.97,102.4,71.05,102.06,71.13,101.73z M69.01,96.95c0.04,0,0.08,0,0.12,0
				c0,0.57,0,1.15,0,1.72c-0.04,0-0.08,0-0.12,0C69.01,98.1,69.01,97.52,69.01,96.95z M65.84,100.19c0.06,0.07,0.13,0.15,0.19,0.22
				c-0.21,0.19-0.42,0.37-0.64,0.56c-0.08-0.1-0.15-0.21-0.23-0.31C65.39,100.5,65.61,100.34,65.84,100.19z M61.96,126.6
				c-0.03,0-0.07,0-0.1,0c0-0.26,0-0.53,0-0.79c0.03,0,0.07,0,0.1,0C61.96,126.07,61.96,126.33,61.96,126.6z M65.73,104.18
				c0.02,0.38,0.04,0.77,0.08,1.31c0.89-1.45,1.55-2.12,3.04-3.07c0.01,0.84,0.16,1.56,0,2.22c-0.18,0.79-0.63,1.3-1.71,1.33
				c-1.67,0.04-2.99-0.64-4.41-1.35C63.58,103.1,64.67,103.97,65.73,104.18z M67.27,126.16c0,0.52,0,1.04,0,1.56
				c-0.14-0.01-0.29-0.01-0.43-0.02c0.1-0.52,0.19-1.04,0.29-1.56C67.18,126.15,67.22,126.16,67.27,126.16z M64.84,107.67
				c0.34-0.05,0.67-0.1,1.01-0.15c0.01,0.17,0.02,0.35,0.04,0.52c-0.31,0.09-0.62,0.18-0.93,0.27
				C64.92,108.1,64.88,107.89,64.84,107.67z M68.24,143.63c-0.06,0.21-0.18,0.61-0.29,0.97c-0.72-0.33-1.43-0.66-2.12-0.98
				c0.49-0.32,0.92-0.67,1.41-0.92c0.29-0.15,0.66-0.16,1-0.23c0.61-0.13,1.22-0.25,2-0.41c0.03,0.05,0.14,0.3,0.37,0.79
				C69.81,143.1,69.1,143.34,68.24,143.63z M70.15,140.38c-0.59-0.41-1.08-0.75-1.66-1.16c-0.34,0.63-0.62,1.14-0.94,1.73
				c-0.42-0.07-0.82-0.14-1.41-0.23c0.62-1.43,1.19-2.72,1.76-4.01c-0.12,1.51,2.59,1.1,1.87,3.1c0.86-0.15,1.32-0.23,1.79-0.31
				c0.03,0.06,0.06,0.12,0.1,0.18C71.14,139.9,70.63,140.14,70.15,140.38z M70.95,106.31c0-0.78,0-1.35,0-2.01c0.45,0,0.85,0,1.61,0
				C71.93,105.09,71.52,105.6,70.95,106.31z M72.92,143.93c-0.1-0.01-0.19-0.02-0.29-0.03c0.02-0.33,0.04-0.65,0.06-0.98
				c0.14,0.03,0.29,0.05,0.43,0.08C73.06,143.3,72.99,143.62,72.92,143.93z M74.06,102.11c-0.14-0.22-0.28-0.43-0.39-0.65
				c-0.01-0.03,0.15-0.13,0.23-0.2c0.17,0.2,0.35,0.39,0.52,0.59C74.3,101.93,74.18,102.02,74.06,102.11z M75.87,101.06
				c0.04,0,0.08,0,0.12,0c0,0.67,0,1.33,0,2c-0.04,0-0.08,0-0.12,0C75.87,102.39,75.87,101.73,75.87,101.06z M74.84,189.9
				c1.21,1.57,1.21,1.61-0.21,2.02C74.71,191.13,74.77,190.56,74.84,189.9z M74.93,180.55c0.23-0.03,0.45-0.06,0.68-0.09
				c0,0.32,0,0.64,0,0.95c-0.15,0.01-0.31,0.02-0.46,0.03C75.08,181.14,75.01,180.85,74.93,180.55z M75.73,194.3
				c-0.32-0.16-0.65-0.33-0.97-0.49c0.05-0.11,0.11-0.22,0.16-0.33c0.34,0.13,0.68,0.26,1.02,0.39
				C75.87,194.01,75.8,194.15,75.73,194.3z M75.8,178.24c-0.37-0.34-0.99-0.66-0.96-0.93c0.08-0.89,1.07-0.72,1.55-1.23
				C77.38,177.23,76.17,177.51,75.8,178.24z M77.91,177.91c-0.1-0.02-0.2-0.04-0.3-0.06c0.08-0.4,0.15-0.8,0.23-1.19
				c0.13,0.02,0.25,0.05,0.38,0.07C78.11,177.12,78.01,177.52,77.91,177.91z M79.63,144.13c-0.22,0.1-0.5,0.22-0.77,0.37
				c-0.22,0.11-0.41,0.26-0.86,0.54c0-0.74,0-1.35,0-1.96c-0.01-0.01-0.02-0.01-0.03-0.02c0-0.01,0-0.01-0.01-0.02
				c-1.34,0.2-1.35,0.22-1.18,1.79c-0.44-0.16-0.88-0.31-1.32-0.47c0.44-0.9,0.89-1.84,1.39-2.87c0.94,0.11,0.88,0.94,1.11,1.55
				c0.01,0,0.02,0,0.03-0.01c0,0.01,0,0.03,0,0.05c0.29,0.2,0.59,0.41,0.88,0.61c0.09-0.08,0.17-0.16,0.26-0.24
				c-0.16-0.28-0.42-0.54-0.46-0.83c-0.04-0.25,0.1-0.59,0.28-0.79c0.11-0.13,0.53-0.17,0.67-0.07c0.21,0.16,0.44,0.49,0.41,0.72
				C79.99,143,79.79,143.52,79.63,144.13z M88.25,183.11c0.07-0.8,0.06-1.61,0.08-2.42c0.15-0.01,0.3-0.01,0.45-0.02
				c0.08,1.44,0.16,2.87,0.25,4.43C88.12,184.29,88.14,184.29,88.25,183.11z M88.81,194.19c-0.15-0.15-0.3-0.3-0.45-0.45
				c0.12-0.1,0.26-0.29,0.37-0.28c0.14,0.01,0.26,0.19,0.44,0.33C89.02,193.95,88.91,194.07,88.81,194.19z M88.77,176.3
				c-0.1-0.03-0.19-0.07-0.29-0.1c0.11-0.33,0.23-0.67,0.34-1c0.14,0.05,0.28,0.09,0.42,0.14C89.09,175.66,88.93,175.98,88.77,176.3
				z M94.1,99.12c0.13,0.2,0.27,0.4,0.4,0.6c-0.13,0.08-0.26,0.15-0.4,0.23c-0.09-0.23-0.18-0.46-0.27-0.69
				C93.92,99.21,94.01,99.17,94.1,99.12z M93.45,140.97c0.03-0.54,0.05-1.08,0.08-1.62c0.08-0.01,0.16-0.01,0.24-0.02
				c0.07,0.53,0.14,1.06,0.2,1.59C93.8,140.94,93.62,140.96,93.45,140.97z M94.34,108.81c-0.2-0.07-0.37-0.21-0.55-0.33
				c0.13-0.11,0.24-0.28,0.39-0.32c0.12-0.03,0.28,0.12,0.48,0.22C94.52,108.57,94.38,108.82,94.34,108.81z M93.59,104.31
				c0.25-0.68-1.61-0.68-0.51-1.65c0.6,0.27,1.22,0.55,1.89,0.86C94.86,104.25,94.26,104.33,93.59,104.31z M96.39,114.89
				c-0.05,0-0.1,0-0.14,0c0-0.27,0-0.53,0-0.8c0.05,0,0.1,0,0.14,0C96.39,114.36,96.39,114.62,96.39,114.89z M96.39,101.25
				c-0.04,0.01-0.08,0.01-0.11,0.02c-0.08-0.58-0.16-1.16-0.23-1.73c0.12-0.01,0.23-0.03,0.35-0.04
				C96.39,100.08,96.39,100.66,96.39,101.25z M98.94,102.15c0.13-0.02,0.26-0.03,0.4-0.05c0.04,0.6,0.09,1.2,0.13,1.79
				c-0.16,0.02-0.32,0.03-0.48,0.05C98.72,103.38,98.83,102.76,98.94,102.15z M100.05,175.03c-0.09-0.01-0.19-0.02-0.28-0.03
				c0.06-0.4,0.13-0.81,0.2-1.21c0.09,0.02,0.19,0.05,0.28,0.07C100.18,174.25,100.11,174.64,100.05,175.03z M100.74,151.39
				c-0.12-0.03-0.23-0.05-0.35-0.08c0.08-0.41,0.15-0.83,0.23-1.24c0.13,0.03,0.26,0.05,0.39,0.08
				C100.92,150.56,100.83,150.98,100.74,151.39z M99.07,107.87c0.91,0,1.81,0,2.72,0C100.89,108.4,99.98,108.28,99.07,107.87z
				 M101.13,104.14c-0.26-0.76-0.51-1.48-0.76-2.2c0.09-0.05,0.18-0.1,0.27-0.16c0.63,0.84,1.25,1.68,1.97,2.64
				C101.99,104.31,101.52,104.22,101.13,104.14z M106.19,103.51c-0.14-0.04-0.27-0.08-0.41-0.12c0.15-0.49,0.31-0.98,0.46-1.47
				c0.13,0.04,0.27,0.08,0.4,0.11C106.49,102.52,106.34,103.02,106.19,103.51z"/>
			<path class="st0" d="M202.28,177.5L202.28,177.5l0-71.81c-0.05-0.21-0.1-0.39-0.22-0.52c-0.77-0.81-0.7-1.62-0.18-2.49
				c0.06-0.1,0.1-0.23,0.1-0.35c-0.05-2-0.11-4.01-0.17-6.01c-0.02-0.64-0.41-0.95-1.02-1.15c-0.76-0.24-1.07-0.71-1.08-1.34h-3.39
				c-0.01,0.04-0.02,0.08-0.02,0.12c-0.12,0-0.25,0-0.37,0c-0.02-0.04-0.04-0.08-0.06-0.12h-11.51c0,0.38,0.01,0.76,0.01,1.14
				c-0.01,1.88-0.15,3.76-0.12,5.64c0.02,1.08,0.29,2.15,0.39,3.22c0.04,0.41-0.09,0.83-0.17,1.47c-0.88-0.66-1.5-1.12-2.38-1.78
				v91.11h40.95V177.5H202.28z M191.79,161.84c0,0.4,0,0.8,0,1.2c-0.09,0.01-0.18,0.01-0.27,0.02c-0.05-0.4-0.1-0.8-0.15-1.2
				C191.51,161.85,191.65,161.84,191.79,161.84z M191.36,151.47c0-0.44,0-0.88,0-1.32c0.05-0.02,0.11-0.04,0.16-0.06
				c0,0.46,0,0.92,0,1.37C191.47,151.46,191.42,151.47,191.36,151.47z M185.52,96.58c0.15-0.52,0.73-1.03,0.13-1.68
				c-0.09-0.1,0.26-0.87,0.55-0.96c0.42-0.14,0.97,0.03,1.46,0.07c0.05,0.2,0.11,0.4,0.16,0.6c-0.33,0.16-0.65,0.32-1.27,0.62
				c0.91,0.29,1.41,0.45,1.9,0.61c0,0.1,0.01,0.2,0.01,0.3c-0.47,0.03-0.94,0.06-1.5,0.1c-0.21,0.49-0.43,1.02-0.65,1.55
				C185.44,97.63,185.34,97.23,185.52,96.58z M182.34,160.24c-0.03,0-0.06,0-0.1,0.01c-0.02-0.24-0.03-0.48-0.05-0.72
				c0.05,0,0.1,0,0.14-0.01C182.34,159.75,182.34,159.99,182.34,160.24z M185.22,124.66c-0.36-1.25,0.25-2.47-1.52-3.02
				c0.96-0.48,1.53-0.76,2.21-1.1C185.67,121.9,185.48,123.07,185.22,124.66z M185.86,108.38c-0.08-0.02-0.16-0.04-0.24-0.06
				c0.06-0.24,0.11-0.48,0.17-0.71c0.09,0.02,0.18,0.04,0.27,0.06C185.99,107.91,185.92,108.15,185.86,108.38z M186.16,103.07
				c0.02-0.27,0.54-0.76,0.61-0.73c0.44,0.22,0.81,0.56,1.43,1.03c-0.56,0.41-0.85,0.81-1.18,0.84
				C186.27,104.25,186.13,103.61,186.16,103.07z M187.72,156.19c-0.04,0-0.09,0-0.13,0c0-0.33,0-0.65,0-0.98
				c0.03,0,0.06,0,0.09-0.01C187.69,155.53,187.7,155.86,187.72,156.19z M187.22,166.29c-0.11-1.2-0.47-2.4-0.45-3.6
				c0.03-1.43,0.34-2.86,0.53-4.28c0.19,0.01,0.37,0.02,0.56,0.03c0,4.26,0,8.53,0,12.79c-0.1,0.01-0.2,0.01-0.3,0.02
				C187.45,169.6,187.37,167.94,187.22,166.29z M188.69,172.4c-0.2,1.01-0.38,1.93-0.58,2.97
				C187.56,172.7,187.56,172.7,188.69,172.4z M188.29,176.93c0.24,1.81,0.26,3.29-0.07,4.76
				C188.28,180.21,187.14,178.73,188.29,176.93z M187.81,192.53c0.67-0.94,0.76-1.89,0.59-2.94c-0.16-0.96-0.1-1.95-0.14-2.92
				c0.18-0.01,0.37-0.02,0.55-0.03c0.31,2.1,0.61,4.19,0.94,6.41C189.02,192.86,188.46,192.71,187.81,192.53z M190.9,95.08
				c0.18,0.35,0.36,0.7,0.68,1.3C190.58,96.12,190.57,95.69,190.9,95.08z M192.49,179.44c0.23,0.3,0.34,0.44,0.45,0.59
				c-0.15-0.03-0.31-0.04-0.45-0.09C192.46,179.92,192.49,179.76,192.49,179.44z M192.89,188.73c-0.16-0.09-0.34-0.15-0.33-0.19
				c0.02-0.14,0.1-0.27,0.16-0.41c0.09,0.05,0.26,0.1,0.26,0.15C193,188.43,192.93,188.57,192.89,188.73z M191.59,167.62
				c-0.01-0.01-0.02-0.02-0.03-0.04l0,0c0-0.02,0-0.03,0-0.05c-0.66-0.58-0.23-1.17-0.01-1.76c0-0.03,0-0.06,0-0.08
				c0.01-0.01,0.01-0.01,0.02-0.02c-0.02-0.32-0.05-0.63-0.08-1c0.68,0.48,0.68,0.49,0.08,1c0,0.01,0,0.03,0,0.04c0,0,0,0,0,0
				c-0.01,0.02-0.02,0.04-0.02,0.07c0,0.59,0.01,1.17,0.01,1.76c0.01,0.01,0.02,0.02,0.03,0.03
				C191.59,167.59,191.59,167.61,191.59,167.62c0.07,0.09,0.15,0.17,0.18,0.27c0.79,2.63,0.85,5.34,1.24,8.37
				C192.03,174.77,191.44,170.64,191.59,167.62z M194.12,117.31c-0.06-0.02-0.12-0.03-0.19-0.05c0-0.89,0-1.79,0-2.68
				c0.06,0,0.12,0,0.19,0C194.12,115.49,194.12,116.4,194.12,117.31z M194.24,102.43c-0.01,0.83,0,1.67-0.17,2.5
				c-0.98-3.66-0.29-7.36-0.59-11.04c0.16-0.01,0.31-0.03,0.47-0.04c0.11,1.11,0.29,2.23,0.32,3.34
				C194.31,98.93,194.25,100.68,194.24,102.43z M195.26,126.69c0.17,3.34,0.35,6.68,0.52,10.02c-0.08,0.01-0.16,0.02-0.25,0.02
				c-0.16-1.14-0.44-2.28-0.44-3.41c0-1.09-0.69-2.11-0.19-3.25C195.38,128.99,194.07,127.8,195.26,126.69z M196.01,172.13
				c-0.39-0.37-0.7-0.76-0.03-1.4c0.18,0.57,0.3,0.94,0.42,1.33C196.21,172.09,196.06,172.17,196.01,172.13z M196.23,151.01
				c-0.21-1.5-0.48-3-0.61-4.51c-0.03-0.4,0.35-0.84,0.56-1.26c0-0.01,0-0.02-0.01-0.02c0-0.01,0-0.01,0-0.02
				c-0.74-0.06-1.01-0.46-1.1-1.18c-0.25-1.9-0.37-3.79,0.19-6.02c0.84,1.3,0.44,2.49,0.53,3.59c0.1,1.2,0.25,2.4,0.37,3.6
				c0.01,0,0.02,0.01,0.03,0.01l0,0c-0.01,0.01-0.02,0.03-0.02,0.04C196.65,147.15,196.9,149.07,196.23,151.01z M197.94,103.65
				c-0.58,0.1-1.36,0.75-1.69-0.49c0.63-0.22,1.27-0.44,2.06-0.72C198.49,103.01,198.69,103.53,197.94,103.65z M198.9,114.41
				c-0.12-0.02-0.25-0.05-0.37-0.07c0.11-0.42,0.23-0.84,0.34-1.26c0.09,0.02,0.18,0.03,0.27,0.05
				C199.05,113.56,198.97,113.98,198.9,114.41z M200.51,103.46c-0.25,0.08-0.52,0.12-0.78,0.17c-0.04-0.15-0.07-0.29-0.11-0.44
				c0.27-0.07,0.54-0.14,0.8-0.21C200.46,103.15,200.54,103.45,200.51,103.46z M211.95,192.43c-0.2-0.34-0.4-0.68-0.6-1.01
				c0.09-0.05,0.17-0.1,0.26-0.15c0.22,0.33,0.44,0.66,0.65,0.99C212.16,192.31,212.06,192.37,211.95,192.43z M220.79,191.37
				c-0.05-0.76-0.04-1.53-0.18-2.27c-0.14-0.77-0.41-1.52-0.63-2.28c0.13-0.03,0.26-0.05,0.39-0.08c0.77,1.45,0.72,3.03,0.77,4.59
				C221.03,191.34,220.91,191.36,220.79,191.37z"/>
			<polygon class="st0" points="317.98,112.49 317.98,113.4 317.98,131.15 317.98,131.15 317.98,112.49 			"/>
			<path class="st0" d="M326.53,115.42c-0.02-0.06-0.03-0.13-0.05-0.2c0.07,0.25,0.13,0.5,0.18,0.79c0.24,1.33,0.35,3.33,0.35,5.98
				c0,3.05-0.35,5.34-1.06,6.87c0.7-1.53,1.06-3.81,1.06-6.87c0-2.66-0.12-4.65-0.35-5.98C326.63,115.8,326.58,115.61,326.53,115.42
				z"/>
			<path class="st0" d="M322.68,112.49L322.68,112.49c1.17,0,2.07,0.25,2.7,0.76c0.03,0.02,0.05,0.06,0.08,0.08c0,0,0,0,0-0.01
				c-0.03-0.02-0.05-0.06-0.07-0.08C324.75,112.74,323.85,112.49,322.68,112.49z"/>
			<path class="st0" d="M326.45,115.08c0-0.01,0-0.01-0.01-0.01C326.45,115.08,326.45,115.08,326.45,115.08
				C326.45,115.09,326.45,115.08,326.45,115.08z"/>
			<path class="st0" d="M325.97,113.99c0.03,0.05,0.06,0.1,0.09,0.15C326.03,114.08,326,114.03,325.97,113.99z"/>
			<path class="st0" d="M258.72,111.43C258.72,111.43,258.72,111.43,258.72,111.43c1.8,0,2.99,0.69,3.58,2.05
				c0.59,1.37,0.88,3.15,0.88,5.34v49.29c0,2.82-0.31,5.01-0.94,6.57c-0.49,1.22-1.34,1.95-2.54,2.22c1.2-0.27,2.05-1,2.54-2.22
				c0.62-1.56,0.94-3.75,0.94-6.57v-49.29c0-2.19-0.29-3.97-0.88-5.34C261.72,112.12,260.52,111.43,258.72,111.43z"/>
			<path class="st0" d="M254.73,174.8c-0.16-0.33-0.29-0.71-0.41-1.11C254.44,174.09,254.58,174.47,254.73,174.8
				c0.7,1.49,1.99,2.23,3.87,2.23c0,0,0,0,0,0C256.73,177.03,255.44,176.29,254.73,174.8z"/>
			<path class="st0" d="M183.51,101.62c-0.06-1.29,0.41-2.61-0.58-3.83c-0.36-0.44-0.23-1.27-0.29-1.92
				c-0.04-0.42-0.22-0.65-0.54-0.74v8.34C183.37,103.19,183.55,102.47,183.51,101.62z"/>
			<path class="st0" d="M283.48,119.18c0-8.68-2.11-15.24-6.34-19.65c-1.58-1.66-3.44-3-5.58-4.04c-1.42-0.69-2.97-1.24-4.64-1.66
				c-2.5-0.62-5.28-0.93-8.33-0.93c-3.05,0-5.83,0.31-8.33,0.93c-0.83,0.21-1.64,0.45-2.41,0.73c-3.09,1.11-5.69,2.76-7.8,4.97
				c-2.11,2.21-3.7,4.95-4.75,8.23c-1.06,3.28-1.58,7.08-1.58,11.43v48c0,4.5,0.53,8.49,1.58,11.98c1.06,3.49,2.64,6.48,4.75,8.96
				c2.11,2.48,4.71,4.35,7.8,5.59c0.77,0.31,1.58,0.58,2.41,0.81c2.5,0.7,5.28,1.05,8.33,1.05c1.1,0,2.15-0.05,3.18-0.14
				c0.17-0.01,0.33-0.04,0.5-0.06c0.88-0.09,1.73-0.21,2.56-0.37c0.09-0.02,0.18-0.04,0.28-0.06c0.9-0.18,1.76-0.4,2.6-0.67
				c0.02-0.01,0.04-0.01,0.06-0.02c0.89-0.28,1.74-0.61,2.56-0.99c-0.01-0.12-0.03-0.24-0.04-0.36c-0.04-0.45,0.19-0.93,0.36-1.72
				c0.4,0.56,0.6,1.09,0.71,1.6c0.31-0.16,0.6-0.35,0.9-0.53c0.33-0.2,0.66-0.39,0.97-0.6c0.27-0.18,0.54-0.38,0.8-0.57
				c0.35-0.26,0.69-0.54,1.02-0.83c0.2-0.17,0.4-0.34,0.6-0.52c0.52-0.49,1.03-1,1.5-1.55c0.34-0.39,0.64-0.82,0.95-1.24
				c-0.11-0.23-0.21-0.46-0.33-0.71c0.38-0.13,0.68-0.22,1.09-0.36c0.01-0.02,0.02-0.04,0.03-0.05c1.03-1.58,1.87-3.35,2.55-5.27
				c0.1-0.28,0.21-0.56,0.3-0.85c0.14-0.45,0.27-0.92,0.4-1.38c0.1-0.39,0.21-0.77,0.3-1.17c0.1-0.43,0.19-0.87,0.28-1.32
				c0.09-0.48,0.17-0.97,0.25-1.47c0.06-0.4,0.12-0.81,0.17-1.22c0.07-0.62,0.13-1.25,0.18-1.89c0.03-0.33,0.06-0.65,0.08-0.99
				c0.06-1,0.09-2.03,0.09-3.09V119.18z M261.85,194c-0.7-0.59-1.4-1.18-2.08-1.75c0.31-0.14,0.85-0.38,1.39-0.61
				C261.97,192.68,261.97,192.68,261.85,194z M263.18,168.11c0,2.82-0.31,5.01-0.94,6.57c-0.49,1.22-1.34,1.95-2.54,2.22
				c-0.34,0.08-0.7,0.13-1.1,0.13c0,0,0,0,0,0c0,0,0,0,0,0c-1.88,0-3.17-0.74-3.87-2.23c-0.16-0.33-0.29-0.71-0.41-1.11
				c-0.43-1.4-0.64-3.21-0.64-5.46v-49.17c0-5.09,1.68-7.63,5.05-7.63c0,0,0,0,0,0c0,0,0,0,0,0c1.8,0,2.99,0.69,3.58,2.05
				c0.59,1.37,0.88,3.15,0.88,5.34V168.11z M263.77,193.61c-0.43-1.08-0.43-1.08,0.45-2.09
				C264.06,192.28,263.93,192.86,263.77,193.61z M264.79,188.31c-0.13-0.28-0.27-0.55-0.4-0.83c0.12-0.05,0.23-0.1,0.35-0.15
				c0.12,0.28,0.24,0.56,0.36,0.85C265,188.23,264.9,188.27,264.79,188.31z M265.38,192.75c-0.01-0.08-0.02-0.17-0.03-0.25
				c0.42-0.05,0.84-0.11,1.26-0.16c0.01,0.11,0.02,0.22,0.04,0.33C266.23,192.7,265.81,192.72,265.38,192.75z M281.68,113.18
				c0.08,0.31,0.16,0.62,0.24,0.93c-0.11,0.03-0.21,0.05-0.32,0.08c-0.07-0.31-0.15-0.62-0.22-0.93
				C281.48,113.23,281.58,113.2,281.68,113.18z M281.65,116.1c0.14,0.35,0.29,0.71,0.43,1.06c-0.12,0.04-0.23,0.08-0.35,0.12
				c-0.12-0.36-0.25-0.72-0.37-1.09C281.45,116.17,281.55,116.14,281.65,116.1z M278.24,174.45c0.1,0.53,0.2,1.06,0.31,1.59
				c-0.11,0.02-0.22,0.04-0.33,0.06c-0.09-0.53-0.18-1.06-0.27-1.59C278.04,174.49,278.14,174.47,278.24,174.45z M277.88,180.96
				c0.29-0.56,0.57-1.12,1.04-2.03c0.23,1.79,0.41,3.23,0.6,4.67C278.86,182.66,279.2,181.47,277.88,180.96z M281.98,118.12
				c0.11,0.12,0.22,0.24,0.33,0.36c-0.45,0.36-0.89,0.72-1.52,1.22C280.52,118.33,281.21,118.19,281.98,118.12z M282.16,123.44
				c-0.11-0.35-0.23-0.69-0.34-1.04c0.1-0.03,0.2-0.06,0.3-0.09c0.11,0.35,0.21,0.7,0.32,1.05
				C282.35,123.39,282.26,123.42,282.16,123.44z"/>
			<polygon class="st0" points="142.67,110.96 140.79,136.6 142.67,110.96 			"/>
			<path class="st0" d="M159.8,93.83c-0.16,0.82-0.37,1.63-0.69,2.43c-0.17-0.82-0.66-1.45-0.42-2.43h-32.33l-9.74,100.8h19.6
				l1.17-16.31h0h5.04c0.16-0.09,0.38-0.09,0.63,0h5.32c-0.02-0.97,0.03-1.94,0.21-2.91c0.13,0,0.27,0,0.4,0c0,0.97,0,1.95,0,2.92
				h0.61h0l1.41,16.31h19.13l-9.62-100.8H159.8z M125.87,143.74c-0.1-0.75-0.2-1.5-0.34-2.51
				C126.26,142.17,125.77,142.99,125.87,143.74z M136.41,129.03c0.05,0,0.09-0.01,0.14-0.01c0,0.37,0,0.74,0,1.11
				c-0.05-0.01-0.09-0.02-0.14-0.03C136.41,129.74,136.41,129.39,136.41,129.03z M132.01,177.73c-0.05,0-0.1,0-0.15,0
				c0-0.35,0-0.7,0-1.05c0.05,0,0.1,0,0.15,0C132.01,177.03,132.01,177.38,132.01,177.73z M132.4,164.64c-0.04,0-0.09,0-0.13,0
				c0-1.06,0-2.12,0-3.18c0.04,0,0.09,0,0.13,0C132.4,162.52,132.4,163.58,132.4,164.64z M133.45,184.89
				c0.11,0.01,0.21,0.01,0.32,0.02c-0.02,0.27-0.05,0.53-0.07,0.8c-0.1-0.01-0.2-0.01-0.3-0.02
				C133.41,185.42,133.43,185.16,133.45,184.89z M133.82,191.99c-0.05-0.19-0.14-0.38-0.14-0.58c-0.01-0.16,0.08-0.32,0.12-0.48
				c0.06,0.01,0.13,0.03,0.19,0.04c0.03,0.33,0.07,0.65,0.1,0.98C134,191.96,133.91,191.98,133.82,191.99z M136.17,121.61
				c0.02,0.44,0.04,0.88,0.06,1.32c-0.08,0.01-0.15,0.01-0.23,0.02c-0.03-0.43-0.06-0.85-0.09-1.28
				C136,121.65,136.09,121.63,136.17,121.61z M136.18,141.17c-0.08-0.13-0.25-0.26-0.23-0.38c0.02-0.13,0.17-0.31,0.31-0.35
				c0.08-0.03,0.24,0.16,0.48,0.34C136.5,140.95,136.34,141.06,136.18,141.17z M142.46,98.06c0.3,0.06,0.61,0.11,0.91,0.18
				c0.02,0-0.02,0.31-0.03,0.31c-0.31-0.01-0.62-0.03-0.93-0.05C142.42,98.34,142.44,98.2,142.46,98.06z M137.76,161.28
				c-0.08,0-0.17,0-0.25,0c0-0.49,0-0.98,0-1.46c0.08,0,0.17,0,0.25,0C137.76,160.3,137.76,160.79,137.76,161.28z M148.07,162.24
				h-9.15h0l1.88-25.64l1.88-25.64h0h0.94h0L148.07,162.24L148.07,162.24z M148.8,172.88c-0.09,0.01-0.19,0.03-0.28,0.04
				c-0.12-2.81-0.25-5.62-0.35-8.43c-0.01-0.2,0.2-0.4,0.64-0.56C148.8,166.91,148.8,169.89,148.8,172.88z M148,98.11
				c-0.02-0.07-0.04-0.13-0.06-0.2c0.27-0.07,0.54-0.14,0.81-0.2c0.03,0.12,0.06,0.23,0.09,0.35
				C148.55,98.08,148.27,98.09,148,98.11z M154.83,94.76c-0.02,0.34-0.04,0.68-0.07,1.02c-0.05,0-0.1,0-0.15,0
				c-0.02-0.33-0.03-0.66-0.05-0.99C154.65,94.79,154.74,94.77,154.83,94.76z M152.72,95.63c-0.14,2.02-0.14,2.02,1.44,2.56
				c-1.07,0.36-1.07,0.36-2.75-0.39C151.53,97,151.35,96.07,152.72,95.63z M150.35,177.89c0.02-0.13,0.03-0.25,0.05-0.38
				c0.59-0.04,1.18-0.08,1.77-0.12c0.01,0.11,0.02,0.23,0.03,0.34C151.58,177.78,150.97,177.84,150.35,177.89z M153.13,165.19
				c0-0.86,0-1.71,0-2.76C153.85,163.55,153.85,163.69,153.13,165.19z M154.48,193.63c-0.24-0.21-0.48-0.41-0.72-0.62
				c0.11-0.12,0.3-0.36,0.33-0.34c0.27,0.15,0.52,0.35,0.77,0.53C154.74,193.34,154.61,193.48,154.48,193.63z M155.78,106.36
				c0.16-0.01,0.31-0.01,0.47-0.02c-0.08,0.65-0.16,1.3-0.24,1.96c-0.08,0-0.16,0-0.23-0.01C155.78,107.65,155.78,107,155.78,106.36
				z M156.31,113.83c-0.09,0.01-0.17,0.02-0.26,0.04c-0.06-0.36-0.12-0.73-0.17-1.09c0.09-0.01,0.19-0.03,0.28-0.04
				C156.21,113.1,156.26,113.47,156.31,113.83z M157.06,129.01c0.06,0.89,0.11,1.51,0.16,2.14c-0.12,0.03-0.25,0.06-0.37,0.08
				c-0.29-0.37-0.58-0.75-1-1.28C156.2,129.68,156.52,129.43,157.06,129.01z M157.72,150.18c-0.65-0.95-0.74-1.93-0.67-3.06
				c0.12-1.86-0.15-3.75-0.26-5.63c-0.06-1.03-0.17-2.05-0.17-3.08c0-0.5,0.23-0.99,0.59-1.46
				C158.02,141.35,158.3,145.74,157.72,150.18z M161.16,123.6c0.06,0.32,0.11,0.64,0.17,0.96c-0.09,0.01-0.18,0.02-0.27,0.04
				c-0.03-0.32-0.07-0.65-0.1-0.97C161.03,123.62,161.1,123.61,161.16,123.6z"/>
			<path class="st0" d="M317.86,157.35v-0.2c-0.06,0.04-0.13,0.07-0.21,0.1C317.73,157.29,317.79,157.32,317.86,157.35z"/>
		</g>
	</g>
</g>
</svg>
