<?xml version="1.0" encoding="utf-8"?>
<!-- Generator: Adobe Illustrator 18.0.0, SVG Export Plug-In . SVG Version: 6.00 Build 0)  -->
<!DOCTYPE svg PUBLIC "-//W3C//DTD SVG 1.1//EN" "http://www.w3.org/Graphics/SVG/1.1/DTD/svg11.dtd">
<svg width="134px" height="94px" version="1.1" id="Layer_1" xmlns="http://www.w3.org/2000/svg" xmlns:xlink="http://www.w3.org/1999/xlink" x="0px" y="0px"
	 viewBox="0 0 134 94" enable-background="new 0 0 134 94" xml:space="preserve">
<g>
	<g>
		<g>
			<path fill="#FFFFFF" d="M85.9,46.3h-6.8v9.1c1.4-0.5,2.7-1.3,3.8-2.5C84.9,51,85.9,49.1,85.9,46.3z"/>
			<rect x="68.9" y="46.3" fill="#FFFFFF" width="6.8" height="9.3"/>
			<path fill="#FFFFFF" d="M72.3,15.6c-13.4,0-24.3,11-24.3,24.6s10.9,24.6,24.3,24.6s24.3-11,24.3-24.6S85.7,15.6,72.3,15.6z
				 M81.1,26.7c3,0,5.5,2.5,5.5,5.6c0,0.3,0,0.6-0.1,0.9c-0.1,0.5-0.5,0.8-0.9,0.8c-0.5,0-0.9-0.3-0.9-0.8c-0.3-1.8-1.8-3-3.6-3
				c-1.8,0-3.3,1.3-3.6,3c-0.1,0.5-0.5,0.8-0.9,0.8s-0.9-0.3-0.9-0.8c-0.1-0.3-0.1-0.6-0.1-0.9C75.6,29.2,78.1,26.7,81.1,26.7z
				 M62.9,26.7c3,0,5.5,2.5,5.5,5.6c0,0.3,0,0.6-0.1,0.9c-0.1,0.5-0.5,0.8-0.9,0.8c-0.5,0-0.9-0.3-0.9-0.8c-0.3-1.8-1.8-3-3.6-3
				c-1.8,0-3.3,1.3-3.6,3c-0.1,0.5-0.5,0.8-0.9,0.8c-0.5,0-0.9-0.3-0.9-0.8c-0.1-0.3-0.1-0.6-0.1-0.9C57.4,29.2,59.9,26.7,62.9,26.7
				z M89.3,45.6c0,7.6-6.1,13.8-13.6,13.8h-6.8c-7.5,0-13.6-6.2-13.6-13.8v-3h34V45.6z"/>
			<path fill="#FFFFFF" d="M65.5,55.4v-9.1h-6.8c0,2.8,1.1,4.7,3,6.6C62.8,54.1,64.1,54.9,65.5,55.4z"/>
		</g>
		<g>
			<path fill="#FFFFFF" d="M98.3,21.5c-0.1,0-0.2,0-0.2,0c-0.2-1.5-0.5-2.9-1-4.3c0.4,1.5,0.4,3,0,4.4c-0.6,0.1-1.1,0.3-1.7,0.5
				c0.7-2,0.7-4.1-0.2-6.1C92.9,10.8,85,5.6,72.4,5.6c-10.7,0-19.2,4-22.8,10.7c-0.9,1.8-1.4,3.7-1.4,5.5c-0.5-0.1-1-0.2-1.5-0.2
				c0.1-2,0.6-4,1.6-6c1.8-3.4,4.7-6.1,8.6-8.1l-1.2-1.8c-4.9,3.9-8.3,9.5-9.2,15.8c-0.1,0-0.1,0-0.2,0c-5.6,0-7.3,5.9-7.3,13.2
				s1.7,13.2,7.3,13.2c0.4,0,0.8-0.1,1.2-0.2c-1-2.7-1.6-5.7-1.6-8.8c0-2.9,0.5-5.7,1.4-8.3c0,0,0-0.1,0-0.1c0.9-2.6,2.3-5,4-7.2
				c0,0,0,0,0,0c4.8-6.1,12.5-10.2,21-10.2c9,0,17.1,4.7,21.8,11.4c0,0,0,0,0,0c0.3,0.4,0.6,0.9,0.8,1.3c0,0,0,0,0,0
				c0.3,0.5,0.6,0.9,0.8,1.4c0.1,0.1,0.1,0.2,0.2,0.3c0.2,0.4,0.4,0.8,0.6,1.2c0.3,0.6,0.5,1.2,0.7,1.8c0,0.1,0.1,0.3,0.1,0.4
				c0.9,2.6,1.4,5.3,1.4,8.1c0,3.1-0.6,6-1.6,8.8c0.4,0.1,0.8,0.2,1.2,0.2c5.6,0,7.3-5.9,7.3-13.2S103.9,21.5,98.3,21.5z"/>
			<path fill="#FFFFFF" d="M87.8,4.9C83.7,2,78.6,0.2,73.1,0v4.1c5.1,0.1,9.7,1,13.5,2.6L87.8,4.9z"/>
			<path fill="#FFFFFF" d="M95.5,13.6c-1.6-3-3.8-5.7-6.5-7.9l-1,1.5C91.3,8.9,93.9,11,95.5,13.6z"/>
			<path fill="#FFFFFF" d="M71.6,4.1V0C66.1,0.1,61,1.9,56.9,4.8l1.3,2C62,5.1,66.6,4.2,71.6,4.1z"/>
		</g>
	</g>
	<g>
		<path fill="#FFFFFF" d="M5.6,64.1l3.3,24.4h0l3.6-24.4h5.9l3.6,24.4h0l3.3-24.4h5.6l-4.7,29.2h-7.8l-3-20.4h0l-3,20.4H4.7L0,64.1
			H5.6z"/>
		<path fill="#FFFFFF" d="M36.6,64.1H44l6.5,29.2h-6l-1.4-7.6h-6.3l-1.7,7.6h-6L36.6,64.1z M42.4,81.4l-2.2-13.6l-2.7,13.6H42.4z"/>
		<path fill="#FFFFFF" d="M100.2,64.1h7.5l6.5,29.2h-6l-1.4-7.6h-6.3l-1.7,7.6h-6L100.2,64.1z M106.1,81.4l-2.2-13.6l-2.7,13.6
			H106.1z"/>
		<path fill="#FFFFFF" d="M134,77.6v15.7h-4.3V90c-0.3,0.6-0.6,1.2-1,1.7c-0.4,0.5-0.8,0.9-1.3,1.3c-0.5,0.3-1.1,0.6-1.7,0.8
			c-0.6,0.2-1.4,0.3-2.3,0.3c-1.1,0-2.2-0.2-3.2-0.6c-1-0.4-1.9-1-2.7-1.9c-0.8-0.9-1.4-1.9-1.8-3.3c-0.4-1.3-0.7-2.9-0.7-4.8v-9.6
			c0-6.9,3.2-10.4,9.6-10.4c1.7,0,3.1,0.3,4.3,0.8c1.2,0.5,2.1,1.2,2.9,2s1.3,1.8,1.6,2.9c0.3,1.1,0.5,2.3,0.5,3.4v0.8h-5.5
			c0-2-0.3-3.4-0.9-4.3S126,68,124.8,68c-1.4,0-2.4,0.4-3.1,1.3c-0.6,0.9-0.9,2.3-0.9,4.2v9.3c0,2.3,0.3,4,0.9,5.1
			c0.6,1.1,1.6,1.6,3.1,1.6c1.2,0,2.1-0.4,2.8-1.3c0.6-0.9,1-2.3,1-4.3V82h-3.7v-4.3H134z"/>
		<path fill="#FFFFFF" d="M89.9,66.4c-0.7-0.9-1.7-1.5-2.9-2c-0.7-0.3-1.5-0.5-2.4-0.6c-2.9,1.7-6.3,2.8-9.8,3.2
			c-1.2,1.7-1.8,4-1.8,7v9.6c0,1.8,0.2,3.4,0.7,4.8c0.4,1.3,1,2.4,1.8,3.3c0.8,0.9,1.6,1.5,2.7,1.9c1,0.4,2.1,0.6,3.2,0.6
			c0.9,0,1.6-0.1,2.3-0.3c0.6-0.2,1.2-0.4,1.7-0.8c0.5-0.3,0.9-0.8,1.3-1.3c0.4-0.5,0.7-1.1,1-1.7v3.3h4.3V77.6h-9.2V82h3.7v1.9
			c0,2-0.3,3.4-1,4.3c-0.6,0.9-1.6,1.3-2.8,1.3c-1.5,0-2.5-0.5-3.1-1.6c-0.6-1.1-0.9-2.8-0.9-5.1v-9.3c0-1.9,0.3-3.4,0.9-4.2
			c0.6-0.9,1.6-1.3,3.1-1.3c1.3,0,2.2,0.4,2.8,1.3s0.9,2.3,0.9,4.3h5.5v-0.8c0-1.2-0.2-2.3-0.5-3.4C91.1,68.2,90.6,67.2,89.9,66.4z"
			/>
		<path fill="#FFFFFF" d="M70.3,91c-0.1-0.4-0.1-1-0.2-1.6c0-0.6,0-1.2,0-1.9v-3.7c0-0.5-0.1-1-0.2-1.6c-0.1-0.6-0.3-1.1-0.6-1.6
			c-0.3-0.5-0.7-0.9-1.2-1.3c-0.5-0.4-1.2-0.6-2-0.8c1.3-0.2,2.4-0.8,3.2-2c0.8-1.1,1.2-2.8,1.2-5c0-1.1-0.2-2-0.5-3
			c-0.2-0.7-0.6-1.3-1-1.8c-3.2-0.4-6.2-1.3-9-2.8h-8.4v29.2h5.5V80.9h4c0.6,0,1.2,0.1,1.6,0.3c0.4,0.2,0.8,0.5,1,0.9
			c0.3,0.4,0.4,0.8,0.5,1.4c0.1,0.5,0.2,1.1,0.2,1.6v3.4c0,0.9,0.1,1.9,0.3,2.8c0.2,0.9,0.5,1.6,1.1,2h5.5v-0.9
			c-0.3,0-0.6-0.1-0.7-0.4C70.6,91.8,70.4,91.4,70.3,91z M64.5,74.5c-0.2,0.6-0.5,1-0.9,1.3c-0.4,0.3-0.8,0.6-1.3,0.7
			c-0.5,0.1-1,0.2-1.4,0.2h-3.7v-8.3h3.6c1.2,0,2.2,0.3,3,0.8c0.7,0.6,1.1,1.6,1.1,3.2C64.9,73.3,64.8,74,64.5,74.5z"/>
	</g>
</g>
</svg>
