<?xml version="1.0" encoding="utf-8"?>
<!-- Generator: Adobe Illustrator 18.0.0, SVG Export Plug-In . SVG Version: 6.00 Build 0)  -->
<!DOCTYPE svg PUBLIC "-//W3C//DTD SVG 1.1//EN" "http://www.w3.org/Graphics/SVG/1.1/DTD/svg11.dtd">
<svg width="116px" height="115px" version="1.1" id="Layer_1" xmlns="http://www.w3.org/2000/svg" xmlns:xlink="http://www.w3.org/1999/xlink" x="0px" y="0px"
	 viewBox="0 0 116 115" enable-background="new 0 0 116 115" xml:space="preserve">
<g>
	<path fill="#FFFFFF" d="M57,51.9c14.3,0,26-11.6,26-26C83,11.6,71.3,0,57,0c-14.3,0-26,11.6-26,26C31.1,40.3,42.7,51.9,57,51.9z
		 M36,26c0-11.6,9.4-21,21-21c11.6,0,21,9.4,21,21c0,7.7-4.2,14.5-10.4,18.2c1.3-4.6,1.9-9.3,1.6-14.6c1.4,0.4,2.1,0.6,3.5,1
		c-1.6-3.9-3.3-7.5-5.5-11.2c-2,3.8-4.6,7.3-7.3,10l4.4-0.3c-3.7,6.7-9,9.9-15.7,10.9c-1.6-7.5-0.4-19.8,8.1-25.6l0.8,4.1
		c1.7-2.7,5-6.2,7.4-8.6c-3.8-1.5-8.3-2-12.7-1.2c0.7,0.6,1.6,1.4,2.3,2c-9.6,4-14.9,10.7-18.4,18.5C36.1,28.1,36,27,36,26z"/>
	<path fill="#FFFFFF" d="M17.3,54.9c-0.8-0.9-1.7-1.6-2.9-2.1c-1.2-0.5-2.7-0.8-4.4-0.8C3.3,52,0,55.6,0,62.7v9.9
		c0,1.9,0.2,3.5,0.7,4.9c0.5,1.4,1.1,2.5,1.9,3.4c0.8,0.9,1.7,1.5,2.7,1.9c1,0.4,2.1,0.6,3.3,0.6c0.9,0,1.7-0.1,2.3-0.3
		c0.7-0.2,1.3-0.4,1.8-0.8c0.5-0.3,0.9-0.8,1.3-1.3c0.4-0.5,0.7-1.1,1-1.7v3.4h4.5V66.5H9.9V71h3.8v2c0,2-0.3,3.5-1,4.4
		c-0.7,0.9-1.6,1.4-2.9,1.4c-1.5,0-2.6-0.6-3.2-1.7c-0.6-1.1-0.9-2.9-0.9-5.2v-9.6c0-2,0.3-3.5,0.9-4.4c0.6-0.9,1.7-1.4,3.2-1.4
		c1.3,0,2.3,0.4,2.9,1.3c0.6,0.9,0.9,2.3,0.9,4.4h5.7v-0.8c0-1.2-0.2-2.4-0.5-3.5C18.6,56.8,18.1,55.8,17.3,54.9z"/>
	<polygon fill="#FFFFFF" points="37.4,78.1 27,78.1 27,52.6 21.3,52.6 21.3,82.7 37.4,82.7 	"/>
	<path fill="#FFFFFF" d="M85.2,52.6l-7.6,30.1h6.1l1.8-7.8H92l1.4,7.8h6.2l-6.7-30.1H85.2z M86.2,70.4l2.8-14l2.3,14H86.2z"/>
	<polygon fill="#FFFFFF" points="105.6,78.1 105.6,52.6 99.9,52.6 99.9,82.7 116,82.7 116,78.1 	"/>
	<path fill="#FFFFFF" d="M76.5,64.1c0.4-0.6,0.6-1.3,0.8-2c0.2-0.7,0.3-1.4,0.3-2.2c0-0.9-0.1-1.9-0.4-2.8c-0.3-0.9-0.7-1.7-1.3-2.4
		c-0.6-0.7-1.4-1.2-2.3-1.6c-0.9-0.4-2.1-0.6-3.4-0.6h-2.3c-2.6,1.2-5.3,1.9-8.2,2.2v27.9h11.5c1.2,0,2.2-0.2,3-0.7
		c0.9-0.4,1.6-1.1,2.2-1.9c0.6-0.8,1-1.7,1.3-2.8c0.3-1.1,0.4-2.3,0.4-3.6c0-2-0.4-3.5-1.1-4.7c-0.7-1.1-1.9-2-3.4-2.6
		c0.6-0.1,1.2-0.4,1.7-0.8C75.7,65.2,76.1,64.7,76.5,64.1z M65.3,56.9h3.1c1.3,0,2.2,0.3,2.7,1c0.5,0.6,0.8,1.6,0.8,2.9
		c0,1.3-0.3,2.3-0.8,3c-0.6,0.7-1.5,1.1-2.7,1.1h-3V56.9z M71.3,77.3C70.8,78,70,78.4,69,78.4h-3.7v-9.3H69c1.1,0,1.9,0.4,2.4,1.2
		c0.5,0.8,0.8,1.9,0.8,3.4C72.1,75.4,71.9,76.6,71.3,77.3z"/>
	<path fill="#FFFFFF" d="M55.6,54.9c-3.6-0.2-7-1.1-10-2.6c-0.5,0.1-1,0.2-1.5,0.3c-1.2,0.4-2.2,1-3.1,1.8c-0.9,0.8-1.5,1.9-2,3.2
		c-0.5,1.3-0.7,2.9-0.7,4.8v10.9c0,1.9,0.2,3.5,0.7,4.8c0.5,1.3,1.2,2.3,2,3.1c0.9,0.8,1.9,1.4,3.1,1.7c1.2,0.3,2.5,0.5,3.9,0.5
		c1.4,0,2.8-0.2,4-0.5c1.2-0.3,2.2-0.9,3.1-1.7c0.8-0.8,1.5-1.8,2-3.1c0.5-1.3,0.7-2.9,0.7-4.8V62.3c0-1.9-0.2-3.5-0.7-4.8
		C56.6,56.5,56.2,55.6,55.6,54.9z M51.8,74c0,1.6-0.3,2.8-1,3.6c-0.7,0.8-1.6,1.2-2.9,1.2c-1.4,0-2.4-0.4-3-1.2c-0.6-0.8-1-2-1-3.6
		V61.7c0-1.6,0.3-2.9,1-3.7c0.6-0.9,1.6-1.3,3-1.3c1.3,0,2.2,0.5,2.9,1.4c0.7,0.9,1,2.2,1,3.8V74z"/>
	<polygon fill="#FFFFFF" points="46.9,110 46.9,110 43.1,84.9 37.1,84.9 33.3,110 33.3,110 29.8,84.9 24.1,84.9 28.9,115 37,115
		40.1,94 40.1,94 43.2,115 51.3,115 56.1,84.9 50.4,84.9 	"/>
	<rect x="56.6" y="84.9" fill="#FFFFFF" width="5.7" height="30.1"/>
	<polygon fill="#FFFFFF" points="83.6,84.9 77.1,84.9 70.2,97.9 70.2,84.9 64.4,84.9 64.4,115 70.2,115 70.2,105.9 72.4,103
		77.4,115 83.8,115 75.9,97.9 	"/>
	<rect x="84.7" y="84.9" fill="#FFFFFF" width="5.7" height="30.1"/>
</g>
</svg>
