<?xml version="1.0" encoding="utf-8"?>
<!-- Generator: Adobe Illustrator 18.1.1, SVG Export Plug-In . SVG Version: 6.00 Build 0)  -->
<!DOCTYPE svg PUBLIC "-//W3C//DTD SVG 1.1//EN" "http://www.w3.org/Graphics/SVG/1.1/DTD/svg11.dtd">
<svg version="1.1" id="Layer_1" xmlns="http://www.w3.org/2000/svg" xmlns:xlink="http://www.w3.org/1999/xlink" x="0px" y="0px"
	 width="170px" height="110px" viewBox="0 0 170 110" enable-background="new 0 0 170 110" xml:space="preserve">
<path fill="#FFFFFF" d="M126.027,34.04395c2.1253,0,3.8536-1.7294,3.8536-3.8552c0-2.1262-1.7283-3.8552-3.8536-3.8552
	c-2.1249,0-3.8536,1.729-3.8536,3.8552C122.1734,32.31455,123.9021,34.04395,126.027,34.04395z M126.027,27.87955
	c1.2713,0,2.3083,1.0374,2.3083,2.3092c0,1.2818-1.03699,2.3192-2.3083,2.3192c-1.2813,0-2.3182-1.0374-2.3182-2.3192
	C123.7088,28.91695,124.7457,27.87955,126.027,27.87955z M53.8106,34.01095h-1.6645l4.3443-8.0263l4.3441,8.0263h-1.6646
	l-2.6795-4.9849L53.8106,34.01095z M36.0112,34.01095h-1.6645l4.3442-8.0263l2.634,4.8667l2.6341-4.8667l4.3441,8.0263h-1.6646
	l-2.6795-4.9849l-2.6342,4.9002l-2.6339-4.9002L36.0112,34.01095z M81.6406,27.87615h-2.6742v-1.5385h6.8864v1.5385h-2.6743v6.1348
	h-1.5379V27.87615z M97.4392,34.00715h-5.3329v-7.6736h5.3329v1.5386h-3.8048v1.5288h3.8048v1.539h-3.8048v1.5283h3.8048V34.00715z
	 M66.8137,30.17235c-0.2467-0.3249-0.3948-0.7246-0.3948-1.1642c0-0.1402,0-0.7386,0-0.7386c0-1.0695,0.8661-1.9317,1.9346-1.9317
	c0.0216,0,4.08,0,4.08,0s0,0.6588,0,1.5341h-4.08c-0.219,0.0001-0.3969,0.1782-0.3969,0.397v0.7393
	c0,0.2189,0.1779,0.3969,0.3969,0.397h2.478c0.6291,0,1.1864,0.306,1.5398,0.7713c0.2467,0.3248,0.3949,0.7246,0.3949,1.1641
	c0,0.1402,0,0.7387,0,0.7387c0,1.0694-0.86629,1.9316-1.9347,1.9316h-4.0801v-1.5341h4.0801c0.2189,0,0.3968-0.1781,0.3968-0.397
	v-0.7392c0-0.2189-0.1779-0.4013-0.3968-0.4013h-2.478C67.7244,30.93935,67.1671,30.63765,66.8137,30.17235z M105.857,33.99815
	h-1.52631v-7.6646h4.0289c0.6292,0,1.1864,0.3018,1.5397,0.7671c0.2468,0.3248,0.3949,0.7246,0.3949,1.1641
	c0,0.0636,0,1.4605,0,1.4605c0,0.91-0.6282,1.668-1.4739,1.8742l1.701,3.1267h-1.5518l-2.4748-4.6037h1.8649
	c0.2189,0,0.3969-0.1781,0.3969-0.3969v-1.4608c0-0.2189-0.178-0.397-0.3969-0.3971v0.0052H105.857V33.99815z M136.5666,34.00715
	h-1.528v-7.6736h5.33289v1.5386h-3.80489v1.5288h3.80489v1.539h-3.80489V34.00715z M124.4155,44.51135
	c-3.8871-2.6763-9.047-4.1502-14.5293-4.1502c-5.4824,0-10.6422,1.4739-14.5294,4.1502
	c-3.88699,2.6763-6.02769,6.2288-6.02769,10.0031c0,3.7745,2.1407,7.327,6.02769,10.0032c3.8872,2.6763,9.047,4.1502,14.5294,4.1502
	c5.4823,0,10.6422-1.4739,14.5293-4.1502c3.8871-2.6762,6.0278-6.2287,6.0278-10.0032
	C130.4433,50.74015,128.3026,47.18765,124.4155,44.51135z M118.9394,60.74095c-2.4264,1.7625-5.665,2.7332-9.1195,2.7332
	c-3.3544,0-6.5116-0.931-8.8901-2.6215c-2.3783-1.6904-3.6881-3.9345-3.6881-6.3186c0-2.3841,1.3098-4.6281,3.6881-6.3186
	c2.37849-1.6904,5.5357-2.6214,8.8901-2.6214c3.4545,0,6.6931,0.9707,9.1195,2.7332c2.321,1.686,3.5993,3.8903,3.5993,6.2068
	S121.2604,59.05485,118.9394,60.74095z M79.2347,40.95295h7.8573v27.1233h-7.8573V40.95295z M67.4369,60.31675l28.17661,23.6986
	H84.6747l-34.2528-28.7938l12.2019-0.0003c2.5935,0,5.2762-1.6362,5.2762-4.3744c0-2.7381-2.6827-4.3743-5.2762-4.3743h-22.604
	l-6.5716-5.5196H63.7991c3.1076,0,6.1363,0.9228,8.3093,2.5319c1.709,1.2654,3.7462,3.5698,3.7462,7.362
	c0,2.3216-0.7595,4.3449-2.2575,6.0137c-1.3457,1.4993-3.2454,2.6346-5.4935,3.2828
	C67.9068,60.20005,67.695,60.25525,67.4369,60.31675z M35.0833,44.51135c-3.887-2.6763-9.0469-4.1502-14.5292-4.1502
	c-5.4822,0-10.6422,1.4739-14.5293,4.1502c-3.8872,2.6763-6.0279,6.2288-6.0279,10.0031c0,3.7745,2.1407,7.327,6.0279,10.0032
	c3.8871,2.6763,9.0471,4.1502,14.5293,4.1502c5.4823,0,10.6422-1.4739,14.5292-4.1502c3.8872-2.6762,6.0279-6.2287,6.0279-10.0032
	C41.1112,50.74005,38.9705,47.18745,35.0833,44.51135z M7.9095,54.53405c0-2.3841,1.3098-4.628,3.6882-6.3186
	c2.3785-1.6904,5.5357-2.6214,8.89-2.6214c3.4544,0,6.6932,0.9707,9.1196,2.7332c2.3211,1.6861,3.5994,3.8903,3.5994,6.2068
	s-1.2783,4.5208-3.5994,6.2069c-2.4264,1.7625-5.6652,2.7332-9.1196,2.7332c-3.3543,0-6.5115-0.931-8.89-2.6215
	C9.2193,59.16215,7.9095,56.91815,7.9095,54.53405z M170.0031,40.95295v27.1233h-7.8573l-21.2363-17.7171v17.7171h-7.8978v-21.7936
	l-6.33981-5.3295l14.1652-0.0002l21.3087,17.9222v-17.9222H170.0031z"/>
</svg>
