<?xml version="1.0" encoding="iso-8859-1"?>
<!-- Generator: Adobe Illustrator 17.1.0, SVG Export Plug-In . SVG Version: 6.00 Build 0)  -->
<!DOCTYPE svg PUBLIC "-//W3C//DTD SVG 1.0//EN" "http://www.w3.org/TR/2001/REC-SVG-20010904/DTD/svg10.dtd">
<svg version="1.0" id="Layer_1" xmlns="http://www.w3.org/2000/svg" xmlns:xlink="http://www.w3.org/1999/xlink" x="0px" y="0px"
	 width="114px" height="108px" viewBox="0 0 114 108" enable-background="new 0 0 114 108" xml:space="preserve">
<g>
	<g>
		<path fill="#FFFFFF" d="M23,38.9c-1.1,0-2,0.8-2,1.7v8.6c0,0.9,0.9,1.7,2,1.7c1.1,0,2.1-0.8,2.1-1.7v-8.6C25,39.6,24,38.9,23,38.9
			z M27,95.4l28.5,12.5L85,95.4V40.9H27V95.4z M31,44.8h50v46.5c0,0-4.3,1.7-8.5,3.5c0.8-2.2,0.7-4.5,0.8-6.4
			c0.3-4.4-1.7-11.9-1.7-11.8l5.1,1.7L69,64.7l-7.7,13.6l5.1-1.7c0,0-0.5,6.9-6.7,12c-5.9,4.9-9.7,5.3-10.2,4.9
			c-0.6-0.6-5.7-8.4-3.4-18.6c2.3-9.8,9.5-15.3,9.5-15.3l0.6,5.2c0,0,8.5-13.5,8.5-13.6c-0.6,0.1-16.9,1.7-16.9,1.7l5.4,3.6
			c0,0-8.1,1.8-13.9,6.6c-4.7,3.9-6.9,9.1-8.3,14.2V44.8z M89,38.9c-1.1,0-2.1,0.8-2.1,1.7v8.7c0,0.9,1,1.7,2.1,1.7
			c1.1,0,2-0.8,2-1.7v-8.7C91,39.5,90.1,38.9,89,38.9z M21.6,25v-1.5h-6.7v1.9c0,2.3-0.3,3.9-1,4.8c-0.7,0.9-1.7,1.4-3.1,1.4
			s-2.5-0.4-3.1-1.3c-0.6-0.9-0.9-2.6-0.9-4.9v-14c0-2.2,0.4-3.8,1-4.7C8.5,5.8,9.5,5.4,11,5.4c1.4,0,2.5,0.4,3.1,1.3
			c0.6,0.9,0.9,2.5,0.9,4.7v0.8h6.7v-1.8c0-3.3-0.9-5.8-2.7-7.6C17.2,0.9,14.6,0,11.1,0C7.4,0,4.7,1,2.8,3C0.9,5,0,8,0,12.2v12.9
			c0,1.6,0.2,3.1,0.4,4.5c0.3,1.4,0.9,2.7,1.7,3.8c0.8,1.1,2,2,3.4,2.6c1.4,0.7,3.2,1,5.4,1c2.2,0,3.9-0.4,5.3-1
			c1.4-0.6,2.5-1.5,3.3-2.6c0.8-1.1,1.4-2.3,1.7-3.8C21.4,28.1,21.6,26.5,21.6,25z M50.3,26.8h7.6l1.7,9.2h7.3L59,0h-9l-7.8,31.3
			v-0.6H29.9V0h-6.7v36.1h25.1L50.3,26.8z M54.5,5.2l2.7,16.4h-5.9L54.5,5.2z M73.6,20.4c0-1.2,0-2.4-0.1-3.6c0-1.3-0.1-2.4-0.2-3.6
			c-0.1-1.1-0.2-2.1-0.4-3l9.8,25.8H90V0h-6.3v16.4c0,1.1,0,2.2,0.1,3.4c0,1.1,0.1,2.3,0.2,3.4c0.1,1.1,0.2,2.2,0.4,3.2L74.6,0h-7.3
			v36.1h6.3V20.4z M113.6,23.6c-0.3-1-0.7-1.8-1.2-2.6c-0.5-0.8-1.1-1.5-1.9-2.1c-0.7-0.6-1.6-1.3-2.5-1.9l-6.9-4.6
			c-0.7-0.5-1.3-1-1.7-1.6c-0.4-0.6-0.6-1.4-0.6-2.5c0-1,0.4-1.8,1.1-2.3c0.7-0.5,1.5-0.8,2.5-0.8c1.4,0,2.5,0.5,3.2,1.4
			c0.7,1,1.1,2.5,1.1,4.7V12h6.5v-1.1c0-3.6-1-6.4-2.8-8.2C108.6,0.9,106,0,102.6,0c-1.6,0-3,0.1-4.3,0.5c-1.3,0.4-2.5,1.1-3.4,1.9
			c-1,0.8-1.7,2-2.2,3.1C92.3,6.5,92,7.8,92,9.3c0,3.8,1.8,6.8,5.3,9.1l6,4c1.3,0.8,2.2,1.6,2.8,2.4c0.6,0.8,0.9,1.7,0.9,2.9
			c0,1.1-0.3,2-1,2.8c-0.7,0.8-1.7,1.2-3,1.2c-0.7,0-1.3-0.1-1.9-0.3c-0.6-0.2-1.2-0.5-1.6-1c-0.5-0.4-0.8-1.1-1.1-1.9
			c-0.3-0.8-0.4-1.8-0.4-3.1V24h-6.4v1.4c0,3.7,1,6.4,2.9,8.5c1.9,2.1,4.8,3.1,8.5,3.1c3.6,0,6.2-0.8,8.1-2.6
			c1.9-1.8,2.8-4.2,2.8-7.3C114,25.7,113.9,24.6,113.6,23.6z"/>
	</g>
</g>
</svg>
