<?xml version="1.0" encoding="utf-8"?>
<!-- Generator: Adobe Illustrator 18.1.1, SVG Export Plug-In . SVG Version: 6.00 Build 0)  -->
<!DOCTYPE svg PUBLIC "-//W3C//DTD SVG 1.1//EN" "http://www.w3.org/Graphics/SVG/1.1/DTD/svg11.dtd">
<svg version="1.1" id="Layer_1" xmlns="http://www.w3.org/2000/svg" xmlns:xlink="http://www.w3.org/1999/xlink" x="0px" y="0px"
	 width="170px" height="110px" viewBox="0 0 170 110" enable-background="new 0 0 170 110" xml:space="preserve">
<path fill="#FFFFFF" d="M75.0212,25.7565c2.7967,0,4.6964-0.4775,5.81219-1.4649c1.1697-1.0682,1.763-3.0093,1.763-5.7694V7.2391
	c0-2.7993-0.5768-4.6868-1.7682-5.774c-1.1112-0.9829-3.0106-1.4616-5.807-1.4616c-2.7983,0-4.68871,0.4794-5.7806,1.4661
	c-1.1864,1.0821-1.7635,2.9696-1.7635,5.7695v11.2831c0,2.7992,0.5771,4.6868,1.76489,5.7707
	C70.3316,25.2784,72.2223,25.7565,75.0212,25.7565z M73.9774,5.6236c0-1.0918,0.5016-1.2425,1.0438-1.2425
	c0.5581,0,1.0751,0.1507,1.0751,1.2425v14.5135c0,1.0924-0.517,1.2431-1.0751,1.2431c-0.5422,0-1.0438-0.1507-1.0438-1.2431V5.6236z
	 M90.1845,17.1115h0.9694l2.0202,8.3306h6.5506l-3.0303-9.77c1.04881-0.272,1.9847-0.9326,1.9847-3.8017l-0.0013-5.3357
	c-0.0233-1.0547-0.1571-1.9455-0.3963-2.6473C97.78,2.3925,96.6899,1.368,95.0503,0.8462
	c-1.0192-0.3496-2.4843-0.5276-4.3526-0.5276H83.747v25.1235h6.4375V17.1115z M90.1845,4.327
	c0.9824,0.045,1.4147,0.2445,1.6047,0.4161c0.1692,0.1513,0.4524,0.6014,0.4524,1.909v3.8043c0,1.3449-0.2566,1.9194-0.4718,2.1654
	c-0.18159,0.2067-0.605,0.4486-1.5853,0.5028V4.327z M46.1823,25.4421l-3.297-25.1229h6.625l0.9429,13.5874l1.6915-13.5874h6.8517
	l1.205,13.5959l1.3972-13.5959h5.7679l-3.2006,25.1229h-7.3083L55.0358,9.8779l-1.668,15.5642H46.1823z M123.1996,25.1147
	c1.6842-0.4142,2.8365-1.515,3.4265-3.2773c0.329-1.0201,0.4891-2.5573,0.4891-4.7024V9.0978c0-2.0935-0.18539-3.7285-0.5499-4.853
	c-0.5615-1.8379-1.6867-3.0256-3.3437-3.5303c-0.8686-0.2623-2.0228-0.3953-3.43169-0.3953h-7.763v25.1229h7.763
	C121.1709,25.4421,122.3181,25.3319,123.1996,25.1147z M118.4644,4.327c1.1833,0.0372,1.5923,0.2289,1.7333,0.3489
	c0.1157,0.0986,0.3857,0.4898,0.3857,1.984v12.6162c0,1.2614-0.2765,1.6553-0.4432,1.7786
	c-0.2024,0.1507-0.6573,0.3274-1.6758,0.3653V4.327z M111.2216,25.4421H99.7254V0.3192h6.43739v20.5796h5.0588V25.4421z
	 M136.7466,25.4545h-2.2897v-9.9442h5.16811v1.866h-2.8784v1.8653h2.7886v1.8412h-2.7886V25.4545z M130.733,25.583
	c1.09219,0,1.8465-0.1852,2.2652-0.555c0.4427-0.405,0.6651-1.1492,0.6651-2.2345v-4.6234c0-1.0841-0.2224-1.8289-0.6651-2.2332
	c-0.4187-0.3705-1.173-0.5557-2.2652-0.5557c-1.0921,0-1.84241,0.1852-2.25281,0.5557
	c-0.44269,0.4043-0.66499,1.1491-0.66499,2.2332v4.6234c0,1.0853,0.22231,1.8295,0.66499,2.2345
	C128.89059,25.3978,129.6409,25.583,130.733,25.583z M130.13139,17.6548c0-0.4572,0.20041-0.6841,0.60161-0.6841
	c0.40979,0,0.61409,0.2269,0.61409,0.6841v5.6553c0,0.4565-0.2043,0.6854-0.61409,0.6854c-0.4012,0-0.60161-0.2289-0.60161-0.6854
	V17.6548z M108.7995,56.4505l0.0046-1.6586l-22.0352-3.2094L64.734,54.7919l0.0048,1.6586h-2.1071v-3.3927l24.158-3.5095
	l24.1153,3.5075v3.3947H108.7995z M113.0034,69.8572h15.72049l-4.8045,4.8485l-4.80479,4.8492h-7.0767v-9.6977H113.0034z
	 M108.7362,69.8572h2.167v2.3832l-0.0066,13.4132l-24.1062,24.3429l-24.149-24.354l-0.0097-5.5417V69.8572h2.1701l0.0711,15.1826
	l21.896,22.09679l21.8956-22.0973L108.7362,69.8572z M77.1596,79.2751l4.8048,4.8498l-7.1271,7.1925l-7.28761-7.3438V67.2941
	h-0.8026h-0.5629h-4.6877H53.624h-0.1009H36.7327l-4.8048-4.8492l-4.8043-4.8491H53.624h23.5356V79.2751z M91.574,57.9512v26.1737
	v14.3837l-4.8051,4.8498l-4.8045-4.8492V84.1249V57.9512l4.8045-4.2184L91.574,57.9512z M96.3777,57.5958h50.0363l-4.8036,4.8491
	l-4.80569,4.8492H120.4277h-7.42429h-4.6866h-1.1123h-1.2169v16.6684l-7.2899,7.3568l-7.1237-7.1944l4.8037-4.8498V57.5958z
	 M44.8139,69.8572h16.6826v9.6977h-7.0733l-4.805-4.8492L44.8139,69.8572z M150.5056,34.8333v-2.258
	c0-1.279-0.5358-1.4518-1.0593-1.4518c-0.29141,0-0.6701,0.0469-0.82341,0.2679c-0.10849,0.1547-0.23709,0.4854-0.23709,1.1839
	c0,0.7702,0.2177,1.3624,0.66559,1.8099c0.3045,0.3026,0.79111,0.7388,1.45421,1.303l0.36639,0.3098
	c0.3806,0.3189,0.8085,0.6731,1.28481,1.0612c1.5885,1.2972,2.79379,2.5638,3.5816,3.7657
	c0.8091,1.2374,1.22009,2.7608,1.22009,4.529c0,2.3701-0.6463,4.1696-1.92259,5.3441c-1.26491,1.1643-3.15651,1.7545-5.6232,1.7545
	c-2.10941,0-3.88661-0.4461-5.28131-1.3259c-1.4579-0.9189-2.1985-2.4392-2.1985-4.5179v-3.2942h6.45291v2.9877
	c0,0.7723,0.1492,1.0586,0.23709,1.1603c0.14351,0.1662,0.4194,0.2498,0.82341,0.2498c0.5235,0,1.0593-0.1676,1.0593-1.4101
	c0-1.095-0.2908-1.9755-0.8634-2.6173c-0.3148-0.3522-0.73419-0.7624-1.25639-1.2255l-0.26041-0.2289
	c-0.46339-0.4024-0.9967-0.8414-1.59821-1.3149c-1.4935-1.1759-2.63809-2.3525-3.4039-3.4964
	c-0.78979-1.1778-1.1904-2.706-1.1904-4.5439c0-4.3072,2.5612-6.4914,7.6123-6.4914c2.17281,0,3.9552,0.4455,5.29941,1.3246
	c1.40289,0.9177,2.11389,2.4151,2.11389,4.4519v2.6729H150.5056z M75.6073,26.8555H67.657v24.3271l6.4384-0.9365v-6.3355
	c2.4252-0.0131,3.9836-0.1318,4.7579-0.3646c1.4973-0.4578,2.5555-1.4544,3.143-2.9591c0.4143-1.0344,0.6244-2.4672,0.6244-4.2569
	v-2.6167c0-2.5272-0.5443-4.3241-1.61739-5.3388C79.9224,27.3531,78.1572,26.8555,75.6073,26.8555z M74.6079,39.801h-0.5125v-8.9364
	h0.4501c1.5514,0,1.6374,1.0128,1.6374,2.325v3.9432C76.1829,38.4862,76.2592,39.801,74.6079,39.801z M101.4735,47.9673h2.9353
	l0.3006,3.0412l6.1853,0.9l-3.74-25.053h-8.033l-3.6682,22.8069l5.7033,0.8296l0.2985-2.376L101.4735,47.9673z M102.9929,34.4836
	l1.0178,9.3573h-2.0357L102.9929,34.4836z M135.2995,31.3987v4.5661h5.87151v4.48h-5.87151v6.9917h5.9962v4.5431h-12.4342V26.8555
	h12.4342v4.5432H135.2995z M34.3218,51.9796h-7.3077l-1.8222-15.5641L23.524,51.9796h-7.1849l-3.2976-25.1241h6.6252l0.9426,13.588
	l1.6919-13.588h6.8517l1.2043,13.5971l1.3985-13.5971h5.7666L34.3218,51.9796z M122.3666,26.8555h5.2199v25.1241h-8.01511
	l-3.41479-16.7694v16.7694h-5.2509V26.8555h8.5455l2.9154,14.3615V26.8555z M83.5836,27.5774H83.5833v-0.6639h0.00031v-0.058H90.021
	v0.058h0.0007v0.6639H90.021v19.8591h5.0596v2.1717l-8.29089-1.206l-3.2061,0.4658V27.5774z M41.6016,51.9796l0.5008-4.0123h2.9337
	l0.3997,4.0123h6.244l-3.7506-25.1241H39.896l-4.0413,25.1241H41.6016z M43.5416,34.4817l1.0179,9.3592h-2.0358L43.5416,34.4817z
	 M110.905,51.9783l0.0007,0.0013h-0.0007V51.9783z M58.1174,43.6491h0.9692l2.0202,8.3305h1.5249v-0.0671l4.7887-0.6959
	l-2.7937-9.007c1.0492-0.2719,1.985-0.9326,1.985-3.8017l-0.001-5.3357c-0.02361-1.0546-0.1573-1.9455-0.3962-2.6472
	c-0.5017-1.4949-1.5924-2.5196-3.2315-3.0412c-1.0196-0.3503-2.484-0.5283-4.3528-0.5283h-6.9504v25.1241h6.4376V43.6491z
	 M58.1174,30.8646c0.9818,0.045,1.4144,0.2445,1.6047,0.416c0.1688,0.1514,0.4521,0.6014,0.4521,1.909v3.8043
	c0,1.3449-0.2563,1.9195-0.4715,2.1647c-0.1819,0.2075-0.6048,0.4487-1.5853,0.5029V30.8646z"/>
</svg>
