<?xml version="1.0" encoding="utf-8"?>
<!-- Generator: Adobe Illustrator 22.1.0, SVG Export Plug-In . SVG Version: 6.00 Build 0)  -->
<svg version="1.1" id="Layer_1" xmlns="http://www.w3.org/2000/svg" xmlns:xlink="http://www.w3.org/1999/xlink" x="0px" y="0px"
	 width="170px" height="110px" viewBox="0 0 170 110" style="enable-background:new 0 0 170 110;" xml:space="preserve">
<style type="text/css">
	.st0{fill:#FFFFFF;}
</style>
<g>
	<g>
		<g>
			<rect x="52.6" y="16.3" class="st0" width="15.1" height="47.5"/>
			<polygon class="st0" points="41.1,45.5 41.1,9.5 26.8,9.5 26.8,52.5 42.6,64.9 51.4,53.6 			"/>
			<polygon class="st0" points="79,9.5 79,45.5 68.8,53.5 77.6,64.9 93.4,52.5 93.4,9.5 			"/>
		</g>
		<polygon class="st0" points="119.4,22.4 137.4,22.4 143.2,9.5 112.8,9.5 103.8,25.7 126.3,50.5 105.2,50.5 105.2,63.8 135.5,63.8 
			143,49 		"/>
	</g>
	<g>
		<g>
			<g>
				<g>
					<rect x="10.9" y="83.7" class="st0" width="5.2" height="16.4"/>
				</g>
				<g>
					<polygon class="st0" points="6.9,93.8 6.9,81.4 2,81.4 2,96.2 7.4,100.5 10.5,96.6 					"/>
				</g>
				<g>
					<polygon class="st0" points="20,81.4 20,93.8 16.5,96.6 19.5,100.5 25,96.2 25,81.4 					"/>
				</g>
			</g>
		</g>
		<g>
			<polygon class="st0" points="87.7,85.9 93.9,85.9 95.9,81.4 85.4,81.4 82.3,87 90.1,95.5 82.8,95.5 82.8,100.1 93.2,100.1 
				95.8,95 			"/>
		</g>
		<g>
			<rect x="105.2" y="81.4" class="st0" width="4.8" height="18.7"/>
			<polygon class="st0" points="120.6,87.1 116.6,81.3 105.2,81.3 105.2,86.1 115.7,86.1 110.9,92.4 114.5,95 			"/>
		</g>
		<g>
			<rect x="44.8" y="81.4" class="st0" width="4.5" height="18.7"/>
			<polygon class="st0" points="38.1,100.1 33.1,100.1 39.6,81.4 44.5,81.4 			"/>
			<rect x="36.9" y="92.3" class="st0" width="10.8" height="3.9"/>
			<rect x="39.9" y="81.4" class="st0" width="8.5" height="3.9"/>
		</g>
		<g>
			<rect x="59" y="81.4" class="st0" width="4.5" height="18.7"/>
			<polygon class="st0" points="71,81.4 73.8,85.9 59,85.9 59,81.4 			"/>
			<polygon class="st0" points="74.8,100.1 69.7,100.1 64.2,91.9 69.3,91.9 			"/>
			<polygon class="st0" points="73.8,85.9 69.7,83.7 64.2,91.9 69.3,91.9 			"/>
		</g>
		<g>
			<path class="st0" d="M144.1,84.8l-4.6-3.4h-6.3l-4.7,3.4v12.1l4.7,3.2h6.3l4.6-3.2V84.8z M139,85.9v9.8h-5.5v-9.8H139z"/>
		</g>
		<g>
			<polygon class="st0" points="165.6,85.9 152,85.9 152,81.4 168,81.4 			"/>
			<rect x="156.6" y="84.5" class="st0" width="5.1" height="15.6"/>
		</g>
	</g>
</g>
</svg>
