<?xml version="1.0" encoding="utf-8"?>
<!-- Generator: Adobe Illustrator 18.0.0, SVG Export Plug-In . SVG Version: 6.00 Build 0)  -->
<!DOCTYPE svg PUBLIC "-//W3C//DTD SVG 1.0//EN" "http://www.w3.org/TR/2001/REC-SVG-20010904/DTD/svg10.dtd">
<svg version="1.0" id="Layer_1" xmlns="http://www.w3.org/2000/svg" xmlns:xlink="http://www.w3.org/1999/xlink" x="0px" y="0px" width="105px" height="133px"
	 viewBox="0 0 105 133" enable-background="new 0 0 105 133" xml:space="preserve">
<path id="WG_x5F_WGCard_x5F_Logo_x5F_MainVersion_x5F_Simplified_x5F_Monochrome_x5F_1r_x5F_Rus_3_" fill-rule="evenodd" clip-rule="evenodd" fill="#FFFFFF" d="
	M7.1,105.6V84.2h5.2v10.1l5.7-10.1h6l-6.3,9.9l7,11.4h-6.2l-6.3-11.2v11.2H7.1L7.1,105.6z M35.2,92.3L37,98h-3.7L35.2,92.3
	L35.2,92.3z M39.3,105.6h5.5l-7.8-21.3h-4l-7.8,21.3h5.5l1-3.2h6.6L39.3,105.6L39.3,105.6z M54.7,88.9c1.3,0,2.3,0.9,2.3,2.2
	c0,1.2-1,2.2-2.3,2.2h-3v-4.3H54.7L54.7,88.9z M55,98c4.3,0,7.3-2.9,7.3-6.9c0-4-3.1-6.9-7.3-6.9h-8.4v21.3h5.2V98H55L55,98z
	 M74.2,88.9h5.2v-4.7H63.7v4.7h5.2v16.7h5.2V88.9L74.2,88.9z M87.8,92.3l1.8,5.7h-3.7L87.8,92.3L87.8,92.3z M91.9,105.6h5.5
	l-7.8-21.3h-4l-7.8,21.3h5.5l1-3.2h6.6L91.9,105.6L91.9,105.6z M17.6,121.9l3-11h-2.8l-1.4,5.8l-1.8-5.8h-1.9l-1.8,5.8l-1.4-5.8H6.6
	l3,11h2.2l1.8-5.4l1.8,5.4H17.6L17.6,121.9z M25,115.1l0.9,2.9H24L25,115.1L25,115.1z M27.2,121.9H30l-4-11h-2.1l-4,11h2.8l0.5-1.6
	h3.4L27.2,121.9L27.2,121.9z M35.4,113.3c0.7,0,1.2,0.5,1.2,1.1c0,0.6-0.4,1.1-1.2,1.1h-1.5v-2.2H35.4L35.4,113.3z M36.7,121.9h3.1
	l-2.4-4.6c0.9-0.4,1.8-1.4,1.8-2.9c0-1.8-1.3-3.5-3.7-3.5h-4.4v11h2.7v-4.1h0.9L36.7,121.9L36.7,121.9z M48.1,120.8
	c0.8-0.8,1.1-1.9,1.1-3.7v-1.5h-4.3v2.3h1.6v0.2c0,0.4-0.1,0.9-0.4,1.2c-0.2,0.3-0.6,0.4-1.2,0.4c-0.5,0-0.9-0.2-1.1-0.5
	c-0.2-0.3-0.4-0.7-0.4-2.7s0.2-2.4,0.4-2.7c0.2-0.3,0.6-0.5,1.1-0.5c0.9,0,1.4,0.4,1.6,1.2h2.7c-0.3-1.8-1.5-3.6-4.3-3.6
	c-1.3,0-2.3,0.4-3.1,1.2c-1.2,1.2-1.1,2.7-1.1,4.4s0,3.2,1.1,4.4c0.8,0.8,1.8,1.2,3.1,1.2C46.1,122,47.1,121.7,48.1,120.8
	L48.1,120.8z M54.8,115.1l0.9,2.9h-1.9L54.8,115.1L54.8,115.1z M56.9,121.9h2.8l-4-11h-2.1l-4,11h2.8l0.5-1.6h3.4L56.9,121.9
	L56.9,121.9z M68.5,121.9h2.7v-11h-2.7l-2.5,4.8l-2.5-4.8h-2.7v11h2.7v-5.3l1.6,2.7h1.7l1.6-2.7V121.9L68.5,121.9z M73.3,110.9v11
	H76v-11H73.3L73.3,110.9z M84.3,121.9h2.4v-11H84v5.5l-3.5-5.5h-2.4v11h2.7v-5.5L84.3,121.9L84.3,121.9z M95.8,120.8
	c0.8-0.8,1.1-1.9,1.1-3.7v-1.5h-4.3v2.3h1.6v0.2c0,0.4-0.1,0.9-0.4,1.2c-0.2,0.3-0.6,0.4-1.2,0.4c-0.5,0-0.9-0.2-1.1-0.5
	c-0.2-0.3-0.4-0.7-0.4-2.7s0.2-2.4,0.4-2.7c0.2-0.3,0.6-0.5,1.1-0.5c0.9,0,1.4,0.4,1.6,1.2h2.7c-0.3-1.8-1.5-3.6-4.3-3.6
	c-1.3,0-2.3,0.4-3.1,1.2c-1.2,1.2-1.1,2.7-1.1,4.4s0,3.2,1.1,4.4c0.8,0.8,1.8,1.2,3.1,1.2C93.8,122,94.9,121.7,95.8,120.8
	L95.8,120.8z M27,67.8c2.1,0.7,4.5,0.7,6.7-0.2L96,44c1.5-0.6,2.2-3.1-0.2-4.8l-13.1-9.3L13.4,46l8.9,18
	C23.2,65.8,24.9,67.1,27,67.8L27,67.8z M9.2,37.3l16-3l3.6,4.8l2.6-0.5c-2.8-6.3-2.4-14.9,4.9-22.6c7.3-7.3,18.2-7.7,23.8-1
	c3.4,4.5,4.5,10.6,2.6,17v0l0,0v0l1.5-0.3l0,0l0.1-0.3c0.4-1.7,0.7-3.1,0.8-4.4l0,0l10.8-2l-4-2.8c-1.6-1.1-4.2-1.8-5.9-1.6
	l-1.2,0.2c-1-5.6-4.4-9.3-7.9-11.5c-6.2-3.9-18.3-5-26.7,4.3c-3.5,3.9-5.4,8.5-6,13l-12.9,1.9c-3.2,0.5-5.4,2.2-4.5,4.1L9.2,37.3
	L9.2,37.3z M41,20c-4.4,5-6.3,11-6.2,17.9l11.1-2.3c-2.5-4.3-3.7-8.8-1.3-13.8l1.9,2.2c0.5-3,1.4-6.1,2.8-9.2
	c-3.7,0.6-7.2,2-10.4,4.9L41,20L41,20z M49,34.9l10.6-2.2c-0.1-0.3-0.1-0.7-0.2-1.1c-0.6-2.5-1.4-4.7-2.4-6.6l-0.2-0.4l2.6-0.7
	l-1.3-1c-1.6-1.2-3.3-2.2-5.2-3.2l-0.6-0.3l0,0.7c-0.2,2.5-0.8,5.1-1.8,7.7l-0.1,0.3l2.7-1.7l-0.1,0.7c-0.4,2.8-1.7,5.1-3.4,7.2
	L49,34.9L49,34.9z"/>
</svg>
