<svg width="54" height="54" viewBox="0 0 54 54" version="1.1" xmlns="http://www.w3.org/2000/svg" xmlns:xlink="http://www.w3.org/1999/xlink">
<title>Group</title>
<desc>Created using Figma</desc>
<g id="Canvas" transform="translate(2825 635)">
<g id="Group">
<g id="Vector">
<use xlink:href="#path0_fill" transform="translate(-2823 -633)" fill="#F58B6D"/>
<use xlink:href="#path1_stroke" transform="translate(-2823 -633)"/>
</g>
<g id="Vector">
<use xlink:href="#path2_stroke" transform="translate(-2813 -623)"/>
</g>
<g id="Vector">
<use xlink:href="#path3_stroke" transform="translate(-2813 -608)"/>
</g>
<g id="Vector">
<use xlink:href="#path4_stroke" transform="translate(-2818 -598)"/>
</g>
<g id="Vector">
<use xlink:href="#path5_stroke" transform="translate(-2798 -608)"/>
</g>
</g>
</g>
<defs>
<path id="path0_fill" d="M 50 0L 0 0L 0 50L 50 50L 50 0Z"/>
<path id="path1_stroke" d="M 0 0L 0 -2.0001L -2.0001 -2.0001L -2.0001 0L 0 0ZM 50 0L 52.0001 0L 52.0001 -2.0001L 50 -2.0001L 50 0ZM 50 50L 50 52.0001L 52.0001 52.0001L 52.0001 50L 50 50ZM 0 50L -2.0001 50L -2.0001 52.0001L 0 52.0001L 0 50ZM 0 2.0001L 50 2.0001L 50 -2.0001L 0 -2.0001L 0 2.0001ZM 47.9999 0L 47.9999 50L 52.0001 50L 52.0001 0L 47.9999 0ZM 50 47.9999L 0 47.9999L 0 52.0001L 50 52.0001L 50 47.9999ZM 2.0001 50L 2.0001 0L -2.0001 0L -2.0001 50L 2.0001 50Z"/>
<path id="path2_stroke" d="M 7.9999 5C 7.9999 6.6568 6.6568 7.9999 5 7.9999L 5 12.0001C 8.86605 12.0001 12.0001 8.86605 12.0001 5L 7.9999 5ZM 5 7.9999C 3.3432 7.9999 2.0001 6.6568 2.0001 5L -2.0001 5C -2.0001 8.86605 1.13395 12.0001 5 12.0001L 5 7.9999ZM 2.0001 5C 2.0001 3.3432 3.3432 2.0001 5 2.0001L 5 -2.0001C 1.13395 -2.0001 -2.0001 1.13395 -2.0001 5L 2.0001 5ZM 5 2.0001C 6.6568 2.0001 7.9999 3.3432 7.9999 5L 12.0001 5C 12.0001 1.13395 8.86605 -2.0001 5 -2.0001L 5 2.0001Z"/>
<path id="path3_stroke" d="M 0 0L 0 -2.0001L -2.0001 -2.0001L -2.0001 0L 0 0ZM 10 0L 12.0001 0L 12.0001 -2.0001L 10 -2.0001L 10 0ZM 10 10L 10 12.0001L 12.0001 12.0001L 12.0001 10L 10 10ZM 0 10L -2.0001 10L -2.0001 12.0001L 0 12.0001L 0 10ZM 0 2.0001L 10 2.0001L 10 -2.0001L 0 -2.0001L 0 2.0001ZM 7.9999 0L 7.9999 10L 12.0001 10L 12.0001 0L 7.9999 0ZM 10 7.9999L 0 7.9999L 0 12.0001L 10 12.0001L 10 7.9999ZM 2.0001 10L 2.0001 0L -2.0001 0L -2.0001 10L 2.0001 10Z"/>
<path id="path4_stroke" d="M 0 2.0001L 40 2.0001L 40 -2.0001L 0 -2.0001L 0 2.0001Z"/>
<path id="path5_stroke" d="M 0 10L -1.78894 9.10553L -3.23623 12.0001L 0 12.0001L 0 10ZM 10 10L 10 12.0001L 11.2361 12.0001L 11.7889 10.8945L 10 10ZM 15 0L 16.7889 0.894472L 18.2362 -2.0001L 15 -2.0001L 15 0ZM 5 0L 5 -2.0001L 3.76387 -2.0001L 3.21106 -0.894472L 5 0ZM 0 12.0001L 10 12.0001L 10 7.9999L 0 7.9999L 0 12.0001ZM 11.7889 10.8945L 16.7889 0.894472L 13.2111 -0.894472L 8.21106 9.10553L 11.7889 10.8945ZM 15 -2.0001L 5 -2.0001L 5 2.0001L 15 2.0001L 15 -2.0001ZM 3.21106 -0.894472L -1.78894 9.10553L 1.78894 10.8945L 6.78894 0.894472L 3.21106 -0.894472Z"/>
</defs>
</svg>
