<svg width="129" height="19" viewBox="0 0 129 19" fill="none" xmlns="http://www.w3.org/2000/svg">
<g clip-path="url(#clip0)">
<path d="M109.756 0.401107V1.46022C108.654 0.568335 107.269 0.0666504 105.828 0.0666504C102.267 0.0666504 99.3558 3.1325 99.3558 6.89513C99.3558 10.6578 102.238 13.7236 105.828 13.7236C107.269 13.7236 108.654 13.2219 109.756 12.33V13.5006H112.723V0.401107H109.756ZM106.167 11.1595C104.019 11.1595 102.267 9.2642 102.267 6.89513C102.267 4.52607 104.019 2.65869 106.167 2.65869C108.315 2.65869 110.067 4.55394 110.067 6.92301C110.067 9.29207 108.315 11.1595 106.167 11.1595ZM91.2167 0.0666504C89.7754 0.0666504 88.3624 0.568335 87.2602 1.51596V0.401107H84.2645V18.2667H87.2319V12.3022C88.3341 13.2219 89.7471 13.7236 91.1884 13.7515C94.7493 13.7515 97.6602 10.6856 97.6602 6.92301C97.6602 3.16037 94.8058 0.0666504 91.2167 0.0666504ZM90.8776 11.1595C88.7298 11.1595 86.9776 9.2642 86.9776 6.89513C86.9776 4.52607 88.7298 2.63082 90.8776 2.63082C93.0254 2.63082 94.7776 4.52607 94.7776 6.89513C94.7776 9.2642 93.0254 11.1595 90.8776 11.1595ZM125.356 0.401107L121.541 9.31994L117.471 0.401107H114.532L120.128 12.6645L117.725 18.2667H120.636L128.267 0.401107H125.356ZM65.3863 2.21275L65.5276 10.8529H65.4711L62.8993 2.21275H58.745V13.1104H61.4863L61.345 4.16374H61.4015L64.1711 13.1104H68.1558V2.21275H65.3863ZM12.821 2.21275L10.758 13.2219H13.7819L15.308 3.21611H15.3645L16.8624 13.2219H19.858L17.795 2.21275H12.821ZM29.6928 2.21275L28.308 10.6299H28.2515L26.895 2.21275H22.3167L22.0624 13.2219H24.8602L24.9167 3.3276H24.9732L26.8667 13.2219H29.6928L31.558 3.3276H31.6145L31.671 13.2219H34.4689L34.2145 2.21275H29.6928ZM6.0667 10.1003C6.15148 10.3791 6.15148 10.6578 6.09496 10.9365C6.01018 11.2988 5.75583 11.6611 4.99279 11.6611C4.28626 11.6611 3.86235 11.2709 3.86235 10.6578V9.57078H0.866699V10.4069C0.866699 12.8596 2.8167 13.6121 4.93626 13.6121C6.97105 13.6121 8.61018 12.9432 8.89279 11.1037C9.00583 10.4905 9.00583 9.90524 8.89279 9.29207C8.41235 6.97875 4.17322 6.30984 3.86235 4.99988C3.83409 4.80478 3.83409 4.60968 3.86235 4.41458C3.94713 4.05226 4.17322 3.66206 4.87974 3.66206C5.4167 3.60631 5.86887 3.99651 5.9254 4.4982C5.9254 4.55394 5.9254 4.60968 5.9254 4.66542V5.33434H8.72322V4.55394C8.72322 2.157 6.54713 1.7668 4.96453 1.7668C2.98626 1.7668 1.34713 2.40784 1.06453 4.21948C0.951482 4.72117 0.951482 5.22285 1.06453 5.72454C1.5167 8.03786 5.47322 8.6789 6.0667 10.1003ZM42.3537 10.1003C42.4384 10.3512 42.4384 10.6299 42.3819 10.9086C42.2971 11.2709 42.0428 11.6333 41.308 11.6333C40.6297 11.6333 40.2058 11.2431 40.2058 10.6578V9.59866H37.2384V10.4348C37.2384 12.8596 39.1884 13.5843 41.2515 13.5843C43.258 13.5843 44.8971 12.9153 45.1515 11.1037C45.2645 10.5184 45.2645 9.90524 45.1515 9.31994C44.6711 7.06236 40.4602 6.36558 40.1776 5.0835C40.1493 4.8884 40.1493 4.72117 40.1776 4.52607C40.2624 4.16374 40.4884 3.80141 41.195 3.80141C41.7037 3.74567 42.1841 4.13587 42.2124 4.63755C42.2124 4.6933 42.2124 4.72117 42.2124 4.77691V5.44582H44.9537V4.66542C44.9537 2.29636 42.8058 1.90616 41.2232 1.90616C39.245 1.90616 37.6624 2.5472 37.3515 4.33097C37.2667 4.80478 37.2667 5.30647 37.3797 5.80815C37.8602 8.03786 41.7884 8.6789 42.3537 10.1003ZM51.7363 11.5497C52.245 11.6054 52.6971 11.2431 52.8102 10.7693C52.8384 10.6299 52.8384 10.4905 52.8384 10.3512V2.21275H55.6645V10.1003C55.6645 10.2954 55.6363 10.7135 55.6363 10.825C55.4384 12.8875 53.7993 13.5564 51.7363 13.5564C49.6732 13.5564 48.0341 12.8875 47.8363 10.825C47.8363 10.7135 47.808 10.2954 47.808 10.1003V2.21275H50.6341V10.3512C50.6341 10.4905 50.6341 10.6299 50.6624 10.7693C50.7754 11.2709 51.2276 11.6054 51.7363 11.5497ZM75.0232 11.4382C75.8428 11.4382 76.1254 10.9365 76.1537 10.6578C76.1819 10.5184 76.1819 10.3791 76.1819 10.2397V8.65103H75.0515V7.03449H79.008V9.98885C79.008 10.184 79.008 10.3512 78.9797 10.7135C78.8102 12.7202 77.0297 13.4449 75.0515 13.4449C73.0732 13.4449 71.3211 12.7202 71.1232 10.7135C71.095 10.3512 71.095 10.184 71.095 9.98885V5.33434C71.095 5.0835 71.1232 4.86052 71.1515 4.60968C71.4058 2.5472 73.1015 1.87829 75.0798 1.87829C77.058 1.87829 78.7819 2.51933 79.008 4.60968C79.0363 4.86052 79.0363 5.0835 79.0363 5.33434V5.69667H76.2102V5.0835C76.2102 4.94414 76.2102 4.80478 76.1819 4.66542C76.1254 4.41458 75.9276 3.85716 75.0515 3.85716C74.5145 3.80141 74.0624 4.16374 73.9493 4.66542C73.9211 4.83265 73.8928 4.99988 73.8928 5.19498V10.2397C73.8928 10.3791 73.8928 10.5184 73.9211 10.6578C73.9211 10.9365 74.2037 11.4382 75.0232 11.4382Z" fill="#034EA2"/>
</g>
<defs>
<clipPath id="clip0">
<rect width="127.4" height="18.2" fill="white" transform="translate(0.866699 0.0666504)"/>
</clipPath>
</defs>
</svg>
