<svg width="146" height="149" viewBox="0 0 146 149" fill="none" xmlns="http://www.w3.org/2000/svg">
<path d="M-30.3999 74.2C-30.3999 51.1333 -26.2666 33.0667 -17.9999 20C-9.5999 6.93333 4.26677 0.399994 23.6001 0.399994C42.9334 0.399994 56.7334 6.93333 65.0001 20C73.4001 33.0667 77.6001 51.1333 77.6001 74.2C77.6001 97.4 73.4001 115.6 65.0001 128.8C56.7334 142 42.9334 148.6 23.6001 148.6C4.26677 148.6 -9.5999 142 -17.9999 128.8C-26.2666 115.6 -30.3999 97.4 -30.3999 74.2ZM50.0001 74.2C50.0001 64.3333 49.3334 56.0667 48.0001 49.4C46.8001 42.6 44.2668 37.0667 40.4001 32.8C36.6668 28.5333 31.0668 26.4 23.6001 26.4C16.1334 26.4 10.4668 28.5333 6.6001 32.8C2.86676 37.0667 0.333431 42.6 -0.999903 49.4C-2.1999 56.0667 -2.7999 64.3333 -2.7999 74.2C-2.7999 84.3333 -2.1999 92.8667 -0.999903 99.8C0.200098 106.6 2.73343 112.133 6.6001 116.4C10.4668 120.533 16.1334 122.6 23.6001 122.6C31.0668 122.6 36.7334 120.533 40.6001 116.4C44.4668 112.133 47.0001 106.6 48.2001 99.8C49.4001 92.8667 50.0001 84.3333 50.0001 74.2Z" fill="white"/>
<path d="M99.497 29V3.2H147.697V149H118.897V29H99.497Z" fill="white"/>
</svg>
