<svg width="146" height="149" viewBox="0 0 146 149" fill="none" xmlns="http://www.w3.org/2000/svg">
<path d="M-47.3999 74.2C-47.3999 51.1333 -43.2666 33.0667 -34.9999 20C-26.5999 6.93334 -12.7332 0.400009 6.60011 0.400009C25.9334 0.400009 39.7334 6.93334 48.0001 20C56.4001 33.0667 60.6001 51.1333 60.6001 74.2C60.6001 97.4 56.4001 115.6 48.0001 128.8C39.7334 142 25.9334 148.6 6.60011 148.6C-12.7332 148.6 -26.5999 142 -34.9999 128.8C-43.2666 115.6 -47.3999 97.4 -47.3999 74.2ZM33.0001 74.2C33.0001 64.3333 32.3334 56.0667 31.0001 49.4C29.8001 42.6 27.2668 37.0667 23.4001 32.8C19.6668 28.5333 14.0668 26.4 6.60011 26.4C-0.866562 26.4 -6.53323 28.5333 -10.3999 32.8C-14.1332 37.0667 -16.6666 42.6 -17.9999 49.4C-19.1999 56.0667 -19.7999 64.3333 -19.7999 74.2C-19.7999 84.3333 -19.1999 92.8667 -17.9999 99.8C-16.7999 106.6 -14.2666 112.133 -10.3999 116.4C-6.53323 120.533 -0.866562 122.6 6.60011 122.6C14.0668 122.6 19.7334 120.533 23.6001 116.4C27.4668 112.133 30.0001 106.6 31.2001 99.8C32.4001 92.8667 33.0001 84.3333 33.0001 74.2Z" fill="white"/>
<path d="M94.697 117.4C107.497 106.733 117.697 97.8667 125.297 90.8C132.897 83.6 139.23 76.1333 144.297 68.4C149.364 60.6667 151.897 53.0667 151.897 45.6C151.897 38.8 150.297 33.4667 147.097 29.6C143.897 25.7333 138.964 23.8 132.297 23.8C125.63 23.8 120.497 26.0667 116.897 30.6C113.297 35 111.43 41.0667 111.297 48.8H84.097C84.6303 32.8 89.3636 20.6667 98.297 12.4C107.364 4.13334 118.83 0 132.697 0C147.897 0 159.564 4.06667 167.697 12.2C175.83 20.2 179.897 30.8 179.897 44C179.897 54.4 177.097 64.3334 171.497 73.8C165.897 83.2667 159.497 91.5334 152.297 98.6C145.097 105.533 135.697 113.933 124.097 123.8H183.097V147H84.297V126.2L94.697 117.4Z" fill="white"/>
</svg>
