<svg width="146" height="151" viewBox="0 0 146 151" fill="none" xmlns="http://www.w3.org/2000/svg">
<path d="M-41.3999 75.2001C-41.3999 52.1334 -37.2666 34.0667 -28.9999 21.0001C-20.5999 7.93339 -6.73323 1.40005 12.6001 1.40005C31.9334 1.40005 45.7334 7.93339 54.0001 21.0001C62.4001 34.0667 66.6001 52.1334 66.6001 75.2001C66.6001 98.4001 62.4001 116.6 54.0001 129.8C45.7334 143 31.9334 149.6 12.6001 149.6C-6.73323 149.6 -20.5999 143 -28.9999 129.8C-37.2666 116.6 -41.3999 98.4001 -41.3999 75.2001ZM39.0001 75.2001C39.0001 65.3334 38.3334 57.0667 37.0001 50.4001C35.8001 43.6001 33.2668 38.0667 29.4001 33.8001C25.6668 29.5334 20.0668 27.4001 12.6001 27.4001C5.13344 27.4001 -0.533234 29.5334 -4.3999 33.8001C-8.13324 38.0667 -10.6666 43.6001 -11.9999 50.4001C-13.1999 57.0667 -13.7999 65.3334 -13.7999 75.2001C-13.7999 85.3334 -13.1999 93.8667 -11.9999 100.8C-10.7999 107.6 -8.26657 113.133 -4.3999 117.4C-0.533234 121.533 5.13344 123.6 12.6001 123.6C20.0668 123.6 25.7334 121.533 29.6001 117.4C33.4668 113.133 36.0001 107.6 37.2001 100.8C38.4001 93.8667 39.0001 85.3334 39.0001 75.2001Z" fill="white"/>
<path d="M88.297 42.6001C88.9636 29.2667 93.6303 19.0001 102.297 11.8C111.097 4.46671 122.63 0.800049 136.897 0.800049C146.63 0.800049 154.964 2.53338 161.897 6.00005C168.83 9.33338 174.03 13.9334 177.497 19.8001C181.097 25.5334 182.897 32.0667 182.897 39.4001C182.897 47.8001 180.697 54.9334 176.297 60.8001C172.03 66.5334 166.897 70.4001 160.897 72.4001V73.2001C168.63 75.6001 174.63 79.8667 178.897 86.0001C183.297 92.1334 185.497 100 185.497 109.6C185.497 117.6 183.63 124.733 179.897 131C176.297 137.267 170.897 142.2 163.697 145.8C156.63 149.267 148.097 151 138.097 151C123.03 151 110.764 147.2 101.297 139.6C91.8303 132 86.8303 120.8 86.297 106H113.497C113.764 112.533 115.964 117.8 120.097 121.8C124.364 125.667 130.164 127.6 137.497 127.6C144.297 127.6 149.497 125.733 153.097 122C156.83 118.133 158.697 113.2 158.697 107.2C158.697 99.2001 156.164 93.4667 151.097 90.0001C146.03 86.5334 138.164 84.8001 127.497 84.8001H121.697V61.8001H127.497C146.43 61.8001 155.897 55.4667 155.897 42.8001C155.897 37.0667 154.164 32.6001 150.697 29.4001C147.364 26.2001 142.497 24.6001 136.097 24.6001C129.83 24.6001 124.964 26.3334 121.497 29.8001C118.164 33.1334 116.23 37.4001 115.697 42.6001H88.297Z" fill="white"/>
</svg>
