<svg width="146" height="149" viewBox="0 0 146 149" fill="none" xmlns="http://www.w3.org/2000/svg">
<path d="M-47.3999 74.1999C-47.3999 51.1332 -43.2666 33.0666 -34.9999 19.9999C-26.5999 6.93324 -12.7332 0.399902 6.60011 0.399902C25.9334 0.399902 39.7334 6.93324 48.0001 19.9999C56.4001 33.0666 60.6001 51.1332 60.6001 74.1999C60.6001 97.3999 56.4001 115.6 48.0001 128.8C39.7334 142 25.9334 148.6 6.60011 148.6C-12.7332 148.6 -26.5999 142 -34.9999 128.8C-43.2666 115.6 -47.3999 97.3999 -47.3999 74.1999ZM33.0001 74.1999C33.0001 64.3332 32.3334 56.0666 31.0001 49.3999C29.8001 42.5999 27.2668 37.0666 23.4001 32.7999C19.6668 28.5332 14.0668 26.3999 6.60011 26.3999C-0.866562 26.3999 -6.53323 28.5332 -10.3999 32.7999C-14.1332 37.0666 -16.6666 42.5999 -17.9999 49.3999C-19.1999 56.0666 -19.7999 64.3332 -19.7999 74.1999C-19.7999 84.3332 -19.1999 92.8666 -17.9999 99.7999C-16.7999 106.6 -14.2666 112.133 -10.3999 116.4C-6.53323 120.533 -0.866562 122.6 6.60011 122.6C14.0668 122.6 19.7334 120.533 23.6001 116.4C27.4668 112.133 30.0001 106.6 31.2001 99.7999C32.4001 92.8666 33.0001 84.3332 33.0001 74.1999Z" fill="white"/>
<path d="M80.697 120.6V98.5999L146.097 4.9999H178.697V96.1999H196.297V120.6H178.697V149H150.697V120.6H80.697ZM152.497 34.9999L111.497 96.1999H152.497V34.9999Z" fill="white"/>
</svg>
