<svg width="120" height="15" viewBox="0 0 120 15" fill="none" xmlns="http://www.w3.org/2000/svg">
<path fill-rule="evenodd" clip-rule="evenodd" d="M71.4782 0.242551C70.8397 0.341203 70.2367 0.479315 69.6515 0.656887C68.0376 1.13041 66.7075 1.91962 65.7144 3.00478C64.4552 4.3859 63.9409 6.33919 64.402 8.25302C64.9341 10.3642 66.2819 11.765 67.346 12.5739C70.0062 14.6456 73.358 15.1981 76.5326 14.9416C81.5338 14.468 86.3044 12.7121 90.9154 10.8574C92.9904 10.0287 95.0654 9.16062 97.158 8.35168C98.9315 7.66112 100.687 7.01002 102.337 6.57596C104.855 5.90513 107.125 5.76702 108.863 6.16162C110.37 6.49704 111.435 7.26652 112.091 7.91761C112.499 8.31222 112.836 8.74628 113.137 9.21981C113.226 9.33819 113.598 9.98929 113.687 9.94983C113.775 9.89064 113.439 9.12116 113.368 8.98305C113.102 8.4306 112.676 7.85842 112.321 7.46382C111.683 6.77326 110.619 5.8854 109.023 5.45133C107.178 4.93835 104.802 5.01727 102.159 5.64864C100.492 6.06297 98.7542 6.67461 96.963 7.36517C94.8703 8.1741 92.7776 9.04223 90.6849 9.8709C86.0738 11.7255 81.3209 13.4618 76.4439 13.9156C73.4822 14.1129 70.3254 13.6986 67.8426 11.7453C66.5302 10.739 65.6257 9.41711 65.271 7.99653C64.8809 6.45757 65.3242 4.83969 66.3351 3.75453C67.2218 2.80748 68.4101 2.09719 69.8643 1.6434C70.4141 1.46583 70.9993 1.32771 71.6378 1.20933C73.2162 0.93311 74.9364 0.854189 76.5148 1.03176C78.04 1.1896 79.2992 1.56448 80.2214 1.91962C82.8993 2.92586 84.4245 4.42536 85.0807 5.05673C85.258 5.21457 85.3467 5.31322 85.3999 5.35268C85.5063 5.41187 85.5063 5.33295 85.4709 5.25403C85.3822 5.05673 85.0452 4.56347 84.4068 3.87291C83.8038 3.26128 82.5092 2.09719 80.4519 1.20933C79.5297 0.814729 78.2351 0.380665 76.6567 0.163632C74.9896 -0.0928603 73.1275 -0.0336717 71.4782 0.242551ZM104.624 1.03176C106.398 0.814731 108.154 0.775271 109.927 1.03176C111.275 1.22907 112.552 1.56448 113.811 2.11693C114.556 2.43261 115.301 2.80749 115.921 3.24155C116.312 3.51777 116.719 3.81373 117.092 4.12941C117.393 4.3859 117.695 4.6424 117.979 4.91862C118.44 5.35268 118.936 5.86567 119.326 6.41812C120.071 7.3849 120.018 7.44409 119.983 7.46382C119.947 7.48355 119.894 7.54274 119.06 6.71407C118.67 6.29973 118.245 5.92486 117.819 5.56972C117.518 5.31322 117.216 5.07646 116.897 4.85943C116.489 4.56348 116.081 4.28725 115.655 4.03076C115.035 3.65589 114.343 3.32047 113.616 3.02452C112.374 2.53126 111.115 2.23531 109.803 2.05774C108.118 1.8407 106.487 1.86043 104.802 2.05774C102.408 2.35369 100.084 2.98506 98.027 3.69534C96.4487 4.24779 94.9057 4.87916 93.3628 5.51052C90.2592 6.77326 87.0493 8.07545 83.7861 9.0225C79.8312 10.2063 76.2665 10.5615 73.7482 10.0287C71.5668 9.57495 70.2013 8.66736 69.9175 8.35167C69.8466 8.27275 69.8111 8.1741 69.953 8.21356C70.0239 8.23329 70.1658 8.27275 70.3964 8.37141C71.0171 8.6279 72.1876 9.08169 73.8369 9.29873C76.2311 9.65387 79.6716 9.20008 83.5378 8.03599C86.7478 7.08894 89.9578 5.78675 93.0436 4.54374C94.6397 3.89265 96.2181 3.24155 97.8497 2.6891C99.8892 1.97881 102.195 1.32772 104.624 1.03176Z" fill="white"/>
<path fill-rule="evenodd" clip-rule="evenodd" d="M48.5218 0.24256C49.1603 0.341211 49.7633 0.479324 50.3485 0.656896C51.9624 1.13042 53.2925 1.91963 54.2856 3.00479C55.5448 4.38591 56.0591 6.3392 55.598 8.25303C55.0659 10.3642 53.7181 11.765 52.654 12.574C49.9938 14.6456 46.642 15.1981 43.4674 14.9416C38.4662 14.4681 33.6956 12.7121 29.0846 10.8574C27.0096 10.0288 24.9347 9.16062 22.842 8.35168C21.0685 7.66112 19.3127 7.01002 17.6634 6.57596C15.1451 5.90513 12.875 5.76702 11.137 6.16162C9.62958 6.49704 8.5655 7.26652 7.90932 7.91761C7.50142 8.31222 7.16446 8.74628 6.86297 9.21981C6.77429 9.33819 6.40186 9.98929 6.31319 9.94983C6.22452 9.89064 6.56148 9.12116 6.63242 8.98305C6.89844 8.4306 7.32407 7.85842 7.67876 7.46382C8.31721 6.77326 9.3813 5.8854 10.9774 5.45134C12.8218 4.93835 15.1983 5.01727 17.8408 5.64864C19.5078 6.06297 21.2458 6.67461 23.037 7.36517C25.1297 8.17411 27.2224 9.04224 29.3151 9.87091C33.9262 11.7256 38.6791 13.4618 43.5561 13.9156C46.5178 14.1129 49.6746 13.6986 52.1574 11.7453C53.4698 10.739 54.3743 9.41712 54.729 7.99654C55.1191 6.45758 54.6758 4.8397 53.6649 3.75454C52.7782 2.80749 51.5899 2.0972 50.1357 1.64341C49.5859 1.46584 49.0007 1.32772 48.3622 1.20934C46.7838 0.933118 45.0636 0.854197 43.4852 1.03177C41.96 1.18961 40.7008 1.56448 39.7786 1.91963C37.1007 2.92587 35.5755 4.42537 34.9193 5.05673C34.7419 5.21458 34.6533 5.31323 34.6001 5.35269C34.4937 5.41188 34.4937 5.33296 34.5291 5.25404C34.6178 5.05673 34.9548 4.56348 35.5932 3.87292C36.1962 3.26128 37.4908 2.0972 39.5481 1.20934C40.4703 0.814736 41.7649 0.380672 43.3433 0.16364C45.0104 -0.0928525 46.8725 -0.0336635 48.5218 0.24256ZM15.3756 1.03177C13.6022 0.814734 11.8464 0.775273 10.073 1.03177C8.72511 1.22907 7.44821 1.56448 6.18905 2.11693C5.44419 2.43261 4.69933 2.80749 4.07862 3.24155C3.68845 3.51777 3.28055 3.81373 2.90812 4.12941C2.60663 4.3859 2.30514 4.6424 2.02139 4.91862C1.56029 5.35269 1.06371 5.86567 0.673549 6.41812C-0.0713093 7.3849 -0.0181052 7.44409 0.0173642 7.46382C0.0528337 7.48355 0.106038 7.54274 0.93957 6.71407C1.32973 6.29974 1.75537 5.92486 2.181 5.56972C2.48249 5.31323 2.78398 5.07646 3.10321 4.85943C3.5111 4.56347 3.919 4.28725 4.34464 4.03076C4.96535 3.65589 5.65701 3.32047 6.38413 3.02452C7.62556 2.53126 8.88473 2.23531 10.1971 2.05774C11.8819 1.84071 13.5135 1.86044 15.1983 2.05774C17.5925 2.35369 19.9157 2.98506 21.973 3.69535C23.5513 4.24779 25.0943 4.87916 26.6372 5.51053C29.7408 6.77326 32.9507 8.07546 36.2139 9.02251C40.1688 10.2063 43.7335 10.5615 46.2518 10.0288C48.4332 9.57496 49.7987 8.66737 50.0825 8.35168C50.1534 8.27276 50.1889 8.17411 50.047 8.21357C49.9761 8.2333 49.8342 8.27276 49.6036 8.37141C48.9829 8.62791 47.8124 9.0817 46.1631 9.29873C43.7689 9.65388 40.3284 9.20008 36.4622 8.036C33.2522 7.08895 30.0422 5.78675 26.9564 4.54375C25.3603 3.89265 23.7819 3.24155 22.1503 2.68911C20.1108 1.97882 17.8053 1.32772 15.3756 1.03177Z" fill="white"/>
</svg>
