<svg width="28" height="28" viewBox="0 0 28 28" version="1.1" xmlns="http://www.w3.org/2000/svg" xmlns:xlink="http://www.w3.org/1999/xlink">
<title>Group</title>
<desc>Created using Figma</desc>
<g id="Canvas" transform="translate(9003 -3973)">
<g id="Group">
<g id="Ellipse 5">
<use xlink:href="#path0_fill" transform="translate(-9003 3973)" fill="#FFFFFF"/>
<mask id="mask0_outline_ins">
<use xlink:href="#path0_fill" fill="white" transform="translate(-9003 3973)"/>
</mask>
<g mask="url(#mask0_outline_ins)">
<use xlink:href="#path1_stroke_2x" transform="translate(-9003 3973)"/>
</g>
</g>
<g id="Vector 5">
<use xlink:href="#path2_stroke" transform="translate(-8989.5 3980.5)"/>
</g>
</g>
</g>
<defs>
<path id="path0_fill" d="M 28 14C 28 21.732 21.732 28 14 28C 6.26801 28 0 21.732 0 14C 0 6.26801 6.26801 0 14 0C 21.732 0 28 6.26801 28 14Z"/>
<path id="path1_stroke_2x" d="M 24 14C 24 19.5228 19.5228 24 14 24L 14 32C 23.9411 32 32 23.9411 32 14L 24 14ZM 14 24C 8.47715 24 4 19.5228 4 14L -4 14C -4 23.9411 4.05887 32 14 32L 14 24ZM 4 14C 4 8.47715 8.47715 4 14 4L 14 -4C 4.05887 -4 -4 4.05887 -4 14L 4 14ZM 14 4C 19.5228 4 24 8.47715 24 14L 32 14C 32 4.05887 23.9411 -4 14 -4L 14 4Z"/>
<path id="path2_stroke" d="M 0 7.5L -2 7.5L -2 9.5L 0 9.5L 0 7.5ZM -2 0L -2 7.5L 2 7.5L 2 0L -2 0ZM 0 9.5L 7.5 9.5L 7.5 5.5L 0 5.5L 0 9.5Z"/>
</defs>
</svg>
