<svg width="13" height="13" viewBox="0 0 13 13" fill="none" xmlns="http://www.w3.org/2000/svg">
<path d="M6.49762 13C4.77387 13.0015 3.12027 12.3173 1.9014 11.098C0.682521 9.87876 -0.0015482 8.22466 2.63114e-06 6.50038V6.37038C0.0531453 3.76548 1.65546 1.44377 4.07164 0.47072C6.48782 -0.502334 9.25135 0.0611354 11.094 1.90255C12.9539 3.76149 13.5106 6.55844 12.5042 8.98819C11.4979 11.4179 9.12684 13.0015 6.49762 13ZM6.49762 7.41747C6.49762 7.41723 6.49791 7.41711 6.49808 7.41728L7.72228 8.64186C7.97533 8.89498 8.38568 8.89498 8.63872 8.64186V8.64186C8.89166 8.38885 8.89166 7.97871 8.63872 7.7257L7.41378 6.50038L8.63872 5.27506C8.89166 5.02204 8.89166 4.61191 8.63872 4.35889V4.35889C8.38568 4.10577 7.97533 4.10577 7.72228 4.35889L6.49762 5.58393L5.27296 4.35889C5.01991 4.10577 4.60956 4.10577 4.35651 4.35889V4.35889C4.10358 4.61191 4.10358 5.02204 4.35651 5.27506L5.58146 6.50038L4.35656 7.72565C4.1036 7.97869 4.1036 8.38887 4.35656 8.6419V8.6419C4.60959 8.89502 5.01992 8.89506 5.273 8.64199L6.49762 7.41747V7.41747Z" fill="#CC2222"/>
</svg>
