<svg width="421" height="36" viewBox="0 0 421 36" fill="none" xmlns="http://www.w3.org/2000/svg">
<g opacity="0.4" filter="url(#filter0_d_116:273)">
<rect x="4" y="11.752" width="49.2466" height="2.23848" rx="1.11924" fill="#CC2222"/>
<rect x="367.753" y="11.752" width="49.2466" height="2.23848" rx="1.11924" fill="#CC2222"/>
<rect x="66.6777" y="7.27515" width="11.1924" height="2.23848" rx="1.11924" transform="rotate(90 66.6777 7.27515)" fill="#CC2222"/>
<rect x="144.465" y="7.27515" width="11.1924" height="2.23848" rx="1.11924" transform="rotate(90 144.465 7.27515)" fill="#CC2222"/>
<rect x="74.5117" y="1.67896" width="22.3848" height="2.23848" rx="1.11924" transform="rotate(90 74.5117 1.67896)" fill="#CC2222"/>
<rect x="293.324" y="1.67896" width="22.3848" height="2.23848" rx="1.11924" transform="rotate(90 293.324 1.67896)" fill="#CC2222"/>
<rect x="120.961" y="1.67896" width="22.3848" height="2.23848" rx="1.11924" transform="rotate(90 120.961 1.67896)" fill="#CC2222"/>
<rect x="230.646" y="1.67896" width="22.3848" height="2.23848" rx="1.11924" transform="rotate(90 230.646 1.67896)" fill="#CC2222"/>
<rect x="160.134" y="1.67896" width="22.3848" height="2.23848" rx="1.11924" transform="rotate(90 160.134 1.67896)" fill="#CC2222"/>
<rect x="82.3467" y="4.47705" width="16.7886" height="2.23848" rx="1.11924" transform="rotate(90 82.3467 4.47705)" fill="#CC2222"/>
<rect x="301.158" y="4.47705" width="16.7886" height="2.23848" rx="1.11924" transform="rotate(90 301.158 4.47705)" fill="#CC2222"/>
<rect x="324.662" y="4.47705" width="16.7886" height="2.23848" rx="1.11924" transform="rotate(90 324.662 4.47705)" fill="#CC2222"/>
<rect x="105.851" y="4.47705" width="16.7886" height="2.23848" rx="1.11924" transform="rotate(90 105.851 4.47705)" fill="#CC2222"/>
<rect x="222.812" y="4.47705" width="16.7886" height="2.23848" rx="1.11924" transform="rotate(90 222.812 4.47705)" fill="#CC2222"/>
<rect x="207.143" y="4.47705" width="16.7886" height="2.23848" rx="1.11924" transform="rotate(90 207.143 4.47705)" fill="#CC2222"/>
<rect x="340.332" y="4.47705" width="16.7886" height="2.23848" rx="1.11924" transform="rotate(90 340.332 4.47705)" fill="#CC2222"/>
<rect x="277.654" y="4.47705" width="16.7886" height="2.23848" rx="1.11924" transform="rotate(90 277.654 4.47705)" fill="#CC2222"/>
<rect x="183.639" y="4.47705" width="16.7886" height="2.23848" rx="1.11924" transform="rotate(90 183.639 4.47705)" fill="#CC2222"/>
<rect x="254.15" y="4.47705" width="16.7886" height="2.23848" rx="1.11924" transform="rotate(90 254.15 4.47705)" fill="#CC2222"/>
<rect x="152.3" y="4.47705" width="16.7886" height="2.23848" rx="1.11924" transform="rotate(90 152.3 4.47705)" fill="#CC2222"/>
<rect x="167.969" y="4.47705" width="16.7886" height="2.23848" rx="1.11924" transform="rotate(90 167.969 4.47705)" fill="#CC2222"/>
<rect x="128.795" y="4.47705" width="16.7886" height="2.23848" rx="1.11924" transform="rotate(90 128.795 4.47705)" fill="#CC2222"/>
<rect x="238.481" y="4.47705" width="16.7886" height="2.23848" rx="1.11924" transform="rotate(90 238.481 4.47705)" fill="#CC2222"/>
<rect x="90.1816" width="27.981" height="2.23848" rx="1.11924" transform="rotate(90 90.1816 0)" fill="#CC2222"/>
<rect x="308.993" width="27.981" height="2.23848" rx="1.11924" transform="rotate(90 308.993 0)" fill="#CC2222"/>
<rect x="332.497" width="27.981" height="2.23848" rx="1.11924" transform="rotate(90 332.497 0)" fill="#CC2222"/>
<rect x="136.63" width="27.981" height="2.23848" rx="1.11924" transform="rotate(90 136.63 0)" fill="#CC2222"/>
<rect x="246.315" width="27.981" height="2.23848" rx="1.11924" transform="rotate(90 246.315 0)" fill="#CC2222"/>
<rect x="285.489" width="27.981" height="2.23848" rx="1.11924" transform="rotate(90 285.489 0)" fill="#CC2222"/>
<rect x="98.0166" y="7.27515" width="11.1924" height="2.23848" rx="1.11924" transform="rotate(90 98.0166 7.27515)" fill="#CC2222"/>
<rect x="316.828" y="7.27515" width="11.1924" height="2.23848" rx="1.11924" transform="rotate(90 316.828 7.27515)" fill="#CC2222"/>
<rect x="214.977" y="7.27515" width="11.1924" height="2.23848" rx="1.11924" transform="rotate(90 214.977 7.27515)" fill="#CC2222"/>
<rect x="175.804" width="27.981" height="2.23848" rx="1.11924" transform="rotate(90 175.804 0)" fill="#CC2222"/>
<rect x="199.308" y="7.27515" width="11.1924" height="2.23848" rx="1.11924" transform="rotate(90 199.308 7.27515)" fill="#CC2222"/>
<rect x="348.167" y="7.27515" width="11.1924" height="2.23848" rx="1.11924" transform="rotate(90 348.167 7.27515)" fill="#CC2222"/>
<rect x="356.001" y="7.27515" width="11.1924" height="2.23848" rx="1.11924" transform="rotate(90 356.001 7.27515)" fill="#CC2222"/>
<rect x="269.819" y="7.27515" width="11.1924" height="2.23848" rx="1.11924" transform="rotate(90 269.819 7.27515)" fill="#CC2222"/>
<rect x="113.686" y="7.27515" width="11.1924" height="2.23848" rx="1.11924" transform="rotate(90 113.686 7.27515)" fill="#CC2222"/>
<rect x="191.473" y="7.27515" width="11.1924" height="2.23848" rx="1.11924" transform="rotate(90 191.473 7.27515)" fill="#CC2222"/>
<rect x="261.985" y="7.27515" width="11.1924" height="2.23848" rx="1.11924" transform="rotate(90 261.985 7.27515)" fill="#CC2222"/>
</g>
<defs>
<filter id="filter0_d_116:273" x="0" y="0" width="421" height="35.981" filterUnits="userSpaceOnUse" color-interpolation-filters="sRGB">
<feFlood flood-opacity="0" result="BackgroundImageFix"/>
<feColorMatrix in="SourceAlpha" type="matrix" values="0 0 0 0 0 0 0 0 0 0 0 0 0 0 0 0 0 0 127 0" result="hardAlpha"/>
<feOffset dy="4"/>
<feGaussianBlur stdDeviation="2"/>
<feComposite in2="hardAlpha" operator="out"/>
<feColorMatrix type="matrix" values="0 0 0 0 0.3375 0 0 0 0 0.00900003 0 0 0 0 0.00900003 0 0 0 0.25 0"/>
<feBlend mode="normal" in2="BackgroundImageFix" result="effect1_dropShadow_116:273"/>
<feBlend mode="normal" in="SourceGraphic" in2="effect1_dropShadow_116:273" result="shape"/>
</filter>
</defs>
</svg>
