<svg width="122" height="16" viewBox="0 0 122 16" fill="none" xmlns="http://www.w3.org/2000/svg">
<path d="M0 3.26081H3.85453V13.3248H6.79131V3.26081H10.6458V0.516089H0V3.26081ZM15.411 13.3248V8.96984C15.8698 9.02474 16.5673 9.02474 16.8426 9.02474C19.8161 9.02474 21.5966 7.01194 21.5966 4.72467C21.5966 2.51059 20.3117 0.479492 16.4021 0.479492C15.411 0.479492 13.19 0.516089 12.4742 0.516089V13.3248H15.411ZM16.6958 3.22422C17.742 3.22422 18.4762 3.57188 18.4762 4.70637C18.4762 5.95064 17.5218 6.28001 16.7509 6.28001C16.3287 6.28001 15.8331 6.24342 15.411 6.18852V3.26081C16.0167 3.24252 16.3103 3.22422 16.6958 3.22422ZM34.2782 0.516089H31.3231L28.7167 6.77406L25.1007 0.516089H21.7785L27.3033 9.68347L27.1381 10.0677C26.9729 10.4337 26.6609 10.5801 26.1837 10.5801C25.8166 10.5801 25.633 10.5069 25.2843 10.269L24.2564 12.7576C24.6052 13.032 25.4495 13.3248 26.202 13.3248C27.9825 13.3248 29.0838 12.2452 29.9648 10.2873L34.2782 0.516089ZM33.322 15.5206H36.0753V13.3248H44.0413V15.5206H46.7945V10.5801H45.0508V0.516089H36.6626L36.5525 3.07783C36.3689 7.26811 35.2126 9.92135 34.6986 10.5801H33.322V15.5206ZM39.3057 5.42L39.5076 3.26081H42.114V10.5801H37.9291C38.3696 10.0128 39.1038 7.63408 39.3057 5.42Z" fill="white"/>
<path d="M52.7216 11.9842L58.4447 4.95535V11.9842H61.3985V0.673392H58.8139L53.0908 7.70226V0.673392H50.137V11.9842H52.7216ZM72.3838 11.9842H75.3377V0.673392H72.3838V5.00382H67.6761V0.673392H64.7222V11.9842H67.6761V7.42757H72.3838V11.9842ZM78.6589 11.9519C79.4158 12.0165 81.1328 12.0489 82.3697 12.0489C85.1758 12.0489 87.2805 10.9339 87.2805 8.55866C87.2805 7.10441 86.3759 6.28033 85.4343 5.97332V5.94101C86.3943 5.39162 86.9112 4.59987 86.9112 3.42031C86.9112 1.85295 85.6559 0.608758 82.5728 0.608758C81.1697 0.608758 79.3789 0.673392 78.6589 0.705709V11.9519ZM82.7574 7.41141C83.7174 7.41141 84.3266 7.71842 84.3266 8.42939C84.3266 9.18883 83.7543 9.62511 82.6097 9.62511C82.0558 9.62511 81.8158 9.57663 81.6128 9.52816V7.41141H82.7574ZM82.5358 3.03251C83.2558 3.03251 83.9574 3.37183 83.9574 4.05048C83.9574 4.87456 83.3482 5.14925 82.5912 5.14925H81.6128V3.09714C81.9451 3.06482 82.1666 3.03251 82.5358 3.03251ZM90.0528 11.9842H97.899V9.56047H93.0066V7.50836H97.1605V5.08461H93.0066V3.09714H97.7143V0.673392H90.0528V11.9842ZM109.607 8.9303C108.74 9.49584 107.724 9.75437 106.801 9.75437C104.475 9.75437 102.887 8.33244 102.887 6.32881C102.887 4.09896 104.512 2.90324 106.506 2.90324C107.724 2.90324 108.444 3.22641 109.146 3.59805L110.457 1.65905C109.681 0.996559 108.223 0.479492 106.506 0.479492C102.057 0.479492 99.7488 3.08098 99.7488 6.32881C99.7488 9.85132 102.518 12.1781 106.524 12.1781C108.278 12.1781 109.958 11.6287 110.733 10.8693L109.607 8.9303ZM111.292 3.09714H115.169V11.9842H118.123V3.09714H122V0.673392H111.292V3.09714Z" fill="#FF522C"/>
</svg>
