<svg width="121" height="48" viewBox="0 0 121 48" fill="none" xmlns="http://www.w3.org/2000/svg">
<path d="M88.1509 33.3014C87.405 33.1448 86.9339 32.4012 87.091 31.6576C87.248 30.914 87.9939 30.4443 88.7397 30.6009C89.4856 30.7574 89.9567 31.4619 89.7996 32.2055C89.6426 32.9883 88.8968 33.4579 88.1509 33.3014ZM88.5827 30.9531C87.9939 30.8357 87.4443 31.2271 87.3265 31.775C87.2087 32.3621 87.562 32.91 88.1509 33.0274C88.1509 33.0274 88.1509 33.0274 88.1901 33.0274C88.779 33.1448 89.3286 32.7926 89.4463 32.2055C89.5249 31.6576 89.1715 31.0705 88.5827 30.9531Z" fill="#64C7ED"/>
<path d="M13.9208 30.053V31.8924H4.57784V37.8413H13.489V39.6808H4.57784V47.7039H2.26172V30.053H13.9208Z" fill="white"/>
<path d="M16.708 43.6727C16.708 41.0113 18.4745 39.6807 22.0076 39.6807C23.146 39.6807 24.2845 39.7589 25.4229 39.9155V38.7022C25.4229 37.2933 24.2452 36.5888 21.8898 36.5888C20.4766 36.5888 19.1026 36.8236 17.7679 37.215V35.3364C19.1026 34.945 20.5159 34.7102 21.8898 34.7102C25.7762 34.7102 27.6998 36.08 27.6998 38.8588V47.7038H26.5221L25.5799 46.8037C24.3237 47.4299 22.9498 47.743 21.5758 47.7038C18.3568 47.7038 16.708 46.3731 16.708 43.6727ZM22.0076 41.5201C20.0055 41.5201 18.9849 42.2246 18.9849 43.6335C18.9849 45.1208 19.8485 45.8644 21.615 45.8644C23.1853 45.8644 24.4807 45.5121 25.4229 44.8468V41.7941C24.3237 41.5984 23.1853 41.5201 22.0076 41.5201Z" fill="white"/>
<path d="M31.4682 47.0776V45.1207C32.9207 45.6295 34.4517 45.8644 36.022 45.8252C38.1026 45.8252 39.1625 45.199 39.1625 43.9858C39.1625 42.8116 38.4559 42.2637 37.1211 42.2637H35.0013C32.2534 42.2637 30.8794 40.9722 30.8794 38.4283C30.8794 35.9626 32.6852 34.7102 36.336 34.7102C37.867 34.7102 39.398 34.9059 40.8505 35.3364V37.2933C39.398 36.7845 37.867 36.5497 36.336 36.5497C34.1377 36.5497 33.0777 37.1759 33.0777 38.3891C33.0777 39.5241 33.7058 40.1112 35.0013 40.1112H37.1211C40.0261 40.1112 41.4786 41.4027 41.4786 43.9466C41.4786 46.4123 39.6728 47.6647 36.0612 47.6647C34.491 47.743 32.96 47.5081 31.4682 47.0776Z" fill="white"/>
<path d="M44.5798 32.6357H46.0323L46.5426 34.71H49.5654V36.5495H46.8959V43.9856C46.8959 45.1988 47.4063 45.825 48.4662 45.825H49.5654V47.6645H47.8773C45.679 47.6645 44.5798 46.4904 44.5798 44.1813V32.6357Z" fill="white"/>
<path d="M56.2748 47.0776V44.9641C58.2376 45.6295 60.2789 45.9817 62.3202 45.9426C65.3822 45.9426 66.9132 44.8467 66.9132 42.6159C66.9132 40.7373 65.7748 39.798 63.5372 39.798H60.9855C57.2562 39.798 55.4111 38.1934 55.4111 34.9841C55.4111 31.5791 57.8058 29.8962 62.5558 29.8962C64.5186 29.8962 66.4814 30.1311 68.3657 30.6398V32.7533C66.4814 32.0879 64.5186 31.7357 62.5558 31.7748C59.3368 31.7748 57.688 32.8315 57.688 34.9841C57.688 36.8627 58.7872 37.802 60.9855 37.802H63.5372C67.345 37.802 69.2293 39.4066 69.2293 42.6159C69.2293 46.0991 66.9132 47.8212 62.3202 47.8212C60.2789 47.8603 58.2376 47.6255 56.2748 47.0776Z" fill="#64C7ED"/>
<path d="M72.3308 47.7039V30.053H74.6469V36.1584C75.9424 35.2191 77.5126 34.7495 79.0829 34.7495C82.1056 34.7495 83.5973 36.3541 83.5973 39.6025V47.7431H81.2812V39.5634C81.2812 37.6456 80.2998 36.6672 78.3763 36.6672C77.0415 36.6672 75.7854 37.2151 74.6077 38.311V47.7431L72.3308 47.7039Z" fill="#64C7ED"/>
<path d="M89.6426 34.7495V47.704H87.3657V34.7495H89.6426Z" fill="#64C7ED"/>
<path d="M93.4111 47.7038V34.7102H94.9814L95.3739 36.354C96.7479 35.3364 98.4359 34.7493 100.163 34.7102C103.186 34.7102 104.678 36.3148 104.678 39.5632V47.7038H102.362V39.5241C102.362 37.6064 101.38 36.6279 99.4566 36.6279C98.1219 36.6279 96.9049 37.1759 95.688 38.2717V47.7038H93.4111Z" fill="#64C7ED"/>
<path d="M118.928 41.8724H110.095C110.095 44.5338 111.783 45.8644 115.159 45.8644C116.337 45.8644 117.475 45.747 118.614 45.4731V47.3125C117.24 47.5865 115.827 47.7039 114.374 47.6647C109.977 47.6647 107.74 45.4339 107.74 41.0114C107.74 36.7846 109.82 34.6711 114.021 34.6711C118.025 34.6711 119.634 37.0585 118.889 41.8333L118.928 41.8724ZM110.095 39.9938H116.808C116.926 37.7239 115.866 36.5889 113.707 36.5889C111.548 36.5889 110.252 37.6847 110.095 39.9938Z" fill="#64C7ED"/>
<path d="M28.5999 11.585C29.4243 11.5459 30.1309 12.1721 30.1702 12.9939C30.2095 13.8158 29.5814 14.5203 28.757 14.5594C28.7177 14.5594 28.6392 14.5594 28.5999 14.5594L0.531738 13.0722L28.5999 11.585Z" fill="#64C7ED"/>
<path d="M31.1517 18.0034C31.819 18.0034 32.3686 18.5513 32.3686 19.2167C32.3686 19.882 31.819 20.4299 31.1517 20.4299L8.57935 19.1775L31.1517 18.0034Z" fill="#64C7ED"/>
<path d="M31.7405 7.20124C32.0938 7.1621 32.3686 7.43606 32.4079 7.7883C32.4471 8.14053 32.1724 8.4145 31.819 8.45363C31.7798 8.45363 31.7405 8.45363 31.7013 8.45363L20.0029 7.82744L31.7405 7.20124Z" fill="#64C7ED"/>
<path d="M51.0545 24.5391C48.228 23.9521 46.4615 21.1733 47.0503 18.3946C47.6392 15.6158 50.4264 13.8155 53.2136 14.4025C56.0008 14.9896 57.8065 17.7292 57.2177 20.508C56.6681 23.3259 53.9202 25.1262 51.0545 24.5391C51.0937 24.5391 51.0545 24.5391 51.0545 24.5391ZM52.664 15.6941C50.4656 15.2636 48.3458 16.6334 47.8747 18.8251C47.4036 21.0168 48.8169 23.1693 51.0152 23.639C53.2136 24.1086 55.3727 22.6997 55.8437 20.508C56.2755 18.3163 54.8623 16.1637 52.664 15.6941Z" fill="white"/>
<path d="M49.9552 10.7237C48.1101 10.3323 46.9324 8.53202 47.325 6.69256C47.7175 4.85311 49.5233 3.67899 51.3684 4.07036C53.2134 4.46173 54.3911 6.26205 53.9986 8.10151C53.606 9.90183 51.8002 11.1151 49.9552 10.7237ZM51.0151 4.93138C49.6018 4.65742 48.1886 5.55758 47.9138 7.00566C47.639 8.41461 48.5419 9.82356 49.9944 10.0975C51.4076 10.3715 52.8209 9.47132 53.0957 8.06237C53.3705 6.61429 52.4676 5.24448 51.0151 4.93138Z" fill="white"/>
<path d="M77.0422 18.9815C75.3149 18.5902 74.255 16.9073 74.6083 15.2244C74.9616 13.5414 76.6889 12.4456 78.3769 12.7978C80.0649 13.1501 81.1641 14.833 80.8108 16.5159C80.4967 18.2379 78.8087 19.3338 77.0422 18.9815C77.0815 18.9815 77.0815 18.9815 77.0422 18.9815ZM78.0236 13.5806C76.6889 13.3066 75.3934 14.1676 75.1186 15.4983C74.8438 16.829 75.7075 18.1205 77.0422 18.3945C78.3769 18.6684 79.6724 17.8074 79.9472 16.4767C80.222 15.1461 79.3583 13.8545 78.0236 13.5806Z" fill="white"/>
<path d="M37.7072 14.9115C35.8622 14.5202 34.6452 12.6807 35.0378 10.8413C35.4304 9.00181 37.2754 7.78855 39.1205 8.17992C40.9655 8.57129 42.1824 10.3716 41.7899 12.2502C41.3973 14.0897 39.5915 15.3029 37.7072 14.9115ZM38.7671 9.04094C37.3147 8.76698 35.9014 9.70628 35.6267 11.1152C35.3519 12.5242 36.294 13.9723 37.7072 14.2462C39.1205 14.5202 40.5729 13.5809 40.8477 12.1719C41.1225 10.7238 40.2196 9.3149 38.7671 9.04094Z" fill="white"/>
<path d="M43.3602 21.4082C42.1825 21.1734 41.3974 19.9992 41.6722 18.8251C41.9077 17.651 43.0854 16.8683 44.2631 17.1422C45.4408 17.377 46.1866 18.5512 45.9511 19.7253C45.7156 20.8994 44.5771 21.6822 43.3602 21.4082ZM44.0275 17.6901C43.0854 17.4945 42.2218 18.0815 42.0255 19.0208C41.8292 19.9601 42.418 20.8211 43.3602 21.0168C44.3023 21.2125 45.166 20.6254 45.3623 19.6861C45.5585 18.786 44.9697 17.8858 44.0275 17.6901Z" fill="white"/>
<path d="M37.0006 20.8211C36.2154 20.6646 35.7051 19.8818 35.8621 19.0991C36.0192 18.3163 36.8043 17.8075 37.5894 17.9641C38.3745 18.1206 38.8849 18.9034 38.7278 19.6861C38.5708 20.4689 37.7857 20.9777 37.0006 20.8211ZM37.4324 18.3163C36.8435 18.1989 36.2154 18.5903 36.0977 19.1773C35.9799 19.8035 36.3725 20.3906 37.0006 20.508C37.6287 20.6254 38.2175 20.2341 38.3353 19.6079C38.453 19.0208 38.0605 18.4337 37.4324 18.3163Z" fill="white"/>
<path d="M44.8913 16.0464C43.5566 15.7725 42.6929 14.481 42.9677 13.1111C43.2425 11.7805 44.538 10.9194 45.912 11.1934C47.2467 11.4674 48.1103 12.7589 47.8748 14.0896C47.6 15.4202 46.2653 16.3204 44.8913 16.0464C44.9305 16.0464 44.9305 16.0464 44.8913 16.0464ZM45.6764 11.8196C44.6165 11.6239 43.6351 12.2893 43.3996 13.3068C43.2033 14.3635 43.8706 15.342 44.8913 15.5768C45.9512 15.8116 46.9719 15.1071 47.1681 14.0896C47.3644 13.0329 46.6971 12.0153 45.6764 11.8196Z" fill="white"/>
<path d="M59.5731 6.18374C58.2383 5.90978 57.3354 4.57911 57.6495 3.24844C57.9635 1.91777 59.259 1.01761 60.5937 1.33071C61.9284 1.60467 62.7921 2.93534 62.5565 4.26601C62.2425 5.59668 60.947 6.4577 59.5731 6.18374ZM60.3582 1.91777C59.2983 1.68294 58.2383 2.34828 58.0421 3.40499C57.8065 4.4617 58.4739 5.51841 59.5338 5.71409C60.5937 5.94892 61.6536 5.28358 61.8499 4.22687V4.18774C62.0462 3.17016 61.3788 2.15259 60.3582 1.91777Z" fill="white"/>
<path d="M59.3374 15.4981C57.4139 15.1067 56.1577 13.189 56.5895 11.2713C56.9821 9.35352 58.9056 8.10113 60.8292 8.53164C62.7527 8.92301 63.9697 10.8016 63.5771 12.7585C63.1846 14.6371 61.3003 15.8895 59.3374 15.4981ZM60.4366 9.39266C58.9449 9.07956 57.4532 10.058 57.1784 11.5844C56.9036 13.1107 57.8457 14.5588 59.3767 14.8328C60.8684 15.1459 62.3209 14.1674 62.635 12.6802C62.9098 11.1538 61.9284 9.70576 60.4366 9.39266Z" fill="white"/>
<path d="M60.3191 19.4121C59.5732 19.2556 59.1022 18.5511 59.2592 17.8075C59.4162 17.0639 60.1228 16.5942 60.8687 16.7508C61.6146 16.9073 62.0856 17.6118 61.9286 18.3554C61.7716 19.099 61.065 19.5687 60.3191 19.4121ZM60.7117 17.0639C60.1228 16.9465 59.5732 17.3378 59.4555 17.8858C59.3377 18.4728 59.691 19.0208 60.2798 19.1382C60.2798 19.1382 60.2798 19.1382 60.3191 19.1382C60.9079 19.2556 61.4575 18.9033 61.5753 18.3163C61.6931 17.7684 61.3005 17.2204 60.7117 17.0639C60.7117 17.103 60.7117 17.103 60.7117 17.0639Z" fill="white"/>
<path d="M65.1866 9.90187C64.0482 9.66704 63.3023 8.53206 63.5379 7.39707C63.7734 6.26209 64.9118 5.51848 66.0503 5.7533C67.1887 5.98813 67.9345 7.12311 67.699 8.2581C67.4635 9.43222 66.325 10.1758 65.1866 9.90187ZM65.8147 6.34036C64.9118 6.14468 64.0482 6.73174 63.8519 7.6319C63.6556 8.53206 64.2445 9.39308 65.1474 9.58877C66.0502 9.78445 66.9139 9.19739 67.1102 8.29723C67.3064 7.39707 66.7176 6.49691 65.8147 6.34036Z" fill="white"/>
<path d="M68.4058 5.67483C66.8356 5.32259 65.8542 3.79623 66.2075 2.26988C66.5608 0.743519 68.0918 -0.274054 69.6228 0.0781829C71.1538 0.391282 72.1352 1.91764 71.8211 3.444C71.5071 5.00949 69.9761 6.02706 68.4058 5.67483ZM69.2695 0.782656C68.0525 0.547831 66.8748 1.29144 66.6 2.5047C66.3645 3.71796 67.1496 4.89208 68.3273 5.1269C69.505 5.44 70.7612 4.73553 71.0752 3.56141C71.3893 2.38729 70.6827 1.13489 69.505 0.821793C69.4657 0.821793 69.3872 0.782656 69.2695 0.782656Z" fill="white"/>
<path d="M64.7547 18.199C63.8125 18.0033 63.1844 17.064 63.3807 16.0856C63.577 15.1463 64.5191 14.5201 65.5005 14.7158C66.4427 14.9115 67.0708 15.8508 66.8745 16.7901C66.6782 17.7685 65.7361 18.3947 64.7547 18.199ZM65.3042 15.1854C64.5584 15.0289 63.8518 15.5377 63.6947 16.2813C63.5377 17.0249 64.048 17.7294 64.7939 17.8859C65.5398 18.0425 66.2464 17.5728 66.4034 16.8292C66.5605 16.0856 66.0894 15.3811 65.3435 15.1854H65.3042Z" fill="white"/>
<path d="M80.4967 9.1581C79.8293 9.00155 79.3975 8.37536 79.5545 7.71002C79.7115 7.04469 80.3396 6.61418 81.007 6.77072C81.6744 6.92727 82.1062 7.55347 81.9492 8.21881C81.8314 8.88414 81.2033 9.31465 80.4967 9.1581C80.5359 9.19724 80.4967 9.19724 80.4967 9.1581ZM80.8892 7.08382C80.3789 6.96641 79.8686 7.31865 79.7508 7.82743C79.633 8.33622 79.9863 8.84501 80.4967 8.96242C81.007 9.07983 81.5174 8.72759 81.6351 8.21881C81.7529 7.71002 81.3996 7.20124 80.8892 7.08382Z" fill="white"/>
<path d="M63.3025 21.7603C62.6352 21.6429 62.2426 20.9776 62.3604 20.3514C62.4781 19.686 63.1455 19.2555 63.8129 19.4121C64.4802 19.5295 64.912 20.1948 64.755 20.8602C64.6372 21.4864 63.9699 21.9169 63.3025 21.7603ZM63.6558 19.7252C63.1455 19.6078 62.6352 19.96 62.5566 20.4688C62.4389 20.9776 62.7922 21.4864 63.3025 21.5646C63.8129 21.682 64.2839 21.3298 64.4017 20.8602C64.5195 20.3122 64.1662 19.8035 63.6558 19.7252Z" fill="white"/>
<path d="M65.6185 13.7763C64.7941 13.5806 64.2445 12.7979 64.4408 11.9368C64.637 11.0758 65.4222 10.567 66.2858 10.7627C67.1102 10.9584 67.6598 11.7411 67.4635 12.6022C67.2672 13.4241 66.4428 13.972 65.6185 13.7763ZM66.0895 11.1541C65.4222 11.0367 64.7941 11.428 64.6763 12.0934C64.5585 12.7587 64.9511 13.3849 65.6185 13.5023C66.2466 13.6197 66.9139 13.2284 67.0317 12.563C67.1495 11.8977 66.7176 11.2715 66.0895 11.1541Z" fill="white"/>
<path d="M55.3726 5.12693C54.9015 5.00952 54.5875 4.53987 54.7053 4.07022C54.823 3.60057 55.2941 3.28748 55.7652 3.40489C56.2363 3.5223 56.5503 3.99195 56.4325 4.4616C56.354 4.93125 55.8829 5.24434 55.3726 5.12693ZM55.6474 3.60057C55.2548 3.5223 54.9015 3.79626 54.823 4.1485C54.7445 4.50073 54.9801 4.89211 55.3726 4.97038C55.7652 5.04866 56.1185 4.81383 56.197 4.42246C56.2755 4.03109 56.04 3.67885 55.6474 3.60057C55.6867 3.60057 55.6867 3.60057 55.6474 3.60057Z" fill="white"/>
<path d="M61.4964 8.06214C61.1431 7.98386 60.8683 7.63163 60.9468 7.27939C61.0254 6.92715 61.3787 6.65319 61.7712 6.73147C62.1245 6.80974 62.3993 7.16198 62.3208 7.55335C62.203 7.90559 61.8497 8.14041 61.4964 8.06214ZM61.6927 6.88802C61.4179 6.80974 61.1431 7.00543 61.0646 7.27939C61.0254 7.55335 61.1824 7.86645 61.4964 7.90559C61.7712 7.94473 62.0853 7.78818 62.1245 7.47508C62.1638 7.20111 61.9675 6.92715 61.6927 6.88802Z" fill="white"/>
<path d="M64.2052 3.0917C63.7341 3.01342 63.4201 2.54377 63.4986 2.07413C63.5771 1.60448 64.0482 1.29138 64.5193 1.36965H64.5585C65.0296 1.48707 65.3437 1.91758 65.2259 2.38723C65.1081 2.89601 64.637 3.16997 64.2052 3.0917ZM64.4408 1.60448C64.0874 1.5262 63.7341 1.76103 63.6556 2.11326C63.5771 2.4655 63.8126 2.81774 64.166 2.89601C64.5193 2.97429 64.8726 2.73946 64.9511 2.38723C65.0689 2.03499 64.8333 1.68275 64.4408 1.60448C64.48 1.60448 64.4408 1.60448 64.4408 1.60448Z" fill="white"/>
<path d="M71.5462 18.6685C70.6041 18.4728 70.0152 17.5727 70.2115 16.6334C70.4078 15.6941 71.3107 15.107 72.2528 15.3027C73.195 15.4984 73.7838 16.3986 73.5876 17.3379C73.3913 18.2772 72.4491 18.8642 71.5462 18.6685ZM72.0566 15.7724C71.3107 15.6158 70.6041 16.0855 70.4471 16.8291C70.29 17.5335 70.7611 18.238 71.4677 18.3946C71.4677 18.3946 71.4677 18.3946 71.507 18.3946C72.2136 18.5511 72.9202 18.0815 73.0772 17.377C73.2343 16.6334 72.7632 15.9289 72.0566 15.7724Z" fill="white"/>
<path d="M58.7486 21.5257C58.3168 21.4474 58.042 21.0952 58.1205 20.6647C58.1991 20.2342 58.5524 19.9602 58.9842 20.0385C59.0234 20.0385 59.0627 20.0385 59.0627 20.0776C59.4553 20.1559 59.7301 20.5473 59.6515 20.9778C59.5338 21.3691 59.1412 21.604 58.7486 21.5257ZM58.9449 20.2342C58.6309 20.1559 58.3168 20.3907 58.2383 20.7038C58.1598 21.0169 58.3561 21.33 58.6701 21.4083C58.9842 21.4866 59.2982 21.2909 59.416 20.9778C59.4945 20.6647 59.2982 20.3516 58.9842 20.2342C59.0234 20.2342 58.9842 20.2342 58.9449 20.2342Z" fill="white"/>
<path d="M57.8064 17.0639C57.4923 16.9856 57.296 16.6725 57.3353 16.3594C57.4138 16.0463 57.7279 15.8506 58.0419 15.8897C58.356 15.968 58.5522 16.242 58.513 16.5551C58.4737 16.9073 58.1597 17.1421 57.8064 17.0639ZM58.0027 16.0463C57.7671 16.0071 57.5316 16.1637 57.4531 16.3985C57.4138 16.6333 57.5708 16.8682 57.8064 16.9464C58.0419 16.9856 58.2774 16.829 58.356 16.5942C58.3952 16.3594 58.2774 16.1246 58.0027 16.0463Z" fill="white"/>
<path d="M63.3809 5.67498C63.1061 5.5967 62.9098 5.32274 62.9491 5.04878C62.9883 4.77482 63.2631 4.57913 63.5772 4.61827C63.852 4.69654 64.0483 4.9705 64.009 5.24447C63.9697 5.55756 63.695 5.75325 63.3809 5.67498ZM63.5379 4.77482C63.3024 4.73568 63.1061 4.85309 63.0276 5.08792C62.9884 5.32274 63.1061 5.51843 63.3417 5.5967C63.5772 5.63584 63.7735 5.51843 63.852 5.2836C63.9305 5.04878 63.7735 4.81395 63.5379 4.77482Z" fill="white"/>
<path d="M71.4678 6.536C71.3107 6.49686 71.2322 6.30117 71.2715 6.14462C71.3107 5.98808 71.4678 5.9098 71.5855 5.94894C71.7426 5.98808 71.8603 6.14463 71.8211 6.30117C71.8211 6.45772 71.664 6.57514 71.4678 6.536C71.507 6.536 71.4678 6.536 71.4678 6.536ZM71.5855 6.02721C71.4678 5.98808 71.35 6.10549 71.3107 6.2229C71.2715 6.34031 71.35 6.45772 71.4678 6.49686C71.5855 6.536 71.7033 6.45772 71.7426 6.30117C71.7818 6.18376 71.7033 6.02721 71.5855 6.02721Z" fill="white"/>
<path d="M77.1992 20.8604C77.0422 20.8212 76.9244 20.6647 76.9637 20.5082C77.0029 20.3516 77.1992 20.2733 77.3562 20.3125C77.474 20.3516 77.5918 20.469 77.5525 20.6256C77.5525 20.8212 77.3955 20.8995 77.1992 20.8604ZM77.317 20.3516C77.1992 20.3516 77.0814 20.3907 77.0422 20.5473C77.0029 20.6647 77.0814 20.7821 77.2385 20.8212C77.3955 20.8604 77.474 20.7821 77.5132 20.6256C77.5132 20.5082 77.4347 20.3907 77.317 20.3516Z" fill="white"/>
<path d="M68.2092 10.9977C68.0522 10.9586 67.9344 10.802 67.9737 10.6455C68.0129 10.4889 68.17 10.3715 68.327 10.4107C68.484 10.4498 68.6018 10.6063 68.5625 10.7629C68.5625 10.9194 68.4055 11.0369 68.2092 10.9977C68.2485 10.9977 68.2485 10.9977 68.2092 10.9977ZM68.327 10.4889C68.2092 10.4498 68.0914 10.5281 68.0522 10.6846C68.0129 10.802 68.0914 10.9194 68.2092 10.9586C68.327 10.9977 68.4447 10.9194 68.484 10.802C68.5233 10.6455 68.4447 10.5281 68.327 10.4889Z" fill="white"/>
<path d="M56.0793 14.8722C55.9223 14.8331 55.8045 14.6765 55.8438 14.52C55.883 14.3634 56.0401 14.246 56.1971 14.2852C56.3541 14.3243 56.4719 14.4809 56.4326 14.6374C56.3934 14.794 56.2363 14.9114 56.0793 14.8722ZM56.1578 14.3634C56.0401 14.3243 55.9223 14.4026 55.883 14.5591C55.8438 14.6765 55.9223 14.794 56.0793 14.8331C56.2363 14.8722 56.3149 14.794 56.3541 14.6374C56.3934 14.52 56.3149 14.3634 56.1578 14.3634Z" fill="white"/>
<path d="M68.5234 16.9858C68.3664 16.9466 68.2486 16.7901 68.2879 16.6335C68.3271 16.477 68.4842 16.3596 68.6412 16.3987C68.7982 16.4378 68.916 16.5944 68.8767 16.7509C68.8375 16.9075 68.6804 17.0249 68.5234 16.9858ZM68.6412 16.477C68.5234 16.4378 68.4056 16.5552 68.3664 16.6727C68.3271 16.7901 68.4056 16.9075 68.5234 16.9466C68.6412 16.9466 68.7589 16.9075 68.7982 16.7509C68.8375 16.6335 68.7589 16.5161 68.6412 16.477Z" fill="white"/>
<path d="M62.3601 16.4768C62.2031 16.4376 62.0853 16.2811 62.1246 16.1245C62.1246 15.968 62.2816 15.8506 62.4386 15.8506C62.5956 15.8506 62.7134 16.0071 62.7134 16.1637C62.7134 16.2028 62.7134 16.2028 62.7134 16.242C62.6741 16.3985 62.5171 16.5159 62.3601 16.4768ZM62.4386 15.968C62.3208 15.9289 62.2031 16.0071 62.1638 16.1637C62.1245 16.2811 62.2031 16.3985 62.3601 16.4376C62.5171 16.4768 62.5956 16.3985 62.6349 16.242C62.6349 16.1245 62.5564 15.968 62.4386 15.968Z" fill="white"/>
<path d="M47.0504 10.9975C46.8934 10.9975 46.7756 10.8409 46.7756 10.6844C46.7756 10.5278 46.9327 10.4104 47.0897 10.4104C47.1289 10.4104 47.1289 10.4104 47.1682 10.4104C47.3252 10.4495 47.4037 10.6452 47.3645 10.8018C47.3252 10.9192 47.1682 11.0366 47.0504 10.9975ZM47.1289 10.4887C47.0112 10.4495 46.8934 10.5278 46.8541 10.6844C46.8541 10.8018 46.8934 10.9192 47.0504 10.9583C47.1682 10.9583 47.286 10.9192 47.3252 10.7626C47.3252 10.6452 47.2467 10.5278 47.1289 10.4887Z" fill="white"/>
<path d="M37.2363 16.7117C37.0793 16.6726 36.9615 16.516 37.0008 16.3595C37.04 16.2029 37.2363 16.1246 37.3933 16.1638C37.5111 16.2029 37.6289 16.3203 37.5896 16.4769C37.5896 16.6334 37.4326 16.7508 37.2363 16.7117ZM37.3541 16.2029C37.2363 16.1638 37.1185 16.2421 37.0793 16.3986C37.04 16.516 37.1185 16.6334 37.2363 16.6726C37.3541 16.7117 37.4718 16.6334 37.5111 16.4769C37.5504 16.3595 37.4718 16.2421 37.3541 16.2029Z" fill="white"/>
<path d="M73.0771 5.714C72.7631 5.63572 72.5668 5.36176 72.6061 5.00952C72.6846 4.69642 72.9986 4.50074 73.3127 4.53987C73.6267 4.61815 73.823 4.89211 73.7837 5.20521C73.7052 5.59658 73.3912 5.79227 73.0771 5.714ZM73.2734 4.73556C73.0379 4.69642 72.8023 4.85297 72.7238 5.0878C72.6846 5.32262 72.8023 5.55745 73.0771 5.59658C73.0771 5.59658 73.0771 5.59658 73.1164 5.59658C73.3519 5.63572 73.6267 5.47917 73.666 5.24435C73.666 5.00952 73.5089 4.7747 73.2734 4.73556Z" fill="white"/>
<path d="M79.7898 11.663C79.4757 11.5847 79.2794 11.3107 79.3187 10.9976C79.3187 10.9976 79.3187 10.9976 79.3187 10.9585C79.3972 10.6454 79.7113 10.4497 80.0253 10.4888C80.3394 10.5671 80.5357 10.8411 80.4964 11.1933C80.4179 11.5064 80.1038 11.7021 79.7898 11.663ZM79.9468 10.6454C79.7113 10.6063 79.4757 10.7628 79.3972 10.9976C79.358 11.2325 79.515 11.4673 79.7505 11.5456C79.9861 11.5847 80.2609 11.4281 80.3001 11.1933C80.3786 10.9585 80.2216 10.7237 79.9468 10.6454C79.9861 10.6454 79.9861 10.6454 79.9468 10.6454Z" fill="white"/>
<path d="M71.7424 21.1732C71.4284 21.095 71.2321 20.821 71.2713 20.4688C71.3498 20.1557 71.6639 19.96 71.9779 19.9991C72.292 20.0774 72.4883 20.3513 72.449 20.6644C72.3705 21.0167 72.0565 21.2124 71.7424 21.1732ZM71.8994 20.1557C71.6639 20.1165 71.3891 20.2731 71.3498 20.5079C71.3106 20.7427 71.4284 20.9775 71.7032 21.0167C71.7032 21.0167 71.7032 21.0167 71.7424 21.0167C71.9779 21.0558 72.2135 20.8993 72.292 20.6644C72.3313 20.4688 72.1742 20.1948 71.8994 20.1557Z" fill="white"/>
<path d="M73.3911 8.64929C72.8023 8.53188 72.4097 7.98395 72.5275 7.35776V7.31862C72.6453 6.73156 73.2341 6.34019 73.8622 6.4576C74.451 6.57501 74.8436 7.16207 74.7258 7.78827C74.6081 8.41447 73.98 8.80584 73.3911 8.64929ZM73.7444 6.7707C73.2734 6.69242 72.8023 6.96638 72.7238 7.43603C72.6453 7.90568 72.92 8.37533 73.3911 8.4536C73.8622 8.57102 74.3333 8.25792 74.4118 7.78827C74.5296 7.35776 74.2548 6.88811 73.7444 6.7707Z" fill="white"/>
<path d="M69.7403 8.8841C69.23 8.80582 68.8766 8.29704 68.9944 7.78825C69.0729 7.27946 69.5833 6.92723 70.0936 7.04464C70.1328 7.04464 70.1328 7.04464 70.1721 7.04464C70.6824 7.16205 70.9965 7.6317 70.8787 8.14049C70.7217 8.68841 70.2506 9.00151 69.7403 8.8841ZM70.0151 7.27947C69.6225 7.20119 69.23 7.43601 69.1514 7.82739C69.0729 8.21876 69.3085 8.61014 69.701 8.68841C70.0936 8.76669 70.4861 8.53186 70.5647 8.14049C70.6432 7.74911 70.4076 7.39688 70.0151 7.27947Z" fill="white"/>
<path d="M74.4905 21.095C73.9802 21.0167 73.6661 20.5079 73.7446 19.9991C73.8624 19.4904 74.3335 19.1773 74.8438 19.2947C75.3542 19.4121 75.6682 19.8817 75.5504 20.3905C75.4719 20.8993 74.9616 21.2124 74.4905 21.095ZM74.7653 19.5295C74.3728 19.4512 73.9802 19.7252 73.9409 20.1166C73.8624 20.5079 74.1372 20.8993 74.5298 20.9384C74.9223 21.0167 75.3149 20.7428 75.3542 20.3514C75.4327 19.9991 75.1971 19.6078 74.7653 19.5295C74.8046 19.5295 74.8046 19.5295 74.7653 19.5295Z" fill="white"/>
<path d="M76.6888 11.8585C75.9037 11.7019 75.3933 10.9192 75.5504 10.1364C75.7074 9.35368 76.4925 8.84489 77.2776 9.00144C78.0628 9.15799 78.5731 9.94074 78.4161 10.7235C78.259 11.5062 77.4739 12.015 76.6888 11.8585ZM77.1206 9.35368C76.4925 9.23627 75.9037 9.62764 75.7859 10.2538C75.6681 10.88 76.0607 11.4671 76.6888 11.5845C77.3169 11.7019 77.9057 11.3105 78.0235 10.7235C78.0235 10.7235 78.0235 10.7235 78.0235 10.6844C78.1413 10.0582 77.7487 9.47109 77.1206 9.35368Z" fill="white"/>
<path d="M68.2877 15.3028C67.7381 15.1853 67.3456 14.6374 67.4633 14.0895C67.5811 13.5024 68.1307 13.1502 68.7196 13.2676C69.3084 13.385 69.6617 13.9329 69.5439 14.52C69.4262 15.0679 68.8766 15.4202 68.2877 15.3028ZM68.6018 13.5024C68.17 13.4242 67.7381 13.6981 67.6204 14.1286C67.5419 14.5591 67.8167 14.9897 68.2877 15.1071C68.7196 15.1853 69.1514 14.9114 69.2691 14.4417C69.3477 14.0112 69.0729 13.5807 68.6018 13.5024Z" fill="white"/>
<path d="M56.4719 8.72762C55.726 8.57107 55.2157 7.8666 55.3727 7.08385C55.5297 6.3011 56.2363 5.83145 57.0215 5.988C57.7673 6.14455 58.2777 6.84903 58.1206 7.63177C57.9244 8.41452 57.2177 8.88417 56.4719 8.72762C56.4326 8.72762 56.4326 8.72762 56.4719 8.72762ZM56.8644 6.37938C56.2756 6.26196 55.726 6.6142 55.6082 7.20126C55.4905 7.78832 55.8438 8.33625 56.4326 8.45366C57.0215 8.57107 57.5711 8.21883 57.6888 7.63177C57.8458 7.08385 57.4533 6.49679 56.8644 6.37938Z" fill="white"/>
<path d="M53.8809 13.7762C53.0566 13.6197 52.507 12.7978 52.664 11.9759C52.664 11.9759 52.664 11.9759 52.664 11.9368C52.8603 11.1149 53.6847 10.5669 54.509 10.7235C55.3334 10.88 55.883 11.7019 55.726 12.5629C55.5297 13.3848 54.7053 13.9328 53.8809 13.7762ZM54.3913 11.1149C53.7239 10.9975 53.0958 11.428 52.9781 12.0933C52.8603 12.7586 53.2921 13.3848 53.9595 13.5022C54.5876 13.6197 55.2157 13.1891 55.3727 12.5629C55.4512 11.8976 55.0194 11.2714 54.3913 11.1149Z" fill="white"/>
<path d="M39.9056 18.1208C39.2382 17.9642 38.8064 17.338 38.9634 16.6727C39.1205 16.0073 39.7486 15.5768 40.4159 15.7334C41.0833 15.8899 41.5151 16.5161 41.3581 17.1815C41.2403 17.8468 40.573 18.2773 39.9056 18.1208ZM40.2982 16.0465C39.7878 15.9291 39.2775 16.2813 39.1597 16.7901C39.042 17.2989 39.3953 17.8077 39.9056 17.9251C40.4159 18.0425 40.9263 17.6902 41.044 17.1815C41.1226 16.6335 40.7692 16.1639 40.2982 16.0465Z" fill="white"/>
<path d="M49.5626 13.7763C49.0916 13.6981 48.7775 13.2284 48.856 12.7196C48.9345 12.25 49.4056 11.9369 49.9159 12.0152C50.387 12.0934 50.701 12.5631 50.6225 13.0719C50.5048 13.5807 50.073 13.8938 49.5626 13.7763ZM49.8374 12.25C49.4449 12.1717 49.0916 12.4065 49.013 12.7979C48.9345 13.1893 49.1701 13.5415 49.5626 13.6198C49.9552 13.6981 50.3085 13.4632 50.387 13.0719C50.4655 12.7196 50.23 12.3283 49.8374 12.25Z" fill="white"/>
<path d="M44.1846 10.1366C43.5172 9.98004 43.1247 9.35385 43.2424 8.68851C43.3995 8.02318 44.0276 7.6318 44.6949 7.74921C45.3623 7.90576 45.7548 8.53196 45.6371 9.1973C45.48 9.82349 44.8519 10.254 44.1846 10.1366ZM44.5771 8.06231C44.0668 7.9449 43.5565 8.29714 43.478 8.80592C43.3995 9.31471 43.7135 9.82349 44.2238 9.90177C44.7342 9.98004 45.2445 9.66694 45.323 9.15816C45.4015 8.64937 45.0482 8.14059 44.5771 8.06231C44.5379 8.06231 44.5379 8.06231 44.5771 8.06231Z" fill="white"/>
<path d="M74.2156 3.71808C73.5482 3.60067 73.1164 2.93534 73.2342 2.27C73.2342 2.27 73.2342 2.27 73.2342 2.23086C73.3912 1.56553 74.0586 1.13502 74.7259 1.25243C75.3933 1.40898 75.8644 2.07431 75.7073 2.73965C75.5503 3.40498 74.8829 3.83549 74.2156 3.71808ZM74.6082 1.56553C74.0978 1.48725 73.5875 1.83949 73.4697 2.34827C73.3519 2.85706 73.7445 3.36585 74.2548 3.48326C74.7652 3.56153 75.2755 3.24843 75.3933 2.73965C75.511 2.19173 75.1577 1.68294 74.6082 1.56553Z" fill="white"/>
<path d="M76.8848 7.94491C75.7856 7.71009 75.1183 6.65338 75.3538 5.55753C75.5894 4.46168 76.6493 3.79635 77.7485 4.03117C78.8476 4.266 79.515 5.32271 79.3187 6.41855C79.0439 7.47526 77.984 8.17973 76.8848 7.94491ZM77.4737 4.50082C76.61 4.34427 75.7856 4.8922 75.6286 5.71408C75.4716 6.5751 76.0212 7.39699 76.8456 7.55354C77.7092 7.71009 78.5336 7.16216 78.6906 6.34028C78.8869 5.51839 78.3373 4.69651 77.4737 4.50082C77.5129 4.50082 77.5129 4.50082 77.4737 4.50082Z" fill="white"/>
<path d="M71.5462 14.1677C70.1722 13.8546 69.3086 12.5239 69.5834 11.1541C69.8974 9.7843 71.2321 8.92328 72.6061 9.19724C73.9801 9.51034 74.8437 10.841 74.5689 12.2108C74.2941 13.5415 72.9594 14.4416 71.5462 14.1677ZM72.3313 9.82344C71.2714 9.62775 70.2507 10.2931 70.0152 11.3498C69.8189 12.4065 70.4863 13.4241 71.5462 13.6589C72.6061 13.8546 73.6268 13.1893 73.8623 12.1325C74.0586 11.0758 73.3912 10.0583 72.3313 9.82344Z" fill="white"/>
<path d="M67.7777 22.2693C66.6393 22.0345 65.8934 20.8995 66.1289 19.7645C66.3645 18.6295 67.5029 17.8859 68.6413 18.1207C69.7797 18.3556 70.5256 19.4905 70.2901 20.6255C70.0938 21.7605 68.9554 22.5041 67.7777 22.2693ZM68.445 18.6687C67.5421 18.473 66.6785 19.06 66.4822 19.9602C66.2859 20.8604 66.8748 21.7214 67.7777 21.9171C68.6806 22.1128 69.5442 21.5257 69.7405 20.6255C69.9368 19.7254 69.3872 18.8643 68.4843 18.6687H68.445Z" fill="white"/>
<path d="M116.534 13.2676L116.612 12.8762L113.59 9.19727L116.102 13.1893L116.141 13.2284L116.534 13.2676Z" fill="white"/>
<path d="M116.495 13.5415H116.455C116.455 13.5806 116.495 13.5806 116.495 13.6198V13.5415Z" fill="white"/>
<path d="M117.162 13.6197L116.769 13.5806L116.691 13.9328L116.73 14.0111L119.714 17.6117L117.162 13.6197Z" fill="white"/>
<path d="M117.201 13.3849L120.891 10.3713L116.848 12.9153L116.809 13.3066L117.201 13.3849Z" fill="white"/>
<path d="M117.162 13.6198L119.007 13.8155L117.201 13.385L117.083 13.4633L117.162 13.6198Z" fill="white"/>
<path d="M116.848 12.9154L117.044 11.0759L116.612 12.8762L116.73 12.9937L116.848 12.9154Z" fill="white"/>
<path d="M116.141 13.2286C116.259 13.3069 116.337 13.4243 116.416 13.5417H116.455V13.62C116.534 13.7374 116.612 13.8157 116.651 13.9331L116.73 13.5809L117.123 13.62L117.044 13.5026L117.162 13.4243L116.769 13.346L116.808 12.9547L116.691 13.0329L116.612 12.9155L116.534 13.3069L116.141 13.2286Z" fill="white"/>
<path d="M115.749 13.7371L116.102 13.4632L115.003 13.1892C115.278 13.3458 115.513 13.5023 115.749 13.7371Z" fill="white"/>
<path d="M116.259 15.7332L116.455 13.8938L112.412 16.4377L114.846 14.4808C110.527 14.8722 109.075 10.8802 109.075 10.8802C109.075 10.8802 112.883 12.0935 114.846 13.111L116.18 13.2284V13.1893C111.744 9.04074 87.4448 7.123 87.4448 7.123L74.6865 0C74.6865 0 87.3663 7.71006 82.3415 10.528C80.3002 11.7021 84.0295 12.6805 82.6555 17.2204C81.2423 21.9169 75.4716 22.4257 75.4716 22.4257C75.4716 22.4257 91.1349 21.8387 96.3167 22.1909C96.8663 22.2692 97.4159 22.3866 97.9655 22.5431C97.4551 21.6821 97.1803 20.6645 97.1803 19.647C97.2589 16.3594 100.007 13.7372 103.344 13.8155C106.523 13.8938 109.114 16.4768 109.193 19.647C109.193 20.6254 108.918 21.6038 108.447 22.504C108.682 22.4257 109.271 22.3083 109.507 22.2692C110.292 22.1518 111.901 22.5431 112.53 22.5431C113.746 22.6214 116.848 22.4649 116.848 22.4649C116.494 21.9952 116.22 21.4864 115.945 20.9385C115.827 20.234 115.827 19.4904 115.945 18.7859C116.063 18.3163 116.73 17.4553 116.848 16.9856C116.887 16.6334 116.887 16.3203 116.848 15.9681V14.4417C116.848 14.3243 116.808 14.1677 116.769 14.0503L116.73 14.0112L116.259 15.7332Z" fill="white"/>
<path d="M116.416 13.5023L116.063 13.4241L115.71 13.698C116.063 14.0503 115.906 14.3634 114.807 14.4416H114.767L112.333 16.3985L116.377 13.8937L116.416 13.5806C116.455 13.5806 116.455 13.5415 116.416 13.5023Z" fill="white"/>
<path d="M116.691 13.9718L116.731 14.011L116.691 13.8936V13.9718Z" fill="white"/>
<path d="M116.455 13.933L116.259 15.7333L116.691 13.9721L116.573 13.8547L116.455 13.933Z" fill="white"/>
<path d="M116.102 13.4633L116.22 13.3459L116.141 13.2285L114.807 13.1111C114.885 13.1502 114.924 13.1894 115.003 13.2285L116.102 13.4633Z" fill="white"/>
<path d="M116.455 13.933L116.573 13.8547L116.691 13.9721V13.933C116.652 13.8156 116.573 13.6981 116.495 13.6199L116.455 13.933Z" fill="white"/>
<path d="M116.102 13.4633L116.455 13.5416C116.377 13.4242 116.259 13.3459 116.181 13.2285L116.259 13.3459L116.102 13.4633Z" fill="white"/>
<path d="M103.147 14.5984C100.36 14.5984 98.1226 16.8684 98.1226 19.6471C98.1226 22.4259 100.399 24.6567 103.187 24.6567C105.974 24.6567 108.211 22.3867 108.211 19.6471C108.211 16.8684 105.935 14.5984 103.147 14.5984ZM103.147 23.7174C100.87 23.7174 99.0647 21.8779 99.0647 19.608C99.0647 17.338 100.91 15.5377 103.187 15.5377C105.424 15.5377 107.269 17.3771 107.269 19.608C107.269 21.8779 105.424 23.7174 103.147 23.7174Z" fill="white"/>
</svg>
