<svg width="43" height="43" viewBox="0 0 43 43" fill="none" xmlns="http://www.w3.org/2000/svg">
<path d="M0.75 21.5C0.75 10.0401 10.0401 0.75 21.5 0.75C32.9599 0.75 42.25 10.0401 42.25 21.5C42.25 32.9599 32.9599 42.25 21.5 42.25C10.0401 42.25 0.75 32.9599 0.75 21.5Z" stroke="white" stroke-width="1.5"/>
<path d="M17.951 19.8891V11H16.2719V14.6961H11.6856V11H10V19.8891H11.6856V16.0329H16.2719V19.8891H17.951Z" fill="white"/>
<path d="M22.2107 20C23.145 20 23.929 19.6181 24.3275 18.9651H24.4385V19.8891H26V15.2875C26 13.8645 24.9677 13.0267 23.1319 13.0267C21.4332 13.0267 20.2507 13.7782 20.12 14.9548H21.6488C21.7991 14.4928 22.3087 14.2402 23.0535 14.2402C23.929 14.2402 24.3993 14.616 24.3993 15.2875V15.8665L22.557 15.9713C20.8191 16.0637 19.8457 16.7721 19.8457 17.9795C19.8457 19.2115 20.8322 20 22.2107 20ZM22.6876 18.8234C21.969 18.8234 21.4528 18.4846 21.4528 17.9055C21.4528 17.345 21.8775 17.0308 22.7856 16.9754L24.3993 16.8706V17.4189C24.3993 18.2197 23.6676 18.8234 22.6876 18.8234Z" fill="white"/>
<path d="M16.2385 31.8885V25.1207H14.5731V27.9009C14.3045 28.161 13.7807 28.3406 13.0488 28.3406C12.1355 28.3406 11.6654 27.8514 11.6654 27.0155V25.1207H10V27.1455C10 28.6502 10.9872 29.6223 12.7331 29.6223C13.4853 29.6223 14.0695 29.4551 14.459 29.1827H14.5731V31.8885H16.2385Z" fill="white"/>
<path d="M20.4356 32C21.3959 32 22.2018 31.6161 22.6114 30.9598H22.7255V31.8885H24.3305V27.2632C24.3305 25.8328 23.2695 24.9907 21.3825 24.9907C19.6365 24.9907 18.421 25.7461 18.2867 26.9288H19.8581C20.0126 26.4644 20.5364 26.2105 21.3019 26.2105C22.2018 26.2105 22.6853 26.5882 22.6853 27.2632V27.8452L20.7915 27.9505C19.0053 28.0433 18.0047 28.7554 18.0047 29.969C18.0047 31.2074 19.0187 32 20.4356 32ZM20.9258 30.8173C20.1872 30.8173 19.6566 30.4768 19.6566 29.8947C19.6566 29.3313 20.0931 29.0155 21.0266 28.9598L22.6853 28.8545V29.4056C22.6853 30.2105 21.9331 30.8173 20.9258 30.8173Z" fill="white"/>
<path d="M27.2785 22C27.2785 23.2198 28.259 24.1115 29.7431 24.1115C31.2272 24.1115 32.2076 23.2198 32.2076 22H30.8914C30.8847 22.6625 30.4482 23.2074 29.7431 23.2074C29.0447 23.2074 28.6015 22.6625 28.5947 22H27.2785ZM28.1112 31.8885L31.2406 27.3313H31.3547V31.8885H33V25.1207H31.3547L28.2254 29.6533H28.1112V25.1207H26.466V31.8885H28.1112Z" fill="white"/>
</svg>
