<svg width="82" height="53" viewBox="0 0 82 53" fill="none" xmlns="http://www.w3.org/2000/svg">
<path d="M21.8083 7.04979C21.8083 3.51469 24.6741 0.648926 28.2092 0.648926H46.8117C50.3468 0.648926 53.2126 3.51469 53.2126 7.04979V25.6523C53.2126 29.1874 50.3468 32.0532 46.8117 32.0532H28.2092C24.6741 32.0532 21.8083 29.1874 21.8083 25.6523V7.04979Z" fill="#FEC200"/>
<path d="M43.9512 9.75835L40.2135 18.1739C39.9424 18.7843 40.2062 19.4965 40.8013 19.7608L45.5517 21.8706C46.1468 22.1349 46.8521 21.8531 47.1231 21.2428L50.8608 12.8272C51.1319 12.2169 50.8681 11.5047 50.273 11.2404L45.5226 9.13057C44.9275 8.86624 44.2222 9.148 43.9512 9.75835ZM50.0763 11.6833C50.4334 11.8419 50.5916 12.2691 50.429 12.6354L46.6913 21.051C46.5286 21.4173 46.1056 21.5863 45.7484 21.4277L40.998 19.3178C40.6409 19.1592 40.4827 18.7321 40.6453 18.3658L44.383 9.95018C44.5457 9.58387 44.9687 9.41487 45.3259 9.57349L50.0763 11.6833Z" fill="black"/>
<path d="M44.0608 9.16384C44.2455 8.76242 44.7207 8.58678 45.1221 8.77152L50.932 11.4454C51.3334 11.6301 51.509 12.1053 51.3243 12.5067L47.0182 21.8631C46.8335 22.2645 46.3583 22.4402 45.9569 22.2554L40.147 19.5816C39.7456 19.3968 39.5699 18.9217 39.7547 18.5202L44.0608 9.16384Z" fill="#FEC200"/>
<path fill-rule="evenodd" clip-rule="evenodd" d="M50.5974 12.1722L44.7876 9.49835L40.4815 18.8548L46.2914 21.5286L50.5974 12.1722ZM45.1221 8.77152C44.7207 8.58678 44.2455 8.76242 44.0608 9.16384L39.7547 18.5202C39.5699 18.9217 39.7456 19.3968 40.147 19.5816L45.9569 22.2554C46.3583 22.4402 46.8335 22.2645 47.0182 21.8631L51.3243 12.5067C51.509 12.1053 51.3334 11.6301 50.932 11.4454L45.1221 8.77152Z" fill="black"/>
<path d="M45.9086 16.9918L44.7282 19.6494C44.674 19.7716 44.7266 19.9138 44.8458 19.9668C44.965 20.0197 45.1058 19.9634 45.1601 19.8412L46.3404 17.1836C46.3947 17.0614 46.342 16.9192 46.2228 16.8663C46.1037 16.8133 45.9629 16.8696 45.9086 16.9918Z" fill="black"/>
<path d="M46.7726 17.3754L45.5923 20.0329C45.538 20.1552 45.5906 20.2974 45.7098 20.3503C45.829 20.4032 45.9698 20.347 46.0241 20.2247L47.2044 17.5672C47.2587 17.4449 47.2061 17.3027 47.0869 17.2498C46.9677 17.1969 46.8269 17.2531 46.7726 17.3754Z" fill="black"/>
<path d="M47.4442 12.3705L47.2475 12.8134C47.0848 13.1797 47.243 13.6069 47.6002 13.7655L48.032 13.9573C48.3892 14.1159 48.8122 13.9469 48.9749 13.5806L49.1716 13.1377C49.3343 12.7714 49.176 12.3442 48.8189 12.1856L48.387 11.9938C48.0299 11.8352 47.6069 12.0042 47.4442 12.3705ZM48.6222 12.6285C48.7414 12.6815 48.7941 12.8236 48.7398 12.9459L48.543 13.3888C48.4888 13.5111 48.3479 13.5673 48.2288 13.5144L47.7969 13.3226C47.6777 13.2696 47.625 13.1275 47.6793 13.0052L47.8761 12.5623C47.9304 12.44 48.0712 12.3838 48.1904 12.4367L48.6222 12.6285Z" fill="black"/>
<path fill-rule="evenodd" clip-rule="evenodd" d="M43.1459 9.31814C42.7127 9.04194 42.1358 8.8501 41.6779 8.8501H37.6491H37.6481H36.7238H33.6184C33.0231 8.8501 32.2265 9.17482 31.8058 9.58755L29.7377 11.566C29.7269 11.1699 29.6312 10.6094 28.8075 10.6094C28.0179 10.6094 27.0943 10.8438 27.0943 11.5044C27.0943 12.0714 27.8106 12.624 28.4755 12.7736L27.6738 13.5412C27.6617 13.5525 27.6522 13.5638 27.6425 13.5753C27.6375 13.5812 27.6325 13.5871 27.6271 13.593C26.7693 14.3203 26.209 15.6692 26.209 16.648V19.5566C26.209 20.2625 26.4896 20.9032 26.943 21.3808V22.5087C26.943 23.1683 27.4996 23.7061 28.1842 23.7061H29.6849C30.3694 23.7061 30.9256 23.1693 30.9256 22.5087V22.2201H37.2479L37.8304 20.9458H37.6491H37.6481H34.1479C33.4181 20.9458 32.8256 20.358 32.8256 19.6344H37.6481H37.6491H38.4299L38.839 18.7395H37.6491H37.6481H33.8407C33.0469 18.7395 32.4025 17.7685 32.4025 16.5711H37.6481H37.6491H39.8303L41.4286 13.0747H39.6124H37.6491H37.6481H29.8535L32.5655 10.4667C32.8564 10.2263 33.3649 10.0438 33.6184 10.0438H37.6481H37.6491H41.6788C41.9098 10.0438 42.3526 10.1954 42.6495 10.4042L43.1459 9.31814ZM28.4022 14.9105C27.7046 14.9105 27.1396 15.4918 27.1396 16.2079C27.1396 16.9246 27.7046 17.5036 28.4022 17.5036C28.4953 17.5036 28.6165 17.5065 28.7567 17.51C29.6669 17.5321 31.3776 17.5738 31.3776 16.9533C31.3776 16.2371 29.0994 14.9105 28.4022 14.9105ZM30.6856 20.9449H30.926L32.0238 20.9439L30.4007 19.0957H27.9661C27.9661 19.0957 27.5995 19.5529 27.777 20.0504C27.8055 20.1301 27.8494 20.2097 27.9096 20.2908C27.9694 20.3709 28.0459 20.4515 28.1459 20.5289C28.3434 20.6822 28.6226 20.8249 29.0186 20.9472L30.4451 20.9449H30.6856Z" fill="black"/>
<path d="M36.1778 8.53781H35.4438C35.3151 8.53781 35.2107 8.43344 35.2107 8.30473V7.57073C35.2107 7.44202 35.3151 7.33765 35.4438 7.33765H36.4109V8.30473C36.4109 8.43344 36.3065 8.53781 36.1778 8.53781Z" fill="#0C1123"/>
<path d="M38.354 8.53781H37.62C37.4913 8.53781 37.387 8.43344 37.387 8.30473V7.33765H38.5871V8.30473C38.5872 8.43344 38.4828 8.53781 38.354 8.53781Z" fill="#0C1123"/>
<path d="M40.5306 8.53781H39.7966C39.6678 8.53781 39.5635 8.43344 39.5635 8.30473V7.33765H40.5306C40.6593 7.33765 40.7636 7.44202 40.7636 7.57073V8.30473C40.7636 8.43344 40.6593 8.53781 40.5306 8.53781Z" fill="#0C1123"/>
<path d="M37.499 7.44943H36.2988V6.48234C36.2988 6.35364 36.4032 6.24927 36.5319 6.24927H37.2659C37.3946 6.24927 37.499 6.35364 37.499 6.48234V7.44943Z" fill="#0C1123"/>
<path d="M39.6753 7.44943H38.4751V6.48234C38.4751 6.35364 38.5795 6.24927 38.7082 6.24927H39.4422C39.5709 6.24927 39.6753 6.35364 39.6753 6.48234V7.44943Z" fill="#0C1123"/>
<path fill-rule="evenodd" clip-rule="evenodd" d="M46.412 10.2503L42.0114 20.0516L41.2815 19.7239L45.6821 9.92255L46.412 10.2503Z" fill="black"/>
<path d="M42.6603 22.0984C42.7565 21.8995 42.9957 21.8162 43.1946 21.9124C43.3936 22.0086 43.4768 22.2478 43.3807 22.4467L42.8583 23.5272C42.7621 23.7261 42.5229 23.8094 42.324 23.7133C42.125 23.6171 42.0418 23.3779 42.1379 23.1789L42.6603 22.0984Z" fill="black"/>
<path d="M40.7038 21.3682C40.8 21.1693 41.0392 21.086 41.2381 21.1822C41.437 21.2784 41.5203 21.5176 41.4241 21.7165L40.2713 24.1009C40.1751 24.2998 39.9359 24.3831 39.737 24.2869C39.5381 24.1907 39.4548 23.9515 39.551 23.7526L40.7038 21.3682Z" fill="black"/>
<path d="M40.7382 21.4117C40.8344 21.2128 41.0736 21.1295 41.2725 21.2257C41.4714 21.3218 41.5547 21.561 41.4585 21.76L40.3057 24.1443C40.2096 24.3433 39.9703 24.4265 39.7714 24.3304C39.5725 24.2342 39.4892 23.995 39.5854 23.7961L40.7382 21.4117Z" fill="black"/>
<path d="M38.8354 20.6119C38.9316 20.413 39.1708 20.3297 39.3697 20.4258C39.5686 20.522 39.6519 20.7612 39.5557 20.9601L37.5049 25.2019C37.4087 25.4008 37.1695 25.4841 36.9706 25.388C36.7716 25.2918 36.6884 25.0526 36.7845 24.8537L38.8354 20.6119Z" fill="black"/>
<path d="M2.06228 45.8921H2.90525L6.15673 41.6467H8.50502L4.66647 46.6336L8.85124 51.9694H6.53306L3.10094 47.695H2.06228V51.9694H0V41.6467H2.06228V45.8921Z" fill="white"/>
<path d="M12.0473 52.1148C11.666 52.1148 11.3097 52.0567 10.9785 51.9403C10.6474 51.8143 10.3614 51.6447 10.1205 51.4315C9.87967 51.2085 9.689 50.9517 9.5485 50.6609C9.41804 50.3701 9.35281 50.0503 9.35281 49.7013C9.35281 49.3427 9.4331 49.0132 9.59366 48.7127C9.76427 48.4025 9.99508 48.1408 10.2861 47.9276C10.5872 47.7143 10.9434 47.5496 11.3549 47.4333C11.7663 47.3072 12.2179 47.2442 12.7097 47.2442C13.0609 47.2442 13.4021 47.2733 13.7333 47.3315C14.0745 47.3896 14.3755 47.472 14.6365 47.5786V47.1425C14.6365 46.6385 14.4859 46.2507 14.1849 45.9794C13.8938 45.708 13.4573 45.5723 12.8752 45.5723C12.4538 45.5723 12.0423 45.645 11.6409 45.7903C11.2395 45.9357 10.828 46.149 10.4065 46.4301L9.78935 45.1942C10.8029 44.5448 11.8968 44.2201 13.0709 44.2201C14.2049 44.2201 15.083 44.4915 15.7052 45.0343C16.3375 45.5674 16.6536 46.3428 16.6536 47.3606V49.7304C16.6536 49.934 16.6887 50.0794 16.759 50.1666C16.8392 50.2538 16.9647 50.3023 17.1353 50.312V51.9694C16.7941 52.0373 16.498 52.0712 16.2471 52.0712C15.8658 52.0712 15.5698 51.9888 15.359 51.824C15.1583 51.6593 15.0329 51.4412 14.9827 51.1698L14.9375 50.7481C14.5863 51.194 14.1598 51.5333 13.658 51.7659C13.1562 51.9985 12.6193 52.1148 12.0473 52.1148ZM12.6193 50.69C12.9605 50.69 13.2817 50.6318 13.5827 50.5155C13.8938 50.3992 14.1347 50.2441 14.3053 50.0503C14.5261 49.8855 14.6365 49.7013 14.6365 49.4978V48.6255C14.3956 48.5382 14.1347 48.4704 13.8537 48.4219C13.5727 48.3637 13.3017 48.3347 13.0408 48.3347C12.519 48.3347 12.0925 48.451 11.7613 48.6836C11.4301 48.9065 11.2646 49.1925 11.2646 49.5414C11.2646 49.871 11.395 50.1472 11.6559 50.3701C11.9169 50.5834 12.238 50.69 12.6193 50.69Z" fill="white"/>
<path d="M18.3722 48.1602C18.3722 47.6271 18.4676 47.1231 18.6582 46.6481C18.8489 46.1732 19.1249 45.7564 19.4862 45.3978C19.8474 45.0392 20.284 44.7532 20.7958 44.54C21.3076 44.3268 21.8846 44.2201 22.5269 44.2201C23.3899 44.2201 24.1225 44.3994 24.7246 44.7581C25.3368 45.1167 25.7934 45.5868 26.0945 46.1684L24.1225 46.7499C23.9519 46.4688 23.7261 46.2556 23.4451 46.1102C23.1641 45.9551 22.853 45.8776 22.5118 45.8776C22.2208 45.8776 21.9499 45.9357 21.699 46.052C21.4481 46.1587 21.2273 46.3137 21.0366 46.5173C20.856 46.7111 20.7105 46.9486 20.6001 47.2297C20.4997 47.5108 20.4496 47.821 20.4496 48.1602C20.4496 48.4994 20.5047 48.8096 20.6151 49.0907C20.7255 49.3718 20.871 49.6141 21.0517 49.8177C21.2424 50.0212 21.4631 50.1811 21.714 50.2974C21.9649 50.4041 22.2308 50.4574 22.5118 50.4574C22.8731 50.4574 23.2043 50.3701 23.5053 50.1957C23.8164 50.0212 24.0322 49.808 24.1526 49.5559L26.1246 50.1375C25.8536 50.7191 25.4071 51.194 24.7849 51.5623C24.1627 51.9307 23.415 52.1148 22.5419 52.1148C21.8997 52.1148 21.3226 52.0082 20.8108 51.795C20.299 51.5817 19.8625 51.2958 19.5012 50.9372C19.1399 50.5688 18.8589 50.1472 18.6582 49.6723C18.4676 49.1876 18.3722 48.6836 18.3722 48.1602Z" fill="white"/>
<path d="M27.0819 48.1602C27.0819 47.6271 27.1772 47.1231 27.3679 46.6481C27.5585 46.1732 27.8345 45.7564 28.1958 45.3978C28.5571 45.0392 28.9936 44.7532 29.5054 44.54C30.0172 44.3268 30.5943 44.2201 31.2365 44.2201C32.0996 44.2201 32.8322 44.3994 33.4343 44.7581C34.0464 45.1167 34.5031 45.5868 34.8041 46.1684L32.8322 46.7499C32.6616 46.4688 32.4358 46.2556 32.1548 46.1102C31.8738 45.9551 31.5627 45.8776 31.2215 45.8776C30.9305 45.8776 30.6595 45.9357 30.4086 46.052C30.1577 46.1587 29.9369 46.3137 29.7463 46.5173C29.5656 46.7111 29.4201 46.9486 29.3097 47.2297C29.2094 47.5108 29.1592 47.821 29.1592 48.1602C29.1592 48.4994 29.2144 48.8096 29.3248 49.0907C29.4352 49.3718 29.5807 49.6141 29.7613 49.8177C29.952 50.0212 30.1728 50.1811 30.4237 50.2974C30.6745 50.4041 30.9405 50.4574 31.2215 50.4574C31.5828 50.4574 31.9139 50.3701 32.215 50.1957C32.5261 50.0212 32.7418 49.808 32.8623 49.5559L34.8342 50.1375C34.5633 50.7191 34.1167 51.194 33.4945 51.5623C32.8723 51.9307 32.1247 52.1148 31.2516 52.1148C30.6093 52.1148 30.0323 52.0082 29.5205 51.795C29.0087 51.5817 28.5721 51.2958 28.2109 50.9372C27.8496 50.5688 27.5686 50.1472 27.3679 49.6723C27.1772 49.1876 27.0819 48.6836 27.0819 48.1602Z" fill="white"/>
<path d="M38.5291 52.1148C38.1477 52.1148 37.7915 52.0567 37.4603 51.9403C37.1291 51.8143 36.8431 51.6447 36.6023 51.4315C36.3614 51.2085 36.1707 50.9517 36.0302 50.6609C35.8998 50.3701 35.8346 50.0503 35.8346 49.7013C35.8346 49.3427 35.9148 49.0132 36.0754 48.7127C36.246 48.4025 36.4768 48.1408 36.7678 47.9276C37.0689 47.7143 37.4252 47.5496 37.8366 47.4333C38.2481 47.3072 38.6997 47.2442 39.1914 47.2442C39.5426 47.2442 39.8838 47.2733 40.215 47.3315C40.5562 47.3896 40.8573 47.472 41.1182 47.5786V47.1425C41.1182 46.6385 40.9677 46.2507 40.6666 45.9794C40.3756 45.708 39.939 45.5723 39.357 45.5723C38.9355 45.5723 38.524 45.645 38.1226 45.7903C37.7212 45.9357 37.3098 46.149 36.8883 46.4301L36.2711 45.1942C37.2847 44.5448 38.3785 44.2201 39.5527 44.2201C40.6867 44.2201 41.5648 44.4915 42.187 45.0343C42.8192 45.5674 43.1353 46.3428 43.1353 47.3606V49.7304C43.1353 49.934 43.1704 50.0794 43.2407 50.1666C43.321 50.2538 43.4464 50.3023 43.617 50.312V51.9694C43.2758 52.0373 42.9798 52.0712 42.7289 52.0712C42.3475 52.0712 42.0515 51.9888 41.8408 51.824C41.64 51.6593 41.5146 51.4412 41.4644 51.1698L41.4193 50.7481C41.068 51.194 40.6415 51.5333 40.1397 51.7659C39.638 51.9985 39.1011 52.1148 38.5291 52.1148ZM39.1011 50.69C39.4423 50.69 39.7634 50.6318 40.0645 50.5155C40.3756 50.3992 40.6164 50.2441 40.787 50.0503C41.0078 49.8855 41.1182 49.7013 41.1182 49.4978V48.6255C40.8774 48.5382 40.6164 48.4704 40.3354 48.4219C40.0544 48.3637 39.7835 48.3347 39.5226 48.3347C39.0007 48.3347 38.5742 48.451 38.2431 48.6836C37.9119 48.9065 37.7463 49.1925 37.7463 49.5414C37.7463 49.871 37.8768 50.1472 38.1377 50.3701C38.3986 50.5834 38.7197 50.69 39.1011 50.69Z" fill="white"/>
<path d="M52.2816 42.5481H48.4758V51.9694H47.4228V42.5481H43.6169V41.6467H52.2816V42.5481Z" fill="white"/>
<path d="M53.9815 52.1148C53.6104 52.1148 53.2644 52.0567 52.9435 51.9403C52.6326 51.8143 52.3569 51.6447 52.1162 51.4315C51.8855 51.2182 51.705 50.9711 51.5746 50.69C51.4443 50.3992 51.3791 50.089 51.3791 49.7595C51.3791 49.4299 51.4593 49.1246 51.6198 48.8435C51.7802 48.5624 52.0059 48.3201 52.2967 48.1166C52.5875 47.913 52.9335 47.758 53.3346 47.6513C53.7358 47.535 54.177 47.4769 54.6584 47.4769C55.0596 47.4769 55.4657 47.5108 55.8769 47.5786C56.2881 47.6465 56.6541 47.7434 56.975 47.8694V47.1861C56.975 46.5173 56.7795 45.989 56.3884 45.6013C55.9972 45.2039 55.4557 45.0052 54.7637 45.0052C54.3626 45.0052 53.9514 45.0828 53.5302 45.2379C53.109 45.3929 52.6828 45.6159 52.2516 45.9067L51.8905 45.2524C52.9034 44.5933 53.8862 44.2637 54.8389 44.2637C55.8217 44.2637 56.5939 44.5303 57.1555 45.0634C57.7171 45.5965 57.9979 46.3331 57.9979 47.2733V50.69C57.9979 50.9614 58.1233 51.0971 58.374 51.0971V51.9694C58.2035 51.9985 58.0732 52.013 57.9829 52.013C57.7222 52.013 57.5166 51.95 57.3661 51.824C57.2257 51.698 57.1505 51.5236 57.1405 51.3006L57.1104 50.7045C56.7494 51.1601 56.2931 51.509 55.7415 51.7513C55.2 51.9937 54.6133 52.1148 53.9815 52.1148ZM54.2222 51.3588C54.7537 51.3588 55.2401 51.2619 55.6813 51.068C56.1326 50.8742 56.4736 50.6173 56.7043 50.2974C56.7945 50.2102 56.8597 50.1181 56.8998 50.0212C56.95 49.9146 56.975 49.8176 56.975 49.7304V48.4946C56.6341 48.3686 56.278 48.2717 55.907 48.2038C55.546 48.136 55.1749 48.102 54.7938 48.102C54.0717 48.102 53.4851 48.2474 53.0338 48.5382C52.5825 48.829 52.3569 49.2119 52.3569 49.6868C52.3569 49.9194 52.402 50.1375 52.4922 50.3411C52.5925 50.5446 52.7229 50.7239 52.8834 50.879C53.0538 51.0244 53.2544 51.1407 53.4851 51.2279C53.7157 51.3152 53.9614 51.3588 54.2222 51.3588Z" fill="white"/>
<path d="M64.871 44.3946H66.0143L63.0508 48.0584L66.27 51.9694H65.1267L62.3588 48.5091H61.2457V51.9694H60.2378V44.3946H61.2457V47.7386H62.2686L64.871 44.3946Z" fill="white"/>
<path d="M66.6738 48.1602C66.6738 47.6271 66.7691 47.1231 66.9596 46.6481C67.1502 46.1732 67.4159 45.7613 67.7569 45.4123C68.1079 45.0537 68.5241 44.7726 69.0055 44.5691C69.4868 44.3655 70.0183 44.2637 70.6 44.2637C71.3421 44.2637 71.989 44.4285 72.5405 44.7581C73.0921 45.0779 73.5083 45.5141 73.7891 46.0666L72.7963 46.3719C72.5756 45.9842 72.2647 45.6837 71.8636 45.4705C71.4725 45.2476 71.0362 45.1361 70.5549 45.1361C70.1537 45.1361 69.7777 45.2136 69.4267 45.3687C69.0857 45.5238 68.7848 45.737 68.5241 46.0084C68.2734 46.2701 68.0728 46.5851 67.9224 46.9535C67.782 47.3218 67.7118 47.724 67.7118 48.1602C67.7118 48.5867 67.787 48.9889 67.9374 49.3669C68.0878 49.745 68.2934 50.0745 68.5542 50.3556C68.8149 50.627 69.1158 50.8451 69.4567 51.0098C69.8077 51.1649 70.1788 51.2425 70.5699 51.2425C70.8206 51.2425 71.0663 51.2085 71.307 51.1407C71.5577 51.0729 71.7884 50.9808 71.999 50.8645C72.2096 50.7385 72.3901 50.5979 72.5405 50.4428C72.691 50.2877 72.7963 50.123 72.8564 49.9485L73.8643 50.2393C73.754 50.5107 73.5935 50.7627 73.3829 50.9953C73.1723 51.2182 72.9216 51.4169 72.6308 51.5914C72.35 51.7562 72.0341 51.8822 71.6831 51.9694C71.3421 52.0663 70.9861 52.1148 70.615 52.1148C70.0434 52.1148 69.5169 52.013 69.0355 51.8095C68.5542 51.5963 68.138 51.3103 67.787 50.9517C67.436 50.5834 67.1602 50.1617 66.9596 49.6868C66.7691 49.2119 66.6738 48.703 66.6738 48.1602Z" fill="white"/>
<path d="M76.4942 50.5737L81.1726 44.3946H81.9999V51.9694H80.992V45.9067L76.404 51.9694H75.4864V44.3946H76.4942V50.5737Z" fill="white"/>
</svg>
