<svg width="94" height="34" viewBox="0 0 94 34" fill="none" xmlns="http://www.w3.org/2000/svg">
<g clip-path="url(#clip0)">
<path d="M35.6274 21.1079H40.7878C42.1309 21.1079 43.1912 21.4621 44.0395 22.0996C44.8171 22.7371 45.2412 23.7287 45.2412 25.0037C45.2412 26.2787 44.8171 27.1996 44.0395 27.9079C43.2619 28.5454 42.2016 28.8996 40.9292 28.8996H38.243V33.2204H35.6274V21.1079ZM38.243 23.2329V26.7037H40.5757C41.9188 26.7037 42.6257 26.1371 42.6257 25.0037C42.6257 23.8704 41.9188 23.2329 40.5757 23.2329H38.243Z" fill="#FF6375" stroke="#ED1C24" stroke-width="0.4" stroke-miterlimit="10"/>
<path d="M56.6223 30.8827V33.1493H48.0688V21.1077H50.6844V30.8827H56.6223Z" fill="#FF6375" stroke="#ED1C24" stroke-width="0.4" stroke-miterlimit="10"/>
<path d="M69.5584 21.1077V28.3327C69.5584 30.0327 69.1342 31.3077 68.286 32.1577C67.4377 33.0077 66.1653 33.3618 64.398 33.3618C62.6308 33.3618 61.2877 32.9368 60.4394 32.0868C59.5911 31.2368 59.167 29.9618 59.167 28.2618V21.1077H61.7825V28.3327C61.7825 29.3243 61.9946 30.0327 62.348 30.5285C62.7015 31.0243 63.4084 31.2368 64.398 31.2368C65.317 31.2368 66.0239 31.0243 66.3066 30.5285C66.6601 30.0327 66.8015 29.3243 66.8015 28.3327V21.1077H69.5584Z" fill="#FF6375" stroke="#ED1C24" stroke-width="0.4" stroke-miterlimit="10"/>
<path d="M81.9293 24.6495H79.4551C79.3844 23.4453 78.6068 22.8786 77.193 22.8786C76.5568 22.8786 76.1327 23.0203 75.7792 23.2328C75.4258 23.4453 75.2844 23.7995 75.2844 24.2245C75.2844 24.3661 75.2844 24.5078 75.3551 24.6495C75.4258 24.7911 75.4965 24.862 75.6379 24.9328C75.7792 25.0036 75.9206 25.0745 75.9913 25.1453C76.1327 25.2161 76.2741 25.287 76.5568 25.3578C76.7689 25.4286 77.0517 25.4995 77.193 25.5703C77.4051 25.6411 77.6879 25.712 78.0413 25.7828C78.3948 25.8536 78.7482 25.9245 78.9603 26.0661C80.162 26.4203 81.0103 26.8453 81.5758 27.3411C82.1413 27.837 82.4241 28.5453 82.4241 29.537C82.4241 30.2453 82.2827 30.812 81.9999 31.3078C81.7172 31.8745 81.293 32.2286 80.7982 32.5828C80.3034 32.8661 79.8086 33.0786 79.243 33.2203C78.6775 33.362 78.0413 33.4328 77.4051 33.4328C75.7792 33.4328 74.5068 33.0786 73.5879 32.2995C72.6689 31.5203 72.1741 30.4578 72.1741 29.112H74.7896C74.8603 30.5995 75.7086 31.3786 77.5465 31.3786C78.2534 31.3786 78.7482 31.237 79.1724 30.9536C79.5965 30.6703 79.7379 30.2453 79.7379 29.7495C79.7379 29.3245 79.5258 29.0411 79.1724 28.8286C78.8189 28.6161 78.0413 28.4036 76.8396 28.0495C76.6275 27.9786 76.4861 27.9786 76.4155 27.9078C75.9913 27.7661 75.7086 27.6953 75.5672 27.6953C75.4258 27.6245 75.143 27.5536 74.7896 27.412C74.4361 27.2703 74.2241 27.1995 74.012 27.0578C73.8706 26.987 73.6586 26.8453 73.4465 26.6328C73.2344 26.4203 73.0224 26.2786 72.9517 26.0661C72.881 25.8536 72.7396 25.6411 72.6689 25.3578C72.5982 25.0745 72.5275 24.7911 72.5275 24.437C72.5275 23.3745 72.9517 22.4536 73.7999 21.8161C74.6482 21.1786 75.7792 20.8245 77.193 20.8245C78.5361 20.8245 79.6672 21.1786 80.5155 21.8161C81.4344 22.4536 81.9293 23.3745 81.9293 24.6495Z" fill="#FF6375" stroke="#ED1C24" stroke-width="0.4" stroke-miterlimit="10"/>
<path d="M45.3118 7.7203H42.8377C42.767 6.51613 41.9894 5.94946 40.5756 5.94946C39.9394 5.94946 39.5153 6.09113 39.1618 6.30363C38.8084 6.51613 38.667 6.8703 38.667 7.2953C38.667 7.43696 38.667 7.57863 38.7377 7.7203C38.7377 7.79113 38.8084 7.86196 38.8791 8.00363C39.0204 8.07446 39.1618 8.1453 39.2325 8.21613C39.3739 8.28696 39.5153 8.3578 39.798 8.42863C40.0808 8.49946 40.2928 8.5703 40.5049 8.64113C40.717 8.71196 40.9997 8.7828 41.3532 8.85363C41.7066 8.92446 42.0601 8.9953 42.2722 9.13696C43.4739 9.49113 44.3222 9.91613 44.8877 10.412C45.4532 10.9078 45.736 11.6161 45.736 12.6078C45.736 13.3161 45.5946 13.8828 45.3118 14.3786C45.0291 14.8745 44.6756 15.2995 44.1808 15.5828C43.686 15.8661 43.1911 16.0786 42.6256 16.2203C42.0601 16.362 41.4239 16.4328 40.7877 16.4328C39.1618 16.4328 37.8894 16.0786 36.9704 15.2995C36.0515 14.5203 35.5566 13.4578 35.5566 12.112H38.1722C38.2428 13.5995 39.0911 14.3786 40.9291 14.3786C41.636 14.3786 42.1308 14.237 42.5549 13.9536C42.9791 13.6703 43.1204 13.2453 43.1204 12.7495C43.1204 12.3245 42.9084 12.0411 42.5549 11.8286C42.2015 11.6161 41.4239 11.4036 40.2222 11.0495C40.0101 10.9786 39.8687 10.9786 39.798 10.9078C39.3739 10.7661 39.0911 10.6953 38.9497 10.6953C38.8791 10.6953 38.667 10.6245 38.3135 10.4828C37.9601 10.3411 37.748 10.2703 37.536 10.1286C37.3946 10.0578 37.1825 9.91613 36.9704 9.70363C36.7584 9.49113 36.5463 9.34946 36.4756 9.13696C36.4049 8.92446 36.2635 8.71196 36.1928 8.42863C36.1222 8.1453 36.0515 7.79113 36.0515 7.43696C36.0515 6.37446 36.4756 5.52446 37.3239 4.81613C38.1722 4.1078 39.3032 3.82446 40.717 3.82446C42.0601 3.82446 43.1911 4.17863 44.0394 4.81613C44.8877 5.45363 45.3118 6.4453 45.3118 7.7203Z" fill="white" stroke="white" stroke-width="0.4" stroke-miterlimit="10"/>
<path d="M47.4324 4.10767H50.1186L52.0272 12.3243L54.1479 4.10767H56.622L58.672 12.3952L60.6513 4.10767H63.2669L60.0151 16.1493H57.3996L55.3496 7.93267L53.2996 16.1493H50.6134L47.4324 4.10767Z" fill="white" stroke="white" stroke-width="0.4" stroke-miterlimit="10"/>
<path d="M68.3567 4.10767V16.1493H65.7412V4.10767H68.3567Z" fill="white" stroke="white" stroke-width="0.4" stroke-miterlimit="10"/>
<path d="M80.7978 7.7203H78.3236C78.2529 6.51613 77.4753 5.94946 76.0616 5.94946C75.4253 5.94946 75.0012 6.09113 74.6478 6.30363C74.2943 6.51613 74.1529 6.8703 74.1529 7.2953C74.1529 7.43696 74.1529 7.57863 74.2236 7.7203C74.2943 7.86196 74.365 7.9328 74.5064 8.00363C74.6478 8.07446 74.7891 8.1453 74.8598 8.21613C75.0012 8.28696 75.1426 8.3578 75.4253 8.42863C75.6374 8.49946 75.9202 8.5703 76.0616 8.64113C76.2736 8.71196 76.5564 8.7828 76.9098 8.85363C77.2633 8.92446 77.6167 8.9953 77.8288 9.13696C79.0305 9.49113 79.8788 9.91613 80.4443 10.412C81.0098 10.9078 81.2926 11.6161 81.2926 12.6078C81.2926 13.3161 81.1512 13.8828 80.8685 14.3786C80.5857 14.8745 80.2322 15.2995 79.7374 15.5828C79.2426 15.8661 78.7478 16.0786 78.1822 16.2203C77.6167 16.362 76.9805 16.4328 76.3443 16.4328C74.7185 16.4328 73.446 16.0786 72.5271 15.2995C71.6081 14.5203 71.1133 13.4578 71.1133 12.112H73.7288C73.7995 13.5995 74.6478 14.3786 76.4857 14.3786C77.1926 14.3786 77.6874 14.237 78.1116 13.9536C78.5357 13.6703 78.6771 13.2453 78.6771 12.7495C78.6771 12.3245 78.465 12.0411 78.1116 11.8286C77.7581 11.6161 76.9805 11.4036 75.7788 11.0495C75.5667 10.9786 75.4253 10.9786 75.3547 10.9078C74.9305 10.7661 74.6478 10.6953 74.5064 10.6953C74.365 10.6245 74.0822 10.5536 73.7288 10.412C73.3753 10.2703 73.1633 10.1995 72.9512 10.0578C72.8098 9.98696 72.5978 9.8453 72.3857 9.6328C72.1736 9.4203 71.9616 9.27863 71.8909 9.06613C71.8202 8.85363 71.6788 8.64113 71.6081 8.3578C71.5374 8.07446 71.4667 7.79113 71.4667 7.43696C71.4667 6.37446 71.8909 5.45363 72.7391 4.81613C73.5874 4.17863 74.7185 3.82446 76.1322 3.82446C77.4753 3.82446 78.6064 4.17863 79.4547 4.81613C80.3736 5.45363 80.7978 6.4453 80.7978 7.7203Z" fill="white" stroke="white" stroke-width="0.4" stroke-miterlimit="10"/>
<path d="M92.9567 7.72051H90.4826C90.4119 6.51634 89.6343 5.94967 88.2205 5.94967C87.5843 5.94967 87.1601 6.09134 86.8067 6.30384C86.4532 6.51634 86.2412 6.87051 86.2412 7.29551C86.2412 7.43717 86.2412 7.57884 86.3119 7.72051C86.3826 7.86217 86.4532 7.93301 86.5946 8.00384C86.736 8.07467 86.8774 8.14551 86.9481 8.21634C87.0188 8.28717 87.2308 8.35801 87.5136 8.42884C87.7257 8.49967 88.0084 8.57051 88.1498 8.64134C88.3619 8.71217 88.6446 8.78301 88.9981 8.85384C89.3515 8.92467 89.705 8.99551 89.917 9.13717C91.1188 9.49134 91.967 9.91634 92.5326 10.4122C93.0981 10.908 93.3808 11.6163 93.3808 12.608C93.3808 13.3163 93.2395 13.883 92.9567 14.3788C92.7446 14.8747 92.3912 15.2997 91.8963 15.583C91.4015 15.8663 90.9067 16.0788 90.3412 16.2205C89.7757 16.3622 89.1395 16.433 88.5032 16.433C86.8774 16.433 85.605 16.0788 84.686 15.2997C83.767 14.5205 83.2722 13.458 83.2722 12.1122H85.8877C85.9584 13.5997 86.8067 14.3788 88.6446 14.3788C89.3515 14.3788 89.8463 14.2372 90.2705 13.9538C90.6946 13.6705 90.836 13.2455 90.836 12.7497C90.836 12.3247 90.6239 12.0413 90.2705 11.8288C89.917 11.6163 89.1395 11.4038 87.9377 11.0497C87.7257 10.9788 87.5843 10.9788 87.5136 10.908C87.0895 10.7663 86.8067 10.6955 86.6653 10.6955C86.5239 10.6247 86.2412 10.5538 85.8877 10.4122C85.5343 10.2705 85.3222 10.1997 85.1101 10.058C84.9688 9.98717 84.7567 9.84551 84.5446 9.63301C84.3326 9.42051 84.1205 9.27884 84.0498 9.06634C83.9791 8.85384 83.8377 8.64134 83.767 8.35801C83.6964 8.07467 83.6257 7.79134 83.6257 7.43717C83.6257 6.37467 84.0498 5.45384 84.8981 4.81634C85.7464 4.17884 86.9481 3.89551 88.3619 3.89551C89.705 3.89551 90.836 4.24967 91.6843 4.88717C92.5326 5.45384 92.9567 6.44551 92.9567 7.72051Z" fill="white" stroke="white" stroke-width="0.4" stroke-miterlimit="10"/>
<path d="M15.4483 33.2917C7.28369 33.2917 0.603516 26.598 0.603516 18.4167C0.603516 10.2355 7.28369 3.54175 15.4483 3.54175C23.613 3.54175 30.2932 10.2355 30.2932 18.4167C30.2932 26.598 23.613 33.2917 15.4483 33.2917ZM15.4483 6.51675C8.8742 6.51675 3.46644 11.8292 3.46644 18.4167C3.46644 25.0042 8.8742 30.423 15.4483 30.423C22.0225 30.423 27.4302 25.0042 27.4302 18.4167C27.4302 11.8292 22.0225 6.51675 15.4483 6.51675Z" fill="#FF6375"/>
<path d="M17.3326 11.9634H13.9607V25.3728H17.3326V11.9634Z" fill="#FF6375"/>
<path d="M22.2942 20.2821V16.9033L8.91199 16.9033V20.2821L22.2942 20.2821Z" fill="#FF6375"/>
</g>
<defs>
<clipPath id="clip0">
<rect width="94" height="34" fill="white"/>
</clipPath>
</defs>
</svg>
