<svg width="133" height="35" viewBox="0 0 133 35" fill="none" xmlns="http://www.w3.org/2000/svg">
<path d="M14.7849 20.0138C14.7849 21.0701 14.6749 22.1264 14.51 23.1271C14.3452 23.9055 14.2352 24.6838 13.9604 25.4065C13.6856 26.296 13.3558 27.1855 12.9161 27.9639C12.4764 28.7978 11.4321 30.4656 10.8825 31.1883C10.8276 31.2439 10.7726 31.4107 10.6627 31.3551C10.5527 31.2995 10.6077 31.1883 10.6077 31.0772C10.6627 30.1876 10.7176 29.2981 10.5527 28.4086C10.2779 26.7408 10.2779 24.3502 9.2886 23.0159C8.46416 21.8485 7.47484 20.9034 6.2107 20.2362C5.93588 20.0694 5.771 19.9027 5.771 19.5691C5.771 18.2348 5.93588 16.9005 6.2107 15.5663C6.48551 14.3432 6.70536 12.9533 7.20002 11.8414C7.63972 10.9519 8.02446 10.118 8.62905 9.33968C8.8489 9.06171 9.34356 9.28409 9.56341 9.50647C11.1024 11.3411 12.5864 13.2869 13.6306 15.4551C14.1803 16.567 14.51 17.7345 14.62 19.0131C14.7849 19.2911 14.7849 19.6247 14.7849 20.0138Z" fill="#3FA60F"/>
<path d="M10.3332 28.3528C10.4432 29.409 10.1683 30.243 9.89353 31.2437C9.7836 31.6884 9.61872 31.744 9.23398 31.466C8.4645 30.9657 7.74999 30.3542 7.03547 29.7426C5.88126 28.7419 4.89194 27.6856 4.01253 26.4625C2.91328 24.9615 2.03388 23.4048 1.37433 21.6258C1.15448 20.9587 0.934631 20.2915 0.714781 19.6244C0.549893 19.1796 0.659819 19.0685 1.15448 19.124C1.75907 19.1796 2.3087 19.2908 2.91328 19.5132C4.34231 19.958 6.15607 20.4583 7.31029 21.5146C8.4645 22.5153 9.17902 23.794 9.7836 25.1283C10.1683 25.9066 10.1134 27.1853 10.2783 28.0192C10.3332 28.1304 10.3332 28.2416 10.3332 28.3528Z" fill="#3FA60F"/>
<path d="M10.4429 32.6895C10.333 32.6895 10.278 32.6895 10.1681 32.6339C9.72837 32.4671 9.50852 32.0223 9.45355 31.6332V31.522V31.4108C10.1681 27.7415 9.72837 24.9062 8.07949 22.8492C5.44129 19.5691 0.439697 19.5135 0.439697 19.5135V18.2349C0.549622 18.2349 2.47331 18.2349 4.67181 19.0688C5.33136 11.1188 8.3543 8.06107 8.51919 7.94988L8.95889 7.50513L9.39859 7.94988C11.707 10.2293 13.4109 12.731 14.4002 15.2884C15.2796 17.5121 15.6094 19.8471 15.4445 22.1821C15.1147 27.2968 12.4215 30.9104 11.6521 31.8555C11.4872 32.1335 11.0475 32.6895 10.4429 32.6895ZM5.93595 19.6247C7.09017 20.1807 8.18942 20.959 9.12378 22.1265C10.8826 24.2947 11.4872 27.2968 10.8826 30.966C11.762 29.8541 13.9605 26.6297 14.2353 22.1821C14.5651 17.6233 12.8063 13.3426 9.01385 9.39534C8.73904 9.7845 8.29934 10.4516 7.85964 11.3412C7.14513 12.8978 6.21076 15.6219 5.93595 19.6247Z" fill="#100C0C"/>
<path d="M16.8185 34.0794C7.52987 34.0794 0 26.4629 0 17.0674C0 7.72754 7.52987 0.111084 16.7636 0.111084C25.9973 0.111084 33.5272 7.72754 33.5272 17.0674C33.5821 26.4629 26.0522 34.0794 16.8185 34.0794ZM16.8185 1.33416C8.24438 1.33416 1.26414 8.39468 1.26414 17.0674C1.26414 25.7402 8.24438 32.8007 16.8185 32.8007C25.3927 32.8007 32.3729 25.7402 32.3729 17.0674C32.3729 8.39468 25.3927 1.33416 16.8185 1.33416Z" fill="#100C0C"/>
<path d="M31.1086 25.0173C23.0841 21.904 16.2688 23.4051 14.9497 23.7387C14.51 23.8499 14.2351 23.5163 14.1802 23.3495L14.51 22.5712L14.7848 23.1271L15.3894 22.9047C15.2794 22.6268 14.9497 22.4044 14.6748 22.5156C16.0489 22.182 23.194 20.6254 31.5483 23.8499L31.1086 25.0173Z" fill="#100C0C"/>
<path d="M15.1146 20.514L14.4551 19.4577C14.51 19.4021 16.3238 18.2902 19.5116 17.4007C22.4246 16.5667 27.1514 15.7328 33.0874 16.4556L32.9225 17.6786C21.9849 16.2888 15.1696 20.514 15.1146 20.514Z" fill="#100C0C"/>
<path d="M26.0522 31.2993C20.3361 25.9622 14.0704 26.6293 14.0154 26.6293L13.9055 25.3507C13.9605 25.3507 15.6643 25.1839 18.1376 25.6842C20.3911 26.1846 23.7438 27.3521 26.9316 30.3542L26.0522 31.2993Z" fill="#100C0C"/>
<path d="M19.3468 33.6347C16.5987 30.4102 12.5864 29.6874 12.5864 29.6874L12.8063 28.4644C12.9712 28.52 17.2582 29.2983 20.2812 32.8563L19.3468 33.6347Z" fill="#100C0C"/>
<path d="M38.0891 0.0556641H47.6526V2.39064H40.8922V4.8368H44.2449C44.9045 4.8368 45.5091 4.89239 46.0587 5.05917C46.6083 5.22596 47.103 5.50393 47.4877 5.7819C47.9274 6.11547 48.2022 6.56023 48.477 7.06058C48.6969 7.56093 48.8068 8.17247 48.8068 8.8952C48.8068 9.61793 48.6969 10.2295 48.477 10.7298C48.2572 11.2302 47.9274 11.6749 47.4877 12.0085C47.048 12.3421 46.6083 12.62 46.0037 12.7312C45.3991 12.898 44.7945 12.9536 44.08 12.9536H38.0891V0.0556641ZM43.8052 10.6742C44.5197 10.6742 45.0144 10.563 45.3991 10.3407C45.7839 10.1183 46.0037 9.61793 46.0037 8.8952C46.0037 8.56163 45.9488 8.28366 45.8388 8.00569C45.7289 7.78331 45.564 7.56093 45.3991 7.44974C45.1793 7.28296 44.9594 7.22736 44.6846 7.11617C44.4098 7.06058 44.135 7.00498 43.8052 7.00498H40.9472V10.6186H43.8052V10.6742Z" fill="#3FA60F"/>
<path d="M51.6099 0H61.2283V2.39057H54.413V5.17029H60.6238V7.39408H54.413V10.563H61.3383V12.9535H51.5549V0H51.6099Z" fill="#3FA60F"/>
<path d="M64.5811 10.7298L71.2315 2.33497H64.7459V0H74.5842V2.16819L67.8239 10.7298H74.5842V13.0091H64.5811V10.7298Z" fill="#3FA60F"/>
<path d="M38.0342 20.1812H40.8373V31.4112H47.5427V33.8574H38.0342V20.1812Z" fill="#100C0C"/>
<path d="M54.9077 20.959H57.8208L62.6025 33.9125H59.6895L58.7002 31.0216H53.9184L52.9291 33.9125H50.071L54.9077 20.959ZM57.9856 28.8534L56.3368 24.0723H56.2818L54.578 28.8534H57.9856Z" fill="#100C0C"/>
<path d="M65.076 20.959H67.934V26.1293L72.9906 20.959H76.5082L70.957 26.4073L77.0028 33.9125H73.4303L68.8684 28.1307L67.879 29.187V33.9125H65.021V20.959H65.076Z" fill="#100C0C"/>
<path d="M82.2243 23.2939H78.377V20.9033H88.9298V23.2939H85.0824V33.9125H82.2243V23.2939Z" fill="#100C0C"/>
<path d="M96.5692 23.0717L97.5036 20.6812C97.5585 20.6812 97.6684 20.6812 97.7234 20.6812C98.273 20.7367 98.8776 20.9035 99.3173 21.1259C100.087 21.4595 100.746 21.9598 101.296 22.5714C101.846 23.1829 102.285 23.9056 102.56 24.7396C102.835 25.5735 103 26.463 103 27.4081C103 28.3532 102.835 29.2427 102.56 30.0766C102.285 30.855 101.846 31.6333 101.296 32.1892C100.746 32.8008 100.087 33.2455 99.3173 33.6347C98.5478 33.9682 97.6684 34.135 96.6791 34.135C95.6898 34.135 94.7554 33.9682 94.0409 33.6347C93.2714 33.3011 92.6119 32.8008 92.0623 32.1892C91.5126 31.5777 91.0729 30.855 90.7981 30.0766C90.5233 29.2983 90.3035 28.4644 90.3035 27.5193C90.3035 27.5193 90.7981 27.5749 91.6775 27.5193C92.6669 27.4637 93.1615 27.3525 93.1615 27.3525C93.2165 27.964 93.2165 28.4644 93.3814 29.0203C93.5463 29.5207 93.7111 30.021 93.986 30.4102C94.2608 30.855 94.5905 31.1329 95.0302 31.4109C95.4699 31.6333 96.0196 31.8001 96.6791 31.8001C97.2837 31.8001 97.8333 31.6333 98.328 31.4109C98.7677 31.1885 99.0975 30.7994 99.3723 30.4102C99.6471 29.9654 99.8669 29.5207 99.9769 29.0203C100.142 28.52 100.142 27.964 100.142 27.4081C100.142 26.8521 100.087 26.2962 99.9769 25.7958C99.812 25.2955 99.6471 24.7951 99.3723 24.3504C99.0975 23.9056 98.7677 23.5721 98.328 23.3497C98.1081 23.1829 97.6135 23.0717 97.0089 23.0161C96.899 23.0717 96.6242 23.0717 96.5692 23.0717Z" fill="#100C0C"/>
<path d="M110.64 34.1909C108.881 34.1909 107.507 33.7462 106.573 32.9679C105.583 32.1895 105.144 31.0221 105.089 29.5766H107.892C107.892 30.0214 108.002 30.3549 108.112 30.6885C108.276 31.0221 108.441 31.2444 108.716 31.4668C108.936 31.6892 109.211 31.8004 109.596 31.9116C109.925 32.0228 110.31 32.0784 110.64 32.0784C111.299 32.0784 111.849 31.856 112.234 31.4668C112.673 31.0221 112.838 30.5773 112.838 29.9658C112.838 29.6322 112.783 29.2986 112.619 29.0762C112.454 28.8539 112.289 28.6315 112.069 28.5203C111.849 28.3535 111.574 28.2979 111.299 28.2423C111.025 28.1867 110.695 28.1867 110.42 28.1867H109.431V26.2965C109.541 26.2965 109.651 26.3521 109.815 26.3521C109.98 26.3521 110.09 26.3521 110.145 26.3521C111.684 26.3521 112.454 25.7406 112.454 24.5731C112.454 24.0727 112.289 23.6836 111.959 23.4056C111.629 23.1276 111.135 22.9608 110.585 22.9608C109.87 22.9608 109.321 23.1276 108.936 23.4612C108.496 23.7948 108.276 24.2951 108.221 24.9067H105.583C105.583 24.1839 105.748 23.5724 106.023 23.0164C106.298 22.5161 106.683 22.0713 107.122 21.7378C107.562 21.4042 108.112 21.1262 108.716 20.9594C109.321 20.7927 109.98 20.7371 110.64 20.7371C111.299 20.7371 111.904 20.8482 112.454 21.015C113.003 21.1818 113.498 21.4598 113.883 21.7378C114.322 22.0713 114.597 22.4605 114.872 22.9052C115.092 23.35 115.202 23.8504 115.202 24.4063C115.202 25.0734 115.037 25.6294 114.652 26.1297C114.322 26.6301 113.828 26.9081 113.223 27.0192C113.553 27.0748 113.883 27.186 114.212 27.3528C114.542 27.5196 114.762 27.742 114.982 28.0199C115.202 28.2423 115.367 28.5759 115.477 28.9095C115.641 29.243 115.641 29.6322 115.641 30.0769C115.641 30.6885 115.477 31.3 115.257 31.8004C115.037 32.3007 114.652 32.8011 114.212 33.1346C113.773 33.5238 113.223 33.8018 112.619 34.0242C112.014 34.0798 111.354 34.1909 110.64 34.1909Z" fill="#100C0C"/>
<path d="M118.334 20.959H121.193V25.6845H123.831C124.49 25.6845 125.095 25.7401 125.644 25.9069C126.194 26.0737 126.689 26.3517 127.074 26.6852C127.513 27.0188 127.788 27.4635 128.063 27.9639C128.283 28.4642 128.393 29.1314 128.393 29.7985C128.393 30.5212 128.283 31.1328 128.063 31.6331C127.843 32.1335 127.513 32.5782 127.074 32.9118C126.634 33.2454 126.194 33.5234 125.59 33.6901C124.985 33.8569 124.38 33.9125 123.666 33.9125H118.334V20.959ZM123.501 31.5775C124.215 31.5775 124.71 31.4108 125.095 31.1328C125.48 30.8548 125.699 30.3545 125.699 29.6873C125.699 29.3538 125.644 29.0758 125.535 28.7978C125.425 28.5198 125.26 28.3531 125.095 28.2419C124.875 28.0751 124.655 28.0195 124.38 27.9083C124.106 27.8527 123.831 27.7971 123.501 27.7971H121.193V31.522H123.501V31.5775ZM129.767 20.959H132.625V33.9125H129.767V20.959Z" fill="#100C0C"/>
<path d="M91.2378 22.1823C90.1385 23.461 89.8637 25.4068 90.1935 26.6854C90.4683 25.5736 91.2927 23.5721 93.0515 22.5714C91.4576 24.0725 90.7431 25.7403 90.4683 26.9634C90.853 27.019 92.392 27.0746 93.3264 26.6854C94.4806 26.1851 94.9752 25.24 95.4149 24.2949C95.6897 23.6833 95.9645 23.1274 96.2943 22.2379C96.6241 21.3484 96.8439 20.7924 97.0088 20.57C96.8439 20.5145 96.0195 20.2921 94.8653 20.4033C93.4912 20.4589 92.5019 20.7368 91.2378 22.1823Z" fill="#3FA60F"/>
</svg>
