<svg width="138" height="35" viewBox="0 0 138 35" fill="none" xmlns="http://www.w3.org/2000/svg">
<g id="CloudMTS_Logo">
<path id="Shape" fill-rule="evenodd" clip-rule="evenodd" d="M66.5288 8.12132C72.713 8.12132 77.7653 13.0298 78.0125 19.1559H74.7048C74.4493 14.6678 70.7075 11.4331 66.5288 11.4331C64.0658 11.4331 62.3164 12.3321 60.8011 13.1109L60.7127 13.1563C59.8061 10.9933 56.0368 3.31174 47.0394 3.31174C41.0997 3.31174 36.0254 7.04947 34.0199 12.296H30.5336C32.6737 5.19435 39.2563 0 47.0421 0C53.4132 0 59.1797 3.47389 62.1826 8.98155C63.5617 8.41539 65.037 8.12132 66.5288 8.12132ZM9.06611 29.7809H4.88746L2.94786 34.9973L0.516494 34.1508L2.12642 29.7809H0V27.0491H3.14017L4.56053 23.2234H0V20.4916H5.59627L7.53586 15.2752L9.96448 16.1492L8.35456 20.4916H12.4783L14.4179 15.2752L16.8492 16.1217L15.2393 20.4916H17.5883V23.2234H14.2256L12.8052 27.0491H17.5828V29.7809H11.7969L9.88481 34.9973L7.45344 34.1233L9.06611 29.7809ZM5.89847 27.0491H10.0771L11.47 23.2234H7.31883L5.89847 27.0491ZM30.0775 34.9973C32.5611 34.9973 34.9925 34.1233 36.193 32.8398L34.91 30.3278C33.5996 31.3392 31.9869 31.8587 30.377 31.8587C26.4731 31.8587 23.7697 29.1268 23.7697 25.139C23.7697 20.9863 26.4456 18.4193 29.9951 18.4193C31.9045 18.4193 33.1627 18.9388 34.3084 19.7028L35.8112 17.2155C34.5556 16.0667 32.4787 15.2752 29.9951 15.2752C23.6873 15.2752 20.2202 19.6451 20.2202 25.1362C20.2202 31.0919 24.234 34.9973 30.0775 34.9973ZM49.8224 22.1048C53.8912 22.1048 56.5121 24.8642 56.5121 28.5524C56.5121 32.2407 53.8912 35 49.8224 35C45.7537 35 43.1327 32.2407 43.1327 28.5524C43.1327 24.8642 45.7537 22.1048 49.8224 22.1048ZM53.1824 28.5524C53.1824 30.6824 51.762 32.0758 49.8224 32.0758C47.9103 32.0758 46.4899 30.5999 46.4899 28.5524C46.4899 26.4225 47.9652 25.0565 49.8224 25.0565C51.7345 25.0565 53.1824 26.4774 53.1824 28.5524ZM69.7322 34.6977H66.592V33.1971C65.8557 34.0985 64.57 35 62.6606 35C60.2567 35 58.3473 33.4444 58.3473 29.9183V22.4044H61.4875V29.2615C61.4875 30.8995 62.1166 32.0758 63.8364 32.0758C64.8749 32.0758 65.8859 31.5014 66.5947 30.5724V22.4044H69.7349V34.6977H69.7322ZM77.6252 34.9175C79.2076 34.9175 80.3285 34.2882 81.1472 33.4142V34.6977H84.2874V15.5748H81.1472V22.7095C80.4659 22.2972 79.6747 22.1076 78.5812 22.1076C74.6224 22.1076 71.8366 24.8119 71.8366 28.6898C71.8366 32.4331 74.1031 34.9175 77.6252 34.9175ZM81.1472 30.7373V25.7903C80.356 25.2984 79.562 25.0538 78.7159 25.0538C76.8587 25.0538 75.1938 26.3098 75.1938 28.5772C75.1938 30.7621 76.6142 31.9906 78.279 31.9906C79.4274 31.9933 80.4384 31.4464 81.1472 30.7373ZM91.4441 15.5748H88.0594H88.0567V34.6977H91.4167V20.956L97.5047 29.3714H97.9965L104.032 20.8763V34.6977H107.365V15.5748H104.197L97.9717 24.5069L91.4441 15.5748ZM109.192 15.5748H124.948V18.7161H118.75V34.6949H115.39V18.7189H109.192V15.5748ZM131.744 15.2752C128.03 15.2752 125.791 17.6773 125.791 20.5465C125.791 24.0511 128.53 25.2896 130.927 26.3735C132.792 27.2167 134.449 27.9663 134.45 29.616C134.45 31.0644 133.247 31.8559 131.665 31.8559C130.192 31.8559 128.39 31.1468 127.269 29.6985L125.357 31.9933C126.285 33.9309 129.151 34.9973 131.61 34.9973C135.187 34.9973 138 32.8123 138 29.5885C138 26.0302 135.295 24.8536 132.909 23.816C131.027 22.9975 129.343 22.2654 129.343 20.519C129.343 19.2631 130.354 18.4166 132.019 18.4166C133.547 18.4166 134.475 18.936 135.404 19.8375L137.206 17.3255C136.058 16.0667 134.093 15.2752 131.744 15.2752ZM41.1382 15.5748H37.7645V34.6977H41.1382V15.5748Z" fill="#CB262B"/>
</g>
</svg>
