<svg width="13" height="13" viewBox="0 0 13 13" fill="none" xmlns="http://www.w3.org/2000/svg">
<path fill-rule="evenodd" clip-rule="evenodd" d="M6.5 0C2.91023 0 0 2.91023 0 6.5C0 10.0898 2.91023 13 6.5 13C10.0898 13 13 10.0898 13 6.5C13 2.91023 10.0898 0 6.5 0ZM9.31745 5.40091C9.36933 5.34161 9.40883 5.27253 9.43362 5.19774C9.45841 5.12294 9.46799 5.04395 9.4618 4.9654C9.45561 4.88685 9.43377 4.81033 9.39757 4.74035C9.36137 4.67036 9.31154 4.60833 9.25101 4.55788C9.19047 4.50744 9.12047 4.46961 9.0451 4.44663C8.96974 4.42364 8.89054 4.41596 8.81216 4.42403C8.73378 4.43211 8.65781 4.45578 8.58871 4.49365C8.51962 4.53152 8.45879 4.58282 8.40982 4.64455L5.86891 7.69305L4.55414 6.37768C4.44269 6.27004 4.29342 6.21048 4.13849 6.21183C3.98356 6.21318 3.83535 6.27532 3.72579 6.38488C3.61623 6.49444 3.55408 6.64265 3.55274 6.79758C3.55139 6.95252 3.61095 7.10178 3.71859 7.21323L5.49132 8.98595C5.54938 9.04398 5.61889 9.08927 5.69543 9.11894C5.77196 9.14862 5.85384 9.16202 5.93584 9.15829C6.01784 9.15457 6.09817 9.1338 6.1717 9.09731C6.24523 9.06082 6.31035 9.00941 6.36291 8.94636L9.31745 5.40091Z" fill="#00B707"/>
</svg>
