<svg width="414" height="280" viewBox="0 0 414 280" fill="none" xmlns="http://www.w3.org/2000/svg">
<g filter="url(#filter0_d)">
<rect x="26" y="18" width="362" height="227.971" rx="15" fill="url(#paint0_linear)" fill-opacity="0.4"/>
<rect x="26" y="18" width="362" height="227.971" rx="15" fill="#010738"/>
<mask id="mask0" mask-type="alpha" maskUnits="userSpaceOnUse" x="26" y="18" width="362" height="228">
<rect x="26" y="18" width="362" height="228" rx="15" fill="#C4C4C4"/>
</mask>
<g mask="url(#mask0)">
<ellipse rx="132.738" ry="127.458" transform="matrix(0.0898637 0.995954 -0.99596 0.0898004 294.605 200.344)" fill="url(#paint1_radial)" fill-opacity="0.75"/>
</g>
<path d="M304.402 49.8257H306.082L308.962 41.4257H307.45L305.242 48.1457L302.842 41.4257H301.282L304.402 49.8257ZM309.924 49.8257H311.316V43.8257H309.924V49.8257ZM310.62 43.1057C311.112 43.1057 311.52 42.7097 311.52 42.2057C311.52 41.7017 311.112 41.3057 310.62 41.3057C310.116 41.3057 309.72 41.7017 309.72 42.2057C309.72 42.7097 310.116 43.1057 310.62 43.1057ZM312.934 49.8257H314.326V46.3457C314.326 45.5297 314.842 45.0137 315.934 45.0137H316.534V43.7177H315.934C315.19 43.7177 314.554 43.9937 314.134 44.4977L314.026 43.8257H312.934V49.8257ZM317.007 45.0497H318.087V47.8457C318.087 49.1177 318.795 49.8257 320.067 49.8257H321.087V48.6017H320.319C319.755 48.6017 319.479 48.3257 319.479 47.7017V45.0497H320.967V43.8257H319.479V42.1457H318.087V43.8257H317.007V45.0497ZM324.271 49.9337C325.015 49.9337 325.639 49.6577 326.071 49.1657L326.179 49.8257H327.271V43.8257H325.879V47.3657C325.855 48.1337 325.315 48.6377 324.511 48.6377C323.839 48.6377 323.383 48.1817 323.383 47.3057V43.8257H321.991V47.3057C321.991 49.0577 322.867 49.9337 324.271 49.9337ZM330.397 49.9337C331.237 49.9337 331.921 49.5977 332.341 48.9977L332.485 49.8257H333.577V45.7457C333.577 44.5217 332.773 43.7177 331.177 43.7177C329.497 43.7177 328.717 44.4977 328.657 45.5657H330.169C330.229 45.1457 330.505 44.8697 331.177 44.8697C331.885 44.8697 332.185 45.1697 332.185 45.7457V46.1057H331.177C329.173 46.1057 328.417 46.8617 328.417 48.1217C328.417 49.2497 329.101 49.9337 330.397 49.9337ZM330.637 48.7817C330.157 48.7817 329.881 48.5057 329.881 48.0737C329.881 47.5337 330.229 47.1857 331.177 47.1857H332.185V47.3657C332.185 48.1217 331.525 48.7817 330.637 48.7817ZM337.039 49.8257H337.591V48.6017H337.291C336.739 48.6017 336.463 48.3257 336.463 47.7017V41.4257H335.071V47.8457C335.071 49.1177 335.779 49.8257 337.039 49.8257ZM344.913 49.9337C346.857 49.9337 348.093 48.6977 348.333 47.0057H346.749C346.521 47.9537 345.885 48.5897 344.913 48.5897C343.665 48.5897 342.765 47.6897 342.765 45.9377V45.3137C342.765 43.5377 343.641 42.6617 344.913 42.6617C345.909 42.6617 346.509 43.2617 346.749 44.0057H348.333C348.093 42.5417 346.869 41.3177 344.913 41.3177C342.729 41.3177 341.253 42.7937 341.253 45.3137V45.9377C341.253 48.4817 342.705 49.9337 344.913 49.9337ZM351.092 49.9337C351.932 49.9337 352.616 49.5977 353.036 48.9977L353.18 49.8257H354.272V45.7457C354.272 44.5217 353.468 43.7177 351.872 43.7177C350.192 43.7177 349.412 44.4977 349.352 45.5657H350.864C350.924 45.1457 351.2 44.8697 351.872 44.8697C352.58 44.8697 352.88 45.1697 352.88 45.7457V46.1057H351.872C349.868 46.1057 349.112 46.8617 349.112 48.1217C349.112 49.2497 349.796 49.9337 351.092 49.9337ZM351.332 48.7817C350.852 48.7817 350.576 48.5057 350.576 48.0737C350.576 47.5337 350.924 47.1857 351.872 47.1857H352.88V47.3657C352.88 48.1217 352.22 48.7817 351.332 48.7817ZM355.766 49.8257H357.158V46.3457C357.158 45.5297 357.674 45.0137 358.766 45.0137H359.366V43.7177H358.766C358.022 43.7177 357.386 43.9937 356.966 44.4977L356.858 43.8257H355.766V49.8257ZM362.224 49.9337C363.052 49.9337 363.724 49.6337 364.144 49.0217L364.276 49.8257H365.368V41.4257H363.976V44.4257C363.556 43.9577 362.956 43.7177 362.224 43.7177C360.856 43.7177 359.848 44.7257 359.848 46.6337V47.0177C359.848 48.9617 360.832 49.9337 362.224 49.9337ZM362.644 48.6377C361.828 48.6377 361.312 48.1217 361.312 47.0177V46.6337C361.312 45.4937 361.804 45.0137 362.644 45.0137C363.412 45.0137 363.976 45.5777 363.976 46.6337V47.1017C363.94 48.1097 363.388 48.6377 362.644 48.6377Z" fill="white" fill-opacity="0.5"/>
<path d="M47.3748 165.939H53.5848V168.963H54.8448V165.939H56.5548V164.787H54.8448V156.363H53.2788L47.3748 164.787V165.939ZM48.7608 164.787L53.5848 157.821V164.787H48.7608ZM58.4525 163.203H59.6945C60.1265 162.501 61.0265 161.853 62.2325 161.853C63.9605 161.853 65.0765 162.969 65.0765 164.877C65.0765 166.767 63.9425 167.901 62.2325 167.901C60.8465 167.901 59.8565 167.289 59.4245 166.047H58.0925C58.5605 168.027 60.1625 169.089 62.2325 169.089C64.6985 169.089 66.3725 167.415 66.3725 164.877C66.3725 162.321 64.7165 160.665 62.4125 160.665C61.3505 160.665 60.4325 161.043 59.8025 161.691L60.1445 157.515H65.5625V156.363H58.9925L58.4525 163.203ZM68.0903 168.963H76.1903V167.811H69.7103L73.5083 164.121C75.2003 162.483 76.1903 161.259 76.1903 159.873C76.1903 157.803 74.6063 156.237 72.1403 156.237C69.6743 156.237 68.0903 157.803 68.0903 159.873H69.3863C69.3863 158.469 70.4483 157.425 72.1403 157.425C73.8323 157.425 74.8943 158.469 74.8943 159.873C74.8943 160.971 74.1023 161.835 72.5543 163.383L68.0903 167.811V168.963ZM78.5268 163.203H79.7688C80.2008 162.501 81.1008 161.853 82.3068 161.853C84.0348 161.853 85.1508 162.969 85.1508 164.877C85.1508 166.767 84.0168 167.901 82.3068 167.901C80.9208 167.901 79.9308 167.289 79.4988 166.047H78.1668C78.6348 168.027 80.2368 169.089 82.3068 169.089C84.7728 169.089 86.4468 167.415 86.4468 164.877C86.4468 162.321 84.7908 160.665 82.4868 160.665C81.4248 160.665 80.5068 161.043 79.8768 161.691L80.2188 157.515H85.6368V156.363H79.0668L78.5268 163.203ZM92.6645 168.963H100.764V167.811H94.2845L98.0825 164.121C99.7745 162.483 100.764 161.259 100.764 159.873C100.764 157.803 99.1805 156.237 96.7145 156.237C94.2485 156.237 92.6645 157.803 92.6645 159.873H93.9605C93.9605 158.469 95.0225 157.425 96.7145 157.425C98.4065 157.425 99.4685 158.469 99.4685 159.873C99.4685 160.971 98.6765 161.835 97.1285 163.383L92.6645 167.811V168.963ZM103.101 163.203H104.343C104.775 162.501 105.675 161.853 106.881 161.853C108.609 161.853 109.725 162.969 109.725 164.877C109.725 166.767 108.591 167.901 106.881 167.901C105.495 167.901 104.505 167.289 104.073 166.047H102.741C103.209 168.027 104.811 169.089 106.881 169.089C109.347 169.089 111.021 167.415 111.021 164.877C111.021 162.321 109.365 160.665 107.061 160.665C105.999 160.665 105.081 161.043 104.451 161.691L104.793 157.515H110.211V156.363H103.641L103.101 163.203ZM117.239 169.089C119.831 169.089 121.379 167.541 121.379 165.543C121.379 164.049 120.497 162.951 119.129 162.375C120.263 161.853 121.019 160.899 121.019 159.567C121.019 157.659 119.525 156.237 117.239 156.237C115.007 156.237 113.459 157.713 113.459 159.567C113.459 160.917 114.179 161.871 115.313 162.393C113.963 162.951 113.099 164.049 113.099 165.543C113.099 167.595 114.593 169.089 117.239 169.089ZM117.239 167.901C115.457 167.901 114.395 166.821 114.395 165.543C114.395 163.941 115.637 163.041 117.239 162.915C118.787 163.041 120.083 163.995 120.083 165.543C120.083 166.821 119.021 167.901 117.239 167.901ZM117.239 161.871C116.033 161.745 114.755 160.989 114.755 159.567C114.755 158.451 115.691 157.425 117.239 157.425C118.787 157.425 119.723 158.451 119.723 159.567C119.723 161.061 118.499 161.745 117.239 161.871ZM123.896 163.203H125.138C125.57 162.501 126.47 161.853 127.676 161.853C129.404 161.853 130.52 162.969 130.52 164.877C130.52 166.767 129.386 167.901 127.676 167.901C126.29 167.901 125.3 167.289 124.868 166.047H123.536C124.004 168.027 125.606 169.089 127.676 169.089C130.142 169.089 131.816 167.415 131.816 164.877C131.816 162.321 130.16 160.665 127.856 160.665C126.794 160.665 125.876 161.043 125.246 161.691L125.588 157.515H131.006V156.363H124.436L123.896 163.203ZM142.714 169.089C145.216 169.089 146.854 167.451 146.854 163.239V162.087C146.854 157.839 145.234 156.237 142.714 156.237C140.212 156.237 138.574 157.875 138.574 162.087V163.239C138.574 167.487 140.194 169.089 142.714 169.089ZM142.714 167.901C140.986 167.901 139.87 166.785 139.87 163.239V162.087C139.87 158.523 140.968 157.425 142.714 157.425C144.442 157.425 145.558 158.541 145.558 162.087V163.239C145.558 166.803 144.46 167.901 142.714 167.901ZM153.7 169.089C156.202 169.089 157.84 167.451 157.84 163.239V162.087C157.84 157.839 156.22 156.237 153.7 156.237C151.198 156.237 149.56 157.875 149.56 162.087V163.239C149.56 167.487 151.18 169.089 153.7 169.089ZM153.7 167.901C151.972 167.901 150.856 166.785 150.856 163.239V162.087C150.856 158.523 151.954 157.425 153.7 157.425C155.428 157.425 156.544 158.541 156.544 162.087V163.239C156.544 166.803 155.446 167.901 153.7 167.901ZM164.686 169.089C166.972 169.089 168.646 167.415 168.646 165.039V164.607C168.646 162.231 166.972 160.557 164.776 160.557C163.48 160.557 162.418 161.097 161.77 162.033C161.86 158.523 163.012 157.443 164.776 157.443C165.928 157.443 166.576 158.091 166.936 158.973H168.268C167.908 157.461 166.684 156.237 164.776 156.237C162.292 156.237 160.546 157.983 160.546 162.627V163.779C160.546 167.469 162.166 169.089 164.686 169.089ZM164.686 161.745C166.252 161.745 167.35 162.843 167.35 164.607V165.039C167.35 166.803 166.252 167.901 164.686 167.901C162.94 167.901 161.842 166.803 161.842 164.859V164.319C161.896 162.789 162.976 161.745 164.686 161.745ZM175.391 169.089C177.677 169.089 179.351 167.415 179.351 165.039V164.607C179.351 162.231 177.677 160.557 175.481 160.557C174.185 160.557 173.123 161.097 172.475 162.033C172.565 158.523 173.717 157.443 175.481 157.443C176.633 157.443 177.281 158.091 177.641 158.973H178.973C178.613 157.461 177.389 156.237 175.481 156.237C172.997 156.237 171.251 157.983 171.251 162.627V163.779C171.251 167.469 172.871 169.089 175.391 169.089ZM175.391 161.745C176.957 161.745 178.055 162.843 178.055 164.607V165.039C178.055 166.803 176.957 167.901 175.391 167.901C173.645 167.901 172.547 166.803 172.547 164.859V164.319C172.601 162.789 173.681 161.745 175.391 161.745ZM186.456 163.203H187.698C188.13 162.501 189.03 161.853 190.236 161.853C191.964 161.853 193.08 162.969 193.08 164.877C193.08 166.767 191.946 167.901 190.236 167.901C188.85 167.901 187.86 167.289 187.428 166.047H186.096C186.564 168.027 188.166 169.089 190.236 169.089C192.702 169.089 194.376 167.415 194.376 164.877C194.376 162.321 192.72 160.665 190.416 160.665C189.354 160.665 188.436 161.043 187.806 161.691L188.148 157.515H193.566V156.363H186.996L186.456 163.203ZM196.094 168.963H204.194V167.811H197.714L201.512 164.121C203.204 162.483 204.194 161.259 204.194 159.873C204.194 157.803 202.61 156.237 200.144 156.237C197.678 156.237 196.094 157.803 196.094 159.873H197.39C197.39 158.469 198.452 157.425 200.144 157.425C201.836 157.425 202.898 158.469 202.898 159.873C202.898 160.971 202.106 161.835 200.558 163.383L196.094 167.811V168.963ZM214.811 169.089C217.457 169.089 218.951 167.595 218.951 165.453C218.951 164.121 218.249 163.005 216.971 162.465C218.069 161.925 218.681 160.899 218.681 159.675C218.681 157.641 217.277 156.237 214.811 156.237C212.489 156.237 211.049 157.677 210.941 159.873H212.237C212.399 158.361 213.317 157.425 214.811 157.425C216.485 157.425 217.385 158.325 217.385 159.675C217.385 160.989 216.467 161.907 214.973 161.907H213.281V163.059H214.973C216.665 163.059 217.655 164.049 217.655 165.453C217.655 166.911 216.665 167.901 214.811 167.901C213.065 167.901 212.075 166.893 211.967 165.093H210.671C210.779 167.577 212.291 169.089 214.811 169.089ZM221.472 163.203H222.714C223.146 162.501 224.046 161.853 225.252 161.853C226.98 161.853 228.096 162.969 228.096 164.877C228.096 166.767 226.962 167.901 225.252 167.901C223.866 167.901 222.876 167.289 222.444 166.047H221.112C221.58 168.027 223.182 169.089 225.252 169.089C227.718 169.089 229.392 167.415 229.392 164.877C229.392 162.321 227.736 160.665 225.432 160.665C224.37 160.665 223.452 161.043 222.822 161.691L223.164 157.515H228.582V156.363H222.012L221.472 163.203Z" fill="white"/>
<path d="M50.4248 146.116C51.8948 146.116 52.8748 145.136 53.0748 143.896H52.3148C52.1148 144.776 51.4348 145.456 50.4248 145.456C49.2148 145.456 48.2948 144.536 48.2948 142.866V142.226C48.2948 140.546 49.2048 139.636 50.4248 139.636C51.4548 139.636 52.1148 140.296 52.3148 140.996H53.0748C52.8748 139.946 51.9048 138.976 50.4248 138.976C48.7848 138.976 47.5748 140.186 47.5748 142.226V142.866C47.5748 144.916 48.7748 146.116 50.4248 146.116ZM55.674 146.116C56.424 146.116 57.064 145.736 57.414 145.106L57.514 146.046H58.024V142.646C58.024 141.596 57.404 140.976 56.224 140.976C55.024 140.976 54.424 141.576 54.374 142.396H55.084C55.134 141.906 55.494 141.596 56.224 141.596C57.034 141.596 57.364 141.926 57.364 142.646V143.096H56.224C54.724 143.096 54.124 143.696 54.124 144.666C54.124 145.566 54.674 146.116 55.674 146.116ZM55.724 145.496C55.124 145.496 54.804 145.176 54.804 144.666C54.804 144.086 55.194 143.696 56.224 143.696H57.364V143.926C57.364 144.776 56.644 145.496 55.724 145.496ZM59.6693 146.046H60.3293V142.986C60.3593 142.156 60.9393 141.596 61.8693 141.596H62.3693V140.976H61.8693C61.1593 140.976 60.5793 141.296 60.2593 141.866L60.1793 141.046H59.6693V146.046ZM65.0305 146.116C65.7605 146.116 66.3405 145.816 66.6705 145.206L66.7605 146.046H67.2705V139.046H66.6105V141.776C66.2705 141.246 65.7205 140.976 65.0305 140.976C63.8905 140.976 63.0705 141.796 63.0705 143.326V143.766C63.0705 145.306 63.8805 146.116 65.0305 146.116ZM65.1805 145.496C64.3305 145.496 63.7505 144.916 63.7505 143.766V143.326C63.7505 142.166 64.3205 141.596 65.1805 141.596C65.9805 141.596 66.5805 142.186 66.6105 143.246V143.766C66.6105 144.886 66.0005 145.496 65.1805 145.496ZM71.4662 146.046H72.1262V142.986C72.1562 142.156 72.7362 141.596 73.6162 141.596C74.4262 141.596 74.9062 142.076 74.9062 143.046V146.046H75.5662V143.046C75.5662 141.686 74.8562 140.976 73.7162 140.976C72.9762 140.976 72.3862 141.296 72.0562 141.866L71.9762 141.046H71.4662V146.046ZM78.9682 146.116C79.6682 146.116 80.2482 145.796 80.5782 145.226L80.6582 146.046H81.1682V141.046H80.5082V144.046C80.5082 144.906 79.9182 145.496 79.0682 145.496C78.3082 145.496 77.8282 145.016 77.8282 144.046V141.046H77.1682V144.046C77.1682 145.406 77.8782 146.116 78.9682 146.116ZM82.8725 146.046H83.5325V142.986C83.5625 142.156 84.1425 141.596 84.8625 141.596C85.6125 141.596 86.0925 142.086 86.0925 143.046V146.046H86.7525V143.046V142.986C86.7825 142.156 87.3625 141.596 88.0825 141.596C88.8325 141.596 89.3125 142.086 89.3125 143.046V146.046H89.9725V143.046C89.9725 141.686 89.2625 140.976 88.2325 140.976C87.4725 140.976 86.8725 141.346 86.5625 141.976C86.2825 141.316 85.7225 140.976 85.0125 140.976C84.3525 140.976 83.7825 141.296 83.4625 141.866L83.3825 141.046H82.8725V146.046ZM93.8625 146.116C95.0025 146.116 95.8225 145.296 95.8225 143.766V143.326C95.8225 141.786 95.0125 140.976 93.8625 140.976C93.1725 140.976 92.6225 141.246 92.2825 141.776V139.046H91.6225V146.046H92.1325L92.2125 145.206C92.5525 145.816 93.1225 146.116 93.8625 146.116ZM93.7125 145.496C92.8925 145.496 92.2825 144.886 92.2825 143.766V143.246C92.3125 142.186 92.9125 141.596 93.7125 141.596C94.5625 141.596 95.1425 142.176 95.1425 143.326V143.766C95.1425 144.926 94.5725 145.496 93.7125 145.496ZM99.0682 146.116C100.298 146.116 100.968 145.446 101.168 144.586H100.488C100.288 145.106 99.8982 145.496 99.0682 145.496C98.1782 145.496 97.5982 144.916 97.5982 143.766V143.736H101.218V143.326C101.218 141.826 100.368 140.976 99.0682 140.976C97.7682 140.976 96.9182 141.826 96.9182 143.326V143.766C96.9182 145.276 97.7582 146.116 99.0682 146.116ZM99.0682 141.596C99.9082 141.596 100.478 142.116 100.528 143.156H97.5982C97.6582 142.156 98.2082 141.596 99.0682 141.596ZM102.619 146.046H103.279V142.986C103.309 142.156 103.889 141.596 104.819 141.596H105.319V140.976H104.819C104.109 140.976 103.529 141.296 103.209 141.866L103.129 141.046H102.619V146.046Z" fill="white"/>
<path d="M54.4448 214.982H56.8448L52.6048 208.742L56.5248 203.782H54.1888L49.9648 209.19V203.782H48.0448V214.982H49.9648V211.83L51.2928 210.198L54.4448 214.982ZM58.2011 214.982H65.0811V213.286H60.1211V203.782H58.2011V214.982ZM73.8359 214.982H75.9479L71.9479 203.782H69.7079L65.7079 214.982H67.7239L68.6519 212.15H72.8919L73.8359 214.982ZM70.0279 208.006L70.7799 205.702L71.5319 208.006L72.3319 210.454H69.2119L70.0279 208.006ZM81.0698 215.126C83.8538 215.126 85.5498 213.43 85.5498 210.422V203.782H83.6298V210.422C83.6298 212.39 82.6698 213.334 81.0698 213.334C79.4858 213.334 78.5098 212.358 78.5098 210.422V203.782H76.5898V210.422C76.5898 213.462 78.2538 215.126 81.0698 215.126ZM91.4767 215.126C94.3727 215.126 95.7167 213.798 95.7167 211.862C95.7167 207.574 89.4127 209.158 89.4127 206.774C89.4127 206.038 90.0207 205.43 91.4607 205.43C92.8687 205.43 93.3967 205.942 93.5087 207.222H95.5567C95.3967 204.822 94.1967 203.638 91.4767 203.638C88.7407 203.638 87.3967 204.966 87.3967 206.758C87.3967 210.87 93.7007 209.334 93.7007 211.83C93.7007 212.662 93.0127 213.318 91.4767 213.318C90.0047 213.318 89.3967 212.742 89.2847 211.222H87.2367C87.3967 213.878 88.6927 215.126 91.4767 215.126ZM104.682 214.982H106.922L110.762 203.782H108.746L105.802 212.742L102.602 203.782H100.522L104.682 214.982ZM117.695 214.982H119.807L115.807 203.782H113.567L109.567 214.982H111.583L112.511 212.15H116.751L117.695 214.982ZM113.887 208.006L114.639 205.702L115.391 208.006L116.191 210.454H113.071L113.887 208.006ZM121.014 214.982H127.894V213.286H122.934V203.782H121.014V214.982ZM129.248 214.982H136.448V213.286H131.168V210.07H135.488V208.374H131.168V205.478H136.448V203.782H129.248V214.982ZM141.961 215.126C144.857 215.126 146.201 213.798 146.201 211.862C146.201 207.574 139.897 209.158 139.897 206.774C139.897 206.038 140.505 205.43 141.945 205.43C143.353 205.43 143.881 205.942 143.993 207.222H146.041C145.881 204.822 144.681 203.638 141.961 203.638C139.225 203.638 137.881 204.966 137.881 206.758C137.881 210.87 144.185 209.334 144.185 211.83C144.185 212.662 143.497 213.318 141.961 213.318C140.489 213.318 139.881 212.742 139.769 211.222H137.721C137.881 213.878 139.177 215.126 141.961 215.126Z" fill="white"/>
<path d="M50.4248 192.134C51.8948 192.134 52.8748 191.154 53.0748 189.914H52.3148C52.1148 190.794 51.4348 191.474 50.4248 191.474C49.2148 191.474 48.2948 190.554 48.2948 188.884V188.244C48.2948 186.564 49.2048 185.654 50.4248 185.654C51.4548 185.654 52.1148 186.314 52.3148 187.014H53.0748C52.8748 185.964 51.9048 184.994 50.4248 184.994C48.7848 184.994 47.5748 186.204 47.5748 188.244V188.884C47.5748 190.934 48.7748 192.134 50.4248 192.134ZM55.674 192.134C56.424 192.134 57.064 191.754 57.414 191.124L57.514 192.064H58.024V188.664C58.024 187.614 57.404 186.994 56.224 186.994C55.024 186.994 54.424 187.594 54.374 188.414H55.084C55.134 187.924 55.494 187.614 56.224 187.614C57.034 187.614 57.364 187.944 57.364 188.664V189.114H56.224C54.724 189.114 54.124 189.714 54.124 190.684C54.124 191.584 54.674 192.134 55.674 192.134ZM55.724 191.514C55.124 191.514 54.804 191.194 54.804 190.684C54.804 190.104 55.194 189.714 56.224 189.714H57.364V189.944C57.364 190.794 56.644 191.514 55.724 191.514ZM59.6693 192.064H60.3293V189.004C60.3593 188.174 60.9393 187.614 61.8693 187.614H62.3693V186.994H61.8693C61.1593 186.994 60.5793 187.314 60.2593 187.884L60.1793 187.064H59.6693V192.064ZM65.0305 192.134C65.7605 192.134 66.3405 191.834 66.6705 191.224L66.7605 192.064H67.2705V185.064H66.6105V187.794C66.2705 187.264 65.7205 186.994 65.0305 186.994C63.8905 186.994 63.0705 187.814 63.0705 189.344V189.784C63.0705 191.324 63.8805 192.134 65.0305 192.134ZM65.1805 191.514C64.3305 191.514 63.7505 190.934 63.7505 189.784V189.344C63.7505 188.184 64.3205 187.614 65.1805 187.614C65.9805 187.614 66.5805 188.204 66.6105 189.264V189.784C66.6105 190.904 66.0005 191.514 65.1805 191.514ZM71.4662 192.064H72.1262V189.004C72.1562 188.184 72.7362 187.614 73.6162 187.614C74.4262 187.614 74.9062 188.094 74.9062 189.064V192.064H75.5662V189.064C75.5662 187.704 74.8562 186.994 73.7162 186.994C73.0062 186.994 72.4462 187.294 72.1262 187.824V185.064H71.4662V192.064ZM79.1182 192.134C80.4382 192.134 81.3182 191.254 81.3182 189.784V189.344C81.3182 187.864 80.4482 186.994 79.1182 186.994C77.7982 186.994 76.9182 187.874 76.9182 189.344V189.784C76.9182 191.264 77.7882 192.134 79.1182 192.134ZM79.1182 191.514C78.2282 191.514 77.5982 190.884 77.5982 189.784V189.344C77.5982 188.234 78.2182 187.614 79.1182 187.614C80.0082 187.614 80.6382 188.244 80.6382 189.344V189.784C80.6382 190.894 80.0182 191.514 79.1182 191.514ZM84.0162 192.064H84.4162V191.464H84.0962C83.6162 191.464 83.3762 191.214 83.3762 190.664V185.064H82.7162V190.744C82.7162 191.604 83.1762 192.064 84.0162 192.064ZM87.2278 192.134C87.9578 192.134 88.5378 191.834 88.8678 191.224L88.9578 192.064H89.4678V185.064H88.8078V187.794C88.4678 187.264 87.9178 186.994 87.2278 186.994C86.0878 186.994 85.2678 187.814 85.2678 189.344V189.784C85.2678 191.324 86.0778 192.134 87.2278 192.134ZM87.3778 191.514C86.5278 191.514 85.9478 190.934 85.9478 189.784V189.344C85.9478 188.184 86.5178 187.614 87.3778 187.614C88.1778 187.614 88.7778 188.204 88.8078 189.264V189.784C88.8078 190.904 88.1978 191.514 87.3778 191.514ZM93.0135 192.134C94.2435 192.134 94.9135 191.464 95.1135 190.604H94.4335C94.2335 191.124 93.8435 191.514 93.0135 191.514C92.1235 191.514 91.5435 190.934 91.5435 189.784V189.754H95.1635V189.344C95.1635 187.844 94.3135 186.994 93.0135 186.994C91.7135 186.994 90.8635 187.844 90.8635 189.344V189.784C90.8635 191.294 91.7035 192.134 93.0135 192.134ZM93.0135 187.614C93.8535 187.614 94.4235 188.134 94.4735 189.174H91.5435C91.6035 188.174 92.1535 187.614 93.0135 187.614ZM96.5639 192.064H97.2239V189.004C97.2539 188.174 97.8339 187.614 98.7639 187.614H99.2639V186.994H98.7639C98.0539 186.994 97.4739 187.314 97.1539 187.884L97.0739 187.064H96.5639V192.064ZM102.863 192.064H103.523V189.004C103.553 188.174 104.133 187.614 105.013 187.614C105.823 187.614 106.303 188.094 106.303 189.064V192.064H106.963V189.064C106.963 187.704 106.253 186.994 105.113 186.994C104.373 186.994 103.783 187.314 103.453 187.884L103.373 187.064H102.863V192.064ZM109.815 192.134C110.565 192.134 111.205 191.754 111.555 191.124L111.655 192.064H112.165V188.664C112.165 187.614 111.545 186.994 110.365 186.994C109.165 186.994 108.565 187.594 108.515 188.414H109.225C109.275 187.924 109.635 187.614 110.365 187.614C111.175 187.614 111.505 187.944 111.505 188.664V189.114H110.365C108.865 189.114 108.265 189.714 108.265 190.684C108.265 191.584 108.815 192.134 109.815 192.134ZM109.865 191.514C109.265 191.514 108.945 191.194 108.945 190.684C108.945 190.104 109.335 189.714 110.365 189.714H111.505V189.944C111.505 190.794 110.785 191.514 109.865 191.514ZM113.81 192.064H114.47V189.004C114.5 188.174 115.08 187.614 115.8 187.614C116.55 187.614 117.03 188.104 117.03 189.064V192.064H117.69V189.064V189.004C117.72 188.174 118.3 187.614 119.02 187.614C119.77 187.614 120.25 188.104 120.25 189.064V192.064H120.91V189.064C120.91 187.704 120.2 186.994 119.17 186.994C118.41 186.994 117.81 187.364 117.5 187.994C117.22 187.334 116.66 186.994 115.95 186.994C115.29 186.994 114.72 187.314 114.4 187.884L114.32 187.064H113.81V192.064ZM124.41 192.134C125.64 192.134 126.31 191.464 126.51 190.604H125.83C125.63 191.124 125.24 191.514 124.41 191.514C123.52 191.514 122.94 190.934 122.94 189.784V189.754H126.56V189.344C126.56 187.844 125.71 186.994 124.41 186.994C123.11 186.994 122.26 187.844 122.26 189.344V189.784C122.26 191.294 123.1 192.134 124.41 192.134ZM124.41 187.614C125.25 187.614 125.82 188.134 125.87 189.174H122.94C123 188.174 123.55 187.614 124.41 187.614Z" fill="white"/>
<g clip-path="url(#clip0)">
<g clip-path="url(#clip1)">
<path fill-rule="evenodd" clip-rule="evenodd" d="M362.411 210.44L362.999 210.803L363.22 210.44L362.999 210.078L362.411 210.44Z" fill="white"/>
<path fill-rule="evenodd" clip-rule="evenodd" d="M347.992 210.078L347.771 210.44L347.985 210.803L348.58 210.44L347.992 210.078Z" fill="white"/>
<path fill-rule="evenodd" clip-rule="evenodd" d="M362.999 210.078V210.036L362.902 209.89C362.812 209.764 362.688 209.59 362.529 209.381C362.099 208.826 361.62 208.313 361.097 207.847C359.573 206.414 357.579 205.6 355.495 205.56C353.439 205.611 351.472 206.417 349.963 207.826C349.44 208.292 348.961 208.805 348.531 209.36C348.372 209.569 348.248 209.743 348.158 209.869L348.061 210.015V210.057L348.58 210.44L347.985 210.803V210.845L348.082 210.991C348.172 211.117 348.296 211.291 348.455 211.5C348.908 212.066 349.412 212.586 349.963 213.055C351.472 214.464 353.439 215.27 355.495 215.321C357.564 215.278 359.545 214.472 361.063 213.055C361.586 212.589 362.065 212.076 362.494 211.521C362.653 211.312 362.778 211.138 362.868 211.012L362.965 210.866V210.824L362.411 210.44L362.999 210.078ZM361.409 210.664C361.029 211.148 360.607 211.598 360.15 212.009C358.885 213.203 357.228 213.886 355.495 213.927C353.763 213.886 352.106 213.203 350.841 212.009C350.384 211.6 349.965 211.15 349.589 210.664C349.52 210.58 349.465 210.51 349.416 210.44C349.368 210.371 349.52 210.301 349.589 210.217C349.965 209.731 350.384 209.28 350.841 208.872C352.106 207.678 353.763 206.995 355.495 206.954C357.228 206.995 358.885 207.678 360.15 208.872C360.607 209.282 361.029 209.733 361.409 210.217L361.574 210.44L361.409 210.664Z" fill="white"/>
<path d="M355.495 212.532C356.641 212.532 357.57 211.596 357.57 210.44C357.57 209.285 356.641 208.349 355.495 208.349C354.349 208.349 353.42 209.285 353.42 210.44C353.42 211.596 354.349 212.532 355.495 212.532Z" fill="white"/>
</g>
</g>
<path d="M308.947 213.046C310.179 213.046 311.171 212.054 311.171 210.822C311.171 209.59 310.179 208.598 308.947 208.598C307.715 208.598 306.723 209.59 306.723 210.822C306.723 212.054 307.715 213.046 308.947 213.046ZM316.15 213.046C317.382 213.046 318.374 212.054 318.374 210.822C318.374 209.59 317.382 208.598 316.15 208.598C314.918 208.598 313.926 209.59 313.926 210.822C313.926 212.054 314.918 213.046 316.15 213.046ZM323.353 213.046C324.585 213.046 325.577 212.054 325.577 210.822C325.577 209.59 324.585 208.598 323.353 208.598C322.121 208.598 321.129 209.59 321.129 210.822C321.129 212.054 322.121 213.046 323.353 213.046Z" fill="white"/>
<path d="M308.847 192.134C310.317 192.134 311.297 191.154 311.497 189.914H310.737C310.537 190.794 309.857 191.474 308.847 191.474C307.637 191.474 306.717 190.554 306.717 188.884V188.244C306.717 186.564 307.627 185.654 308.847 185.654C309.877 185.654 310.537 186.314 310.737 187.014H311.497C311.297 185.964 310.327 184.994 308.847 184.994C307.207 184.994 305.997 186.204 305.997 188.244V188.884C305.997 190.934 307.197 192.134 308.847 192.134ZM314.743 192.064H315.543L318.043 185.064H317.323L315.153 191.244L312.803 185.064H312.043L314.743 192.064ZM321.54 192.064H322.34L324.84 185.064H324.12L321.95 191.244L319.6 185.064H318.84L321.54 192.064ZM331.142 192.134C332.612 192.134 333.592 191.154 333.792 189.914H333.032C332.832 190.794 332.152 191.474 331.142 191.474C329.932 191.474 329.012 190.554 329.012 188.884V188.244C329.012 186.564 329.922 185.654 331.142 185.654C332.172 185.654 332.832 186.314 333.032 187.014H333.792C333.592 185.964 332.622 184.994 331.142 184.994C329.502 184.994 328.292 186.204 328.292 188.244V188.884C328.292 190.934 329.492 192.134 331.142 192.134ZM337.091 192.134C338.411 192.134 339.291 191.254 339.291 189.784V189.344C339.291 187.864 338.421 186.994 337.091 186.994C335.771 186.994 334.891 187.874 334.891 189.344V189.784C334.891 191.264 335.761 192.134 337.091 192.134ZM337.091 191.514C336.201 191.514 335.571 190.884 335.571 189.784V189.344C335.571 188.234 336.191 187.614 337.091 187.614C337.981 187.614 338.611 188.244 338.611 189.344V189.784C338.611 190.894 337.991 191.514 337.091 191.514ZM342.349 192.134C343.079 192.134 343.659 191.834 343.989 191.224L344.079 192.064H344.589V185.064H343.929V187.794C343.589 187.264 343.039 186.994 342.349 186.994C341.209 186.994 340.389 187.814 340.389 189.344V189.784C340.389 191.324 341.199 192.134 342.349 192.134ZM342.499 191.514C341.649 191.514 341.069 190.934 341.069 189.784V189.344C341.069 188.184 341.639 187.614 342.499 187.614C343.299 187.614 343.899 188.204 343.929 189.264V189.784C343.929 190.904 343.319 191.514 342.499 191.514ZM348.135 192.134C349.365 192.134 350.035 191.464 350.235 190.604H349.555C349.355 191.124 348.965 191.514 348.135 191.514C347.245 191.514 346.665 190.934 346.665 189.784V189.754H350.285V189.344C350.285 187.844 349.435 186.994 348.135 186.994C346.835 186.994 345.985 187.844 345.985 189.344V189.784C345.985 191.294 346.825 192.134 348.135 192.134ZM348.135 187.614C348.975 187.614 349.545 188.134 349.595 189.174H346.665C346.725 188.174 347.275 187.614 348.135 187.614Z" fill="white"/>
<path d="M310.227 169.107C312.691 169.107 314.227 167.571 314.227 163.779V162.947C314.227 159.123 312.723 157.619 310.227 157.619C307.763 157.619 306.227 159.155 306.227 162.947V163.779C306.227 167.603 307.747 169.107 310.227 169.107ZM310.227 167.315C309.011 167.315 308.243 166.547 308.243 163.779V162.947C308.243 160.147 308.979 159.411 310.227 159.411C311.427 159.411 312.211 160.179 312.211 162.947V163.779C312.211 166.579 311.459 167.315 310.227 167.315ZM319.672 169.107C322.152 169.107 323.752 167.507 323.752 163.299V162.467C323.752 159.187 322.184 157.619 319.752 157.619C317.448 157.619 315.912 159.155 315.912 161.347V161.539C315.912 163.875 317.304 165.267 319.592 165.267C320.488 165.267 321.304 164.931 321.88 164.307C321.816 166.547 320.984 167.315 319.752 167.315C318.904 167.315 318.44 166.851 318.2 166.323H316.232C316.552 167.923 317.736 169.107 319.672 169.107ZM319.752 163.475C318.664 163.475 317.928 162.739 317.928 161.539V161.347C317.928 160.147 318.664 159.411 319.752 159.411C321 159.411 321.736 160.147 321.736 161.347V161.539C321.736 162.739 321 163.475 319.752 163.475ZM324.708 172.163H326.628L331.748 157.763H329.828L324.708 172.163ZM332.391 168.963H339.911V167.267H334.903L337.415 164.979C339.127 163.411 339.911 162.307 339.911 161.043C339.911 159.027 338.503 157.619 336.151 157.619C333.815 157.619 332.391 159.027 332.391 161.203H334.407C334.407 160.067 335.063 159.411 336.151 159.411C337.239 159.411 337.895 160.067 337.895 161.043C337.895 161.795 337.431 162.435 336.007 163.795L332.391 167.267V168.963ZM341.188 168.963H348.708V167.267H343.7L346.212 164.979C347.924 163.411 348.708 162.307 348.708 161.043C348.708 159.027 347.3 157.619 344.948 157.619C342.612 157.619 341.188 159.027 341.188 161.203H343.204C343.204 160.067 343.86 159.411 344.948 159.411C346.036 159.411 346.692 160.067 346.692 161.043C346.692 161.795 346.228 162.435 344.804 163.795L341.188 167.267V168.963Z" fill="white"/>
<path d="M308.347 146.046H309.147L311.647 139.046H310.927L308.757 145.226L306.407 139.046H305.647L308.347 146.046ZM313.295 146.116C314.045 146.116 314.685 145.736 315.035 145.106L315.135 146.046H315.645V142.646C315.645 141.596 315.025 140.976 313.845 140.976C312.645 140.976 312.045 141.576 311.995 142.396H312.705C312.755 141.906 313.115 141.596 313.845 141.596C314.655 141.596 314.985 141.926 314.985 142.646V143.096H313.845C312.345 143.096 311.745 143.696 311.745 144.666C311.745 145.566 312.295 146.116 313.295 146.116ZM313.345 145.496C312.745 145.496 312.425 145.176 312.425 144.666C312.425 144.086 312.815 143.696 313.845 143.696H314.985V143.926C314.985 144.776 314.265 145.496 313.345 145.496ZM318.59 146.046H318.99V145.446H318.67C318.19 145.446 317.95 145.196 317.95 144.646V139.046H317.29V144.726C317.29 145.586 317.75 146.046 318.59 146.046ZM320.242 146.046H320.902V141.046H320.242V146.046ZM320.572 140.166C320.832 140.166 321.042 139.956 321.042 139.696C321.042 139.436 320.832 139.226 320.572 139.226C320.312 139.226 320.102 139.436 320.102 139.696C320.102 139.956 320.312 140.166 320.572 140.166ZM324.361 146.116C325.091 146.116 325.671 145.816 326.001 145.206L326.091 146.046H326.601V139.046H325.941V141.776C325.601 141.246 325.051 140.976 324.361 140.976C323.221 140.976 322.401 141.796 322.401 143.326V143.766C322.401 145.306 323.211 146.116 324.361 146.116ZM324.511 145.496C323.661 145.496 323.081 144.916 323.081 143.766V143.326C323.081 142.166 323.651 141.596 324.511 141.596C325.311 141.596 325.911 142.186 325.941 143.246V143.766C325.941 144.886 325.331 145.496 324.511 145.496ZM333.036 146.116C334.176 146.116 334.996 145.296 334.996 143.766V143.326C334.996 141.786 334.186 140.976 333.036 140.976C332.296 140.976 331.726 141.276 331.386 141.886L331.306 141.046H330.796V148.046H331.456V145.316C331.796 145.856 332.346 146.116 333.036 146.116ZM332.886 145.496C332.046 145.496 331.456 144.876 331.456 143.766V143.246C331.486 142.176 332.086 141.596 332.886 141.596C333.736 141.596 334.316 142.176 334.316 143.326V143.766C334.316 144.926 333.746 145.496 332.886 145.496ZM338.242 146.116C339.472 146.116 340.142 145.446 340.342 144.586H339.662C339.462 145.106 339.072 145.496 338.242 145.496C337.352 145.496 336.772 144.916 336.772 143.766V143.736H340.392V143.326C340.392 141.826 339.542 140.976 338.242 140.976C336.942 140.976 336.092 141.826 336.092 143.326V143.766C336.092 145.276 336.932 146.116 338.242 146.116ZM338.242 141.596C339.082 141.596 339.652 142.116 339.702 143.156H336.772C336.832 142.156 337.382 141.596 338.242 141.596ZM341.792 146.046H342.452V142.986C342.482 142.156 343.062 141.596 343.992 141.596H344.492V140.976H343.992C343.282 140.976 342.702 141.296 342.382 141.866L342.302 141.046H341.792V146.046ZM345.691 146.046H346.351V141.046H345.691V146.046ZM346.021 140.166C346.281 140.166 346.491 139.956 346.491 139.696C346.491 139.436 346.281 139.226 346.021 139.226C345.761 139.226 345.551 139.436 345.551 139.696C345.551 139.956 345.761 140.166 346.021 140.166ZM350.05 146.116C351.37 146.116 352.25 145.236 352.25 143.766V143.326C352.25 141.846 351.38 140.976 350.05 140.976C348.73 140.976 347.85 141.856 347.85 143.326V143.766C347.85 145.246 348.72 146.116 350.05 146.116ZM350.05 145.496C349.16 145.496 348.53 144.866 348.53 143.766V143.326C348.53 142.216 349.15 141.596 350.05 141.596C350.94 141.596 351.57 142.226 351.57 143.326V143.766C351.57 144.876 350.95 145.496 350.05 145.496ZM355.308 146.116C356.038 146.116 356.618 145.816 356.948 145.206L357.038 146.046H357.548V139.046H356.888V141.776C356.548 141.246 355.998 140.976 355.308 140.976C354.168 140.976 353.348 141.796 353.348 143.326V143.766C353.348 145.306 354.158 146.116 355.308 146.116ZM355.458 145.496C354.608 145.496 354.028 144.916 354.028 143.766V143.326C354.028 142.166 354.598 141.596 355.458 141.596C356.258 141.596 356.858 142.186 356.888 143.246V143.766C356.888 144.886 356.278 145.496 355.458 145.496Z" fill="white"/>
<path d="M132.154 99.3943H135.054C135.579 98.5943 136.604 97.9943 137.904 97.9943C139.804 97.9943 141.004 99.1943 141.004 101.269C141.004 103.344 139.804 104.544 137.904 104.544C136.454 104.544 135.304 103.894 134.804 102.669H131.654C132.229 105.644 134.704 107.344 137.904 107.344C141.804 107.344 144.154 104.944 144.154 101.269C144.154 97.5693 141.804 95.1943 138.404 95.1943C137.179 95.1943 136.104 95.5443 135.279 96.1693L135.579 92.2693H143.029V89.6193H132.904L132.154 99.3943ZM152.54 107.344C156.39 107.344 158.79 104.944 158.79 99.0193V97.7193C158.79 91.7443 156.44 89.3943 152.54 89.3943C148.69 89.3943 146.29 91.7943 146.29 97.7193V99.0193C146.29 104.994 148.665 107.344 152.54 107.344ZM152.54 104.544C150.64 104.544 149.44 103.344 149.44 99.0193V97.7193C149.44 93.3443 150.59 92.1943 152.54 92.1943C154.415 92.1943 155.64 93.3943 155.64 97.7193V99.0193C155.64 103.394 154.465 104.544 152.54 104.544ZM167.799 107.344C171.649 107.344 174.049 104.944 174.049 99.0193V97.7193C174.049 91.7443 171.699 89.3943 167.799 89.3943C163.949 89.3943 161.549 91.7943 161.549 97.7193V99.0193C161.549 104.994 163.924 107.344 167.799 107.344ZM167.799 104.544C165.899 104.544 164.699 103.344 164.699 99.0193V97.7193C164.699 93.3443 165.849 92.1943 167.799 92.1943C169.674 92.1943 170.899 93.3943 170.899 97.7193V99.0193C170.899 103.394 169.724 104.544 167.799 104.544ZM178.558 107.344C179.708 107.344 180.558 106.444 180.558 105.344C180.558 104.244 179.708 103.344 178.558 103.344C177.408 103.344 176.558 104.244 176.558 105.344C176.558 106.444 177.408 107.344 178.558 107.344ZM189.308 107.344C193.158 107.344 195.558 104.944 195.558 99.0193V97.7193C195.558 91.7443 193.208 89.3943 189.308 89.3943C185.458 89.3943 183.058 91.7943 183.058 97.7193V99.0193C183.058 104.994 185.433 107.344 189.308 107.344ZM189.308 104.544C187.408 104.544 186.208 103.344 186.208 99.0193V97.7193C186.208 93.3443 187.358 92.1943 189.308 92.1943C191.183 92.1943 192.408 93.3943 192.408 97.7193V99.0193C192.408 103.394 191.233 104.544 189.308 104.544ZM204.567 107.344C208.417 107.344 210.817 104.944 210.817 99.0193V97.7193C210.817 91.7443 208.467 89.3943 204.567 89.3943C200.717 89.3943 198.317 91.7943 198.317 97.7193V99.0193C198.317 104.994 200.692 107.344 204.567 107.344ZM204.567 104.544C202.667 104.544 201.467 103.344 201.467 99.0193V97.7193C201.467 93.3443 202.617 92.1943 204.567 92.1943C206.442 92.1943 207.667 93.3943 207.667 97.7193V99.0193C207.667 103.394 206.492 104.544 204.567 104.544ZM219.825 107.344C223.675 107.344 226.075 104.944 226.075 99.0193V97.7193C226.075 91.7443 223.725 89.3943 219.825 89.3943C215.975 89.3943 213.575 91.7943 213.575 97.7193V99.0193C213.575 104.994 215.95 107.344 219.825 107.344ZM219.825 104.544C217.925 104.544 216.725 103.344 216.725 99.0193V97.7193C216.725 93.3443 217.875 92.1943 219.825 92.1943C221.7 92.1943 222.925 93.3943 222.925 97.7193V99.0193C222.925 103.394 221.75 104.544 219.825 104.544ZM242.334 107.344C246.684 107.344 249.334 104.694 249.334 99.9943V89.6193H246.334V99.9943C246.334 103.069 244.834 104.544 242.334 104.544C239.859 104.544 238.334 103.019 238.334 99.9943V89.6193H235.334V99.9943C235.334 104.744 237.934 107.344 242.334 107.344ZM258.595 107.344C263.12 107.344 265.22 105.269 265.22 102.244C265.22 95.5443 255.37 98.0193 255.37 94.2943C255.37 93.1443 256.32 92.1943 258.57 92.1943C260.77 92.1943 261.595 92.9943 261.77 94.9943H264.97C264.72 91.2443 262.845 89.3943 258.595 89.3943C254.32 89.3943 252.22 91.4693 252.22 94.2693C252.22 100.694 262.07 98.2943 262.07 102.194C262.07 103.494 260.995 104.519 258.595 104.519C256.295 104.519 255.345 103.619 255.17 101.244H251.97C252.22 105.394 254.245 107.344 258.595 107.344ZM267.979 107.119H273.729C279.129 107.119 282.104 104.144 282.104 99.0693V97.6693C282.104 92.5443 279.179 89.6193 273.729 89.6193H267.979V107.119ZM273.729 92.2693C277.129 92.2693 278.954 94.0693 278.954 97.6693V99.0693C278.954 102.719 277.179 104.469 273.729 104.469H270.979V92.2693H273.729Z" fill="white"/>
<path d="M79.4782 69.899L78.3457 71.0416C78.0479 71.3417 77.6933 71.5808 77.3022 71.7453C76.911 71.9098 76.491 71.9964 76.066 72.0002C75.641 72.004 75.2195 71.9249 74.8254 71.7674C74.4313 71.6099 74.0724 71.3772 73.7692 71.0824L64.6528 62.2228C64.5762 62.1485 64.5326 62.0471 64.5315 61.941L64.4854 56.8454C64.4854 56.7392 64.528 56.6374 64.6038 56.5623C64.6797 56.4872 64.7826 56.4451 64.8898 56.4451L70.2065 56.3978L79.437 65.3703C80.0491 65.9655 80.3974 66.7769 80.4051 67.6262C80.4128 68.4755 80.0794 69.293 79.4782 69.899Z" fill="url(#paint2_linear)"/>
<g style="mix-blend-mode:overlay">
<g style="mix-blend-mode:overlay">
<path d="M64.6738 56.6371C65.8819 57.7661 67.0789 58.9057 68.2649 60.056C68.8603 60.6293 69.4493 61.2082 70.0447 61.7839L71.8115 63.5214L73.5694 65.2685C74.1519 65.8538 74.7376 66.4367 75.3168 67.0252C76.4801 68.1995 77.6324 69.3832 78.7736 70.5762C77.5655 69.4478 76.3685 68.3082 75.1825 67.1573C74.5871 66.584 73.9982 66.0051 73.4027 65.4286L71.6359 63.6903L69.8788 61.9448C69.2964 61.3595 68.7107 60.7766 68.1314 60.1881C66.9676 59.0149 65.815 57.8312 64.6738 56.6371Z" fill="#FCFCFC"/>
</g>
</g>
<path d="M62.8672 56.8599L62.9133 61.9555C62.9138 62.0081 62.9039 62.0602 62.8841 62.109C62.8642 62.1578 62.8348 62.2022 62.7976 62.2397L53.5591 71.5461C53.0329 72.0763 52.3156 72.3779 51.5648 72.3847C50.814 72.3914 50.0912 72.1028 49.5554 71.5821L47.8234 69.9007C47.558 69.6428 47.3466 69.3358 47.2011 68.997C47.0557 68.6583 46.9791 68.2945 46.9757 67.9265C46.9723 67.5584 47.0422 67.1933 47.1814 66.852C47.3206 66.5107 47.5264 66.1999 47.787 65.9373L57.0255 56.6285C57.1006 56.5527 57.2031 56.5095 57.3103 56.5084L62.4595 56.4628C62.5126 56.4624 62.5653 56.4723 62.6145 56.492C62.6638 56.5118 62.7086 56.5409 62.7465 56.5778C62.7843 56.6146 62.8145 56.6585 62.8352 56.707C62.8559 56.7554 62.8668 56.8073 62.8672 56.8599Z" fill="url(#paint3_linear)"/>
<g style="mix-blend-mode:overlay" opacity="0.5">
<g style="mix-blend-mode:overlay" opacity="0.5">
<path d="M62.688 56.662C62.1112 57.2713 61.5231 57.8694 60.9406 58.4739L59.1754 60.2683C57.9984 61.4645 56.8083 62.6463 55.6159 63.8289C54.4235 65.0115 53.2262 66.1854 52.0184 67.352L50.2087 69.0974C49.5979 69.6731 48.9952 70.2552 48.3779 70.8261C48.9547 70.2168 49.5429 69.6179 50.1245 69.0142L51.8897 67.2198C53.0668 66.0244 54.2568 64.8418 55.4493 63.6592C56.6417 62.4766 57.839 61.3028 59.0468 60.1362L60.8597 58.3891C61.4681 57.8134 62.0724 57.2329 62.688 56.662Z" fill="#FCFCFC"/>
</g>
</g>
<path d="M79.5398 45.367L70.3053 54.675C70.2302 54.7508 70.1278 54.794 70.0205 54.7951L64.873 54.8407C64.7657 54.8407 64.6628 54.7985 64.587 54.7234C64.5111 54.6484 64.4685 54.5465 64.4685 54.4404L64.4224 49.344C64.4219 49.2914 64.4318 49.2392 64.4517 49.1905C64.4715 49.1417 64.5009 49.0973 64.5381 49.0597L73.7686 39.7566C74.0291 39.4939 74.3393 39.2847 74.6816 39.1407C75.0238 38.9968 75.3914 38.9209 75.7633 38.9176C76.1351 38.9143 76.504 38.9834 76.8488 39.1212C77.1937 39.259 77.5077 39.4626 77.773 39.7205L79.5043 41.402C79.7698 41.6599 79.9814 41.9671 80.1269 42.306C80.2724 42.645 80.349 43.0089 80.3523 43.3772C80.3556 43.7454 80.2856 44.1107 80.1462 44.4521C80.0068 44.7935 79.8007 45.1044 79.5398 45.367Z" fill="url(#paint4_linear)"/>
<g style="mix-blend-mode:overlay" opacity="0.5">
<g style="mix-blend-mode:overlay" opacity="0.5">
<path d="M64.5933 54.7157C65.7409 53.513 66.9005 52.3211 68.0719 51.1398C68.6544 50.5473 69.2425 49.9604 69.8282 49.3703L71.5942 47.6088L73.3699 45.8585C73.9653 45.278 74.5567 44.6951 75.1554 44.1178C76.3446 42.9595 77.5464 41.8131 78.761 40.6788C77.6139 41.882 76.4543 43.0742 75.2824 44.2555C74.6999 44.8488 74.111 45.4349 73.5261 46.025L71.7592 47.7865L69.9795 49.5368C69.3849 50.1173 68.7927 50.7002 68.194 51.2775C67.0075 52.4321 65.8073 53.5782 64.5933 54.7157Z" fill="#FCFCFC"/>
</g>
</g>
<path d="M62.7986 49.3617L62.8447 54.4581C62.8447 54.5643 62.8021 54.6661 62.7262 54.7412C62.6504 54.8163 62.5475 54.8584 62.4402 54.8584L57.291 54.9041C57.2379 54.9046 57.1852 54.8948 57.1359 54.8751C57.0867 54.8555 57.0418 54.8264 57.0038 54.7896L47.8963 45.9324C47.5924 45.6378 47.3502 45.2868 47.1836 44.8994C47.0169 44.5121 46.929 44.096 46.925 43.675C46.9209 43.254 47.0007 42.8364 47.1599 42.4459C47.3191 42.0555 47.5545 41.7 47.8526 41.3997L48.9852 40.2571C49.587 39.6523 50.4068 39.3086 51.2645 39.3017C52.1222 39.2948 52.9475 39.6252 53.5592 40.2203L62.6781 49.0799C62.7544 49.1543 62.7977 49.2557 62.7986 49.3617Z" fill="url(#paint5_linear)"/>
<g style="mix-blend-mode:overlay">
<g style="mix-blend-mode:overlay">
<path d="M62.6893 54.7408C62.0728 54.1691 61.4677 53.587 60.8569 53.0097L59.0424 51.261C57.8329 50.0952 56.6373 48.9158 55.4416 47.738C54.2459 46.5602 53.0583 45.3712 51.8821 44.1741L50.1144 42.3774C49.532 41.7729 48.943 41.1764 48.3662 40.5638C48.9818 41.1355 49.587 41.72 50.1986 42.2941L52.0131 44.042C53.2225 45.2078 54.4182 46.3872 55.6139 47.565C56.8096 48.7429 57.9972 49.9319 59.1734 51.1289L60.941 52.9296C61.5235 53.5318 62.1124 54.1307 62.6893 54.7408Z" fill="#FCFCFC"/>
</g>
</g>
</g>
<defs>
<filter id="filter0_d" x="0" y="0" width="414" height="280" filterUnits="userSpaceOnUse" color-interpolation-filters="sRGB">
<feFlood flood-opacity="0" result="BackgroundImageFix"/>
<feColorMatrix in="SourceAlpha" type="matrix" values="0 0 0 0 0 0 0 0 0 0 0 0 0 0 0 0 0 0 127 0"/>
<feOffset dy="8"/>
<feGaussianBlur stdDeviation="13"/>
<feColorMatrix type="matrix" values="0 0 0 0 0 0 0 0 0 0 0 0 0 0 0 0 0 0 0.25 0"/>
<feBlend mode="normal" in2="BackgroundImageFix" result="effect1_dropShadow"/>
<feBlend mode="normal" in="SourceGraphic" in2="effect1_dropShadow" result="shape"/>
</filter>
<linearGradient id="paint0_linear" x1="-48.4015" y1="98.2099" x2="78.2288" y2="381.45" gradientUnits="userSpaceOnUse">
<stop stop-color="#707C93" stop-opacity="0.80081"/>
<stop offset="1" stop-color="#242841"/>
</linearGradient>
<radialGradient id="paint1_radial" cx="0" cy="0" r="1" gradientUnits="userSpaceOnUse" gradientTransform="translate(5.22946 52.6443) rotate(12.667) scale(135.341 139.016)">
<stop stop-color="#00E4F4"/>
<stop offset="1" stop-color="#40465E" stop-opacity="0"/>
</radialGradient>
<linearGradient id="paint2_linear" x1="72.4468" y1="71.9983" x2="72.4461" y2="56.3923" gradientUnits="userSpaceOnUse">
<stop stop-color="#00F3FF"/>
<stop offset="1" stop-color="#00AECB"/>
</linearGradient>
<linearGradient id="paint3_linear" x1="46.9806" y1="64.4241" x2="62.915" y2="64.4235" gradientUnits="userSpaceOnUse">
<stop stop-color="#E1BC29"/>
<stop offset="1" stop-color="#F9BB13"/>
</linearGradient>
<linearGradient id="paint4_linear" x1="64.4177" y1="46.8776" x2="80.3521" y2="46.8769" gradientUnits="userSpaceOnUse">
<stop stop-color="#3CDC58"/>
<stop offset="1" stop-color="#09E85E"/>
</linearGradient>
<linearGradient id="paint5_linear" x1="48.6551" y1="47.105" x2="61.203" y2="47.1043" gradientUnits="userSpaceOnUse">
<stop stop-color="#E15554"/>
<stop offset="0.12" stop-color="#E74252"/>
<stop offset="0.35" stop-color="#F0254F"/>
<stop offset="0.57" stop-color="#F7114D"/>
<stop offset="0.79" stop-color="#FB044B"/>
<stop offset="1" stop-color="#FC004B"/>
</linearGradient>
<clipPath id="clip0">
</clipPath>
<clipPath id="clip1">
</clipPath>
</defs>
</svg>
