<svg width="68" height="68" viewBox="0 0 68 68" fill="none" xmlns="http://www.w3.org/2000/svg">
<path d="M34.7378 16.1749C38.646 16.1749 42.4332 17.4055 45.6084 19.7435L40.6007 20.4819C39.6234 20.6049 38.7682 21.4663 38.8904 22.4508C39.0125 23.4352 39.8677 24.2966 40.845 24.1735H41.0894L49.6389 22.943C50.1275 22.8189 50.494 22.5738 50.8605 22.2046C51.1049 21.8355 51.227 21.3433 51.227 20.85L50.0054 12.2382C49.8832 11.2537 48.9059 10.5154 47.9296 10.6384C46.9523 10.7615 46.2193 11.7449 46.3414 12.7304L46.8301 16.1749C39.0136 11.0076 28.7537 11.3768 21.4238 17.0363C13.9738 22.8199 10.9197 32.6623 13.8516 41.6454L16.7826 38.6921C15.5609 33.1545 16.9047 27.495 20.3254 23.066C23.745 18.636 29.2414 16.1749 34.7378 16.1749Z" fill="url(#paint0_linear)"/>
<path d="M55.6239 27.6181L52.693 30.5714C54.2811 38.0768 51.1048 45.8283 44.7532 50.0122C38.2805 54.3181 29.8532 53.9499 23.7449 49.2738L27.6532 48.6585C28.6305 48.5355 29.3635 47.5521 29.2413 46.5666C29.1192 45.5821 28.1418 44.8448 27.1656 44.9679L18.615 46.1985C18.1263 46.3205 17.7598 46.5666 17.3934 46.9358C17.149 47.3049 17.0269 47.7971 17.0269 48.2904L18.2485 56.9022C18.4928 57.8867 19.2258 58.625 20.081 58.625H20.3253C20.814 58.502 21.1805 58.2559 21.547 57.8867C21.7913 57.5175 21.9135 57.0253 21.9135 56.5331L21.3026 52.1041C28.997 58.0097 39.5012 58.2559 47.4409 52.5963C55.3796 47.0588 58.678 36.8473 55.6239 27.6181Z" fill="url(#paint1_linear)"/>
<defs>
<linearGradient id="paint0_linear" x1="12.7501" y1="35.2713" x2="47.9255" y2="31.4581" gradientUnits="userSpaceOnUse">
<stop stop-color="#2FC6F6"/>
<stop offset="1" stop-color="#2785FE"/>
</linearGradient>
<linearGradient id="paint1_linear" x1="17.0269" y1="52.254" x2="53.3141" y2="48.191" gradientUnits="userSpaceOnUse">
<stop stop-color="#2FC6F6"/>
<stop offset="1" stop-color="#2785FE"/>
</linearGradient>
</defs>
</svg>
