<svg width="32" height="32" viewBox="0 0 32 32" fill="none" xmlns="http://www.w3.org/2000/svg">
<circle cx="16" cy="16" r="16" fill="url(#paint0_linear)"/>
<path d="M16 11.75C16.2472 11.75 16.4889 11.6767 16.6945 11.5393C16.9 11.402 17.0602 11.2068 17.1549 10.9784C17.2495 10.7499 17.2742 10.4986 17.226 10.2561C17.1778 10.0137 17.0587 9.79093 16.8839 9.61612C16.7091 9.4413 16.4863 9.32225 16.2439 9.27402C16.0014 9.22579 15.7501 9.25054 15.5216 9.34515C15.2932 9.43976 15.098 9.59998 14.9607 9.80554C14.8233 10.0111 14.75 10.2528 14.75 10.5C14.7504 10.8314 14.8822 11.1491 15.1166 11.3834C15.3509 11.6178 15.6686 11.7496 16 11.75ZM16 9.75C16.1483 9.75 16.2933 9.79399 16.4167 9.8764C16.54 9.95881 16.6361 10.0759 16.6929 10.213C16.7497 10.35 16.7645 10.5008 16.7356 10.6463C16.7067 10.7918 16.6352 10.9254 16.5303 11.0303C16.4254 11.1352 16.2918 11.2067 16.1463 11.2356C16.0008 11.2645 15.85 11.2497 15.713 11.1929C15.5759 11.1361 15.4588 11.04 15.3764 10.9167C15.294 10.7933 15.25 10.6483 15.25 10.5C15.25 10.3011 15.329 10.1103 15.4697 9.96967C15.6103 9.82902 15.8011 9.75 16 9.75Z" fill="white"/>
<path d="M22.25 14.5C22.3163 14.5 22.3799 14.4736 22.4268 14.4267C22.4737 14.3799 22.5 14.3163 22.5 14.25V13.5H22.75C22.8163 13.5 22.8799 13.4736 22.9268 13.4267C22.9737 13.3799 23 13.3163 23 13.25V12.5H23.25C23.3163 12.5 23.3799 12.4736 23.4268 12.4267C23.4737 12.3799 23.5 12.3163 23.5 12.25V11.25C23.5003 11.1979 23.4843 11.147 23.4543 11.1044C23.4243 11.0618 23.3817 11.0297 23.3325 11.0125L16.0825 8.51246C16.0289 8.49495 15.9711 8.49495 15.9175 8.51246L8.6675 11.0125C8.61832 11.0297 8.57573 11.0618 8.5457 11.1044C8.51567 11.147 8.49969 11.1979 8.5 11.25V12.25C8.5 12.3163 8.52634 12.3799 8.57323 12.4267C8.62011 12.4736 8.6837 12.5 8.75 12.5H9V13.25C9 13.3163 9.02634 13.3799 9.07323 13.4267C9.12011 13.4736 9.1837 13.5 9.25 13.5H9.5V14.25C9.5 14.3163 9.52634 14.3799 9.57323 14.4267C9.62011 14.4736 9.6837 14.5 9.75 14.5H10V21H9.75C9.6837 21 9.62011 21.0263 9.57323 21.0732C9.52634 21.1201 9.5 21.1837 9.5 21.25V22H8.75C8.6837 22 8.62011 22.0263 8.57323 22.0732C8.52634 22.1201 8.5 22.1837 8.5 22.25V23.25C8.5 23.3163 8.52634 23.3799 8.57323 23.4267C8.62011 23.4736 8.6837 23.5 8.75 23.5H23.25C23.3163 23.5 23.3799 23.4736 23.4268 23.4267C23.4737 23.3799 23.5 23.3163 23.5 23.25V22.25C23.5 22.1837 23.4737 22.1201 23.4268 22.0732C23.3799 22.0263 23.3163 22 23.25 22H22.5V21.25C22.5 21.1837 22.4737 21.1201 22.4268 21.0732C22.3799 21.0263 22.3163 21 22.25 21H22V14.5H22.25ZM9 12V11.4275L16 9.01496L23 11.4275V12H9ZM9.5 13V12.5H22.5V13H9.5ZM20.75 16.75C20.6119 16.75 20.5 16.8619 20.5 17V21H20V14.5H21.5V21H21V17C21 16.8619 20.8881 16.75 20.75 16.75ZM22 21.5V22H19.5V21.5H22ZM19.5 21H19.25C19.1837 21 19.1201 21.0263 19.0732 21.0732C19.0263 21.1201 19 21.1837 19 21.25V22H17.75V21.25C17.75 21.1837 17.7237 21.1201 17.6768 21.0732C17.6299 21.0263 17.5663 21 17.5 21H17.25V14.5H17.5C17.5663 14.5 17.6299 14.4736 17.6768 14.4267C17.7237 14.3799 17.75 14.3163 17.75 14.25V13.5H19V14.25C19 14.3163 19.0263 14.3799 19.0732 14.4267C19.1201 14.4736 19.1837 14.5 19.25 14.5H19.5V21ZM12.75 21H12.5V14.5H12.75C12.8163 14.5 12.8799 14.4736 12.9268 14.4267C12.9737 14.3799 13 14.3163 13 14.25V13.5H14.25V14.25C14.25 14.3163 14.2763 14.3799 14.3232 14.4267C14.3701 14.4736 14.4337 14.5 14.5 14.5H14.75V21H14.5C14.4337 21 14.3701 21.0263 14.3232 21.0732C14.2763 21.1201 14.25 21.1837 14.25 21.25V22H13V21.25C13 21.1837 12.9737 21.1201 12.9268 21.0732C12.8799 21.0263 12.8163 21 12.75 21ZM11.25 16.75C11.1119 16.75 11 16.8619 11 17V21H10.5V14.5H12V21H11.5V17C11.5 16.8619 11.3881 16.75 11.25 16.75ZM10 14V13.5H12.5V14H10ZM14.75 21.5H17.25V22H14.75V21.5ZM16 16.75C15.8619 16.75 15.75 16.8619 15.75 17V21H15.25V14.5H16.75V21H16.25V17C16.25 16.8619 16.1381 16.75 16 16.75ZM14.75 14V13.5H17.25V14H14.75ZM10 21.5H12.5V22H10V21.5ZM23 22.5V23H9V22.5H23ZM19.5 14V13.5H22V14H19.5Z" fill="white"/>
<defs>
<linearGradient id="paint0_linear" x1="2.45087" y1="-8.25963e-06" x2="30.9005" y2="0.553161" gradientUnits="userSpaceOnUse">
<stop stop-color="#84D3FF"/>
<stop offset="1" stop-color="#0491E0"/>
</linearGradient>
</defs>
</svg>
