<svg width="30" height="31" viewBox="0 0 30 31" fill="none" xmlns="http://www.w3.org/2000/svg">
<path d="M29.1708 27.8703L28.1559 28.8967C27.0322 30.0308 25.1981 30.0452 24.0527 28.9326L15.8827 20.9939C15.8175 20.9293 15.774 20.836 15.774 20.7427L15.7305 16.1776C15.7305 15.9766 15.89 15.8187 16.0929 15.8187L20.8558 15.7756L29.1273 23.822C30.2727 24.9274 30.2945 26.7434 29.1708 27.8703Z" fill="url(#paint0_linear)"/>
<path d="M15.7958 15.7183L28.5329 28.4805L15.6436 15.869L15.7958 15.7183Z" fill="#FCFCFC"/>
<path d="M14.2877 16.1848L14.3312 20.7499C14.3312 20.8432 14.295 20.9366 14.2297 21.0012L5.9437 29.349C4.96503 30.3395 3.35567 30.3539 2.35526 29.3777L0.803894 27.8703C-0.196519 26.9013 -0.211017 25.3079 0.774897 24.3173L9.05367 15.9767C9.11892 15.9121 9.21316 15.869 9.3074 15.869L13.918 15.8259C14.121 15.8259 14.2805 15.9838 14.2877 16.1848Z" fill="url(#paint1_linear)"/>
<g opacity="0.5">
<path opacity="0.5" d="M14.3458 15.869L1.44922 28.4876L14.1936 15.7183L14.3458 15.869Z" fill="#FCFCFC"/>
</g>
<path d="M29.2288 5.87753L20.95 14.2254C20.8847 14.29 20.7905 14.333 20.6963 14.333L16.0857 14.3761C15.8827 14.3761 15.7232 14.2182 15.7232 14.0172L15.6797 9.4521C15.6797 9.35878 15.7159 9.26547 15.7812 9.20087L24.0527 0.853042C25.0314 -0.137501 26.6407 -0.151856 27.6411 0.82433L29.1925 2.33168C30.1929 3.30069 30.2074 4.89417 29.2288 5.87753Z" fill="url(#paint2_linear)"/>
<g opacity="0.5">
<path opacity="0.5" d="M15.6436 14.2828L28.5257 1.67847L15.7958 14.4335L15.6436 14.2828Z" fill="#FCFCFC"/>
</g>
<path d="M14.2225 9.45917L14.266 14.0243C14.266 14.2253 14.1065 14.3832 13.9035 14.3832L9.29289 14.4262C9.19865 14.4262 9.10441 14.3903 9.03916 14.3257L0.869124 6.38706C-0.276276 5.27449 -0.290774 3.4585 0.832878 2.3244L1.84779 1.29797C2.97144 0.171045 4.80553 0.156689 5.94368 1.26925L14.1137 9.21513C14.1862 9.27973 14.2225 9.36586 14.2225 9.45917Z" fill="url(#paint3_linear)"/>
<path d="M14.193 14.5052L1.43408 1.72144L14.3452 14.3544L14.193 14.5052Z" fill="#FCFCFC"/>
<defs>
<linearGradient id="paint0_linear" x1="22.8687" y1="29.758" x2="22.8687" y2="15.7671" gradientUnits="userSpaceOnUse">
<stop stop-color="#00F3FF"/>
<stop offset="1" stop-color="#00AECB"/>
</linearGradient>
<linearGradient id="paint1_linear" x1="0.0472647" y1="22.9661" x2="14.3271" y2="22.9661" gradientUnits="userSpaceOnUse">
<stop stop-color="#E1BC29"/>
<stop offset="1" stop-color="#F9BB13"/>
</linearGradient>
<linearGradient id="paint2_linear" x1="15.6742" y1="7.23675" x2="29.9539" y2="7.23676" gradientUnits="userSpaceOnUse">
<stop stop-color="#3CDC58"/>
<stop offset="0.9997" stop-color="#09E85E"/>
</linearGradient>
<linearGradient id="paint3_linear" x1="1.54861" y1="7.43947" x2="12.7937" y2="7.43948" gradientUnits="userSpaceOnUse">
<stop stop-color="#E15554"/>
<stop offset="0.1211" stop-color="#E74252"/>
<stop offset="0.3453" stop-color="#F0254F"/>
<stop offset="0.5684" stop-color="#F7114D"/>
<stop offset="0.7881" stop-color="#FB044B"/>
<stop offset="1" stop-color="#FC004B"/>
</linearGradient>
</defs>
</svg>
