<?xml version="1.0" standalone="no"?>
<!DOCTYPE svg PUBLIC "-//W3C//DTD SVG 20010904//EN"
 "http://www.w3.org/TR/2001/REC-SVG-20010904/DTD/svg10.dtd">
<svg version="1.0" xmlns="http://www.w3.org/2000/svg" viewBox="0 0 1000.000000 500.000000"
 preserveAspectRatio="none">
<metadata>
Created by potrace 1.16, written by Peter Selinger 2001-2019
</metadata>
<g transform="translate(0.000000,500.000000) scale(0.100000,-0.100000)"
fill="#8c1a1a" stroke="none">
<path d="M1 4518 l0 -483 182 -146 c269 -216 965 -777 1097 -885 63 -51 216
-175 340 -274 234 -189 711 -574 1320 -1066 195 -158 468 -378 605 -489 138
-111 325 -262 416 -336 92 -74 233 -188 315 -254 82 -66 267 -216 412 -333
145 -117 266 -211 269 -209 2 3 -94 126 -214 275 -471 583 -840 1040 -1254
1552 -237 294 -567 704 -734 910 -167 206 -459 569 -650 805 -191 237 -451
559 -579 716 -127 157 -305 379 -396 492 l-165 206 -482 1 -483 0 1 -482z"/>
<path d="M2282 4992 c4 -11 98 -184 188 -347 42 -77 94 -171 115 -210 20 -38
63 -117 95 -175 58 -105 519 -952 580 -1065 18 -33 126 -231 240 -440 114
-209 224 -411 245 -450 20 -38 63 -117 95 -175 67 -123 198 -362 335 -615 54
-99 131 -240 172 -313 40 -72 73 -134 73 -136 0 -2 28 -55 63 -117 35 -63 83
-150 107 -194 48 -90 138 -256 245 -450 124 -227 138 -256 127 -267 -11 -11
-40 3 -267 127 -194 107 -360 197 -450 245 -44 24 -131 72 -194 107 -62 35
-115 63 -117 63 -2 0 -64 33 -136 73 -73 41 -214 118 -313 172 -253 137 -492
268 -615 335 -58 32 -136 75 -175 95 -38 21 -117 63 -175 95 -109 59 -328 179
-607 331 -90 49 -236 129 -325 178 -90 49 -293 159 -453 246 -159 86 -357 194
-440 240 -82 45 -235 128 -340 185 -104 57 -225 123 -269 147 -43 23 -80 43
-82 43 -2 0 -4 -280 -4 -623 l0 -623 168 -48 c92 -27 192 -57 222 -67 30 -9
136 -41 235 -69 171 -49 233 -67 370 -110 33 -10 141 -41 240 -70 99 -28 207
-60 240 -70 33 -10 94 -28 135 -40 41 -12 102 -30 135 -40 33 -10 110 -33 170
-50 61 -17 137 -40 170 -50 33 -10 94 -28 135 -40 41 -12 111 -33 155 -46 44
-13 166 -49 270 -80 105 -30 226 -66 270 -79 76 -23 222 -65 405 -118 47 -14
171 -50 275 -81 105 -31 237 -71 295 -87 58 -17 123 -37 145 -45 22 -7 65 -20
95 -28 50 -13 163 -46 415 -121 50 -15 157 -46 238 -70 82 -24 151 -46 155
-49 12 -13 -115 -2 -553 49 -71 8 -204 22 -295 30 -91 8 -176 17 -190 20 -14
3 -113 14 -220 25 -107 11 -280 29 -385 40 -199 22 -500 54 -895 96 -129 14
-300 31 -380 39 -80 8 -181 19 -225 25 -44 5 -129 15 -190 20 -60 6 -148 15
-195 21 -47 6 -169 19 -272 30 -413 42 -1010 106 -1086 115 l-52 7 0 -267 0
-266 5000 0 5000 0 0 266 0 267 -57 -7 c-71 -8 -449 -49 -708 -77 -730 -76
-930 -97 -1075 -114 -176 -19 -392 -42 -615 -65 -167 -18 -357 -38 -840 -90
-104 -11 -278 -29 -385 -40 -107 -11 -206 -22 -220 -25 -14 -2 -56 -7 -95 -10
-38 -4 -131 -13 -205 -21 -74 -8 -220 -23 -325 -34 -104 -11 -226 -25 -270
-30 -89 -11 -151 -13 -143 -4 4 3 73 25 155 49 81 24 189 55 238 70 167 50
360 106 440 129 44 13 121 36 170 51 50 15 137 40 195 57 58 16 161 47 230 68
69 21 206 61 305 90 99 28 207 60 240 70 84 26 207 62 370 110 77 22 176 51
220 64 44 13 114 34 155 46 41 12 102 30 135 40 33 10 110 33 170 50 61 17
137 40 170 50 33 10 94 28 135 40 41 12 102 30 135 40 33 10 141 42 240 70 99
29 207 60 240 70 137 43 199 61 370 110 99 28 205 60 235 69 30 10 130 40 223
67 l167 48 0 623 c0 343 -2 623 -4 623 -2 0 -39 -20 -82 -43 -44 -24 -164 -90
-269 -147 -104 -57 -257 -140 -340 -185 -82 -46 -280 -154 -440 -240 -271
-147 -360 -195 -777 -424 -268 -146 -708 -386 -783 -426 -38 -20 -117 -63
-175 -95 -123 -67 -362 -198 -615 -335 -99 -54 -240 -131 -313 -172 -72 -40
-134 -73 -136 -73 -2 0 -55 -28 -117 -63 -63 -35 -150 -83 -194 -107 -90 -48
-256 -138 -450 -245 -227 -124 -256 -138 -267 -127 -11 11 3 40 127 267 107
194 197 360 245 450 24 44 72 131 107 194 35 62 63 115 63 117 0 2 33 64 73
136 41 73 117 213 170 310 53 98 141 258 194 355 53 98 129 238 170 311 40 72
73 134 73 136 0 2 28 55 63 117 35 63 84 152 109 199 25 47 107 197 182 333
75 137 136 250 136 252 0 1 29 54 64 116 34 63 82 150 106 194 24 44 110 204
193 355 82 151 231 424 330 605 98 182 201 370 228 419 27 49 49 90 49 92 0 2
-281 4 -623 4 l-624 0 -32 -112 c-17 -62 -43 -151 -58 -198 -14 -47 -33 -112
-43 -145 -31 -107 -108 -368 -135 -460 -15 -49 -38 -126 -50 -170 -23 -80 -80
-271 -130 -440 -15 -49 -35 -119 -46 -155 -10 -36 -27 -94 -37 -130 -11 -36
-32 -104 -46 -153 -14 -48 -37 -125 -51 -172 -14 -47 -36 -123 -50 -170 -25
-84 -42 -141 -115 -390 -21 -71 -50 -168 -63 -215 -23 -77 -39 -131 -121 -410
-13 -47 -36 -125 -51 -175 -15 -49 -44 -148 -65 -220 -42 -143 -74 -253 -115
-390 -15 -49 -44 -148 -65 -220 -21 -71 -50 -170 -65 -220 -15 -49 -45 -153
-67 -230 -57 -197 -70 -201 -48 -15 6 47 19 171 30 275 11 105 31 294 45 420
14 127 34 316 45 420 11 105 31 296 45 425 59 547 67 622 80 755 8 77 21 199
30 270 8 72 21 198 30 280 8 83 26 256 40 385 14 129 34 319 45 423 11 103 29
271 40 375 23 220 68 634 77 710 l6 52 -533 0 -533 0 6 -52 c16 -136 79 -727
117 -1088 25 -246 56 -534 75 -700 14 -129 22 -209 65 -615 23 -215 50 -474
86 -800 14 -132 34 -321 44 -420 11 -99 30 -286 44 -415 14 -129 34 -323 45
-430 12 -107 25 -228 31 -268 5 -40 10 -91 10 -113 0 -21 5 -39 10 -39 6 0 10
-4 10 -10 0 -20 -18 -9 -29 18 -6 15 -28 88 -50 162 -22 74 -51 176 -66 225
-15 50 -44 149 -65 220 -21 72 -50 171 -65 220 -15 50 -47 160 -72 245 -61
210 -76 260 -108 365 -15 50 -47 160 -72 245 -25 85 -54 184 -65 220 -10 36
-27 94 -37 130 -11 36 -33 110 -49 165 -17 55 -47 156 -67 225 -34 117 -46
158 -110 375 -14 47 -37 124 -51 172 -14 49 -35 117 -46 153 -10 36 -27 94
-37 130 -11 36 -31 106 -46 155 -50 169 -107 360 -130 440 -12 44 -35 121 -50
170 -27 92 -104 353 -135 460 -10 33 -29 98 -43 145 -15 47 -41 136 -58 198
l-32 112 -624 0 c-344 0 -623 -3 -621 -8z"/>
<path d="M8870 4793 c-91 -113 -264 -328 -385 -478 -121 -149 -301 -372 -400
-495 -360 -446 -543 -673 -700 -866 -88 -109 -245 -304 -349 -434 -105 -129
-312 -386 -461 -570 -149 -184 -356 -441 -460 -570 -104 -129 -284 -352 -400
-495 -116 -143 -285 -352 -375 -465 -90 -113 -195 -242 -233 -288 -38 -46 -67
-86 -64 -88 3 -3 112 82 243 188 132 106 316 255 409 330 94 75 247 199 340
274 94 76 285 230 425 343 299 242 853 689 1264 1021 160 130 408 330 551 445
143 116 375 302 514 415 867 701 1016 820 1108 894 l102 81 0 483 1 482 -482
0 -483 -1 -165 -206z"/>
</g>
</svg>
