<svg xmlns="http://www.w3.org/2000/svg" viewBox="0 0 64.13 77.15">
  <defs>
    <style>
      .a {
        fill: #cac0a1;
      }
    </style>
  </defs>
  <title>Asset 14_SVG</title>
  <g transform="rotate(90deg)">
    <polygon class="a" points="53.7 35.39 53.61 35.44 53.51 35.39 53.7 35.39"/>
    <path class="a" d="M25.85,56.22c-.26,2-1.59,2.13-1.75,4.06h0a14.51,14.51,0,0,1-.66-3.95Z"/>
    <path class="a" d="M21,11.25a2,2,0,0,0-.26.06v-.14Z"/>
    <path class="a" d="M20.77,11.7l.6,0-.29.75A1.6,1.6,0,0,1,20.77,11.7Z"/>
    <path class="a" d="M30.12,4.44l-.34-.89c-.2-1.6.37-2.22.34-3.55Z"/>
    <path class="a" d="M44.74,7.67,44.5,4.44A6.56,6.56,0,0,1,44.74,7.67Z"/>
    <path class="a" d="M44.83,8.87c.23,2.12-.37,1.06-.67,2.66.07-1.26.42-2.56.58-3.86Z"/>
    <path class="a" d="M20.84,15.83a11.71,11.71,0,0,0-1.89,0c.32.34.59.91,1.08.67l.54-.67.23.28a9.31,9.31,0,0,0-.05,3.38l.33-.88a16,16,0,0,0,.42,2.13H21v.15h.53a4.42,4.42,0,0,1-.12,3l.41,1.11L20.35,25a11,11,0,0,0,.06-3.71A13.53,13.53,0,0,1,20.27,25l-.87,0a6.58,6.58,0,0,0,.86.1c-.18,1.12-.42,2.17-.52,3.3l1,.89c-1-.79-.68-2.37-.42-4.18.48,0,1,.05,1.54.06l.21.57a5.3,5.3,0,0,0,0-.57h1c0,1.09.49,1.53.68,2.35a4.2,4.2,0,0,0,.35-2.36h.67l-.68,0a2.32,2.32,0,0,0-.34-1.17c-.3-.35-.47.44-.67.89a2.09,2.09,0,0,0,0,.25l-1,0a25.31,25.31,0,0,0-.56-4.15h1.61v-.15H21.53A21.29,21.29,0,0,1,21,16.37a.51.51,0,0,0,.63.14l.5-.62-1.1-.05a5.66,5.66,0,0,1,.37-1.65V11.67a10.67,10.67,0,0,0,1.75-.27l-2.42-.28a8.08,8.08,0,0,1,.67-2.25h-.67a8.7,8.7,0,0,1-.15,2.23h-.13l.12,0a1.56,1.56,0,0,1-.11.26,2.39,2.39,0,0,1-.55,0c-.26-.1-.75-.18-.53-.31H17.24l2.16.61h1.13C21.34,12.92,21.09,14.29,20.84,15.83Zm-.09-4.52v-.14l.26.08A2,2,0,0,0,20.75,11.31Zm.33,1.11a1.6,1.6,0,0,1-.31-.72l.6,0Z"/>
    <path class="a" d="M1.35,10.64a.2.2,0,0,0,.25,0H0a10.13,10.13,0,0,1,1.79-.25A4.21,4.21,0,0,0,2,9.73c0,.2,0,.42,0,.65a11.6,11.6,0,0,1,2.86.11l.54.15H2c0,.86,0,1.57-.64.89Z"/>
    <path class="a" d="M23.09,10.64a1.77,1.77,0,0,1,.28.78A1.14,1.14,0,0,1,23.09,10.64Z"/>
    <rect class="a" x="51.19" y="15.07" width="0.33" height="3.55"/>
    <path class="a" d="M43.83,31.92h-.34c0-.15,0-.32-.07-.48H42.1l-.28,2.26-.33-.89L42,31.44H40a6.28,6.28,0,0,1,2.13-.28l0-.13v.13a7.44,7.44,0,0,1,1.28.2c-.65-4.24.35-10.14-.93-13.62l.33.88c.64-.7.2-2.31.34-3.55Z"/>
    <path class="a" d="M26.77,19.5a8.4,8.4,0,0,1,.67-4.43l.33,4.43-.33-.88C27.24,19.06,27.07,19.86,26.77,19.5Z"/>
    <path class="a" d="M33.46,16l.33,8.86c-.8-1,.24-4.79-1-4.44C32.49,18.36,33.26,17.38,33.46,16Z"/>
    <path class="a" d="M39.48,33.7c-.37,0-.8.17-1-.89l-.34.89C37.68,30,37,27.38,36.42,24.53H36.1v-.16h.29c-.24-1.25-.45-2.54-.59-4l.67,2.67c.33-.54.5-2.13,1-1.77v3.08h.78v.16h-.78v1.18c1.06,1.78.4,7.72,2.33,6.21A3.31,3.31,0,0,0,39.48,33.7Z"/>
    <path class="a" d="M29.78,22.17c.12,1,.44,1.82.5,2.64.48,0,1,0,1.5,0h.34v0a6.07,6.07,0,0,1,.75.11l-.75-.08c0,.19,0,.36,0,.54a10.83,10.83,0,0,0,.1,2.42l2.4-1v.64L32.21,28c.23,1.18.69,1.94,1.25,2.14l-.34.88c-.8.11-1.17-1.24-1.31-2.94l-.47.1L31.8,28c-.05-.83-.06-1.72,0-2.57h0c0-.19,0-.37,0-.54-.47,0-1-.05-1.49-.06a4,4,0,0,1,0,.49,1.45,1.45,0,0,0,.6.12h-.61a2.4,2.4,0,0,1-.49,1.17,14.74,14.74,0,0,0,.85,3.69l-.85.74c0-2-.65-4.22-.65-6.2h0A4.79,4.79,0,0,1,29.78,22.17Z"/>
    <path class="a" d="M30.63,30.29l.15-.14C30.79,30.5,30.73,30.49,30.63,30.29Z"/>
    <path class="a" d="M20.41,31.92c-.26,1.69-.87.53-1.33.89,0-.54-.13-1.05-.21-1.56A1.31,1.31,0,0,0,20.41,31.92Z"/>
    <path class="a" d="M18.41,29.26v-1c.1,1,.29,2,.46,3A4.36,4.36,0,0,1,18.41,29.26Z"/>
    <path class="a" d="M18.41,25.71v2.58A11.69,11.69,0,0,1,18.41,25.71Z"/>
    <path class="a" d="M27.44,31.92c.23,2.4-1,4-1,5.33-.31-1.54-.38-3.73-.67-5.33C26.25,32.69,26.81,32.58,27.44,31.92Z"/>
    <path class="a" d="M25.76,31.92a6,6,0,0,1-.66-1.77A3.6,3.6,0,0,1,25.76,31.92Z"/>
    <path class="a" d="M14.74,32.73h1.52v.65H14.79c0,.18.06.34.09.5a2.9,2.9,0,0,1-.19-.5H14.1v-.65h.48a4.84,4.84,0,0,1,.15-1.7A12,12,0,0,0,14.74,32.73Z"/>
    <path class="a" d="M15.4,35.47a5.6,5.6,0,0,1-.52-1.59C15.29,34.73,15.87,35.05,15.4,35.47Z"/>
    <path class="a" d="M44.16,33.7c.21-.16.43,0,.65,0l-.65.86Z"/>
    <path class="a" d="M44.81,33.73l.69-.92C45.35,33.76,45.09,33.8,44.81,33.73Z"/>
    <path class="a" d="M35.29,36.1,35.13,39c.13-1.33-.47-1.77-.67-2.67l-.67,3.54c.2,1.07.64.9,1,.9l-1.68.88c.24-2.48.71-5.4,1-7.08v.88c.19,1.06.63.88,1,.88Z"/>
    <path class="a" d="M35.29,36.1l.15-2.8A7.78,7.78,0,0,1,35.29,36.1Z"/>
    <path class="a" d="M20.75,39h-.34V35.47h.34c.7-4.87.73,1.33,1,2.66-.3.36-.47-.44-.67-.88A3.08,3.08,0,0,0,20.75,39Z"/>
    <polygon class="a" points="12.05 33.7 11.72 36.35 11.72 33.7 12.05 33.7"/>
    <polygon class="a" points="29.44 34.59 29.44 38.13 29.11 37.25 29.44 34.59"/>
    <path class="a" d="M18.07,37.25c-.2-.45-.37-1.25-.67-.9v-1h-.82c.31-.22.58-.58.82-.58v-.16l1.68,1.76-.34.9a21.1,21.1,0,0,1-.08,3.33L18.07,39h-.33V37.25Z"/>
    <path class="a" d="M18.66,40.58l.08.21C18.57,41.76,18.6,41.4,18.66,40.58Z"/>
    <polygon class="a" points="23.09 42.56 23.76 42.56 23.42 43.45 23.09 42.56"/>
    <path class="a" d="M24.09,43.45l-.33-.89c.63-1.24.2-3.54.33-5.31A13,13,0,0,1,24.09,43.45Z"/>
    <path class="a" d="M28.42,40a8.11,8.11,0,0,0-.31,3.49c-.44-.53-.34-1.68-.34-2.66C28.06,41.13,28.23,40.42,28.42,40Z"/>
    <polygon class="a" points="28.44 39.89 28.42 39.96 28.43 39.85 28.44 39.89"/>
    <path class="a" d="M28.11,38.13a2.72,2.72,0,0,1,.32,1.72A2.93,2.93,0,0,1,28.11,38.13Z"/>
    <path class="a" d="M26.43,43.45c0,1.06,1.18.88.34.88l-.34.9.34.88c.13,1.32-.47,1.78-.67,2.65l-.33-.87a3.35,3.35,0,0,0-.34,2h.43V50l-.43,0v.54c0-.18,0-.35,0-.54l-1.9-.1c0,2.1-.11,3.92-.1,5.68,0-2-.13-3.93-.08-5.7h0c0-.69,0-1.36.1-2,0,.69.07,1.35.08,2h1.89a28.77,28.77,0,0,1,1.38-10Z"/>
    <path class="a" d="M36.13,40.79c.31,3.19-.46,5.32-.66,8C34.3,45.67,36.33,43.89,36.13,40.79Z"/>
    <path class="a" d="M30.78,42.56h-1a8,8,0,0,0-.34,1.08v-2C29.91,42,30.52,40.88,30.78,42.56Z"/>
    <path class="a" d="M29.44,43.64v.69A2.27,2.27,0,0,1,29.44,43.64Z"/>
    <path class="a" d="M30.12,55a3.19,3.19,0,0,0-.34,1.78l-.34-.9a10.13,10.13,0,0,1,.31-3,5.7,5.7,0,0,0,.37,1.23c.19-.45.36-1.25.66-.9.34-2.48.84-4,0-6.21.47-1.32,1.54-1.32,2,0C30.42,45.67,32,55,30.12,55Z"/>
    <path class="a" d="M25.85,56.22a7.55,7.55,0,0,0-.08-2.12c1,2.21-.81,3.72-.67,6.2a1.7,1.7,0,0,1,.26.76c-.53-.86-.86-1.12-1.26-.78C24.26,58.35,25.59,58.19,25.85,56.22Z"/>
    <polygon class="a" points="24.09 60.3 24.09 60.28 24.09 60.28 24.09 60.3"/>
    <polygon class="a" points="25.39 61.3 25.36 61.06 25.43 61.19 25.39 61.3"/>
    <polygon class="a" points="32.17 53.97 32.14 54.15 32.12 54.1 32.17 53.97"/>
    <path class="a" d="M32.46,53.2l-.29.76A1.68,1.68,0,0,1,32.46,53.2Z"/>
    <path class="a" d="M31.45,55.86c.51.25.54-.82.69-1.71l.32.83c-.64.62-.2,2.31-.34,3.54Z"/>
    <polygon class="a" points="27.77 60.3 28.11 55.86 28.11 63.84 27.77 60.3"/>
    <polygon class="a" points="26.77 60.3 26.43 57.63 27.1 57.63 26.77 60.3"/>
    <rect class="a" x="17.74" y="61.19" width="0.33" height="3.54"/>
    <path class="a" d="M12.05,64.06V66.5C11.93,68,12,65.94,12.05,64.06Z"/>
    <path class="a" d="M12.05,64.06v-2C12.07,62.51,12.06,63.27,12.05,64.06Z"/>
    <path class="a" d="M15.4,67.39v3.32A11.13,11.13,0,0,1,15.4,67.39Z"/>
    <path class="a" d="M54.53,71.83a5.37,5.37,0,0,0-.33-2.67c.57.54.83-1,1.34-.88Z"/>
    <path class="a" d="M5.82,73.71l-1.42.57C4.8,73.41,5.32,73.47,5.82,73.71Z"/>
    <path class="a" d="M5.82,73.71,7.63,73C7.46,75.06,6.66,74.13,5.82,73.71Z"/>
    <path class="a" d="M12.49,74.93H10.33l2.16-2.6a4.32,4.32,0,0,1,2.91.53V70.71c.12.9.31,1.7.43,2.49a6,6,0,0,1,.43.44l-.36.17a6.6,6.6,0,0,1-.5,3.34v-3.1l-1.84.88.54-.65c-.32-.32-.59-.91-1.08-.64C12.76,74,12.27,74.35,12.49,74.93Z"/>
    <path class="a" d="M12.49,15.2c1.45-1.1,4.25-.58,5.38-.64Z"/>
    <path class="a" d="M15.72,35.33h.86A.62.62,0,0,1,15.72,35.33Z"/>
    <path class="a" d="M17.87,19.75l.54-.65a.92.92,0,0,0,.87.65Z"/>
    <path class="a" d="M22.93,15.89a6.1,6.1,0,0,0,3-.69C25.24,16.07,23.85,16,22.93,15.89Z"/>
    <path class="a" d="M22.93,15.89h-.78l0-.05A6.38,6.38,0,0,1,22.93,15.89Z"/>
    <path class="a" d="M23.81,13.25c-.28-.23-.31-1.11-.44-1.83.42.37,1.06-.38.73,1.8l.46,0H24.1v.05a.23.23,0,0,1-.28,0,.83.83,0,0,0-.55.64v-.65Z"/>
    <path class="a" d="M24.56,13.25h.86A1.67,1.67,0,0,1,24.56,13.25Z"/>
    <path class="a" d="M26,74.93c1.18-2.08,3.55-1,5.38-1.29C29.51,74,28.11,75.52,26,74.93Z"/>
    <rect class="a" x="29.19" y="17.15" width="2.15" height="0.65"/>
    <path class="a" d="M40.5,2.87a2,2,0,0,1-.87,0Z"/>
    <path class="a" d="M38.35,2.87h.57a.82.82,0,0,0-.57.65Z"/>
    <path class="a" d="M42.26,72.34a1.08,1.08,0,0,1-.9-.33A2.52,2.52,0,0,0,42.26,72.34Z"/>
    <path class="a" d="M45.36,71.69a4,4,0,0,1-3.1.65C43.18,72.21,44.11,71,45.36,71.69Z"/>
    <path class="a" d="M53.61,35.44l.09,0h-.19l.1,0a2.31,2.31,0,0,1-1.55,0h-.33l.19,0-.1,0a1.52,1.52,0,0,1,1.32-.09H54c1.2-.72,1.93-2.46,3.24-3.16l-1.08,3.25C55.27,36.53,54.49,35.88,53.61,35.44Z"/>
    <path class="a" d="M15.09,48.82c-3.24,0-6.36,0-9.17-.3a14.06,14.06,0,0,1,4.31,0l.55-.15C11.05,49,14,48.45,15.09,48.82Z"/>
    <path class="a" d="M14.55,11.54l-1.82-.17C13.57,11.28,14.38,11.06,14.55,11.54Z"/>
    <path class="a" d="M11.32,11.25l1.41.12A2.54,2.54,0,0,1,11.32,11.25Z"/>
    <path class="a" d="M23.43,56.34a14.51,14.51,0,0,0,.66,3.95,3.27,3.27,0,0,0-.67.9c.07-1.62,0-3.26,0-4.85a60.08,60.08,0,0,1-7.26,0,41.84,41.84,0,0,1,7.26-.13v0c.79,0,1.59,0,2.43,0Z"/>
    <path class="a" d="M25.32,72.37a2.45,2.45,0,0,1,1.08.15l-1.23,0C25.34,72.51,25.45,72.45,25.32,72.37Z"/>
    <path class="a" d="M24.25,72.52l.21.06-2.91.09A9.8,9.8,0,0,1,24.25,72.52Z"/>
    <path class="a" d="M24.78,72.67l-.32-.09.71,0Z"/>
    <path class="a" d="M26.4,62l-1,.06V63H25.1a2,2,0,0,1,0-.92l-3.05.22V62h3.07c.07-.23.15-.45.23-.66,0,.2,0,.43,0,.66Z"/>
    <path class="a" d="M23.46,20.3h1.32C24.38,20.57,24,20.38,23.46,20.3Z"/>
    <path class="a" d="M23.46,20.3h-.83A2.3,2.3,0,0,1,23.46,20.3Z"/>
    <path class="a" d="M26.18,23.92a1.87,1.87,0,0,0-.86.15l-.54-.15Z"/>
    <path class="a" d="M25.86,24.83a2.47,2.47,0,0,1,1.08-.15l.54.15a2.5,2.5,0,0,1,1.08-.15l.5.14C27.83,24.83,26.66,24.85,25.86,24.83Z"/>
    <path class="a" d="M32.87,11.09a37.73,37.73,0,0,1,5.39.31C36.42,11.33,34.05,11.58,32.87,11.09Z"/>
    <path class="a" d="M39.87,37.66A15.24,15.24,0,0,1,38,37.42c.84-.07,1.76-.12,2.46-.22Z"/>
    <path class="a" d="M36.1,37.66a6.07,6.07,0,0,1,1.13-.18C37,37.61,37.06,37.73,36.1,37.66Z"/>
    <path class="a" d="M37.72,37.35l.23.07c-.25,0-.49,0-.72.06A1.71,1.71,0,0,1,37.72,37.35Z"/>
    <path class="a" d="M39.87,41.88l.54.15H37.72v-.15C38.47,41.84,39.28,42.24,39.87,41.88Z"/>
    <path class="a" d="M38.26,53.2l4.85.3C41.49,53.41,39.17,53.74,38.26,53.2Z"/>
    <rect class="a" x="38.26" y="47.92" width="2.16" height="0.15"/>
    <polygon class="a" points="38.69 21.98 41.49 22.11 41.49 22.26 38.69 22 38.26 21.96 38.69 21.98"/>
    <path class="a" d="M41.49,36.9C42.78,37,44,36,45.8,36.6l.54-.15c.81.51-3.29,0-4.31.6Z"/>
    <path class="a" d="M46.88,58c-.76-.05-1.56.36-2.16,0C45.33,58,46.3,58.07,46.88,58Z"/>
    <path class="a" d="M44.72,58l-.53.15C44.2,58.08,44.42,58.05,44.72,58Z"/>
    <path class="a" d="M51.73,57.73,48,57.56C49.46,57.45,50.9,57.25,51.73,57.73Z"/>
    <path class="a" d="M45.26,57.43l2.71.13A9.32,9.32,0,0,1,45.26,57.43Z"/>
    <path class="a" d="M45.26,27.7a1.32,1.32,0,0,0,.72.14h-.72Z"/>
    <path class="a" d="M46.88,21.2h3.77A26.35,26.35,0,0,1,46.88,21.2Z"/>
    <path class="a" d="M52.27,36.29c-.33.46-3.18.37-4.31.16C49.68,36.61,50.49,36.13,52.27,36.29Z"/>
    <path class="a" d="M52.27,11.84a16.3,16.3,0,0,1-3.16-.14A15.54,15.54,0,0,1,52.27,11.84Z"/>
    <path class="a" d="M48,11.84a4.22,4.22,0,0,1,.83-.13A3.41,3.41,0,0,0,48,11.84Z"/>
    <path class="a" d="M50.65,38V37.5l1.08.46.54-.15C53.18,37.34,52.21,38.28,50.65,38Z"/>
    <path class="a" d="M51.73,50.18c.21.14-.27.22-.54.3.27.09.75.17.54.31C50.92,50.67,50.92,50.28,51.73,50.18Z"/>
    <path class="a" d="M54.69,57.43a4.81,4.81,0,0,0-1.34.15l-.54-.15Z"/>
    <path class="a" d="M53.89,36.45l1.61.15C57.17,36.92,54.37,36.54,53.89,36.45Z"/>
    <path class="a" d="M58.73,20.3a9.76,9.76,0,0,1,1.77,0A6.88,6.88,0,0,1,58.73,20.3Z"/>
    <path class="a" d="M63,20.3l1.09.75c-1.46-.18-2.19-.66-3.63-.78A5.59,5.59,0,0,1,63,20.3Z"/>
  </g>
</svg>
