<svg xmlns="http://www.w3.org/2000/svg" xmlns:xlink="http://www.w3.org/1999/xlink" width="163.5mm" height="66.07mm" viewBox="0 0 463.47 187.28">
  <defs>
    <style>
      .a {
        fill: #75753b;
      }

      .b, .j {
        fill: #bfbf80;
      }

      .c {
        fill: url(#a);
      }

      .d {
        fill: #b0b07b;
      }

      .e {
        fill: #bfbfa0;
      }

      .f {
        fill: #808040;
      }

      .g {
        fill: #cccc8f;
      }

      .h {
        fill: #9c9b5c;
      }

      .i {
        fill: #900001;
      }

      .j {
        fill-rule: evenodd;
      }
    </style>
    <linearGradient id="a" x1="-191.55" y1="662.31" x2="-190.55" y2="662.31" gradientTransform="translate(72716.56 -250802.44) scale(379.41 378.77)" gradientUnits="userSpaceOnUse">
      <stop offset="0" stop-color="#645e16"/>
      <stop offset="0.01" stop-color="#76702c"/>
      <stop offset="0.02" stop-color="#959152"/>
      <stop offset="0.04" stop-color="#b0ae74"/>
      <stop offset="0.05" stop-color="#c7c58f"/>
      <stop offset="0.07" stop-color="#d8d7a4"/>
      <stop offset="0.09" stop-color="#e4e3b3"/>
      <stop offset="0.12" stop-color="#ebebbb"/>
      <stop offset="0.15" stop-color="#ededbe"/>
      <stop offset="0.86" stop-color="#ededbe"/>
      <stop offset="0.92" stop-color="#ebebbc"/>
      <stop offset="0.94" stop-color="#e6e6b5"/>
      <stop offset="0.95" stop-color="#dcdcaa"/>
      <stop offset="0.96" stop-color="#cfcd99"/>
      <stop offset="0.97" stop-color="#bdba83"/>
      <stop offset="0.98" stop-color="#a6a367"/>
      <stop offset="0.99" stop-color="#8c8847"/>
      <stop offset="1" stop-color="#6e6923"/>
      <stop offset="1" stop-color="#645e16"/>
    </linearGradient>
  </defs>
  <title>Asset 4_SVG</title>
  <g>
    <path class="a" d="M118.6,89.21s-33.12,10.2-44.28,22.42c-10.52,11.53,12.27,6.9,12.27,6.9,22.54-2.76,63.38-16,75.65,13a414,414,0,0,0-14.49-45.71S149.08,83.7,118.6,89.21Z"/>
    <path class="b" d="M85.89,146.06S54,123.54,12.18,151.6c0,0,37.08-15.53,50.72-4.29,0,0-44.2,9.3-53.22,29.84,0,0,30.23-22.88,48.94-19.36s63.09,13.38,49.19-1.7A234.2,234.2,0,0,1,85.89,146.06Z"/>
    <path class="a" d="M110,159.14c-5.67-4.59-34.35-6.89-30.75-17.5s15.2-8.37,15.2-8.37c5.08,0,7,1.13,10.6,4.06C105.09,137.33,108,152.09,110,159.14Z"/>
    <path class="b" d="M86.59,118.53c-4,17.72-3.26,11.22-7.3,23.11,0,0,5.35-14.33,22.7-5.7,18.5,9.18,87.65,7.75,48.74-18.51C145,113.23,121,109.79,86.59,118.53Z"/>
    <path class="b" d="M379.31,144.78s31.87-22.53,73.71,5.53c0,0-37.08-15.53-50.72-4.29,0,0,44.2,9.3,53.22,29.84,0,0-30.23-22.87-48.94-19.36s-63.09,13.38-49.19-1.7A236.68,236.68,0,0,0,379.31,144.78Z"/>
    <path class="a" d="M355.15,157.85c5.68-4.59,34.36-6.89,30.76-17.5s-15.2-8.36-15.2-8.36c-5.09,0-7,1.12-10.6,4C360.11,136,357.23,150.8,355.15,157.85Z"/>
    <path class="b" d="M378.61,117.24c4,17.72,3.26,11.22,7.3,23.11,0,0-5.35-14.32-22.7-5.7-18.5,9.18-87.65,7.75-48.74-18.51C318.74,109.48,345.79,109.48,378.61,117.24Z"/>
    <path class="a" d="M346.59,87.92s33.18,10.16,44.29,22.42c3.33,3.68,2.1,6.52,2.1,6.52-3.61,2.07-14.37.38-14.37.38-22.54-2.75-63.38-16-75.65,13a412.76,412.76,0,0,1,14.48-45.71S316.12,82.41,346.59,87.92Z"/>
    <path class="c" d="M393,116.86a460.58,460.58,0,0,0-321.35,0q-14.56-38.51-29.15-77a543.71,543.71,0,0,1,379.64,0Z"/>
    <path class="d" d="M418.86,48.56S327.16,16,232.75,15.11,45.65,48.33,45.65,48.33l-1.78-4.8S130.73,8,232.75,10.08,420.81,43.33,420.81,43.33Z"/>
    <path class="e" d="M461.13,154.92l-5.29-7.87c-14.61-9.77-29.66-14.72-44.76-14.72a66.38,66.38,0,0,0-21,3.37l-.78.25-.29-.76c-.65-1.73-1.14-2.86-1.56-3.83a38.44,38.44,0,0,1-2.45-7.58l.88-1.06c.65,0,1.29,0,1.9,0,4,0,6.71-.75,8.52-2.36l1.32-1.88.11.06a6.27,6.27,0,0,0,.69-2.17v-.11l0-.09,14-37L423.4,50.42l1.94-5.13,1-2.72,1.7-5.43c-65.5-23.82-129.35-35.4-195.18-35.4C137.36.35,46.8,33.67,37.58,37.16c.77,2.19,2.92,8.25,2.91,8.24l1.63,4.41h0l.14.36,8.82,23.31L68,118l0,.07v.08c.49,2.72,2.73,6,10.59,6,.59,0,1.23,0,1.9,0l.87,1.06a39.17,39.17,0,0,1-2.44,7.58c-.4.91-.89,2-1.57,3.83l-.29.76-.78-.25a66.38,66.38,0,0,0-21-3.37c-13.34,0-31.44,7-51.14,19.71l12.06,1.72c.53-.18,1.09-.39,1.75-.63a104.18,104.18,0,0,1,22.14-5.85l.44,1.63-1.94.77A58.67,58.67,0,0,0,2.23,182l13.71-3.24.13.16c.41-.16,1.88-1.1,3.45-2.1C27,172,42.6,162,55,162a19,19,0,0,1,3.39.29l5.63,1.09c11.75,2.28,27.84,5.41,38.1,5.41,4.43,0,9.82-.47,12.15-4.19a6.9,6.9,0,0,0,.37-6.45c-1.05-3.6-2.32-9.29-3.2-13.43l1-1a114.63,114.63,0,0,0,21.38,1.94c12.22,0,27.72-1.69,32.21-9.75,1-1.78,2.26-5.48-.4-10.26l0-.09,0-.1c-2.13-8-4.76-16.69-7.83-25.72l.67-1.11a456.39,456.39,0,0,1,149.1,0l.67,1.12c-2.88,8.57-5.37,16.78-7.39,24.4l0,.1,0,.09c-2.65,4.78-1.39,8.48-.4,10.26,4.48,8.06,20,9.75,32.21,9.75a114.63,114.63,0,0,0,21.38-1.94l1,1c-1.3,6.06-2.38,10.59-3.24,13.52a6.85,6.85,0,0,0,.4,6.36c2.34,3.72,7.72,4.19,12.15,4.19,10.26,0,26.34-3.12,38.11-5.41L408,161a18.92,18.92,0,0,1,3.38-.29c15.6,0,39.29,16.58,48.41,24l-.75-12c-4-9-13.37-15.91-31.28-23.11l-1.89-.74.43-1.63a127.21,127.21,0,0,1,25.57,7.26Zm-4.24,21-1.29,1c-.26-.19-26.06-19.55-44.27-19.55a21.38,21.38,0,0,0-4,.35l-5.63,1.08c-11.62,2.26-27.53,5.36-37.47,5.36-5.21,0-8.16-.83-9.27-2.6a3.6,3.6,0,0,1,0-3.55h0c1.68-5.73,3.93-16.69,4.68-20.44-6.9,2.14-17.05,3.45-27.08,3.45-5.81,0-25.11-.57-29.24-8-1.21-2.18-1-4.66.65-7.37,3-11.33,6.52-22.11,9.08-29.45a459.39,459.39,0,0,0-160.12,0c2.7,7.67,6.43,18.94,9.54,30.76,1.64,2.71,1.86,5.19.65,7.37-4.13,7.41-23.43,8-29.24,8-10,0-20.18-1.31-27.08-3.45.75,3.75,3,14.71,4.68,20.43l0,0a3.6,3.6,0,0,1,0,3.55c-1.11,1.77-4.06,2.6-9.27,2.6-9.93,0-25.83-3.09-37.44-5.35L59.06,159a21.39,21.39,0,0,0-4-.36c-18.2,0-44,19.37-44.26,19.56l-1.29-1c8.12-18.5,43.25-27.85,51.94-29.9-3.08-1.88-7.31-2.83-12.65-2.83-15.66,0-35.48,8.22-35.68,8.3l-.8-1.49C26.38,141.81,40.84,137,55.3,137a62.89,62.89,0,0,1,23.8,4.64c1.44-4.24,2.26-6.13,2.93-7.65,1.11-2.57,1.7-3.91,4-14a47.84,47.84,0,0,1-7.48.7c-4.59,0-7-1.15-7.25-3.4l-15.6-41.2L45.5,49l-.06,0-1.77-4.8s0-.09-.08-.21l-1.31-3.47.5-1.1a544.62,544.62,0,0,1,380.23,0l.5,1.1-1.36,3.59-1.91,5.12h0l-11.09,29.3-14,37.11a2.93,2.93,0,0,1-.73,1.93l-.22.67-.41-.1c-1.19.82-3.13,1.23-5.91,1.23a48,48,0,0,1-7.49-.7c2.33,10.15,2.92,11.49,4,14,.66,1.52,1.48,3.42,2.92,7.65a62.94,62.94,0,0,1,23.8-4.64c14.45,0,28.92,4.79,43,14.23l-.8,1.5c-.2-.09-20-8.31-35.68-8.31-5.34,0-9.57,1-12.65,2.83C413.64,148,448.77,157.38,456.89,175.88Z"/>
    <path class="f" d="M453.28,151.46l.8-1.5c-14.08-9.44-28.55-14.23-43-14.23a62.94,62.94,0,0,0-23.8,4.64c-1.44-4.23-2.26-6.13-2.92-7.65-1.12-2.56-1.71-3.9-4-14a48,48,0,0,0,7.49.7c2.78,0,4.72-.41,5.91-1.23l.41.1.22-.67a2.93,2.93,0,0,0,.73-1.93l14-37.11,11.09-29.3h0l1.91-5.12,1.36-3.59-.5-1.1a544.62,544.62,0,0,0-380.23,0l-.5,1.1L43.59,44c0,.12.08.21.08.21L45.44,49l.06,0L55.73,76.06l15.6,41.2c.24,2.25,2.66,3.4,7.25,3.4a47.84,47.84,0,0,0,7.48-.7c-2.33,10.14-2.92,11.48-4,14-.67,1.52-1.49,3.41-2.93,7.65A62.89,62.89,0,0,0,55.3,137c-14.46,0-28.92,4.79-43,14.23l.8,1.49c.2-.08,20-8.3,35.68-8.3,5.34,0,9.57.95,12.65,2.83-8.69,2-43.82,11.4-51.94,29.9l1.29,1C11,178,36.84,158.63,55,158.63a21.39,21.39,0,0,1,4,.36l5.66,1.09c11.61,2.26,27.51,5.35,37.44,5.35,5.21,0,8.16-.83,9.27-2.6a3.6,3.6,0,0,0,0-3.55l0,0c-1.68-5.72-3.93-16.68-4.68-20.43,6.9,2.14,17,3.45,27.08,3.45,5.81,0,25.11-.58,29.24-8,1.21-2.18,1-4.66-.65-7.37-3.11-11.82-6.84-23.09-9.54-30.76a459.39,459.39,0,0,1,160.12,0c-2.56,7.34-6.1,18.12-9.08,29.45-1.64,2.71-1.86,5.19-.65,7.37,4.13,7.42,23.43,8,29.24,8,10,0,20.18-1.31,27.08-3.45-.75,3.75-3,14.71-4.68,20.44h0a3.6,3.6,0,0,0,0,3.55c1.11,1.77,4.06,2.6,9.27,2.6,9.94,0,25.85-3.1,37.47-5.36l5.63-1.08a21.38,21.38,0,0,1,4-.35c18.21,0,44,19.36,44.27,19.55l1.29-1C448.77,157.38,413.64,148,405,146c3.08-1.87,7.31-2.83,12.65-2.83C433.27,143.15,453.08,151.37,453.28,151.46Zm-50.93-5.73.36,1.49c.42.09,39.17,8.43,50.85,26.12-7.49-5.21-27-17.7-42.23-17.7A23.79,23.79,0,0,0,407,156l-5.65,1.09c-11.55,2.25-27.37,5.33-37.14,5.33-5.83,0-7.41-1.13-7.83-1.81-.12-.18-.47-.75.16-2.08l-.55-.44.56.35c1.9-6.47,4.5-19.47,4.92-21.59l0,0v0a2.29,2.29,0,0,1,.05-.25l-.1.16-.77-1.33c-6.69,2.4-17.47,3.89-28.14,3.89-14.67,0-25.3-2.73-27.75-7.12-.92-1.66-.7-3.54.68-5.77l.07-.11,0-.12c3.1-11.81,6.82-23,9.4-30.38l-.65-1.12a461.91,461.91,0,0,0-162.7,0L151,95.78c2.72,7.66,6.63,19.37,9.86,31.68l0,.12.06.11c1.38,2.22,1.6,4.11.68,5.77-2.45,4.39-13.08,7.12-27.75,7.12-10.67,0-21.45-1.49-28.14-3.89l-.77,1.35-.1-.18a1.67,1.67,0,0,1,.06.26l0,0h0c.42,2.12,3,15.13,4.92,21.58l.54-.36-.53.47c.63,1.32.28,1.89.16,2.07-.42.67-2,1.81-7.83,1.81-9.77,0-25.57-3.08-37.12-5.32l-5.67-1.1a23.82,23.82,0,0,0-4.33-.38c-15.19,0-34.73,12.49-42.21,17.7,11.67-17.69,50.42-26,50.84-26.12L64,147c-3.44-2.84-8.57-4.28-15.25-4.28-9.68,0-20.86,3-28.24,5.49,11.47-6.31,23.12-9.51,34.76-9.51a61,61,0,0,1,24,4.89l1.17-.62a4.21,4.21,0,0,1,.18-.72,81,81,0,0,1,2.9-7.58c1.2-2.77,1.81-4.15,4.42-15.61l-1-1a50,50,0,0,1-8.43.9c-2.06,0-5.52-.26-5.59-2v-.14l0-.13L57.33,75.45,47.08,48.37l-.06,0-1.49-4h0l-.27-.72-1.08-2.88a542.85,542.85,0,0,1,377.44,0l-1.06,2.79-1.9,5.09,0,0-11.1,29.32-14.09,37.23-.06.17v.18a1.24,1.24,0,0,1-.39,1l0,0h0c-.55.5-1.88,1.09-5.15,1.09a50.15,50.15,0,0,1-8.44-.9l-1,1c2.62,11.46,3.22,12.85,4.42,15.61.66,1.5,1.47,3.37,2.91,7.58a6,6,0,0,1,.17.71l1.17.63a61,61,0,0,1,24-4.88c11.63,0,23.29,3.19,34.76,9.5-7.38-2.44-18.56-5.49-28.24-5.49C410.92,141.45,405.79,142.89,402.35,145.73Z"/>
    <path class="f" d="M451.45,156.22h.15l11.13.46.74-1.33-6.31-9.4-.1-.14-.14-.1c-14.93-10-30.35-15.09-45.84-15.09a68.43,68.43,0,0,0-20.73,3.21c-.53-1.36-1-2.31-1.29-3.1a33.42,33.42,0,0,1-2.1-6.29l.85,0c4.49,0,7.58-.91,9.72-2.85l.07-.07.06-.08,0-.08,0,0h0a8,8,0,0,0,2.38-4.69l14-37L425,51l1.95-5.13,1-2.77,2-6.25.24-.78-.76-.28C363.46,11.74,299.17,0,232.91,0,132.27-1.43,37.14,35.5,36.19,35.87l-.76.3.27.78,3.19,9,1.76,4.78.14.36.05,0,8.69,23,16.8,44.4c.53,2.76,2.84,7.28,12.25,7.28l.84,0A33.75,33.75,0,0,1,77.35,132c-.33.75-.76,1.74-1.32,3.16a68.43,68.43,0,0,0-20.73-3.21c-14.1,0-33.27,7.53-54,21.22l.35,1.55,14.53,2.08.21,0,.2-.07,2-.72a106.72,106.72,0,0,1,11.78-3.74C8.59,162.1.88,180.6,0,182.88L1,184l14.76-3.5c.56.34,1.27-.11,4.68-2.29,6.79-4.34,22.67-14.49,34.61-14.49a16.58,16.58,0,0,1,3.08.27l5.61,1.08c11.82,2.3,28,5.44,38.43,5.44,4.87,0,10.81-.56,13.59-5a8.48,8.48,0,0,0,.54-7.91c-.91-3.14-2-8-2.88-12a116.72,116.72,0,0,0,20.44,1.74c12.68,0,28.81-1.84,33.7-10.62,1.15-2.07,2.63-6.36-.35-11.81-2.06-7.76-4.59-16.09-7.51-24.77a454.29,454.29,0,0,1,146.57,0c-2.75,8.22-5.13,16.12-7.08,23.46-3,5.45-1.5,9.73-.35,11.81,4.89,8.78,21,10.62,33.7,10.62A116.72,116.72,0,0,0,353,144.36c-1.17,5.39-2.15,9.46-2.91,12.08a8.47,8.47,0,0,0,.57,7.82c2.78,4.42,8.72,5,13.59,5,10.42,0,26.6-3.15,38.41-5.45l5.64-1.08a16.21,16.21,0,0,1,3.06-.27c16.33,0,42.67,19.59,48.83,24.83l1.4-.7-.88-14.09v-.15l-.06-.14c-3.67-8.37-11.61-15-26.05-21.48a134.56,134.56,0,0,1,16.74,5.44Zm-25.2-8.94-.43,1.63,1.89.74c17.91,7.2,27.28,14.12,31.28,23.11l.75,12c-9.12-7.4-32.81-24-48.41-24A18.92,18.92,0,0,0,408,161l-5.62,1.09c-11.77,2.29-27.85,5.41-38.11,5.41-4.43,0-9.81-.47-12.15-4.19a6.85,6.85,0,0,1-.4-6.36c.86-2.93,1.94-7.46,3.24-13.52l-1-1a114.63,114.63,0,0,1-21.38,1.94c-12.22,0-27.73-1.69-32.21-9.75-1-1.78-2.25-5.48.4-10.26l0-.09,0-.1c2-7.62,4.51-15.83,7.39-24.4l-.67-1.12a456.39,456.39,0,0,0-149.1,0l-.67,1.11c3.07,9,5.7,17.68,7.83,25.72l0,.1,0,.09c2.66,4.78,1.39,8.48.4,10.26-4.49,8.06-20,9.75-32.21,9.75a114.63,114.63,0,0,1-21.38-1.94l-1,1c.88,4.14,2.15,9.83,3.2,13.43a6.9,6.9,0,0,1-.37,6.45c-2.33,3.72-7.72,4.19-12.15,4.19-10.26,0-26.35-3.13-38.1-5.41l-5.63-1.09A19,19,0,0,0,55,162c-12.44,0-28,10-35.52,14.75-1.57,1-3,1.94-3.45,2.1l-.13-.16L2.23,182a58.67,58.67,0,0,1,36.38-31l1.94-.77-.44-1.63A104.18,104.18,0,0,0,18,154.42c-.66.24-1.22.45-1.75.63L4.16,153.33c19.7-12.71,37.8-19.71,51.14-19.71a66.38,66.38,0,0,1,21,3.37l.78.25.29-.76c.68-1.8,1.17-2.92,1.57-3.83a39.17,39.17,0,0,0,2.44-7.58L80.48,124c-.67,0-1.31,0-1.9,0-7.86,0-10.1-3.24-10.59-6V118l0-.07L51.12,73.49,42.3,50.18l-.14-.36h0L40.49,45.4s-2.14-6-2.91-8.24C46.8,33.67,137.36.35,232.89,1.74c65.83,0,129.68,11.58,195.18,35.4l-1.7,5.43-1,2.72-1.94,5.13L412.52,79.18l-14,37,0,.09v.11a6.27,6.27,0,0,1-.69,2.17l-.11-.06-1.32,1.88c-1.81,1.61-4.52,2.36-8.52,2.36-.61,0-1.25,0-1.9,0l-.88,1.06a38.44,38.44,0,0,0,2.45,7.58c.42,1,.91,2.1,1.56,3.83l.29.76.78-.25a66.38,66.38,0,0,1,21-3.37c15.1,0,30.15,4.95,44.76,14.72l5.29,7.87-9.31-.38A127.21,127.21,0,0,0,426.25,147.28ZM16.89,180l-.29-.38-.52-.67a.73.73,0,0,1,.68.27l.14.24A.73.73,0,0,1,16.89,180Z"/>
    <path class="d" d="M68.66,105.8c.25-.11,69.84-32.54,170.28-32.55a446.82,446.82,0,0,1,159.55,29.27l-2.12,5.62A441.16,441.16,0,0,0,238.94,79.21C146,79.2,78.65,108.64,70.88,112.12Z"/>
    <polygon class="a" points="244.91 94.32 261.27 81.76 240.43 82.13 233.17 62.07 227.52 82.28 206.54 82.52 224.05 94.71 218.31 114.75 234.67 102.19 249.57 112.57 252.24 114.45 251.1 111.4 244.91 94.32"/>
    <polygon class="g" points="227.99 91.14 224.49 103.41 234.49 95.72 245.15 103.15 240.73 90.93 250.73 83.25 237.97 83.47 233.54 71.25 230.11 83.56 217.32 83.71 227.99 91.14"/>
    <path class="h" d="M223.89,92.86l-5.73,20,16.36-12.56,14.9,10.38,2.67,1.89L251,109.54l-6.19-17.08L261.11,79.9l-20.83.37-7.27-20-5.64,20.2-21,.24Zm9.37-26,5.61,15.48L255,82l-12.67,9.73,5.6,15.48-13.5-9.41-12.67,9.74L226.23,92l-13.52-9.42,16.2-.19Z"/>
    <polygon class="i" points="237.55 90.2 243.21 85.85 235.99 85.97 233.47 79.03 231.52 86.03 224.25 86.11 230.31 90.34 228.33 97.28 234 92.93 239.16 96.53 240.09 97.18 239.69 96.12 237.55 90.2"/>
    <path class="h" d="M230.26,89.69l-2,7,5.66-4.36,5.17,3.6.92.65-.39-1-2.15-5.92,5.67-4.36-7.22.13-2.52-7-1.95,7-7.28.08Zm3.25-9L235.45,86l5.6-.1-4.39,3.37,1.94,5.37-4.68-3.26-4.39,3.37,1.54-5.39-4.68-3.26,5.61-.06Z"/>
    <polygon class="i" points="185.07 110.48 186.16 113.92 183.21 111.78 180.16 113.92 181.37 110.46 178.39 108.33 182.12 108.34 183.3 104.89 184.39 108.33 187.56 108.33 188.13 108.33 187.66 108.65 185.07 110.48"/>
    <polygon class="i" points="288.08 110.48 289.17 113.92 286.22 111.78 283.17 113.92 284.39 110.46 281.41 108.33 285.13 108.34 286.32 104.89 287.4 108.33 290.58 108.33 291.15 108.33 290.68 108.65 288.08 110.48"/>
    <path class="j" d="M244.05,26.15c-1.27,1-3.16.67-4.5,0,.11-.82.41-1.47,1.25-1.63.85.05.49,1.25,1.25,1.4,1.49-.17,2.63-.66,3-1.87.12-.65-1.36.18-1.25-.47s1-.65,1-1.4a3,3,0,0,0-2-3.28c-1.15,0-1.52.77-2.75.7-1-2-3-1.72-5-.93.13,1.33,2.18,2.41,1,3.51-.77-.26-.72-2.37-2-2.81-.26.82,1.14,1.85,1,3.28-.08.81-.7,2-1.5,2.1-2.8.54-3.11-3.86-1-5.38-1.87,0-1.26,2.26-2.5,2.81-.66-1.17.41-2.51,1.25-3-1.21-1.51-4.67-1.46-5.26.46-1.15.07-1.56-.56-2.51-.7-1.95.24-3.26,3.63-1,4.45.12.74-1.15.17-1.25.7,0,1.44,1.43,1.47,2.5,1.87.89,0,.9-.88,1.25-1.4,1.23-.14,1.27.84,1.51,1.63a3.84,3.84,0,0,1-4.26,0c.41,2.14,7.58,2.2,6.26-1.4-.27-.53-1.57-.09-2.25-.23.16-.71,1-.8,1.25-1.41a2,2,0,0,1,1.75.47c0-1.63-2.65-2.5-4-1.4-.25.91.56,1.36,0,1.87-3.51-.81-.66-4.38,2.51-3.51,1.39.38,2.67,2.6,2.26,4.68s-2.83,3.58-6,3a5.33,5.33,0,0,1-4-4.21c-.53-4.06,3.29-6.9,6.77-7,2.26-.07,2.8.77,5.51,1.17-3.78-3.57-13.44-1-15.28,3.28-.29.68-.08,1.26-.25,1.87,0,1.12,1.59.69,2,1.4.2.81-.27,1-.5,1.4a2.59,2.59,0,0,1-2.5-2.34c-.73.78-.17,2.15-.5,2.81-1-.16-3.91.61-4.26-1.17,3.65.88,4-3.41,5.76-5.38A13.72,13.72,0,0,1,233,17.5a15.12,15.12,0,0,1,9.52-1.4c5.06,1,8.07,5.51,10,9.12a15.86,15.86,0,0,0,2.5.46c-.48,1.69-2.86.41-4,1.18-.77-.67.1-1.77-.49-2.81-.67.95-1.17,2-2.76,2.1-.35-.3-.25-1-.26-1.63.54-.28,1.41-.25,1.76-.71,0-6.62-9.78-8.94-15.52-5.84,1.89.2,3.47-1,5.5-.94,4.2.11,7.32,2.91,6.76,7.72-.92,4.43-9.93,4.93-10-.47a5.34,5.34,0,0,1,1-2.8c1.51-1.53,5.45-1,5.51.94,0,.86-.32,1.66-1.75,1.63-.45-.39.22-.78,0-1.63-.92-1.57-3.85-.39-4,.93.26.45,1-.59,2-.24,0,.77,1.08.56,1,1.41-.79.05-1.85-.16-2.26.23C237.07,28.55,242.71,28.24,244.05,26.15ZM232.53,18.9c.33.31.93.31,1-.23C233.2,18.37,232.6,18.37,232.53,18.9Zm-.25,4.68c2.75.53,2.37-3.38.5-3.51A2.87,2.87,0,0,0,232.28,23.58Z"/>
    <path class="j" d="M223.26,15.86c-3.18,1-6.37,2-8.51,4-.6.8-1.6,2-2.76.93.33-.63,1.28-.67,1.5-1.4-1.49.39-2.73,1-2.5,3.05a3,3,0,0,1-3.5-.47,6.09,6.09,0,0,0,2.75-2.11c-2.41,0-3.39,2.57-5.51,2.11-.61-.55.28-.53.5-.94-2.06.38-5.53,1.63-6-.94C207.29,21.31,215.38,17.08,223.26,15.86Z"/>
    <path class="j" d="M243.05,16.1c5,.31,12,3.41,18.53,4.21a9.41,9.41,0,0,0,5.26-.47c0,2.84-3.91,1.65-5.76,1.17-.68.24,1.15.4.25.94-2.2.31-3.5-2.18-6-2.35,1.08.71,1.68,1.87,3.26,2.11-.48,1-2,1.28-3.26.94a3.27,3.27,0,0,0-2.5-3.28c-.14,1.06,1.34.63,1.25,1.64-2,.78-2.78-1.49-4-2.34C248.12,17.33,245.67,16.86,243.05,16.1Z"/>
    <path class="b" d="M398,93.39h-.52a4.14,4.14,0,0,0,1.17-1.46,1.4,1.4,0,0,0-.57-1.69,1.31,1.31,0,0,1,.27,1.56,4.21,4.21,0,0,1-3.91,1.64c-1.43-.14-2.75-1.37-3.94-2.82a18,18,0,0,0,0-3.28c1.5-2.93-.83-6.89.13-11,.78-3.3-2.57-6-2.57-6l0,.05a13,13,0,0,0-.21-2.12,4.36,4.36,0,0,0-.08-1,20.13,20.13,0,0,0-.41-2.85c-.17-.41-.43.34-.69-.13a27.1,27.1,0,0,0-2.22-3.73c-.47-.48-.36.73-1,.32a36.75,36.75,0,0,0-4.57-3c-.91-.29.13,1.3-.88,1.28-.77,0-5-.7-5.75-.52s1.65,1.3.91,1.82a7.31,7.31,0,0,0-1.38,1.21,7.43,7.43,0,0,0-1.53,2.68s-.17.35.16.45h0a6.18,6.18,0,0,0-.17,1.9,6.11,6.11,0,0,0,1.66,3.84,4.33,4.33,0,0,0,2.93,1.25,4.06,4.06,0,0,0,2.6-.78,4.14,4.14,0,0,1-2.59.57,4.07,4.07,0,0,1-2.63-1.33,5.75,5.75,0,0,1,.35-7.65,6.85,6.85,0,0,1,2.16-1.41,3.92,3.92,0,0,0-.44.7,4.25,4.25,0,0,0-.4,2.82,2.64,2.64,0,0,0,1.64,1.92,2.2,2.2,0,0,0,2.1-.18v0a1.74,1.74,0,0,0,.83-1.73,1.77,1.77,0,1,0-2.59,1.79l-.26-.1a2.36,2.36,0,0,1-1.39-1.75,4,4,0,0,1,1.51-3.81,8.45,8.45,0,0,1,1.33-.26,8.28,8.28,0,0,1,5.13,1.15,8.4,8.4,0,0,1,3.08,3.36c.15.46.2.74.25.72s0-.07,0-.2c.05.1.1.2.14.3a12.34,12.34,0,0,1-.43,10.77,11.43,11.43,0,0,0-2.08-1.52,10.21,10.21,0,0,0-7-1.08A13.22,13.22,0,0,0,371,77l.12.21a13.28,13.28,0,0,1,5.13-2.72A10,10,0,0,1,383,75.53a10.66,10.66,0,0,1,2.07,1.53l-.15.25c-1.61,2.63-3.36,3.67-3.21,3.86s1.58-.46,3.29-2.43a14.2,14.2,0,0,0-.06,4.38,15.2,15.2,0,0,0,1.39,4.53,2,2,0,0,1,.47.25l-.27-.06-.11-.12c-.55-.17-1.09-.35-1.64-.54a44.67,44.67,0,0,1-6.87-3,3.61,3.61,0,0,0,.24-.81l0-.21c0-.12,0-.25,0-.38a3.64,3.64,0,0,0-1.3-3,3.52,3.52,0,0,0-3-.71l-.18,0a3.22,3.22,0,0,0-.51.21,3,3,0,0,0-1.11,1c-.72-.58-1.43-1.19-2.12-1.81a5.88,5.88,0,0,1,.57-.81,6.51,6.51,0,0,1,.51-.54L371,77c-.18.18-.35.37-.51.56a5.25,5.25,0,0,0-.56.8,46.67,46.67,0,0,1-9.14-11.84,6.4,6.4,0,0,0,.49.42,6.23,6.23,0,0,0,1.88.93,5.48,5.48,0,0,0,1.32.2c.1,0,.2,0,.3,0a4.22,4.22,0,0,0,2.94-1.44c.11-.13.21-.27.31-.41a4.19,4.19,0,0,0,.78-1.93,3.68,3.68,0,0,0-1.26-3.42,3.5,3.5,0,0,0-3.14-.67,2.88,2.88,0,0,0-2,2.33A2.37,2.37,0,0,0,363.66,65a2,2,0,0,0,2.47-.45,1.7,1.7,0,0,0,.08-2.1,1.41,1.41,0,0,0-1.56-.44,1.1,1.1,0,0,0-.68.79.75.75,0,0,0,0,.37.81.81,0,0,1,0-.37,1.06,1.06,0,0,1,.68-.73,1.3,1.3,0,0,1,1.43.46,1.53,1.53,0,0,1-.13,1.89,1.79,1.79,0,0,1-2.18.32,2,2,0,0,1-1.05-2.23,2.52,2.52,0,0,1,1.78-2,3.17,3.17,0,0,1,2.77.61,3.1,3.1,0,0,1,1,1.38,2.89,2.89,0,0,0-.32-.42,2.79,2.79,0,0,0-1.58-.84,2.79,2.79,0,0,1,1.47.93,2.63,2.63,0,0,1,.62,1.83,3.7,3.7,0,0,1-1,2.26,3.75,3.75,0,0,1-2.64,1.14,4.43,4.43,0,0,1-.8-.08,5,5,0,0,1-1.69-.68,4.1,4.1,0,0,1-.53-.36,5.36,5.36,0,0,1-1.82-2.75l-.05-.15a5,5,0,0,1-.12-1.8,6.32,6.32,0,0,1,.42-1.74,8.1,8.1,0,0,1,5.54-4.93,19.8,19.8,0,0,1,3.27-.31,4.29,4.29,0,0,0-2.65-.38,9.31,9.31,0,0,0,2.05-2,9.85,9.85,0,0,0,1.91-5,9.58,9.58,0,0,0-.1-2.47,3.53,3.53,0,0,0-1-2.1,3.1,3.1,0,0,0-3.17-.78.9.9,0,0,0-.5,1.05.83.83,0,0,1,.58-.85,2.77,2.77,0,0,1,2.58,1c.73.88.64,2.46.44,4a10.38,10.38,0,0,1-4.49,6.85c1.93-2.77,1.49-4.94,3.24-6.21-2.16.57-2.87,3.6-5.25,5.09-1.88,1.18-1.55,4-1.55,4h0a8.06,8.06,0,0,0-1.77,2.82,7.23,7.23,0,0,0-.32,1,6.51,6.51,0,0,0-.18,1.52c0,.16,0,.32,0,.49-.17-.38-.34-.76-.5-1.14q-.37-.91-.72-1.83c-.26-.68-.5-1.38-.74-2.08A56.2,56.2,0,0,1,355,50.73l-.14-.12.13.07a40.37,40.37,0,0,1-.61-4.07c0-.07,0-.21-.1-.41a6.47,6.47,0,0,0-.08-2.32,2.94,2.94,0,0,0-1.46-2A6,6,0,0,1,350.42,39a4.19,4.19,0,0,0,1.66-1.34,4.07,4.07,0,0,0,.55-1.08,4.52,4.52,0,0,0,.21-1.22,5,5,0,0,0-.51-2.47,5.15,5.15,0,0,0-3-2.57,6,6,0,0,0-1.33-.26,6.24,6.24,0,0,0-2.7.4A6.15,6.15,0,0,0,343.05,32c-.12.12-.23.26-.34.39a6.43,6.43,0,0,1,.77-1,7.46,7.46,0,0,1,6.14-2.31,7.48,7.48,0,0,0-7,2.18c-.36.38-.26-.23.26-1.05-1.8.75-1.69,3.09-1.82,3.55-.19.65-.77-.23-.74-1-1,1.35.24,3.11.27,3.51,0,.63-.54.8-1.37.09a3.72,3.72,0,0,0,1.6,2.12c.4.34.24.84-1.05.08a7.2,7.2,0,0,0,.56.84,9.08,9.08,0,0,0,2,1.72c.55.43.55.86.07,1.05l-.17,0a4.23,4.23,0,0,0,1.42.85,11.14,11.14,0,0,0,2.71.59l.22,0,.09,0c.77.19,1.21.18,1.21.13s-.4-.16-1.1-.44a7.92,7.92,0,0,1-2.61-1.73A7.22,7.22,0,0,1,342.92,40a7.11,7.11,0,0,1-.75-2.32,6.87,6.87,0,0,1,.12-2.66,5.58,5.58,0,0,1,3.36-3.77,5.46,5.46,0,0,1,2.33-.36,4.86,4.86,0,0,1,1.15.2,4.91,4.91,0,0,1,1,.48,4.38,4.38,0,0,1,1.51,1.66,4.42,4.42,0,0,1,.51,2.12,4,4,0,0,1-.16,1,3.49,3.49,0,0,1-.43.94,3.62,3.62,0,0,1-1.38,1.2,10,10,0,0,1-.47-1.41,15.93,15.93,0,0,0-.26,1.67,3.55,3.55,0,0,1-1.25.08,2.8,2.8,0,0,1-1.57-.7,2.74,2.74,0,0,1-.84-1.31,2.8,2.8,0,0,1-.07-1.4,2.33,2.33,0,0,1,2-1.85,2,2,0,0,1,.62,0,2.18,2.18,0,0,0-.62,0,2.15,2.15,0,0,0-.74.17,2.51,2.51,0,0,0-1.48,1.67,3.17,3.17,0,0,0,.88,3,3.17,3.17,0,0,0,1.74.87,3.88,3.88,0,0,0,1.27,0c-.08,1.4,0,3.13.95,4.07,1.45,1.49,3.18,2.15,3.72,2.7a24.93,24.93,0,0,0,.34,2.56,57.19,57.19,0,0,0,2,8.29c.41,1.29.88,2.57,1.39,3.84.27.67.56,1.35.85,2,.11.14.16.22.16.22l-.08-.06c.06.15.14.3.21.45l.06.26A6,6,0,0,0,360.29,66c.52,1,1.08,2,1.66,2.89a45.55,45.55,0,0,0,7.93,9.55,6.24,6.24,0,0,0-.52,4.84,5.85,5.85,0,0,0,2,3l.54.32-.13-.07a3.43,3.43,0,0,0,.89.37,3.75,3.75,0,0,0,1.89,0,3,3,0,0,0,.42-.07,4.08,4.08,0,0,0,1.8-.92,4.29,4.29,0,0,0,1.13-1.59,44.48,44.48,0,0,0,5.85,2.72,5.22,5.22,0,0,0-2,0,5,5,0,0,0-2.8,1.67,2.71,2.71,0,0,0-.5.91,3,3,0,0,0-.1,1.68l.06.23a2.52,2.52,0,0,0,1.66,1.76,1.81,1.81,0,0,0,1.75-.56,1.09,1.09,0,0,0,.18-1.15,1.49,1.49,0,0,0-.25-.35,1.44,1.44,0,0,1,.23.35,1,1,0,0,1-.2,1.12,1.75,1.75,0,0,1-1.69.48,2.38,2.38,0,0,1-1.51-1.7,3.59,3.59,0,0,1-.08-.35,2.92,2.92,0,0,1,.31-1.79,2.56,2.56,0,0,1,.33-.48,4.76,4.76,0,0,1,5.9-1,5.31,5.31,0,0,1,1.24,1,8.67,8.67,0,0,1,1.13,1.5,7.83,7.83,0,0,1,.68,1.48,8.27,8.27,0,0,1,.41,2.19h.32v-.2a8,8,0,0,0-1.1-3.64l-.14-.23c.21.29.43.58.66.85a14.17,14.17,0,0,0,1.05,1.13c.21.21.42.41.64.59-.06.32-.13.62-.2.92s-.11.39-.17.58h.28c.12-.41.23-.84.32-1.29.28.23.56.46.84.66a6.19,6.19,0,0,0,1.48.85c.32,0,.64.08,1,.14.49.09,1,.2,1.45.32a12.89,12.89,0,0,1,1.8-.75c.49-.16,1-.29,1.48-.42Zm-26.21-12a2.35,2.35,0,0,0,1.26,2.54,2,2,0,0,0,2.47-.45,1.57,1.57,0,0,0,.29-.52q.42.27.84.51a2.19,2.19,0,0,1-.44,2.22,3.38,3.38,0,0,1-1.18.83c-.48.18-.8.2-.78.25h0a3.75,3.75,0,0,1-1.56,0,5,5,0,0,1-3.21-3.53,6,6,0,0,1,.53-4.64q1,.93,2.13,1.8A2.59,2.59,0,0,0,371.82,81.37Zm3.86,1.47a1.63,1.63,0,0,1-.29.49,1.78,1.78,0,0,1-2.18.33,2.08,2.08,0,0,1-1-2.24,2.58,2.58,0,0,1,.31-.84c.35.27.71.52,1.07.78a1.11,1.11,0,0,0-.15.35,1.37,1.37,0,0,0,0,.38,1.13,1.13,0,0,1,.2-.71C374.26,81.89,375,82.38,375.68,82.84Zm-2.08-1.49a1,1,0,0,1,.5-.37,1.3,1.3,0,0,1,1.42.47,1.4,1.4,0,0,1,.17,1.34C375,82.33,374.28,81.85,373.6,81.35Zm4,2.63-.95-.56,0-.07a2.47,2.47,0,0,0-.51-.72,2.84,2.84,0,0,1,.5.72l0,.06-.3-.18c-.17-.1-.34-.22-.51-.33a1.62,1.62,0,0,0-.23-1.54,1.41,1.41,0,0,0-1.55-.44,1.22,1.22,0,0,0-.52.4q-.53-.39-1.05-.81a2.55,2.55,0,0,1,1.12-1l.31-.11a3.1,3.1,0,0,1,.42-.08,3.18,3.18,0,0,1,3.52,3.1,3.39,3.39,0,0,1,0,.64h0A4.23,4.23,0,0,1,377.64,84Zm-1,1.57a4.54,4.54,0,0,1-.86.64,3.53,3.53,0,0,0,.53-.48,2.24,2.24,0,0,0,.43-2.24l.91.54A4.13,4.13,0,0,1,376.61,85.55Zm10.68,3.74.09.12-.1-.13a6.36,6.36,0,0,0-2-1.84c.38.13.77.27,1.17.39A14.88,14.88,0,0,0,387.29,89.29Zm.69-9.24c-.3-.47-.62-.92-1-1.36.06-.48.13-.94.22-1.38A15.27,15.27,0,0,0,388,80.05Zm2.48,6.88a18.93,18.93,0,0,0-.5-2.49A6.12,6.12,0,0,1,390.46,86.93Zm-.21,3.35-.54-.69A15.74,15.74,0,0,1,387,79.16c.37.51.72,1,1,1.57A16.7,16.7,0,0,1,390.25,90.28Z"/>
    <path class="b" d="M67.29,93.4c.49.13,1,.26,1.48.42a13.29,13.29,0,0,1,1.79.75c.48-.12,1-.23,1.46-.32.31-.06.63-.1,1-.14a5.94,5.94,0,0,0,1.47-.85c.28-.2.56-.43.84-.66.09.45.21.88.33,1.29h.27c0-.19-.11-.38-.16-.58s-.14-.6-.2-.92c.21-.18.43-.38.64-.59s.71-.73,1-1.13.44-.56.66-.85l-.15.23a8,8,0,0,0-1.1,3.64v.2H77a8.69,8.69,0,0,1,.41-2.19A7.83,7.83,0,0,1,78,90.22a8.25,8.25,0,0,1,1.14-1.5,5.47,5.47,0,0,1,1.23-1,4.77,4.77,0,0,1,5.91,1,3.08,3.08,0,0,1,.32.48A2.92,2.92,0,0,1,87,91a2,2,0,0,1-.08.35,2.38,2.38,0,0,1-1.51,1.7,1.75,1.75,0,0,1-1.69-.48,1.09,1.09,0,0,1-.2-1.12,1.28,1.28,0,0,1,.24-.35,1.2,1.2,0,0,0-.25.35,1.07,1.07,0,0,0,.17,1.15,1.82,1.82,0,0,0,1.76.56,2.54,2.54,0,0,0,1.66-1.76l0-.23A3,3,0,0,0,87,89.49a2.89,2.89,0,0,0-.5-.91,5,5,0,0,0-2.81-1.67,5.17,5.17,0,0,0-2,0,43.77,43.77,0,0,0,5.84-2.72,4.41,4.41,0,0,0,1.13,1.59,4.14,4.14,0,0,0,1.8.92,3.13,3.13,0,0,0,.43.07,3.71,3.71,0,0,0,1.88,0,3.29,3.29,0,0,0,.89-.37l-.12.07.53-.32a5.85,5.85,0,0,0,2-3,6.19,6.19,0,0,0-.52-4.84,44.94,44.94,0,0,0,7.93-9.55c.59-.94,1.14-1.91,1.66-2.89a6,6,0,0,0,1.24-2.33l0-.26c.08-.15.15-.3.22-.45l-.09.06.16-.22c.3-.66.58-1.34.86-2,.51-1.27,1-2.55,1.39-3.84a59.93,59.93,0,0,0,2-8.29c.14-.85.27-1.71.34-2.56.53-.55,2.26-1.21,3.71-2.7.92-.94,1-2.67.95-4.07a3.94,3.94,0,0,0,1.28,0,3.24,3.24,0,0,0,1.74-.87,3.13,3.13,0,0,0,.87-3,2.51,2.51,0,0,0-.63-1.11,2.45,2.45,0,0,0-.85-.56,2.35,2.35,0,0,0-1.35-.13,1.87,1.87,0,0,1,.61,0,2.36,2.36,0,0,1,1.49.78,2.41,2.41,0,0,1,.54,1.07,3.05,3.05,0,0,1-.07,1.4,2.84,2.84,0,0,1-.85,1.31,2.77,2.77,0,0,1-1.56.7,3.59,3.59,0,0,1-1.26-.08,13.27,13.27,0,0,0-.26-1.67,10.62,10.62,0,0,1-.46,1.41,3.62,3.62,0,0,1-1.38-1.2,3.52,3.52,0,0,1-.44-.94,3.65,3.65,0,0,1-.15-1,4.3,4.3,0,0,1,.5-2.12,4.4,4.4,0,0,1,1.52-1.66,4.83,4.83,0,0,1,1-.48,5,5,0,0,1,1.15-.2,5.53,5.53,0,0,1,2.34.36,5.73,5.73,0,0,1,2,1.32A5.6,5.6,0,0,1,123.23,35a7.07,7.07,0,0,1,.13,2.66,7.35,7.35,0,0,1-.75,2.32,7.24,7.24,0,0,1-1.27,1.72,7.9,7.9,0,0,1-2.6,1.73c-.7.28-1.12.37-1.11.44a2.46,2.46,0,0,0,1.21-.13l.09,0,.22,0a11,11,0,0,0,2.71-.59,4.14,4.14,0,0,0,1.42-.85l-.16,0c-.49-.19-.49-.62.06-1.05a8.86,8.86,0,0,0,2-1.72,7.2,7.2,0,0,0,.56-.84c-1.29.76-1.44.26-1-.08a3.68,3.68,0,0,0,1.6-2.12c-.83.71-1.4.54-1.36-.09,0-.4,1.27-2.16.26-3.51,0,.73-.55,1.61-.74,1-.12-.46,0-2.8-1.82-3.55.52.82.62,1.43.26,1.05a7.46,7.46,0,0,0-7-2.18A7.44,7.44,0,0,1,122,31.39a7.2,7.2,0,0,1,.78,1c-.11-.13-.23-.27-.35-.39a6.15,6.15,0,0,0-2.29-1.51,6.22,6.22,0,0,0-2.69-.4,6.11,6.11,0,0,0-1.34.26,5.53,5.53,0,0,0-1.22.6,5.07,5.07,0,0,0-2.25,4.44,4.53,4.53,0,0,0,.22,1.22,3.8,3.8,0,0,0,.55,1.08A4.09,4.09,0,0,0,115.1,39a5.84,5.84,0,0,1-2.34,2.84,3,3,0,0,0-1.46,2,6.47,6.47,0,0,0-.08,2.32c0,.2-.08.34-.1.41a40.37,40.37,0,0,1-.61,4.07l.14-.07-.15.12a54.43,54.43,0,0,1-1.89,6.81c-.24.7-.48,1.4-.74,2.08s-.47,1.22-.72,1.83c-.16.38-.33.76-.5,1.14a4.1,4.1,0,0,0,0-.49,7.08,7.08,0,0,0-.17-1.52,8.79,8.79,0,0,0-.32-1,8.22,8.22,0,0,0-1.78-2.82h0s.32-2.79-1.56-4c-2.38-1.49-3.08-4.52-5.25-5.09,1.76,1.27,1.32,3.44,3.24,6.21a10.29,10.29,0,0,1-2.62-2.49A10.16,10.16,0,0,1,96.38,47c-.19-1.51-.29-3.09.45-4a2.75,2.75,0,0,1,2.57-1,.84.84,0,0,1,.59.85.91.91,0,0,0-.51-1.05,3.09,3.09,0,0,0-3.16.78,3.54,3.54,0,0,0-1,2.1,10,10,0,0,0-.1,2.47,9.87,9.87,0,0,0,1.92,5,9.5,9.5,0,0,0,2,2,4.32,4.32,0,0,0-2.65.38,19.73,19.73,0,0,1,3.27.31,8.08,8.08,0,0,1,5.54,4.93,6.72,6.72,0,0,1,.43,1.74,5,5,0,0,1-.13,1.8l0,.15a5.48,5.48,0,0,1-1.82,2.75,6.18,6.18,0,0,1-.53.36,5,5,0,0,1-1.69.68,4.45,4.45,0,0,1-.81.08A3.75,3.75,0,0,1,97.09,64a2.67,2.67,0,0,1,.61-1.83,2.87,2.87,0,0,1,1.47-.93,2.75,2.75,0,0,0-1.57.84,2.36,2.36,0,0,0-.33.42,3.13,3.13,0,0,1,3.73-2,2.52,2.52,0,0,1,1.78,2,2,2,0,0,1-1,2.23,1.81,1.81,0,0,1-2.19-.32,1.55,1.55,0,0,1-.13-1.89,1.3,1.3,0,0,1,1.43-.46,1.08,1.08,0,0,1,.69.73,1.47,1.47,0,0,1,0,.37,1.3,1.3,0,0,0,0-.37,1.12,1.12,0,0,0-.69-.79,1.39,1.39,0,0,0-1.55.44,1.69,1.69,0,0,0,.08,2.1,2,2,0,0,0,2.46.45,2.37,2.37,0,0,0,1.27-2.54,2.86,2.86,0,0,0-2-2.33,3.49,3.49,0,0,0-3.14.67,3.69,3.69,0,0,0-1.27,3.42,4.31,4.31,0,0,0,.79,1.93,3.91,3.91,0,0,0,.3.41A4.24,4.24,0,0,0,100.74,68c.1,0,.2,0,.3,0a5.34,5.34,0,0,0,1.32-.2,6.11,6.11,0,0,0,1.88-.93,4.93,4.93,0,0,0,.49-.42,46.67,46.67,0,0,1-9.14,11.84,6,6,0,0,0-.55-.8c-.17-.19-.34-.38-.52-.56l-.17.17a6.51,6.51,0,0,1,.51.54,4.55,4.55,0,0,1,.57.81c-.68.62-1.39,1.23-2.12,1.81A2.92,2.92,0,0,0,91.69,79l-.17,0a3.54,3.54,0,0,0-3,.71,3.7,3.7,0,0,0-1.3,3c0,.13,0,.26,0,.38l0,.21a4.22,4.22,0,0,0,.24.81,44.25,44.25,0,0,1-6.87,3c-.54.19-1.09.37-1.64.54l-.11.12a1,1,0,0,1-.26.06s.15-.1.46-.25a14.64,14.64,0,0,0,1.39-4.53,13.9,13.9,0,0,0-.06-4.38c1.71,2,3.26,2.54,3.3,2.43s-1.61-1.23-3.22-3.86l-.15-.25a11,11,0,0,1,2.07-1.53,10,10,0,0,1,6.79-1.09,13.4,13.4,0,0,1,5.14,2.72l.11-.21a13.08,13.08,0,0,0-5.2-2.78,10.17,10.17,0,0,0-7,1.08,10.78,10.78,0,0,0-2.08,1.52A12.33,12.33,0,0,1,79.81,66c0-.1.1-.2.15-.3,0,.13,0,.21,0,.2s.09-.26.24-.72a8.48,8.48,0,0,1,3.08-3.36,8.28,8.28,0,0,1,5.13-1.15,8.45,8.45,0,0,1,1.33.26,4.05,4.05,0,0,1,1.08,1.26,4.12,4.12,0,0,1,.44,2.55,2.37,2.37,0,0,1-1.4,1.75l-.26.1a1.78,1.78,0,0,0,.92-1.33,1.77,1.77,0,1,0-2.68,1.27l0,0a2.19,2.19,0,0,0,2.1.18,2.68,2.68,0,0,0,1.64-1.92,4.38,4.38,0,0,0-.4-2.82,4,4,0,0,0-.45-.7,6.78,6.78,0,0,1,2.17,1.41,5.75,5.75,0,0,1,.35,7.65,4.07,4.07,0,0,1-2.64,1.33,4.16,4.16,0,0,1-2.59-.57,4.09,4.09,0,0,0,2.6.78,4.29,4.29,0,0,0,2.93-1.25,6.06,6.06,0,0,0,1.66-3.84,6.17,6.17,0,0,0-.16-1.9h0c.33-.1.16-.45.16-.45a7.45,7.45,0,0,0-2.91-3.89c-.75-.52,1.8-1.62.9-1.82s-5,.49-5.75.52c-1,0,0-1.57-.87-1.28a36.14,36.14,0,0,0-4.58,3c-.62.41-.51-.8-1-.32a26,26,0,0,0-2.21,3.73c-.27.47-.53-.28-.69.13a17.59,17.59,0,0,0-.41,2.85,4.36,4.36,0,0,0-.08,1,13,13,0,0,0-.21,2.12l0-.05s-3.34,2.69-2.57,6c1,4.08-1.37,8,.14,11a17.17,17.17,0,0,0,0,3.28c-1.2,1.45-2.52,2.68-3.94,2.82a4.19,4.19,0,0,1-3.91-1.64,1.29,1.29,0,0,1,.27-1.56,1.39,1.39,0,0,0-.57,1.69A4,4,0,0,0,68,93.39h-.72ZM93.34,80.34q1.09-.87,2.13-1.8A6,6,0,0,1,96,83.18a5,5,0,0,1-3.2,3.53,3.8,3.8,0,0,1-1.57,0h0s-.3-.07-.79-.25a3.38,3.38,0,0,1-1.18-.83,2.21,2.21,0,0,1-.44-2.22q.42-.24.84-.51a1.78,1.78,0,0,0,.29.52,2,2,0,0,0,2.47.45,2.36,2.36,0,0,0,1.27-2.54A2.78,2.78,0,0,0,93.34,80.34Zm-1.38,1a1,1,0,0,1,.15.34.81.81,0,0,1,0,.37.79.79,0,0,0,0-.38,1.34,1.34,0,0,0-.14-.35c.35-.26.71-.51,1.06-.78a2.2,2.2,0,0,1,.31.84,2.07,2.07,0,0,1-1,2.24,1.79,1.79,0,0,1-2.19-.33,1.86,1.86,0,0,1-.29-.49C90.56,82.38,91.27,81.89,92,81.38Zm-2.13,1.41A1.42,1.42,0,0,1,90,81.45,1.31,1.31,0,0,1,91.43,81a1.08,1.08,0,0,1,.5.37Q90.91,82.1,89.83,82.79Zm-2.16.29h0a3.4,3.4,0,0,1,0-.64A3.21,3.21,0,0,1,88.82,80a3.17,3.17,0,0,1,2.34-.7,2.84,2.84,0,0,1,.42.08l.31.11a2.55,2.55,0,0,1,1.12,1q-.51.42-1.05.81a1.19,1.19,0,0,0-.51-.4,1.4,1.4,0,0,0-1.55.44,1.6,1.6,0,0,0-.23,1.54l-.52.33-.29.18,0-.06a2.69,2.69,0,0,1,.49-.72,2.73,2.73,0,0,0-.51.72l0,.07-1,.56A4.23,4.23,0,0,1,87.67,83.08Zm.23.93.92-.54a2.21,2.21,0,0,0,.42,2.24,3.53,3.53,0,0,0,.53.48,4.88,4.88,0,0,1-.86-.64A4.13,4.13,0,0,1,87.9,84Zm-8.83,3.82,1.17-.39a6.39,6.39,0,0,0-2,1.84l-.09.13.08-.12A15,15,0,0,0,79.07,87.83Zm-.79-10.52c.09.44.17.9.22,1.38-.33.44-.65.89-1,1.36A16.18,16.18,0,0,0,78.28,77.31Zm-2.71,7.13a16.15,16.15,0,0,0-.5,2.49A5.81,5.81,0,0,1,75.57,84.44Zm2-3.71a17.77,17.77,0,0,1,1-1.57,15.86,15.86,0,0,1-2.75,10.43c-.17.23-.36.46-.54.69A16.63,16.63,0,0,1,77.52,80.73Z"/>
  </g>
</svg>
