<svg xmlns="http://www.w3.org/2000/svg" width="203.77mm" height="50.71mm" viewBox="0 0 577.61 143.75">
  <defs>
    <style>
      .a {
        fill: #ebe3be;
      }

      .b {
        fill: #ebe3be;
      }

      .c {
        fill: #ebe3be;
      }

      .d {
        fill: #ebe3be;
      }

      .e {
        fill: #900001;
      }

      .f {
        fill: #ebe3be;
      }
    </style>
  </defs>
  <title>Asset 3_SVG</title>
  <g>
    <polygon class="a" points="432.93 32.8 432.93 32.8 432.91 32.8 432.92 32.8 432.93 32.8"/>
    <path class="b" d="M438.65,62l31.16,51.68h24.55S459.65,79.44,442.28,62Z"/>
    <path class="b" d="M420.71,62c-20.33,17.48-61,51.64-61,51.64h25.15L424.34,62Z"/>
    <path class="b" d="M445.92,62c21,14.83,73.47,51.68,73.47,51.68h33.37C547,112.87,470.42,73.42,448.28,62Z"/>
    <polygon class="b" points="432.53 61.96 431.49 61.96 429.63 61.97 417.26 113.64 431.49 113.64 432.53 113.64 442.6 113.64 434.21 61.96 432.53 61.96"/>
    <path class="c" d="M416.44,62c-22.78,11.79-102,52.6-104.63,51.63h27.28s56.48-36.78,79-51.63Z"/>
    <path class="d" d="M445.92,62c-4.63-3.27-7.74-5.48-8.4-6a30.29,30.29,0,0,1-4.74-4l-.15,0c.22.41,4,4.32,9.65,10Z"/>
    <path class="e" d="M442.28,62c17.37,17.48,52.08,51.68,52.08,51.68h25S466.92,76.79,445.92,62Z"/>
    <polygon class="d" points="432.63 51.98 432.59 51.99 434.21 61.96 438.65 61.96 432.63 51.98"/>
    <polygon class="e" points="434.21 61.96 442.6 113.64 469.81 113.64 438.65 61.96 434.21 61.96"/>
    <path class="d" d="M451.81,63.08c-5.52-2.38-9.49-4.21-9.49-4.21l6,3.09h.14Z"/>
    <path class="e" d="M451.81,63.08,448.42,62h-.14c22.14,11.46,98.71,50.91,104.48,51.68H553l24.57.23S563.31,112.86,451.81,63.08Z"/>
    <path class="d" d="M416.44,62l6.09-3.15s-4.31,2-10.19,4.5l4-1.35Z"/>
    <path class="b" d="M416.44,62h-.14l-4,1.35C345.75,96.7,291.18,112.47,287,113.64h24.8C314.48,114.61,393.66,73.8,416.44,62Z"/>
    <path class="d" d="M431.89,52.1,432,52l-.16,0a30.29,30.29,0,0,1-4.74,4c-.66.49-4,2.72-9,6h2.62C426.88,56.68,431.18,52.9,431.89,52.1Z"/>
    <path class="e" d="M418.09,62c-22.52,14.85-79,51.63-79,51.63h20.63s40.66-34.16,61-51.64Z"/>
    <polygon class="d" points="424.34 61.98 429.63 61.97 432.02 51.99 431.99 51.98 431.89 52.1 424.34 61.98"/>
    <polygon class="e" points="424.34 61.98 384.87 113.64 417.26 113.64 429.63 61.97 424.34 61.98"/>
    <path class="d" d="M432,52l-.1.12Z"/>
    <rect class="b" x="416.46" y="58.03" width="31.96" height="4.33"/>
    <path class="b" d="M416.46,58l31.85,0a29.88,29.88,0,0,1-11.48-8.28h-8.1A24.35,24.35,0,0,1,416.46,58Z"/>
    <rect class="d" x="428.75" y="48.11" width="8.09" height="1.65"/>
    <path class="e" d="M428.73,49.76a21.56,21.56,0,0,1-2,2.17,16,16,0,0,0,3.63-1.37l-1,2.21,3.36-2.13,3,2.26-.1-2.26,4.16,2.21-3-3.09Z"/>
    <path class="e" d="M436.94,48.18h-8.25s1-1.89,4.13-1.94S436.94,48.18,436.94,48.18Z"/>
    <path class="c" d="M427.86,52.84a20,20,0,0,1-3.81,3.41c-1.46.75-.08,1.5.73.89A30.81,30.81,0,0,0,427.86,52.84Z"/>
    <path class="c" d="M432.48,51.75a34.62,34.62,0,0,1-2.35,4.77c-.73.89,2,.82,3.56.55S432.72,52.84,432.48,51.75Z"/>
    <path class="c" d="M436.77,52s5.27,4.23,6.48,4.43-2.35.69-2.35.69A20.32,20.32,0,0,1,436.77,52Z"/>
    <path class="b" d="M432.2,46.41s-2.33.5-2.59,1.2.63.11.76.07S432.2,46.41,432.2,46.41Z"/>
    <rect class="c" x="428.74" y="49.72" width="8.11" height="0.31"/>
    <rect class="c" x="428.73" y="48.19" width="8.12" height="0.37"/>
    <rect class="e" x="416.47" y="61.68" width="31.96" height="0.7"/>
    <rect class="e" x="416.46" y="58.02" width="31.97" height="0.59"/>
    <polygon class="a" points="145.88 32.9 145.89 32.9 145.86 32.9 145.87 32.9 145.88 32.9"/>
    <path class="b" d="M151.6,62.06l31.17,51.68h24.54S172.6,79.53,155.24,62.06Z"/>
    <path class="b" d="M133.66,62.09c-20.33,17.49-61,51.65-61,51.65H97.82l39.47-51.66Z"/>
    <path class="b" d="M158.88,62.06c21,14.82,73.47,51.68,73.47,51.68h33.36c-5.77-.77-82.34-40.23-104.48-51.68Z"/>
    <polygon class="b" points="145.48 62.06 144.44 62.06 142.58 62.06 130.21 113.74 144.44 113.74 145.48 113.74 155.55 113.74 147.16 62.06 145.48 62.06"/>
    <path class="b" d="M129.39,62.1c-22.78,11.79-102,52.61-104.63,51.64H52s56.48-36.78,79-51.64Z"/>
    <path class="d" d="M158.88,62.06c-4.64-3.28-7.75-5.49-8.41-6a31.5,31.5,0,0,1-4.74-4h-.15c.22.42,4,4.33,9.66,10Z"/>
    <path class="e" d="M155.24,62.06c17.36,17.47,52.07,51.68,52.07,51.68h25s-52.48-36.86-73.47-51.68Z"/>
    <polygon class="d" points="145.58 52.07 145.55 52.09 147.16 62.06 151.6 62.06 145.58 52.07"/>
    <polygon class="e" points="147.16 62.06 155.55 113.74 182.77 113.74 151.6 62.06 147.16 62.06"/>
    <path class="e" d="M164.76,63.17l-3.39-1.11h-.14c22.14,11.45,98.71,50.91,104.48,51.68h25S276.27,113,164.76,63.17Z"/>
    <path class="e" d="M129.39,62.1h-.13l-4,1.36C58.7,96.79,4.17,112.52,0,113.69l24.76,0C27.43,114.71,106.61,73.89,129.39,62.1Z"/>
    <path class="d" d="M144.84,52.2l.1-.13h-.16a30.89,30.89,0,0,1-4.73,4c-.67.5-4,2.72-9,6h2.61C139.83,56.78,144.14,53,144.84,52.2Z"/>
    <path class="e" d="M131.05,62.1C108.52,77,52,113.74,52,113.74H72.67s40.66-34.16,61-51.65Z"/>
    <polygon class="d" points="137.29 62.08 142.58 62.06 144.97 52.09 144.94 52.07 144.84 52.2 137.29 62.08"/>
    <polygon class="e" points="137.29 62.08 97.82 113.74 130.21 113.74 142.58 62.06 137.29 62.08"/>
    <path class="d" d="M144.94,52.07l-.1.13Z"/>
    <rect class="b" x="129.42" y="58.13" width="31.96" height="4.33"/>
    <path class="b" d="M129.42,58.11l31.85,0a29.92,29.92,0,0,1-11.49-8.27h-8.09A24.36,24.36,0,0,1,129.42,58.11Z"/>
    <rect class="d" x="141.7" y="48.21" width="8.09" height="1.65"/>
    <path class="e" d="M141.69,49.86a23,23,0,0,1-2,2.17,16.2,16.2,0,0,0,3.62-1.38l-.95,2.21,3.35-2.13,3,2.26-.09-2.26L152.75,53l-3-3.09Z"/>
    <path class="e" d="M149.89,48.28h-8.24s1-1.9,4.12-1.94S149.89,48.28,149.89,48.28Z"/>
    <path class="c" d="M140.81,52.94A20,20,0,0,1,137,56.35c-1.45.74-.08,1.49.73.88A30.24,30.24,0,0,0,140.81,52.94Z"/>
    <path class="c" d="M145.43,51.85a35.19,35.19,0,0,1-2.35,4.77c-.73.88,2,.82,3.57.54S145.67,52.94,145.43,51.85Z"/>
    <path class="c" d="M149.72,52.12s5.27,4.23,6.48,4.43-2.35.68-2.35.68A20.15,20.15,0,0,1,149.72,52.12Z"/>
    <path class="b" d="M145.15,46.5s-2.32.51-2.58,1.21.62.11.75.06S145.15,46.5,145.15,46.5Z"/>
    <rect class="c" x="141.69" y="49.82" width="8.11" height="0.3"/>
    <rect class="c" x="141.69" y="48.28" width="8.12" height="0.37"/>
    <rect class="e" x="129.42" y="61.77" width="31.96" height="0.66"/>
    <rect class="e" x="129.42" y="58.11" width="31.97" height="0.59"/>
    <path class="e" d="M316.58,54.59H287.39l-26.19.08s-103,57.84-261.2,59v30H577.52l.09-29.85c-18.46-.81-55.3-3.29-55.3-3.29C444.85,109.71,316.58,54.59,316.58,54.59Z"/>
    <path class="f" d="M289.35,37.37l.27,0s1.88,2.26,8.17,6.94S439,143.72,439,143.72H395.82S290.89,40.31,289.35,37.37Z"/>
    <polygon class="f" points="289.29 37.39 289.35 37.37 353.49 143.72 306.55 143.72 289.29 37.39"/>
    <path class="f" d="M356.06,69.76c46.46,18.55,221.46,74,221.46,74H497c-5.38,2-190.95-94.46-190.95-94.46S334.37,62.34,356.06,69.76Z"/>
    <path class="f" d="M221.94,69.73C155,100.15,0,143.72,0,143.72H81c5.38,2,191-94.49,191-94.49S243.63,62.31,221.94,69.73Z"/>
    <path class="f" d="M288.24,37.37l-.27,0s-1.88,2.26-8.16,6.94S128,143.72,128,143.72h35.58S286.7,40.31,288.24,37.37Z"/>
    <polygon class="f" points="288.3 37.39 288.24 37.37 206.98 143.72 262.84 143.72 288.3 37.39"/>
    <rect class="b" x="261.47" y="47.81" width="55.12" height="7.47"/>
    <path class="b" d="M261.47,47.79l54.93,0s-11.76-4.34-19.81-14.27H282.64S276,43.28,261.47,47.79Z"/>
    <rect class="d" x="282.64" y="30.76" width="14.03" height="2.9"/>
    <path class="e" d="M282.64,33.55a38.16,38.16,0,0,1-3.44,3.74s4.41-1.12,6.26-2.37l-1.65,3.81,5.78-3.67L294.72,39l-.17-3.89,7.18,3.82-5.14-5.33Z"/>
    <path class="e" d="M296.79,30.82H282.57s1.67-3.26,7.11-3.34S296.79,30.82,296.79,30.82Z"/>
    <path class="c" d="M281.13,38.86s-4.05,4.59-6.57,5.88-.14,2.58,1.26,1.53S281.13,38.86,281.13,38.86Z"/>
    <path class="c" d="M289.09,37s-2.79,6.7-4,8.23,3.49,1.41,6.15.94S289.51,38.86,289.09,37Z"/>
    <path class="c" d="M296.49,37.45s9.09,7.29,11.18,7.64-4.05,1.18-4.05,1.18A35.11,35.11,0,0,1,296.49,37.45Z"/>
    <path class="b" d="M288.61,27.76s-4,.87-4.46,2.08,1.08.19,1.31.12S288.61,27.76,288.61,27.76Z"/>
    <rect class="c" x="282.64" y="33.51" width="14.04" height="0.5"/>
    <rect class="c" x="282.62" y="30.83" width="14.05" height="0.64"/>
    <rect class="e" x="261.48" y="54.1" width="55.13" height="1.21"/>
    <rect class="e" x="261.47" y="47.79" width="55.13" height="1.01"/>
    <polygon class="e" points="115.35 114.91 121.25 111.7 121.03 115.54 130.3 116.6 120.89 117.94 120.67 121.77 115.13 118.74 105.71 120.07 111.68 116.88 106.07 113.85 115.35 114.91"/>
    <polygon class="e" points="167.22 130.82 172.56 134.28 171.93 129.62 179.61 127.62 171.53 126.71 170.9 122.04 166.58 126.17 158.5 125.26 163.9 128.7 159.53 132.82 167.22 130.82"/>
    <polygon class="e" points="210.11 98.4 213.68 100.71 213.25 97.6 218.37 96.27 212.99 95.66 212.56 92.55 209.69 95.3 204.31 94.69 207.9 96.99 204.99 99.73 210.11 98.4"/>
    <polygon class="e" points="170.81 93.33 174.32 91.71 174.01 93.88 179.23 94.79 173.82 95.24 173.51 97.41 170.5 95.5 165.09 95.95 168.63 94.33 165.59 92.42 170.81 93.33"/>
    <polygon class="e" points="241.13 134.35 249.51 139.28 248.16 132.26 259.61 128.81 247.32 127.89 245.97 120.86 239.79 127.35 227.49 126.43 235.94 131.33 229.67 137.81 241.13 134.35"/>
    <polygon class="e" points="256.67 101.86 262.61 105.36 261.65 100.38 269.77 97.94 261.06 97.28 260.1 92.31 255.72 96.9 247 96.25 252.99 99.73 248.55 104.32 256.67 101.86"/>
    <polygon class="e" points="463.7 114.4 457.8 111.19 458.02 115.03 448.75 116.09 458.16 117.43 458.38 121.27 463.92 118.23 473.34 119.56 467.37 116.37 472.98 113.34 463.7 114.4"/>
    <polygon class="e" points="402.23 130.82 396.88 134.28 397.52 129.62 389.84 127.62 397.92 126.71 398.55 122.04 402.86 126.17 410.95 125.26 405.55 128.7 409.92 132.82 402.23 130.82"/>
    <polygon class="e" points="359.33 98.4 355.77 100.71 356.19 97.6 351.07 96.27 356.46 95.66 356.88 92.55 359.75 95.3 365.14 94.69 361.54 96.99 364.45 99.73 359.33 98.4"/>
    <polygon class="e" points="405.17 92.49 401.66 90.86 401.98 93.03 396.76 93.94 402.17 94.39 402.48 96.56 405.48 94.65 410.9 95.1 407.35 93.48 410.4 91.57 405.17 92.49"/>
    <polygon class="e" points="326.27 134.35 317.89 139.28 319.24 132.26 307.79 128.81 320.08 127.89 321.43 120.86 327.61 127.35 339.92 126.43 331.46 131.33 337.73 137.81 326.27 134.35"/>
    <polygon class="e" points="312.77 101.86 306.83 105.36 307.79 100.38 299.67 97.94 308.39 97.28 309.34 92.31 313.72 96.9 322.44 96.25 316.45 99.73 320.89 104.32 312.77 101.86"/>
    <rect class="e" x="289.43" y="0.59" width="1.01" height="27.84"/>
    <path class="e" d="M289.44.63V13.51c-17.64-10.64-28.36,10.63-46,0C263.9,18.07,269-3.93,289.44.63Z"/>
    <rect class="e" x="145.55" y="26.44" width="0.76" height="20.78"/>
    <path class="e" d="M145.56,26.47v9.61c-13.16-7.93-21.17,7.94-34.33,0C126.49,39.49,130.29,23.07,145.56,26.47Z"/>
    <rect class="e" x="432.74" y="25.95" width="0.76" height="20.78"/>
    <path class="e" d="M432.75,26v9.62c-13.17-7.94-21.17,7.93-34.33,0C413.68,39,417.48,22.57,432.75,26Z"/>
  </g>
</svg>
