<svg width="44" height="38" viewBox="0 0 44 38" fill="none" xmlns="http://www.w3.org/2000/svg">
<g filter="url(#filter0_d)">
<path d="M31.8438 10.7497H12.1562C10.9673 10.7497 10 11.717 10 12.9059V25.0934C10 26.2824 10.9673 27.2497 12.1562 27.2497H31.8438C33.0327 27.2497 34 26.2824 34 25.0934V12.9059C34 11.717 33.0327 10.7497 31.8438 10.7497ZM17.5 17.3122C17.5 18.2427 16.743 18.9997 15.8125 18.9997H14.6875C13.757 18.9997 13 18.2427 13 17.3122V16.1872C13 15.2566 13.757 14.4997 14.6875 14.4997H15.8125C16.743 14.4997 17.5 15.2566 17.5 16.1872V17.3122ZM27.1421 21.1423C26.9796 21.1423 26.8159 21.0897 26.6783 20.9813C26.353 20.7249 26.2972 20.2533 26.5536 19.928C26.7639 19.6614 26.875 19.3403 26.875 18.9997C26.875 18.659 26.7639 18.338 26.5537 18.0713C26.2972 17.746 26.3531 17.2744 26.6784 17.018C27.0036 16.7616 27.4752 16.8174 27.7317 17.1427C28.1465 17.669 28.375 18.3285 28.375 18.9997C28.375 19.6709 28.1465 20.3304 27.7316 20.8566C27.5837 21.0444 27.364 21.1423 27.1421 21.1423ZM29.5627 22.7551C29.4146 22.9201 29.2099 23.0042 29.0043 23.0042C28.8258 23.0042 28.6468 22.9409 28.5036 22.8124C28.1953 22.5358 28.1696 22.0615 28.4463 21.7533C29.1258 20.9961 29.5 20.0182 29.5 18.9997C29.5 17.9812 29.1258 17.0033 28.4463 16.246C28.1696 15.9377 28.1953 15.4636 28.5036 15.1869C28.8119 14.9103 29.286 14.9359 29.5627 15.2442C30.4895 16.2771 31 17.6108 31 18.9997C31 20.3885 30.4895 21.7223 29.5627 22.7551Z" fill="#4FC68D"/>
</g>
<defs>
<filter id="filter0_d" x="0" y="-3.00034" width="44" height="44" filterUnits="userSpaceOnUse" color-interpolation-filters="sRGB">
<feFlood flood-opacity="0" result="BackgroundImageFix"/>
<feColorMatrix in="SourceAlpha" type="matrix" values="0 0 0 0 0 0 0 0 0 0 0 0 0 0 0 0 0 0 127 0"/>
<feOffset/>
<feGaussianBlur stdDeviation="5"/>
<feColorMatrix type="matrix" values="0 0 0 0 0.0784314 0 0 0 0 0.921569 0 0 0 0 0.517647 0 0 0 0.3 0"/>
<feBlend mode="normal" in2="BackgroundImageFix" result="effect1_dropShadow"/>
<feBlend mode="normal" in="SourceGraphic" in2="effect1_dropShadow" result="shape"/>
</filter>
</defs>
</svg>
