<svg width="46" height="36" viewBox="0 0 46 36" fill="none" xmlns="http://www.w3.org/2000/svg">
<g filter="url(#filter0_d)">
<path d="M33.8776 12.517H32.9478V12.3612C32.9478 11.5553 32.3046 10.9344 31.4987 10.9344H11.5194C10.7135 10.9344 10 11.5553 10 12.3612V20.5085C10 21.3144 10.7135 22.0126 11.5194 22.0126H11.6957V22.8467C11.6957 24.0431 12.702 25.0648 13.8984 25.0648H33.8775C35.0739 25.0648 35.9999 24.0431 35.9999 22.8467V14.6994C36 13.503 35.0741 12.517 33.8776 12.517ZM21.5621 11.8956C24.0691 11.8956 26.1013 13.9279 26.1013 16.4349C26.1013 18.9418 24.0691 20.9741 21.5621 20.9741C19.0551 20.9741 17.0228 18.9418 17.0228 16.4349C17.0228 13.9279 19.0551 11.8956 21.5621 11.8956ZM33.9652 22.8467C33.9652 22.8943 33.9251 22.917 33.8776 22.917H13.8984C13.8508 22.917 13.7304 22.8943 13.7304 22.8467V22.0126H31.4987C32.3046 22.0126 32.9478 21.3144 32.9478 20.5085V14.6648H33.8776C33.9252 14.6648 33.9652 14.6518 33.9652 14.6994V22.8467Z" fill="white"/>
<path d="M21.1911 19.1156V19.8648H21.8694V19.1185C22.3215 19.0612 22.6297 18.9132 22.8728 18.6776C23.141 18.4181 23.2988 18.0726 23.2988 17.651C23.2988 17.2076 23.1733 16.8596 22.9043 16.6165C22.6506 16.3874 22.258 16.1563 21.7282 15.9301C21.5196 15.8382 21.3809 15.7497 21.3104 15.6666C21.2456 15.5903 21.2154 15.4905 21.2154 15.3615C21.2154 15.2329 21.2459 15.1319 21.3072 15.0526C21.3617 14.982 21.4487 14.9478 21.5727 14.9478C21.6964 14.9478 21.7897 14.9915 21.8634 15.0852C21.9414 15.1847 21.9824 15.3459 21.9824 15.5642V15.6822H23.2875L23.3303 15.5722L23.3307 15.5502C23.3378 15.098 23.1921 14.7187 22.9382 14.4239C22.7042 14.1517 22.3215 13.9758 21.9824 13.9015V13.1953H21.1911V13.883C20.852 13.9383 20.4876 14.0893 20.2343 14.3327C19.9558 14.6002 19.832 14.944 19.832 15.3547C19.832 15.8072 19.9754 16.1577 20.2412 16.3962C20.492 16.6214 20.898 16.845 21.4362 17.0591C21.638 17.1465 21.7801 17.2338 21.854 17.3185C21.9206 17.3947 21.9554 17.5089 21.9554 17.6578C21.9554 17.7835 21.9243 17.8807 21.8592 17.9545C21.7978 18.0241 21.7053 18.058 21.5762 18.058C21.4125 18.058 21.2495 18.0088 21.1492 17.9074C21.0499 17.8072 20.965 17.6313 20.965 17.3843V17.2648H19.7407L19.6876 17.3735L19.6872 17.4009C19.6776 17.9391 19.8298 18.3566 20.1418 18.6403C20.4241 18.8973 20.7389 19.0575 21.1911 19.1156Z" fill="white"/>
</g>
<defs>
<filter id="filter0_d" x="0" y="-5.00034" width="46" height="46" filterUnits="userSpaceOnUse" color-interpolation-filters="sRGB">
<feFlood flood-opacity="0" result="BackgroundImageFix"/>
<feColorMatrix in="SourceAlpha" type="matrix" values="0 0 0 0 0 0 0 0 0 0 0 0 0 0 0 0 0 0 127 0"/>
<feOffset/>
<feGaussianBlur stdDeviation="5"/>
<feColorMatrix type="matrix" values="0 0 0 0 1 0 0 0 0 1 0 0 0 0 1 0 0 0 0.2 0"/>
<feBlend mode="normal" in2="BackgroundImageFix" result="effect1_dropShadow"/>
<feBlend mode="normal" in="SourceGraphic" in2="effect1_dropShadow" result="shape"/>
</filter>
</defs>
</svg>
