<svg width="20" height="20" viewBox="0 0 20 20" fill="none" xmlns="http://www.w3.org/2000/svg">
<path d="M10 -0.000335693C15.5225 -0.000335693 20 4.47716 20 9.99966C20 15.5222 15.5225 19.9997 10 19.9997C4.4775 19.9997 0 15.5222 0 9.99966C0 4.47716 4.4775 -0.000335693 10 -0.000335693ZM10 2.49966C6.74563 2.49966 3.99687 4.59591 2.95875 7.49966H17.0412C16.0031 4.59591 13.2544 2.49966 10 2.49966ZM10 11.2497C10.6906 11.2497 11.25 10.6903 11.25 9.99966C11.25 9.30904 10.6906 8.74966 10 8.74966C9.30937 8.74966 8.75 9.30904 8.75 9.99966C8.75 10.6903 9.30937 11.2497 10 11.2497ZM17.5 9.99966C14.0844 9.99966 11.3181 13.2909 11.26 17.3728C14.795 16.7672 17.5 13.7034 17.5 9.99966ZM8.74 17.3728C8.68187 13.2909 5.91562 9.99966 2.5 9.99966C2.5 13.7034 5.205 16.7672 8.74 17.3728Z" fill="white"/>
</svg>
