<svg xmlns="http://www.w3.org/2000/svg" width="150" height="54" viewBox="0 0 150 54">
    <g fill="none" fill-rule="evenodd">
        <path fill="#282736" d="M103.22 16.02c0 3.42-2.7 5.58-6.84 5.58s-6.84-2.34-6.84-5.58c0-3.42 2.7-5.58 6.84-5.58 4.14-.18 6.84 2.34 6.84 5.58m-36.9 20.34c0 3.96-3.24 6.66-8.1 6.66-4.86 0-8.1-2.88-8.1-6.66 0-3.96 3.24-6.66 8.1-6.66 4.86 0 8.1 2.88 8.1 6.66m-39.6-20.34c0 3.42-2.7 5.58-6.84 5.58s-6.48-2.34-6.48-5.58c0-3.42 2.7-5.58 6.84-5.58 3.96-.18 6.48 2.34 6.48 5.58m86.58-.54c0-7.74-6.66-14.22-16.92-14.22-10.44 0-16.92 6.3-16.92 14.22 0 4.14 1.8 7.38 4.86 9.36.18 0 .18.18.18.36s-.18.18-.18.36c-3.42 1.8-5.76 4.32-6.84 7.56 0 0 0 .18-.36.18s-.36-.18-.36-.18c-1.08-3.42-3.42-5.94-6.84-7.56-.18 0-.18-.18-.18-.36s.18-.18.18-.36c3.24-1.98 4.86-5.4 4.86-9.36 0-7.74-6.66-14.22-16.92-14.22-10.44 0-16.92 6.3-16.92 14.22 0 4.14 1.8 7.38 4.86 9.36.18 0 .18.18.18.36s-.18 0-.18.18c-3.42 1.8-5.76 4.32-6.84 7.56 0 0 0 .18-.36.18-.18 0-.36-.18-.36-.18-1.08-3.42-3.42-5.94-6.84-7.56v-.36c0-.18.18-.18.18-.36 3.24-1.98 4.86-5.4 4.86-9.36 0-7.74-6.66-14.22-16.92-14.22C9.08 1.08 2.6 7.38 2.6 15.3c0 4.14 1.8 7.38 4.86 9.36.18 0 .18.18.18.36s-.18.18-.18.36C2.78 27.72.08 31.86.08 37.08c.72 8.82 8.28 16.2 19.98 16.2 9.9 0 16.74-5.04 18.9-11.88 0 0 0-.18.36-.18.18 0 .36.18.36.18 1.98 6.84 8.82 11.88 18.72 11.88 9.9 0 16.74-5.04 18.9-11.88 0 0 0-.36.36-.36.18 0 .36.18.36.18C80 48.06 86.84 53.1 96.92 53.1c11.88 0 19.44-7.38 19.44-16.2 0-5.4-2.7-9.36-7.38-11.7-.18 0-.18-.18-.18-.36s.18-.18.18-.36c2.52-1.8 4.32-5.04 4.32-9m30.06 5.76s-1.98 1.62-5.04 1.62c-3.6 0-5.4-1.98-5.4-5.22V11.7h3.6v5.94c0 1.44.54 1.98 1.8 1.98 1.08 0 1.44-.36 1.44-.36v-7.38h3.6v9.36zm-12.42-5.58s-.54-.36-1.62-.36c-.9 0-1.98.54-1.98 1.98v5.4h-3.6v-5.4c0-4.86 3.78-5.4 5.4-5.4 1.08 0 1.98.36 1.98.36l-.18 3.42zm18.9 1.62c0-9-7.38-16.38-16.2-16.38s-16.2 7.38-16.2 16.38 7.38 16.38 16.2 16.38 16.2-7.2 16.2-16.38"/>
        <path fill="#94D504" fill-rule="nonzero" d="M20.06 29.7c-4.86 0-8.1 2.88-8.1 6.66 0 3.96 3.24 6.66 8.1 6.66 4.86 0 8.1-2.88 8.1-6.66 0-3.78-3.06-6.66-8.1-6.66"/>
        <path fill="#F3CC00" fill-rule="nonzero" d="M96.38 29.7c-4.86 0-8.1 2.88-8.1 6.66 0 3.96 3.24 6.66 8.1 6.66 4.86 0 8.1-2.88 8.1-6.66 0-3.78-3.24-6.66-8.1-6.66"/>
        <path fill="#E2241B" fill-rule="nonzero" d="M58.22 21.6c4.14 0 6.84-2.34 6.84-5.58s-2.7-5.58-6.84-5.58-6.84 2.34-6.84 5.58 2.7 5.58 6.84 5.58"/>
    </g>
</svg>
