<svg xmlns="http://www.w3.org/2000/svg" width="11" height="11" viewBox="0 0 11 11">
    <path fill="#FFF" fill-rule="evenodd" d="M5.5 0C8.538 0 11 2.462 11 5.5S8.538 11 5.5 11 0 8.538 0 5.5 2.462 0 5.5 0zm2.193 2.602h-4.06V9H6.08c1.05-.009 1.05-.009 1.659-.554.608-.545.608-.545.608-1.441 0-.585 0-.585-.272-1.028-.273-.444-.273-.444-.796-.686-.436-.201-.436-.201-.996-.235l-.23-.007h-1.31V3.498h2.95v-.896zm-1.612 3.34c.544.008.544.008.852.29.308.28.308.28.308.764 0 .505 0 .505-.314.81-.315.306-.315.306-.877.306H4.745v-2.17H6.08z"/>
</svg>
