<svg xmlns="http://www.w3.org/2000/svg" width="36" height="36" viewBox="0 0 36 36">
    <path fill="#D5D5D5" fill-rule="evenodd" d="M27.107 13.369c1.2.705 2.149 1.59 2.847 2.654C30.65 17.087 31 18.231 31 19.454c0 1.193-.33 2.309-.99 3.348-.66 1.04-1.567 1.917-2.72 2.633.092.239.188.457.285.656.098.2.214.39.35.574.134.184.239.328.313.433.074.104.195.25.363.44.167.189.274.313.32.373.01.01.029.032.056.067l.063.074c.014.015.032.04.056.075.023.034.039.062.048.081l.035.075.028.09c.018.059.02.091.007.096-.014.005-.018.038-.014.097-.028.14-.088.248-.181.328-.093.08-.196.114-.307.104-.465-.07-.865-.149-1.2-.238-1.432-.398-2.725-1.034-3.878-1.91-.838.16-1.656.24-2.456.24-2.52 0-4.715-.657-6.585-1.97.54.04.95.06 1.228.06 1.497 0 2.935-.224 4.31-.671 1.377-.448 2.605-1.089 3.684-1.924 1.162-.915 2.055-1.969 2.678-3.161.624-1.194.935-2.456.935-3.789 0-.765-.107-1.52-.32-2.266zM15.821 8c1.777 0 3.42.34 4.932 1.022 1.511.68 2.704 1.608 3.578 2.781.875 1.173 1.312 2.45 1.312 3.833 0 1.382-.437 2.66-1.311 3.833-.875 1.173-2.068 2.1-3.579 2.781-1.511.681-3.155 1.022-4.932 1.021-.8 0-1.618-.08-2.455-.239-1.153.875-2.446 1.512-3.878 1.91-.335.089-.735.168-1.2.238h-.042c-.102 0-.197-.04-.286-.119-.088-.08-.142-.184-.16-.313-.01-.03-.014-.062-.014-.097s.002-.067.007-.097c.004-.03.014-.06.028-.09l.035-.074.048-.082c.033-.054.052-.08.056-.074.005.005.026-.02.063-.075.037-.054.056-.077.056-.067.046-.06.153-.184.32-.373.168-.188.29-.335.364-.44.074-.104.179-.248.313-.432.135-.184.252-.375.35-.574.097-.199.192-.418.285-.656-1.153-.716-2.06-1.596-2.72-2.64C6.331 17.933 6 16.82 6 15.637c0-1.383.437-2.66 1.311-3.834.875-1.173 2.067-2.1 3.579-2.781C12.4 8.34 14.045 8 15.82 8z"/>
</svg>
