<svg xmlns="http://www.w3.org/2000/svg" width="14" height="14" viewBox="0 0 14 14">
    <path fill="#D5D5D5" fill-rule="evenodd" d="M10.527 13.962c-.408-3.904 1.934-5.532 2.598-5.91-.005-.041-.008-.084-.008-.127v-5.57l-1.092-.588H6.284c-.011 0-.025 0-.036-.003-1.322-.177-1.374 1.354-1.374 1.545.008.097-.047.194-.143.234-.828.35-.477 1.445-.444 1.54.044.11-.008.236-.118.29-1.075.51-.398 1.429-.31 1.545.071.075.082.19.025.282C1.936 10.126 8.02 9.403 8.41 9.354c.03-.005.063-.008.096 0 .129.025.21.146.186.272-.908 4.506 1.185 4.457 1.84 4.342l-.005-.006z"/>
</svg>
