<svg xmlns="http://www.w3.org/2000/svg" width="100" height="92" viewBox="0 0 100 92">
    <g fill="none">
        <circle cx="50" cy="48" r="44" fill="#FB4B4E"/>
        <path fill="#FFCB37" d="M73.143 0c14.732 0 26.676 13.665 26.676 28.397 0 37.001-49.91 62.817-49.91 62.817S0 65.398 0 28.397C0 13.665 11.944 0 26.676 0c9.632 0 18.515 5.198 23.233 13.596C54.628 5.198 63.511 0 73.143 0zM58.134 23.716h-18c-2.026 0-3.648 1.621-3.648 3.648v31.134c-.04 2.027 1.581 3.649 3.608 3.649H56.27c6.325 0 11.433-5.108 11.433-11.432 0-6.324-5.108-11.432-11.433-11.432H43.743v-8.31h14.391c1.784-.163 3.203-1.541 3.324-3.325.163-2.027-1.337-3.77-3.324-3.932zM56.27 46.58c2.311 0 4.135 1.865 4.135 4.135 0 2.31-1.864 4.135-4.135 4.135H43.743v-8.27h12.526z"/>
        <path fill="#FCAC1F" d="M6.884 28.397c0-13.63 10.23-26.323 23.426-28.15C29.106.083 27.892 0 26.676 0 11.944 0 0 13.665 0 28.397c0 37.001 49.91 62.817 49.91 62.817s1.29-.67 3.441-1.935C42.076 82.65 6.884 59.472 6.884 28.397z"/>
    </g>
</svg>
