<svg xmlns="http://www.w3.org/2000/svg" width="18" height="18" viewBox="0 0 18 18">
    <defs>
        <linearGradient id="prefix__a" x1="0%" x2="102%" y1="0%" y2="101%">
            <stop offset="0%" stop-color="#FF0467"/>
            <stop offset="100%" stop-color="#FC7437"/>
        </linearGradient>
    </defs>
    <g fill="none" fill-rule="evenodd">
        <path fill="#000" d="M17.412 8.412h-.948c-.322-3.544-3.145-6.367-6.688-6.689V.776c0-.38-.303-.682-.682-.682-.38 0-.682.303-.682.682v.947c-3.544.322-6.367 3.145-6.689 6.689H.776c-.38 0-.682.303-.682.682 0 .379.303.682.682.682h.947c.322 3.543 3.145 6.366 6.689 6.688v.948c0 .379.303.682.682.682.379 0 .682-.303.682-.682v-.948c3.543-.322 6.366-3.145 6.688-6.688h.948c.379 0 .682-.303.682-.682 0-.38-.303-.682-.682-.682zM9.776 15.1v-1.838c0-.379-.303-.682-.682-.682-.38 0-.682.303-.682.682V15.1c-2.786-.322-5.002-2.539-5.325-5.324h1.838c.38 0 .682-.303.682-.682 0-.38-.303-.682-.682-.682H3.087c.323-2.786 2.54-5.002 5.325-5.325v1.838c0 .38.303.682.682.682.379 0 .682-.303.682-.682V3.087c2.785.323 5.002 2.54 5.324 5.325h-1.838c-.379 0-.682.303-.682.682 0 .379.303.682.682.682H15.1c-.322 2.785-2.539 5.002-5.324 5.324z"/>
        <circle cx="9" cy="9" r="1.594" fill="url(#prefix__a)"/>
    </g>
</svg>
