<svg xmlns="http://www.w3.org/2000/svg" xmlns:xlink="http://www.w3.org/1999/xlink" width="92" height="40" viewBox="0 0 92 40">
    <defs>
        <filter id="prefix__b" width="102.2%" height="105%" x="-1.1%" y="-2.5%" filterUnits="objectBoundingBox">
            <feOffset dy="-2" in="SourceAlpha" result="shadowOffsetInner1"/>
            <feComposite in="shadowOffsetInner1" in2="SourceAlpha" k2="-1" k3="1" operator="arithmetic" result="shadowInnerInner1"/>
            <feColorMatrix in="shadowInnerInner1" values="0 0 0 0 0 0 0 0 0 0 0 0 0 0 0 0 0 0 0.25 0"/>
        </filter>
        <path id="prefix__a" d="M7.692 0h76.616c2.675 0 3.645.278 4.623.801.977.523 1.745 1.29 2.268 2.268.523.978.801 1.948.801 4.623v24.616c0 2.675-.278 3.645-.801 4.623-.523.977-1.29 1.745-2.268 2.268-.978.523-1.948.801-4.623.801H7.692c-2.675 0-3.645-.278-4.623-.801-.977-.523-1.745-1.29-2.268-2.268C.278 35.953 0 34.983 0 32.308V7.692c0-2.675.278-3.645.801-4.623.523-.977 1.29-1.745 2.268-2.268C4.047.278 5.017 0 7.692 0z"/>
    </defs>
    <g fill="none" fill-rule="evenodd">
        <use fill="#1DA1F2" xlink:href="#prefix__a"/>
        <use fill="#000" filter="url(#prefix__b)" xlink:href="#prefix__a"/>
        <path fill="#FFF" fill-rule="nonzero" d="M42.975 28c7.17 0 11.092-6.155 11.092-11.492 0-.175-.004-.35-.011-.522.76-.57 1.422-1.282 1.944-2.092-.698.322-1.45.538-2.239.636.805-.5 1.423-1.291 1.715-2.234-.754.462-1.588.799-2.476.98C52.29 12.491 51.276 12 50.155 12c-2.153 0-3.899 1.809-3.899 4.039 0 .317.035.625.101.92-3.24-.168-6.112-1.776-8.035-4.22-.335.597-.528 1.29-.528 2.03 0 1.402.689 2.64 1.735 3.363-.64-.02-1.24-.203-1.765-.505l-.001.051c0 1.956 1.344 3.59 3.127 3.96-.327.092-.672.142-1.027.142-.251 0-.496-.026-.733-.073.496 1.605 1.935 2.773 3.641 2.806-1.334 1.083-3.014 1.729-4.841 1.729-.314 0-.625-.019-.93-.056C38.725 27.33 40.774 28 42.976 28"/>
    </g>
</svg>
