<svg xmlns="http://www.w3.org/2000/svg" xmlns:xlink="http://www.w3.org/1999/xlink" width="32" height="32" viewBox="0 0 32 32">
    <defs>
        <filter id="prefix__b" width="106.2%" height="106.2%" x="-3.1%" y="-3.1%" filterUnits="objectBoundingBox">
            <feOffset dy="-2" in="SourceAlpha" result="shadowOffsetInner1"/>
            <feComposite in="shadowOffsetInner1" in2="SourceAlpha" k2="-1" k3="1" operator="arithmetic" result="shadowInnerInner1"/>
            <feColorMatrix in="shadowInnerInner1" values="0 0 0 0 0 0 0 0 0 0 0 0 0 0 0 0 0 0 0.25 0"/>
        </filter>
        <path id="prefix__a" d="M5.128 0h21.744c1.783 0 2.43.186 3.082.534.652.349 1.163.86 1.512 1.512.348.652.534 1.299.534 3.082v21.744c0 1.783-.186 2.43-.534 3.082-.349.652-.86 1.163-1.512 1.512-.652.348-1.299.534-3.082.534H5.128c-1.783 0-2.43-.186-3.082-.534-.652-.349-1.163-.86-1.512-1.512C.186 29.302 0 28.655 0 26.872V5.128c0-1.783.186-2.43.534-3.082.349-.652.86-1.163 1.512-1.512C2.698.186 3.345 0 5.128 0z"/>
    </defs>
    <g fill="none" fill-rule="evenodd">
        <use fill="#4C75A3" xlink:href="#prefix__a"/>
        <use fill="#000" filter="url(#prefix__b)" xlink:href="#prefix__a"/>
        <path fill="#FFF" d="M16.275 21.95h1.255s.379-.042.573-.251c.178-.192.172-.552.172-.552s-.024-1.687.757-1.936c.771-.244 1.76 1.63 2.81 2.352.792.545 1.395.426 1.395.426l2.805-.04s1.466-.09.77-1.245c-.056-.095-.404-.855-2.084-2.417-1.76-1.635-1.523-1.37.595-4.198 1.29-1.722 1.806-2.773 1.644-3.224-.153-.429-1.102-.316-1.102-.316l-3.158.02s-.234-.032-.407.072c-.17.102-.279.34-.279.34s-.5 1.332-1.166 2.466c-1.406 2.39-1.968 2.517-2.198 2.369-.535-.346-.401-1.39-.401-2.132 0-2.318.35-3.284-.684-3.534-.343-.083-.596-.138-1.474-.147-1.126-.012-2.08.003-2.62.268-.359.177-.636.569-.467.592.208.028.681.127.932.469.323.44.312 1.431.312 1.431s.186 2.728-.434 3.067c-.426.232-1.01-.242-2.264-2.412-.642-1.111-1.127-2.34-1.127-2.34s-.093-.23-.26-.352c-.202-.15-.485-.196-.485-.196l-3 .02s-.451.012-.616.208c-.148.175-.012.536-.012.536s2.349 5.505 5.009 8.279c2.44 2.544 5.209 2.377 5.209 2.377z"/>
    </g>
</svg>
