<svg width="19" height="19" viewBox="0 0 19 19" version="1.1" xmlns="http://www.w3.org/2000/svg" xmlns:xlink="http://www.w3.org/1999/xlink">
<title>Group</title>
<desc>Created using Figma</desc>
<g id="Canvas" transform="translate(3618 -1649)">
<g id="Group">
<g id="Rectangle 25">
<use xlink:href="#path0_stroke" transform="translate(-3616 1651)" fill="#FFFFFF"/>
</g>
<g id="Rectangle 26">
<use xlink:href="#path1_fill" transform="translate(-3610 1657)" fill="#FFFFFF"/>
</g>
</g>
</g>
<defs>
<path id="path0_stroke" d="M 0 0L 0 -1.5L -1.5 -1.5L -1.5 0L 0 0ZM 15 0L 16.5 0L 16.5 -1.5L 15 -1.5L 15 0ZM 15 15L 15 16.5L 16.5 16.5L 16.5 15L 15 15ZM 0 15L -1.5 15L -1.5 16.5L 0 16.5L 0 15ZM 0 1.5L 15 1.5L 15 -1.5L 0 -1.5L 0 1.5ZM 13.5 0L 13.5 15L 16.5 15L 16.5 0L 13.5 0ZM 15 13.5L 0 13.5L 0 16.5L 15 16.5L 15 13.5ZM 1.5 15L 1.5 0L -1.5 0L -1.5 15L 1.5 15Z"/>
<path id="path1_fill" d="M 0 0L 3 0L 3 3L 0 3L 0 0Z"/>
</defs>
</svg>
