<svg width="22" height="22" viewBox="0 0 22 22" version="1.1" xmlns="http://www.w3.org/2000/svg" xmlns:xlink="http://www.w3.org/1999/xlink">
<title>Group</title>
<desc>Created using Figma</desc>
<g id="Canvas" transform="translate(360 -354)">
<g id="Group">
<g id="Vector">
<use xlink:href="#path0_stroke" transform="matrix(6.12323e-17 1 -1 6.12323e-17 -345.667 355)"/>
</g>
<g id="Vector">
<use xlink:href="#path1_stroke" transform="matrix(6.12323e-17 1 -1 6.12323e-17 -345.667 361.667)"/>
</g>
<g id="Vector">
<use xlink:href="#path2_stroke" transform="matrix(6.12323e-17 1 -1 6.12323e-17 -339 355)"/>
</g>
</g>
</g>
<defs>
<path id="path0_stroke" d="M 0 0L 0 -1L -1 -1L -1 0L 0 0ZM 6.66667 0L 7.66667 0L 7.66667 -1L 6.66667 -1L 6.66667 0ZM 6.66667 13.3333L 6.66667 14.3333L 7.66667 14.3333L 7.66667 13.3333L 6.66667 13.3333ZM 0 13.3333L -1 13.3333L -1 14.3333L 0 14.3333L 0 13.3333ZM 0 1L 6.66667 1L 6.66667 -1L 0 -1L 0 1ZM 5.66667 0L 5.66667 13.3333L 7.66667 13.3333L 7.66667 0L 5.66667 0ZM 6.66667 12.3333L 0 12.3333L 0 14.3333L 6.66667 14.3333L 6.66667 12.3333ZM 1 13.3333L 1 0L -1 0L -1 13.3333L 1 13.3333Z"/>
<path id="path1_stroke" d="M 0 0L 0 -1L -1 -1L -1 0L 0 0ZM 3.33333 0L 4.33333 0L 4.33333 -1L 3.33333 -1L 3.33333 0ZM 3.33333 6.66667L 3.33333 7.66667L 4.33333 7.66667L 4.33333 6.66667L 3.33333 6.66667ZM 0 6.66667L -1 6.66667L -1 7.66667L 0 7.66667L 0 6.66667ZM 0 1L 3.33333 1L 3.33333 -1L 0 -1L 0 1ZM 2.33333 0L 2.33333 6.66667L 4.33333 6.66667L 4.33333 0L 2.33333 0ZM 3.33333 5.66667L 0 5.66667L 0 7.66667L 3.33333 7.66667L 3.33333 5.66667ZM 1 6.66667L 1 0L -1 0L -1 6.66667L 1 6.66667Z"/>
<path id="path2_stroke" d="M 6.66667 13.3333L 6.66667 12.3333L 5.66667 12.3333L 5.66667 13.3333L 6.66667 13.3333ZM 6.66667 20L 6.66667 21L 7.66667 21L 7.66667 20L 6.66667 20ZM 0 20L -1 20L -1 21L 0 21L 0 20ZM 0 0L 0 -1L -1 -1L -1 0L 0 0ZM 6.66667 0L 7.66667 0L 7.66667 -1L 6.66667 -1L 6.66667 0ZM 6.66667 6.66667L 5.66667 6.66667L 5.66667 7.66667L 6.66667 7.66667L 6.66667 6.66667ZM 20 6.66667L 21 6.66667L 21 5.66667L 20 5.66667L 20 6.66667ZM 20 13.3333L 20 14.3333L 21 14.3333L 21 13.3333L 20 13.3333ZM 5.66667 13.3333L 5.66667 20L 7.66667 20L 7.66667 13.3333L 5.66667 13.3333ZM 6.66667 19L 0 19L 0 21L 6.66667 21L 6.66667 19ZM 1 20L 1 0L -1 0L -1 20L 1 20ZM 0 1L 6.66667 1L 6.66667 -1L 0 -1L 0 1ZM 5.66667 0L 5.66667 6.66667L 7.66667 6.66667L 7.66667 0L 5.66667 0ZM 6.66667 7.66667L 20 7.66667L 20 5.66667L 6.66667 5.66667L 6.66667 7.66667ZM 19 6.66667L 19 13.3333L 21 13.3333L 21 6.66667L 19 6.66667ZM 20 12.3333L 6.66667 12.3333L 6.66667 14.3333L 20 14.3333L 20 12.3333Z"/>
</defs>
</svg>
