<svg width="24" height="22" viewBox="0 0 24 22" version="1.1" xmlns="http://www.w3.org/2000/svg" xmlns:xlink="http://www.w3.org/1999/xlink">
<title>Group</title>
<desc>Created using Figma</desc>
<g id="Canvas" transform="translate(361 -473)">
<g id="Group">
<g id="Vector">
<use xlink:href="#path0_stroke" transform="translate(-353.598 474)" fill="#231F20"/>
</g>
<g id="Vector">
<use xlink:href="#path1_stroke" transform="translate(-346.859 482.696)" fill="#231F20"/>
</g>
<g id="Vector">
<use xlink:href="#path2_stroke" transform="translate(-348.651 483.597)" fill="#231F20"/>
</g>
<g id="Vector">
<use xlink:href="#path3_stroke" transform="translate(-361 490.052)" fill="#231F20"/>
</g>
</g>
</g>
<defs>
<path id="path0_stroke" d="M 10.1909 2.89855L 9.24703 3.22894L 9.48142 3.89855L 10.1909 3.89855L 10.1909 2.89855ZM 1.49378 5.7971L 1.49378 6.7971L 2.49378 6.7971L 2.49378 5.7971L 1.49378 5.7971ZM 10.4564 1.89855C 10.3568 1.89855 10.2905 1.89855 10.1909 1.89855L 10.1909 3.89855C 10.2905 3.89855 10.3568 3.89855 10.4564 3.89855L 10.4564 1.89855ZM 11.1347 2.56816C 10.392 0.44651 8.34388 -1 5.9751 -1L 5.9751 1C 7.52334 1 8.79469 1.93674 9.24703 3.22894L 11.1347 2.56816ZM 5.9751 -1C 2.96192 -1 0.493776 1.35179 0.493776 4.34783L 2.49378 4.34783C 2.49378 2.51294 4.00904 1 5.9751 1L 5.9751 -1ZM 0.493776 4.34783C 0.493776 4.86312 0.493776 5.31401 0.493776 5.7971L 2.49378 5.7971C 2.49378 5.31401 2.49378 4.86312 2.49378 4.34783L 0.493776 4.34783ZM 1.49378 4.7971C 0.140339 4.7971 -1 5.86065 -1 7.24638L 1 7.24638C 1 7.0218 1.18746 6.7971 1.49378 6.7971L 1.49378 4.7971ZM -1 7.24638C -1 8.63211 0.140339 9.69565 1.49378 9.69565L 1.49378 7.69565C 1.18746 7.69565 1 7.47095 1 7.24638L -1 7.24638ZM 1.49378 9.69565C 2.22407 9.69565 9.69295 9.69565 10.4564 9.69565L 10.4564 7.69565C 9.69295 7.69565 2.22407 7.69565 1.49378 7.69565L 1.49378 9.69565ZM 10.4564 9.69565C 12.6397 9.69565 14.444 7.98798 14.444 5.7971L 12.444 5.7971C 12.444 6.82683 11.5926 7.69565 10.4564 7.69565L 10.4564 9.69565ZM 14.444 5.7971C 14.444 3.60622 12.6397 1.89855 10.4564 1.89855L 10.4564 3.89855C 11.5926 3.89855 12.444 4.76737 12.444 5.7971L 14.444 5.7971Z"/>
<path id="path1_stroke" d="M 0.683186 4.2085L 4.40103 0.730244L 3.03466 -0.730244L -0.683187 2.74802L 0.683186 4.2085Z"/>
<path id="path2_stroke" d="M 0.888902 -0.458098L 0.430804 -1.347L -1.347 -0.430804L -0.888902 0.458098L 0.888902 -0.458098ZM 2.52282 4.89533L 3.52282 4.89533L 3.52282 4.65281L 3.41172 4.43723L 2.52282 4.89533ZM 1.52282 10.4026L 1.52282 11.4026L 3.52282 11.4026L 3.52282 10.4026L 1.52282 10.4026ZM -0.888902 0.458098L 1.63392 5.35343L 3.41172 4.43723L 0.888902 -0.458098L -0.888902 0.458098ZM 1.52282 4.89533L 1.52282 10.4026L 3.52282 10.4026L 3.52282 4.89533L 1.52282 4.89533Z"/>
<path id="path3_stroke" d="M 5.80913 0.630464L 5.48358 -0.315163L 5.47048 -0.310448L 5.80913 0.630464ZM 0 4.78666C 1.52311 4.78666 2.69487 3.98653 3.61421 3.2787C 4.61906 2.50503 5.31085 1.8726 6.14778 1.57138L 5.47048 -0.310448C 4.24931 0.129069 3.19837 1.07474 2.39409 1.69399C 1.5043 2.37906 0.800538 2.78666 0 2.78666L 0 4.78666ZM 6.13465 1.576C 9.40884 0.4488 12.6908 1.14384 15.7826 2.22277C 17.3261 2.76083 18.7922 3.38472 20.1445 3.88315C 21.4735 4.37265 22.8079 4.78666 24 4.78666L 24 2.78666C 23.2003 2.78666 22.1655 2.49617 20.8358 2.0064C 19.5294 1.52557 18.0474 0.895429 16.4415 0.334451C 13.2345 -0.784685 9.41273 -1.66774 5.48361 -0.315072L 6.13465 1.576Z"/>
</defs>
</svg>
