<svg width="22" height="25" viewBox="0 0 22 25" version="1.1" xmlns="http://www.w3.org/2000/svg" xmlns:xlink="http://www.w3.org/1999/xlink">
<title>Group</title>
<desc>Created using Figma</desc>
<g id="Canvas" transform="translate(360 -519)">
<g id="Group">
<g id="Vector">
<use xlink:href="#path0_stroke" transform="translate(-352.304 520)" fill="#231F20"/>
</g>
<g id="Vector">
<use xlink:href="#path1_stroke" transform="translate(-347.934 520)" fill="#231F20"/>
</g>
<g id="Vector">
<use xlink:href="#path2_fill" transform="translate(-359 532.951)" fill="#FFFFFF"/>
<use xlink:href="#path3_stroke" transform="translate(-359 532.951)" fill="#231F20"/>
</g>
<g id="Vector">
<use xlink:href="#path4_stroke" transform="translate(-359 543)" fill="#231F20"/>
</g>
</g>
</g>
<defs>
<path id="path0_stroke" d="M 0.971194 8.78317C 1.68001 9.48856 1.68036 9.48821 1.68073 9.48785C 1.68086 9.48771 1.68123 9.48734 1.68149 9.48707C 1.68179 9.48677 1.68258 9.48597 1.68318 9.48537C 1.68391 9.48463 1.6857 9.4828 1.68716 9.48132C 1.68915 9.47929 1.69355 9.47476 1.6975 9.47068C 1.70351 9.46443 1.71543 9.4519 1.72712 9.43937C 1.7467 9.41831 1.78182 9.37956 1.81808 9.33765C 1.88274 9.26253 1.98881 9.13156 2.09355 8.98514C 2.28669 8.71206 2.56332 8.23874 2.73978 7.72565C 3.11407 6.59732 3.07621 5.08917 1.68001 3.68619L 0.262377 5.09698C 1.05136 5.88979 1.0135 6.57744 0.841497 7.09595C 0.744804 7.40628 0.611713 7.61915 0.463424 7.8264C 0.397442 7.92014 0.34987 7.97788 0.303564 8.03141C 0.284334 8.05384 0.274644 8.06441 0.263281 8.07658C 0.259504 8.08067 0.259421 8.08074 0.257296 8.08294C 0.257169 8.08307 0.258279 8.08192 0.258377 8.08183C 0.257962 8.08225 0.260204 8.07997 0.260002 8.08017C 0.259671 8.08051 0.26126 8.0789 0.261095 8.07907C 0.261292 8.07887 0.261613 8.07855 0.261712 8.07845C 0.26204 8.07812 0.262377 8.07778 0.971194 8.78317ZM 1.68001 3.68619C 0.891029 2.89338 0.928888 2.20573 1.10089 1.68722C 1.19758 1.37689 1.33067 1.16402 1.47896 0.956776C 1.54495 0.86303 1.59252 0.805293 1.63882 0.751757C 1.65805 0.729332 1.66774 0.718766 1.67911 0.706587C 1.68288 0.702505 1.68297 0.702437 1.68509 0.700237C 1.68522 0.7001 1.68411 0.701247 1.68401 0.701345C 1.68443 0.700923 1.68218 0.703203 1.68238 0.702998C 1.68272 0.702662 1.68113 0.704268 1.68129 0.704102C 1.6811 0.704301 1.68077 0.704625 1.68068 0.704724C 1.68035 0.705054 1.68001 0.705393 0.971194 -3.54927e-08C 0.262377 -0.705393 0.262024 -0.705037 0.261662 -0.704674C 0.26153 -0.704541 0.261159 -0.704167 0.260896 -0.703901C 0.260598 -0.703601 0.259804 -0.702798 0.259208 -0.702196C 0.258479 -0.701457 0.256683 -0.699632 0.255226 -0.698146C 0.253239 -0.696116 0.248833 -0.691589 0.244892 -0.687505C 0.238882 -0.681262 0.226961 -0.668732 0.215267 -0.656195C 0.195688 -0.635137 0.160564 -0.596384 0.124311 -0.554479C 0.0596502 -0.479355 -0.0464239 -0.348392 -0.15116 -0.201973C -0.344305 0.0711135 -0.620937 0.544431 -0.797392 1.05752C -1.17169 2.18585 -1.13383 3.694 0.262377 5.09698L 1.68001 3.68619Z"/>
<path id="path1_stroke" d="M 0.971193 8.78317C 1.68001 9.48856 1.68036 9.48821 1.68073 9.48785C 1.68086 9.48771 1.68123 9.48734 1.68149 9.48707C 1.68179 9.48677 1.68258 9.48597 1.68318 9.48537C 1.68391 9.48463 1.6857 9.4828 1.68716 9.48132C 1.68915 9.47929 1.69355 9.47476 1.69749 9.47068C 1.70351 9.46443 1.71543 9.4519 1.72712 9.43937C 1.7467 9.41831 1.78182 9.37956 1.81808 9.33765C 1.88274 9.26253 1.98881 9.13156 2.09355 8.98514C 2.28669 8.71206 2.56332 8.23874 2.73978 7.72565C 3.11407 6.59732 3.07621 5.08917 1.68001 3.68619L 0.262377 5.09698C 1.05136 5.88979 1.0135 6.57744 0.841497 7.09595C 0.744804 7.40628 0.611713 7.61915 0.463424 7.8264C 0.397442 7.92014 0.34987 7.97788 0.303564 8.03141C 0.284333 8.05384 0.274644 8.06441 0.263281 8.07658C 0.259504 8.08067 0.259421 8.08074 0.257296 8.08294C 0.257169 8.08307 0.258279 8.08192 0.258376 8.08183C 0.257962 8.08225 0.260204 8.07997 0.260002 8.08017C 0.25967 8.08051 0.261259 8.0789 0.261094 8.07907C 0.261292 8.07887 0.261613 8.07855 0.261712 8.07845C 0.26204 8.07812 0.262377 8.07778 0.971193 8.78317ZM 1.68001 3.68619C 0.891028 2.89338 0.928887 2.20573 1.10089 1.68722C 1.19758 1.37689 1.33067 1.16402 1.47896 0.956776C 1.54495 0.86303 1.59252 0.805293 1.63882 0.751757C 1.65805 0.729332 1.66774 0.718766 1.67911 0.706587C 1.68288 0.702505 1.68297 0.702437 1.68509 0.700237C 1.68522 0.7001 1.68411 0.701247 1.68401 0.701345C 1.68443 0.700923 1.68218 0.703203 1.68238 0.702998C 1.68272 0.702662 1.68113 0.704268 1.68129 0.704102C 1.68109 0.704301 1.68077 0.704625 1.68068 0.704724C 1.68035 0.705054 1.68001 0.705393 0.971193 -3.54927e-08C 0.262377 -0.705393 0.262023 -0.705037 0.261662 -0.704674C 0.26153 -0.704541 0.261159 -0.704167 0.260895 -0.703901C 0.260598 -0.703601 0.259804 -0.702798 0.259208 -0.702196C 0.258479 -0.701457 0.256682 -0.699632 0.255226 -0.698146C 0.253239 -0.696116 0.248833 -0.691589 0.244892 -0.687505C 0.238882 -0.681262 0.226961 -0.668732 0.215267 -0.656195C 0.195687 -0.635137 0.160563 -0.596384 0.124311 -0.554479C 0.0596499 -0.479355 -0.0464242 -0.348392 -0.15116 -0.201973C -0.344306 0.0711135 -0.620937 0.544431 -0.797392 1.05752C -1.17169 2.18585 -1.13383 3.694 0.262377 5.09698L 1.68001 3.68619Z"/>
<path id="path2_fill" d="M 20 5.67884e-07C 20 5.54531 15.5185 10.0485 10 10.0485C 4.48148 10.0485 0 5.54531 0 5.67884e-07L 20 5.67884e-07Z"/>
<path id="path3_stroke" d="M 20 5.67884e-07L 21 5.67884e-07L 21 -0.999999L 20 -0.999999L 20 5.67884e-07ZM 0 5.67884e-07L 0 -0.999999L -1 -0.999999L -1 5.67884e-07L 0 5.67884e-07ZM 19 5.67884e-07C 19 4.99759 14.9617 9.04854 10 9.04854L 10 11.0485C 16.0754 11.0485 21 6.09302 21 5.67884e-07L 19 5.67884e-07ZM 10 9.04854C 5.03833 9.04854 1 4.99759 1 5.67884e-07L -1 5.67884e-07C -1 6.09302 3.92464 11.0485 10 11.0485L 10 9.04854ZM 0 1L 20 1L 20 -0.999999L 0 -0.999999L 0 1Z"/>
<path id="path4_stroke" d="M 0 1L 20 1L 20 -0.999998L 0 -0.999998L 0 1Z"/>
</defs>
</svg>
