<svg width="54" height="54" viewBox="0 0 54 54" version="1.1" xmlns="http://www.w3.org/2000/svg" xmlns:xlink="http://www.w3.org/1999/xlink">
<title>Group</title>
<desc>Created using Figma</desc>
<g id="Canvas" transform="translate(952 -753)">
<g id="Group">
<g id="Vector">
<use xlink:href="#path0_stroke" transform="translate(-950 755)" fill="#F04A24"/>
</g>
<g id="Vector">
<use xlink:href="#path1_stroke" transform="translate(-931.027 762.167)" fill="#F04A24"/>
</g>
<g id="Vector">
<use xlink:href="#path2_stroke" transform="translate(-924.528 762.167)" fill="#F04A24"/>
</g>
<g id="Vector">
<use xlink:href="#path3_fill" transform="translate(-936.167 780.583)" fill="#FFFFFF"/>
<use xlink:href="#path4_stroke" transform="translate(-936.167 780.583)" fill="#F04A24"/>
</g>
<g id="Vector">
<use xlink:href="#path5_stroke" transform="translate(-916.5 783.917)" fill="#F04A24"/>
</g>
</g>
</g>
<defs>
<path id="path0_stroke" d="M 0 0L 0 -1.5L -1.5 -1.5L -1.5 0L 0 0ZM 50 0L 51.5 0L 51.5 -1.5L 50 -1.5L 50 0ZM 50 50L 50 51.5L 51.5 51.5L 51.5 50L 50 50ZM 0 50L -1.5 50L -1.5 51.5L 0 51.5L 0 50ZM 0 1.5L 50 1.5L 50 -1.5L 0 -1.5L 0 1.5ZM 48.5 0L 48.5 50L 51.5 50L 51.5 0L 48.5 0ZM 50 48.5L 0 48.5L 0 51.5L 50 51.5L 50 48.5ZM 1.5 50L 1.5 0L -1.5 0L -1.5 50L 1.5 50Z"/>
<path id="path1_stroke" d="M 1.44444 13.1667C 2.5051 14.2273 2.50564 14.2268 2.50619 14.2262C 2.50639 14.226 2.50696 14.2255 2.50736 14.2251C 2.50781 14.2246 2.50901 14.2234 2.50991 14.2225C 2.51102 14.2214 2.51374 14.2186 2.51594 14.2164C 2.51893 14.2134 2.52558 14.2066 2.53151 14.2004C 2.54051 14.1911 2.55845 14.1724 2.57598 14.1536C 2.60524 14.1223 2.65791 14.0644 2.71211 14.0019C 2.80857 13.8902 2.96723 13.6948 3.12358 13.4765C 3.41144 13.07 3.82434 12.3631 4.08742 11.5957C 4.64505 9.90852 4.58568 7.65643 2.51844 5.53618L 0.370443 7.63048C 1.5532 8.84357 1.49383 9.88315 1.23897 10.6543C 1.0958 11.1161 0.899327 11.43 0.67937 11.737C 0.581809 11.8755 0.511955 11.96 0.443381 12.0391C 0.415062 12.072 0.40108 12.0872 0.38432 12.1051C 0.378838 12.111 0.378921 12.1109 0.375828 12.114C 0.375706 12.1142 0.377525 12.1123 0.377636 12.1122C 0.376986 12.1129 0.38047 12.1093 0.380153 12.1096C 0.379644 12.1102 0.382081 12.1077 0.381828 12.108C 0.38213 12.1077 0.382619 12.1072 0.38277 12.107C 0.383271 12.1065 0.383784 12.106 1.44444 13.1667ZM 2.51844 5.53618C 1.33568 4.3231 1.39505 3.28352 1.64992 2.51239C 1.79309 2.0506 1.98956 1.73662 2.20952 1.42964C 2.30708 1.29115 2.37693 1.20662 2.44551 1.1276C 2.47382 1.09467 2.48781 1.07949 2.50457 1.0616C 2.51005 1.0557 2.50997 1.05581 2.51306 1.05262C 2.51318 1.05249 2.51136 1.05436 2.51125 1.05447C 2.5119 1.05381 2.50842 1.05734 2.50873 1.05702C 2.50924 1.0565 2.50681 1.05896 2.50706 1.0587C 2.50676 1.059 2.50627 1.05949 2.50612 1.05965C 2.50562 1.06015 2.5051 1.06066 1.44444 3.17891e-07C 0.383784 -1.06066 0.383246 -1.06012 0.382696 -1.05957C 0.382496 -1.05937 0.381932 -1.0588 0.381531 -1.0584C 0.38108 -1.05795 0.379874 -1.05674 0.378972 -1.05583C 0.377871 -1.05472 0.37515 -1.05197 0.37295 -1.04973C 0.369962 -1.04669 0.363309 -1.03989 0.35738 -1.03377C 0.348373 -1.02446 0.330437 -1.00569 0.312909 -0.986971C 0.283648 -0.955625 0.23098 -0.897728 0.176779 -0.835278C 0.0803144 -0.723547 -0.0783471 -0.528125 -0.234693 -0.30985C -0.522548 0.0967107 -0.93545 0.80357 -1.19853 1.57095C -1.75617 3.25815 -1.6968 5.51024 0.370443 7.63048L 2.51844 5.53618Z"/>
<path id="path2_stroke" d="M 1.44444 13.1667C 2.5051 14.2273 2.50564 14.2268 2.50619 14.2262C 2.50639 14.226 2.50695 14.2255 2.50736 14.2251C 2.50781 14.2246 2.50901 14.2234 2.50991 14.2225C 2.51102 14.2214 2.51374 14.2186 2.51594 14.2164C 2.51892 14.2134 2.52558 14.2066 2.53151 14.2004C 2.54051 14.1911 2.55845 14.1724 2.57598 14.1536C 2.60524 14.1223 2.65791 14.0644 2.71211 14.0019C 2.80857 13.8902 2.96723 13.6948 3.12358 13.4765C 3.41143 13.07 3.82434 12.3631 4.08742 11.5957C 4.64505 9.90852 4.58568 7.65643 2.51844 5.53618L 0.370443 7.63048C 1.5532 8.84357 1.49383 9.88315 1.23897 10.6543C 1.0958 11.1161 0.899327 11.43 0.679369 11.737C 0.581809 11.8755 0.511954 11.96 0.44338 12.0391C 0.415062 12.072 0.401079 12.0872 0.384319 12.1051C 0.378838 12.111 0.378921 12.1109 0.375828 12.114C 0.375706 12.1142 0.377524 12.1123 0.377636 12.1122C 0.376986 12.1129 0.38047 12.1093 0.380153 12.1096C 0.379643 12.1102 0.382081 12.1077 0.381827 12.108C 0.382129 12.1077 0.382619 12.1072 0.38277 12.107C 0.38327 12.1065 0.383783 12.106 1.44444 13.1667ZM 2.51844 5.53618C 1.33568 4.3231 1.39505 3.28352 1.64992 2.51239C 1.79309 2.0506 1.98956 1.73662 2.20952 1.42964C 2.30708 1.29115 2.37693 1.20662 2.44551 1.1276C 2.47382 1.09467 2.48781 1.07949 2.50457 1.0616C 2.51005 1.0557 2.50997 1.05581 2.51306 1.05262C 2.51318 1.05249 2.51136 1.05436 2.51125 1.05447C 2.5119 1.05381 2.50842 1.05734 2.50873 1.05702C 2.50924 1.0565 2.50681 1.05896 2.50706 1.0587C 2.50676 1.059 2.50627 1.05949 2.50612 1.05965C 2.50562 1.06015 2.5051 1.06066 1.44444 3.17891e-07C 0.383783 -1.06066 0.383245 -1.06012 0.382695 -1.05957C 0.382495 -1.05937 0.381931 -1.0588 0.381531 -1.0584C 0.38108 -1.05795 0.379874 -1.05674 0.378972 -1.05583C 0.377871 -1.05472 0.375149 -1.05197 0.372949 -1.04973C 0.369962 -1.04669 0.363308 -1.03989 0.35738 -1.03377C 0.348373 -1.02446 0.330437 -1.00569 0.312908 -0.986971C 0.283647 -0.955625 0.23098 -0.897728 0.176779 -0.835278C 0.0803138 -0.723547 -0.0783477 -0.528125 -0.234693 -0.30985C -0.522548 0.0967107 -0.935451 0.80357 -1.19853 1.57095C -1.75617 3.25815 -1.6968 5.51024 0.370443 7.63048L 2.51844 5.53618Z"/>
<path id="path3_fill" d="M -3.17891e-07 6.58333C -3.17891e-07 1.16667 -3.17891e-07 -6.35783e-07 -3.17891e-07 -6.35783e-07L 19.6667 -6.35783e-07C 19.6667 -6.35783e-07 19.6667 3.75 19.6667 6.58333C 19.6667 12 15.25 16.25 9.83333 16.25C 4.41667 16.25 -3.17891e-07 12 -3.17891e-07 6.58333Z"/>
<path id="path4_stroke" d="M -3.17891e-07 -6.35783e-07L -3.17891e-07 -1.5L -1.5 -1.5L -1.5 -6.35783e-07L -3.17891e-07 -6.35783e-07ZM 19.6667 -6.35783e-07L 21.1667 -6.35783e-07L 21.1667 -1.5L 19.6667 -1.5L 19.6667 -6.35783e-07ZM 1.5 6.58333C 1.5 3.875 1.5 2.22917 1.5 1.26042C 1.5 0.776041 1.5 0.460937 1.5 0.266927C 1.5 0.169921 1.5 0.10319 1.5 0.060709C 1.5 0.0394688 1.5 0.0242914 1.5 0.014424C 1.5 0.00949034 1.5 0.00588418 1.5 0.00351143C 1.5 0.00232506 1.5 0.00144704 1.5 0.000865619C 1.5 0.000574907 1.5 0.000358343 1.5 0.000214458C 1.5 0.000142515 1.5 8.87415e-05 1.5 5.29538e-05C 1.5 3.506e-05 1.5 2.16626e-05 1.5 1.27386e-05C 1.5 3.8147e-06 1.5 -6.35783e-07 -3.17891e-07 -6.35783e-07C -1.5 -6.35783e-07 -1.5 3.8147e-06 -1.5 1.27386e-05C -1.5 2.16626e-05 -1.5 3.506e-05 -1.5 5.29538e-05C -1.5 8.87415e-05 -1.5 0.000142515 -1.5 0.000214458C -1.5 0.000358343 -1.5 0.000574907 -1.5 0.000865619C -1.5 0.00144704 -1.5 0.00232506 -1.5 0.00351143C -1.5 0.00588418 -1.5 0.00949034 -1.5 0.014424C -1.5 0.0242914 -1.5 0.0394688 -1.5 0.060709C -1.5 0.10319 -1.5 0.169921 -1.5 0.266927C -1.5 0.460937 -1.5 0.776041 -1.5 1.26042C -1.5 2.22917 -1.5 3.875 -1.5 6.58333L 1.5 6.58333ZM -3.17891e-07 1.5L 19.6667 1.5L 19.6667 -1.5L -3.17891e-07 -1.5L -3.17891e-07 1.5ZM 19.6667 -6.35783e-07C 18.1667 -6.35783e-07 18.1667 1.36693e-05 18.1667 4.22448e-05C 18.1667 7.08203e-05 18.1667 0.000113666 18.1667 0.000170747C 18.1667 0.00028491 18.1667 0.000456015 18.1667 0.000683785C 18.1667 0.00113932 18.1667 0.00182152 18.1667 0.00272815C 18.1667 0.0045414 18.1667 0.00725238 18.1667 0.0108433C 18.1667 0.0180251 18.1667 0.0287266 18.1667 0.0428054C 18.1667 0.0709629 18.1667 0.11263 18.1667 0.166666C 18.1667 0.274739 18.1667 0.432291 18.1667 0.630208C 18.1667 1.02604 18.1667 1.58333 18.1667 2.22917C 18.1667 3.52083 18.1667 5.16667 18.1667 6.58333L 21.1667 6.58333C 21.1667 5.16667 21.1667 3.52083 21.1667 2.22917C 21.1667 1.58333 21.1667 1.02604 21.1667 0.630208C 21.1667 0.432291 21.1667 0.274739 21.1667 0.166666C 21.1667 0.11263 21.1667 0.0709629 21.1667 0.0428054C 21.1667 0.0287266 21.1667 0.0180251 21.1667 0.0108433C 21.1667 0.00725238 21.1667 0.0045414 21.1667 0.00272815C 21.1667 0.00182152 21.1667 0.00113932 21.1667 0.000683785C 21.1667 0.000456015 21.1667 0.00028491 21.1667 0.000170747C 21.1667 0.000113666 21.1667 7.08203e-05 21.1667 4.22448e-05C 21.1667 1.36693e-05 21.1667 -6.35783e-07 19.6667 -6.35783e-07ZM 18.1667 6.58333C 18.1667 11.1383 14.4552 14.75 9.83333 14.75L 9.83333 17.75C 16.0448 17.75 21.1667 12.8617 21.1667 6.58333L 18.1667 6.58333ZM 9.83333 14.75C 5.21143 14.75 1.5 11.1383 1.5 6.58333L -1.5 6.58333C -1.5 12.8617 3.62191 17.75 9.83333 17.75L 9.83333 14.75Z"/>
<path id="path5_stroke" d="M 0 8C 1.5 8 1.5 8 3.25 8L 3.25 5C 1.5 5 1.5 5 0 5L 0 8ZM 3.25 8C 5.93668 8 8 5.80329 8 3.25L 5 3.25C 5 4.19671 4.22999 5 3.25 5L 3.25 8ZM 8 3.25C 8 0.563323 5.80329 -1.5 3.25 -1.5L 3.25 1.5C 4.19671 1.5 5 2.27001 5 3.25L 8 3.25ZM 3.25 -1.5C 1.41667 -1.5 1.33333 -1.5 0 -1.5L 0 1.5C 1.33333 1.5 1.41667 1.5 3.25 1.5L 3.25 -1.5Z"/>
</defs>
</svg>
