<svg width="54" height="54" viewBox="0 0 54 54" version="1.1" xmlns="http://www.w3.org/2000/svg" xmlns:xlink="http://www.w3.org/1999/xlink">
<title>Group</title>
<desc>Created using Figma</desc>
<g id="Canvas" transform="translate(88 -753)">
<g id="Group">
<g id="Vector">
<use xlink:href="#path0_stroke" transform="translate(-86 755)" fill="#4EC1E0"/>
</g>
<g id="Vector">
<use xlink:href="#path1_stroke" transform="translate(-71 765)" fill="#4EC1E0"/>
</g>
<g id="Vector">
<use xlink:href="#path2_stroke" transform="translate(-61 769.583)" fill="#4EC1E0"/>
</g>
<g id="Vector">
<use xlink:href="#path3_stroke" transform="translate(-62.1667 790.833)" fill="#4EC1E0"/>
</g>
</g>
</g>
<defs>
<path id="path0_stroke" d="M 0 0L 0 -1.5L -1.5 -1.5L -1.5 0L 0 0ZM 50 0L 51.5 0L 51.5 -1.5L 50 -1.5L 50 0ZM 50 50L 50 51.5L 51.5 51.5L 51.5 50L 50 50ZM 0 50L -1.5 50L -1.5 51.5L 0 51.5L 0 50ZM 0 1.5L 50 1.5L 50 -1.5L 0 -1.5L 0 1.5ZM 48.5 0L 48.5 50L 51.5 50L 51.5 0L 48.5 0ZM 50 48.5L 0 48.5L 0 51.5L 50 51.5L 50 48.5ZM 1.5 50L 1.5 0L -1.5 0L -1.5 50L 1.5 50Z"/>
<path id="path1_stroke" d="M 18.5 10C 18.5 12.5871 17.4402 16.071 15.7177 18.9093C 13.936 21.8449 11.8251 23.5 10 23.5L 10 26.5C 13.5082 26.5 16.3973 23.5717 18.2823 20.4657C 20.2264 17.2624 21.5 13.2462 21.5 10L 18.5 10ZM 10 23.5C 8.17487 23.5 6.06397 21.8449 4.28232 18.9093C 2.55977 16.071 1.5 12.5871 1.5 10L -1.5 10C -1.5 13.2462 -0.226438 17.2624 1.71768 20.4657C 3.60269 23.5717 6.4918 26.5 10 26.5L 10 23.5ZM 1.5 10C 1.5 5.04371 5.44563 1.5 10 1.5L 10 -1.5C 3.88771 -1.5 -1.5 3.28962 -1.5 10L 1.5 10ZM 10 1.5C 14.5544 1.5 18.5 5.04371 18.5 10L 21.5 10C 21.5 3.28962 16.1123 -1.5 10 -1.5L 10 1.5Z"/>
<path id="path2_stroke" d="M 0 1.5C 2.11558 1.5 4.08333 3.27131 4.08333 6L 7.08333 6C 7.08333 1.7287 3.88442 -1.5 0 -1.5L 0 1.5Z"/>
<path id="path3_stroke" d="M 1.16667 0L 2.52594 -0.634329L 1.16667 -3.54706L -0.192608 -0.634328L 1.16667 0ZM 2.33333 2.5L 2.33333 4L 4.68863 4L 3.69261 1.86567L 2.33333 2.5ZM 3.17891e-07 2.5L -1.35927 1.86567L -2.35529 4L 3.17891e-07 4L 3.17891e-07 2.5ZM -0.192608 0.634329L 0.97406 3.13433L 3.69261 1.86567L 2.52594 -0.634329L -0.192608 0.634329ZM 2.33333 1L 3.17891e-07 1L 3.17891e-07 4L 2.33333 4L 2.33333 1ZM 1.35928 3.13433L 2.52594 0.634328L -0.192608 -0.634328L -1.35927 1.86567L 1.35928 3.13433Z"/>
</defs>
</svg>
