<svg xmlns="http://www.w3.org/2000/svg" width="155" height="24" viewBox="0 0 155 24">
    <g fill="none">
        <path fill="#027BCF" d="M54.687 1.16l-.975 5.933c-1.579-.65-3.239-1.08-4.945-1.277-3.54 0-6.768 2.507-6.768 6.117 0 4.516 2.798 5.642 5.967 5.491 1.219-.07 2.403-.36 3.505-.87l2.055-.65.906 5.525-1.66.638c-2.125.952-4.446 1.393-6.768 1.277-7.894-.174-11.504-5.92-11.005-11.782.348-3.633 2.183-6.965 5.061-9.206C42.36.813 45.098.023 47.873.104 50.17.151 52.447.5 54.64 1.15l.046.012zm63.347-.522l-4.26 22.323h6.547l1.66-8.787 4.26 8.787h12.293l7.673-14.812.836 8.45-2.635-1.125-2.043 4.12 5.456 3.39h6.187L150.851.663h-7.058l-11.156 20.407-4.783-9.554L138.255.662h-7.766l-7.301 7.301L124.58.662l-6.547-.024zm-22.265 0l8.184-.243c3.633-.082 7.696.812 8.973 4.69.755 2.39-.197 4.991-2.333 6.314 3.47 2.461 2.623 7.546-.476 9.821-2.542 1.857-4.922 1.88-7.894 1.846l-10.331-.116L95.769.638zm4.887 5.027l-.592 3.552h4.075c1.126 0 2.356 0 2.855-1.312.337-.847-.081-1.81-.928-2.159-.267-.104-.558-.14-.848-.104l-4.562.023zm-2.124 11.829h4.353c1.358 0 3.053-.244 3.39-1.88.139-.941-.511-1.812-1.44-1.951h-.012c-.139-.012-.267-.012-.406 0h-5.212l-.662 3.877-.011-.046zM80.295.638L68.048 22.95h3.506c2.96-.128 3.645-.964 4.179-1.66 2.658-4.411 4.62-8.59 6.988-13.164l.79 8.59-2.636-1.126-2.054 4.144 6.233 3.17h5.491L87.353.637h-7.058zm-23.182 0H73.91l-1.126 6.21h-4.898L64.82 22.95h-6.524l3.065-16.066h-5.34L57.113.638z"/>
        <path fill="#003267" d="M30.704 22.706h5.537l-8.033-12.108L38.458.441h-9.112L9.03 20.861 12.746.394H7.72L0 5.445v5.722l4.632-2.159-.627 1.88c-.708 3.936-1.428 7.894-2.136 11.818h14.917l6.175-6.594 2.53 3.843c1.185 1.73 3.124 2.75 5.213 2.75zM18.666 8.764L13.28.406h6.152c1.753.105 3.378.917 4.516 2.252l.36.5-5.642 5.606z"/>
    </g>
</svg>
