<svg xmlns="http://www.w3.org/2000/svg" width="126" height="32" viewBox="0 0 126 32">
    <g fill="none" fill-rule="evenodd">
        <circle cx="74.509" cy="15.754" r="15.754" fill="#FEFEFE" transform="rotate(-90 74.509 15.754)"/>
        <path fill="#222426" fill-rule="nonzero" d="M.023 27.725l7.1-26.655c.085-.299.347-.506.658-.506h7.563c.22 0 .408.097.542.268.134.177.177.378.116.591l-5.497 20.525c-.055.213-.018.42.116.591.134.177.323.268.542.268h14.608c.22 0 .408.092.542.268.134.171.17.378.116.591l-1.188 4.413c-.086.298-.348.505-.659.505H.682c-.22 0-.409-.097-.543-.268-.128-.177-.17-.378-.116-.59zM36.435.564h22.152c.262 0 .488.116.646.323.159.207.207.45.147.7l-.147.561c-1.06 1.183-1.98 2.499-2.742 3.907-.098.182-.274.286-.475.286H43.407c-.378 0-.695.244-.786.61l-.963 3.65c-.067.256-.018.5.14.707.159.207.384.317.646.317h11.28c.262 0 .488.11.646.323.159.207.207.45.14.706l-1.072 4.06c-.098.359-.415.602-.792.602h-12.14c-.378 0-.695.244-.792.61l-1.06 3.93c-.067.256-.019.506.14.714.158.207.39.316.652.316h15.12c.261 0 .487.116.645.323.159.208.207.457.14.713l-1.109 4.059c-.097.36-.414.603-.786.603h-24.54c-.22 0-.409-.097-.543-.268-.134-.177-.177-.378-.116-.59l6.99-26.248c.146-.542.622-.914 1.188-.914zM102.19 14.202L98.564 28.11c-.073.28-.317.475-.615.475l-7.654-.048c-.159-.006-.299-.074-.396-.195-.098-.128-.128-.28-.086-.433l.012-.049c2.633-3.327 4.205-7.532 4.205-12.103 0-.786-.042-1.554-.134-2.315-.03-.269-.012-.506.055-.774l3.078-11.33c.128-.462.53-.773 1.011-.773h5.905c.396 0 .738.207.92.56l7.612 14.474c.055.097.158.152.268.14.116-.012.207-.085.232-.201L117.06.564h7.684c.208 0 .384.091.506.25.128.164.165.353.11.554l-7.045 26.436c-.122.463-.53.78-1.005.78h-5.771c-.384 0-.72-.195-.908-.53l-7.941-13.919c-.055-.097-.158-.146-.268-.134-.116.019-.201.092-.232.201z"/>
        <path fill="#D62628" d="M72.396.137c-5.326.713-9.811 4.09-12.072 8.745l8.172-1.596 3.9-7.149zm-13.443 13.09c-.134.823-.201 1.67-.201 2.53 0 4.466 1.859 8.5 4.85 11.37l.94-8.007-5.59-5.893zm8.501 16.619c2.127 1.066 4.522 1.663 7.057 1.663 2.602 0 5.058-.627 7.215-1.748l-7.093-3.358-7.179 3.443zm18.374-3.133c2.748-2.833 4.436-6.697 4.436-10.957 0-.761-.055-1.511-.158-2.242l-5.223 5.63.945 7.57zm2.779-18.001C86.4 4.306 82.183 1.07 77.156.222l3.84 7.143 7.61 1.347zM74.456 23.283L77.985 20.723 81.513 18.157 80.166 14.007 78.82 9.857 74.456 9.857 70.093 9.857 68.746 14.007 67.399 18.157 70.928 20.723z"/>
    </g>
</svg>
