<svg xmlns="http://www.w3.org/2000/svg" width="32" height="32" viewBox="0 0 32 32">
    <g fill="none" fill-rule="evenodd" transform="translate(-.857)">
        <circle cx="16.857" cy="16" r="16" fill="#F30000"/>
        <g fill="#FFF">
            <path d="M6.971 18.566c-4.06 0-6.183-2.512-6.183-6.4 0-3.872 2.5-6.33 6.474-6.33 4.214 0 6.184 2.72 6.184 6.365 0 3.87-2.313 6.365-6.475 6.365zm.052-1.901c2.877 0 4.042-1.953 4.042-4.482 0-2.546-1.268-4.447-3.922-4.447-2.775 0-3.991 1.901-3.991 4.412 0 2.459 1.181 4.517 3.87 4.517z" transform="translate(9.714 6.714)"/>
            <path d="M13.291 4.257l-1.717 4.654C10.316 7.894 8.77 7.229 7.15 7.279c-1.688-.044-3.372.66-4.665 1.736L.832 4.327c-.033.004-.065.006-.098.006-.417-.015-.744-.36-.734-.775.01-.414.354-.744.771-.739.417.005.753.343.753.757 0 .083-.014.165-.042.243l2.664 1.33.144.05c.04.014.08.021.122.021.118 0 .228-.056.296-.152.05-.087.094-.176.133-.268l1.697-3.43c-.204-.138-.326-.367-.327-.611C6.225.336 6.575 0 7 0c.426 0 .775.336.79.759-.001.237-.116.46-.31.6L9.6 4.852c.043.082.092.161.146.237.068.083.17.131.279.13.026 0 .052-.002.078-.008.05.004.1-.01.14-.04l2.51-1.361c-.038-.09-.058-.188-.058-.286-.012-.32.173-.616.467-.747.294-.13.64-.07.871.152.233.222.306.562.185.86-.12.296-.41.49-.733.49-.066 0-.13-.007-.194-.023z" transform="translate(9.714 6.714)"/>
        </g>
    </g>
</svg>
