<svg xmlns="http://www.w3.org/2000/svg" width="88" height="92" viewBox="0 0 88 92">
    <g fill="none">
        <circle cx="44" cy="47" r="44" fill="#9B4BFB"/>
        <path fill="#FB4B4E" d="M57.08 23.287c-1.868-1.636-2.214-4.409-.802-6.452C60.196 11.168 66.656.758 61.798.04 58.447-.453 51.04 3.65 43.631 3.65c-7.408 0-14.816-4.102-18.166-3.608-4.858.717 1.602 11.127 5.52 16.794 1.412 2.043 1.066 4.816-.802 6.452-8.094 7.088-27.655 26.37-25.497 45.518 2.712 24.074 38.945 23.19 38.945 23.19s36.233.884 38.945-23.19c2.157-19.148-17.403-38.43-25.497-45.518z"/>
        <path fill="#F33939" d="M57.08 23.287c-1.868-1.636-2.214-4.409-.802-6.452C60.196 11.168 66.656.758 61.798.04c-.62-.091-1.377-.025-2.247.143-1.694 4.332-8.866 12.493-11.74 16.65-1.413 2.044-1.068 4.817.801 6.453 8.094 7.088 27.654 26.37 25.497 45.518-2.136 18.962-25.068 22.44-34.711 23.063 2.6.168 4.234.128 4.234.128s36.233.883 38.945-23.19c2.157-19.149-17.403-38.43-25.497-45.519z"/>
        <g>
            <path fill="#FFCB37" d="M20.664 18.504c11.39 0 20.625 9.234 20.625 20.625 0 11.39-9.234 20.624-20.625 20.624C9.274 59.753.04 50.52.04 39.13c0-11.39 9.233-20.625 20.624-20.625zm2.65 11.042h-6.796c-1.096 0-1.98.903-1.98 2.022v11.92h-1.095c-1.096 0-1.994.903-1.994 2.036 0 1.119.884 2.037 1.994 2.037h1.095v1.32c0 1.118.884 2.022 1.98 2.022 1.095 0 1.98-.904 1.98-2.023v-1.32h1.277c1.081-.013 1.98-.931 1.98-2.05 0-1.119-.884-2.037-1.994-2.037h-1.278v-1.248h4.83c3.427 0 6.207-2.84 6.207-6.34s-2.78-6.34-6.206-6.34zm.112 4.045c1.25.028 2.233 1.09 2.205 2.366-.028 1.277-1.068 2.28-2.317 2.252h-4.83v-4.618h4.942z" transform="translate(22.968 18.328)"/>
            <path fill="#FFB125" d="M35.173 5.822H6.155c-1.582 0-2.864-1.282-2.864-2.864 0-1.581 1.282-2.863 2.864-2.863h29.018c1.582 0 2.864 1.282 2.864 2.863 0 1.582-1.282 2.864-2.864 2.864z" transform="translate(22.968 18.328)"/>
        </g>
        <path fill="#FF901D" d="M58.141 21.628H29.123c-1.129 0-2.102-.654-2.568-1.603-.188.381-.296.808-.296 1.261 0 1.582 1.282 2.864 2.864 2.864h29.018c1.582 0 2.864-1.282 2.864-2.864 0-.453-.108-.88-.296-1.26-.467.948-1.44 1.602-2.568 1.602z"/>
    </g>
</svg>
