<svg xmlns="http://www.w3.org/2000/svg" width="36" height="36" viewBox="0 0 36 36">
    <path fill="#D5D5D5" fill-rule="evenodd" d="M20.5 25.995c.161 0 .43.37.418.464-.175 1.446-1.46 2.536-2.988 2.536-1.512 0-2.794-1.075-2.984-2.503-.026-.2.292-.497.554-.497zM18 8c.977 0 1.78.66 1.86 1.5 1.374.352 2.544 1.094 3.483 2.207 1.332 1.58 1.87 3.5 2.087 4.83l.005.036.042.383c.098.909.26 2.43.71 3.06l.016.024.012.018c.127.2.369.386.625.583.613.47 1.752 1.341.785 2.916-.17.276-.498.443-.856.443H9.231c-.358 0-.686-.167-.856-.443-.968-1.575.172-2.446.785-2.916.256-.197.498-.383.627-.587l.023-.033c.452-.635.615-2.156.713-3.065l.042-.382.004-.032c.218-1.336.756-3.254 2.088-4.835.939-1.113 2.11-1.855 3.482-2.207C16.22 8.66 17.023 8 18 8z"/>
</svg>
