<svg xmlns="http://www.w3.org/2000/svg" width="117" height="18" viewBox="0 0 117 18">
    <g fill="#282828" fill-rule="evenodd">
        <path d="M6.653 17.338c-3.874 0-5.901-2.345-5.901-5.977 0-3.615 2.386-5.911 6.179-5.911 4.02 0 5.9 2.54 5.9 5.944 0 3.615-2.206 5.944-6.178 5.944zm.049-1.775c2.746 0 3.857-1.824 3.857-4.185 0-2.378-1.21-4.153-3.743-4.153-2.648 0-3.808 1.775-3.808 4.12 0 2.296 1.127 4.218 3.694 4.218zm11.017 1.58L13.698 5.629h2.37l3.17 9.836L22.9 5.63h2.272l-4.528 11.514H17.72zm8.81 0V5.629h7.16v1.759h-4.937v3.143h4.577v1.661h-4.577v3.192h5.312v1.759H26.53zm19.63.212c-1.928-.147-3.056-1.206-4.2-2.606l-1.455-1.857c-.228.033-.539.05-.8.05h-1.128v4.2h-2.24V5.63h4.217c2.452 0 4.185 1.14 4.185 3.615 0 1.303-.621 2.476-1.978 3.127l1.324 1.596c.687.798 1.373 1.352 2.583 1.678l-.507 1.71zm-7.583-6.042h1.226c1.7 0 2.631-.636 2.631-1.987 0-1.4-.654-1.938-2.24-1.938h-1.617v3.925zM112.686 5.466c1.684 0 2.583.31 3.417.668l-.605 1.66c-.948-.276-1.57-.471-2.828-.471-2.19 0-3.955 1.123-3.955 3.973 0 2.883 1.896 4.137 4.2 4.137.49 0 .867-.049 1.177-.098V11.46h2.223v5.228c-1.177.44-2.255.635-3.645.635-3.825 0-6.244-2.02-6.244-5.863 0-3.957 2.223-5.993 6.26-5.993zm-46.454.163v1.759h-4.936v3.143h4.577v1.661h-4.577v3.192h5.312v1.759h-7.535V5.629h7.16zm11.034 0v1.775h-3.744v9.739h-2.239V7.404H67.54V5.629h9.726zm10.052 0v1.775h-3.743v9.739h-2.24V7.404h-3.742V5.629h9.725zm3.89 0v11.514h-2.223V5.629h2.223zm5.656 0l5.1 8.696h.032l-.065-1.351V5.629h2.24v11.514h-2.747L96.44 8.625h-.065l.065 1.401v7.117h-2.223V5.629h2.648zM48.219 17.143V5.629h3.71c2.747 0 4.087 1.091 4.087 3.062 0 1.074-.637 1.905-1.373 2.23v.033c.932.228 2.207 1.124 2.207 2.736 0 2.036-1.193 3.453-4.43 3.453h-4.2zm2.24-1.759h1.749c1.536 0 2.403-.39 2.403-1.629 0-1.237-.883-1.693-2.616-1.693H50.46v3.322zm0-4.902h1.373c1.308 0 1.961-.456 1.961-1.563 0-1.19-.784-1.58-2.255-1.58h-1.08v3.143z"/>
        <path d="M12.684 3.976l-1.639 4.346c-1.2-.95-2.675-1.571-4.222-1.524-1.61-.041-3.218.615-4.452 1.622L.794 4.04c-.031.004-.062.006-.093.007-.398-.015-.71-.337-.7-.724.009-.387.337-.695.735-.69.398.005.718.32.719.707 0 .077-.014.154-.04.227l2.542 1.241.137.048c.037.013.077.02.117.019.112 0 .217-.052.282-.142.047-.081.09-.165.127-.25L6.239 1.28c-.194-.13-.31-.343-.312-.572C5.941.313 6.274 0 6.681 0c.407 0 .74.313.754.708-.001.222-.11.43-.296.56l2.022 3.264c.042.077.088.15.14.222.065.077.163.122.266.121.025 0 .05-.002.074-.007.048.003.095-.01.134-.038L12.17 3.56c-.037-.085-.056-.176-.056-.267-.012-.3.165-.575.446-.697.28-.122.61-.066.831.141.222.208.291.525.176.803-.115.277-.392.459-.7.459-.062 0-.124-.008-.184-.022z"/>
    </g>
</svg>
