<svg xmlns="http://www.w3.org/2000/svg" width="114" height="42" viewBox="0 0 114 42">
    <g fill="none" fill-rule="evenodd">
        <path fill="#0A0B09" d="M7.956 42L105.81 42 113.024 17.063 15.169 17.063z"/>
        <path fill="#0A0B09" d="M0.443 23.625L74.431 23.625 81.336 0 7.348 0z"/>
        <path fill="#EDE72E" d="M37.467 21.997l2.034 5.859 4.958-5.859h5.694l-4.187 14.654H41.57l2.414-8.378-4.088 4.798H37.07l-1.54-4.53-2.312 8.11H14.272l4.187-14.654h19.008zm26.844 0v14.654h-4.228V34.2h-6.42l-1.389 2.45h-4.898l8.645-14.654h8.29zm16.036 0l-1.193 4.187h-4.128l-2.99 10.467H67.64l2.99-10.467H65.82l1.193-4.187h13.335zm12.518 0l-1.214 4.187h-6.657l-1.8 6.28h6.657l-1.193 4.187H83.13c-3.454 0-5.045-1.989-4.061-5.422l1.549-5.36c.753-2.637 2.428-3.872 5.15-3.872h7.096zm6.322 0l-1.495 5.234h5.024l1.495-5.234h4.397l-4.187 14.654h-4.397l1.496-5.234h-5.024L95 36.651h-4.397l4.187-14.654h4.396zm-39.104 3.977h-1.754l-2.647 4.669h4.4v-4.669zM32.003 5.25c3.455 0 5.025 2.072 4.062 5.422l-.419 1.444c-.754 2.638-2.428 3.873-5.15 3.873h-5.182l-1.119 3.915H5.25L9.437 5.25zm18.025 0v14.654h-4.23v-2.45H39.38l-1.39 2.45h-4.898L41.738 5.25h8.29zm13.523 0c3.454 0 5.024 2.03 4.061 5.422l-.377 1.319c-.55 1.942-1.593 3.113-3.176 3.604l1.313 4.309h-4.521l-1.232-4.04h-2.722l-1.155 4.04h-4.396L55.533 5.25zm11.995 0l-4.187 14.654h-4.396L71.15 5.25h4.396zM45.799 9.227h-1.753l-2.648 4.669h4.4V9.227zm-13.816-.02H27.25l-.903 3.16h4.755l.88-3.16zm31.547 0h-4.731l-.903 3.16h4.755l.879-3.16z"/>
    </g>
</svg>
