<svg xmlns="http://www.w3.org/2000/svg" width="18" height="18" viewBox="0 0 18 18">
    <defs>
        <linearGradient id="prefix__a" x1="0%" x2="102%" y1="0%" y2="101%">
            <stop offset="0%" stop-color="#FF0467"/>
            <stop offset="100%" stop-color="#FC7437"/>
        </linearGradient>
    </defs>
    <path fill="url(#prefix__a)" fill-rule="evenodd" d="M3 11c1.105 0 2 .895 2 2v2c0 1.105-.895 2-2 2s-2-.895-2-2v-2c0-1.105.895-2 2-2zM9 1c1.105 0 2 .895 2 2v12c0 1.105-.895 2-2 2s-2-.895-2-2V3c0-1.105.895-2 2-2zm6 6c1.105 0 2 .895 2 2v6c0 1.105-.895 2-2 2s-2-.895-2-2V9c0-1.105.895-2 2-2z"/>
</svg>
