<svg xmlns="http://www.w3.org/2000/svg" width="16" height="16" viewBox="0 0 16 16">
    <path fill="#ACACAC" fill-rule="evenodd" d="M0 9.085c-.001-.364.282-.667.65-.697l2.514-.21L4.48 5.066c.158-.37.54-.597.945-.562.407.034.743.327.828.72l1.037 4.832L9.372.72c.092-.412.457-.71.885-.72.435-.016.821.27.926.687L13.2 8.21l2.152.205c.37.036.652.345.648.712-.004.367-.292.67-.664.696l-2.847.215c-.424.002-.796-.278-.906-.682l-1.22-4.536-2.189 9.793c-.096.42-.473.718-.91.72-.437-.002-.814-.304-.905-.725L5.05 8.5l-.4.946c-.144.342-.484.566-.86.565L.658 9.783C.287 9.758 0 9.453 0 9.085z"/>
</svg>
