<svg xmlns="http://www.w3.org/2000/svg" width="16" height="16" viewBox="0 0 16 16">
    <defs>
        <linearGradient id="prefix__a" x1="0%" x2="102%" y1="0%" y2="101%">
            <stop offset="0%" stop-color="#FF0467"/>
            <stop offset="100%" stop-color="#FC7437"/>
        </linearGradient>
    </defs>
    <path fill="url(#prefix__a)" fill-rule="evenodd" d="M13.6 6h-.14c.341-.589.54-1.27.54-2 0-2.209-1.791-4-4-4S6 1.791 6 4C3.791 4 2 5.791 2 8c0 .729.198 1.411.54 2H2.4C.975 10.638 0 12.005 0 13.463V15c0 .351.554 1 .969 1h10.156c.415 0 .875-.649.875-1v-1.537c0-.509-.125-1.004-.34-1.463h3.465c.415 0 .875-.649.875-1V9.463c0-1.458-.975-2.825-2.4-3.463zM10 2c1.103 0 2 .897 2 2s-.897 2-2 2c-.211 0-.411-.042-.602-.103-.326-.526-.77-.969-1.296-1.295-.061-.191-.103-.391-.103-.602 0-1.103.897-2 2-2H10zM6 6c1.105 0 2 .896 2 2s-.896 2-2 2c-.988 0-1.805-.719-1.966-1.661C4.013 8.229 4 8.117 4 8c0-1.105.896-2 2-2zm4 8H2v-.537c0-.543.356-1.107.898-1.463h6.203c.542.356.898.92.898 1.463V14H10zm4-4H9.46c.341-.589.54-1.27.54-2h3.102c.542.356.898.92.898 1.463V10z"/>
</svg>
