<svg xmlns="http://www.w3.org/2000/svg" width="18" height="18" viewBox="0 0 18 18">
    <g fill="none" fill-rule="evenodd">
        <rect width="16" height="2" x="1" y="14" fill="#000" rx="1"/>
        <g fill-rule="nonzero">
            <path fill="#000" d="M4.19 7.241V.103H2.45L0 2.1l1.001 1.23.81-.669c.18-.16.33-.312.45-.459-.02.381-.03.8-.03 1.26v3.78H4.19z" transform="translate(.41 3.759)"/>
            <path fill="#F30000" d="M7.671 7.241L8.599 5.562 9.531 7.241 11.699 7.241 9.897 4.419 11.631 1.709 9.458 1.709 8.599 3.262 7.759 1.709 5.591 1.709 7.28 4.419 5.498 7.241z" transform="translate(.41 3.759)"/>
            <path fill="#000" d="M17.227 7.241V5.65h-2.7v-.048c.79-.71 1.307-1.192 1.55-1.446.242-.254.437-.495.583-.725.147-.23.255-.463.325-.7.07-.238.105-.497.105-.777 0-.374-.1-.712-.3-1.013-.2-.301-.482-.533-.845-.696C15.582.081 15.169 0 14.707 0c-.368 0-.699.037-.994.112-.294.075-.567.183-.817.325-.251.142-.56.377-.928.706l1.06 1.24c.29-.25.549-.44.778-.569.23-.129.457-.193.681-.193.218 0 .388.054.508.161.12.108.18.254.18.44 0 .15-.03.293-.09.43-.06.136-.166.3-.32.49-.152.19-.478.546-.976 1.067l-1.743 1.763v1.27h5.18z" transform="translate(.41 3.759)"/>
        </g>
    </g>
</svg>
