<svg xmlns="http://www.w3.org/2000/svg" width="18" height="24" viewBox="0 0 18 24">
    <path fill="#F54C4D" d="M9 24c1.625 0 3.125-.406 4.5-1.218 1.375-.813 2.469-1.906 3.281-3.28.813-1.375 1.219-2.875 1.219-4.5 0-1.374-.234-2.655-.703-3.842-.406-.938-1-1.86-1.781-2.765-.47-.531-1.204-1.266-2.204-2.203-1.093-1-1.828-1.78-2.203-2.343-.656-.875-.984-1.78-.984-2.718 0-.375-.125-.664-.375-.867-.25-.203-.547-.289-.89-.258-.344.031-.61.203-.797.516-1.188 1.687-1.86 3.186-2.016 4.499-.156 1.062.031 2.03.562 2.905.313.531.922 1.234 1.829 2.109.687.687 1.156 1.218 1.406 1.593.437.594.656 1.219.656 1.875 0 .843-.297 1.554-.89 2.132-.594.578-1.305.867-2.133.867-.829 0-1.532-.297-2.11-.89-.578-.594-.867-1.313-.867-2.156V9.473c0-.344-.11-.617-.328-.82-.219-.204-.484-.313-.797-.329-.313-.015-.578.102-.797.352C1.86 9.426 1.266 10.3.797 11.3.266 12.487 0 13.721 0 15.002c0 1.625.406 3.125 1.219 4.5.812 1.374 1.906 2.467 3.281 3.28C5.875 23.594 7.375 24 9 24z"/>
</svg>
