<svg xmlns="http://www.w3.org/2000/svg" width="129" height="36" viewBox="0 0 129 36">
    <g fill="none">
        <path fill="#65666A" d="M115.468 26.2c-6.205 3.512-18.451 4.038-22.85 1.641.295-.492.689-.59 1.214-.328 1.773.788 3.644.919 5.581 1.083 5.418.558 10.67-.295 15.727-2.265.164-.066.262-.099.328-.132z"/>
        <path fill="#65666A" d="M114.023 23.901c-.82.755-1.674 1.478-2.528 2.266.362-2.331 2.43-4.203 5.09-4.728.098 2.003-2.233 4.596-4.728 5.187.787-.919 1.543-1.74 2.33-2.528-.098-.131-.13-.164-.164-.197zM123.545 22.555c-.756 1.872-3.513 3.382-6.37 3.25 1.215-.656 2.364-1.214 3.448-1.772-.033-.033-.033-.099-.066-.132-1.116.427-2.266.854-3.48 1.346 1.017-2.002 3.94-3.151 6.468-2.692zM111.495 33.39c-2.692.197-4.826-.591-6.303-2.89 1.083.46 2.134.952 3.217 1.412.033-.033.033-.098.066-.131-.985-.591-2.003-1.116-3.02-1.707 2.1-.526 5.121 1.149 6.04 3.316zM104.83 27.184c.854-2.626 2.726-3.972 5.352-4.465-.066 2.102-2.56 4.465-4.892 4.827.723-.788 1.478-1.675 2.266-2.496v-.032c-.887.722-1.773 1.444-2.725 2.166zM102.106 34.539c-2.397-.23-4.531-2.167-5.024-4.63.953.821 1.806 1.61 2.693 2.397.032-.033.065-.066.13-.098-.754-.854-1.477-1.708-2.264-2.594 2.363.492 4.399 2.725 4.465 4.925zM103.714 24.098c-1.28 2.397-3.217 3.448-5.844 3.513.92-.59 1.839-1.149 2.758-1.74-.033-.033-.065-.098-.065-.131-1.051.492-2.069 1.05-3.218 1.609 1.083-2.167 3.71-3.513 6.37-3.25zM111.89 28.859c1.28.262 2.396.427 3.512.656 0-.065.033-.098.033-.197-1.083-.328-2.167-.656-3.283-.985 1.97-.82 5.089.099 6.402 1.839-2.101 1.018-5.22.427-6.665-1.313z"/>
        <g fill="#65666A">
            <path d="M8.635 4.958C13.658 6.96 18.91 7.78 24.36 7.223c1.904-.197 3.808-.296 5.581-1.084.558-.262.952-.197 1.215.329-4.367 2.43-16.646 1.871-22.85-1.642.065.066.196.099.328.132z" transform="translate(5.253 21.34)"/>
            <path d="M9.62 2.758c.755.788 1.51 1.641 2.33 2.528C9.456 4.695 7.093 2.1 7.224.098c2.626.559 4.695 2.43 5.056 4.761-.854-.788-1.707-1.51-2.528-2.265-.033 0-.066.033-.131.164zM6.73 3.907c-1.181-.46-2.363-.92-3.48-1.346-.033.033-.033.098-.065.131 1.083.558 2.2 1.116 3.447 1.773C3.742 4.596.985 3.12.23 1.215c2.528-.46 5.483.69 6.5 2.692zM18.287 8.733c-1.018.591-2.035 1.116-3.02 1.707.032.033.032.099.065.132 1.084-.46 2.134-.952 3.218-1.412-1.478 2.331-3.612 3.086-6.304 2.89.952-2.168 4.006-3.842 6.041-3.317zM16.186 3.677v.033c.788.82 1.543 1.707 2.265 2.495-2.33-.361-4.826-2.725-4.892-4.826 2.627.46 4.498 1.806 5.352 4.465-.887-.722-1.806-1.445-2.725-2.167zM26.167 8.24c-.788.92-1.51 1.74-2.266 2.594.066.033.099.066.132.099.853-.788 1.74-1.543 2.692-2.397-.493 2.463-2.627 4.432-5.023 4.63.032-2.167 2.068-4.4 4.465-4.925zM26.43 5.975c-1.15-.558-2.168-1.083-3.218-1.608 0 .032-.033.098-.066.13.92.592 1.839 1.15 2.758 1.741-2.594-.066-4.564-1.116-5.844-3.48 2.66-.263 5.286 1.083 6.37 3.217zM5.22 8.864c1.313-1.74 4.465-2.692 6.402-1.838-1.116.328-2.2.657-3.283.985 0 .066.033.098.033.197 1.116-.23 2.233-.394 3.513-.657C10.44 9.258 7.321 9.85 5.22 8.864z" transform="translate(5.253 21.34)"/>
        </g>
        <g fill="#CA2029">
            <path d="M.098.328L6.698.328 9.258 10.211 11.786.328 18.386.328 18.386 16.58 14.282 16.58 14.282 4.202 11.097 16.613 7.387 16.613 4.235 4.202 4.235 16.613.098 16.613zM31.584 13.92H25.87l-.788 2.693h-5.122L26.068.328h5.483l6.107 16.252h-5.253l-.821-2.66zm-1.05-3.512l-1.807-5.844-1.772 5.844h3.578zM39.234.328h8.339c1.805 0 3.184.427 4.07 1.314.92.853 1.347 2.1 1.347 3.677 0 1.641-.493 2.922-1.478 3.841-.984.92-2.495 1.379-4.53 1.379h-2.758v6.04h-5.056V.33h.066zm5.056 6.96h1.214c.952 0 1.642-.164 2.036-.492.394-.328.59-.755.59-1.28 0-.526-.163-.952-.524-1.314-.329-.36-.985-.525-1.905-.525h-1.444V7.29h.033zM64.317 13.92h-5.713l-.788 2.693h-5.122L58.801.328h5.483L70.39 16.58h-5.253l-.82-2.66zm-1.018-3.512l-1.806-5.844-1.773 5.844H63.3zM83.13 1.576c4.924.525 7.419 2.725 7.419 6.665 0 4.005-2.462 6.238-7.42 6.664v1.675h-4.563v-1.74c-4.925-.427-7.388-2.627-7.388-6.632 0-3.94 2.463-6.14 7.388-6.665V.328h4.563v1.248zm-4.564 9.98v-6.73c-.756.23-1.347.624-1.806 1.28-.46.624-.69 1.347-.69 2.168 0 .755.23 1.444.69 2.035.427.591 1.05.985 1.806 1.248zm4.563-.032c.788-.23 1.412-.624 1.839-1.215.426-.59.656-1.28.656-2.101 0-.788-.23-1.478-.656-2.101-.46-.624-1.051-1.051-1.839-1.314v6.73zM93.34 8.47c0-2.659.755-4.727 2.232-6.205C97.05.788 99.118.033 101.744.033c2.693 0 4.794.722 6.238 2.167 1.478 1.444 2.2 3.48 2.2 6.106 0 1.905-.328 3.448-.952 4.662-.624 1.215-1.576 2.167-2.758 2.824-1.215.69-2.725 1.018-4.53 1.018-1.84 0-3.35-.296-4.564-.887-1.215-.59-2.167-1.51-2.922-2.758-.755-1.214-1.116-2.79-1.116-4.695zm5.023.033c0 1.642.295 2.824.92 3.546.623.722 1.444 1.084 2.494 1.084 1.084 0 1.905-.362 2.495-1.051.591-.69.887-1.97.887-3.776 0-1.543-.296-2.659-.92-3.348-.623-.69-1.444-1.051-2.495-1.051-1.017 0-1.838.361-2.43 1.083-.656.657-.951 1.872-.951 3.513zM113.235.328L118.259.328 118.259 6.008 123.741 6.008 123.741.328 128.798.328 128.798 16.58 123.741 16.58 123.741 10.014 118.259 10.014 118.259 16.58 113.235 16.58z"/>
        </g>
        <g fill="#0B2344">
            <path d="M3.152 3.677h1.576c1.444 0 2.495.263 3.184.755.69.493 1.051 1.28 1.051 2.364 0 .887-.328 1.543-.952 2.003-.624.46-1.543.69-2.725.69H.263V.032h7.945v1.904H3.152v1.74zm0 3.776h1.51c.92 0 1.379-.329 1.379-.985 0-.591-.46-.887-1.379-.887h-1.51v1.872zM13.133.033L20.946.033 20.946 2.036 16.055 2.036 16.055 3.546 20.585 3.546 20.585 5.483 16.055 5.483 16.055 7.354 21.111 7.354 21.111 9.488 13.133 9.488zM24.656.033L33.554.033 33.554 2.364 30.566 2.364 30.566 9.488 27.644 9.488 27.644 2.364 24.656 2.364z" transform="translate(47.606 23.31)"/>
        </g>
    </g>
</svg>
