<svg xmlns="http://www.w3.org/2000/svg" width="18" height="18" viewBox="0 0 18 18">
    <g fill="none" fill-rule="evenodd">
        <rect width="16" height="7" x="1" y="9" fill="#FFF" stroke="#000" stroke-width="2" rx="2"/>
        <rect width="12" height="12" x="5" y="4" fill="#FFF" stroke="#000" stroke-width="2" rx="2"/>
        <path fill="#F30000" d="M11 12c.552 0 1 .448 1 1s-.448 1-1 1H8c-.552 0-1-.448-1-1s.448-1 1-1h3zm2-3c.552 0 1 .448 1 1s-.448 1-1 1H8c-.552 0-1-.448-1-1s.448-1 1-1h5zm0-3c.552 0 1 .448 1 1s-.448 1-1 1H8c-.552 0-1-.448-1-1s.448-1 1-1h5z"/>
    </g>
</svg>
