<svg xmlns="http://www.w3.org/2000/svg" width="20" height="20" viewBox="0 0 20 20">
    <path fill="#ACACAC" fill-rule="evenodd" d="M19.194.806c.134-.134.302-.16.504-.08.201.08.302.228.302.443v5.766c0 .135-.047.25-.141.343-.094.094-.208.141-.343.141H13.75c-.215 0-.363-.1-.444-.302-.08-.202-.053-.37.081-.504l2.218-2.218c-.753-.726-1.606-1.29-2.56-1.693-.955-.404-1.97-.605-3.045-.605-1.371 0-2.648.33-3.83.988-1.183.658-2.138 1.559-2.864 2.701-.725 1.143-1.129 2.4-1.21 3.77 0 .108-.046.209-.14.303-.094.094-.209.141-.343.141H.483c-.134 0-.248-.047-.342-.141C.047 9.765 0 9.637 0 9.476c.108-1.72.612-3.307 1.512-4.758.9-1.452 2.104-2.601 3.609-3.448S8.253 0 10 0c1.344 0 2.628.255 3.85.766 1.224.51 2.292 1.237 3.206 2.178L19.194.806zM19.516 10c.135 0 .249.047.343.141.094.094.141.222.141.383-.108 1.72-.612 3.307-1.512 4.758-.9 1.452-2.104 2.601-3.609 3.448S11.747 20 10 20c-1.344 0-2.628-.255-3.85-.766-1.224-.51-2.292-1.237-3.206-2.178L.806 19.194c-.134.134-.302.16-.504.08-.201-.08-.302-.228-.302-.443v-5.766c0-.135.047-.25.141-.343.094-.094.208-.141.343-.141H6.25c.215 0 .363.1.444.302.08.202.053.37-.081.504l-2.218 2.218c.753.726 1.606 1.29 2.56 1.693.955.404 1.97.605 3.045.605 1.371 0 2.648-.33 3.83-.988 1.183-.658 2.138-1.559 2.864-2.701.725-1.143 1.129-2.4 1.21-3.77 0-.108.046-.209.14-.303.094-.094.209-.141.343-.141h1.13z"/>
</svg>
