<svg xmlns="http://www.w3.org/2000/svg" width="16" height="16" viewBox="0 0 16 16">
    <path fill="#FFC35E" fill-rule="evenodd" d="M15.963 6.493c-.043-.198-.235-.318-.443-.318h-5.313l-1.74-4.967c-.075-.217-.225-.32-.46-.32-.235 0-.394.103-.47.32L5.798 6.175H.486c-.235 0-.383.103-.461.318-.061.232-.01.406.156.534l4.261 3.297-1.548 5.053c-.068.222 0 .405.174.534.191.112.392.126.574 0l4.365-3.013 4.356 3.013c.093.064.192.086.287.086.27 0 .478-.207.478-.474 0-.043-.006-.104-.034-.198l-1.53-5.001 4.26-3.297c.171-.133.217-.31.14-.534z"/>
</svg>
