<svg xmlns="http://www.w3.org/2000/svg" xmlns:xlink="http://www.w3.org/1999/xlink" width="92" height="40" viewBox="0 0 92 40">
    <defs>
        <filter id="prefix__b" width="102.2%" height="105%" x="-1.1%" y="-2.5%" filterUnits="objectBoundingBox">
            <feOffset dy="-2" in="SourceAlpha" result="shadowOffsetInner1"/>
            <feComposite in="shadowOffsetInner1" in2="SourceAlpha" k2="-1" k3="1" operator="arithmetic" result="shadowInnerInner1"/>
            <feColorMatrix in="shadowInnerInner1" values="0 0 0 0 0 0 0 0 0 0 0 0 0 0 0 0 0 0 0.25 0"/>
        </filter>
        <path id="prefix__a" d="M7.692 0h76.616c2.675 0 3.645.278 4.623.801.977.523 1.745 1.29 2.268 2.268.523.978.801 1.948.801 4.623v24.616c0 2.675-.278 3.645-.801 4.623-.523.977-1.29 1.745-2.268 2.268-.978.523-1.948.801-4.623.801H7.692c-2.675 0-3.645-.278-4.623-.801-.977-.523-1.745-1.29-2.268-2.268C.278 35.953 0 34.983 0 32.308V7.692c0-2.675.278-3.645.801-4.623.523-.977 1.29-1.745 2.268-2.268C4.047.278 5.017 0 7.692 0z"/>
    </defs>
    <g fill="none" fill-rule="evenodd">
        <use fill="#4C75A3" xlink:href="#prefix__a"/>
        <use fill="#000" filter="url(#prefix__b)" xlink:href="#prefix__a"/>
        <path fill="#FFF" fill-rule="nonzero" d="M58.867 25.644c-.03-.064-.058-.118-.084-.16-.434-.767-1.263-1.708-2.486-2.824l-.026-.025-.013-.013-.013-.013h-.013c-.556-.52-.907-.869-1.055-1.048-.27-.34-.33-.685-.182-1.035.104-.264.495-.821 1.171-1.673.356-.451.638-.813.846-1.086 1.502-1.959 2.153-3.21 1.953-3.756l-.078-.127c-.052-.077-.186-.147-.403-.211-.217-.064-.495-.075-.833-.032l-3.749.025c-.06-.02-.147-.019-.26.007l-.17.038-.065.032-.052.039c-.043.025-.09.07-.143.134-.052.063-.095.138-.13.223-.408 1.03-.872 1.989-1.393 2.875-.32.528-.616.986-.885 1.373-.269.388-.495.673-.677.856-.182.183-.347.33-.494.44-.148.112-.26.158-.339.141l-.221-.05c-.122-.078-.22-.182-.293-.314-.074-.132-.124-.298-.15-.498-.025-.2-.04-.373-.045-.518-.004-.144-.002-.349.006-.613.01-.264.014-.443.014-.536 0-.324.006-.675.019-1.054l.032-.901c.01-.222.013-.456.013-.703 0-.247-.015-.44-.045-.581-.03-.14-.076-.277-.136-.409-.061-.132-.15-.234-.267-.307-.117-.072-.263-.13-.436-.172-.46-.102-1.046-.158-1.758-.166-1.614-.017-2.65.085-3.11.307-.183.093-.348.221-.495.383-.156.187-.178.29-.065.306.52.077.889.26 1.106.55l.078.153c.06.11.122.307.182.588.061.28.1.592.117.932.044.622.044 1.154 0 1.597-.043.443-.084.788-.123 1.035-.04.247-.098.447-.176.6-.078.154-.13.247-.156.281-.026.034-.048.056-.065.064-.113.043-.23.064-.352.064-.121 0-.269-.06-.442-.179-.174-.119-.354-.283-.54-.492-.187-.208-.397-.5-.632-.875-.234-.374-.477-.817-.729-1.328l-.208-.37c-.13-.24-.308-.586-.533-1.042-.226-.456-.426-.897-.6-1.323-.069-.178-.173-.315-.312-.408l-.065-.039c-.043-.034-.113-.07-.208-.108-.095-.039-.195-.066-.3-.083l-3.566.025c-.364 0-.612.081-.742.243l-.052.077c-.026.042-.039.11-.039.204 0 .094.026.209.078.345.52 1.201 1.087 2.36 1.699 3.475C36.388 19.1 36.92 20 37.37 20.68c.451.681.911 1.324 1.38 1.929.469.604.779.992.93 1.162.152.17.272.298.359.384l.325.306c.208.205.514.45.918.735.403.285.85.566 1.34.843.49.277 1.061.503 1.712.677.65.175 1.284.245 1.9.211h1.497c.304-.026.534-.12.69-.281l.052-.064c.035-.05.068-.13.098-.236.03-.107.045-.224.045-.351-.009-.367.02-.697.085-.99.065-.294.139-.516.221-.665.083-.149.176-.275.28-.376.104-.103.178-.165.222-.186.043-.021.077-.036.103-.045.209-.068.454-.002.736.199.282.2.547.447.794.74.247.295.545.625.892.99.347.367.65.64.91.818l.261.154c.174.102.4.196.677.28.277.086.52.107.729.065l3.332-.051c.33 0 .586-.054.768-.16.182-.107.29-.224.325-.351.035-.128.037-.273.007-.435-.03-.162-.061-.275-.092-.338z"/>
    </g>
</svg>
