<svg xmlns="http://www.w3.org/2000/svg" width="126" height="42" viewBox="0 0 126 42">
    <g fill="#CEAE6D">
        <path d="M11.07 24.493c-.06.099-.119.216-.158.314-.314.648-.373 1.394-.157 2.061 1.158-.961 2.473-1.747 3.866-2.296-1.157-.216-2.374-.255-3.552-.079zM12.207 28.38c.314.137.648.255 1.001.313.354-1.216.844-2.374 1.453-3.493-1.315.53-2.552 1.276-3.65 2.198.294.432.725.766 1.196.981zM16.329 28.517c-.432-1.197-.765-2.277-1.04-3.2-.648 1.1-1.139 2.258-1.492 3.475.844.039 1.708-.04 2.532-.275zM15.053 21.608c.098.628.255 1.394.51 2.316.746-.922 1.57-1.786 2.473-2.551-1-.137-2.021-.059-2.983.235zM26.319 32.01c-.726-.785-1.492-1.55-2.297-2.257-1.256 1.747-3.002 3.082-5.004 3.827.51 1.178 1.099 2.414 1.727 3.73 2.453-1.002 4.435-2.905 5.574-5.3zM19.253 21.746c-.137-.06-.314-.118-.47-.177-.923.726-1.787 1.55-2.533 2.453 1.453-.451 2.964-.686 4.475-.745l-.02-.04c-.255-.706-.784-1.236-1.452-1.491z"/>
        <path d="M23.571 29.36c-1.08-.902-2.218-1.726-3.435-2.453-.843.864-1.864 1.531-3.002 1.943h-.04c.471 1.257 1.021 2.63 1.669 4.161 1.943-.687 3.63-1.962 4.808-3.65zM18.213 33.266c-.667-1.55-1.217-2.924-1.688-4.18-.942.275-1.943.373-2.924.294-.393 1.394-.667 2.807-.844 4.24 1.825.353 3.71.235 5.456-.354zM35.307 5.535c.648-.491 1.08-1.217 1.178-2.022v-.059h.02c.059-.785-.157-1.57-.628-2.198C35.386.608 34.66.176 33.855.08h-.059c-.785-.079-1.57.137-2.198.608-.648.49-1.06 1.217-1.177 2.021v.079c-.197 1.649.98 3.14 2.63 3.356h.058v.02c.785.078 1.57-.157 2.198-.628zm-3.532-1.139c-.314-.432-.471-.961-.432-1.491l.02-.04v-.02c.078-.549.353-1.04.785-1.373.431-.314.961-.471 1.491-.432l.06.02c.549.078 1.04.353 1.373.785.314.432.471.962.432 1.491l-.02.06c-.059.549-.353 1.04-.785 1.373-.432.314-.962.471-1.492.432l-.039-.02h-.02c-.549-.059-1.06-.353-1.373-.785zM2.767 10.323c0 1.865 1.512 3.376 3.376 3.376 1.864 0 3.376-1.511 3.376-3.376 0-1.864-1.512-3.375-3.376-3.375-1.884 0-3.376 1.51-3.376 3.375zM10.853 33.56c-1.099-.51-2.06-1.275-2.806-2.256-.295.647-.53 1.334-.668 2.021 1.1 1.688 2.65 3.042 4.475 3.867.04.02.098.039.138.058-.04-1.079.02-2.158.117-3.238-.431-.098-.844-.255-1.256-.451zM27.143 25.298c-.55-.314-1.138-.55-1.747-.746.04.295.06.59.06.884 0 1.04-.236 2.06-.688 3.002-.118.275-.255.55-.432.805.805.707 1.57 1.433 2.238 2.159.805-1.923 1-4.043.569-6.104zM23.885 28.85c.118-.215.236-.45.353-.667.57-1.197.766-2.551.53-3.847-1.08-.314-2.178-.47-3.317-.49v.157c-.02.53-.117 1.04-.353 1.53-.157.334-.334.648-.569.943 1.178.706 2.296 1.51 3.356 2.374zM16.918 28.32c1.02-.353 1.943-.941 2.728-1.707-1.217-.687-2.493-1.256-3.808-1.707.255.98.609 2.12 1.08 3.415zM13.032 29.263c-.373-.079-.726-.177-1.08-.354-.55-.255-1.04-.628-1.393-1.118-.883.844-1.63 1.825-2.218 2.904.667 1.02 1.63 1.845 2.748 2.336.353.157.726.294 1.099.412.176-1.413.47-2.807.844-4.18zM16.545 24.533c1.197.431 2.355.981 3.474 1.629.216-.275.392-.57.55-.864.215-.451.313-.942.274-1.433-1.452.04-2.885.275-4.298.668zM20.195 37.564c-.647-1.334-1.216-2.57-1.746-3.748-1.845.648-3.828.785-5.75.392-.099 1.12-.138 2.238-.099 3.337 2.453.903 5.142.922 7.595.02z"/>
        <path d="M20.43 38.094c-2.511.923-5.259.962-7.79.079.058.883.196 1.747.392 2.59 1.511.727 3.16 1.1 4.828 1.1h.059c1.393 0 2.767-.256 4.062-.785-.55-1.04-1.06-2.022-1.55-2.984zM23.905 21.334c.51.569.922 1.236 1.177 1.962l.177.55c.569.176 1.138.412 1.688.667-.04-.157-.098-.294-.138-.47-.804-1.06-1.786-1.983-2.904-2.71z"/>
        <path d="M36.7.981l2.415 3.082c-.02.137-.118.922-.157 1.099-1.413 5.28-3.965 8.596-7.007 10.284-.02 0-.02.02-.039.02-4.592 2.492-9.715 1.06-14.464-2.061 0 0 3.768-.59 6.751 1 2.708 1.414 1.963 1.885 4.023 1.492-2.806-4.592-7.654-5.397-13.012-4.18-.746-.687-1.432-1.413-2.08-2.179h-2.453c.157.157 1.158 1.256 2.728 2.65-2.964.981-6.34 2.826-10.226 5.77L0 20.215h4.141c4.455-3.552 8.223-5.476 11.423-6.222 3.395 2.67 8.086 5.515 12.639 5.32 2.492 3.807 3.611 8.635 4.062 11.46.04.452.06.923.04 1.375H36.7V30.99h-3.317c-.216-2.395-1.138-7.497-3.513-11.913 3.808-.864 7.36-4.24 9.695-12.149.02-.078.825-2.944.825-2.944L37.427.196l-.726.785z"/>
        <path d="M27.948 27.418c0 1.53-.314 3.061-.942 4.455.55.608 1.06 1.256 1.55 1.904.785-2.69.53-5.594-.746-8.086.098.569.138 1.158.138 1.727zM21 37.859c.471.962.981 1.923 1.492 2.963 2.728-1.236 4.828-3.513 5.848-6.32-.47-.647-1-1.314-1.61-2.02-1.196 2.413-3.237 4.337-5.73 5.377zM14.837 19.96c.02.255.06.628.118 1.08 1.197-.354 2.473-.413 3.69-.119.55-.412 1.158-.765 1.786-1.06-.844-.196-1.708-.313-2.571-.313-1.02 0-2.041.137-3.023.412zM11.52 23.826c1.139-.118 2.297-.04 3.416.216-.216-.863-.393-1.629-.491-2.237-1.138.412-2.14 1.118-2.924 2.021zM21.294 20.136c-.687.256-1.354.59-1.943 1.021.04.02.099.04.138.059.804.353 1.452 1 1.786 1.805.02.079.059.158.078.236 1.08.02 2.16.157 3.219.412-.02-.059-.04-.098-.04-.157-.549-1.53-1.726-2.689-3.238-3.376zM8.557 24.513c.707-.255 1.433-.451 2.179-.57.745-1.157 2.04-2.119 3.61-2.688l.04-.02c-.059-.431-.098-.785-.118-1.079-2.355.765-4.357 2.296-5.711 4.357zM8.086 25.24c-.118.196-.216.411-.334.608-.392 1.236-.373 2.551.06 3.768.058.157.137.314.195.49.59-1.06 1.335-2.021 2.238-2.845-.04-.06-.059-.138-.079-.197-.274-.804-.216-1.707.157-2.472-.745.157-1.491.392-2.198.706l-.039-.059zM11.619 37.76c-1.747-.804-3.258-2.02-4.377-3.571v.02c.864 2.63 2.689 4.847 5.103 6.201-.157-.824-.275-1.648-.314-2.473-.118-.058-.275-.117-.412-.176zM7.3 29.812c-.215-.47-.333-.962-.372-1.472-.157.766-.255 1.55-.235 2.336v.02c0 .53.039 1.06.117 1.57.06.117.118.255.177.392.177-.648.432-1.295.726-1.904-.157-.294-.294-.608-.412-.942zM105.667 10.991H109.985V32.384H105.667zM97.66 23.473L86.846 11.069 84.667 11.069 84.667 32.383 89.044 32.383 89.044 20.058 99.779 32.383 101.978 32.383 101.978 10.991 97.66 10.991zM67.808 32.383L81.036 32.383 81.036 28.085 72.107 28.085 72.107 23.021 81.036 23.021 81.036 18.782 72.107 18.782 72.107 15.23 81.115 15.23 81.115 10.912 67.808 10.912zM113.086 15.308L117.325 15.308 117.325 32.383 121.623 32.383 121.623 15.308 125.863 15.308 125.863 11.069 113.086 11.069zM52.068 15.308L58.506 15.308 51.538 30.185 51.538 32.462 64.021 32.462 64.021 28.222 57.132 28.222 64.021 13.405 64.021 11.148 52.068 11.148z"/>
    </g>
</svg>
