<svg xmlns="http://www.w3.org/2000/svg" viewBox="0 0 80.8 179.26" preserveAspectRatio="none">
  <defs>
    <style>
      .a {
        fill: #fff;
      }
    </style>
  </defs>
  <title>Asset 1_SVG</title>
  <g transform="rotate(90deg)">
    <path class="a" d="M15.05,5.81v1.7A5.38,5.38,0,0,1,15.05,5.81Z"/>
    <path class="a" d="M15.05,10.24V7.51C15.2,8.56,15.47,9.48,15.05,10.24Z"/>
    <path class="a" d="M12.37,17.33h-.06c-.14.29-.28.6-.47.56l.22-1c0-1.39-.26-3.19.31-4a10.12,10.12,0,0,0-.18,3.39l.43-1.95A6.78,6.78,0,0,0,12.88,17c-.21-.26-.37,0-.52.25Z"/>
    <path class="a" d="M14.72,16.45h-.34a5.33,5.33,0,0,0-.33-2.66C14.58,13.52,14.85,15.21,14.72,16.45Z"/>
    <polygon class="a" points="0 17.33 0.34 17.33 0.67 21.77 0 17.33"/>
    <path class="a" d="M14.38,22.66l-.33-3.55.67,1.77A3.19,3.19,0,0,0,14.38,22.66Z"/>
    <path class="a" d="M5.69,19.11l-.34,6.21L5,24.43C4.68,22.12,5.55,21,5.69,19.11Z"/>
    <path class="a" d="M16.39,27.58V22.66A29.62,29.62,0,0,1,16.39,27.58Z"/>
    <path class="a" d="M16.39,30.64V27.71a8.84,8.84,0,0,0,.34,2.93Z"/>
    <path class="a" d="M13,35.74c.16,3.71,3,7,2.37,8.2l-2-4.44A8.06,8.06,0,0,1,13,35.74Z"/>
    <path class="a" d="M13.05,28.86c.13-1.24-.31-2.92.33-3.54a3.15,3.15,0,0,1-.33-1.78l1,.89c-1.17,2.21-.17,4.88-.34,8a6.81,6.81,0,0,0-.28.7C13.71,31.43,13.87,30,13.05,28.86Z"/>
    <path class="a" d="M13,35.74a6.63,6.63,0,0,1,.41-2.64C13.29,34,13.11,34.83,13,35.74Z"/>
    <path class="a" d="M11.37,29.75c-.63.62-.2,2.3-.33,3.55L10.7,28Z"/>
    <path class="a" d="M3.68,47.48a42.7,42.7,0,0,0-.42-5.91A21.87,21.87,0,0,1,3.68,47.48Z"/>
    <polygon class="a" points="9.03 51.92 9.37 54.58 8.7 51.92 9.03 51.92"/>
    <path class="a" d="M17.73,52.8c-.84,2.3-.14,3.2-.34,6.21h-.33C17.06,56.7,16.92,53.42,17.73,52.8Z"/>
    <polygon class="a" points="13.71 60.78 13.38 60.78 12.04 57.24 13.71 60.78"/>
    <path class="a" d="M10.7,59H11v2.87C11,60.88,10.82,60,10.7,59Z"/>
    <path class="a" d="M11,63.45V61.88A11.74,11.74,0,0,1,11,63.45Z"/>
    <path class="a" d="M10.49,86.7l.21-.2C11.11,86.72,10.87,86.8,10.49,86.7Z"/>
    <path class="a" d="M9,79.41l.34,6.2a1.56,1.56,0,0,0,1.12,1.09l-.79.69C8.5,85.79,9.23,82.07,9,79.41Z"/>
    <path class="a" d="M5.11,86.13,5,86.5C4.79,87,4.89,86.57,5.11,86.13Z"/>
    <path class="a" d="M6,85.61c-.28-.51-.67,0-.91.52l.58-2.29Z"/>
    <path class="a" d="M5.35,92.71c-.2-1.43-1-2.48-.67-4.43l1,4.43Z"/>
    <path class="a" d="M16.39,99.8c.8,1-.1,2.31,0,3.55Z"/>
    <path class="a" d="M53.52,169l0,.07v-.41a1.81,1.81,0,0,1,.25,1,6.48,6.48,0,0,1-.25,2.13c0,.14,0,.28,0,.42l0-.1a3.23,3.23,0,0,0,0,.44C52.72,171.53,53.59,170.2,53.52,169Z"/>
    <polygon class="a" points="41.12 179.26 41.38 175.72 41.38 179.26 41.12 179.26"/>
    <path class="a" d="M64.44,172.17c0,.55,0,1.06,0,1.54a3.92,3.92,0,0,0-.26-1.54Z"/>
    <path class="a" d="M64.18,176.6c.09-.95.21-1.88.26-2.89A27.45,27.45,0,0,1,64.18,176.6Z"/>
    <path class="a" d="M28.94,173.05v.87C28.83,172.67,28.62,171.6,28.94,173.05Z"/>
    <path class="a" d="M28.94,173.92a7.16,7.16,0,0,1,0,1.8Z"/>
    <path class="a" d="M21.22,168.62a9.81,9.81,0,0,1,.47,2.67C21.32,171.24,21.21,169.86,21.22,168.62Z"/>
    <path class="a" d="M21.27,167.31c0,.36-.05.83-.05,1.31A2.94,2.94,0,0,1,21.27,167.31Z"/>
    <path class="a" d="M21.27,167.31c0-.57.11-.84.16-.46A3.16,3.16,0,0,0,21.27,167.31Z"/>
    <polygon class="a" points="48.9 169.51 48.38 167.74 49.15 169.51 48.9 169.51"/>
    <path class="a" d="M18.58,166.85c.62-1.77-.18-3.1,0-5.32.16-.44.29-1.24.52-.89A11.16,11.16,0,0,1,18.58,166.85Z"/>
    <rect class="a" x="11.33" y="158.87" width="0.26" height="7.1"/>
    <rect class="a" x="64.7" y="160.64" width="0.26" height="3.55"/>
    <path class="a" d="M42.16,162.42c.75-1,.67-5.5,1-7.09v3.54C43.45,161.36,42.88,163.31,42.16,162.42Z"/>
    <polygon class="a" points="49.93 155.33 50.19 151.78 50.19 155.33 49.93 155.33"/>
    <path class="a" d="M4.85,151.78a3.07,3.07,0,0,0,.26-1.22A2.13,2.13,0,0,1,4.85,151.78Z"/>
    <path class="a" d="M4.85,147.34h.26c-.07.95,0,2.21,0,3.22A9.31,9.31,0,0,1,4.85,147.34Z"/>
    <polygon class="a" points="64.45 136.6 64.46 136.81 64.44 136.71 64.45 136.6"/>
    <path class="a" d="M64.46,136.81c.59,2.15.21,5.89.19,9.36Z"/>
    <path class="a" d="M64.18,131.39h.26a11.46,11.46,0,0,1,0,5.21v-.78C64.2,133.59,65,132.8,64.18,131.39Z"/>
    <polygon class="a" points="58.22 146.46 57.96 147.34 58.22 143.8 58.22 146.46"/>
    <rect class="a" x="35.16" y="142.03" width="0.26" height="4.43"/>
    <path class="a" d="M46.82,137.59v6.21C46.9,141.67,46.2,139.45,46.82,137.59Z"/>
    <path class="a" d="M49.67,142V133C49.78,136,50.27,139,49.67,142Z"/>
    <path class="a" d="M49.93,128.72a15.62,15.62,0,0,0-.26,2.53v-3.42Z"/>
    <rect class="a" x="66.77" y="136.71" width="0.26" height="5.32"/>
    <path class="a" d="M33.35,141.14a12.68,12.68,0,0,1,0-4.43Z"/>
    <path class="a" d="M19.87,140.25v-1.43A3.43,3.43,0,0,1,19.87,140.25Z"/>
    <path class="a" d="M19.87,136.71v2.11C19.73,138,19.42,137.36,19.87,136.71Z"/>
    <path class="a" d="M68.25,138.24c-.07-1.75,0-4.23.08-5.92C69,134.28,68.22,136,68.25,138.24Z"/>
    <polygon class="a" points="68.33 132.27 68.34 132.23 68.33 132.32 68.33 132.27"/>
    <path class="a" d="M68.34,132.23a13.94,13.94,0,0,0,0-1.73l.25.89Z"/>
    <path class="a" d="M62.11,137.59l0-.59a1.7,1.7,0,0,0,.22.59Z"/>
    <path class="a" d="M62.29,135.14l.08-1.09A5.72,5.72,0,0,1,62.29,135.14Z"/>
    <path class="a" d="M62.29,135.14,62.15,137A5.75,5.75,0,0,1,62.29,135.14Z"/>
    <polygon class="a" points="36.98 135.82 36.46 135.82 36.2 130.5 36.98 135.82"/>
    <path class="a" d="M45,135.82l.25-3.55.27.89C45.63,134.49,45.16,134.93,45,135.82Z"/>
    <path class="a" d="M46.59,133.35c0,.84,0,1.66,0,2.47A19.87,19.87,0,0,1,46.59,133.35Z"/>
    <path class="a" d="M47.08,125.17l-.26.9a8.06,8.06,0,0,0,.52,3.54h-.26c-.18,1.2-.39,2.38-.49,3.74C46.56,129.33,46.31,125.25,47.08,125.17Z"/>
    <rect class="a" x="32.57" y="127.83" width="0.26" height="3.55"/>
    <path class="a" d="M66.25,119c.36.26.75-2.13,1,0l.26-.89c.23-.35.36.45.51.89-1.06,1-.36,6.11-1.29,8Z"/>
    <path class="a" d="M52.26,121.63c-.41,1.16,0,4.25-.51,4.44A11,11,0,0,1,52.26,121.63Z"/>
    <path class="a" d="M60,126.07V116.3A61.29,61.29,0,0,1,60,126.07Z"/>
    <path class="a" d="M13.92,124.29l.52-4.43v3.55C14.2,123,14.07,123.85,13.92,124.29Z"/>
    <path class="a" d="M63.14,111.88v2.67C63.13,113.63,63.11,112.71,63.14,111.88Z"/>
    <path class="a" d="M63.14,119.86l-.26-.89a8.82,8.82,0,0,0,.26-2.14Z"/>
    <path class="a" d="M39.31,117.2c-.37-2.31.72-3.46,0-5.32h.26c.1,1.77-.23,4.08.26,5.32Z"/>
    <path class="a" d="M28.94,114.53l-.25-12.41h.25C28.69,106.55,29.44,110.81,28.94,114.53Z"/>
    <rect class="a" x="39.31" y="103.9" width="0.26" height="3.54"/>
    <rect class="a" x="32.05" y="103.01" width="0.26" height="3.55"/>
    <path class="a" d="M33.61,95.92l.26.88-.26.89a3.87,3.87,0,0,0,.26,1.77l-.26.89a3.87,3.87,0,0,0,.26,1.77c-.5.71-.16,2.3-.26,3.55h-.26V95.92Z"/>
    <polygon class="a" points="36.72 103.9 36.72 99.46 36.98 103.01 36.72 103.9"/>
    <rect class="a" x="48.12" y="94.14" width="0.26" height="7.1"/>
    <polygon class="a" points="57.7 89.71 57.7 93.26 57.44 100.35 57.7 89.71"/>
    <path class="a" d="M17.29,95.92a4.21,4.21,0,0,0,.26-1.78l.26,3.55Z"/>
    <path class="a" d="M67.8,75.52a23.85,23.85,0,0,1,0,4.31C67.82,78.38,67.84,76.92,67.8,75.52Z"/>
    <path class="a" d="M68.06,87.05c-.78-2.16-.44-4.56-.26-7.22A48.68,48.68,0,0,0,68.06,87.05Z"/>
    <path class="a" d="M31.53,86.16V81.73l.27.89C32,84.21,31.51,84.83,31.53,86.16Z"/>
    <path class="a" d="M20.66,74.64c-.06,1.25-.33,2.55-.45,3.85l-.07-1.19C20,75.17,20.42,76.23,20.66,74.64Z"/>
    <path class="a" d="M20.21,78.49l.19,3.24A8.42,8.42,0,0,1,20.21,78.49Z"/>
    <path class="a" d="M39.05,74.64a6.73,6.73,0,0,0-.26,2.66h-.52c.26-.9.88-2.58.26-3.56l-.26.9V72c1-3.27-.75-8.16-.52-11.52l.52,1.77c-.67,1.78.16,3.55.26,5.32l.26-.88C39.28,69.85,37.78,72.51,39.05,74.64Z"/>
    <path class="a" d="M53.82,75.52c-.25-.22-.39.34-.53.91.09-1.11-.12-2.72.53-1.79Z"/>
    <path class="a" d="M53,77.3a5.6,5.6,0,0,0,.25-.87A1.41,1.41,0,0,1,53,77.3Z"/>
    <path class="a" d="M37,75.52a1.92,1.92,0,0,1-.22-.78A1.46,1.46,0,0,1,37,75.52Z"/>
    <path class="a" d="M36.76,74.74c-.33-.37-.84.43-.56-1.88C36.64,72.6,36.63,73.83,36.76,74.74Z"/>
    <rect class="a" x="14.96" y="67.54" width="0.26" height="3.55"/>
    <path class="a" d="M20.91,54.24h.26c.65,4.26-.26,10.55.78,14.19l-.26-.89c-.49.7-.15,2.31-.26,3.55Z"/>
    <path class="a" d="M34.12,66.66a10.58,10.58,0,0,1-.51,4.43l-.26-4.43.26.88C33.76,67.09,33.89,66.29,34.12,66.66Z"/>
    <path class="a" d="M29.46,65.77c.24,2-.36,3-.52,4.43l-.25-8.87C29.31,62.3,28.5,66.12,29.46,65.77Z"/>
    <path class="a" d="M25.83,64.87V60.45c-.82-1.78-.31-7.72-1.81-6.21a3.89,3.89,0,0,0,.26-1.77c.29,0,.62-.18.78.88l.26-.88c.51,5.32,1.45,8.51,1.81,13.3l-.52-2.67C26.35,63.64,26.22,65.23,25.83,64.87Z"/>
    <path class="a" d="M39.05,64.87c-.49-3.18,1-6.64-.26-8l.78.89C39.41,60.09,38.82,62.05,39.05,64.87Z"/>
    <path class="a" d="M31.14,55.87,31,56C31,55.67,31.06,55.68,31.14,55.87Z"/>
    <path class="a" d="M31.8,59.56a20.07,20.07,0,0,0-.66-3.69l.66-.74c0,2.92,1.13,6.56,0,8.87C31.64,62.3,31,61,31.8,59.56Z"/>
    <path class="a" d="M36.46,62.22a5.53,5.53,0,0,1,0-3.55A7.2,7.2,0,0,1,37,61.33C36.82,61.79,36.69,62.58,36.46,62.22Z"/>
    <path class="a" d="M28.94,56l.26-.88c1-.18,1.14,3.46,1,6.2H30C30.21,58.32,29.7,56.36,28.94,56Z"/>
    <path class="a" d="M39.05,54.24c.21-1.69.67-.53,1-.89,0,.54.1,1,.17,1.57C39.93,54.2,39.46,54.13,39.05,54.24Z"/>
    <path class="a" d="M40.6,56.9v1c-.07-1-.22-2-.35-2.95A5.7,5.7,0,0,1,40.6,56.9Z"/>
    <path class="a" d="M40.6,60.45V57.87A15.84,15.84,0,0,1,40.6,60.45Z"/>
    <path class="a" d="M64.18,52.47a8.15,8.15,0,0,1,0,2.61C64.19,54.21,64.12,53.23,64.18,52.47Z"/>
    <path class="a" d="M64.18,57.79a3.87,3.87,0,0,1-.26,1.77c-.48-1.63,0-2.86.27-4.48a4.23,4.23,0,0,1-.27,1.82Z"/>
    <path class="a" d="M34.9,54.24A6.84,6.84,0,0,1,35.42,56,4.34,4.34,0,0,1,34.9,54.24Z"/>
    <path class="a" d="M34.39,48.92c.24,1.54.29,3.73.51,5.32-.38-.77-.8-.66-1.29,0C33.43,51.85,34.36,50.25,34.39,48.92Z"/>
    <polygon class="a" points="22.73 53.35 22.21 55.13 22.47 52.47 22.73 53.35"/>
    <path class="a" d="M43.34,52.31a5.12,5.12,0,0,1,.11,2.82A14.9,14.9,0,0,0,43.34,52.31Z"/>
    <path class="a" d="M42.93,50.69a7,7,0,0,1,.41,1.62C43,51.45,42.57,51.11,42.93,50.69Z"/>
    <path class="a" d="M62.62,50.69l-.51,4.44C62.21,53.62,61.82,50.52,62.62,50.69Z"/>
    <path class="a" d="M20.15,52.44l-.53.91C19.74,52.4,19.93,52.35,20.15,52.44Z"/>
    <path class="a" d="M20.66,52.47c-.16.15-.34,0-.51,0l.51-.86Z"/>
    <path class="a" d="M28.17,49.81l.52-3.54c-.15-1-.46-.92-.73-.9v0l1.25-.85c-.18,2.49-.54,5.4-.77,7.09v-.89c-.16-1.06-.5-.88-.78-.88l-.12.25.12-2.92C27.54,48.47,28,48.92,28.17,49.81Z"/>
    <path class="a" d="M27.53,50.06l-.12,2.8A9.9,9.9,0,0,1,27.53,50.06Z"/>
    <path class="a" d="M38.79,47.14h.26v3.55h-.26c-.54,4.87-.57-1.34-.78-2.65.24-.37.36.43.52.88A3.89,3.89,0,0,0,38.79,47.14Z"/>
    <polygon class="a" points="45.52 52.47 45.78 49.81 45.78 52.47 45.52 52.47"/>
    <path class="a" d="M66.77,48.05v4.42A14.8,14.8,0,0,1,66.77,48.05Z"/>
    <polygon class="a" points="66.77 48.03 66.79 47.91 66.77 48.05 66.77 48.03"/>
    <polygon class="a" points="32.05 48.03 32.31 48.92 32.05 51.58 32.05 48.03"/>
    <path class="a" d="M41.12,48.92h-.26c.16.43.29,1.24.52.89v1.77l-1.3-1.77.26-.89a27.33,27.33,0,0,1,.07-3.34l.45,1.56h.26Z"/>
    <path class="a" d="M40.41,45.58l-.07-.21C40.48,44.4,40.45,44.77,40.41,45.58Z"/>
    <polygon class="a" points="36.98 43.6 36.46 43.6 36.72 42.71 36.98 43.6"/>
    <path class="a" d="M36.2,48.92a16.62,16.62,0,0,1,0-6.21l.26.89C36,44.85,36.31,47.14,36.2,48.92Z"/>
    <polygon class="a" points="32.83 46.27 32.85 46.2 32.84 46.31 32.83 46.27"/>
    <path class="a" d="M33.09,48a3.33,3.33,0,0,1-.25-1.72A3.64,3.64,0,0,1,33.09,48Z"/>
    <path class="a" d="M32.85,46.2a10.74,10.74,0,0,0,.24-3.49,6.22,6.22,0,0,1,.26,2.66C33.13,45,33,45.75,32.85,46.2Z"/>
    <path class="a" d="M34.39,42.71c0-1.06-.91-.88-.27-.88l.27-.89-.27-.89a7.13,7.13,0,0,1,.53-2.66l.25.88a6.17,6.17,0,0,0,.26-2.65,34.82,34.82,0,0,1-1,10.65Z"/>
    <path class="a" d="M27.39,37.39c.91,3.1-.67,4.88-.52,8C26.64,42.18,27.24,40.05,27.39,37.39Z"/>
    <polygon class="a" points="63.92 45.37 64.18 41.83 64.18 45.37 63.92 45.37"/>
    <path class="a" d="M32.05,42.51v-.68A2.2,2.2,0,0,1,32.05,42.51Z"/>
    <path class="a" d="M31,43.6h.78a8,8,0,0,0,.25-1.09v2C31.69,44.14,31.22,45.29,31,43.6Z"/>
    <path class="a" d="M65.73,41.83h-.61C65.36,41.32,65.54,40.28,65.73,41.83Z"/>
    <path class="a" d="M65.12,41.83c-.12.25-.26.38-.42,0Z"/>
    <path class="a" d="M31,39.17c-.36,1.32-1.19,1.32-1.56,0,1.84,1.32.63-8,2.07-8a4,4,0,0,0,.27-1.78l.25.9c.16,1.59-.28,2.22-.25,3.54a4,4,0,0,0-.27-1.77c-.15.45-.28,1.24-.51.89C30.76,35.44,30.37,37,31,39.17Z"/>
    <path class="a" d="M36.72,30a18.84,18.84,0,0,0-.52-4.07,4.19,4.19,0,0,0,.52-.9C36.66,26.63,36.68,28.3,36.72,30Z"/>
    <path class="a" d="M34.9,32.07c-.75-2.21.63-3.72.52-6.2a2.21,2.21,0,0,1-.2-.77c.41.86.66,1.12,1,.78C36,28.34,34.39,27.91,34.9,32.07Z"/>
    <polygon class="a" points="35.19 24.86 35.22 25.1 35.16 24.98 35.19 24.86"/>
    <path class="a" d="M36.73,30.59c.07,2.79.16,5.45,0,7.68C36.55,35.27,36.75,32.89,36.73,30.59Z"/>
    <path class="a" d="M35.42,23.2a3.42,3.42,0,0,1-.23,1.66c0-.52,0-1.11,0-1.66Z"/>
    <polygon class="a" points="36.2 25.87 36.2 25.88 36.2 25.88 36.2 25.87"/>
    <path class="a" d="M65.47,34.73v3.54C65.55,37,64.85,35.71,65.47,34.73Z"/>
    <path class="a" d="M53.56,29.4c.38,1.62.38,5.42,0,6.22C53.89,33,52.88,31.28,53.56,29.4Z"/>
    <polygon class="a" points="29.94 32.2 29.97 32.01 29.98 32.07 29.94 32.2"/>
    <path class="a" d="M29.94,32.2a1.86,1.86,0,0,1-.22.76Z"/>
    <path class="a" d="M30,32l-.25-.83c.49-.61.15-2.3.26-3.54l.52,2.66C30.11,30.05,30.08,31.12,30,32Z"/>
    <path class="a" d="M62.62,32.07V30.3c.24-.36.37.44.52.88C62.93,31.2,62.73,31.32,62.62,32.07Z"/>
    <path class="a" d="M63.14,27.64c.16-.45.29-1.24.52-.89-.1,2.49,1.06,5.14,0,6.21l-.26-1.78h-.26C63.76,30.21,63.09,28.88,63.14,27.64Z"/>
    <polygon class="a" points="65.22 27.64 65.47 28.53 65.22 31.18 65.22 27.64"/>
    <polygon class="a" points="33.35 25.87 33.09 30.3 33.09 22.32 33.35 25.87"/>
    <path class="a" d="M66.77,26.75l.26.89c.1,1.33-.36,1.76-.52,2.66C65.71,28.17,66.92,29.05,66.77,26.75Z"/>
    <polygon class="a" points="34.13 25.87 34.39 28.53 33.87 28.53 34.13 25.87"/>
    <rect class="a" x="40.86" y="21.44" width="0.26" height="3.54"/>
    <path class="a" d="M45.53,22.16V19.67C45.62,18.15,45.55,20.27,45.53,22.16Z"/>
    <path class="a" d="M45.53,22.16v1.93C45.51,23.66,45.52,22.93,45.53,22.16Z"/>
    <rect class="a" x="53.56" y="18.77" width="0.26" height="3.55"/>
    <path class="a" d="M64.44,22.32l-.26-.88-.26.88c-.16-2.13-.75-7.27-.52-6.22h.26v2.67c.54,2.31,1.06-1.06,1.81,0C64.6,17.71,64.85,21.26,64.44,22.32Z"/>
    <path class="a" d="M42.93,18.77V15.45A14.09,14.09,0,0,1,42.93,18.77Z"/>
    <path class="a" d="M42.93,15.45c-.23-2.28-.81-3.88,0-6.44Z"/>
    <path class="a" d="M66.77,15.22V11.67l.26.89A6.22,6.22,0,0,1,66.77,15.22Z"/>
    <path class="a" d="M18.22,0c.27,1.89.75,3.75-.16,5.47Z"/>
    <polygon class="a" points="43.97 1.03 44.49 1.03 44.23 5.46 43.97 1.03"/>
    <path class="a" d="M65.71,79.06l-1.62.65C64.57,79.32,67.38,77.69,65.71,79.06Z"/>
    <path class="a" d="M77.56,88.15c.65-1.63,2-1.24,3.24-1.3C79.72,87.24,79,88.73,77.56,88.15Z"/>
    <polygon class="a" points="27.96 45.37 28.28 45.95 28.28 48.45 27.82 45.11 27.95 45.34 27.91 45.37 27.96 45.37"/>
    <polygon class="a" points="27.91 45.37 27.95 45.34 27.96 45.37 27.91 45.37"/>
    <polygon class="a" points="27.91 45.37 27.95 45.34 27.96 45.37 27.91 45.37"/>
    <path class="a" d="M26.44,28.49V26.06A24.23,24.23,0,0,1,26.44,28.49Z"/>
    <path class="a" d="M26.44,24.34v1.72C26.38,24.49,26.29,23.09,26.44,24.34Z"/>
  </g>
</svg>
